<?xml version="1.0" standalone="no"?>
<!DOCTYPE svg PUBLIC "-//W3C//DTD SVG 1.1//EN" "http://www.w3.org/Graphics/SVG/1.1/DTD/svg11.dtd" >
<svg xmlns="http://www.w3.org/2000/svg" xmlns:xlink="http://www.w3.org/1999/xlink" version="1.1">
<metadata>
Created by FontForge 20170731 at Fri Mar  6 09:07:51 2015
 By Aleksey,,,
Copyright (c) 2015 Dan Reynolds.
</metadata>
<defs>
<font id="Martel-Regular" horiz-adv-x="0" >
  <font-face 
    font-family="Martel"
    font-weight="400"
    font-stretch="normal"
    units-per-em="1000"
    panose-1="0 0 5 0 0 0 0 0 0 0"
    ascent="800"
    descent="-200"
    x-height="546"
    cap-height="758"
    bbox="-667 -542 1440 1050"
    underline-thickness="50"
    underline-position="-150"
    unicode-range="U+000D-FB02"
  />
<missing-glyph horiz-adv-x="595" 
 />
    <glyph glyph-name="fi" unicode="fi" horiz-adv-x="744" 
d="M423 815v-77q-9 6 -33 11t-55 5q-30 0 -50 -9.5t-31.5 -38t-11.5 -82.5v-81h150v-62h-150v-433l113 -9v-39h-300v39l99 10v432h-109v36l109 26v44q0 69 31 123t77 84t90 30q55 0 71 -9zM628.5 785q14.5 -16 14.5 -41q0 -30 -20.5 -48.5t-48.5 -18.5q-23 0 -40.5 15.5
t-17.5 40.5q0 28 21.5 48t47.5 20q29 0 43.5 -16zM635 545v-496l79 -10v-39h-245v39l82 10v409l-68 32v29l131 36z" />
    <glyph glyph-name="fl" unicode="fl" horiz-adv-x="751" 
d="M154 49v432h-109v36l109 26v44q0 69 31 123t77 84t90 30q55 0 71 -9v-77q-9 6 -33 11t-55 5q-30 0 -50 -9.5t-31.5 -38t-11.5 -82.5v-81h150v-62h-150v-433l113 -9v-39h-300v39zM549 49v669l-78 15v41l147 19l19 -11v-733l87 -10v-39h-257v39z" />
    <glyph glyph-name="f_f" unicode="ff" horiz-adv-x="819" 
d="M154 49v432h-109v36l109 26v44q0 69 31 123t77 84t90 30q55 0 71 -9v-77q-9 6 -33 11t-55 5q-30 0 -50 -9.5t-31.5 -38t-11.5 -82.5v-81h150v-62h-150v-433l113 -9v-39h-300v39zM563 49v432h-108v36l108 26v44q0 69 31 123t77.5 84t90.5 30q53 0 71 -9v-77
q-10 6 -33.5 11t-55.5 5q-31 0 -51 -9.5t-31.5 -38t-11.5 -82.5v-81h152v-62h-152v-433l115 -9v-39h-301v39z" />
    <glyph glyph-name="f_f_i" unicode="ffi" horiz-adv-x="1154" 
d="M423 815v-77q-9 6 -33 11t-55 5q-30 0 -50 -9.5t-31.5 -38t-11.5 -82.5v-81h150v-62h-150v-433l113 -9v-39h-300v39l99 10v432h-109v36l109 26v44q0 69 31 123t77 84t90 30q55 0 71 -9zM833 815v-77q-10 6 -33.5 11t-55.5 5q-31 0 -51 -9.5t-31.5 -38t-11.5 -82.5v-81
h152v-62h-152v-433l115 -9v-39h-301v39l99 10v432h-108v36l108 26v44q0 69 31 123t77.5 84t90.5 30q53 0 71 -9zM1037.5 785q14.5 -16 14.5 -41q0 -30 -20.5 -48.5t-48.5 -18.5q-23 0 -40.5 15.5t-17.5 40.5q0 28 21.5 48t47.5 20q29 0 43.5 -16zM1044 545v-496l80 -10v-39
h-246v39l82 10v409l-68 32v29l131 36z" />
    <glyph glyph-name="f_f_l" unicode="ffl" horiz-adv-x="1161" 
d="M154 49v432h-109v36l109 26v44q0 69 31 123t77 84t90 30q55 0 71 -9v-77q-9 6 -33 11t-55 5q-30 0 -50 -9.5t-31.5 -38t-11.5 -82.5v-81h150v-62h-150v-433l113 -9v-39h-300v39zM563 49v432h-108v36l108 26v44q0 69 31 123t77.5 84t90.5 30q53 0 71 -9v-77
q-10 6 -33.5 11t-55.5 5q-31 0 -51 -9.5t-31.5 -38t-11.5 -82.5v-81h152v-62h-152v-433l115 -9v-39h-301v39zM959 49v669l-79 15v41l148 19l19 -11v-733l86 -10v-39h-256v39z" />
    <glyph glyph-name=".notdef" horiz-adv-x="595" 
 />
    <glyph glyph-name=".null" 
 />
    <glyph glyph-name="nonmarkingreturn" unicode="&#xd;" 
 />
    <glyph glyph-name="space" unicode=" " horiz-adv-x="231" 
 />
    <glyph glyph-name="exclam" unicode="!" horiz-adv-x="346" 
d="M193 234h-54l-29 635h116zM221.5 96q14.5 -16 14.5 -41q0 -29 -21 -47.5t-48 -18.5q-23 0 -40.5 15.5t-17.5 40.5q0 28 21.5 47.5t47.5 19.5q29 0 43.5 -16z" />
    <glyph glyph-name="quotedbl" unicode="&#x22;" horiz-adv-x="615" 
d="M250 870l-22 -398h-58l-22 398h102zM466 870l-22 -398h-58l-22 398h102z" />
    <glyph glyph-name="numbersign" unicode="#" horiz-adv-x="700" 
d="M73 178v59h111l18 205h-118v58h121l13 162h76l-13 -162h163l14 162h75l-13 -162h106v-58h-109l-18 -205h110l1 -59h-113l-16 -178h-73l13 178h-163l-16 -178h-75l15 178h-109zM440 442h-163l-17 -205h163z" />
    <glyph glyph-name="dollar" unicode="$" horiz-adv-x="621" 
d="M126 184l29 -98q27 -28 71 -39.5t94 -11.5q64 0 110.5 33.5t46.5 100.5q0 40 -24.5 71.5t-60.5 55.5t-97 57q-65 34 -107 62.5t-70 68.5t-28 92q0 83 59.5 130t140.5 56l2 83h72l-3 -81q54 -3 93.5 -13t61.5 -24v-134h-40l-35 95q-18 16 -50.5 24t-71.5 8
q-33 0 -66.5 -13t-57 -42t-23.5 -74q0 -52 43.5 -89.5t125.5 -79.5q72 -38 115.5 -66t74 -68.5t30.5 -93.5q0 -97 -63.5 -148t-164.5 -56l-4 -103h-71l3 104q-55 4 -105.5 15.5t-70.5 23.5v154h41z" />
    <glyph glyph-name="percent" unicode="%" horiz-adv-x="867" 
d="M331 -2h-72l272 786h73zM320.5 646.5q35.5 -50.5 35.5 -127.5q0 -57 -23 -98t-61 -62t-83 -21q-43 0 -76 24t-50.5 64.5t-17.5 87.5q0 58 23.5 99.5t62 62.5t84.5 21q70 0 105.5 -50.5zM140 614.5q-22 -35.5 -22 -96.5q0 -59 21.5 -96t59.5 -37q40 0 62 34.5t22 95.5
q0 62 -21 98.5t-60 36.5q-40 0 -62 -35.5zM786 389q35 -50 35 -128q0 -56 -22.5 -97t-60 -62.5t-81.5 -21.5t-77 24t-51 64.5t-18 87.5q0 58 23.5 99.5t62 62.5t84.5 21q70 0 105 -50zM606.5 356.5q-22.5 -35.5 -22.5 -96.5q0 -58 22 -95.5t60 -37.5q40 0 62 34.5t22 95.5
q0 62 -21.5 98.5t-60.5 36.5t-61.5 -35.5z" />
    <glyph glyph-name="ampersand" unicode="&#x26;" horiz-adv-x="766" 
d="M469 717q42 -46 42 -115q1 -69 -45 -126.5t-115 -99.5q39 -51 103.5 -124.5t105.5 -110.5q10 23 13 47.5t3 54.5q0 44 -7 76.5t-13 40.5h85q7 -26 11.5 -48t4.5 -50q0 -42 -11.5 -85t-35.5 -78q61 -46 114 -52v-39q-19 -6 -41 -6q-18 0 -28 2q-49 6 -101 42
q-35 -30 -88 -46t-104 -16q-62 0 -123.5 17t-105 60t-43.5 117q0 67 42 113t117 85q-43 60 -66 104.5t-24 94.5q0 58 24.5 100.5t66.5 65t95 22.5q82 0 124 -46zM266.5 689.5q-30.5 -27.5 -30.5 -84.5q1 -60 24.5 -104.5t60.5 -88.5q54 28 84.5 72t30.5 102q0 50 -23 90.5
t-78 40.5q-38 0 -68.5 -27.5zM197.5 272.5q-23.5 -31.5 -23.5 -83.5q0 -46 26 -80.5t70 -52.5t97 -18q101 0 146 41q-55 48 -123 122t-114 137q-55 -34 -78.5 -65.5z" />
    <glyph glyph-name="quotesingle" unicode="'" horiz-adv-x="399" 
d="M250 870l-22 -398h-58l-22 398h102z" />
    <glyph glyph-name="parenleft" unicode="(" horiz-adv-x="399" 
d="M198 -68q-54 61 -98 169t-44 255q0 128 45 234t101 173t90 86l39 -25q-30 -20 -75 -81.5t-80.5 -161.5t-35.5 -225q0 -127 36 -229t82 -165t79 -86l-46 -28q-39 23 -93 84z" />
    <glyph glyph-name="parenright" unicode=")" horiz-adv-x="399" 
d="M142.5 -43q45.5 62 81 163t35.5 227q0 125 -36 226t-82 163.5t-79 86.5l46 28q39 -23 92.5 -84t98 -169t44.5 -254q0 -128 -45 -234t-101 -173t-90 -87l-40 25q30 20 75.5 82z" />
    <glyph glyph-name="asterisk" unicode="*" horiz-adv-x="631" 
d="M299 602l-32 -34l-146 -113l-45 64l166 89l45 16l-44 16l-168 87l45 65l144 -111l35 -34l-12 56l-15 169h83l-14 -169l-15 -56l44 39l136 105l51 -65l-169 -83l-50 -19l49 -17l170 -89l-52 -62l-142 112l-36 34l12 -52l16 -175h-83l15 175z" />
    <glyph glyph-name="plus" unicode="+" horiz-adv-x="618" 
d="M277 358l-80 -3h-111v70h111l80 -6l-4 83v114h72v-114l-5 -83l68 6h125v-70h-125l-68 3l5 -81v-120h-72v120z" />
    <glyph glyph-name="comma" unicode="," horiz-adv-x="338" 
d="M152 136q51 -12 77.5 -59t26.5 -96q1 -78 -45 -137t-109 -84l-21 27v12q36 12 64 55.5t28 91.5q0 39 -21.5 70t-49.5 34v21z" />
    <glyph glyph-name="hyphen" unicode="-" horiz-adv-x="605" 
d="M519 424v-66h-433v66h433z" />
    <glyph glyph-name="period" unicode="." horiz-adv-x="346" 
d="M216 94.5q14 -15.5 14 -38.5q0 -29 -20 -47t-47 -18q-22 0 -38.5 15t-16.5 38q0 27 21 46.5t46 19.5q27 0 41 -15.5z" />
    <glyph glyph-name="slash" unicode="/" horiz-adv-x="398" 
d="M373 781l-276 -958h-82l275 958h83z" />
    <glyph glyph-name="zero" unicode="0" horiz-adv-x="649" 
d="M526.5 530q58.5 -81 58.5 -218q0 -94 -34.5 -168.5t-95 -116t-133.5 -41.5q-88 0 -146 43.5t-85 116t-27 160.5q0 92 37.5 161.5t100.5 106.5t136 37q130 0 188.5 -81zM158 313q0 -117 43.5 -197.5t127.5 -80.5q163 0 163 265q0 119 -41 191t-124 72q-169 0 -169 -250z
" />
    <glyph glyph-name="one" unicode="1" horiz-adv-x="457" 
d="M202 52v457q-43 -11 -134 -31l-9 45q43 13 115.5 46.5t89.5 47.5l27 -7l-2 -559l134 -11v-40h-365v40z" />
    <glyph glyph-name="two" unicode="2" horiz-adv-x="596" 
d="M300 228q94 103 94 192q0 56 -33.5 96.5t-99.5 40.5q-45 0 -93.5 -23t-79.5 -51l-22 35q31 38 94 69t131 31q64 0 108 -23.5t65.5 -62.5t21.5 -83q0 -99 -87 -206t-223 -189l290 20l46 74l39 -13l-32 -135h-441l-13 36q141 89 235 192z" />
    <glyph glyph-name="three" unicode="3" horiz-adv-x="524" 
d="M374 580q54 -40 54 -120q0 -38 -23.5 -78t-61.5 -71t-79 -43q67 2 113.5 -19t69.5 -59t23 -86q0 -67 -41.5 -128.5t-116.5 -99.5t-170 -38q-42 0 -81 7v50q32 -6 62 -6q71 0 129.5 27t91.5 72.5t33 98.5q0 72 -38.5 109t-127.5 38l-31 -6l-53 -11v61q90 16 149 59.5
t59 97.5q1 63 -33 93.5t-88 30.5q-52 0 -88 -15.5t-69 -42.5l-25 41q29 30 84.5 54t127.5 24q76 0 130 -40z" />
    <glyph glyph-name="four" unicode="4" horiz-adv-x="613" 
d="M116 185q72 127 124.5 226.5t103.5 210.5h29l53 -40q-111 -194 -280 -484l-31 -46l264 14l1 235l80 22v-251l106 5v-77h-106v-184h-83l2 184h-328l-14 43q43 78 79 142z" />
    <glyph glyph-name="five" unicode="5" horiz-adv-x="528" 
d="M99 -124q68 0 132.5 32t104.5 87t40 121q0 87 -44.5 129t-119.5 42q-59 0 -131 -25l-18 14l38 328h265l14 9h51l-22 -84h-242l-36 -217q60 28 125 28q58 0 106.5 -24t77.5 -72.5t29 -117.5t-47 -138.5t-128 -114t-176 -44.5q-32 0 -52 6l1 43q22 -2 32 -2z" />
    <glyph glyph-name="six" unicode="6" horiz-adv-x="612" 
d="M502 711q-106 -33 -183.5 -96t-118.5 -140t-44 -155q-4 -122 35 -202.5t133 -80.5q49 0 83 28t50.5 70.5t16.5 87.5q0 90 -35.5 140t-88.5 50q-39 0 -61.5 -8t-40.5 -23l-20 36q14 19 57.5 37t87.5 18q59 0 101.5 -31t63.5 -80t21 -103q0 -66 -30 -128t-87 -101.5
t-133 -39.5q-75 0 -131 38.5t-86 103.5t-30 143q0 119 62 221t159 168t199 85z" />
    <glyph glyph-name="seven" unicode="7" horiz-adv-x="604" 
d="M314 168q63 148 158 383l-313 -10l-44 -93l-46 4l24 160h437l16 -19l-273 -747l-91 32q69 142 132 290z" />
    <glyph glyph-name="eight" unicode="8" horiz-adv-x="607" 
d="M422 736.5q46 -21.5 72.5 -60t26.5 -87.5q0 -56 -38 -115.5t-100 -90.5q83 -48 126.5 -90.5t43.5 -99.5q0 -69 -35 -115.5t-90.5 -69t-117.5 -22.5q-61 0 -117.5 21.5t-93 66t-36.5 108.5q0 58 41 112t115 90q-56 37 -87 81t-31 105t31.5 103.5t81.5 63.5t106 21
t102 -21.5zM245.5 697.5q-32.5 -16.5 -52.5 -45.5t-20 -66q0 -51 41.5 -90t119.5 -84q42 11 76.5 56.5t35.5 92.5q2 67 -35.5 110t-95.5 43q-37 0 -69.5 -16.5zM180.5 293q-33.5 -42 -33.5 -90q0 -47 21.5 -86t61.5 -61.5t94 -22.5q39 0 73.5 17t55.5 47t21 67
q0 36 -21.5 64t-53.5 49.5t-87 51.5l-49 28q-49 -22 -82.5 -64z" />
    <glyph glyph-name="nine" unicode="9" horiz-adv-x="616" 
d="M297 -53.5q76 72.5 116 162.5t43 173q8 283 -162 283q-49 0 -83 -28t-50.5 -70.5t-16.5 -87.5q0 -89 35.5 -139.5t89.5 -50.5q32 0 60 9.5t42 21.5l20 -36q-20 -23 -60 -39t-85 -16q-59 0 -101 31t-63.5 80t-21.5 103q0 66 30 128t87 101.5t133 39.5q75 0 129 -38.5
t81.5 -103.5t27.5 -143q0 -127 -60.5 -241t-156 -189.5t-196.5 -94.5l-17 40q103 32 179 104.5z" />
    <glyph glyph-name="colon" unicode=":" horiz-adv-x="346" 
d="M216.5 488.5q13.5 -15.5 13.5 -37.5q0 -29 -20 -47t-46 -18q-23 0 -39 14.5t-16 37.5q0 29 21 48t47 19q26 -1 39.5 -16.5zM216.5 95q13.5 -15 13.5 -39q0 -29 -20 -47t-46 -18q-23 0 -39 14.5t-16 37.5q0 28 20.5 47.5t45.5 19.5q28 0 41.5 -15z" />
    <glyph glyph-name="semicolon" unicode=";" horiz-adv-x="346" 
d="M215 490q14 -15 14 -38q0 -29 -20 -47.5t-47 -18.5q-22 0 -38.5 15t-16.5 39q0 27 21 46t46 19q27 0 41 -15zM242 77q27 -47 27 -96q0 -78 -46 -137t-109 -84l-21 27v12q36 12 64 55.5t28 91.5q0 39 -21.5 70t-49.5 34v21l50 65q51 -12 78 -59z" />
    <glyph glyph-name="less" unicode="&#x3c;" horiz-adv-x="645" 
d="M538 642v-83l-394 -192l394 -191v-83l-473 244v60z" />
    <glyph glyph-name="equal" unicode="=" horiz-adv-x="605" 
d="M519 518v-67h-433v67h433zM519 324v-67h-433v67h433z" />
    <glyph glyph-name="greater" unicode="&#x3e;" horiz-adv-x="645" 
d="M501 367l-394 191v84l473 -244v-61l-473 -245v84z" />
    <glyph glyph-name="question" unicode="?" horiz-adv-x="494" 
d="M324 854q67 -42 98 -105.5t31 -131.5q0 -29 -3.5 -44.5t-15 -28.5t-37.5 -28q-18 -11 -68 -35q-53 -26 -77.5 -43.5t-24.5 -41.5q0 -28 9.5 -57.5t27.5 -71.5l12 -28h-49q-27 21 -56.5 77.5t-29.5 91.5q1 29 36.5 51.5t103.5 51.5q57 25 72 34q18 10 25 18t6 19
q1 62 -31.5 116t-88.5 86t-120 32q-21 0 -45 -3t-37 -9v70q7 9 35 15.5t58 6.5q102 0 169 -42zM314 94.5q14 -15.5 14 -38.5q0 -29 -20 -47t-47 -18q-22 0 -38.5 15t-16.5 38q0 27 21 46.5t46 19.5q27 0 41 -15.5z" />
    <glyph glyph-name="at" unicode="@" horiz-adv-x="1043" 
d="M765.5 665q76.5 -37 120.5 -106t44 -163q0 -125 -41 -210t-102.5 -126t-121.5 -41q-25 0 -39.5 24.5t-14.5 75.5q0 47 14 125q-36 -95 -90 -163.5t-109 -68.5q-31 0 -60 24t-47 69.5t-18 104.5q0 66 27.5 137.5t78.5 119.5t117 48q31 0 69 -7t61 -20q5 13 9.5 18.5
t12.5 3.5l54 -17q-20 -83 -43 -301q-3 -28 -3 -53q0 -30 4.5 -48t12.5 -18q32 0 71 39t66.5 105.5t27.5 144.5q0 99 -42.5 161.5t-112 91t-153.5 28.5q-101 0 -187 -48.5t-137.5 -141.5t-51.5 -221q0 -124 47.5 -203.5t127 -115.5t178.5 -36q44 0 95.5 10.5t78.5 23.5
l17 -39q-32 -25 -96.5 -41t-128.5 -16q-112 0 -200 47.5t-137.5 135.5t-49.5 204q0 148 66 262t176 176t238 62q95 0 171.5 -37zM410.5 389.5q-37.5 -58.5 -37.5 -145.5q0 -57 16 -106.5t55 -49.5q32 0 74 55.5t76 134t42 137.5q-15 14 -49.5 23.5t-61.5 9.5
q-77 0 -114.5 -58.5z" />
    <glyph glyph-name="A" unicode="A" horiz-adv-x="730" 
d="M71 53l257 706h76l247 -706l79 -13v-40h-253v40l81 13l-55 162h-300l-55 -162l82 -13v-40h-229v40zM397 527l-42 136l-134 -394h263z" />
    <glyph glyph-name="B" unicode="B" horiz-adv-x="693" 
d="M136 53v652l-82 8v45h122l45 3q92 5 137 4q116 -1 178.5 -46t62.5 -125q0 -71 -36.5 -121.5t-108.5 -65.5q54 -1 98 -24t70 -64.5t26 -95.5q0 -105 -80.5 -167.5t-235.5 -62.5q-37 0 -130 5q-20 2 -28 2h-122v40zM295 423h55q76 0 120 39.5t44 115.5q0 68 -48.5 103
t-125.5 35q-27 0 -63.5 -1t-51.5 -6l-1 -283q19 -3 71 -3zM278.5 48.5q40.5 -5.5 73.5 -5.5q90 0 146 38.5t56 124.5q0 84 -48 123t-141 39l-74 1q-40 0 -67 -3v-305q14 -7 54.5 -12.5z" />
    <glyph glyph-name="C" unicode="C" horiz-adv-x="689" 
d="M527 757.5q40 -7.5 85 -20.5l28 -7l-8 -140h-48l-24 84q-31 20 -65.5 29t-85.5 9q-73 0 -135.5 -39t-100 -114t-37.5 -176q0 -95 32 -174.5t94.5 -126.5t149.5 -47q117 0 163 56l26 78h40v-138q-13 -1 -31 -6t-25 -7q-45 -15 -88.5 -23.5t-104.5 -8.5q-100 0 -180 47
t-125 131t-45 191q0 121 54 214.5t144.5 144.5t196.5 51q50 0 90 -7.5z" />
    <glyph glyph-name="D" unicode="D" horiz-adv-x="778" 
d="M136 53v652l-82 8v45h126q47 0 109 4q12 1 36.5 2t44.5 1q182 0 273 -96t91 -270q0 -123 -49 -214.5t-135 -140.5t-195 -49q-21 0 -75 2q-47 3 -98 3h-130v40zM348 45q81 0 147.5 36t106 110.5t39.5 184.5q0 166 -76.5 252t-213.5 86q-73 0 -126 -10v-645q61 -14 123 -14
z" />
    <glyph glyph-name="E" unicode="E" horiz-adv-x="645" 
d="M134 53v652l-82 8v45h508l14 -140h-51l-23 86l-278 6v-288l187 4l14 77h47v-210h-47l-14 78l-187 3v-324l299 8l48 105l44 -11l-22 -152h-541v40z" />
    <glyph glyph-name="F" unicode="F" horiz-adv-x="605" 
d="M137 53v652l-82 8v45h523l9 -140l-45 -1l-23 85l-293 6v-296l217 4l18 73h46v-206h-51l-13 75l-217 4v-309l145 -10v-43h-320v40z" />
    <glyph glyph-name="G" unicode="G" horiz-adv-x="750" 
d="M549 757q47 -8 74 -15t34 -9l-8 -139h-48l-24 83q-12 13 -57.5 24.5t-112.5 10.5q-73 -1 -135.5 -40.5t-99.5 -114t-37 -174.5q0 -92 30 -171.5t90.5 -128t147.5 -48.5q51 0 96.5 11.5t70.5 38.5v208l-123 8v45h274v-45l-62 -9v-253q-13 -1 -36.5 -7.5t-30.5 -8.5
q-67 -18 -113.5 -27.5t-96.5 -9.5q-99 0 -176.5 47.5t-120.5 131.5t-43 190q0 122 53 215t142.5 144t196.5 51q68 0 115 -8z" />
    <glyph glyph-name="H" unicode="H" horiz-adv-x="834" 
d="M135 53v652l-81 8v45h249v-45l-79 -8v-310h384v310l-80 8v45h247v-45l-78 -8v-652l85 -13v-40h-258v40l84 13v288h-384v-288l83 -13v-40h-255v40z" />
    <glyph glyph-name="I" unicode="I" horiz-adv-x="374" 
d="M141 53v652l-84 8v45h257v-45l-84 -8v-652l88 -13v-40h-263v40z" />
    <glyph glyph-name="J" unicode="J" horiz-adv-x="353" 
d="M310 713l-81 -8v-448v-66q0 -116 -10 -170q-12 -59 -48.5 -104t-86.5 -72t-103 -35l-23 33q58 18 99.5 50.5t59.5 77.5q14 40 18.5 90.5t4.5 134.5v509l-83 8v45h253v-45z" />
    <glyph glyph-name="K" unicode="K" horiz-adv-x="694" 
d="M132 53v652l-79 8v45h248v-45l-80 -8v-344l289 344l-77 8v45h238v-45l-79 -8l-234 -267q30 -33 124 -184q60 -96 95 -146.5t48 -51.5l78 -16v-40h-145q-12 0 -38 40t-79 131q-47 83 -79 134t-55 73l-86 -97v-229l89 -12v-40h-259v40z" />
    <glyph glyph-name="L" unicode="L" horiz-adv-x="607" 
d="M136 53v648l-82 7v50h260v-50l-89 -7l-1 -650l271 11l58 118l41 -20l-32 -160h-510v40z" />
    <glyph glyph-name="M" unicode="M" horiz-adv-x="966" 
d="M124 53l48 648l-96 8v49h220l181 -543l22 -72l22 73l172 542h203v-49l-93 -8l56 -648l88 -13v-40h-257v40l86 13l-42 470l-5 169l-22 -85l-206 -614h-31l-192 546q-17 48 -53 156l-5 -175l-25 -467l97 -13v-40h-254v40z" />
    <glyph glyph-name="N" unicode="N" horiz-adv-x="812" 
d="M775 709l-82 -8v-701h-95l-329 518l-69 137v-602l97 -13v-40h-246v40l84 13v648l-81 7v50h170l334 -543l70 -133v618l-82 9v49h229v-49z" />
    <glyph glyph-name="O" unicode="O" horiz-adv-x="759" 
d="M569.5 717.5q71.5 -47.5 110 -131t38.5 -189.5q0 -127 -46 -220t-125 -142t-175 -49q-98 0 -172.5 48t-115 132.5t-40.5 191.5q0 128 50.5 222t134.5 141q80 44 174 44q95 0 166.5 -47.5zM257.5 674.5q-54.5 -41.5 -84.5 -120t-30 -186.5q0 -90 29.5 -166t85 -121.5
t129.5 -45.5q72 0 124.5 42t80.5 121t28 187q0 89 -27.5 165t-81 121t-126.5 45t-127.5 -41.5z" />
    <glyph glyph-name="P" unicode="P" horiz-adv-x="634" 
d="M136 53v648l-83 7v50h127q23 0 61 3q70 4 113 4q123 0 189.5 -51.5t66.5 -175.5q0 -75 -39 -131t-102.5 -86t-134.5 -30h-48q-46 0 -61 -3v-235l132 -13v-40h-315v40zM325 337q88 1 141 45t53 155q0 88 -48 132.5t-140 44.5q-70 0 -107 -9v-362q37 -6 101 -6z" />
    <glyph glyph-name="Q" unicode="Q" horiz-adv-x="759" 
d="M568.5 717.5q71.5 -47.5 110 -131t38.5 -189.5q0 -110 -35.5 -195.5t-97.5 -138t-142 -69.5q20 -51 72 -71.5t116 -20.5q49 0 73 17l8 -57q-9 -15 -39.5 -25.5t-70.5 -10.5q-79 0 -133.5 36.5t-76.5 123.5h-13q-100 0 -176.5 48t-117.5 133t-40 191q0 124 47 215.5
t126 140.5q84 51 185 51q95 0 166.5 -47.5zM257 674.5q-55 -41.5 -85 -120t-30 -186.5q0 -90 29.5 -166t85 -121.5t129.5 -45.5q72 0 124.5 42t80.5 121t28 187q0 89 -27.5 165t-80.5 121t-127 45q-72 0 -127 -41.5z" />
    <glyph glyph-name="R" unicode="R" horiz-adv-x="694" 
d="M518.5 719.5q66.5 -45.5 66.5 -157.5q0 -76 -45 -133t-121 -81l8 -4q35 -15 67 -61t73 -121q31 -55 47.5 -80.5t30.5 -28.5l55 -13v-40h-137q-13 0 -29 26.5t-46 88.5q-50 104 -90 162t-85 54q-27 -1 -88 -1v-277l103 -13v-40h-286v40l94 13v648l-82 7v50h126q20 0 50 3
q56 4 99 4q123 0 189.5 -45.5zM290 715q-47 -2 -65 -7v-326q27 -3 95 -3q83 0 128 43.5t45 129.5q0 82 -41 125t-136 39q-8 -1 -26 -1z" />
    <glyph glyph-name="S" unicode="S" horiz-adv-x="601" 
d="M165 2.5q-66 13.5 -90 27.5v154h41l29 -98q27 -28 71 -39.5t94 -11.5q64 0 110.5 33.5t46.5 100.5q0 40 -24.5 71.5t-60.5 55.5t-97 57q-65 34 -107 62.5t-70 68.5t-28 92q0 64 36.5 106.5t90.5 62.5t109 20q66 0 115 -11.5t75 -26.5v-134h-40l-35 95q-18 16 -50.5 24
t-70.5 8q-33 0 -67 -13t-57.5 -42t-23.5 -74q0 -52 43.5 -89.5t126.5 -79.5q72 -38 115 -66t73.5 -68.5t30.5 -93.5q0 -103 -71 -154t-181 -51q-68 0 -134 13.5z" />
    <glyph glyph-name="T" unicode="T" horiz-adv-x="622" 
d="M275 53v655l-186 -10l-32 -88l-42 -1l12 149h582l-1 -151l-37 -4l-24 96l-183 9v-655l129 -13v-40h-341v40z" />
    <glyph glyph-name="U" unicode="U" horiz-adv-x="770" 
d="M749 713l-76 -9v-373q0 -175 -75.5 -260t-207.5 -85q-159 0 -228.5 82t-69.5 252l1 385l-77 8v45h252v-45l-86 -9v-387q0 -155 58.5 -219t165.5 -64q198 0 198 297v373l-87 9v45h232v-45z" />
    <glyph glyph-name="V" unicode="V" horiz-adv-x="697" 
d="M2 713v45h259v-45l-91 -8l173 -513l32 -103l28 104l152 512l-81 8v45h221v-45l-63 -7l-237 -716h-68l-259 716z" />
    <glyph glyph-name="W" unicode="W" horiz-adv-x="1028" 
d="M2 713v45h257v-45l-94 -8l159 -516l29 -94l29 89l108 433l-27 88l-80 8v45h262v-45l-87 -8l137 -525l23 -91l25 108l132 508l-86 8v45h234v-45l-74 -8l-208 -715h-74l-144 508l-140 -508h-76l-240 715z" />
    <glyph glyph-name="X" unicode="X" horiz-adv-x="694" 
d="M94 53l211 329l-205 323l-75 8v45h270v-45l-89 -8l157 -269l157 269l-77 8v45h231v-45l-71 -7l-207 -307l215 -346l83 -13v-40h-278v40l93 13l-174 284l-158 -284l94 -13v-40h-264v40z" />
    <glyph glyph-name="Y" unicode="Y" horiz-adv-x="661" 
d="M299 54v257l-236 394l-57 8v45h236v-45l-77 -8l160 -295l25 -50l22 51l145 293l-83 9v45h221v-45l-65 -12l-202 -391v-256l105 -14v-40h-294v40z" />
    <glyph glyph-name="Z" unicode="Z" horiz-adv-x="660" 
d="M625 719l-422 -602l-53 -66l377 17l61 124l46 -11l-35 -181h-540l-13 41l426 604l53 64l-358 -11l-44 -110l-48 8l15 162h521z" />
    <glyph glyph-name="bracketleft" unicode="[" horiz-adv-x="419" 
d="M106 800.5q7 24.5 26 34t56 9.5q34 0 60 -4.5t68 -15.5v-39h-143v-816l143 -1v-39q-39 -10 -67.5 -15t-63.5 -5q-36 0 -54 10t-25 34t-7 71v703q0 49 7 73.5z" />
    <glyph glyph-name="backslash" unicode="\" horiz-adv-x="398" 
d="M373 -177h-83l-275 958h82z" />
    <glyph glyph-name="bracketright" unicode="]" horiz-adv-x="420" 
d="M247 785h-143v39q41 10 68 15t59 5q38 0 57 -9.5t26 -34t7 -73.5v-703q0 -47 -7 -71t-25 -34t-55 -10q-34 0 -63 5t-67 15v39l143 1v816z" />
    <glyph glyph-name="asciicircum" unicode="^" horiz-adv-x="641" 
d="M365 748l190 -473h-80l-159 380l-158 -380h-72l189 473h90z" />
    <glyph glyph-name="underscore" unicode="_" horiz-adv-x="691" 
d="M701 -161h-711v67h711v-67z" />
    <glyph glyph-name="grave" unicode="`" horiz-adv-x="432" 
d="M181.5 723q-55.5 40 -80.5 78l66 67l147 -188l-25 -25q-52 28 -107.5 68z" />
    <glyph glyph-name="a" unicode="a" horiz-adv-x="560" 
d="M416 516q52 -40 52 -139l-1 -337h62v-31q-17 -9 -41 -14.5t-49 -5.5q-33 0 -43.5 14t-10.5 52q-56 -67 -167 -67q-45 0 -82 19.5t-58 54t-21 77.5q0 67 52 108.5t126 59.5t145 18v42q0 74 -35 101.5t-102 27.5q-32 0 -74 -11.5t-73 -28.5l-17 42q33 27 92.5 42.5
t103.5 15.5q89 0 141 -40zM218.5 249q-73.5 -29 -73.5 -95q0 -108 120 -108q33 0 65 14.5t49 30.5l1 187q-88 0 -161.5 -29z" />
    <glyph glyph-name="b" unicode="b" horiz-adv-x="618" 
d="M18 736v41l151 16l19 -8v-285q35 28 74 45.5t90 17.5q58 0 107 -27.5t79 -88t30 -152.5q0 -84 -35 -155t-98 -112.5t-143 -41.5q-64 0 -122 13t-69 25v697zM226 44.5q31 -9.5 76 -9.5q47 0 88 28t66 84.5t25 138.5q0 108 -48 161t-118 53q-39 0 -72 -14t-55 -34v-379
q7 -19 38 -28.5z" />
    <glyph glyph-name="c" unicode="c" horiz-adv-x="512" 
d="M406.5 554.5q34.5 -6.5 52.5 -17.5v-114h-43l-24 62q-15 12 -37.5 17.5t-45.5 5.5q-48 0 -87 -24t-62.5 -71.5t-23.5 -115.5q0 -83 26.5 -138t68 -81t87.5 -26q37 0 79 9.5t63 22.5l16 -41q-28 -25 -80 -39t-109 -14q-74 0 -127.5 35.5t-81 98t-27.5 141.5q0 90 37.5 157
t101.5 103t143 36q39 0 73.5 -6.5z" />
    <glyph glyph-name="d" unicode="d" horiz-adv-x="621" 
d="M517 782v-742h66v-35q-15 -8 -44.5 -13.5t-54.5 -5.5q-30 0 -40.5 12.5t-10.5 47.5q-22 -22 -65.5 -40t-103.5 -18q-58 0 -106.5 30.5t-78 92.5t-29.5 153q0 85 37.5 153.5t102 107t142.5 38.5q50 0 97 -15v170l-102 16v40l169 19zM234 490q-42 -24 -69.5 -76.5
t-27.5 -133.5q0 -75 22 -127t59 -77.5t81 -25.5q37 0 72.5 11.5t57.5 33.5v380q-15 16 -39 27.5t-69 11.5t-87 -24z" />
    <glyph glyph-name="e" unicode="e" horiz-adv-x="560" 
d="M459 507q51 -58 51 -160q0 -35 -6 -77h-367q0 -102 49.5 -161t141.5 -59q40 0 84 9.5t66 22.5l17 -39q-28 -25 -85.5 -40t-115.5 -15q-116 0 -180.5 76.5t-64.5 206.5q0 83 34.5 148.5t96 103.5t139.5 40q89 2 140 -56zM189.5 466.5q-43.5 -47.5 -51.5 -142.5h279
q1 10 1 30q0 109 -56 143q-26 17 -66 17q-63 0 -106.5 -47.5z" />
    <glyph glyph-name="f" unicode="f" horiz-adv-x="410" 
d="M154 49v432h-109v36l109 26v44q0 69 31 123t77 84t90 30q55 0 71 -9v-77q-9 6 -33 11t-55 5q-30 0 -50 -9.5t-31.5 -38t-11.5 -82.5v-81h150v-62h-150v-433l113 -9v-39h-300v39z" />
    <glyph glyph-name="g" unicode="g" horiz-adv-x="588" 
d="M434 529q24 24 82 24h59v-69h-101q26 -41 26 -98q0 -62 -30 -107.5t-80 -69t-109 -23.5q-58 0 -102 18q-6 -14 -7.5 -29.5t-1.5 -37.5q0 -29 15 -43.5t51 -16.5q16 -2 67 -2h57q85 0 128 -23t55 -54.5t12 -72.5q0 -56 -31.5 -97.5t-89.5 -64t-136 -22.5
q-102 0 -169.5 33.5t-67.5 110.5q0 42 26 78.5t57 55.5q-25 10 -37 23.5t-14 26.5t-2 34t16.5 56t43.5 59q-82 48 -82 150q0 65 33 110t85.5 67t111.5 22q82 0 135 -38zM191 487q-34 -32 -34 -102q0 -67 34.5 -108.5t103.5 -41.5q60 0 89 34t29 104q0 75 -33 110.5t-99 35.5
q-56 0 -90 -32zM146 -86q0 -64 47 -93t117 -29q81 0 127.5 28t46.5 83q0 34 -11.5 55t-43.5 32.5t-91 11.5l-69 1q-57 0 -89 7q-34 -36 -34 -96z" />
    <glyph glyph-name="h" unicode="h" horiz-adv-x="686" 
d="M134 49v669l-83 15v41l149 19l22 -11l-1 -221l-2 -79q42 33 98 54t97 21q66 0 101.5 -26.5t49.5 -82.5t13 -152v-247l73 -10v-39h-243v39l82 10v211q0 87 -8 134.5t-33 71.5t-78 24q-36 0 -76.5 -11t-72.5 -34v-396l72 -10v-39h-233v39z" />
    <glyph glyph-name="i" unicode="i" horiz-adv-x="334" 
d="M218.5 785q14.5 -16 14.5 -41q0 -29 -21 -48t-48 -19q-23 0 -40.5 15.5t-17.5 40.5q0 28 21.5 48t47.5 20q29 0 43.5 -16zM225 545v-496l80 -10v-39h-246v39l82 10v409l-69 32v29l132 36z" />
    <glyph glyph-name="j" unicode="j" horiz-adv-x="317" 
d="M214.5 793.5q14.5 -15.5 14.5 -41.5q0 -30 -20 -48t-48 -18q-24 0 -41 15.5t-17 40.5q0 28 21.5 47.5t46.5 19.5q29 0 43.5 -15.5zM224 545v-553q0 -114 -46.5 -178.5t-127.5 -64.5q-14 0 -32.5 2t-21.5 5v62q13 -5 53 -5q32 0 51.5 17t28.5 57.5t9 111.5v459l-69 33v28
l134 36z" />
    <glyph glyph-name="k" unicode="k" horiz-adv-x="623" 
d="M135 49v669l-87 15v41l156 19l19 -11v-428l-3 -86l226 228l-73 7v48h226v-48l-74 -8l-171 -168l210 -278l68 -9v-40h-233v40l69 10l-167 233l-81 -79l3 -101v-54l72 -10v-39h-239v39z" />
    <glyph glyph-name="l" unicode="l" horiz-adv-x="341" 
d="M139 49v669l-78 15v41l147 19l19 -11v-733l86 -10v-39h-256v39z" />
    <glyph glyph-name="m" unicode="m" horiz-adv-x="1012" 
d="M135 49v407l-71 34v30l127 35l20 -10v-68q36 30 93 54t105 25q53 2 85.5 -14t50.5 -55q35 28 96.5 48.5t109.5 20.5q57 0 90.5 -24t48 -74.5t14.5 -134.5v-274l82 -10v-39h-237v39l67 10v259q0 66 -8.5 104.5t-32.5 58t-70 19.5q-69 0 -146 -43q11 -43 11 -119v-279
l76 -10v-39h-237v39l74 10v266q0 65 -8.5 102t-32 55t-68.5 18q-31 0 -71.5 -13.5t-79.5 -39.5v-388l74 -10v-39h-230v39z" />
    <glyph glyph-name="n" unicode="n" horiz-adv-x="683" 
d="M135 49v407l-71 34v29l126 36l21 -10v-68q37 31 99 55.5t111 24.5q84 0 119 -54t35 -177v-277l78 -10v-39h-240v39l74 10v263q0 64 -9.5 102.5t-33 57t-67.5 18.5q-35 0 -76 -13.5t-78 -39.5v-388l74 -10v-39h-230v39z" />
    <glyph glyph-name="o" unicode="o" horiz-adv-x="602" 
d="M447.5 525.5q54.5 -37.5 80.5 -101.5t26 -143q-1 -85 -35 -152t-92 -104t-129 -37q-85 0 -140.5 39.5t-81.5 105.5t-26 146q0 85 36.5 150t96.5 99.5t130 34.5q80 0 134.5 -37.5zM182 455q-39 -59 -39 -166t41.5 -178.5t121.5 -71.5t117 60.5t37 176.5q0 107 -40 172.5
t-121 65.5q-78 0 -117 -59z" />
    <glyph glyph-name="p" unicode="p" horiz-adv-x="646" 
d="M489.5 535q48.5 -28 78 -89t29.5 -155q0 -83 -35.5 -152t-98.5 -109.5t-144 -40.5q-50 0 -104 17l3 -132v-75l101 -9v-40h-259v40l70 10v656l-69 34v29l125 36l21 -10v-56q26 29 73 51.5t102 22.5q59 0 107.5 -28zM273 488.5q-31 -15.5 -56 -37.5l1 -370q12 -20 40.5 -32
t70.5 -12q48 0 89 26.5t66.5 82t25.5 139.5q0 112 -47 165.5t-117 53.5q-42 0 -73 -15.5z" />
    <glyph glyph-name="q" unicode="q" horiz-adv-x="607" 
d="M396 557.5q29 -5.5 49 -14.5l53 13l19 -9v-744l67 -9v-44h-258v44l103 10v173l3 74q-71 -65 -169 -65q-47 0 -95 22.5t-83.5 85t-35.5 172.5q0 83 37 151t102.5 107t148.5 39q30 0 59 -5.5zM228.5 487q-42.5 -27 -67.5 -81t-25 -132q0 -108 43 -166.5t116 -58.5
q46 0 80 14t54 34v378q-32 39 -106 39q-52 0 -94.5 -27z" />
    <glyph glyph-name="r" unicode="r" horiz-adv-x="451" 
d="M135 49v407l-71 34v29l126 36l22 -10v-73q20 29 73.5 56.5t97.5 27.5q36 0 48 -3v-93q-22 8 -38.5 11.5t-44.5 3.5q-69 0 -125 -37v-388l142 -11v-39h-311v39z" />
    <glyph glyph-name="s" unicode="s" horiz-adv-x="512" 
d="M121 140l19 -61q25 -22 53.5 -31.5t66.5 -9.5q54 0 86.5 24t32.5 70q0 24 -14 41.5t-34.5 29.5t-58.5 29l-35 16q-70 32 -111 70t-41 95q0 49 29.5 83t75.5 50.5t94 16.5q44 0 84.5 -10.5t63.5 -24.5v-103h-39l-20 57q-33 35 -89 35q-53 0 -84 -22.5t-31 -65.5
q0 -34 27 -55.5t84 -48.5l25 -12q8 -4 57 -26.5t75 -56.5t26 -78q0 -79 -59.5 -121.5t-153.5 -42.5q-45 0 -89.5 10.5t-80.5 31.5v110h41z" />
    <glyph glyph-name="t" unicode="t" horiz-adv-x="422" 
d="M215 546h170v-57h-170v-261q0 -78 4 -113t16 -49t40 -14q26 0 57.5 8.5t45.5 17.5l14 -40q-20 -22 -66.5 -36t-84.5 -14q-56 0 -84 33.5t-28 106.5v361h-75v34l22 5q32 7 44 12.5t21 23.5q6 15 16.5 55.5t12.5 57.5h45v-131z" />
    <glyph glyph-name="u" unicode="u" horiz-adv-x="631" 
d="M53 496v35l120 25l17 -9v-336q0 -59 8.5 -92.5t32 -50t67.5 -16.5q42 0 83.5 20t59.5 38v368l-61 14v38l134 26l13 -8v-508h60v-35q-15 -8 -41 -14t-47 -6q-49 0 -49 40v41q-44 -37 -91.5 -56.5t-94.5 -19.5q-72 0 -107 28.5t-44 76t-10 129.5v259z" />
    <glyph glyph-name="v" unicode="v" horiz-adv-x="581" 
d="M1 498v48h213v-48l-64 -9l113 -275l46 -137l44 131l99 281l-65 9v48h194v-48l-55 -10l-198 -500h-62l-216 502z" />
    <glyph glyph-name="w" unicode="w" horiz-adv-x="827" 
d="M1 498v48h212v-48l-71 -10l98 -317l24 -96l21 96l98 375h78l101 -375l25 -97l25 94l82 321l-63 9v48h195v-48l-61 -10l-146 -500h-81l-108 378l-14 75l-19 -75l-102 -378h-75l-167 502z" />
    <glyph glyph-name="x" unicode="x" horiz-adv-x="571" 
d="M78 49l164 216l-170 225l-70 8v48h243v-48l-71 -8l98 -144l25 -38l22 35l100 148l-70 7v48h215v-48l-74 -9l-162 -213l174 -227l67 -10v-39h-240v39l70 10l-127 180l-21 -37l-100 -143l89 -10v-39h-235v39z" />
    <glyph glyph-name="y" unicode="y" horiz-adv-x="563" 
d="M113 -177q44 0 87 38t73 135h-19l-199 494l-54 8v48h225v-48l-73 -9l117 -331l36 -107l30 104l102 335l-78 8v48h209v-48l-56 -7l-22 -65q-68 -200 -106 -309t-49 -135q-40 -103 -81.5 -158.5t-97.5 -69.5q-16 -5 -44 -5q-11 0 -23.5 2t-16.5 5v73q17 -6 40 -6z" />
    <glyph glyph-name="z" unicode="z" horiz-adv-x="527" 
d="M493 508l-294 -400l-49 -63l272 11l30 84l47 -1l-8 -139h-433l-15 38l36 48l268 369l41 48l-251 -7l-28 -91h-43v141h414z" />
    <glyph glyph-name="braceleft" unicode="{" horiz-adv-x="503" 
d="M124.5 320q-38.5 20 -83.5 31v57q49 12 85.5 29t36.5 35v255q0 49 7.5 73.5t26.5 34t56 9.5q32 0 56 -4t45 -9t27 -7v-39h-143v-311q0 -23 -13.5 -38.5t-33.5 -26t-63 -30.5q55 -25 82.5 -46t27.5 -52v-313h143v-40q-7 -2 -32.5 -8t-49 -9t-48.5 -3q-36 0 -54.5 10
t-26 35t-7.5 73v256q0 18 -38.5 38z" />
    <glyph glyph-name="bar" unicode="|" horiz-adv-x="428" 
d="M254 869v-960h-79v960h79z" />
    <glyph glyph-name="braceright" unicode="}" horiz-adv-x="470" 
d="M232 281q0 31 28 52.5t81 45.5q-45 22 -64 32.5t-32 25.5t-13 37v311h-142l-1 39q46 11 70 15.5t58 4.5q38 0 57 -9.5t26 -34t7 -73.5v-255q0 -18 36.5 -35t85.5 -29v-57q-44 -11 -83 -31t-39 -38v-256q0 -49 -7 -73.5t-25.5 -34.5t-55.5 -10q-32 0 -56.5 4t-45.5 9
t-28 7l1 40h142v313z" />
    <glyph glyph-name="asciitilde" unicode="~" horiz-adv-x="615" 
d="M142 488.5q45 26.5 96 26.5q27 0 47 -11.5t47 -34.5q21 -19 36.5 -28.5t33.5 -9.5q52 0 105 53l34 -41q-23 -38 -68 -65t-96 -27q-28 0 -48.5 12t-46.5 35q-21 19 -36.5 28.5t-33.5 9.5q-31 0 -56 -15t-49 -39l-33 41q23 39 68 65.5z" />
    <glyph glyph-name="DEL" 
 />
    <glyph glyph-name="uni00A0" unicode="&#xa0;" horiz-adv-x="231" 
 />
    <glyph glyph-name="exclamdown" unicode="&#xa1;" horiz-adv-x="349" 
d="M222 685q14 -15 14 -39q0 -29 -20.5 -47t-48.5 -18q-22 2 -37.5 16.5t-15.5 38.5q0 27 21 45.5t46 18.5q27 0 41 -15zM226 -198h-116l33 652h54z" />
    <glyph glyph-name="cent" unicode="&#xa2;" horiz-adv-x="546" 
d="M110.5 82.5q-49.5 73.5 -49.5 182.5q0 80 30.5 143.5t84 101.5t120.5 48l8 107h56l-6 -104q35 -1 67.5 -7.5t47.5 -16.5v-114h-43l-24 62q-15 12 -38 17.5t-45 5.5q-48 0 -87 -24t-62.5 -71.5t-23.5 -114.5q0 -83 26.5 -138.5t68 -81.5t87.5 -26q37 0 78.5 9.5t63.5 22.5
l16 -41q-26 -23 -74.5 -37t-102.5 -16l-6 -95h-57l5 99q-91 15 -140.5 88.5z" />
    <glyph glyph-name="sterling" unicode="&#xa3;" horiz-adv-x="705" 
d="M521.5 756q31.5 -9 58.5 -32l-44 -83q-5 9 -22.5 25t-46 29t-61.5 13q-113 0 -113 -225v-56h164v-66h-163v-25q0 -96 -14 -147t-48 -105q27 -1 83 -23q22 -8 45.5 -15.5t43.5 -10.5q24 -4 48 -4q65 0 93.5 32t28.5 79q0 22 -9.5 42.5t-28.5 34.5l41 79q39 -16 60.5 -54.5
t21.5 -88.5q0 -65 -41 -116t-145 -56q-11 -1 -32 -1q-56 0 -100 12.5t-91 32.5q-26 11 -40 15.5t-24 2.5q-20 -27 -45 -43.5t-53 -16.5q-18 0 -32 9t-14 33q0 17 17.5 34.5t49 28t69.5 8.5q13 21 20.5 61t7.5 78v124h-91v66h91v54q0 76 30.5 140.5t85.5 103.5t125 39
q43 1 74.5 -8z" />
    <glyph glyph-name="currency" unicode="&#xa4;" horiz-adv-x="702" 
d="M238 487q51 35 109 35q65 0 116 -40l89 88l39 -40l-90 -90q32 -48 32 -103q0 -63 -36 -110l88 -88l-40 -39l-88 88q-49 -36 -110 -36q-58 0 -107 33l-88 -88l-39 39l86 87q-38 49 -38 114q0 63 37 111l-87 88l39 40zM287 446q-28 -17 -44 -46t-16 -63t16 -63t44 -46
t60 -17q50 0 85.5 37t35.5 89t-35.5 89t-85.5 37q-32 0 -60 -17z" />
    <glyph glyph-name="yen" unicode="&#xa5;" horiz-adv-x="688" 
d="M299 53v136h-209v58h209v116h-209v58h179l-189 284l-65 8v45h241v-45l-75 -8l143 -228l26 -56h12l31 60l131 224l-74 8v45h219v-45l-69 -13l-179 -279h171v-58h-203v-116h203v-58h-203v-135l101 -14v-40h-288v40z" />
    <glyph glyph-name="brokenbar" unicode="&#xa6;" horiz-adv-x="428" 
d="M254 869v-436h-79v436h79zM254 346v-437h-79v437h79z" />
    <glyph glyph-name="section" unicode="&#xa7;" horiz-adv-x="648" 
d="M453.5 851.5q49.5 -11.5 75.5 -26.5v-134h-39l-36 95q-13 15 -46.5 22.5t-74.5 7.5q-32 0 -66.5 -14t-59 -45t-24.5 -78q0 -36 23.5 -63.5t57.5 -47t94 -46.5q68 -30 109 -54t70 -61t29 -89q0 -43 -12.5 -85.5t-33.5 -69.5q39 -45 39 -101q0 -99 -70.5 -147t-180.5 -48
q-68 0 -133.5 13.5t-89.5 28.5v154h40l30 -95q30 -33 69 -42.5t95 -9.5q63 0 109 28.5t46 90.5q0 39 -24 68t-58.5 49t-95.5 49q-66 30 -107 54.5t-69 61.5t-28 88q0 40 15.5 80.5t39.5 66.5q-47 49 -47 110q0 65 37.5 110.5t93 68t107.5 22.5q66 0 115.5 -11.5zM176 422
q0 -37 23.5 -64.5t58.5 -47t93 -45.5q29 -13 60 -28.5t53 -29.5q18 41 18 84q0 39 -23.5 68t-58 49t-95.5 49q-76 36 -106 55q-23 -41 -23 -90z" />
    <glyph glyph-name="dieresis" unicode="&#xa8;" horiz-adv-x="509" 
d="M94.5 696.5q-16.5 14.5 -16.5 39.5q0 27 20.5 46t46.5 19q29 0 43.5 -15.5t14.5 -39.5q0 -29 -20.5 -46.5t-47.5 -17.5q-24 0 -40.5 14.5zM320.5 696.5q-16.5 14.5 -16.5 39.5q0 27 21 46t46 19q29 0 43.5 -15.5t14.5 -39.5q0 -29 -20.5 -46.5t-47.5 -17.5
q-24 0 -40.5 14.5z" />
    <glyph glyph-name="copyright" unicode="&#xa9;" horiz-adv-x="996" 
d="M703.5 881.5q94.5 -56.5 150.5 -152t56 -207.5q0 -111 -56 -206.5t-151 -152t-205 -56.5q-111 0 -205.5 56.5t-150.5 152t-56 206.5q0 112 56 207.5t150.5 152t205.5 56.5t205.5 -56.5zM321 834q-81 -49 -128.5 -132t-47.5 -180q0 -96 47.5 -179t128.5 -132t177 -49
t176.5 49t128 132t47.5 179q0 97 -47.5 180t-128 132t-176.5 49t-177 -49zM532 769q41 0 76 -6.5t48 -22.5v-101h-53l-23 63q-14 8 -30.5 12t-53.5 4q-59 0 -93.5 -50.5t-34.5 -130.5q0 -55 21 -98t59 -67.5t87 -24.5q31 0 65.5 10.5t46.5 21.5l14 -34q-22 -25 -65.5 -42.5
t-93.5 -17.5q-105 0 -161.5 64t-56.5 169q0 66 32.5 122t83.5 90t103 38q8 1 29 1z" />
    <glyph glyph-name="ordfeminine" unicode="&#xaa;" horiz-adv-x="473" 
d="M316.5 767q34.5 -11 54.5 -42.5t20 -92.5l-1 -226h43v-34q-14 -6 -38 -11t-40 -5q-26 0 -33.5 11.5t-8.5 42.5q-59 -51 -151 -51q-25 0 -53.5 13t-48 39.5t-19.5 64.5q0 80 74 109t196 29v14q0 41 -13 61t-35.5 26.5t-59.5 6.5q-38 0 -72 -8.5t-52 -22.5l-17 40
q22 19 71 33t96 14q53 0 87.5 -11zM176 554q-50 -18 -50 -64q0 -35 19.5 -56t50.5 -21q32 0 64.5 10t50.5 26v123q-85 0 -135 -18z" />
    <glyph glyph-name="guillemotleft" unicode="&#xab;" horiz-adv-x="928" 
d="M437 526l24 -40l-257 -186l257 -179l-24 -42l-317 182v75zM784 526l23 -40l-256 -186l256 -179l-23 -42l-318 182v75z" />
    <glyph glyph-name="logicalnot" unicode="&#xac;" horiz-adv-x="601" 
d="M515 424v-260h-75v201h-354v59h429z" />
    <glyph glyph-name="uni00AD" unicode="&#xad;" horiz-adv-x="601" 
d="M86 358zM519 424v-66h-433v66h433z" />
    <glyph glyph-name="registered" unicode="&#xae;" horiz-adv-x="996" 
d="M703.5 881.5q94.5 -56.5 150.5 -152t56 -207.5q0 -111 -56 -206.5t-151 -152t-205 -56.5q-111 0 -205.5 56.5t-150.5 152t-56 206.5q0 112 56 207.5t150.5 152t205.5 56.5t205.5 -56.5zM321 834q-81 -49 -128.5 -132t-47.5 -180q0 -96 47.5 -179t128.5 -132t177 -49
t176.5 49t128 132t47.5 179q0 97 -47.5 180t-128 132t-176.5 49t-177 -49zM638 732q43 -30 45 -85q0 -53 -28.5 -93t-99.5 -52q27 -15 45 -38t37 -58q22 -38 38.5 -56t45.5 -18v-42h-72q-31 0 -48 22t-37 68q-18 43 -36 70.5t-49 40.5l-44 2v-153l47 -11v-39h-175v39l46 13
v362l-46 11v45h78q19 -1 32.5 -0.5t23.5 0.5q32 2 71 2q83 0 126 -30zM476 716q-17 0 -41 -5v-173q30 -4 68 -3q43 0 70 27t27 64q0 47 -27.5 68.5t-75.5 21.5h-21z" />
    <glyph glyph-name="macron" unicode="&#xaf;" horiz-adv-x="438" 
d="M355 777v-68h-259v68h259z" />
    <glyph glyph-name="degree" unicode="&#xb0;" horiz-adv-x="333" 
d="M245 757q36 -21 57 -56.5t21 -76.5q0 -42 -21 -78t-57 -57t-79 -21q-42 0 -77.5 21t-56.5 57t-21 78q0 41 21 76.5t56.5 56.5t77.5 21q43 0 79 -21zM93.5 697q-28.5 -29 -28.5 -73q0 -42 29.5 -72.5t72.5 -30.5t72 29.5t29 73.5q0 42 -29.5 72t-71.5 30q-45 0 -73.5 -29z
" />
    <glyph glyph-name="plusminus" unicode="&#xb1;" horiz-adv-x="619" 
d="M277 358l-80 -3h-111v70h111l80 -6l-3 83v114h71v-114l-5 -83l68 6h125v-70h-125l-68 3l5 -81v-120h-71v120zM525 87v-67h-434v67h434z" />
    <glyph glyph-name="uni00B2" unicode="&#xb2;" horiz-adv-x="613" 
d="M201.5 480.5q72.5 46.5 127 101t54.5 99.5q0 49 -31 72.5t-79 23.5q-45 0 -93 -23t-77 -60l-33 40q17 26 51 51.5t78.5 42t92.5 16.5q69 0 111.5 -21t60.5 -51t18 -61q0 -59 -38.5 -110.5t-103.5 -96.5t-165 -98l264 18l56 73l46 -19l-28 -126h-423l-20 52
q59 30 131.5 76.5z" />
    <glyph glyph-name="uni00B3" unicode="&#xb3;" horiz-adv-x="559" 
d="M177 363q38 -7 70 -7q71 1 109 31.5t38 77.5q0 41 -29 63t-78 23q-8 -1 -31 -5l-68 -14v55q78 14 122.5 47t44.5 82q0 33 -26.5 48t-66.5 15q-35 0 -79 -14t-68 -32l-23 41q34 26 91.5 45t108.5 19q47 0 81.5 -16.5t53 -43.5t18.5 -59q0 -90 -113 -130q55 3 89 -17.5
t48 -51t14 -59.5q0 -46 -27.5 -82.5t-78.5 -57.5t-120 -21q-32 0 -73 8t-74 23v51q29 -12 67 -19z" />
    <glyph glyph-name="acute" unicode="&#xb4;" horiz-adv-x="432" 
d="M264 868l66 -67q-24 -37 -78.5 -77t-109.5 -69l-25 25z" />
    <glyph glyph-name="paragraph" unicode="&#xb6;" horiz-adv-x="659" 
d="M442 762l83 -4h85v-46l-85 -15v-644l74 -13v-40h-151l-1 697l-104 1v-698h-173v40l98 13v278q-105 0 -157.5 53.5t-52.5 166.5q0 100 63 158.5t189 58.5q32 0 132 -6z" />
    <glyph glyph-name="periodcentered" unicode="&#xb7;" horiz-adv-x="336" 
d="M216 458q14 -15 14 -39q0 -28 -19.5 -46t-44.5 -18q-23 0 -40 14.5t-17 37.5q0 28 20.5 47t45.5 19q27 0 41 -15z" />
    <glyph glyph-name="cedilla" unicode="&#xb8;" horiz-adv-x="301" 
d="M157 -39q0 -15 1 -22q62 1 94.5 -27t32.5 -65q0 -48 -34.5 -75t-89.5 -29l-23 -1q-30 0 -49 5t-25 6l1 46q11 -3 28.5 -5t29.5 -2q34 0 53.5 11t19.5 45q0 25 -20 38.5t-59 13.5q-9 0 -16 -1t-10 -1q0 47 16 102h53q-3 -15 -3 -39z" />
    <glyph glyph-name="uni00B9" unicode="&#xb9;" horiz-adv-x="530" 
d="M240 403v331q-62 -17 -136 -33l-9 46q45 14 118.5 47t90.5 48l25 -8l-1 -432l129 -12v-39h-352v39z" />
    <glyph glyph-name="ordmasculine" unicode="&#xba;" horiz-adv-x="489" 
d="M392 722q52 -56 52 -153q0 -71 -31 -118t-77.5 -69.5t-95.5 -22.5q-55 0 -99 24t-69.5 70.5t-25.5 110.5q0 71 30.5 119.5t77.5 71.5t97 23q89 0 141 -56zM164 691.5q-29 -39.5 -29 -117.5q0 -76 29.5 -122t74.5 -46q59 0 87.5 33.5t28.5 119.5q0 78 -28.5 125t-79.5 47
q-54 0 -83 -39.5z" />
    <glyph glyph-name="guillemotright" unicode="&#xbb;" horiz-adv-x="928" 
d="M376 304l-255 179l24 43l317 -182v-76l-317 -189l-24 39zM469 483l24 43l317 -182v-76l-317 -189l-24 39l255 186z" />
    <glyph glyph-name="onequarter" unicode="&#xbc;" horiz-adv-x="1283" 
d="M821 899l-370 -1066l-60 19l371 1066zM256 403v331q-62 -17 -136 -33l-9 46q45 14 118.5 47t90.5 48l25 -8l-1 -432l129 -12v-39h-352v39zM995 544l50 -46l-251 -318l-31 -42l209 15l2 129l79 9v-132l134 9l2 -77h-136v-178h-82l1 178h-263l-24 43l279 409z" />
    <glyph glyph-name="onehalf" unicode="&#xbd;" horiz-adv-x="1283" 
d="M819 902l-370 -1069l-60 14l371 1071zM256 403v331q-62 -17 -136 -33l-9 46q45 14 118.5 47t90.5 48l25 -8l-1 -432l129 -12v-39h-352v39zM845 128.5q72 46.5 126.5 100.5t54.5 99q0 49 -31.5 73t-79.5 24q-44 0 -92 -23t-78 -60l-33 39q17 26 51 52t79 42.5t93 16.5
q70 0 112.5 -21.5t60 -52t17.5 -61.5q0 -59 -38.5 -110t-103.5 -95.5t-165 -97.5l263 17l56 74l47 -19l-29 -127h-422l-20 53q60 30 132 76.5z" />
    <glyph glyph-name="threequarters" unicode="&#xbe;" horiz-adv-x="1293" 
d="M822 902l-370 -1069l-60 14l371 1071zM178 363q38 -7 70 -7q71 1 109 31.5t38 77.5q0 41 -29 63t-78 23q-8 -1 -31 -5l-68 -14v55q78 14 122.5 47t44.5 82q0 33 -26.5 48t-66.5 15q-35 0 -79 -14t-68 -32l-23 41q34 26 91.5 45t108.5 19q47 0 81.5 -16.5t53 -43.5
t18.5 -59q0 -90 -113 -130q55 3 89 -17.5t48 -51t14 -59.5q0 -46 -27.5 -82.5t-78.5 -57.5t-120 -21q-32 0 -73 8t-74 23v51q29 -12 67 -19zM995 544l50 -46l-251 -318l-32 -42l210 15l2 129l79 9v-132l134 9l2 -77h-136v-178h-82l1 178h-263l-24 43l279 409z" />
    <glyph glyph-name="questiondown" unicode="&#xbf;" horiz-adv-x="494" 
d="M271 685.5q14 -15.5 14 -38.5q0 -29 -20 -47t-47 -18q-22 0 -38.5 15t-16.5 38q0 27 21 46.5t46 19.5q27 0 41 -15.5zM270 452q26 -20 55.5 -76.5t29.5 -91.5q-1 -29 -36.5 -52t-102.5 -51q-7 -3 -32 -14t-41 -21q-18 -10 -24.5 -18t-6.5 -21q0 -62 33 -115t88.5 -84.5
t119.5 -31.5q56 0 81 12v-70q-7 -9 -35 -15.5t-58 -6.5q-102 0 -168.5 41.5t-97.5 105.5t-32 132q0 29 3.5 44.5t15 28.5t37.5 28q21 13 67 35q53 26 78 43.5t25 41.5q0 28 -9.5 57t-28.5 73l-11 26h50z" />
    <glyph glyph-name="Agrave" unicode="&#xc0;" horiz-adv-x="730" 
d="M274 818.5q-51 23.5 -94 52.5l66 67l148 -128l-24 -25q-45 10 -96 33.5zM71 53l257 706h76l247 -706l79 -13v-40h-253v40l81 13l-55 162h-300l-55 -162l82 -13v-40h-229v40zM397 527l-42 136l-134 -394h263z" />
    <glyph glyph-name="Aacute" unicode="&#xc1;" horiz-adv-x="730" 
d="M486 938l65 -67q-43 -29 -94 -52.5t-96 -33.5l-24 25zM71 53l257 706h76l247 -706l79 -13v-40h-253v40l81 13l-55 162h-300l-55 -162l82 -13v-40h-229v40zM397 527l-42 136l-134 -394h263z" />
    <glyph glyph-name="Acircumflex" unicode="&#xc2;" horiz-adv-x="730" 
d="M322 938h86l127 -126l-39 -23l-131 87l-133 -87l-36 22zM71 53l257 706h76l247 -706l79 -13v-40h-253v40l81 13l-55 162h-300l-55 -162l82 -13v-40h-229v40zM397 527l-42 136l-134 -394h263z" />
    <glyph glyph-name="Atilde" unicode="&#xc3;" horiz-adv-x="730" 
d="M228.5 913.5q38.5 24.5 76.5 24.5q23 0 38.5 -9t35.5 -27q18 -15 29.5 -22t26.5 -7q50 0 91 43l24 -34q-18 -34 -56.5 -58.5t-76.5 -24.5q-23 0 -39 9.5t-36 27.5q-18 16 -29.5 23t-26.5 7q-24 0 -48.5 -12.5t-42.5 -30.5l-24 32q19 34 57.5 58.5zM71 53l257 706h76
l247 -706l79 -13v-40h-253v40l81 13l-55 162h-300l-55 -162l82 -13v-40h-229v40zM397 527l-42 136l-134 -394h263z" />
    <glyph glyph-name="Adieresis" unicode="&#xc4;" horiz-adv-x="730" 
d="M299.5 918.5q14.5 -15.5 14.5 -40.5q0 -29 -20.5 -47.5t-47.5 -18.5q-24 0 -40.5 15.5t-16.5 40.5q0 27 21.5 46.5t46.5 19.5q28 0 42.5 -15.5zM526.5 918.5q14.5 -15.5 14.5 -40.5q0 -29 -20.5 -47.5t-47.5 -18.5q-24 0 -41 15.5t-17 40.5q0 27 21.5 46.5t46.5 19.5
q29 0 43.5 -15.5zM651 53l79 -13v-40h-253v40l81 13l-55 162h-300l-55 -162l82 -13v-40h-229v40l70 13l257 706h76zM221 269h263l-87 258l-42 136z" />
    <glyph glyph-name="Aring" unicode="&#xc5;" horiz-adv-x="730" 
d="M452 905.5q36 -32.5 36 -80.5q0 -35 -19.5 -62t-51.5 -41l234 -669l79 -13v-40h-253v40l81 13l-55 162h-300l-55 -162l82 -13v-40h-229v40l70 13l243 668q-33 14 -53 41.5t-20 62.5q0 48 36.5 80.5t87.5 32.5t87 -32.5zM316 869q-20 -18 -20 -45t20 -45.5t49 -18.5
q28 0 48.5 18.5t20.5 45.5t-20.5 45t-48.5 18q-29 0 -49 -18zM221 269h263l-87 258l-42 136z" />
    <glyph glyph-name="AE" unicode="&#xc6;" horiz-adv-x="947" 
d="M69 53l286 705h470l15 -140l-47 -1l-22 87l-306 6l85 -287l196 3l14 77h42v-205h-42l-14 73l-181 2l97 -323l163 8l48 104l40 -20l-22 -142h-411v40l82 13l-52 173h-299l-65 -173l84 -13v-40h-229v40zM398 585l-17 91l-150 -397h262z" />
    <glyph glyph-name="Ccedilla" unicode="&#xc7;" horiz-adv-x="689" 
d="M527 757.5q40 -7.5 85 -20.5l28 -7l-8 -140h-48l-24 84q-31 20 -65.5 29t-85.5 9q-73 0 -135.5 -39t-100 -114t-37.5 -176q0 -95 32 -174.5t94.5 -126.5t149.5 -47q117 0 163 56l26 78h40v-138q-18 -1 -55 -13q-42 -13 -80.5 -21t-91.5 -10l-1 -24l1 -24q63 1 95.5 -27
t32.5 -65q0 -48 -35 -75t-90 -29l-22 -1q-30 0 -49 5t-25 6v46q11 -3 29 -5t30 -2q34 0 53.5 11t19.5 45q0 25 -20.5 38.5t-59.5 13.5q-9 0 -16 -1t-10 -1q0 42 13 90q-92 7 -164.5 55.5t-113 129.5t-40.5 182q0 121 54 214.5t144.5 144.5t196.5 51q50 0 90 -7.5z" />
    <glyph glyph-name="Egrave" unicode="&#xc8;" horiz-adv-x="645" 
d="M264 818.5q-51 23.5 -94 52.5l65 67l148 -128l-24 -25q-44 10 -95 33.5zM134 53v652l-82 8v45h508l14 -140h-51l-23 86l-278 6v-288l187 4l14 77h47v-210h-47l-14 78l-187 3v-324l299 8l48 105l44 -11l-22 -152h-541v40z" />
    <glyph glyph-name="Eacute" unicode="&#xc9;" horiz-adv-x="645" 
d="M474 938l65 -67q-42 -29 -92.5 -52.5t-95.5 -33.5l-25 25zM134 53v652l-82 8v45h508l14 -140h-51l-23 86l-278 6v-288l187 4l14 77h47v-210h-47l-14 78l-187 3v-324l299 8l48 105l44 -11l-22 -152h-541v40z" />
    <glyph glyph-name="Ecircumflex" unicode="&#xca;" horiz-adv-x="645" 
d="M311 938h86l128 -126l-40 -23l-131 87l-133 -87l-36 22zM134 53v652l-82 8v45h508l14 -140h-51l-23 86l-278 6v-288l187 4l14 77h47v-210h-47l-14 78l-187 3v-324l299 8l48 105l44 -11l-22 -152h-541v40z" />
    <glyph glyph-name="Edieresis" unicode="&#xcb;" horiz-adv-x="645" 
d="M288.5 918.5q14.5 -15.5 14.5 -40.5q0 -29 -21 -47.5t-48 -18.5q-23 0 -40 15.5t-17 40.5q0 28 21 47t47 19q29 0 43.5 -15.5zM514.5 918.5q14.5 -15.5 14.5 -40.5q0 -29 -20.5 -47.5t-47.5 -18.5q-24 0 -41 15.5t-17 40.5q0 27 21 46.5t47 19.5q29 0 43.5 -15.5z
M574 618h-51l-23 86l-278 6v-288l187 4l14 77h47v-210h-47l-14 78l-187 3v-324l299 8l48 105l44 -11l-22 -152h-541v40l84 13v652l-82 8v45h508z" />
    <glyph glyph-name="Igrave" unicode="&#xcc;" horiz-adv-x="374" 
d="M97 818.5q-51 23.5 -94 52.5l65 67l148 -128l-24 -25q-44 10 -95 33.5zM141 53v652l-84 8v45h257v-45l-84 -8v-652l88 -13v-40h-263v40z" />
    <glyph glyph-name="Iacute" unicode="&#xcd;" horiz-adv-x="374" 
d="M307 938l66 -67q-43 -29 -94 -52.5t-95 -33.5l-25 25zM141 53v652l-84 8v45h257v-45l-84 -8v-652l88 -13v-40h-263v40z" />
    <glyph glyph-name="Icircumflex" unicode="&#xce;" horiz-adv-x="374" 
d="M145 938h86l127 -126l-39 -23l-131 87l-133 -87l-36 22zM141 53v652l-84 8v45h257v-45l-84 -8v-652l88 -13v-40h-263v40z" />
    <glyph glyph-name="Idieresis" unicode="&#xcf;" horiz-adv-x="374" 
d="M121.5 918.5q14.5 -15.5 14.5 -40.5q0 -29 -21 -47.5t-48 -18.5q-23 0 -40 15.5t-17 40.5q0 27 21.5 46.5t46.5 19.5q29 0 43.5 -15.5zM348.5 918.5q14.5 -15.5 14.5 -40.5q0 -29 -20.5 -47.5t-47.5 -18.5q-24 0 -41 15.5t-17 40.5q0 27 21.5 46.5t47.5 19.5
q28 0 42.5 -15.5zM314 713l-84 -8v-652l88 -13v-40h-263v40l86 13v652l-84 8v45h257v-45z" />
    <glyph glyph-name="Eth" unicode="&#xd0;" horiz-adv-x="778" 
d="M135 53v306h-88v66h88v280l-81 8v45h126q48 0 108 4q13 1 37.5 2t44.5 1q181 0 272.5 -96t91.5 -270q0 -123 -49 -214.5t-135 -140.5t-195 -49q-22 0 -76 2q-45 3 -97 3h-130v40zM348 45q81 0 147.5 36t106 110.5t39.5 184.5q0 166 -76.5 252t-213.5 86q-73 0 -126 -10
v-279h128v-66h-128v-300q61 -14 123 -14z" />
    <glyph glyph-name="Ntilde" unicode="&#xd1;" horiz-adv-x="812" 
d="M51 0zM775 709l-82 -8v-701h-95l-329 518l-69 137v-602l97 -13v-40h-246v40l84 13v648l-81 7v50h170l334 -543l70 -133v618l-82 9v49h229v-49zM270 914q38 24 76 24q23 0 39 -9t37 -27q17 -15 28.5 -22t26.5 -7q49 0 90 43l25 -34q-19 -35 -57 -59t-76 -24
q-23 0 -39.5 9.5t-36.5 27.5q-16 15 -28 22.5t-27 7.5q-24 0 -48.5 -12.5t-42.5 -30.5l-24 32q19 35 57 59z" />
    <glyph glyph-name="Ograve" unicode="&#xd2;" horiz-adv-x="759" 
d="M44 0zM569.5 717.5q71.5 -47.5 110 -131t38.5 -189.5q0 -127 -46 -220t-125 -142t-175 -49q-98 0 -172.5 48t-115 132.5t-40.5 191.5q0 128 50.5 222t134.5 141q80 44 174 44q95 0 166.5 -47.5zM257.5 674.5q-54.5 -41.5 -84.5 -120t-30 -186.5q0 -90 29.5 -166
t85 -121.5t129.5 -45.5q72 0 124.5 42t80.5 121t28 187q0 89 -27.5 165t-81 121t-126.5 45t-127.5 -41.5zM296 818.5q-51 23.5 -94 52.5l65 67l149 -128l-25 -25q-44 10 -95 33.5z" />
    <glyph glyph-name="Oacute" unicode="&#xd3;" horiz-adv-x="759" 
d="M572 871q-42 -29 -93 -52.5t-96 -33.5l-25 25l149 128zM568.5 717.5q71.5 -47.5 110 -131.5t38.5 -191q0 -126 -46 -218.5t-125 -141.5t-175 -49q-97 0 -171.5 48t-115 132.5t-40.5 191.5q0 126 48 218t129.5 140.5t180.5 48.5q95 0 166.5 -47.5zM257.5 674.5
q-54.5 -41.5 -84.5 -120t-30 -186.5q0 -90 29.5 -166t85 -121.5t129.5 -45.5q72 0 124.5 42t80.5 121t28 187q0 89 -27.5 165t-81 121t-126.5 45t-127.5 -41.5z" />
    <glyph glyph-name="Ocircumflex" unicode="&#xd4;" horiz-adv-x="759" 
d="M557 812l-40 -23l-130 87l-133 -87l-36 22l126 127h86zM568.5 717.5q71.5 -47.5 110 -131.5t38.5 -191q0 -126 -46 -218.5t-125 -141.5t-175 -49q-97 0 -171.5 48t-115 132.5t-40.5 191.5q0 126 48 218t129.5 140.5t180.5 48.5q95 0 166.5 -47.5zM257.5 674.5
q-54.5 -41.5 -84.5 -120t-30 -186.5q0 -90 29.5 -166t85 -121.5t129.5 -45.5q72 0 124.5 42t80.5 121t28 187q0 89 -27.5 165t-81 121t-126.5 45t-127.5 -41.5z" />
    <glyph glyph-name="Otilde" unicode="&#xd5;" horiz-adv-x="759" 
d="M44 0zM569.5 717.5q71.5 -47.5 110 -131t38.5 -189.5q0 -127 -46 -220t-125 -142t-175 -49q-98 0 -172.5 48t-115 132.5t-40.5 191.5q0 128 50.5 222t134.5 141q80 44 174 44q95 0 166.5 -47.5zM257.5 674.5q-54.5 -41.5 -84.5 -120t-30 -186.5q0 -90 29.5 -166
t85 -121.5t129.5 -45.5q72 0 124.5 42t80.5 121t28 187q0 89 -27.5 165t-81 121t-126.5 45t-127.5 -41.5zM249 914q38 24 76 24q23 0 39 -9t37 -27q17 -15 28.5 -22t26.5 -7q49 0 90 43l25 -34q-19 -35 -57 -59t-76 -24q-23 0 -39.5 9.5t-36.5 27.5q-16 15 -28 22.5t-27 7.5
q-24 0 -48.5 -12.5t-42.5 -30.5l-24 32q19 35 57 59z" />
    <glyph glyph-name="Odieresis" unicode="&#xd6;" horiz-adv-x="759" 
d="M44 0zM569.5 717.5q71.5 -47.5 110 -131t38.5 -189.5q0 -127 -46 -220t-125 -142t-175 -49q-98 0 -172.5 48t-115 132.5t-40.5 191.5q0 128 50.5 222t134.5 141q80 44 174 44q95 0 166.5 -47.5zM257.5 674.5q-54.5 -41.5 -84.5 -120t-30 -186.5q0 -90 29.5 -166
t85 -121.5t129.5 -45.5q72 0 124.5 42t80.5 121t28 187q0 89 -27.5 165t-81 121t-126.5 45t-127.5 -41.5zM434 934q29 0 43.5 -15.5t14.5 -40.5q0 -29 -21 -47.5t-48 -18.5q-22 0 -38 14q-19 -14 -42 -14q-24 0 -41 15t-17 40q0 28 21.5 47.5t47.5 19.5q24 0 39 -13
q19 13 39 13h2z" />
    <glyph glyph-name="multiply" unicode="&#xd7;" horiz-adv-x="608" 
d="M258 389l-169 162l53 56l161 -173l162 173l54 -56l-170 -162l170 -162l-54 -57l-162 173l-161 -173l-53 57z" />
    <glyph glyph-name="Oslash" unicode="&#xd8;" horiz-adv-x="759" 
d="M98 140q-54 92 -54 215q0 127 47.5 219.5t129 141.5t181.5 49q51 0 102 -16l28 77l38 -15l-27 -79q82 -43 128 -131.5t46 -204.5q0 -125 -45 -217t-122 -141.5t-172 -51.5q-50 0 -90 10l-32 -92l-41 15l32 90q-95 39 -149 131zM385 716q-73 0 -127.5 -41.5t-84.5 -120
t-30 -186.5q0 -96 33.5 -176.5t93.5 -121.5l214 620q-47 26 -99 26zM386 35q72 0 125 42t81 121t28 187q0 86 -26 160.5t-75 118.5l-210 -615q34 -14 77 -14z" />
    <glyph glyph-name="Ugrave" unicode="&#xd9;" horiz-adv-x="770" 
d="M16 0zM749 713l-76 -9v-373q0 -175 -75.5 -260t-207.5 -85q-159 0 -228.5 82t-69.5 252l1 385l-77 8v45h252v-45l-86 -9v-387q0 -155 58.5 -219t165.5 -64q198 0 198 297v373l-87 9v45h232v-45zM307 818.5q-51 23.5 -94 52.5l65 67l149 -128l-25 -25q-44 10 -95 33.5z
" />
    <glyph glyph-name="Uacute" unicode="&#xda;" horiz-adv-x="770" 
d="M16 0zM749 713l-76 -9v-373q0 -175 -75.5 -260t-207.5 -85q-159 0 -228.5 82t-69.5 252l1 385l-77 8v45h252v-45l-86 -9v-387q0 -155 58.5 -219t165.5 -64q198 0 198 297v373l-87 9v45h232v-45zM517 938l66 -67q-43 -29 -94 -52.5t-95 -33.5l-25 25z" />
    <glyph glyph-name="Ucircumflex" unicode="&#xdb;" horiz-adv-x="770" 
d="M568 812l-40 -23l-131 87l-133 -87l-36 22l127 127h85zM749 713l-76 -9v-373q0 -175 -75.5 -260t-207.5 -85q-159 0 -228.5 82t-69.5 252l1 385l-77 8v45h252v-45l-86 -9v-387q0 -155 58.5 -219t165.5 -64q198 0 198 297v373l-87 9v45h232v-45z" />
    <glyph glyph-name="Udieresis" unicode="&#xdc;" horiz-adv-x="770" 
d="M16 0zM749 713l-76 -9v-373q0 -175 -75.5 -260t-207.5 -85q-159 0 -228.5 82t-69.5 252l1 385l-77 8v45h252v-45l-86 -9v-387q0 -155 58.5 -219t165.5 -64q198 0 198 297v373l-87 9v45h232v-45zM444 934q29 0 43.5 -15.5t14.5 -40.5q0 -29 -21 -47.5t-48 -18.5
q-22 0 -38 14q-19 -14 -42 -14q-24 0 -41 15t-17 40q0 28 21.5 47.5t47.5 19.5q24 0 39 -13q19 13 39 13h2z" />
    <glyph glyph-name="Yacute" unicode="&#xdd;" horiz-adv-x="661" 
d="M6 0zM299 54v257l-236 394l-57 8v45h236v-45l-77 -8l160 -295l25 -50l22 51l145 293l-83 9v45h221v-45l-65 -12l-202 -391v-256l105 -14v-40h-294v40zM465 938l66 -67q-43 -29 -94 -52.5t-95 -33.5l-25 25z" />
    <glyph glyph-name="Thorn" unicode="&#xde;" horiz-adv-x="634" 
d="M136 53v652l-84 8v45h257v-45l-84 -8v-105l33 4q60 8 95 8q118 0 187.5 -53.5t69.5 -157.5q0 -75 -38.5 -130t-102 -83.5t-135.5 -28.5l-78 1q-12 1 -31 1v-108l132 -13v-40h-315v40zM325 205q86 0 140.5 44.5t54.5 149.5q0 76 -48.5 119t-138.5 43q-50 0 -108 -14v-336
q37 -6 100 -6z" />
    <glyph glyph-name="germandbls" unicode="&#xdf;" horiz-adv-x="652" 
d="M110 54v374q0 114 36.5 191.5t96.5 115.5t132 38q65 0 109 -33.5t44 -109.5q0 -42 -14 -71t-40 -65q-22 -29 -33 -50.5t-11 -49.5q0 -31 21.5 -50t66.5 -42q39 -20 63.5 -37t41.5 -45t17 -68q0 -81 -57.5 -121.5t-144.5 -40.5q-70 0 -109 9v78q25 -13 57.5 -24.5
t57.5 -11.5q50 0 81.5 22t31.5 73q0 35 -24.5 56t-75.5 48q-55 28 -83 53t-28 67q0 21 10.5 42.5t34.5 58.5q29 43 43.5 73.5t14.5 65.5q0 53 -24.5 86t-73.5 33q-55 0 -88 -27.5t-49 -90.5t-16 -172v-429h-165v40z" />
    <glyph glyph-name="agrave" unicode="&#xe0;" horiz-adv-x="560" 
d="M57 0zM416 516q52 -40 52 -139l-1 -337h62v-31q-17 -9 -41 -14.5t-49 -5.5q-33 0 -43.5 14t-10.5 52q-56 -67 -167 -67q-45 0 -82 19.5t-58 54t-21 77.5q0 67 52 108.5t126 59.5t145 18v42q0 74 -35 101.5t-102 27.5q-32 0 -74 -11.5t-73 -28.5l-17 42q33 27 92.5 42.5
t103.5 15.5q89 0 141 -40zM218.5 249q-73.5 -29 -73.5 -95q0 -108 120 -108q33 0 65 14.5t49 30.5l1 187q-88 0 -161.5 -29zM233.5 723q-55.5 40 -80.5 78l66 67l147 -188l-25 -25q-52 28 -107.5 68z" />
    <glyph glyph-name="aacute" unicode="&#xe1;" horiz-adv-x="560" 
d="M57 0zM416 516q52 -40 52 -139l-1 -337h62v-31q-17 -9 -41 -14.5t-49 -5.5q-33 0 -43.5 14t-10.5 52q-56 -67 -167 -67q-45 0 -82 19.5t-58 54t-21 77.5q0 67 52 108.5t126 59.5t145 18v42q0 74 -35 101.5t-102 27.5q-32 0 -74 -11.5t-73 -28.5l-17 42q33 27 92.5 42.5
t103.5 15.5q89 0 141 -40zM218.5 249q-73.5 -29 -73.5 -95q0 -108 120 -108q33 0 65 14.5t49 30.5l1 187q-88 0 -161.5 -29zM366 868l66 -67q-24 -37 -78.5 -77t-109.5 -69l-25 25z" />
    <glyph glyph-name="acircumflex" unicode="&#xe2;" horiz-adv-x="560" 
d="M57 0zM416 516q52 -40 52 -139l-1 -337h62v-31q-17 -9 -41 -14.5t-49 -5.5q-33 0 -43.5 14t-10.5 52q-56 -67 -167 -67q-45 0 -82 19.5t-58 54t-21 77.5q0 67 52 108.5t126 59.5t145 18v42q0 74 -35 101.5t-102 27.5q-32 0 -74 -11.5t-73 -28.5l-17 42q33 27 92.5 42.5
t103.5 15.5q89 0 141 -40zM218.5 249q-73.5 -29 -73.5 -95q0 -108 120 -108q33 0 65 14.5t49 30.5l1 187q-88 0 -161.5 -29zM241 866h86l130 -192l-39 -22l-134 137l-142 -137l-35 21z" />
    <glyph glyph-name="atilde" unicode="&#xe3;" horiz-adv-x="560" 
d="M57 0zM416 516q52 -40 52 -139l-1 -337h62v-31q-17 -9 -41 -14.5t-49 -5.5q-33 0 -43.5 14t-10.5 52q-56 -67 -167 -67q-45 0 -82 19.5t-58 54t-21 77.5q0 67 52 108.5t126 59.5t145 18v42q0 74 -35 101.5t-102 27.5q-32 0 -74 -11.5t-73 -28.5l-17 42q33 27 92.5 42.5
t103.5 15.5q89 0 141 -40zM218.5 249q-73.5 -29 -73.5 -95q0 -108 120 -108q33 0 65 14.5t49 30.5l1 187q-88 0 -161.5 -29zM148.5 788q38.5 25 76.5 25q23 0 38.5 -9.5t35.5 -28.5q18 -16 29.5 -23.5t26.5 -7.5q26 0 48 13.5t43 34.5l24 -33q-19 -35 -57 -59.5t-76 -24.5
q-23 0 -39 9.5t-36 27.5q-17 16 -29 23.5t-27 7.5q-43 0 -91 -48l-24 34q19 34 57.5 59z" />
    <glyph glyph-name="adieresis" unicode="&#xe4;" horiz-adv-x="560" 
d="M57 0zM416 516q52 -40 52 -139l-1 -337h62v-31q-17 -9 -41 -14.5t-49 -5.5q-33 0 -43.5 14t-10.5 52q-56 -67 -167 -67q-45 0 -82 19.5t-58 54t-21 77.5q0 67 52 108.5t126 59.5t145 18v42q0 74 -35 101.5t-102 27.5q-32 0 -74 -11.5t-73 -28.5l-17 42q33 27 92.5 42.5
t103.5 15.5q89 0 141 -40zM218.5 249q-73.5 -29 -73.5 -95q0 -108 120 -108q33 0 65 14.5t49 30.5l1 187q-88 0 -161.5 -29zM124.5 696.5q-16.5 14.5 -16.5 39.5q0 27 20.5 46t46.5 19q29 0 43.5 -15.5t14.5 -39.5q0 -29 -20.5 -46.5t-47.5 -17.5q-24 0 -40.5 14.5z
M350.5 696.5q-16.5 14.5 -16.5 39.5q0 27 21 46t46 19q29 0 43.5 -15.5t14.5 -39.5q0 -29 -20.5 -46.5t-47.5 -17.5q-24 0 -40.5 14.5z" />
    <glyph glyph-name="aring" unicode="&#xe5;" horiz-adv-x="560" 
d="M57 0zM416 516q52 -40 52 -139l-1 -337h62v-31q-17 -9 -41 -14.5t-49 -5.5q-33 0 -43.5 14t-10.5 52q-56 -67 -167 -67q-45 0 -82 19.5t-58 54t-21 77.5q0 67 52 108.5t126 59.5t145 18v42q0 74 -35 101.5t-102 27.5q-32 0 -74 -11.5t-73 -28.5l-17 42q33 27 92.5 42.5
t103.5 15.5q89 0 141 -40zM218.5 249q-73.5 -29 -73.5 -95q0 -108 120 -108q33 0 65 14.5t49 30.5l1 187q-88 0 -161.5 -29zM356.5 844.5q35.5 -34.5 35.5 -83.5t-35.5 -82.5t-86.5 -33.5q-50 0 -86 33.5t-36 82.5t36 83.5t86 34.5q51 0 86.5 -34.5zM222 808
q-20 -20 -20 -48t20 -48t48 -20q29 0 48.5 20t19.5 48q0 29 -19.5 48.5t-48.5 19.5q-28 0 -48 -20z" />
    <glyph glyph-name="ae" unicode="&#xe6;" horiz-adv-x="881" 
d="M786 505q49 -58 49 -161q0 -41 -5 -74h-364q1 -116 56.5 -168t136.5 -52q38 0 82.5 10t66.5 22l17 -39q-27 -25 -85.5 -40t-114.5 -15q-132 0 -197 98q-27 -44 -84 -71t-128 -27q-45 0 -81.5 19.5t-57.5 54t-21 77.5q0 11 1 16q6 63 62 101t128.5 54t131.5 15v42
q0 74 -35 101t-100 27q-31 0 -73.5 -11t-75.5 -29l-16 43q33 26 93 42t105 16q62 0 105.5 -19.5t64.5 -68.5q36 45 88 70t116 25q86 0 135 -58zM517 466q-43 -48 -50 -142h275q1 11 1 32q0 107 -56 141q-25 17 -64 17q-63 0 -106 -48zM275.5 266.5q-53.5 -11.5 -92 -39
t-38.5 -73.5q0 -108 118 -108q35 0 68 18t47 42l1 172q-50 0 -103.5 -11.5z" />
    <glyph glyph-name="ccedilla" unicode="&#xe7;" horiz-adv-x="512" 
d="M308 -60q62 1 94.5 -27t32.5 -65q0 -48 -34.5 -75t-89.5 -29l-23 -1q-30 0 -49 5t-25 6l1 46q11 -3 28.5 -5t29.5 -2q34 0 53.5 11t19.5 45q0 25 -20 38.5t-59 13.5q-9 0 -16 -1t-10 -1q0 45 13 94q-97 11 -150.5 85.5t-53.5 186.5q0 90 37.5 157t101.5 103t143 36
q39 0 73.5 -6.5t52.5 -17.5v-114h-43l-24 62q-15 12 -37.5 17.5t-45.5 5.5q-48 0 -87 -24t-62.5 -71.5t-23.5 -115.5q0 -83 26.5 -138t68 -81t87.5 -26q37 0 79 9.5t63 22.5l16 -41q-25 -22 -70 -36t-97 -16q-1 -8 -1 -26t1 -26v1z" />
    <glyph glyph-name="egrave" unicode="&#xe8;" horiz-adv-x="560" 
d="M49 0zM459 507q51 -58 51 -160q0 -35 -6 -77h-367q0 -102 49.5 -161t141.5 -59q40 0 84 9.5t66 22.5l17 -39q-28 -25 -85.5 -40t-115.5 -15q-116 0 -180.5 76.5t-64.5 206.5q0 83 34.5 148.5t96 103.5t139.5 40q89 2 140 -56zM189.5 466.5q-43.5 -47.5 -51.5 -142.5h279
q1 10 1 30q0 109 -56 143q-26 17 -66 17q-63 0 -106.5 -47.5zM246.5 723q-55.5 40 -80.5 78l66 67l147 -188l-25 -25q-52 28 -107.5 68z" />
    <glyph glyph-name="eacute" unicode="&#xe9;" horiz-adv-x="560" 
d="M49 0zM459 507q51 -58 51 -160q0 -35 -6 -77h-367q0 -102 49.5 -161t141.5 -59q40 0 84 9.5t66 22.5l17 -39q-28 -25 -85.5 -40t-115.5 -15q-116 0 -180.5 76.5t-64.5 206.5q0 83 34.5 148.5t96 103.5t139.5 40q89 2 140 -56zM189.5 466.5q-43.5 -47.5 -51.5 -142.5h279
q1 10 1 30q0 109 -56 143q-26 17 -66 17q-63 0 -106.5 -47.5zM380 868l66 -67q-24 -37 -78.5 -77t-109.5 -69l-25 25z" />
    <glyph glyph-name="ecircumflex" unicode="&#xea;" horiz-adv-x="560" 
d="M49 0zM459 507q51 -58 51 -160q0 -35 -6 -77h-367q0 -102 49.5 -161t141.5 -59q40 0 84 9.5t66 22.5l17 -39q-28 -25 -85.5 -40t-115.5 -15q-116 0 -180.5 76.5t-64.5 206.5q0 83 34.5 148.5t96 103.5t139.5 40q89 2 140 -56zM189.5 466.5q-43.5 -47.5 -51.5 -142.5h279
q1 10 1 30q0 109 -56 143q-26 17 -66 17q-63 0 -106.5 -47.5zM256 866h86l130 -192l-39 -22l-134 137l-142 -137l-35 21z" />
    <glyph glyph-name="edieresis" unicode="&#xeb;" horiz-adv-x="560" 
d="M49 0zM459 507q51 -58 51 -160q0 -35 -6 -77h-367q0 -102 49.5 -161t141.5 -59q40 0 84 9.5t66 22.5l17 -39q-28 -25 -85.5 -40t-115.5 -15q-116 0 -180.5 76.5t-64.5 206.5q0 83 34.5 148.5t96 103.5t139.5 40q89 2 140 -56zM189.5 466.5q-43.5 -47.5 -51.5 -142.5h279
q1 10 1 30q0 109 -56 143q-26 17 -66 17q-63 0 -106.5 -47.5zM138.5 696.5q-16.5 14.5 -16.5 39.5q0 27 20.5 46t46.5 19q29 0 43.5 -15.5t14.5 -39.5q0 -29 -20.5 -46.5t-47.5 -17.5q-24 0 -40.5 14.5zM364.5 696.5q-16.5 14.5 -16.5 39.5q0 27 21 46t46 19
q29 0 43.5 -15.5t14.5 -39.5q0 -29 -20.5 -46.5t-47.5 -17.5q-24 0 -40.5 14.5z" />
    <glyph glyph-name="igrave" unicode="&#xec;" horiz-adv-x="334" 
d="M123.5 723q-55.5 40 -80.5 78l66 67l147 -188l-25 -25q-52 28 -107.5 68zM141 49v409l-69 32v29l132 36l21 -10v-496l80 -10v-39h-246v39z" />
    <glyph glyph-name="iacute" unicode="&#xed;" horiz-adv-x="334" 
d="M59 0zM141 49v409l-69 32v29l132 36l21 -10v-496l80 -10v-39h-246v39zM256 868l66 -67q-24 -37 -78.5 -77t-109.5 -69l-25 25z" />
    <glyph glyph-name="icircumflex" unicode="&#xee;" horiz-adv-x="334" 
d="M132 866h86l129 -192l-39 -22l-134 137l-141 -137l-36 21zM141 49v409l-69 32v29l132 36l21 -10v-496l80 -10v-39h-246v39z" />
    <glyph glyph-name="idieresis" unicode="&#xef;" horiz-adv-x="334" 
d="M0 0zM141 49v409l-69 32v29l132 36l21 -10v-496l80 -10v-39h-246v39zM14.5 696.5q-16.5 14.5 -16.5 39.5q0 27 20.5 46t46.5 19q29 0 43.5 -15.5t14.5 -39.5q0 -29 -20.5 -46.5t-47.5 -17.5q-24 0 -40.5 14.5zM240.5 696.5q-16.5 14.5 -16.5 39.5q0 27 21 46t46 19
q29 0 43.5 -15.5t14.5 -39.5q0 -29 -20.5 -46.5t-47.5 -17.5q-24 0 -40.5 14.5z" />
    <glyph glyph-name="eth" unicode="&#xf0;" horiz-adv-x="602" 
d="M423 802l-80 -70q103 -78 156.5 -191.5t53.5 -239.5q0 -100 -34.5 -171t-94 -107t-132.5 -36q-72 0 -127 33t-85.5 92t-30.5 133q0 83 34 141.5t91 88t127 29.5q41 0 86 -19t69 -48q-16 75 -58 139.5t-99 113.5l-83 -73l-45 35l81 74q-50 33 -94 47l11 50q62 -20 124 -56
l53 46l30 28zM182 401q-39 -54 -39 -151q0 -58 19 -107t56 -78.5t89 -29.5q46 0 80.5 33.5t52.5 87t19 111.5q0 48 -3 62q-7 28 -26.5 57t-52.5 49t-77 20q-79 0 -118 -54z" />
    <glyph glyph-name="ntilde" unicode="&#xf1;" horiz-adv-x="683" 
d="M64 0zM135 49v407l-71 34v29l126 36l21 -10v-68q37 31 99 55.5t111 24.5q84 0 119 -54t35 -177v-277l78 -10v-39h-240v39l74 10v263q0 64 -9.5 102.5t-33 57t-67.5 18.5q-35 0 -76 -13.5t-78 -39.5v-388l74 -10v-39h-230v39zM228.5 788q38.5 25 76.5 25q23 0 38.5 -9.5
t35.5 -28.5q18 -16 29.5 -23.5t26.5 -7.5q26 0 48 13.5t43 34.5l24 -33q-19 -35 -57 -59.5t-76 -24.5q-23 0 -39 9.5t-36 27.5q-17 16 -29 23.5t-27 7.5q-43 0 -91 -48l-24 34q19 34 57.5 59z" />
    <glyph glyph-name="ograve" unicode="&#xf2;" horiz-adv-x="602" 
d="M50 0zM447.5 525.5q54.5 -37.5 80.5 -101.5t26 -143q-1 -85 -35 -152t-92 -104t-129 -37q-85 0 -140.5 39.5t-81.5 105.5t-26 146q0 85 36.5 150t96.5 99.5t130 34.5q80 0 134.5 -37.5zM182 455q-39 -59 -39 -166t41.5 -178.5t121.5 -71.5t117 60.5t37 176.5
q0 107 -40 172.5t-121 65.5q-78 0 -117 -59zM258.5 723q-55.5 40 -80.5 78l66 67l147 -188l-25 -25q-52 28 -107.5 68z" />
    <glyph glyph-name="oacute" unicode="&#xf3;" horiz-adv-x="602" 
d="M50 0zM447.5 525.5q54.5 -37.5 80.5 -101.5t26 -143q-1 -85 -35 -152t-92 -104t-129 -37q-85 0 -140.5 39.5t-81.5 105.5t-26 146q0 85 36.5 150t96.5 99.5t130 34.5q80 0 134.5 -37.5zM182 455q-39 -59 -39 -166t41.5 -178.5t121.5 -71.5t117 60.5t37 176.5
q0 107 -40 172.5t-121 65.5q-78 0 -117 -59zM389 868l66 -67q-24 -37 -78.5 -77t-109.5 -69l-25 25z" />
    <glyph glyph-name="ocircumflex" unicode="&#xf4;" horiz-adv-x="602" 
d="M50 0zM447.5 525.5q54.5 -37.5 80.5 -101.5t26 -143q-1 -85 -35 -152t-92 -104t-129 -37q-85 0 -140.5 39.5t-81.5 105.5t-26 146q0 85 36.5 150t96.5 99.5t130 34.5q80 0 134.5 -37.5zM182 455q-39 -59 -39 -166t41.5 -178.5t121.5 -71.5t117 60.5t37 176.5
q0 107 -40 172.5t-121 65.5q-78 0 -117 -59zM265 866h86l130 -192l-39 -22l-134 137l-142 -137l-35 21z" />
    <glyph glyph-name="otilde" unicode="&#xf5;" horiz-adv-x="602" 
d="M50 0zM447.5 525.5q54.5 -37.5 80.5 -101.5t26 -143q-1 -85 -35 -152t-92 -104t-129 -37q-85 0 -140.5 39.5t-81.5 105.5t-26 146q0 85 36.5 150t96.5 99.5t130 34.5q80 0 134.5 -37.5zM182 455q-39 -59 -39 -166t41.5 -178.5t121.5 -71.5t117 60.5t37 176.5
q0 107 -40 172.5t-121 65.5q-78 0 -117 -59zM171.5 788q38.5 25 76.5 25q23 0 38.5 -9.5t35.5 -28.5q18 -16 29.5 -23.5t26.5 -7.5q26 0 48 13.5t43 34.5l24 -33q-19 -35 -57 -59.5t-76 -24.5q-23 0 -39 9.5t-36 27.5q-17 16 -29 23.5t-27 7.5q-43 0 -91 -48l-24 34
q19 34 57.5 59z" />
    <glyph glyph-name="odieresis" unicode="&#xf6;" horiz-adv-x="602" 
d="M50 0zM447.5 525.5q54.5 -37.5 80.5 -101.5t26 -143q-1 -85 -35 -152t-92 -104t-129 -37q-85 0 -140.5 39.5t-81.5 105.5t-26 146q0 85 36.5 150t96.5 99.5t130 34.5q80 0 134.5 -37.5zM182 455q-39 -59 -39 -166t41.5 -178.5t121.5 -71.5t117 60.5t37 176.5
q0 107 -40 172.5t-121 65.5q-78 0 -117 -59zM148.5 696.5q-16.5 14.5 -16.5 39.5q0 27 20.5 46t46.5 19q29 0 43.5 -15.5t14.5 -39.5q0 -29 -20.5 -46.5t-47.5 -17.5q-24 0 -40.5 14.5zM374.5 696.5q-16.5 14.5 -16.5 39.5q0 27 21 46t46 19q29 0 43.5 -15.5t14.5 -39.5
q0 -29 -20.5 -46.5t-47.5 -17.5q-24 0 -40.5 14.5z" />
    <glyph glyph-name="divide" unicode="&#xf7;" horiz-adv-x="624" 
d="M362.5 626q14.5 -16 14.5 -41q0 -29 -21 -47.5t-48 -18.5q-24 0 -40.5 15.5t-16.5 40.5q0 27 21.5 47t46.5 20q29 0 43.5 -16zM539 358h-453v66h453v-66zM360.5 244q13.5 -15 13.5 -39q0 -29 -19.5 -47t-46.5 -18q-23 0 -39 15t-16 39q0 27 21 46t45 19q28 0 41.5 -15z
" />
    <glyph glyph-name="oslash" unicode="&#xf8;" horiz-adv-x="602" 
d="M85 111q-35 72 -35 165q0 86 35.5 150.5t95 100t129.5 36.5q38 0 70 -9l28 82l37 -14l-27 -81q65 -31 99.5 -99t34.5 -154q0 -87 -33.5 -155.5t-91.5 -106.5t-130 -38q-32 0 -66 8l-30 -91l-39 15l30 88q-72 31 -107 103zM300 514q-79 0 -118 -58.5t-39 -166.5
q0 -70 18 -127t55 -89l144 429q-27 12 -60 12zM306 39q153 0 153 237q0 67 -15.5 119.5t-48.5 82.5l-144 -428q25 -11 55 -11z" />
    <glyph glyph-name="ugrave" unicode="&#xf9;" horiz-adv-x="631" 
d="M251.5 723q-55.5 40 -80.5 78l66 67l147 -188l-25 -25q-52 28 -107.5 68zM53 496v35l120 25l17 -9v-336q0 -59 8.5 -92.5t32 -50t67.5 -16.5q42 0 83.5 20t59.5 38v368l-61 14v38l134 26l13 -8v-508h60v-35q-15 -8 -41 -14t-47 -6q-49 0 -49 40v41q-44 -37 -91.5 -56.5
t-94.5 -19.5q-72 0 -107 28.5t-44 76t-10 129.5v259z" />
    <glyph glyph-name="uacute" unicode="&#xfa;" horiz-adv-x="631" 
d="M383 868l66 -67q-25 -38 -79.5 -77.5t-108.5 -68.5l-25 25zM53 496v35l120 25l17 -9v-336q0 -59 8.5 -92.5t32 -50t67.5 -16.5q42 0 83.5 20t59.5 38v368l-61 14v38l134 26l13 -8v-508h60v-35q-15 -8 -41 -14t-47 -6q-49 0 -49 40v41q-44 -37 -91.5 -56.5t-94.5 -19.5
q-72 0 -107 28.5t-44 76t-10 129.5v259z" />
    <glyph glyph-name="ucircumflex" unicode="&#xfb;" horiz-adv-x="631" 
d="M261 866h85l130 -192l-39 -22l-134 137l-142 -137l-35 21zM53 496v35l120 25l17 -9v-336q0 -59 8.5 -92.5t32 -50t67.5 -16.5q42 0 83.5 20t59.5 38v368l-61 14v38l134 26l13 -8v-508h60v-35q-15 -8 -41 -14t-47 -6q-49 0 -49 40v41q-44 -37 -91.5 -56.5t-94.5 -19.5
q-72 0 -107 28.5t-44 76t-10 129.5v259z" />
    <glyph glyph-name="udieresis" unicode="&#xfc;" horiz-adv-x="631" 
d="M53 0zM53 496v35l120 25l17 -9v-336q0 -59 8.5 -92.5t32 -50t67.5 -16.5q42 0 83.5 20t59.5 38v368l-61 14v38l134 26l13 -8v-508h60v-35q-15 -8 -41 -14t-47 -6q-49 0 -49 40v41q-44 -37 -91.5 -56.5t-94.5 -19.5q-72 0 -107 28.5t-44 76t-10 129.5v259zM143.5 696.5
q-16.5 14.5 -16.5 39.5q0 27 20.5 46t46.5 19q29 0 43.5 -15.5t14.5 -39.5q0 -29 -20.5 -46.5t-47.5 -17.5q-24 0 -40.5 14.5zM369.5 696.5q-16.5 14.5 -16.5 39.5q0 27 21 46t46 19q29 0 43.5 -15.5t14.5 -39.5q0 -29 -20.5 -46.5t-47.5 -17.5q-24 0 -40.5 14.5z" />
    <glyph glyph-name="yacute" unicode="&#xfd;" horiz-adv-x="563" 
d="M1 0zM113 -177q44 0 87 38t73 135h-19l-199 494l-54 8v48h225v-48l-73 -9l117 -331l36 -107l30 104l102 335l-78 8v48h209v-48l-56 -7l-22 -65q-68 -200 -106 -309t-49 -135q-40 -103 -81.5 -158.5t-97.5 -69.5q-16 -5 -44 -5q-11 0 -23.5 2t-16.5 5v73q17 -6 40 -6z
M380 868l66 -67q-24 -37 -78.5 -77t-109.5 -69l-25 25z" />
    <glyph glyph-name="thorn" unicode="&#xfe;" horiz-adv-x="619" 
d="M189 785v-285q76 63 163 63q59 0 108 -27.5t79 -88t30 -152.5q0 -84 -35 -155t-98 -112.5t-143 -41.5q-48 0 -107 11l3 -47v-151l102 -9v-40h-260v40l71 10v921l-83 15v41l151 16zM243 486q-34 -14 -54 -34v-379q7 -19 38 -28.5t75 -9.5q48 0 89 27.5t66 83.5t25 138
q0 109 -48 162.5t-118 53.5q-39 0 -73 -14z" />
    <glyph glyph-name="ydieresis" unicode="&#xff;" horiz-adv-x="563" 
d="M1 0zM113 -177q44 0 87 38t73 135h-19l-199 494l-54 8v48h225v-48l-73 -9l117 -331l36 -107l30 104l102 335l-78 8v48h209v-48l-56 -7l-22 -65q-68 -200 -106 -309t-49 -135q-40 -103 -81.5 -158.5t-97.5 -69.5q-16 -5 -44 -5q-11 0 -23.5 2t-16.5 5v73q17 -6 40 -6z
M139.5 696.5q-16.5 14.5 -16.5 39.5q0 27 20.5 46t46.5 19q29 0 43.5 -15.5t14.5 -39.5q0 -29 -20.5 -46.5t-47.5 -17.5q-24 0 -40.5 14.5zM365.5 696.5q-16.5 14.5 -16.5 39.5q0 27 21 46t46 19q29 0 43.5 -15.5t14.5 -39.5q0 -29 -20.5 -46.5t-47.5 -17.5
q-24 0 -40.5 14.5z" />
    <glyph glyph-name="Amacron" unicode="&#x100;" horiz-adv-x="730" 
d="M1 0zM495 908v-68h-259v68h259zM71 53l257 706h76l247 -706l79 -13v-40h-253v40l81 13l-55 162h-300l-55 -162l82 -13v-40h-229v40zM397 527l-42 136l-134 -394h263z" />
    <glyph glyph-name="amacron" unicode="&#x101;" horiz-adv-x="560" 
d="M57 0zM416 516q52 -40 52 -139l-1 -337h62v-31q-17 -9 -41 -14.5t-49 -5.5q-33 0 -43.5 14t-10.5 52q-56 -67 -167 -67q-45 0 -82 19.5t-58 54t-21 77.5q0 67 52 108.5t126 59.5t145 18v42q0 74 -35 101.5t-102 27.5q-32 0 -74 -11.5t-73 -28.5l-17 42q33 27 92.5 42.5
t103.5 15.5q89 0 141 -40zM218.5 249q-73.5 -29 -73.5 -95q0 -108 120 -108q33 0 65 14.5t49 30.5l1 187q-88 0 -161.5 -29zM405 777v-68h-259v68h259z" />
    <glyph glyph-name="Abreve" unicode="&#x102;" horiz-adv-x="730" 
d="M1 0zM504 888q-20 -35 -56 -56t-82 -21q-48 0 -84 21t-55.5 56t-19.5 75h40q12 -33 36 -60t84 -27q42 0 67 16t34.5 32t18.5 39h37q0 -40 -20 -75zM71 53l257 706h76l247 -706l79 -13v-40h-253v40l81 13l-55 162h-300l-55 -162l82 -13v-40h-229v40zM397 527l-42 136
l-134 -394h263z" />
    <glyph glyph-name="abreve" unicode="&#x103;" horiz-adv-x="560" 
d="M57 0zM416 516q52 -40 52 -139l-1 -337h62v-31q-17 -9 -41 -14.5t-49 -5.5q-33 0 -43.5 14t-10.5 52q-56 -67 -167 -67q-45 0 -82 19.5t-58 54t-21 77.5q0 67 52 108.5t126 59.5t145 18v42q0 74 -35 101.5t-102 27.5q-32 0 -74 -11.5t-73 -28.5l-17 42q33 27 92.5 42.5
t103.5 15.5q89 0 141 -40zM218.5 249q-73.5 -29 -73.5 -95q0 -108 120 -108q33 0 65 14.5t49 30.5l1 187q-88 0 -161.5 -29zM421.5 755q-21.5 -36 -59 -58t-83.5 -22q-48 0 -85 22t-57 57.5t-20 75.5h44q1 -2 10.5 -26t39 -43.5t70.5 -19.5q42 0 67 16.5t31.5 28.5t21.5 45
h42q0 -40 -21.5 -76z" />
    <glyph glyph-name="Aogonek" unicode="&#x104;" horiz-adv-x="730" 
d="M71 53l257 706h76l247 -706l79 -13v-40h-90q-29 -11 -63 -35t-57.5 -52.5t-23.5 -51.5q0 -32 15 -45t50 -15q26 -1 50 8.5t55 26.5l11 -40q-31 -24 -69 -40t-96 -13q-49 2 -73.5 28.5t-24.5 63.5q0 44 45 91.5t103 73.5h-85v40l81 13l-55 162h-300l-55 -162l82 -13v-40
h-229v40zM397 527l-42 136l-134 -394h263z" />
    <glyph glyph-name="aogonek" unicode="&#x105;" horiz-adv-x="560" 
d="M415 516q52 -40 52 -139l-1 -337h63v-35q-58 -27 -97.5 -64t-39.5 -73q0 -33 19 -48t49 -15q35 0 75 18v-41q-21 -16 -51.5 -25.5t-60.5 -9.5q-49 0 -81 23.5t-32 72.5q0 43 38 84.5t84 61.5q-29 1 -38.5 15.5t-9.5 50.5q-56 -67 -167 -67q-45 0 -81.5 20t-57.5 55
t-21 79q0 65 52 106t126 59t144 18v42q0 73 -35 101t-101 28q-32 0 -74.5 -11.5t-73.5 -28.5l-17 42q33 27 93 42.5t104 15.5q88 0 140 -40zM218.5 249q-73.5 -29 -73.5 -95q0 -108 120 -108q33 0 65 14.5t49 30.5l1 187q-88 0 -161.5 -29z" />
    <glyph glyph-name="Cacute" unicode="&#x106;" horiz-adv-x="689" 
d="M42 0zM527 757.5q40 -7.5 85 -20.5l28 -7l-8 -140h-48l-24 84q-31 20 -65.5 29t-85.5 9q-73 0 -135.5 -39t-100 -114t-37.5 -176q0 -95 32 -174.5t94.5 -126.5t149.5 -47q117 0 163 56l26 78h40v-138q-13 -1 -31 -6t-25 -7q-45 -15 -88.5 -23.5t-104.5 -8.5
q-100 0 -180 47t-125 131t-45 191q0 121 54 214.5t144.5 144.5t196.5 51q50 0 90 -7.5zM506 938l66 -67q-43 -29 -94 -52.5t-95 -33.5l-25 25z" />
    <glyph glyph-name="cacute" unicode="&#x107;" horiz-adv-x="512" 
d="M51 0zM406.5 554.5q34.5 -6.5 52.5 -17.5v-114h-43l-24 62q-15 12 -37.5 17.5t-45.5 5.5q-48 0 -87 -24t-62.5 -71.5t-23.5 -115.5q0 -83 26.5 -138t68 -81t87.5 -26q37 0 79 9.5t63 22.5l16 -41q-28 -25 -80 -39t-109 -14q-74 0 -127.5 35.5t-81 98t-27.5 141.5
q0 90 37.5 157t101.5 103t143 36q39 0 73.5 -6.5zM389 868l66 -67q-24 -37 -78.5 -77t-109.5 -69l-25 25z" />
    <glyph glyph-name="Ccaron" unicode="&#x10c;" horiz-adv-x="689" 
d="M42 0zM527 757.5q40 -7.5 85 -20.5l28 -7l-8 -140h-48l-24 84q-31 20 -65.5 29t-85.5 9q-73 0 -135.5 -39t-100 -114t-37.5 -176q0 -95 32 -174.5t94.5 -126.5t149.5 -47q117 0 163 56l26 78h40v-138q-13 -1 -31 -6t-25 -7q-45 -15 -88.5 -23.5t-104.5 -8.5
q-100 0 -180 47t-125 131t-45 191q0 121 54 214.5t144.5 144.5t196.5 51q50 0 90 -7.5zM264 938l123 -85l125 85l36 -22l-119 -125h-85l-120 124z" />
    <glyph glyph-name="ccaron" unicode="&#x10d;" horiz-adv-x="512" 
d="M51 0zM406.5 554.5q34.5 -6.5 52.5 -17.5v-114h-43l-24 62q-15 12 -37.5 17.5t-45.5 5.5q-48 0 -87 -24t-62.5 -71.5t-23.5 -115.5q0 -83 26.5 -138t68 -81t87.5 -26q37 0 79 9.5t63 22.5l16 -41q-28 -25 -80 -39t-109 -14q-74 0 -127.5 35.5t-81 98t-27.5 141.5
q0 90 37.5 157t101.5 103t143 36q39 0 73.5 -6.5zM171 866l138 -136l138 136l35 -21l-131 -193h-85l-134 193z" />
    <glyph glyph-name="Dcaron" unicode="&#x10e;" horiz-adv-x="778" 
d="M52 0zM136 53v652l-82 8v45h126q47 0 109 4q12 1 36.5 2t44.5 1q182 0 273 -96t91 -270q0 -123 -49 -214.5t-135 -140.5t-195 -49q-21 0 -75 2q-47 3 -98 3h-130v40zM348 45q81 0 147.5 36t106 110.5t39.5 184.5q0 166 -76.5 252t-213.5 86q-73 0 -126 -10v-645
q61 -14 123 -14zM230 938l123 -85l125 85l36 -22l-119 -125h-85l-120 124z" />
    <glyph glyph-name="dcaron" unicode="&#x10f;" horiz-adv-x="709" 
d="M50 0zM517 782v-742h66v-35q-15 -8 -44.5 -13.5t-54.5 -5.5q-30 0 -40.5 12.5t-10.5 47.5q-22 -22 -65.5 -40t-103.5 -18q-58 0 -106.5 30.5t-78 92.5t-29.5 153q0 85 37.5 153.5t102 107t142.5 38.5q50 0 97 -15v170l-102 16v40l169 19zM234 490q-42 -24 -69.5 -76.5
t-27.5 -133.5q0 -75 22 -127t59 -77.5t81 -25.5q37 0 72.5 11.5t57.5 33.5v380q-15 16 -39 27.5t-69 11.5t-87 -24zM583 537q17 60 17 120q0 42 -7.5 78t-17.5 47l7 21l70 19q14 -14 22.5 -46.5t8.5 -68.5q0 -59 -18 -118t-43 -82l-38 18z" />
    <glyph glyph-name="Dcroat" unicode="&#x110;" horiz-adv-x="778" 
d="M47 0zM135 53v306h-88v66h88v280l-81 8v45h126q48 0 108 4q13 1 37.5 2t44.5 1q181 0 272.5 -96t91.5 -270q0 -123 -49 -214.5t-135 -140.5t-195 -49q-22 0 -76 2q-45 3 -97 3h-130v40zM348 45q81 0 147.5 36t106 110.5t39.5 184.5q0 166 -76.5 252t-213.5 86
q-73 0 -126 -10v-279h128v-66h-128v-300q61 -14 123 -14z" />
    <glyph glyph-name="dcroat" unicode="&#x111;" horiz-adv-x="621" 
d="M517 596v-556h66v-35q-15 -8 -44.5 -13.5t-54.5 -5.5q-30 0 -40.5 12.5t-10.5 47.5q-22 -22 -65.5 -40t-103.5 -18q-57 0 -106 29.5t-78.5 86t-29.5 133.5q0 95 37 159.5t100.5 95.5t144.5 31q50 0 97 -15v88h-192v53h192v69l-102 16v40l169 19l21 -11v-133h82v-53h-82z
M429 435q-15 16 -39.5 27.5t-68.5 11.5q-45 0 -87 -21.5t-69.5 -70.5t-27.5 -126q0 -68 22 -114t59 -69t81 -23q37 0 72 11.5t58 33.5v340z" />
    <glyph glyph-name="Emacron" unicode="&#x112;" horiz-adv-x="645" 
d="M50 0zM134 53v652l-82 8v45h508l14 -140h-51l-23 86l-278 6v-288l187 4l14 77h47v-210h-47l-14 78l-187 3v-324l299 8l48 105l44 -11l-22 -152h-541v40zM485 908v-68h-259v68h259z" />
    <glyph glyph-name="emacron" unicode="&#x113;" horiz-adv-x="560" 
d="M49 0zM459 507q51 -58 51 -160q0 -35 -6 -77h-367q0 -102 49.5 -161t141.5 -59q40 0 84 9.5t66 22.5l17 -39q-28 -25 -85.5 -40t-115.5 -15q-116 0 -180.5 76.5t-64.5 206.5q0 83 34.5 148.5t96 103.5t139.5 40q89 2 140 -56zM189.5 466.5q-43.5 -47.5 -51.5 -142.5h279
q1 10 1 30q0 109 -56 143q-26 17 -66 17q-63 0 -106.5 -47.5zM425 777v-68h-259v68h259z" />
    <glyph glyph-name="Edotaccent" unicode="&#x116;" horiz-adv-x="645" 
d="M50 0zM134 53v652l-82 8v45h508l14 -140h-51l-23 86l-278 6v-288l187 4l14 77h47v-210h-47l-14 78l-187 3v-324l299 8l48 105l44 -11l-22 -152h-541v40zM382 875q0 -13 -9.5 -21.5t-21.5 -8.5q-9 0 -17.5 7t-8.5 18q0 12 9.5 21.5t21.5 9.5q26 0 26 -26z" />
    <glyph glyph-name="edotaccent" unicode="&#x117;" horiz-adv-x="560" 
d="M49 0zM459 507q51 -58 51 -160q0 -35 -6 -77h-367q0 -102 49.5 -161t141.5 -59q40 0 84 9.5t66 22.5l17 -39q-28 -25 -85.5 -40t-115.5 -15q-116 0 -180.5 76.5t-64.5 206.5q0 83 34.5 148.5t96 103.5t139.5 40q89 2 140 -56zM189.5 466.5q-43.5 -47.5 -51.5 -142.5h279
q1 10 1 30q0 109 -56 143q-26 17 -66 17q-63 0 -106.5 -47.5zM352.5 777.5q14.5 -15.5 14.5 -40.5q0 -28 -20.5 -46.5t-47.5 -18.5q-24 0 -41 15t-17 40q0 27 21.5 46.5t46.5 19.5q29 0 43.5 -15.5z" />
    <glyph glyph-name="Eogonek" unicode="&#x118;" horiz-adv-x="645" 
d="M134 53v652l-82 8v45h508l14 -140h-51l-23 86l-278 6v-288l187 4l14 77h47v-210h-47l-14 78l-187 3v-324l299 8l48 105l44 -11l-22 -152h-1q-29 -11 -63 -35.5t-57 -52.5t-23 -51q0 -32 15 -45t49 -15q24 -1 48.5 8t39.5 17t19 10l9 -40q-29 -24 -67.5 -40t-97.5 -13
q-48 2 -72 28.5t-24 63.5q0 44 44.5 91.5t102.5 73.5h-463v40z" />
    <glyph glyph-name="eogonek" unicode="&#x119;" horiz-adv-x="560" 
d="M459 506.5q50 -56.5 51 -156.5q0 -36 -6 -80h-367q0 -102 49.5 -161t141.5 -59q40 0 84 9.5t66 22.5l17 -39q-76 -57 -109.5 -95.5t-33.5 -70.5q0 -35 22 -51.5t56 -16.5q38 0 68 15v-42q-19 -15 -47.5 -23t-58.5 -8q-51 0 -86 25t-35 76q0 36 27 75.5t72 67.5
q-36 -7 -76 -7q-116 0 -180.5 76.5t-64.5 206.5q0 83 35 149.5t97.5 104.5t140.5 38q87 0 137 -56.5zM189.5 466.5q-43.5 -47.5 -51.5 -142.5h279q1 11 1 32q0 76 -28.5 117t-93.5 41q-63 0 -106.5 -47.5z" />
    <glyph glyph-name="Ecaron" unicode="&#x11a;" horiz-adv-x="645" 
d="M50 0zM134 53v652l-82 8v45h508l14 -140h-51l-23 86l-278 6v-288l187 4l14 77h47v-210h-47l-14 78l-187 3v-324l299 8l48 105l44 -11l-22 -152h-541v40zM204 938l123 -85l125 85l36 -22l-119 -125h-85l-120 124z" />
    <glyph glyph-name="ecaron" unicode="&#x11b;" horiz-adv-x="560" 
d="M49 0zM459 507q51 -58 51 -160q0 -35 -6 -77h-367q0 -102 49.5 -161t141.5 -59q40 0 84 9.5t66 22.5l17 -39q-28 -25 -85.5 -40t-115.5 -15q-116 0 -180.5 76.5t-64.5 206.5q0 83 34.5 148.5t96 103.5t139.5 40q89 2 140 -56zM189.5 466.5q-43.5 -47.5 -51.5 -142.5h279
q1 10 1 30q0 109 -56 143q-26 17 -66 17q-63 0 -106.5 -47.5zM161 866l138 -136l138 136l35 -21l-131 -193h-85l-134 193z" />
    <glyph glyph-name="Gbreve" unicode="&#x11e;" horiz-adv-x="750" 
d="M42 0zM549 757q47 -8 74 -15t34 -9l-8 -139h-48l-24 83q-12 13 -57.5 24.5t-112.5 10.5q-73 -1 -135.5 -40.5t-99.5 -114t-37 -174.5q0 -92 30 -171.5t90.5 -128t147.5 -48.5q51 0 96.5 11.5t70.5 38.5v208l-123 8v45h274v-45l-62 -9v-253q-13 -1 -36.5 -7.5t-30.5 -8.5
q-67 -18 -113.5 -27.5t-96.5 -9.5q-99 0 -176.5 47.5t-120.5 131.5t-43 190q0 122 53 215t142.5 144t196.5 51q68 0 115 -8zM546 863q-20 -35 -56 -56t-82 -21q-48 0 -84 21t-55.5 56t-19.5 75h40q12 -33 36 -60t84 -27q42 0 67 16t34.5 32t18.5 39h37q0 -40 -20 -75z" />
    <glyph glyph-name="gbreve" unicode="&#x11f;" horiz-adv-x="588" 
d="M61 0zM434 529q24 24 82 24h59v-69h-101q26 -41 26 -98q0 -62 -30 -107.5t-80 -69t-109 -23.5q-58 0 -102 18q-6 -14 -7.5 -29.5t-1.5 -37.5q0 -29 15 -43.5t51 -16.5q16 -2 67 -2h57q85 0 128 -23t55 -54.5t12 -72.5q0 -56 -31.5 -97.5t-89.5 -64t-136 -22.5
q-102 0 -169.5 33.5t-67.5 110.5q0 42 26 78.5t57 55.5q-25 10 -37 23.5t-14 26.5t-2 34t16.5 56t43.5 59q-82 48 -82 150q0 65 33 110t85.5 67t111.5 22q82 0 135 -38zM191 487q-34 -32 -34 -102q0 -67 34.5 -108.5t103.5 -41.5q60 0 89 34t29 104q0 75 -33 110.5t-99 35.5
q-56 0 -90 -32zM146 -86q0 -64 47 -93t117 -29q81 0 127.5 28t46.5 83q0 34 -11.5 55t-43.5 32.5t-91 11.5l-69 1q-57 0 -89 7q-34 -36 -34 -96zM430.5 755q-21.5 -36 -59 -58t-83.5 -22q-48 0 -85 22t-57 57.5t-20 75.5h44q1 -2 10.5 -26t39 -43.5t70.5 -19.5q42 0 67 16.5
t31.5 28.5t21.5 45h42q0 -40 -21.5 -76z" />
    <glyph glyph-name="Gcommaaccent" unicode="&#x122;" horiz-adv-x="750" 
d="M42 0zM549 757q47 -8 74 -15t34 -9l-8 -139h-48l-24 83q-12 13 -57.5 24.5t-112.5 10.5q-73 -1 -135.5 -40.5t-99.5 -114t-37 -174.5q0 -92 30 -171.5t90.5 -128t147.5 -48.5q51 0 96.5 11.5t70.5 38.5v208l-123 8v45h274v-45l-62 -9v-253q-13 -1 -36.5 -7.5t-30.5 -8.5
q-67 -18 -113.5 -27.5t-96.5 -9.5q-99 0 -176.5 47.5t-120.5 131.5t-43 190q0 122 53 215t142.5 144t196.5 51q68 0 115 -8zM454 -71q26 -35 27 -74q0 -41 -19.5 -76.5t-47.5 -59.5t-53 -32l-25 23v13q26 12 39 44t13 69q0 27 -18 47t-35 20v25l46 47q47 -11 73 -46z" />
    <glyph glyph-name="gcommaaccent" unicode="&#x123;" horiz-adv-x="588" 
d="M61 0zM434 529q24 24 82 24h59v-69h-101q26 -41 26 -98q0 -62 -30 -107.5t-80 -69t-109 -23.5q-58 0 -102 18q-6 -14 -7.5 -29.5t-1.5 -37.5q0 -29 15 -43.5t51 -16.5q16 -2 67 -2h57q85 0 128 -23t55 -54.5t12 -72.5q0 -56 -31.5 -97.5t-89.5 -64t-136 -22.5
q-102 0 -169.5 33.5t-67.5 110.5q0 42 26 78.5t57 55.5q-25 10 -37 23.5t-14 26.5t-2 34t16.5 56t43.5 59q-82 48 -82 150q0 65 33 110t85.5 67t111.5 22q82 0 135 -38zM191 487q-34 -32 -34 -102q0 -67 34.5 -108.5t103.5 -41.5q60 0 89 34t29 104q0 75 -33 110.5t-99 35.5
q-56 0 -90 -32zM146 -86q0 -64 47 -93t117 -29q81 0 127.5 28t46.5 83q0 34 -11.5 55t-43.5 32.5t-91 11.5l-69 1q-57 0 -89 7q-34 -36 -34 -96zM229 690q-26 35 -27 74q0 41 19.5 76.5t47.5 59.5t53 32l25 -23v-13q-26 -12 -39 -44t-13 -69q0 -27 18 -47t35 -20v-25
l-46 -47q-47 11 -73 46z" />
    <glyph glyph-name="hbar" unicode="&#x127;" horiz-adv-x="686" 
d="M134 49v547h-83v53h83v69l-83 15v41l149 19l22 -11l-1 -133h92v-53h-92v-35l-2 -79q42 33 98 54t97 21q66 0 101.5 -26.5t49.5 -82.5t13 -152v-247l73 -10v-39h-243v39l82 10v211q0 87 -8 134.5t-33 71.5t-78 24q-36 0 -76.5 -11t-72.5 -34v-396l72 -10v-39h-233v39z" />
    <glyph glyph-name="Itilde" unicode="&#x128;" horiz-adv-x="374" 
d="M52 914q38 24 76 24q22 0 39 -9.5t35 -26.5q18 -15 30 -22t27 -7q49 0 90 43l25 -34q-19 -35 -57 -59t-76 -24q-23 0 -39.5 9.5t-36.5 27.5q-16 15 -28 22.5t-27 7.5q-24 0 -49 -13t-42 -30l-24 32q19 35 57 59zM141 53v652l-84 8v45h257v-45l-84 -8v-652l88 -13v-40
h-263v40z" />
    <glyph glyph-name="itilde" unicode="&#x129;" horiz-adv-x="334" 
d="M0 0zM141 49v409l-69 32v29l132 36l21 -10v-496l80 -10v-39h-246v39zM37.5 788q38.5 25 76.5 25q23 0 38.5 -9.5t35.5 -28.5q18 -16 29.5 -23.5t26.5 -7.5q26 0 48 13.5t43 34.5l24 -33q-19 -35 -57 -59.5t-76 -24.5q-23 0 -39 9.5t-36 27.5q-17 16 -29 23.5t-27 7.5
q-43 0 -91 -48l-24 34q19 34 57.5 59z" />
    <glyph glyph-name="Imacron" unicode="&#x12a;" horiz-adv-x="362" 
d="M52 0zM311 928v-68h-259v68h259zM141 53v652l-84 8v45h257v-45l-84 -8v-652l88 -13v-40h-263v40z" />
    <glyph glyph-name="imacron" unicode="&#x12b;" horiz-adv-x="334" 
d="M36 0zM141 49v409l-69 32v29l132 36l21 -10v-496l80 -10v-39h-246v39zM295 777v-68h-259v68h259z" />
    <glyph glyph-name="Iogonek" unicode="&#x12e;" horiz-adv-x="374" 
d="M318 40v-40h-27q-31 -10 -64.5 -34t-55.5 -52.5t-22 -50.5q0 -30 14 -46t48 -16q14 0 34.5 5.5t34.5 12.5l10 -41q-21 -15 -55.5 -25t-72.5 -10q-41 0 -69 26t-28 68q0 28 22 60.5t57.5 60t74.5 42.5h-164v40l86 13v652l-84 8v45h257v-45l-84 -8v-652z" />
    <glyph glyph-name="iogonek" unicode="&#x12f;" horiz-adv-x="334" 
d="M123.5 692.5q-17.5 15.5 -17.5 40.5q0 28 21.5 48t47.5 20q29 0 43.5 -16t14.5 -41q0 -29 -21 -48t-48 -19q-23 0 -40.5 15.5zM306 -204q-31 -24 -69 -40t-96 -13q-49 2 -73 28.5t-24 63.5q0 44 45 91.5t102 73.5h-132v39l82 10v409l-69 32v29l132 36l21 -10v-496l80 -10
v-39h-35q-30 -11 -64 -35t-57 -52.5t-23 -51.5q0 -32 15 -45t49 -15q27 -1 51 9t55 26z" />
    <glyph glyph-name="Idotaccent" unicode="&#x130;" horiz-adv-x="374" 
d="M55 0zM141 53v652l-84 8v45h257v-45l-84 -8v-652l88 -13v-40h-263v40zM215 875q0 -13 -9.5 -21.5t-21.5 -8.5q-9 0 -17.5 7t-8.5 18q0 12 9.5 21.5t21.5 9.5q26 0 26 -26z" />
    <glyph glyph-name="dotlessi" unicode="&#x131;" horiz-adv-x="334" 
d="M141 49v409l-69 32v29l132 36l21 -10v-496l80 -10v-39h-246v39z" />
    <glyph glyph-name="IJ" unicode="&#x132;" horiz-adv-x="726" 
d="M141 53v652l-84 8v45h257v-45l-84 -8v-652l88 -13v-40h-263v40zM432 -106.5q42 32.5 60 77.5q13 39 17 89t4 136v509l-81 8v45h253v-45l-83 -8v-448l1 -99q0 -87 -10 -137q-12 -59 -48.5 -104t-86 -72t-102.5 -35l-24 33q58 18 100 50.5z" />
    <glyph glyph-name="ij" unicode="&#x133;" horiz-adv-x="651" 
d="M59 0zM218.5 785q14.5 -16 14.5 -41q0 -29 -21 -48t-48 -19q-23 0 -40.5 15.5t-17.5 40.5q0 28 21.5 48t47.5 20q29 0 43.5 -16zM225 545v-496l80 -10v-39h-246v39l82 10v409l-69 32v29l132 36zM548.5 793.5q14.5 -15.5 14.5 -41.5q0 -30 -20 -48t-48 -18q-24 0 -41 15.5
t-17 40.5q0 28 21.5 47.5t46.5 19.5q29 0 43.5 -15.5zM558 545v-553q0 -114 -46.5 -178.5t-127.5 -64.5q-14 0 -32.5 2t-21.5 5v62q13 -5 53 -5q32 0 51.5 17t28.5 57.5t9 111.5v459l-69 33v28l134 36z" />
    <glyph glyph-name="Jcircumflex" unicode="&#x134;" horiz-adv-x="353" 
d="M355 812l-39 -23l-131 87l-133 -87l-36 22l127 127h85zM310 713l-81 -8v-448v-66q0 -116 -10 -170q-12 -59 -48.5 -104t-86.5 -72t-103 -35l-23 33q58 18 99.5 50.5t59.5 77.5q14 40 18.5 90.5t4.5 134.5v509l-83 8v45h253v-45z" />
    <glyph glyph-name="jcircumflex" unicode="&#x135;" horiz-adv-x="317" 
d="M138 867h85l130 -193l-39 -21l-134 136l-142 -136l-35 20zM69 491v28l134 36l21 -10v-553q0 -114 -46.5 -178.5t-127.5 -64.5q-14 0 -32.5 2t-21.5 5v62q13 -5 53 -5q32 0 51.5 17t28.5 57.5t9 111.5v459z" />
    <glyph glyph-name="Kcommaaccent" unicode="&#x136;" horiz-adv-x="694" 
d="M51 0zM132 53v652l-79 8v45h248v-45l-80 -8v-344l289 344l-77 8v45h238v-45l-79 -8l-234 -267q30 -33 124 -184q60 -96 95 -146.5t48 -51.5l78 -16v-40h-145q-12 0 -38 40t-79 131q-47 83 -79 134t-55 73l-86 -97v-229l89 -12v-40h-259v40zM462 -71q26 -35 27 -74
q0 -41 -19.5 -76.5t-47.5 -59.5t-53 -32l-25 23v13q26 12 39 44t13 69q0 27 -18 47t-35 20v25l46 47q47 -11 73 -46z" />
    <glyph glyph-name="kcommaaccent" unicode="&#x137;" horiz-adv-x="623" 
d="M48 0zM135 49v669l-87 15v41l156 19l19 -11v-428l-3 -86l226 228l-73 7v48h226v-48l-74 -8l-171 -168l210 -278l68 -9v-40h-233v40l69 10l-167 233l-81 -79l3 -101v-54l72 -10v-39h-239v39zM409 -71q26 -35 27 -74q0 -41 -19.5 -76.5t-47.5 -59.5t-53 -32l-25 23v13
q26 12 39 44t13 69q0 27 -18 47t-35 20v25l46 47q47 -11 73 -46z" />
    <glyph glyph-name="kgreenlandic" unicode="&#x138;" horiz-adv-x="623" 
d="M135 49v434l-87 16v41l155 19l20 -11v-204l-3 -76l226 228l-73 7v48h226v-48l-75 -8l-170 -168l210 -278l68 -9v-40h-233v40l68 10l-166 233l-81 -79l3 -101v-54l72 -10v-39h-239v39z" />
    <glyph glyph-name="Lacute" unicode="&#x139;" horiz-adv-x="607" 
d="M52 0zM136 53v648l-82 7v50h260v-50l-89 -7l-1 -650l271 11l58 118l41 -20l-32 -160h-510v40zM301 938l66 -67q-43 -29 -94 -52.5t-95 -33.5l-25 25z" />
    <glyph glyph-name="lacute" unicode="&#x13a;" horiz-adv-x="341" 
d="M57 0zM139 49v669l-78 15v41l147 19l19 -11v-733l86 -10v-39h-256v39zM264 1049l66 -67q-24 -37 -78.5 -77t-109.5 -69l-25 25z" />
    <glyph glyph-name="Lcommaaccent" unicode="&#x13b;" horiz-adv-x="607" 
d="M52 0zM136 53v648l-82 7v50h260v-50l-89 -7l-1 -650l271 11l58 118l41 -20l-32 -160h-510v40zM366 -71q26 -35 27 -74q0 -41 -19.5 -76.5t-47.5 -59.5t-53 -32l-25 23v13q26 12 39 44t13 69q0 27 -18 47t-35 20v25l46 47q47 -11 73 -46z" />
    <glyph glyph-name="lcommaaccent" unicode="&#x13c;" horiz-adv-x="341" 
d="M57 0zM139 49v669l-78 15v41l147 19l19 -11v-733l86 -10v-39h-256v39zM239 -71q26 -35 27 -74q0 -41 -19.5 -76.5t-47.5 -59.5t-53 -32l-25 23v13q26 12 39 44t13 69q0 27 -18 47t-35 20v25l46 47q47 -11 73 -46z" />
    <glyph glyph-name="Lcaron" unicode="&#x13d;" horiz-adv-x="607" 
d="M52 0zM136 53v648l-82 7v50h260v-50l-89 -7l-1 -650l271 11l58 118l41 -20l-32 -160h-510v40zM408 537q17 60 17 120q0 42 -7.5 78t-17.5 47l7 21l70 19q14 -14 22.5 -46.5t8.5 -68.5q0 -59 -18 -118t-43 -82l-38 18z" />
    <glyph glyph-name="lcaron" unicode="&#x13e;" horiz-adv-x="341" 
d="M57 0zM139 49v669l-78 15v41l147 19l19 -11v-733l86 -10v-39h-256v39zM294 537q17 60 17 120q0 42 -7.5 78t-17.5 47l7 21l70 19q14 -14 22.5 -46.5t8.5 -68.5q0 -59 -18 -118t-43 -82l-38 18z" />
    <glyph glyph-name="Ldot" unicode="&#x13f;" horiz-adv-x="680" 
d="M314 708l-89 -7l-1 -650l271 11l58 118l41 -20l-32 -160h-510v40l84 13v648l-82 7v50h260v-50zM635 458q14 -15 14 -39q0 -28 -19.5 -46t-45.5 -18q-23 0 -40 14.5t-17 39.5q0 27 21 45.5t46 18.5q27 0 41 -15z" />
    <glyph glyph-name="ldot" unicode="&#x140;" horiz-adv-x="514" 
d="M227 782v-733l86 -10v-39h-256v39l82 10v669l-78 15v41l147 19zM476 439q14 -15 14 -39q0 -28 -20 -46t-45 -18q-23 0 -40 15t-17 39q0 27 21 45.5t46 18.5q27 0 41 -15z" />
    <glyph glyph-name="Lslash" unicode="&#x141;" horiz-adv-x="607" 
d="M314 708l-89 -7l-1 -319l31 13q102 42 146 59l88 35v-73l-265 -103v-262l271 11l58 118l40 -20l-32 -160h-510v40l84 13v226l-90 -35v33v33l90 37v354l-82 7v50h261v-50z" />
    <glyph glyph-name="lslash" unicode="&#x142;" horiz-adv-x="341" 
d="M139 49v329l-80 -32v63l80 33v276l-78 15v41l147 19l19 -11v-305l92 39v-67l-92 -37v-363l86 -10v-39h-256v39z" />
    <glyph glyph-name="Nacute" unicode="&#x143;" horiz-adv-x="812" 
d="M51 0zM775 709l-82 -8v-701h-95l-329 518l-69 137v-602l97 -13v-40h-246v40l84 13v648l-81 7v50h170l334 -543l70 -133v618l-82 9v49h229v-49zM527 938l66 -67q-43 -29 -94 -52.5t-95 -33.5l-25 25z" />
    <glyph glyph-name="nacute" unicode="&#x144;" horiz-adv-x="683" 
d="M445 868l66 -67q-25 -38 -79.5 -77.5t-108.5 -68.5l-25 25zM135 49v407l-71 34v29l126 36l21 -10v-68q37 31 99 55.5t111 24.5q84 0 119 -54t35 -177v-277l78 -10v-39h-240v39l74 10v263q0 64 -9.5 102.5t-33 57t-67.5 18.5q-35 0 -76 -13.5t-78 -39.5v-388l74 -10v-39
h-230v39z" />
    <glyph glyph-name="Ncommaaccent" unicode="&#x145;" horiz-adv-x="812" 
d="M51 0zM775 709l-82 -8v-701h-95l-329 518l-69 137v-602l97 -13v-40h-246v40l84 13v648l-81 7v50h170l334 -543l70 -133v618l-82 9v49h229v-49zM484 -71q26 -35 27 -74q0 -41 -19.5 -76.5t-47.5 -59.5t-53 -32l-25 23v13q26 12 39 44t13 69q0 27 -18 47t-35 20v25l46 47
q47 -11 73 -46z" />
    <glyph glyph-name="ncommaaccent" unicode="&#x146;" horiz-adv-x="683" 
d="M64 0zM135 49v407l-71 34v29l126 36l21 -10v-68q37 31 99 55.5t111 24.5q84 0 119 -54t35 -177v-277l78 -10v-39h-240v39l74 10v263q0 64 -9.5 102.5t-33 57t-67.5 18.5q-35 0 -76 -13.5t-78 -39.5v-388l74 -10v-39h-230v39zM412 -71q26 -35 27 -74q0 -41 -19.5 -76.5
t-47.5 -59.5t-53 -32l-25 23v13q26 12 39 44t13 69q0 27 -18 47t-35 20v25l46 47q47 -11 73 -46z" />
    <glyph glyph-name="Ncaron" unicode="&#x147;" horiz-adv-x="812" 
d="M51 0zM775 709l-82 -8v-701h-95l-329 518l-69 137v-602l97 -13v-40h-246v40l84 13v648l-81 7v50h170l334 -543l70 -133v618l-82 9v49h229v-49zM295 938l123 -85l125 85l36 -22l-119 -125h-85l-120 124z" />
    <glyph glyph-name="ncaron" unicode="&#x148;" horiz-adv-x="683" 
d="M64 0zM135 49v407l-71 34v29l126 36l21 -10v-68q37 31 99 55.5t111 24.5q84 0 119 -54t35 -177v-277l78 -10v-39h-240v39l74 10v263q0 64 -9.5 102.5t-33 57t-67.5 18.5q-35 0 -76 -13.5t-78 -39.5v-388l74 -10v-39h-230v39zM214 866l138 -136l138 136l35 -21l-131 -193
h-85l-134 193z" />
    <glyph glyph-name="Omacron" unicode="&#x14c;" horiz-adv-x="761" 
d="M44 0zM510 928v-68h-259v68h259zM569.5 717.5q71.5 -47.5 110 -131t38.5 -189.5q0 -127 -46 -220t-125 -142t-175 -49q-98 0 -172.5 48t-115 132.5t-40.5 191.5q0 128 50.5 222t134.5 141q80 44 174 44q95 0 166.5 -47.5zM257.5 674.5q-54.5 -41.5 -84.5 -120t-30 -186.5
q0 -90 29.5 -166t85 -121.5t129.5 -45.5q72 0 124.5 42t80.5 121t28 187q0 89 -27.5 165t-81 121t-126.5 45t-127.5 -41.5z" />
    <glyph glyph-name="omacron" unicode="&#x14d;" horiz-adv-x="601" 
d="M50 0zM417 777v-68h-259v68h259zM447.5 525.5q54.5 -37.5 80.5 -101.5t26 -143q-1 -85 -35 -152t-92 -104t-129 -37q-85 0 -140.5 39.5t-81.5 105.5t-26 146q0 85 36.5 150t96.5 99.5t130 34.5q80 0 134.5 -37.5zM182 455q-39 -59 -39 -166t41.5 -178.5t121.5 -71.5
t117 60.5t37 176.5q0 107 -40 172.5t-121 65.5q-78 0 -117 -59z" />
    <glyph glyph-name="Ohungarumlaut" unicode="&#x150;" horiz-adv-x="759" 
d="M44 0zM569.5 717.5q71.5 -47.5 110 -131t38.5 -189.5q0 -127 -46 -220t-125 -142t-175 -49q-98 0 -172.5 48t-115 132.5t-40.5 191.5q0 128 50.5 222t134.5 141q80 44 174 44q95 0 166.5 -47.5zM257.5 674.5q-54.5 -41.5 -84.5 -120t-30 -186.5q0 -90 29.5 -166
t85 -121.5t129.5 -45.5q72 0 124.5 42t80.5 121t28 187q0 89 -27.5 165t-81 121t-126.5 45t-127.5 -41.5zM402 998l57 -54q-29 -38 -87 -89t-104 -83l-25 25zM640 998l58 -54q-30 -38 -88.5 -89t-103.5 -83l-25 25z" />
    <glyph glyph-name="ohungarumlaut" unicode="&#x151;" horiz-adv-x="602" 
d="M50 0zM447.5 525.5q54.5 -37.5 80.5 -101.5t26 -143q-1 -85 -35 -152t-92 -104t-129 -37q-85 0 -140.5 39.5t-81.5 105.5t-26 146q0 85 36.5 150t96.5 99.5t130 34.5q80 0 134.5 -37.5zM182 455q-39 -59 -39 -166t41.5 -178.5t121.5 -71.5t117 60.5t37 176.5
q0 107 -40 172.5t-121 65.5q-78 0 -117 -59zM289 881l57 -54q-29 -38 -87 -89t-104 -83l-25 25zM527 881l58 -54q-30 -38 -88.5 -89t-103.5 -83l-25 25z" />
    <glyph glyph-name="OE" unicode="&#x152;" horiz-adv-x="1013" 
d="M470 758h463l14 -140h-50l-23 86l-267 6v-287l184 4l15 77h46v-210h-46l-15 77l-184 3v-324l284 8l48 105l44 -11l-22 -152h-491q-39 -11 -92 -14q-101 -1 -177.5 47.5t-117.5 136t-39 198.5q2 123 50.5 213t129 137t179.5 47q29 0 67 -7zM257 674.5
q-55 -41.5 -84.5 -120t-29.5 -185.5q0 -90 29.5 -166.5t85 -122t129.5 -45.5q79 0 133 51v573q-57 57 -135 57q-73 0 -128 -41.5z" />
    <glyph glyph-name="oe" unicode="&#x153;" horiz-adv-x="997" 
d="M894.5 508.5q49.5 -54.5 52.5 -149.5q1 -25 -0.5 -47.5t-4.5 -41.5h-367q0 -102 49.5 -161t141.5 -59q40 0 84 9.5t65 22.5l18 -39q-28 -25 -85.5 -40t-115.5 -15q-78 0 -133.5 35.5t-83.5 100.5q-33 -64 -90 -100t-127 -36q-85 0 -140.5 39.5t-81.5 105t-26 145.5
q0 86 36 150.5t96.5 99.5t130.5 35q78 0 131 -36t81 -99q36 63 97 99t139 36q84 0 133.5 -54.5zM182 455.5q-39 -58.5 -39 -166.5q0 -107 41.5 -178.5t121.5 -71.5q154 0 154 237q0 107 -39.5 172.5t-120.5 65.5q-79 0 -118 -58.5zM627.5 466.5q-43.5 -47.5 -51.5 -142.5
h279q1 10 1 30q0 109 -56 143q-26 17 -66 17q-63 0 -106.5 -47.5z" />
    <glyph glyph-name="Racute" unicode="&#x154;" horiz-adv-x="694" 
d="M42 0zM518.5 719.5q66.5 -45.5 66.5 -157.5q0 -76 -45 -133t-121 -81l8 -4q35 -15 67 -61t73 -121q31 -55 47.5 -80.5t30.5 -28.5l55 -13v-40h-137q-13 0 -29 26.5t-46 88.5q-50 104 -90 162t-85 54q-27 -1 -88 -1v-277l103 -13v-40h-286v40l94 13v648l-82 7v50h126
q20 0 50 3q56 4 99 4q123 0 189.5 -45.5zM290 715q-47 -2 -65 -7v-326q27 -3 95 -3q83 0 128 43.5t45 129.5q0 82 -41 125t-136 39q-8 -1 -26 -1zM459 938l66 -67q-43 -29 -94 -52.5t-95 -33.5l-25 25z" />
    <glyph glyph-name="racute" unicode="&#x155;" horiz-adv-x="451" 
d="M54 0zM135 49v407l-71 34v29l126 36l22 -10v-73q20 29 73.5 56.5t97.5 27.5q36 0 48 -3v-93q-22 8 -38.5 11.5t-44.5 3.5q-69 0 -125 -37v-388l142 -11v-39h-311v39zM296 868l66 -67q-24 -37 -78.5 -77t-109.5 -69l-25 25z" />
    <glyph glyph-name="Rcommaaccent" unicode="&#x156;" horiz-adv-x="694" 
d="M42 0zM518.5 719.5q66.5 -45.5 66.5 -157.5q0 -76 -45 -133t-121 -81l8 -4q35 -15 67 -61t73 -121q31 -55 47.5 -80.5t30.5 -28.5l55 -13v-40h-137q-13 0 -29 26.5t-46 88.5q-50 104 -90 162t-85 54q-27 -1 -88 -1v-277l103 -13v-40h-286v40l94 13v648l-82 7v50h126
q20 0 50 3q56 4 99 4q123 0 189.5 -45.5zM290 715q-47 -2 -65 -7v-326q27 -3 95 -3q83 0 128 43.5t45 129.5q0 82 -41 125t-136 39q-8 -1 -26 -1zM443 -71q26 -35 27 -74q0 -41 -19.5 -76.5t-47.5 -59.5t-53 -32l-25 23v13q26 12 39 44t13 69q0 27 -18 47t-35 20v25l46 47
q47 -11 73 -46z" />
    <glyph glyph-name="rcommaaccent" unicode="&#x157;" horiz-adv-x="451" 
d="M54 0zM135 49v407l-71 34v29l126 36l22 -10v-73q20 29 73.5 56.5t97.5 27.5q36 0 48 -3v-93q-22 8 -38.5 11.5t-44.5 3.5q-69 0 -125 -37v-388l142 -11v-39h-311v39zM247 -71q26 -35 27 -74q0 -41 -19.5 -76.5t-47.5 -59.5t-53 -32l-25 23v13q26 12 39 44t13 69
q0 27 -18 47t-35 20v25l46 47q47 -11 73 -46z" />
    <glyph glyph-name="Rcaron" unicode="&#x158;" horiz-adv-x="694" 
d="M42 0zM518.5 719.5q66.5 -45.5 66.5 -157.5q0 -76 -45 -133t-121 -81l8 -4q35 -15 67 -61t73 -121q31 -55 47.5 -80.5t30.5 -28.5l55 -13v-40h-137q-13 0 -29 26.5t-46 88.5q-50 104 -90 162t-85 54q-27 -1 -88 -1v-277l103 -13v-40h-286v40l94 13v648l-82 7v50h126
q20 0 50 3q56 4 99 4q123 0 189.5 -45.5zM290 715q-47 -2 -65 -7v-326q27 -3 95 -3q83 0 128 43.5t45 129.5q0 82 -41 125t-136 39q-8 -1 -26 -1zM218 938l123 -85l125 85l36 -22l-119 -125h-85l-120 124z" />
    <glyph glyph-name="rcaron" unicode="&#x159;" horiz-adv-x="451" 
d="M54 0zM135 49v407l-71 34v29l126 36l22 -10v-73q20 29 73.5 56.5t97.5 27.5q36 0 48 -3v-93q-22 8 -38.5 11.5t-44.5 3.5q-69 0 -125 -37v-388l142 -11v-39h-311v39zM140 866l138 -136l138 136l35 -21l-131 -193h-85l-134 193z" />
    <glyph glyph-name="Sacute" unicode="&#x15a;" horiz-adv-x="601" 
d="M75 0zM165 2.5q-66 13.5 -90 27.5v154h41l29 -98q27 -28 71 -39.5t94 -11.5q64 0 110.5 33.5t46.5 100.5q0 40 -24.5 71.5t-60.5 55.5t-97 57q-65 34 -107 62.5t-70 68.5t-28 92q0 64 36.5 106.5t90.5 62.5t109 20q66 0 115 -11.5t75 -26.5v-134h-40l-35 95
q-18 16 -50.5 24t-70.5 8q-33 0 -67 -13t-57.5 -42t-23.5 -74q0 -52 43.5 -89.5t126.5 -79.5q72 -38 115 -66t73.5 -68.5t30.5 -93.5q0 -103 -71 -154t-181 -51q-68 0 -134 13.5zM375 938l66 -67q-43 -29 -94 -52.5t-95 -33.5l-25 25z" />
    <glyph glyph-name="Scedilla" unicode="&#x15e;" horiz-adv-x="601" 
d="M485 44q-66 -51 -170 -55q-1 -8 -1 -25q0 -18 1 -25q62 1 94.5 -27t32.5 -65q0 -48 -34.5 -75t-89.5 -29l-23 -1q-30 0 -49 5t-25 6l1 46q11 -3 28.5 -5t29.5 -2q34 0 53.5 11t19.5 45q0 25 -20 38.5t-59 13.5q-9 0 -16 -1t-10 -1q0 43 13 92q-60 4 -113.5 16t-72.5 24
v154h41l29 -98q27 -28 71 -39.5t94 -11.5q64 0 110.5 33.5t46.5 100.5q0 40 -24.5 71.5t-60.5 55.5t-97 57q-65 34 -107 62.5t-70 68.5t-28 92q0 64 36.5 106.5t90.5 62.5t109 20q66 0 115 -11.5t75 -26.5v-134h-40l-35 95q-18 16 -50.5 24t-70.5 8q-33 0 -67 -13t-57.5 -42
t-23.5 -74q0 -52 43.5 -89.5t126.5 -79.5q72 -38 115 -66t73.5 -68.5t30.5 -93.5q0 -99 -66 -150z" />
    <glyph glyph-name="scedilla" unicode="&#x15f;" horiz-adv-x="512" 
d="M463 153q0 -77 -56.5 -119.5t-146.5 -44.5q-1 -8 -1 -25t1 -24q62 1 94.5 -27t32.5 -65q0 -48 -34.5 -75t-89.5 -29l-23 -1q-30 0 -49 5t-25 6l1 46q11 -3 28.5 -5t29.5 -2q34 0 53.5 11t19.5 45q0 25 -20 38.5t-59 13.5q-9 0 -16 -1t-10 -1q0 43 13 92q-71 8 -126 39
v110h41l19 -61q25 -22 53.5 -31.5t66.5 -9.5q54 0 86.5 24t32.5 70q0 24 -14 41.5t-34.5 29.5t-58.5 29l-35 16q-70 32 -111 70t-41 95q0 49 29.5 83t75.5 50.5t94 16.5q44 0 84.5 -10.5t63.5 -24.5v-103h-39l-20 57q-33 35 -89 35q-53 0 -84 -22.5t-31 -65.5
q0 -34 27 -55.5t84 -48.5l25 -12q8 -4 57 -26.5t75 -56.5t26 -78v1z" />
    <glyph glyph-name="Scaron" unicode="&#x160;" horiz-adv-x="601" 
d="M75 0zM165 2.5q-66 13.5 -90 27.5v154h41l29 -98q27 -28 71 -39.5t94 -11.5q64 0 110.5 33.5t46.5 100.5q0 40 -24.5 71.5t-60.5 55.5t-97 57q-65 34 -107 62.5t-70 68.5t-28 92q0 64 36.5 106.5t90.5 62.5t109 20q66 0 115 -11.5t75 -26.5v-134h-40l-35 95
q-18 16 -50.5 24t-70.5 8q-33 0 -67 -13t-57.5 -42t-23.5 -74q0 -52 43.5 -89.5t126.5 -79.5q72 -38 115 -66t73.5 -68.5t30.5 -93.5q0 -103 -71 -154t-181 -51q-68 0 -134 13.5zM193 938l123 -85l125 85l36 -22l-119 -125h-85l-120 124z" />
    <glyph glyph-name="scaron" unicode="&#x161;" horiz-adv-x="499" 
d="M119 866l138 -136l138 136l35 -21l-131 -193h-85l-134 193zM119 140l18 -61q26 -22 54 -31.5t66 -9.5q55 0 87.5 24t32.5 70q0 34 -26 54.5t-81 45.5q-24 10 -36 16q-70 32 -111 70t-41 96q0 49 30 82.5t76 50t93 16.5q45 0 85 -10t64 -25v-103h-40l-20 57q-32 35 -89 35
q-53 0 -83.5 -22.5t-30.5 -66.5q0 -34 28.5 -56t86.5 -49l21 -10q57 -27 84.5 -43t50 -45.5t22.5 -72.5q0 -79 -59 -121.5t-153 -42.5q-45 0 -89.5 10.5t-80.5 31.5v110h41z" />
    <glyph glyph-name="Tcaron" unicode="&#x164;" horiz-adv-x="609" 
d="M15 0zM194 938l123 -85l125 85l36 -22l-119 -125h-85l-120 124zM275 53v655l-186 -10l-32 -88l-42 -1l12 149h582l-1 -151l-37 -4l-24 96l-183 9v-655l129 -13v-40h-341v40z" />
    <glyph glyph-name="tcaron" unicode="&#x165;" horiz-adv-x="422" 
d="M54 0zM215 546h170v-57h-170v-261q0 -78 4 -113t16 -49t40 -14q26 0 57.5 8.5t45.5 17.5l14 -40q-20 -22 -66.5 -36t-84.5 -14q-56 0 -84 33.5t-28 106.5v361h-75v34l22 5q32 7 44 12.5t21 23.5q6 15 16.5 55.5t12.5 57.5h45v-131zM294 668q17 60 17 120q0 42 -7.5 78
t-17.5 47l7 21l70 19q14 -14 22.5 -46.5t8.5 -68.5q0 -59 -18 -118t-43 -82l-38 18z" />
    <glyph glyph-name="Umacron" unicode="&#x16a;" horiz-adv-x="770" 
d="M16 0zM749 713l-76 -9v-373q0 -175 -75.5 -260t-207.5 -85q-159 0 -228.5 82t-69.5 252l1 385l-77 8v45h252v-45l-86 -9v-387q0 -155 58.5 -219t165.5 -64q198 0 198 297v373l-87 9v45h232v-45zM525 908v-68h-259v68h259z" />
    <glyph glyph-name="umacron" unicode="&#x16b;" horiz-adv-x="631" 
d="M53 0zM53 496v35l120 25l17 -9v-336q0 -59 8.5 -92.5t32 -50t67.5 -16.5q42 0 83.5 20t59.5 38v368l-61 14v38l134 26l13 -8v-508h60v-35q-15 -8 -41 -14t-47 -6q-49 0 -49 40v41q-44 -37 -91.5 -56.5t-94.5 -19.5q-72 0 -107 28.5t-44 76t-10 129.5v259zM444 777v-68
h-259v68h259z" />
    <glyph glyph-name="Uring" unicode="&#x16e;" horiz-adv-x="770" 
d="M16 0zM749 713l-76 -9v-373q0 -175 -75.5 -260t-207.5 -85q-159 0 -228.5 82t-69.5 252l1 385l-77 8v45h252v-45l-86 -9v-387q0 -155 58.5 -219t165.5 -64q198 0 198 297v373l-87 9v45h232v-45zM480.5 905.5q36.5 -32.5 36.5 -80.5t-36 -80.5t-88 -32.5q-51 0 -87 32.5
t-36 80.5t36 80.5t87 32.5t87.5 -32.5zM344 869q-20 -18 -20 -45t20 -45.5t49 -18.5q28 0 48.5 18.5t20.5 45.5t-20.5 45t-48.5 18q-29 0 -49 -18z" />
    <glyph glyph-name="uring" unicode="&#x16f;" horiz-adv-x="631" 
d="M53 0zM53 496v35l120 25l17 -9v-336q0 -59 8.5 -92.5t32 -50t67.5 -16.5q42 0 83.5 20t59.5 38v368l-61 14v38l134 26l13 -8v-508h60v-35q-15 -8 -41 -14t-47 -6q-49 0 -49 40v41q-44 -37 -91.5 -56.5t-94.5 -19.5q-72 0 -107 28.5t-44 76t-10 129.5v259zM395.5 844.5
q35.5 -34.5 35.5 -83.5t-35.5 -82.5t-86.5 -33.5q-50 0 -86 33.5t-36 82.5t36 83.5t86 34.5q51 0 86.5 -34.5zM261 808q-20 -20 -20 -48t20 -48t48 -20q29 0 48.5 20t19.5 48q0 29 -19.5 48.5t-48.5 19.5q-28 0 -48 -20z" />
    <glyph glyph-name="Uhungarumlaut" unicode="&#x170;" horiz-adv-x="770" 
d="M16 0zM749 713l-76 -9v-373q0 -175 -75.5 -260t-207.5 -85q-159 0 -228.5 82t-69.5 252l1 385l-77 8v45h252v-45l-86 -9v-387q0 -155 58.5 -219t165.5 -64q198 0 198 297v373l-87 9v45h232v-45zM402 998l57 -54q-29 -38 -87 -89t-104 -83l-25 25zM640 998l58 -54
q-30 -38 -88.5 -89t-103.5 -83l-25 25z" />
    <glyph glyph-name="uhungarumlaut" unicode="&#x171;" horiz-adv-x="631" 
d="M53 0zM53 496v35l120 25l17 -9v-336q0 -59 8.5 -92.5t32 -50t67.5 -16.5q42 0 83.5 20t59.5 38v368l-61 14v38l134 26l13 -8v-508h60v-35q-15 -8 -41 -14t-47 -6q-49 0 -49 40v41q-44 -37 -91.5 -56.5t-94.5 -19.5q-72 0 -107 28.5t-44 76t-10 129.5v259zM319 881l57 -54
q-29 -38 -87 -89t-104 -83l-25 25zM557 881l58 -54q-30 -38 -88.5 -89t-103.5 -83l-25 25z" />
    <glyph glyph-name="Uogonek" unicode="&#x172;" horiz-adv-x="770" 
d="M749 758v-45l-76 -9v-373q0 -154 -59 -238.5t-164 -102.5q-45 -21 -82 -59.5t-37 -68.5t14 -46t48 -16q14 0 34.5 5.5t34.5 12.5l10 -41q-21 -15 -55.5 -25t-72.5 -10q-41 0 -69 26t-28 68q0 37 36 79.5t88 70.5q-149 5 -214 87.5t-65 246.5l1 385l-77 8v45h252v-45
l-86 -9v-387q0 -155 58.5 -219t165.5 -64q198 0 198 297v373l-87 9v45h232z" />
    <glyph glyph-name="uogonek" unicode="&#x173;" horiz-adv-x="631" 
d="M510 -13q-43 -24 -77.5 -60t-34.5 -65q0 -32 15 -45t49 -15q27 -1 51 9t55 26l10 -40q-31 -24 -69 -40t-96 -13q-49 2 -73 28.5t-24 63.5q0 43 43.5 89.5t99.5 73.5q-9 9 -9 27v41q-44 -37 -91.5 -56.5t-94.5 -19.5q-72 0 -107 28.5t-44 76t-10 129.5v259l-50 13v35
l120 25l17 -9v-336q0 -59 8.5 -92.5t32 -50t67.5 -16.5q42 0 83.5 20t59.5 38v368l-61 14v38l134 26l13 -8v-508h60v-35q-12 -7 -33.5 -13t-41.5 -7z" />
    <glyph glyph-name="Ydieresis" unicode="&#x178;" horiz-adv-x="661" 
d="M6 0zM299 54v257l-236 394l-57 8v45h236v-45l-77 -8l160 -295l25 -50l22 51l145 293l-83 9v45h221v-45l-65 -12l-202 -391v-256l105 -14v-40h-294v40zM393 934q29 0 43.5 -15.5t14.5 -40.5q0 -29 -21 -47.5t-48 -18.5q-22 0 -38 14q-19 -14 -42 -14q-24 0 -41 15t-17 40
q0 28 21.5 47.5t47.5 19.5q24 0 39 -13q19 13 39 13h2z" />
    <glyph glyph-name="Zacute" unicode="&#x179;" horiz-adv-x="660" 
d="M46 0zM625 719l-422 -602l-53 -66l377 17l61 124l46 -11l-35 -181h-540l-13 41l426 604l53 64l-358 -11l-44 -110l-48 8l15 162h521zM479 938l66 -67q-43 -29 -94 -52.5t-95 -33.5l-25 25z" />
    <glyph glyph-name="zacute" unicode="&#x17a;" horiz-adv-x="527" 
d="M43 0zM493 508l-294 -400l-49 -63l272 11l30 84l47 -1l-8 -139h-433l-15 38l36 48l268 369l41 48l-251 -7l-28 -91h-43v141h414zM337 868l66 -67q-24 -37 -78.5 -77t-109.5 -69l-25 25z" />
    <glyph glyph-name="Zdotaccent" unicode="&#x17b;" horiz-adv-x="660" 
d="M46 0zM625 719l-422 -602l-53 -66l377 17l61 124l46 -11l-35 -181h-540l-13 41l426 604l53 64l-358 -11l-44 -110l-48 8l15 162h521zM387 875q0 -13 -9.5 -21.5t-21.5 -8.5q-9 0 -17.5 7t-8.5 18q0 12 9.5 21.5t21.5 9.5q26 0 26 -26z" />
    <glyph glyph-name="zdotaccent" unicode="&#x17c;" horiz-adv-x="527" 
d="M43 0zM493 508l-294 -400l-49 -63l272 11l30 84l47 -1l-8 -139h-433l-15 38l36 48l268 369l41 48l-251 -7l-28 -91h-43v141h414zM315.5 777.5q14.5 -15.5 14.5 -40.5q0 -28 -20.5 -46.5t-47.5 -18.5q-24 0 -41 15t-17 40q0 27 21.5 46.5t46.5 19.5q29 0 43.5 -15.5z" />
    <glyph glyph-name="Zcaron" unicode="&#x17d;" horiz-adv-x="660" 
d="M46 0zM625 719l-422 -602l-53 -66l377 17l61 124l46 -11l-35 -181h-540l-13 41l426 604l53 64l-358 -11l-44 -110l-48 8l15 162h521zM237 938l123 -85l125 85l36 -22l-119 -125h-85l-120 124z" />
    <glyph glyph-name="zcaron" unicode="&#x17e;" horiz-adv-x="527" 
d="M43 0zM493 508l-294 -400l-49 -63l272 11l30 84l47 -1l-8 -139h-433l-15 38l36 48l268 369l41 48l-251 -7l-28 -91h-43v141h414zM137 866l138 -136l138 136l35 -21l-131 -193h-85l-134 193z" />
    <glyph glyph-name="florin" unicode="&#x192;" horiz-adv-x="518" 
d="M86 481l3 36l110 26l4 44q5 69 40.5 123t84 84t92.5 30q55 0 69 -9l-5 -77q-9 6 -32 11t-55 5q-30 0 -51 -9.5t-35 -38t-18 -82.5l-7 -81h152l-5 -62h-151l-50 -655h-87l49 655h-108z" />
    <glyph glyph-name="Scommaaccent" unicode="&#x218;" horiz-adv-x="601" 
d="M75 0zM165 2.5q-66 13.5 -90 27.5v154h41l29 -98q27 -28 71 -39.5t94 -11.5q64 0 110.5 33.5t46.5 100.5q0 40 -24.5 71.5t-60.5 55.5t-97 57q-65 34 -107 62.5t-70 68.5t-28 92q0 64 36.5 106.5t90.5 62.5t109 20q66 0 115 -11.5t75 -26.5v-134h-40l-35 95
q-18 16 -50.5 24t-70.5 8q-33 0 -67 -13t-57.5 -42t-23.5 -74q0 -52 43.5 -89.5t126.5 -79.5q72 -38 115 -66t73.5 -68.5t30.5 -93.5q0 -103 -71 -154t-181 -51q-68 0 -134 13.5zM356 -82q26 -35 27 -74q0 -41 -19.5 -76.5t-47.5 -59.5t-53 -32l-25 23v13q26 12 39 44t13 69
q0 27 -18 47t-35 20v25l46 47q47 -11 73 -46z" />
    <glyph glyph-name="scommaaccent" unicode="&#x219;" horiz-adv-x="512" 
d="M80 0zM121 140l19 -61q25 -22 53.5 -31.5t66.5 -9.5q54 0 86.5 24t32.5 70q0 24 -14 41.5t-34.5 29.5t-58.5 29l-35 16q-70 32 -111 70t-41 95q0 49 29.5 83t75.5 50.5t94 16.5q44 0 84.5 -10.5t63.5 -24.5v-103h-39l-20 57q-33 35 -89 35q-53 0 -84 -22.5t-31 -65.5
q0 -34 27 -55.5t84 -48.5l25 -12q8 -4 57 -26.5t75 -56.5t26 -78q0 -79 -59.5 -121.5t-153.5 -42.5q-45 0 -89.5 10.5t-80.5 31.5v110h41zM313 -83q26 -35 27 -74q0 -41 -19.5 -76.5t-47.5 -59.5t-53 -32l-25 23v13q26 12 39 44t13 69q0 27 -18 47t-35 20v25l46 47
q47 -11 73 -46z" />
    <glyph glyph-name="uni021A" unicode="&#x21a;" horiz-adv-x="622" 
d="M15 0zM275 53v655l-186 -10l-32 -88l-42 -1l12 149h582l-1 -151l-37 -4l-24 96l-183 9v-655l129 -13v-40h-341v40zM377 -71q26 -35 27 -74q0 -41 -19.5 -76.5t-47.5 -59.5t-53 -32l-25 23v13q26 12 39 44t13 69q0 27 -18 47t-35 20v25l46 47q47 -11 73 -46z" />
    <glyph glyph-name="uni021B" unicode="&#x21b;" horiz-adv-x="422" 
d="M54 0zM215 546h170v-57h-170v-261q0 -78 4 -113t16 -49t40 -14q26 0 57.5 8.5t45.5 17.5l14 -40q-20 -22 -66.5 -36t-84.5 -14q-56 0 -84 33.5t-28 106.5v361h-75v34l22 5q32 7 44 12.5t21 23.5q6 15 16.5 55.5t12.5 57.5h45v-131zM292 -71q26 -35 27 -74
q0 -41 -19.5 -76.5t-47.5 -59.5t-53 -32l-25 23v13q26 12 39 44t13 69q0 27 -18 47t-35 20v25l46 47q47 -11 73 -46z" />
    <glyph glyph-name="uni0237" unicode="&#x237;" horiz-adv-x="317" 
d="M69 491v28l134 36l21 -10v-553q0 -114 -46.5 -178.5t-127.5 -64.5q-14 0 -32.5 2t-21.5 5v62q13 -5 53 -5q32 0 51.5 17t28.5 57.5t9 111.5v459z" />
    <glyph glyph-name="circumflex" unicode="&#x2c6;" horiz-adv-x="519" 
d="M216 866h86l130 -192l-39 -22l-134 137l-142 -137l-35 21z" />
    <glyph glyph-name="caron" unicode="&#x2c7;" horiz-adv-x="519" 
d="M121 866l138 -136l138 136l35 -21l-131 -193h-85l-134 193z" />
    <glyph glyph-name="breve" unicode="&#x2d8;" horiz-adv-x="522" 
d="M402.5 755q-21.5 -36 -59 -58t-83.5 -22q-48 0 -85 22t-57 57.5t-20 75.5h44q1 -2 10.5 -26t39 -43.5t70.5 -19.5q42 0 67 16.5t31.5 28.5t21.5 45h42q0 -40 -21.5 -76z" />
    <glyph glyph-name="dotaccent" unicode="&#x2d9;" horiz-adv-x="271" 
d="M182.5 777.5q14.5 -15.5 14.5 -40.5q0 -28 -20.5 -46.5t-47.5 -18.5q-24 0 -41 15t-17 40q0 27 21.5 46.5t46.5 19.5q29 0 43.5 -15.5z" />
    <glyph glyph-name="ring" unicode="&#x2da;" horiz-adv-x="279" 
d="M225.5 844.5q35.5 -34.5 35.5 -83.5t-35.5 -82.5t-86.5 -33.5q-50 0 -86 33.5t-36 82.5t36 83.5t86 34.5q51 0 86.5 -34.5zM91 808q-20 -20 -20 -48t20 -48t48 -20q29 0 48.5 20t19.5 48q0 29 -19.5 48.5t-48.5 19.5q-28 0 -48 -20z" />
    <glyph glyph-name="ogonek" unicode="&#x2db;" horiz-adv-x="347" 
d="M197 0q-30 -11 -64 -35t-57 -52.5t-23 -51.5q0 -32 15 -45t49 -15q27 -1 51 9t55 26l10 -40q-31 -24 -69 -40t-96 -13q-49 2 -73 28.5t-24 63.5q0 44 45 91.5t102 73.5l36 4z" />
    <glyph glyph-name="tilde" unicode="&#x2dc;" horiz-adv-x="435" 
d="M85.5 788q38.5 25 76.5 25q23 0 38.5 -9.5t35.5 -28.5q18 -16 29.5 -23.5t26.5 -7.5q26 0 48 13.5t43 34.5l24 -33q-19 -35 -57 -59.5t-76 -24.5q-23 0 -39 9.5t-36 27.5q-17 16 -29 23.5t-27 7.5q-43 0 -91 -48l-24 34q19 34 57.5 59z" />
    <glyph glyph-name="hungarumlaut" unicode="&#x2dd;" horiz-adv-x="437" 
d="M248 881l57 -54q-29 -38 -87 -89t-104 -83l-25 25zM486 881l58 -54q-30 -38 -88.5 -89t-103.5 -83l-25 25z" />
    <glyph glyph-name="uni0326" unicode="&#x326;" horiz-adv-x="346" 
d="M-94 -71q26 -35 27 -74q0 -41 -19.5 -76.5t-47.5 -59.5t-53 -32l-25 23v13q26 12 39 44t13 69q0 27 -18 47t-35 20v25l46 47q47 -11 73 -46z" />
    <glyph glyph-name="Omega" unicode="&#x3a9;" horiz-adv-x="953" 
d="M115 177l16 -95h170q-45 29 -86 77t-66.5 111t-24.5 131q2 117 51 197.5t127 120t169 39.5q95 0 169 -39t115.5 -113.5t41.5 -178.5q0 -61 -25.5 -127t-66 -123.5t-83.5 -94.5h173l34 108l45 -3l-22 -187h-325v74q77 47 124 138t47 206q0 98 -31.5 166t-84.5 101.5
t-118 33.5q-72 0 -126.5 -36t-85 -107.5t-30.5 -173.5q0 -75 27 -140.5t69 -113.5t86 -73v-75h-335v174z" />
    <glyph glyph-name="mu" unicode="&#x3bc;" horiz-adv-x="690" 
d="M128 -186v668l-50 14v34l120 26l16 -9v-335q0 -86 22.5 -123t86.5 -37q42 0 83.5 20t58.5 38v368l-61 14v38l134 26l14 -8v-508h59v-35q-15 -8 -41 -14t-47 -6q-49 0 -49 40v41q-88 -76 -185 -76q-45 0 -75 12v-188h-86z" />
    <glyph glyph-name="pi" unicode="&#x3c0;" horiz-adv-x="777" 
d="M653.5 497q-42.5 -38 -106.5 -39l-17 -330q0 -55 25 -55q22 0 44 16.5t32 40.5h50q-7 -29 -28.5 -62t-53.5 -56t-68 -23t-49 28.5t-13 76.5q0 25 1 38q11 186 21 326h-191q-3 -86 -11 -251q-6 -80 -18.5 -116t-45.5 -67q-25 -23 -67 -36l-65 63q8 1 30.5 10t39.5 21
q38 26 52.5 60.5t17.5 89.5l11 226h-32q-30 0 -55.5 -13.5t-34.5 -36.5l-47 6q-3 25 9 47q22 41 59.5 63t85.5 22l326 -1q36 0 60 13t39 41h47q-5 -64 -47.5 -102z" />
    <glyph glyph-name="uni0901" unicode="&#x901;" 
d="M-86 963l-73 -74l-74 73l73 74zM-171 807q60 0 106 29t73 68l56 -54q-39 -49 -86 -76.5t-114 -27.5q-73 0 -129.5 45t-93.5 106l29 15q75 -104 159 -105z" />
    <glyph glyph-name="uni0902" unicode="&#x902;" 
d="M-80 796l-73 -74l-73 74l73 74z" />
    <glyph glyph-name="uni0903" unicode="&#x903;" horiz-adv-x="307" 
d="M225 434l-73 -75l-74 74l73 74zM225 98l-73 -75l-74 74l73 74z" />
    <glyph glyph-name="uni0904" unicode="&#x904;" horiz-adv-x="809" 
d="M806 581h-110v-612h-15l-63 36v253h-2q-34 -18 -69 -18q-59 0 -118 44l-3 -2q32 -48 32 -106q0 -66 -43 -107.5t-113 -41.5q-104 0 -174 69.5t-124 166.5l33 21q43 -74 105.5 -130t126.5 -56q52 0 85.5 32t33.5 78q0 32 -15 62.5t-41 52.5q-53 -17 -121 -24l-31 57l9 21
q89 7 131 31q26 16 41 38t15 55q-1 35 -32.5 62.5t-69.5 27.5q-67 0 -143 -65l-40 76q28 20 78 40t76 20q41 0 85.5 -29.5t74.5 -75.5t30 -93q0 -33 -15.5 -64.5t-45.5 -56.5q29 -15 66 -25.5t70 -10.5q32 0 58 9.5t50 27.5v235h-138l-27 51v14h175q8 14 8 32
q0 46 -25.5 77.5t-84.5 31.5q-19 0 -81 -6q-79 -7 -101 -7q-56 0 -105 18t-78 45t-29 52q0 41 21 91l46 -7q-16 -43 -16 -67q0 -28 23.5 -42.5t63.5 -14.5q32 0 118 7q25 1 67 4t56 3q39 0 72 -17t57 -45q21 -26 33.5 -53.5t12.5 -51.5q0 -19 -6 -49h100l28 -52z" />
    <glyph glyph-name="uni0905" unicode="&#x905;" horiz-adv-x="809" 
d="M809 582h-111v-612h-15l-63 36v253h-2q-34 -18 -69 -18q-59 0 -118 44l-3 -2q32 -48 32 -106q0 -66 -43 -107.5t-113 -41.5q-104 0 -174 69.5t-124 166.5l33 21q43 -74 105.5 -130t126.5 -56q52 0 85.5 32t33.5 78q0 32 -15 62.5t-41 52.5q-53 -17 -121 -24l-31 57l9 21
q89 7 131 31q26 16 41 38t15 55q-1 35 -32.5 62.5t-69.5 27.5q-67 0 -143 -65l-40 76q28 20 78 40t76 20q41 0 85.5 -29.5t74.5 -75.5t30 -93q0 -33 -15.5 -64.5t-45.5 -56.5q29 -15 66 -25.5t70 -10.5q32 0 58 9.5t50 27.5v235h-141l-27 51v14h329l28 -52v-11z" />
    <glyph glyph-name="uni0906" unicode="&#x906;" horiz-adv-x="1109" 
d="M1109 582h-111v-612h-15l-64 36v576h-221v-612h-15l-63 36v253h-2q-34 -18 -69 -18q-59 0 -118 44l-3 -2q32 -48 32 -106q0 -66 -43 -107.5t-113 -41.5q-104 0 -174 69.5t-124 166.5l33 21q43 -74 105.5 -130t126.5 -56q52 0 85.5 32t33.5 78q0 32 -15 62.5t-41 52.5
q-53 -17 -121 -24l-31 57l9 21q89 7 131 31q26 16 41 38t15 55q-1 35 -32.5 62.5t-69.5 27.5q-67 0 -143 -65l-40 76q28 20 78 40t76 20q41 0 85.5 -29.5t74.5 -75.5t30 -93q0 -33 -15.5 -64.5t-45.5 -56.5q29 -15 66 -25.5t70 -10.5q32 0 58 9.5t50 27.5v235h-141l-27 51
v14h629l28 -52v-11z" />
    <glyph glyph-name="uni0907" unicode="&#x907;" horiz-adv-x="503" 
d="M194 421q-32 0 -46 -21.5t-14 -49.5q0 -23 15 -42.5t30 -19.5q29 0 87 16q45 13 63 13q28 0 52.5 -25t39 -63t14.5 -74q0 -35 -27.5 -67t-72 -52.5t-95.5 -24.5l89 -137l-58 -24l-78 162q-48 6 -89 24.5t-41 48.5t22.5 50.5t45.5 20.5q9 0 15 -2l51 -77q83 4 137.5 30.5
t54.5 75.5q0 23 -8.5 44t-19.5 26q-16 0 -59 -13q-21 -6 -44.5 -11.5t-40.5 -5.5q-24 0 -57 25t-56.5 61t-23.5 67q0 53 24.5 83.5t67.5 30.5h146v90h-322l-27 51v14h512l28 -52v-13h-114v-158h-200z" />
    <glyph glyph-name="uni0908" unicode="&#x908;" horiz-adv-x="503" 
d="M480 644l28 -52v-13h-114v-158h-200q-32 0 -46 -21.5t-14 -49.5q0 -23 15 -42.5t30 -19.5q29 0 87 16q45 13 63 13q28 0 52.5 -25t39 -63t14.5 -74q0 -35 -27.5 -67t-72 -52.5t-95.5 -24.5l89 -137l-58 -24l-78 162q-48 6 -89 24.5t-41 48.5t22.5 50.5t45.5 20.5
q9 0 15 -2l51 -77q83 4 137.5 30.5t54.5 75.5q0 23 -8.5 44t-19.5 26q-16 0 -59 -13q-21 -6 -44.5 -11.5t-40.5 -5.5q-24 0 -57 25t-56.5 61t-23.5 67q0 53 24.5 83.5t67.5 30.5h146v90h-322l-27 51v14h345v2q-50 41 -81 89.5t-31 97.5q0 41 22.5 72.5t59.5 49t79 17.5
q41 0 81.5 -19t72.5 -51l-25 -39q-23 16 -54.5 29t-60.5 13q-40 0 -67 -25t-27 -70q0 -43 28 -88t66 -78z" />
    <glyph glyph-name="uni0909" unicode="&#x909;" horiz-adv-x="587" 
d="M590 580h-200q35 -37 57 -75t22 -69q0 -64 -60 -105q116 -87 116 -176q0 -38 -19.5 -74t-56 -59t-83.5 -23q-109 0 -195.5 83t-143.5 181l33 24q27 -49 73.5 -99.5t100.5 -84t102 -33.5q36 0 63 15.5t42 40.5t15 53q0 64 -94 129q-33 -12 -69 -12q-44 0 -80 12l-29 62
l7 15q56 -8 78 -8q63 0 99.5 24.5t36.5 65.5q0 29 -25 59t-59 54h-325l-27 51v14h591l28 -52z" />
    <glyph glyph-name="uni090A" unicode="&#x90a;" horiz-adv-x="839" 
d="M841 580h-451q35 -37 57 -75t22 -69q0 -64 -60 -105q28 -21 49 -42q54 44 101 71.5t90 27.5q32 0 63.5 -22t52 -60.5t20.5 -83.5q0 -38 -17 -93.5t-40 -95.5l-82 43q37 45 63.5 88t26.5 83q0 36 -20.5 55t-52.5 19q-36 0 -73.5 -25t-83.5 -70q19 -36 19 -73t-20 -72.5
t-56 -58.5t-83 -23q-109 0 -195.5 83t-143.5 181l33 24q27 -49 73.5 -99.5t100.5 -84t102 -33.5q36 0 63 15.5t42 40.5t15 53q0 64 -94 129q-33 -12 -69 -12q-44 0 -80 12l-29 62l7 15q56 -8 78 -8q63 0 99.5 24.5t36.5 65.5q0 29 -25 59t-59 54h-325l-27 51v14h842l28 -52z
" />
    <glyph glyph-name="uni090B" unicode="&#x90b;" horiz-adv-x="855" 
d="M856 593v-13h-383v-247q82 -5 133 32l-33 76q6 7 23 14t32 7q32 0 53.5 -18.5t21.5 -48.5q0 -32 -26 -58l77 -171q-55 -28 -80.5 -52.5t-25.5 -52.5q1 -21 19 -37.5t50 -16.5q20 0 47.5 7t47.5 19l44 -65q-21 -11 -47.5 -19t-47.5 -8q-39 0 -79 21t-66 54.5t-26 70.5
q0 31 23 61.5t67 57.5l-45 100q-29 -17 -64 -26t-68 -9q-20 0 -30 2v-305h-15l-64 37l2 225l-1 3l-261 -198l-54 59l314 216q-47 43 -91 59.5t-90 16.5q-32 0 -64.5 -9.5t-71.5 -24.5l-42 75q26 10 72 22t76 12q50 -1 102 -26t110 -70v215h-399l-27 51v14h859z" />
    <glyph glyph-name="uni090C" unicode="&#x90c;" horiz-adv-x="739" 
d="M739 593v-13h-191v-155q52 -17 92.5 -58t39.5 -91q0 -46 -25.5 -83.5t-73.5 -88.5q-37 -39 -53 -60.5t-16 -43.5q0 -24 17.5 -39t46.5 -15q32 0 62 21t61 56l54 -53q-41 -37 -77.5 -54.5t-75.5 -17.5q-30 0 -68.5 18t-65 48.5t-26.5 66.5q0 24 17 47t52 58
q48 48 73.5 85.5t25.5 85.5q0 24 -13.5 41.5t-32.5 26t-33 8.5q-64 0 -102.5 -68t-56.5 -152l-77 37q16 68 47 120q-25 26 -58 43t-60 17q-45 0 -73.5 -31t-28.5 -82q0 -76 29.5 -137.5t75.5 -125.5l-34 -20q-142 182 -142 316q0 42 18.5 76.5t50.5 54t71 19.5
q46 0 92.5 -27t82.5 -68q45 61 106 75v150h-474l-27 51v14h743z" />
    <glyph glyph-name="uni090D" unicode="&#x90d;" horiz-adv-x="583" 
d="M0 0zM620 -83.5q24 -25.5 24 -51.5q0 -30 -20 -47t-51 -17q-24 0 -41 13.5t-26 31.5v2l54 59l-360 242q-44 29 -66 49.5t-29.5 38t-7.5 42.5v301h-101l-27 51v14h586l28 -52v-13h-102v-239q0 -65 -29.5 -100t-69.5 -48l-58 40v10q39 17 59.5 35t20.5 48v254h-229v-312
q0 -23 10.5 -39t39.5 -36l304 -206q67 -45 91 -70.5zM412 773.5q-47 -27.5 -114 -27.5q-73 0 -129.5 45t-93.5 106l29 15q75 -104 159 -105q60 0 106 29t73 68l56 -54q-39 -49 -86 -76.5z" />
    <glyph glyph-name="uni090E" unicode="&#x90e;" horiz-adv-x="583" 
d="M-11 972q-16 -43 -16 -67q0 -28 23.5 -42.5t62.5 -14.5q33 0 120 7q24 1 66 4t56 3q38 0 71.5 -17t56.5 -45q48 -57 48 -105q0 -14 -3.5 -30.5t-4.5 -19.5h86l28 -52v-13h-101v-239q0 -65 -29.5 -99.5t-69.5 -48.5l-58 40v10q39 18 59 35.5t20 47.5v254h-229v-312
q0 -23 10.5 -39t39.5 -36l304 -206q67 -45 91 -70.5t24 -51.5q0 -30 -20.5 -47t-50.5 -17q-24 0 -41 13.5t-26 31.5v2l53 59l-359 242q-44 29 -66 49.5t-29.5 38t-7.5 42.5v301h-101l-27 51v14h450q7 14 7 32q0 46 -25.5 77.5t-85.5 31.5q-19 0 -79 -6q-10 -1 -44 -4t-58 -3
q-56 0 -105 18t-78.5 45t-29.5 52q0 34 21 91z" />
    <glyph glyph-name="uni090F" unicode="&#x90f;" horiz-adv-x="583" 
d="M620 -83.5q24 -25.5 24 -51.5q0 -30 -20 -47t-51 -17q-24 0 -41 13.5t-26 31.5v2l54 59l-360 242q-44 29 -66 49.5t-29.5 38t-7.5 42.5v301h-101l-27 51v14h586l28 -52v-13h-102v-239q0 -65 -29.5 -100t-69.5 -48l-58 40v10q39 17 59.5 35t20.5 48v254h-229v-312
q0 -23 10.5 -39t39.5 -36l304 -206q67 -45 91 -70.5z" />
    <glyph glyph-name="uni0910" unicode="&#x910;" horiz-adv-x="583" 
d="M0 0zM620 -83.5q24 -25.5 24 -51.5q0 -30 -20 -47t-51 -17q-24 0 -41 13.5t-26 31.5v2l54 59l-360 242q-44 29 -66 49.5t-29.5 38t-7.5 42.5v301h-101l-27 51v14h586l28 -52v-13h-102v-239q0 -65 -29.5 -100t-69.5 -48l-58 40v10q39 17 59.5 35t20.5 48v254h-229v-312
q0 -23 10.5 -39t39.5 -36l304 -206q67 -45 91 -70.5zM280.5 960q51.5 -55 106.5 -161q53 -100 78 -157h-54q-12 29 -27 59.5t-26 49.5q-43 77 -70.5 120t-42.5 51l-117 -36q-14 11 -24 30t-10 39q0 28 18.5 44t49.5 16q67 0 118.5 -55z" />
    <glyph glyph-name="uni0911" unicode="&#x911;" horiz-adv-x="1109" 
d="M6 0zM1109 582h-111v-612h-15l-64 36v576h-221v-612h-15l-63 36v253h-2q-34 -18 -69 -18q-59 0 -118 44l-3 -2q32 -48 32 -106q0 -66 -43 -107.5t-113 -41.5q-104 0 -174 69.5t-124 166.5l33 21q43 -74 105.5 -130t126.5 -56q52 0 85.5 32t33.5 78q0 32 -15 62.5
t-41 52.5q-53 -17 -121 -24l-31 57l9 21q89 7 131 31q26 16 41 38t15 55q-1 35 -32.5 62.5t-69.5 27.5q-67 0 -143 -65l-40 76q28 20 78 40t76 20q41 0 85.5 -29.5t74.5 -75.5t30 -93q0 -33 -15.5 -64.5t-45.5 -56.5q29 -15 66 -25.5t70 -10.5q32 0 58 9.5t50 27.5v235h-141
l-27 51v14h629l28 -52v-11zM1081 773.5q-47 -27.5 -114 -27.5q-73 0 -129.5 45t-93.5 106l29 15q75 -104 159 -105q60 0 106 29t73 68l56 -54q-39 -49 -86 -76.5z" />
    <glyph glyph-name="uni0912" unicode="&#x912;" horiz-adv-x="1109" 
d="M501 972q-15 -45 -15 -67q0 -28 23.5 -42.5t62.5 -14.5q14 0 54.5 2.5t65.5 4.5q88 7 120 7q39 0 73 -17t57 -45q47 -58 47 -105q0 -22 -8 -50h101l27 -52v-13h-111v-612h-14l-63 36v576h-223v-612h-15l-63 36v253h-2q-34 -18 -68 -18q-58 0 -119 44l-4 -3
q33 -50 33 -105q0 -66 -43 -107.5t-113 -41.5q-104 0 -174 69.5t-124 166.5l33 21q43 -74 105.5 -130t126.5 -56q52 0 85.5 32t33.5 78q0 31 -15.5 62.5t-41.5 52.5q-51 -16 -121 -23l-31 57l9 21q89 7 131 31q26 16 41 38t15 55q-1 35 -32.5 62.5t-69.5 27.5
q-67 0 -143 -65l-40 76q28 20 78 40t76 20q41 0 85.5 -29.5t74.5 -75.5t30 -93q0 -35 -17 -68t-45 -53q30 -15 67 -25.5t71 -10.5q32 0 58 9.5t50 27.5v236h-140l-27 51v14h478q7 14 7 32q0 46 -25 77.5t-85 31.5q-18 0 -80 -6q-11 -1 -44.5 -4t-56.5 -3q-57 0 -106 18
t-78 45t-29 52q0 34 21 91z" />
    <glyph glyph-name="uni0913" unicode="&#x913;" horiz-adv-x="1109" 
d="M6 0zM1109 582h-111v-612h-15l-64 36v576h-221v-612h-15l-63 36v253h-2q-34 -18 -69 -18q-59 0 -118 44l-3 -2q32 -48 32 -106q0 -66 -43 -107.5t-113 -41.5q-104 0 -174 69.5t-124 166.5l33 21q43 -74 105.5 -130t126.5 -56q52 0 85.5 32t33.5 78q0 32 -15 62.5
t-41 52.5q-53 -17 -121 -24l-31 57l9 21q89 7 131 31q26 16 41 38t15 55q-1 35 -32.5 62.5t-69.5 27.5q-67 0 -143 -65l-40 76q28 20 78 40t76 20q41 0 85.5 -29.5t74.5 -75.5t30 -93q0 -33 -15.5 -64.5t-45.5 -56.5q29 -15 66 -25.5t70 -10.5q32 0 58 9.5t50 27.5v235h-141
l-27 51v14h629l28 -52v-11zM787.5 960q51.5 -55 106.5 -161q53 -100 78 -157h-54q-12 29 -27 59.5t-26 49.5q-43 77 -70.5 120t-42.5 51l-117 -36q-14 11 -24 30t-10 39q0 28 18.5 44t49.5 16q67 0 118.5 -55z" />
    <glyph glyph-name="uni0914" unicode="&#x914;" horiz-adv-x="1109" 
d="M6 0zM1109 582h-111v-612h-15l-64 36v576h-221v-612h-15l-63 36v253h-2q-34 -18 -69 -18q-59 0 -118 44l-3 -2q32 -48 32 -106q0 -66 -43 -107.5t-113 -41.5q-104 0 -174 69.5t-124 166.5l33 21q43 -74 105.5 -130t126.5 -56q52 0 85.5 32t33.5 78q0 32 -15 62.5
t-41 52.5q-53 -17 -121 -24l-31 57l9 21q89 7 131 31q26 16 41 38t15 55q-1 35 -32.5 62.5t-69.5 27.5q-67 0 -143 -65l-40 76q28 20 78 40t76 20q41 0 85.5 -29.5t74.5 -75.5t30 -93q0 -33 -15.5 -64.5t-45.5 -56.5q29 -15 66 -25.5t70 -10.5q32 0 58 9.5t50 27.5v235h-141
l-27 51v14h629l28 -52v-11zM818 981q55 -63 105 -173q49 -114 69 -171h-35q-40 96 -53 120q-36 71 -70.5 126t-51.5 69l-128 -36h-2q-13 11 -23 29.5t-10 37.5q0 29 19 45t50 16q75 0 130 -63zM801 802.5q65 -64.5 131 -168.5l-34 -1q-38 49 -74.5 92t-49.5 49l-139 -19h-1
q-12 10 -20 25.5t-8 30.5q0 25 17.5 40.5t46.5 15.5q66 0 131 -64.5z" />
    <glyph glyph-name="uni0915" unicode="&#x915;" horiz-adv-x="841" 
d="M481 579v-224q81 73 146 73q77 0 120 -52t43 -139q0 -42 -22 -103t-47 -99l-61 63q28 32 54.5 78t26.5 87q0 42 -26.5 70.5t-64.5 28.5q-40 0 -81.5 -25t-87.5 -70v-300h-15l-65 37l4 192l-2 1q-48 -40 -85.5 -60t-88.5 -20q-48 0 -87.5 20.5t-63 60.5t-23.5 95
q0 43 19.5 80.5t55 60.5t81.5 23q110 0 190 -118v241h-405l-27 51v14h844l28 -52v-13zM200 184q56 0 108 27.5t95 70.5v1q-27 39 -72 67.5t-91 28.5q-33 0 -64.5 -13t-52 -38t-20.5 -59q0 -38 29.5 -61t67.5 -23v-1z" />
    <glyph glyph-name="uni0916" unicode="&#x916;" horiz-adv-x="837" 
d="M844 593v-13h-116v-612h-15l-64 37l2 68q-46 -28 -108.5 -49t-116.5 -21q-124 0 -293 185q-41 45 -57 71.5t-16 52.5q0 20 15 39t32 28l53 -42q12 19 19.5 49t7.5 61q0 28 -3 66t-9 67h-179l-27 51v14h847zM543.5 91q63.5 25 108.5 64v96h-1q-4 -4 -34.5 -28t-62 -37.5
t-59.5 -13.5q-46 0 -84 21t-60.5 57.5t-22.5 79.5q0 47 21 83.5t57 56t80 19.5q85 0 161 -83h3v174h-407q8 -40 12.5 -89t4.5 -84q0 -64 -24.5 -106.5t-67.5 -81.5q47 -55 115 -104t143 -49q54 0 117.5 25zM587 399.5q-38 19.5 -76 19.5q-37 0 -68.5 -15.5t-49.5 -41.5
t-18 -56q0 -28 25.5 -48t66.5 -20q45 0 96 31t86 76q-24 35 -62 54.5z" />
    <glyph glyph-name="uni0917" unicode="&#x917;" horiz-adv-x="611" 
d="M611 593v-13h-111v-612h-15l-64 36v576h-208q12 -156 12 -289q0 -39 -15.5 -70.5t-59.5 -31.5q-35 0 -59 19t-35.5 46t-11.5 50q0 19 5 36l97 -13l7 253h-157l-27 51v14h614z" />
    <glyph glyph-name="uni0918" unicode="&#x918;" horiz-adv-x="651" 
d="M669 591v-13h-111v-612h-15l-64 37l2 183l-3 2q-108 -85 -184 -85q-72 0 -120 37q-31 24 -52.5 55t-21.5 63q0 42 21.5 79.5t57.5 60.5q-39 18 -62.5 33t-38 37.5t-14.5 55.5q0 23 11 56h-79l-27 51v14h672zM252 168q53 0 119 39.5t108 95.5v275h-313q-30 -28 -30 -73
q0 -22 18.5 -41t44.5 -29.5t46 -10.5l19 1q57 0 85 -12l16 -40l-7 -20q-27 7 -66 7q-40 0 -68.5 -20t-43 -50t-14.5 -59q0 -32 27 -47.5t60 -15.5h-1z" />
    <glyph glyph-name="uni0919" unicode="&#x919;" horiz-adv-x="701" 
d="M701 593v-13h-248v-181h-219q-75 0 -75 -77q0 -22 16 -42t33 -20q22 0 45.5 5.5t53.5 15.5q34 10 55 15t42 5q27 0 53.5 -25.5t43.5 -63.5t17 -73q0 -68 -39.5 -111.5t-110.5 -43.5q-83 0 -165 43.5t-173 146.5l33 30q77 -83 142.5 -117.5t128.5 -34.5q55 0 93.5 27.5
t38.5 79.5q0 24 -11 45t-26 27q-26 0 -47.5 -5.5t-50.5 -15.5q-26 -10 -44 -14.5t-39 -4.5q-28 0 -63.5 24.5t-60.5 61t-25 72.5q0 55 29.5 87t75.5 32h171v112h-379l-27 51v14h705zM685 346l-73 -75l-73 75l72 74z" />
    <glyph glyph-name="uni091A" unicode="&#x91a;" horiz-adv-x="657" 
d="M656 593v-13h-111v-612h-14l-66 36l3 166l-2 2q-38 -30 -81.5 -50t-83.5 -20q-37 0 -68.5 12.5t-52.5 34.5q-57 57 -57 118q0 29 11 55t28 46h-101l-27 52v13h339l27 -51v-14h-106q-50 -6 -79 -42.5t-30 -82.5q1 -36 27.5 -62.5t59.5 -26.5q46 0 103.5 38.5t92.5 82.5
v305h-472l-27 51v14h660z" />
    <glyph glyph-name="uni091B" unicode="&#x91b;" horiz-adv-x="787" 
d="M572 580v-111q50 -19 83 -60t33 -105q0 -63 -33 -124q51 -28 79 -61.5t29 -83.5q0 -37 -21 -91.5t-47 -95.5l-63 61q81 83 81 141q-1 26 -22.5 46.5t-62.5 41.5q-51 -68 -131 -111t-163 -43q-46 0 -97 27.5t-85 66t-34 69.5q0 49 38 89q-51 32 -75 58t-24 64
q0 29 17.5 55.5t47.5 43t65 16.5q26 0 48.5 -4.5t35.5 -10.5l30 -70q-46 22 -96 24q-32 0 -57 -20t-25 -54q0 -27 27 -47t54 -23q29 13 58 13q51 0 80 -7l20 -44l-8 -21q-25 8 -64 8q-31 0 -53 -14.5t-33.5 -37t-11.5 -44.5q0 -28 30 -50.5t70 -22.5q80 0 152 33t119 89
l-21 12q-66 36 -107 84.5t-41 110.5q0 50 29.5 76t72.5 29v98h-500l-27 51v14h790l28 -52v-13h-215zM622 333q0 44 -29 68.5t-68 25.5q-29 -1 -47.5 -18t-18.5 -52q0 -41 31.5 -76t81.5 -59l18 -9q33 57 33 119z" />
    <glyph glyph-name="uni091C" unicode="&#x91c;" horiz-adv-x="730" 
d="M729 578h-112v-612h-14l-64 36v367h-212q46 -39 74 -83.5t28 -82.5q0 -54 -33.5 -90t-82.5 -36q-75 0 -131.5 54t-90.5 121t-70 158l39 17q48 -109 105.5 -192.5t128.5 -83.5q30 0 48 21.5t18 51.5q0 47 -48 96.5t-104 81.5l14 33h3l-1 1h316v144h-544l-27 51v14h734
l27 -52z" />
    <glyph glyph-name="uni091D" unicode="&#x91d;" horiz-adv-x="773" 
d="M772 592v-13h-111v-612h-14l-64 35v220h-2q-33 -11 -57 -11q-29 0 -53 7t-54 21h-2q19 -43 19 -84q0 -36 -27 -67.5t-71.5 -52t-95.5 -24.5l89 -137l-58 -24l-78 162q-48 6 -89 24.5t-41 48.5t22.5 50.5t45.5 20.5q9 0 15 -2l51 -77q83 4 137.5 30.5t54.5 75.5
q0 23 -8.5 44t-19.5 26q-16 0 -59 -13q-21 -6 -44.5 -11.5t-40.5 -5.5q-24 0 -57 25t-56.5 61t-23.5 67q0 53 24.5 83.5t67.5 30.5h146v90h-322l-27 51v14h777zM487 281q29 0 54 7.5t43 19.5v271h-190v-158h-200q-32 0 -46 -21.5t-14 -49.5q0 -23 15 -42.5t30 -19.5
q29 0 87 16q45 13 63 13q24 0 47 -20q60 -16 110 -16h1z" />
    <glyph glyph-name="uni091E" unicode="&#x91e;" horiz-adv-x="742" 
d="M743 580h-111v-612h-15l-63 36v250l-2 1q-17 -12 -35 -12q-15 0 -33 8t-24 10h-2q-6 -56 -48.5 -95t-102.5 -39q-74 0 -146 53.5t-150 149.5l31 27q73 -79 129.5 -118t109.5 -39q51 1 83.5 30.5t32.5 69.5q0 29 -21 54.5t-51 25.5q-21 0 -47.5 -12t-51.5 -30l-52 64
q29 20 57 32.5t48 12.5q30 0 67.5 -18t67.5 -49t40 -68l16 -1q50 0 84 24v245h-558l-27 51v14h746l28 -52v-13z" />
    <glyph glyph-name="uni091F" unicode="&#x91f;" horiz-adv-x="538" 
d="M545 593v-13h-155v-206q-115 -8 -193.5 -48t-78.5 -114q0 -40 21.5 -65.5t53 -37t62.5 -11.5q108 0 221 67l37 -72q-112 -63 -230 -63q-61 0 -110.5 29t-77.5 77.5t-28 104.5q0 174 245 206v133h-316l-27 51v14h549z" />
    <glyph glyph-name="uni0920" unicode="&#x920;" horiz-adv-x="591" 
d="M593 579h-202q30 -48 30 -81q0 -35 -25 -83q125 -87 125 -197q0 -57 -28.5 -105t-82.5 -76t-127 -28q-64 0 -115 32t-80 85.5t-29 113.5q0 101 76 150t193 58q14 32 14 65q0 27 -26 67h-320l-27 51v14h595l28 -52zM430 325.5q-27 34.5 -56 46.5q-108 -8 -185.5 -47.5
t-77.5 -112.5q0 -45 22.5 -75.5t56 -45.5t66.5 -15q67 0 112.5 24.5t67 64t21.5 86.5q0 40 -27 74.5z" />
    <glyph glyph-name="uni0921" unicode="&#x921;" horiz-adv-x="585" 
d="M585 593v-13h-113v-181h-238q-75 0 -75 -77q0 -22 16 -42t33 -20q40 0 109 21q37 10 60 15t46 5q27 0 53.5 -25.5t43.5 -63.5t17 -73q0 -68 -43 -111.5t-120 -43.5q-86 0 -169 44t-174 146l32 30q76 -83 144 -117.5t133 -34.5q57 0 101 27.5t44 79.5q0 24 -11 45t-24 27
q-29 0 -52.5 -5.5t-57.5 -15.5q-27 -9 -47.5 -14t-44.5 -5q-27 0 -63 24.5t-61 61t-25 72.5q0 55 30 87t76 32h189v112h-398l-27 51v14h589z" />
    <glyph glyph-name="uni0922" unicode="&#x922;" horiz-adv-x="558" 
d="M145.5 352.5q-44.5 -35.5 -44.5 -100.5q0 -49 26 -88.5t63.5 -64.5t74.5 -35q-34 52 -34 101q0 63 37 93.5t87 30.5q39 0 72.5 -20.5t53 -55.5t19.5 -79q0 -45 -26.5 -77.5t-66.5 -49.5t-78 -17q-60 0 -125 34.5t-109 100t-44 153.5q0 93 53.5 137.5t142.5 44.5h99v120
h-350l-27 51v14h561l28 -52v-13h-135v-192h-156q-77 0 -121.5 -35.5zM382 231q-21 0 -44.5 -12t-39 -35.5t-15.5 -55.5q0 -34 20 -70q63 2 108 29t45 67q0 34 -23 55.5t-50 21.5h-1z" />
    <glyph glyph-name="uni0923" unicode="&#x923;" horiz-adv-x="775" 
d="M775 580h-113v-612h-14l-64 36v576h-163v-267q0 -42 -21.5 -76t-58 -53.5t-77.5 -19.5q-31 0 -59 16t-62 48q-27 25 -40.5 49t-13.5 51v252h-93l-27 51v14h778l28 -52v-13zM344 580h-177v-267q0 -50 23.5 -65t66.5 -15t65 31t22 68v248z" />
    <glyph glyph-name="uni0924" unicode="&#x924;" horiz-adv-x="604" 
d="M605 580h-112v-612h-14l-63 36v364h-158q-65 0 -95.5 -27t-30.5 -84q1 -54 39.5 -117.5t104.5 -128.5l-26 -28q-81 74 -134.5 150.5t-54.5 156.5q0 69 39 107.5t133 38.5h183v144h-420l-27 51v14h608l28 -52v-13z" />
    <glyph glyph-name="uni0925" unicode="&#x925;" horiz-adv-x="672" 
d="M673 591v-13h-111v-612h-14l-66 37l3 167l-3 2q-81 -58 -156 -58q-80 0 -133 45.5t-89 138.5q67 16 109 52q-71 32 -118 85t-47 115q0 51 31.5 78.5t79.5 27.5q45 0 88 -20t71 -59.5t28 -95.5q0 -70 -47 -131t-119 -96q11 -30 40.5 -49t71.5 -19q52 0 105 25.5t86 60.5
v308h-92l-27 51v14h281zM157.5 446q40.5 -40 91.5 -59q33 47 33 114q0 37 -27 66t-71 29q-30 0 -48.5 -17t-18.5 -51q0 -42 40.5 -82z" />
    <glyph glyph-name="uni0926" unicode="&#x926;" horiz-adv-x="564" 
d="M565 593v-13h-148v-185h-140q-86 0 -126.5 -37t-40.5 -101q0 -53 33 -86t75.5 -47.5t73.5 -14.5q33 0 65 5l-45 107q35 37 83 37q43 0 67 -26.5t24 -65.5q0 -28 -16.5 -53.5t-47.5 -43.5l92 -163l-56 -29l-74 175q-39 -13 -92 -13q-51 0 -104.5 29t-89.5 84t-36 128
q1 96 48.5 141t147.5 45h81v114h-343l-27 51v14h568z" />
    <glyph glyph-name="uni0927" unicode="&#x927;" horiz-adv-x="668" 
d="M668 580h-111v-612h-16l-64 37l2 185l-2 1q-47 -35 -89.5 -55t-82.5 -20q-39 0 -70.5 11t-60.5 36q-26 25 -44.5 54.5t-18.5 54.5q0 30 15 61t41 53q-53 34 -86 82t-33 102q0 49 31.5 76t78.5 27q22 0 48 -9t43 -22q25 -17 40 -35.5t15 -44.5q-1 -15 -12.5 -27t-36.5 -12
q-17 0 -25 5v70q-15 17 -47 17q-31 0 -50 -16.5t-19 -50.5q0 -40 30 -76.5t70 -56.5q25 11 55 11q58 0 83 -12l17 -39l-8 -21q-29 8 -64 8t-62 -17.5t-42 -45t-15 -56.5q0 -31 27 -46.5t60 -15.5q52 0 113 36t101 83v280h-107l-27 51v14h294l29 -52v-13z" />
    <glyph glyph-name="uni0928" unicode="&#x928;" horiz-adv-x="584" 
d="M585 593v-13h-111v-612h-15l-63 36v310l-220 -6l14 -100q-12 -5 -37 -5q-22 0 -49 11.5t-46.5 35.5t-19.5 59q0 74 102 74q103 0 256 -9v206h-400l-27 51v14h588z" />
    <glyph glyph-name="uni0929" unicode="&#x929;" horiz-adv-x="584" 
d="M585 593v-13h-111v-612h-15l-63 36v310l-220 -6l14 -100q-12 -5 -37 -5q-22 0 -49 11.5t-46.5 35.5t-19.5 59q0 74 102 74q103 0 256 -9v206h-400l-27 51v14h588zM232 133l74 -74l-73 -74l-74 74z" />
    <glyph glyph-name="uni092A" unicode="&#x92a;" horiz-adv-x="580" 
d="M580 593v-13h-111v-612h-15l-63 36v215h-2q-29 -19 -59 -30.5t-67 -11.5q-31 0 -61 16.5t-62 47.5q-26 25 -38.5 49.5t-12.5 55.5v234h-93l-27 51v14h584zM251 249q39 0 76 16.5t65 40.5v274h-225v-246q0 -85 83 -85h1z" />
    <glyph glyph-name="uni092B" unicode="&#x92b;" horiz-adv-x="824" 
d="M462 581v-208q82 75 146 75q77 0 120 -52.5t43 -139.5q0 -41 -22 -102t-47 -99l-62 62q28 31 54.5 78t26.5 87q0 42 -26.5 70.5t-63.5 28.5q-43 0 -81.5 -26.5t-86.5 -73.5v-313h-14l-66 37l3 210h-3q-29 -18 -57.5 -28t-62.5 -10q-31 0 -61 16.5t-62 47.5
q-26 25 -38.5 49.5t-12.5 55.5v234h-93l-27 51v14h827l28 -52v-13zM384 303v278h-218v-246q0 -85 83 -85q66 0 135 53z" />
    <glyph glyph-name="uni092C" unicode="&#x92c;" horiz-adv-x="654" 
d="M655 592v-13h-112v-612h-14l-64 36l2 189l-3 2q-54 -45 -100 -70t-95 -25q-50 0 -96.5 21t-76 62t-29.5 97q0 61 27.5 106t70.5 68.5t86 23.5q64 0 119 -36t94 -87h1v226h-469l-27 51v14h658zM355 199q33 18 62.5 43t49.5 50q-31 43 -81 75.5t-95 32.5q-33 0 -62 -9
l125 -192h1zM322 183l-127 193q-36 -20 -57.5 -52t-21.5 -68q0 -40 34 -66.5t87 -26.5q37 0 85 20z" />
    <glyph glyph-name="uni092D" unicode="&#x92d;" horiz-adv-x="723" 
d="M723 593v-13h-111v-612h-15l-63 36v225h-222q-3 -37 -17.5 -62t-47.5 -25q-25 0 -47 18.5t-36 48.5q-14 33 -14 68q0 11 1 17h83v79q-86 32 -136 74.5t-50 106.5q0 48 30.5 75t76.5 27q61 0 109 -35.5t48 -118.5v-208h222v286h-157l-27 51v14h345zM239 422q6 62 6 97
t-19 58t-47 23q-27 0 -45 -17.5t-18 -50.5q0 -70 123 -110z" />
    <glyph glyph-name="uni092E" unicode="&#x92e;" horiz-adv-x="625" 
d="M626 593v-13h-111v-612h-15l-63 36v242h-241q-3 -36 -17.5 -61t-46.5 -25q-25 0 -46 17t-34 45q-18 36 -18 75l1 15h83v268h-122l-27 51v14h628zM437 312v268h-240v-268h240z" />
    <glyph glyph-name="uni092F" unicode="&#x92f;" horiz-adv-x="623" 
d="M623 580h-111v-612h-15l-64 37l3 165l-4 2q-79 -56 -153 -56q-79 0 -136.5 56t-89.5 155q59 18 102 53t43 79q0 29 -19.5 56.5t-57.5 64.5h-125l-27 51v14h627l27 -52v-13zM348.5 211.5q52.5 25.5 85.5 59.5v309h-246v-2q37 -39 61.5 -74t24.5 -69q0 -50 -46.5 -91.5
t-96.5 -62.5q2 -39 35 -67t78 -28q52 0 104.5 25.5z" />
    <glyph glyph-name="uni0930" unicode="&#x930;" horiz-adv-x="409" 
d="M409 582h-161q8 -42 12.5 -91.5t4.5 -82.5q0 -62 -25.5 -106.5t-67.5 -81.5l209 -221l-46 -34l-209 239q-34 39 -47.5 61.5t-13.5 47.5q0 20 15.5 39t32.5 28l53 -42q11 19 19 49.5t8 60.5q0 28 -3 66t-9 66h-185l-27 51v14h413l28 -52z" />
    <glyph glyph-name="uni0931" unicode="&#x931;" horiz-adv-x="411" 
d="M411 582h-163q8 -42 12.5 -91.5t4.5 -82.5q0 -62 -25.5 -106.5t-67.5 -81.5l209 -221l-46 -34l-209 239q-34 39 -47.5 61.5t-13.5 47.5q0 20 15.5 39t32.5 28l53 -42q11 19 19 49.5t8 60.5q0 28 -3 66t-9 66h-185l-27 51v14h416l27 -52zM119 96l74 -74l-73 -74l-74 74z
" />
    <glyph glyph-name="uni0932" unicode="&#x932;" horiz-adv-x="733" 
d="M736 580h-112v-612h-14l-64 36v343q-27 27 -50 27q-48 0 -82.5 -62.5t-51.5 -139.5l-69 40q13 61 39 110q-23 26 -52.5 42t-57.5 16q-44 0 -73 -32t-29 -83q0 -139 159 -282l-29 -31q-87 77 -143.5 160.5t-56.5 189.5q0 41 18.5 75t50.5 53.5t71 19.5q46 0 88 -25t76 -66
q50 71 116 72q39 0 74 -39v188h-548l-27 51v14h737l28 -52z" />
    <glyph glyph-name="uni0933" unicode="&#x933;" horiz-adv-x="795" 
d="M629 582v-124q51 -23 82.5 -73.5t31.5 -119.5q0 -54 -21.5 -95t-56.5 -63t-75 -22q-52 0 -100 31.5t-81 71.5q-30 -61 -68 -91t-95 -30q-51 0 -95 27t-70.5 72.5t-26.5 98.5q0 60 23.5 105t61 69t78.5 24q52 0 94.5 -28t89.5 -73q29 55 64 82t85 28v108h-554l-27 51v14
h799l27 -52v-13zM662 378.5q-28 31.5 -72 31.5q-42 0 -70 -23t-46.5 -57.5t-46.5 -101.5q25 -32 59.5 -52.5t73.5 -20.5q32 0 62 21.5t49 56t19 71.5q0 43 -28 74.5zM211 134q44 0 74 23.5t49 59t48 105.5q-26 32 -58.5 51.5t-67.5 19.5q-46 0 -78.5 -22.5t-49.5 -58.5
t-17 -78q0 -43 26.5 -72t74.5 -29z" />
    <glyph glyph-name="uni0934" unicode="&#x934;" horiz-adv-x="795" 
d="M629 582v-124q51 -23 82.5 -73.5t31.5 -119.5q0 -54 -21.5 -95t-56.5 -63t-75 -22q-52 0 -100 31.5t-81 71.5q-30 -61 -68 -91t-95 -30q-51 0 -95 27t-70.5 72.5t-26.5 98.5q0 60 23.5 105t61 69t78.5 24q52 0 94.5 -28t89.5 -73q29 55 64 82t85 28v108h-554l-27 51v14
h799l27 -52v-13zM662 378.5q-28 31.5 -72 31.5q-42 0 -70 -23t-46.5 -57.5t-46.5 -101.5q25 -32 59.5 -52.5t73.5 -20.5q32 0 62 21.5t49 56t19 71.5q0 43 -28 74.5zM211 134q44 0 74 23.5t49 59t48 105.5q-26 32 -58.5 51.5t-67.5 19.5q-46 0 -78.5 -22.5t-49.5 -58.5
t-17 -78q0 -43 26.5 -72t74.5 -29zM413 62l74 -73l-73 -74l-74 74z" />
    <glyph glyph-name="uni0935" unicode="&#x935;" horiz-adv-x="650" 
d="M650 593v-13h-112v-612h-14l-64 37l2 182l-2 1q-110 -89 -194 -89q-51 0 -97 21t-74.5 62t-28.5 97q0 61 27 106t68.5 68.5t84.5 23.5q62 0 118 -37t96 -87h1v227h-465l-27 51v14h653zM231 163q57 0 121.5 37.5t108.5 88.5v3q-32 44 -81.5 76.5t-92.5 32.5
q-49 0 -89 -21.5t-62 -54.5t-22 -68q0 -40 33.5 -66.5t84.5 -26.5z" />
    <glyph glyph-name="uni0936" unicode="&#x936;" horiz-adv-x="729" 
d="M618 580v-612h-15l-63 36v576h-182q24 -24 37 -56.5t13 -69.5q0 -56 -27 -113.5t-71.5 -101.5t-93.5 -61l121 -183l-62 -39l-102 212q-4 -1 -12 -1q-24 0 -52 10.5t-47 27.5t-19 35q0 31 22.5 51.5t46.5 20.5q9 0 15 -2l51 -76q67 28 111 88q-76 30 -128.5 85.5
t-52.5 121.5q0 29 12 51h-124l-27 51v14h732l28 -52v-13h-111zM315.5 547.5q-27.5 31.5 -71.5 31.5q-29 0 -48 -18.5t-19 -52.5q0 -44 42.5 -84.5t95.5 -58.5q28 56 28 111q0 40 -27.5 71.5z" />
    <glyph glyph-name="uni0937" unicode="&#x937;" horiz-adv-x="599" 
d="M599 593v-13h-111v-612h-15l-63 36v187h-2q-36 -22 -68.5 -36t-67.5 -14q-58 0 -132 70q-27 27 -39 49.5t-12 53.5v266h-93l-27 51v14h602zM167 580v-1l243 -258v259h-243zM332.5 231q39.5 18 72.5 45l-238 253v-227q0 -47 26.5 -68t64.5 -21q35 0 74.5 18z" />
    <glyph glyph-name="uni0938" unicode="&#x938;" horiz-adv-x="680" 
d="M679 593v-13h-111v-612h-16l-62 36v229h-3q-48 -21 -100 -21q-75 0 -159 67h-2q-22 -31 -54 -60l202 -221l-46 -34l-202 239q-36 44 -48.5 63.5t-12.5 45.5q0 20 15.5 39t32.5 28l53 -42q11 19 19 49.5t8 60.5q0 28 -3 67t-9 66h-185l-27 51v14h683zM490 318v262h-242
q7 -40 12 -88.5t5 -84.5q0 -46 -16 -86q59 -38 117 -38q73 0 124 35z" />
    <glyph glyph-name="uni0939" unicode="&#x939;" horiz-adv-x="564" 
d="M182 409q-31 0 -45 -14.5t-14 -36.5q0 -19 12 -41.5t33 -43.5q52 39 125 39q50 0 97 -26t76.5 -64t29.5 -71q0 -41 -30 -79t-72 -63l-61 55v2q44 27 69.5 55.5t25.5 62.5q0 18 -14 36t-39 29.5t-57 11.5q-33 -1 -64.5 -18t-52 -47t-20.5 -67q0 -45 25 -83t73 -74t131 -83
l-21 -31q-129 67 -207 136.5t-78 158.5q0 49 31 89q-29 33 -49.5 72.5t-20.5 72.5q0 49 24 70.5t71 21.5h199v101h-363l-27 51v14h567l28 -52v-13h-127v-169h-255v-2z" />
    <glyph glyph-name="uni093A" unicode="&#x93a;" horiz-adv-x="391" 
d="M-506 908v-278h-78v278h78z" />
    <glyph glyph-name="uni093B" unicode="&#x93b;" horiz-adv-x="301" 
d="M301 593v-13h-111v-612h-15l-64 36v576h-115l-27 51v14h142v263h78v-263h84z" />
    <glyph glyph-name="uni093C" unicode="&#x93c;" 
d="M-79 -138l-73 -75l-74 74l73 74z" />
    <glyph glyph-name="uni093D" unicode="&#x93d;" horiz-adv-x="511" 
d="M459 593v-13h-239q-21 0 -32.5 -12t-11.5 -33q0 -17 16 -39.5t47 -56.5l28 -29q49 -52 79 -88.5t51.5 -80t21.5 -87.5q0 -39 -23 -71t-60.5 -50.5t-78.5 -18.5q-57 0 -114 48.5t-112 121.5l29 24q45 -52 89.5 -86t90.5 -34q49 0 79.5 28t30.5 65q0 41 -30 87.5t-78 100.5
l-33 36q-55 58 -81.5 93t-26.5 66q0 32 27 56.5t62 24.5h240z" />
    <glyph glyph-name="uni093E" unicode="&#x93e;" horiz-adv-x="301" 
d="M301 593v-13h-111v-612h-15l-64 36v576h-115l-27 51v14h304z" />
    <glyph glyph-name="uni093F" unicode="&#x93f;" horiz-adv-x="301" 
d="M276 918q-69 0 -112.5 -33t-43.5 -95q0 -37 15.5 -78t32.5 -68h105l28 -52v-13h-111v-612h-15l-64 36v576h-115l-27 51v14h147q-77 109 -77 188q0 45 25.5 80.5t72 55.5t106.5 20q102 0 220 -77t255 -198l-25 -32q-132 112 -232 174.5t-186 62.5h1z" />
    <glyph glyph-name="uni0940" unicode="&#x940;" horiz-adv-x="300" 
d="M300 593v-13h-111v-612h-15l-64 36v576h-115l-27 51v14h151q-53 128 -107 214t-118 86q-41 0 -64.5 -30t-23.5 -68q0 -33 17 -67.5t38 -56.5v-2l-44 -22q-39 33 -67.5 80t-28.5 100q0 36 19 67t53 50t78 19q72 0 128 -57t91.5 -129.5t79.5 -183.5h103z" />
    <glyph glyph-name="uni0941" unicode="&#x941;" 
d="M-353 -225q81 -65 154 -65q52 0 83.5 23.5t31.5 60.5q0 21 -19.5 40t-51.5 19q-21 0 -48.5 -7.5t-48.5 -19.5l-46 68q21 12 48 19.5t48 7.5q37 0 79 -22.5t70 -57t28 -68.5q0 -31 -19 -61t-54.5 -49.5t-82.5 -19.5q-87 0 -174 62.5t-184 211.5l41 22q64 -99 145 -164z
" />
    <glyph glyph-name="uni0942" unicode="&#x942;" 
d="M-69 -208q-73 60 -139 60q-49 0 -81 -22t-32 -57q0 -21 19 -39.5t50 -18.5q21 0 48 7.5t48 19.5l45 -68q-20 -11 -47 -18.5t-47 -7.5q-37 0 -78.5 22.5t-69 59.5t-27.5 76q0 29 18 55t50.5 42t74.5 16q93 0 175.5 -65.5t187.5 -213.5l-36 -23q-86 115 -159 175z" />
    <glyph glyph-name="uni0943" unicode="&#x943;" 
d="M-78 -38q-64 0 -106.5 -24t-42.5 -60q0 -21 17 -37.5t49 -16.5q21 0 48 7.5t47 19.5l46 -67q-21 -12 -47 -19.5t-47 -7.5q-40 0 -79.5 20t-64.5 53.5t-25 69.5q0 30 23.5 58t63 45.5t85.5 17.5z" />
    <glyph glyph-name="uni0944" unicode="&#x944;" horiz-adv-x="11" 
d="M-89 -37q-64 -1 -106.5 -25.5t-42.5 -60.5q0 -20 17 -36.5t49 -16.5q21 0 48 7.5t48 19.5l45 -67q-20 -12 -47 -19.5t-50 -7.5q-38 -26 -38 -61q0 -20 17 -37t49 -17q20 0 47 7.5t48 18.5l45 -67q-21 -11 -48 -19t-46 -8q-39 0 -78.5 20t-64.5 52.5t-25 67.5q0 33 21 63
q-40 19 -66 52t-26 71q0 30 23 58t62.5 45.5t85.5 18.5z" />
    <glyph glyph-name="uni0945" unicode="&#x945;" 
d="M-22 773.5q-47 -27.5 -114 -27.5q-73 0 -129.5 45t-93.5 106l29 15q75 -104 159 -105q60 0 106 29t73 68l56 -54q-39 -49 -86 -76.5z" />
    <glyph glyph-name="uni0946" unicode="&#x946;" 
d="M-600 972q-16 -43 -16 -67q0 -28 24 -42.5t63 -14.5q33 0 119 7q24 1 66 4t56 3q39 0 72.5 -17t56.5 -45q21 -25 34 -52.5t13 -52.5q0 -22 -9 -56l-51 1q10 18 10 37q0 46 -25.5 77.5t-85.5 31.5q-18 0 -80 -6q-10 -1 -44 -4t-58 -3q-56 0 -105 18t-78 45t-29 52
q0 30 9.5 58.5t10.5 32.5z" />
    <glyph glyph-name="uni0947" unicode="&#x947;" 
d="M-325.5 960q51.5 -55 106.5 -161q53 -100 78 -157h-54q-12 29 -27 59.5t-26 49.5q-43 77 -70.5 120t-42.5 51l-117 -36q-14 11 -24 30t-10 39q0 28 18.5 44t49.5 16q67 0 118.5 -55z" />
    <glyph glyph-name="uni0948" unicode="&#x948;" 
d="M-290 981q55 -63 105 -173q49 -114 69 -171h-35q-40 96 -53 120q-36 71 -70.5 126t-51.5 69l-128 -36h-2q-13 11 -23 29.5t-10 37.5q0 29 19 45t50 16q75 0 130 -63zM-307 802.5q65 -64.5 131 -168.5l-34 -1q-38 49 -74.5 92t-49.5 49l-139 -19h-1q-12 10 -20 25.5
t-8 30.5q0 25 17.5 40.5t46.5 15.5q66 0 131 -64.5z" />
    <glyph glyph-name="uni0949" unicode="&#x949;" horiz-adv-x="301" 
d="M0 0zM301 593v-13h-111v-612h-15l-64 36v576h-115l-27 51v14h304zM273 773.5q-47 -27.5 -114 -27.5q-73 0 -129.5 45t-93.5 106l29 15q75 -104 159 -105q60 0 106 29t73 68l56 -54q-39 -49 -86 -76.5z" />
    <glyph glyph-name="uni094A" unicode="&#x94a;" horiz-adv-x="301" 
d="M-303 972q-16 -43 -16 -67q0 -28 23.5 -42.5t63.5 -14.5q32 0 118 7q25 1 67 4t56 3q39 0 72.5 -17t57.5 -45q21 -26 33.5 -53.5t12.5 -51.5q0 -22 -8 -50h96l28 -52v-13h-111v-612h-15l-64 36l1 576h-116l-27 51v14h158q8 16 8 32q0 46 -26 77.5t-85 31.5q-19 0 -81 -6
q-79 -7 -101 -7q-56 0 -105 18t-78 45t-29 52q0 30 9.5 58.5t10.5 32.5z" />
    <glyph glyph-name="uni094B" unicode="&#x94b;" horiz-adv-x="301" 
d="M301 592v-13h-111v-612h-15l-64 36v576h-115l-27 51v14h154q-39 83 -53 106q-85 155 -113 171l-117 -36q-14 11 -24 30t-10 39q0 28 18.5 44t50.5 16q67 0 118 -55t106 -161q44 -82 76 -153h98z" />
    <glyph glyph-name="uni094C" unicode="&#x94c;" horiz-adv-x="300" 
d="M300 593v-13h-111v-612h-15l-64 36v576h-115l-27 51v14h113q-37 48 -70 85.5t-44 43.5l-139 -19h-2q-12 10 -19.5 25.5t-7.5 30.5q0 25 17.5 40.5t45.5 15.5q65 0 128.5 -61t127.5 -161h29q-28 70 -49 112q-36 72 -70 126.5t-51 68.5l-128 -36h-2q-14 10 -23.5 29
t-9.5 38q0 29 18.5 45t50.5 16q75 0 128 -62t106 -175q15 -32 34 -78.5t32 -83.5h90z" />
    <glyph glyph-name="uni094D" unicode="&#x94d;" 
d="M-79.5 -213.5q-50.5 30.5 -109.5 49.5l-130 -40q-14 11 -23 29t-9 36q0 28 18 44t50 16q34 0 91 -25t124 -71t130 -106l-25 -23q-66 60 -116.5 90.5z" />
    <glyph glyph-name="uni0950" unicode="&#x950;" horiz-adv-x="1136" 
d="M742 744l-73 -74l-73 74l73 74zM657 589q61 0 107.5 29t72.5 68l56 -54q-40 -49 -85.5 -76.5t-111.5 -27.5q-75 0 -132.5 45t-94.5 106l30 15q74 -105 158 -105zM331 632.5q45 -29.5 75 -75.5t30 -93q0 -35 -17 -67.5t-45 -53.5q16 -15 38 -39q17 -20 16 -19
q49 -55 85 -84.5t78 -29.5q37 0 66.5 34.5t70.5 105.5q33 55 56 87.5t53.5 55.5t66.5 23q27 0 57.5 -15.5t54.5 -39.5q26 -28 40 -65t14 -75q0 -46 -20 -80t-53.5 -52.5t-73.5 -18.5q-44 0 -86.5 31t-71.5 75q-40 -67 -71.5 -101.5t-65.5 -34.5q-48 0 -81.5 23t-69.5 62
l-18 19l-2 -1q3 -17 2 -30q0 -66 -43 -107t-112 -41q-104 0 -174 69.5t-124 166.5l33 21q43 -74 105.5 -130t126.5 -56q52 0 85.5 32t33.5 78q0 31 -15.5 62.5t-41.5 52.5q-51 -16 -121 -23l-31 57l9 21q89 7 131 31q26 16 41 38t15 55q-1 35 -32.5 62.5t-69.5 27.5
q-67 0 -143 -65l-40 76q28 20 78 40t76 20q40 0 85 -29.5zM827 333q-18 -24 -39 -58q16 -35 41.5 -57t53.5 -22q33 0 61.5 16.5t46 43t17.5 54.5q0 46 -20 74t-53 28q-52 0 -108 -79z" />
    <glyph glyph-name="uni0951" unicode="&#x951;" 
d="M-121 1002v-263h-65v263h65z" />
    <glyph glyph-name="uni0952" unicode="&#x952;" 
d="M-385 -195h462v-54h-462v54z" />
    <glyph glyph-name="uni0953" unicode="&#x953;" 
d="M-382 976l71 23l161 -229v-7l-49 -24l-183 230v7z" />
    <glyph glyph-name="uni0954" unicode="&#x954;" 
d="M39 976v-7l-183 -230l-48 24v7l161 229z" />
    <glyph glyph-name="uni0956" unicode="&#x956;" 
d="M-45 -61l36 -30q-31 -53 -89.5 -88t-126.5 -35t-126.5 35t-89.5 88l36 30q68 -89 180 -89t180 89z" />
    <glyph glyph-name="uni0957" unicode="&#x957;" 
d="M-45 -61l36 -30q-31 -53 -89.5 -88t-126.5 -35t-126.5 35t-89.5 88l36 30q68 -89 180 -89t180 89zM-45 -227l36 -30q-31 -53 -89.5 -88t-126.5 -35t-126.5 35t-89.5 88l36 30q68 -89 180 -89t180 89z" />
    <glyph glyph-name="uni0958" unicode="&#x958;" horiz-adv-x="841" 
d="M0 0zM481 579v-224q81 73 146 73q77 0 120 -52t43 -139q0 -42 -22 -103t-47 -99l-61 63q28 32 54.5 78t26.5 87q0 42 -26.5 70.5t-64.5 28.5q-40 0 -81.5 -25t-87.5 -70v-300h-15l-65 37l4 192l-2 1q-48 -40 -85.5 -60t-88.5 -20q-48 0 -87.5 20.5t-63 60.5t-23.5 95
q0 43 19.5 80.5t55 60.5t81.5 23q110 0 190 -118v241h-405l-27 51v14h844l28 -52v-13zM200 184q56 0 108 27.5t95 70.5v1q-27 39 -72 67.5t-91 28.5q-33 0 -64.5 -13t-52 -38t-20.5 -59q0 -38 29.5 -61t67.5 -23v-1zM298 0l-73 -75l-74 74l73 74z" />
    <glyph glyph-name="uni0959" unicode="&#x959;" horiz-adv-x="837" 
d="M0 0zM844 593v-13h-116v-612h-15l-64 37l2 68q-46 -28 -108.5 -49t-116.5 -21q-124 0 -293 185q-41 45 -57 71.5t-16 52.5q0 20 15 39t32 28l53 -42q12 19 19.5 49t7.5 61q0 28 -3 66t-9 67h-179l-27 51v14h847zM543.5 91q63.5 25 108.5 64v96h-1q-4 -4 -34.5 -28
t-62 -37.5t-59.5 -13.5q-46 0 -84 21t-60.5 57.5t-22.5 79.5q0 47 21 83.5t57 56t80 19.5q85 0 161 -83h3v174h-407q8 -40 12.5 -89t4.5 -84q0 -64 -24.5 -106.5t-67.5 -81.5q47 -55 115 -104t143 -49q54 0 117.5 25zM587 399.5q-38 19.5 -76 19.5q-37 0 -68.5 -15.5
t-49.5 -41.5t-18 -56q0 -28 25.5 -48t66.5 -20q45 0 96 31t86 76q-24 35 -62 54.5zM201 1l-73 -75l-74 74l73 74z" />
    <glyph glyph-name="uni095A" unicode="&#x95a;" horiz-adv-x="611" 
d="M0 0zM611 593v-13h-111v-612h-15l-64 36v576h-208q12 -156 12 -289q0 -39 -15.5 -70.5t-59.5 -31.5q-35 0 -59 19t-35.5 46t-11.5 50q0 19 5 36l97 -13l7 253h-157l-27 51v14h614zM229 56l-73 -75l-74 74l73 74z" />
    <glyph glyph-name="uni095B" unicode="&#x95b;" horiz-adv-x="730" 
d="M0 0zM729 578h-112v-612h-14l-64 36v367h-212q46 -39 74 -83.5t28 -82.5q0 -54 -33.5 -90t-82.5 -36q-75 0 -131.5 54t-90.5 121t-70 158l39 17q48 -109 105.5 -192.5t128.5 -83.5q30 0 48 21.5t18 51.5q0 47 -48 96.5t-104 81.5l14 33h3l-1 1h316v144h-544l-27 51v14
h734l27 -52zM175 8l-73 -75l-74 74l73 74z" />
    <glyph glyph-name="uni095C" unicode="&#x95c;" horiz-adv-x="585" 
d="M0 0zM585 593v-13h-113v-181h-238q-75 0 -75 -77q0 -22 16 -42t33 -20q40 0 109 21q37 10 60 15t46 5q27 0 53.5 -25.5t43.5 -63.5t17 -73q0 -68 -43 -111.5t-120 -43.5q-86 0 -169 44t-174 146l32 30q76 -83 144 -117.5t133 -34.5q57 0 101 27.5t44 79.5q0 24 -11 45
t-24 27q-29 0 -52.5 -5.5t-57.5 -15.5q-27 -9 -47.5 -14t-44.5 -5q-27 0 -63 24.5t-61 61t-25 72.5q0 55 30 87t76 32h189v112h-398l-27 51v14h589zM437 -144l-73 -75l-74 74l73 74z" />
    <glyph glyph-name="uni095D" unicode="&#x95d;" horiz-adv-x="558" 
d="M0 0zM145.5 352.5q-44.5 -35.5 -44.5 -100.5q0 -49 26 -88.5t63.5 -64.5t74.5 -35q-34 52 -34 101q0 63 37 93.5t87 30.5q39 0 72.5 -20.5t53 -55.5t19.5 -79q0 -45 -26.5 -77.5t-66.5 -49.5t-78 -17q-60 0 -125 34.5t-109 100t-44 153.5q0 93 53.5 137.5t142.5 44.5h99
v120h-350l-27 51v14h561l28 -52v-13h-135v-192h-156q-77 0 -121.5 -35.5zM382 231q-21 0 -44.5 -12t-39 -35.5t-15.5 -55.5q0 -34 20 -70q63 2 108 29t45 67q0 34 -23 55.5t-50 21.5h-1zM398 -135l-73 -75l-74 74l73 74z" />
    <glyph glyph-name="uni095E" unicode="&#x95e;" horiz-adv-x="824" 
d="M0 0zM462 581v-208q82 75 146 75q77 0 120 -52.5t43 -139.5q0 -41 -22 -102t-47 -99l-62 62q28 31 54.5 78t26.5 87q0 42 -26.5 70.5t-63.5 28.5q-43 0 -81.5 -26.5t-86.5 -73.5v-313h-14l-66 37l3 210h-3q-29 -18 -57.5 -28t-62.5 -10q-31 0 -61 16.5t-62 47.5
q-26 25 -38.5 49.5t-12.5 55.5v234h-93l-27 51v14h827l28 -52v-13zM384 303v278h-218v-246q0 -85 83 -85q66 0 135 53zM197 78l-73 -75l-74 74l73 74z" />
    <glyph glyph-name="uni095F" unicode="&#x95f;" horiz-adv-x="623" 
d="M0 0zM623 580h-111v-612h-15l-64 37l3 165l-4 2q-79 -56 -153 -56q-79 0 -136.5 56t-89.5 155q59 18 102 53t43 79q0 29 -19.5 56.5t-57.5 64.5h-125l-27 51v14h627l27 -52v-13zM348.5 211.5q52.5 25.5 85.5 59.5v309h-246v-2q37 -39 61.5 -74t24.5 -69
q0 -50 -46.5 -91.5t-96.5 -62.5q2 -39 35 -67t78 -28q52 0 104.5 25.5zM147 62l-73 -75l-74 74l73 74z" />
    <glyph glyph-name="uni0960" unicode="&#x960;" horiz-adv-x="855" 
d="M856 593v-13h-383v-247q81 -5 133 33l-33 75q6 7 23 14t32 7q31 0 52 -18.5t21 -48.5q0 -33 -24 -57l77 -172q-55 -28 -80.5 -52.5t-25.5 -52.5q2 -46 59 -46q22 0 49 7t46 19l45 -65q-21 -11 -48 -18.5t-49 -8.5q-17 -13 -25.5 -30.5t-7.5 -35.5q0 -20 16.5 -37
t48.5 -17q21 0 48 7.5t48 20.5l44 -66q-21 -11 -48 -18.5t-47 -7.5q-40 0 -78 19.5t-62.5 51.5t-24.5 67q0 39 16 65q-40 18 -64 49.5t-24 69.5q0 31 23 61.5t67 57.5l-45 100q-29 -17 -64 -26t-69 -9q-11 0 -29 2v-305h-15l-64 37l2 225l-1 3l-261 -198l-54 59l314 216
q-47 43 -91 59.5t-90 16.5q-32 0 -64.5 -9.5t-71.5 -24.5l-42 75q26 10 72 22t76 12q50 -1 102 -26t110 -70v215h-399l-27 51v14h859z" />
    <glyph glyph-name="uni0961" unicode="&#x961;" horiz-adv-x="739" 
d="M739 593v-13h-191v-155q52 -17 92.5 -58t39.5 -91q0 -46 -25.5 -83.5t-73.5 -88.5q-37 -39 -53 -60.5t-16 -43.5q0 -24 17.5 -39t46.5 -15q32 0 62 21t61 56l54 -53q-44 -40 -87 -59q-30 -28 -30 -54q0 -25 17.5 -40t47.5 -15q32 0 61 21t61 57l54 -54q-42 -37 -77.5 -55
t-74.5 -18q-31 0 -67 13t-61.5 38t-25.5 59q0 17 10 36q-31 6 -64 24.5t-55 47t-22 60.5q0 24 17 47t52 58q48 48 73.5 85.5t25.5 85.5q0 24 -13.5 41.5t-32.5 26t-33 8.5q-64 0 -102.5 -68t-56.5 -152l-77 37q16 68 47 120q-25 26 -58 43t-60 17q-45 0 -73.5 -31t-28.5 -82
q0 -76 29.5 -137.5t75.5 -125.5l-34 -20q-142 182 -142 316q0 42 18.5 76.5t50.5 54t71 19.5q46 0 92 -26.5t83 -67.5q47 61 106 74v150h-474l-27 51v14h743z" />
    <glyph glyph-name="uni0962" unicode="&#x962;" 
d="M-122 -101q26 -13 45.5 -34t19.5 -42q0 -20 -10.5 -37t-30.5 -40q-16 -19 -23 -30t-7 -22t8.5 -18t21.5 -7q20 0 41 14t33 33l37 -47q-47 -36 -98 -36q-35 0 -67.5 19.5t-32.5 57.5q0 11 7 21.5t21 26.5q21 24 31.5 42t10.5 41q0 16 -12 26t-24 10q-35 0 -54 -35t-32 -83
l-59 17q11 42 25 69q-13 12 -28.5 20t-28.5 8q-23 0 -40 -15t-17 -38q0 -37 19 -72.5t52 -74.5l-23 -19q-45 36 -77 82.5t-32 86.5q0 31 17 53.5t40.5 33.5t43.5 11q40 0 92 -46q30 35 76 39v109h55v-124z" />
    <glyph glyph-name="uni0963" unicode="&#x963;" 
d="M-122 -101q26 -13 45.5 -34t19.5 -42q0 -20 -10.5 -37t-30.5 -40q-16 -19 -23 -30t-7 -22t8.5 -18t21.5 -7q20 0 40 13.5t33 33.5l38 -47q-21 -17 -45 -24q-17 -16 -17 -34q0 -11 12.5 -18t26.5 -7q19 0 40.5 14t33.5 31l46 -43q-23 -18 -51 -29t-56 -11q-20 0 -45.5 8.5
t-43.5 24.5t-18 38q0 7 5 17q-34 4 -60.5 22t-26.5 52q0 11 7 21.5t21 26.5q21 24 31.5 42t10.5 41q0 16 -11.5 26t-23.5 10q-36 0 -54.5 -34.5t-31.5 -83.5l-59 17q11 42 25 69q-13 12 -28.5 20t-29.5 8q-23 0 -39.5 -15t-16.5 -38q0 -37 19 -72t51 -75l-23 -19
q-44 37 -76 83t-32 86q0 31 17 53.5t40.5 33.5t42.5 11q41 0 93 -46q32 35 76 39v109h55v-124z" />
    <glyph glyph-name="uni0964" unicode="&#x964;" horiz-adv-x="501" 
d="M345 631v-663h-14l-64 36v662h15z" />
    <glyph glyph-name="uni0965" unicode="&#x965;" horiz-adv-x="765" 
d="M345 631v-663h-14l-64 36v662h15zM609 631v-663h-15l-63 36v662h15z" />
    <glyph glyph-name="uni0966" unicode="&#x966;" horiz-adv-x="631" 
d="M140 383q33 52 83.5 85t99.5 33q53 0 99.5 -28t74.5 -78t28 -112q0 -59 -34 -112.5t-85 -86t-98 -32.5q-57 0 -103 30t-72 81t-26 113q0 55 33 107zM207 209q25 -44 60.5 -67t65.5 -23q29 0 56 16t43 43.5t16 61.5q0 51 -21.5 96t-56.5 71.5t-72 26.5q-30 0 -57 -15.5
t-43 -43.5t-16 -62q0 -60 25 -104z" />
    <glyph glyph-name="uni0967" unicode="&#x967;" horiz-adv-x="631" 
d="M384 650q43 -24 71 -64t28 -87q0 -52 -38.5 -112t-92.5 -122l-74 -84l139 -145l17 -19q43 -48 61.5 -73.5t18.5 -48.5q0 -30 -20 -47.5t-48 -17.5q-26 0 -45.5 16.5t-29.5 39.5v2l58 49q-36 50 -86 100.5t-135 130.5l-28 26v1q18 20 36.5 40t38.5 41l57 63
q-55 33 -87.5 56.5t-56 56.5t-23.5 73q0 42 21 76t56.5 53.5t77.5 19.5q41 0 84 -24zM253.5 585q-28.5 -34 -28.5 -80q0 -33 36.5 -70t81.5 -56q29 40 46 78.5t17 68.5q0 38 -24 65.5t-59 27.5q-41 0 -69.5 -34z" />
    <glyph glyph-name="uni0968" unicode="&#x968;" horiz-adv-x="631" 
d="M412 631.5q49 -37.5 79.5 -94.5t30.5 -110q0 -58 -32.5 -113t-87 -92t-116.5 -43l186 -283l-73 -45l-164 329q-51 5 -89 24t-38 46q0 31 22.5 51.5t45.5 20.5q10 0 16 -2l50 -77q90 21 149 79.5t59 140.5q0 54 -27.5 91.5t-78.5 37.5q-40 0 -93 -20t-99 -47l-57 84
q69 30 118.5 45t96.5 15q53 0 102 -37.5z" />
    <glyph glyph-name="uni0969" unicode="&#x969;" horiz-adv-x="631" 
d="M572 226q0 -45 -38 -92.5t-100 -79t-129 -31.5l45 -38l51 -111l-67 47l-44 103q-46 4 -87.5 21.5t-41.5 46.5q0 30 22.5 50.5t46.5 20.5q9 0 15 -2l51 -77q84 20 143.5 70t59.5 108q0 39 -29.5 61.5t-72.5 22.5q-16 0 -23 -1q-41 -20 -89 -30.5t-87 -10.5q-19 0 -33 18.5
t-14 46.5q0 10 26 20.5t71 18.5t101 10q27 16 41.5 37t14.5 51q0 38 -26 61.5t-70 23.5q-55 0 -170 -31l-26 -6l-45 87q111 23 206 23q46 0 93.5 -32.5t78.5 -78.5t31 -82q0 -47 -39 -84q70 -41 101.5 -82.5t31.5 -78.5h1z" />
    <glyph glyph-name="uni096A" unicode="&#x96a;" horiz-adv-x="631" 
d="M366 372q80 -76 116.5 -125.5t36.5 -88.5q0 -41 -28.5 -71.5t-72.5 -46.5t-89 -16q-42 0 -84.5 19.5t-70.5 55.5t-28 82q0 45 29 90.5t102 119.5q-42 38 -87.5 72t-110.5 80l-65 47l43 52l63 -54q139 -118 190 -164l86 84q100 98 174 172l36 -85l-96 -88
q-94 -85 -144 -134v-1zM297 82q32 0 61.5 17t47.5 44.5t18 59.5q0 42 -80 122l-13 13q-67 -70 -91 -108.5t-24 -75.5q0 -31 24 -52t58 -21z" />
    <glyph glyph-name="uni096B" unicode="&#x96b;" horiz-adv-x="631" 
d="M588 -153l-149 313q-27 -21 -58.5 -33.5t-60.5 -12.5q-45 0 -93 22t-79.5 61.5t-31.5 90.5q0 66 30.5 169.5t72.5 196.5l76 -60q-111 -228 -111 -332q0 -34 25 -62.5t58 -28.5q26 0 63.5 18.5t73.5 47.5l-44 90q26 19 59 19q38 0 65.5 -20t27.5 -52q0 -39 -41 -83
l175 -314z" />
    <glyph glyph-name="uni096C" unicode="&#x96c;" horiz-adv-x="631" 
d="M311 664l44 -81q-28 5 -51 5q-93 0 -140.5 -24t-47.5 -92q0 -33 25 -62.5t55 -42.5q43 26 96.5 41t95.5 15q19 0 33 -18.5t14 -46.5q0 -9 -26.5 -20t-69 -19.5t-88.5 -9.5q-30 -19 -47.5 -43t-17.5 -58q0 -28 18.5 -55.5t48 -45t60.5 -17.5q53 0 124 27l-34 64
q29 20 64 20q30 0 51.5 -15t21.5 -42q0 -38 -38 -73l124 -185l-53 -27l-101 191q-26 -15 -58.5 -24t-66.5 -9q-47 0 -102 38.5t-93 92.5t-38 96q0 52 46 95q-49 32 -82.5 79t-33.5 90q0 73 57 115t167 42q32 0 43 -1z" />
    <glyph glyph-name="uni096D" unicode="&#x96d;" horiz-adv-x="631" 
d="M145.5 329q46.5 -129 105 -185t119.5 -56q90 0 131.5 59.5t45.5 156.5q-24 -17 -45.5 -25t-46.5 -8q-37 0 -72 14.5t-61 39.5q-36 34 -53 73.5t-17 93.5q0 37 20.5 70t52.5 53.5t65 20.5q46 0 78 -17t59 -56q36 -45 55 -120t19 -148q0 -89 -31.5 -152.5t-81 -96
t-102.5 -32.5q-93 0 -166.5 75.5t-121 218.5t-64.5 342l44 14q21 -206 67.5 -335zM352 532q-32 -36 -32 -83q0 -49 25.5 -79t79.5 -30q27 0 59.5 14t57.5 39q-11 77 -41.5 126t-68.5 49q-48 0 -80 -36z" />
    <glyph glyph-name="uni096E" unicode="&#x96e;" horiz-adv-x="631" 
d="M496 639l-215 -243q-80 -91 -107 -145t-27 -102q0 -24 15.5 -52.5t45 -48.5t70.5 -20q53 0 108.5 39.5t126.5 110.5l62 -59q-75 -79 -136.5 -109t-135.5 -30q-58 0 -111 29t-85.5 75.5t-32.5 96.5q0 42 22 92.5t82 118.5l292 332z" />
    <glyph glyph-name="uni096F" unicode="&#x96f;" horiz-adv-x="631" 
d="M304.5 663.5q45.5 -27.5 76.5 -72.5t31 -93q0 -43 -26 -79t-68.5 -60t-89.5 -31q138 -125 280 -266q97 -93 98 -142q0 -30 -20 -47t-49 -17q-26 0 -45.5 16.5t-29.5 39.5v2l59 49q-44 61 -143 156t-229 211q-62 56 -83.5 95.5t-21.5 96.5q0 44 22 83t61.5 62.5t91.5 23.5
q40 0 85.5 -27.5zM180.5 600.5q-32.5 -19.5 -50 -49.5t-17.5 -61q0 -56 43 -106q49 6 90 29t65 53.5t24 58.5q0 40 -22 67.5t-57 27.5q-43 0 -75.5 -19.5z" />
    <glyph glyph-name="uni0970" unicode="&#x970;" horiz-adv-x="447" 
d="M95.5 354.5q26.5 37.5 64.5 59.5t68 22q38 0 72.5 -18.5t56 -53.5t21.5 -83q0 -46 -27 -83.5t-65 -59t-67 -21.5q-39 0 -73.5 20t-55.5 56t-21 82q0 42 26.5 79.5zM153 236q17 -28 40.5 -43t42.5 -15q28 0 52.5 21t24.5 55q0 31 -15.5 59t-38.5 45.5t-45 17.5
q-29 0 -53.5 -21t-24.5 -54q0 -37 17 -65z" />
    <glyph glyph-name="uni0971" unicode="&#x971;" horiz-adv-x="301" 
d="M215 610l-73 -74l-74 73l73 75z" />
    <glyph glyph-name="uni0972" unicode="&#x972;" horiz-adv-x="809" 
d="M6 0zM809 582h-111v-612h-15l-63 36v253h-2q-34 -18 -69 -18q-59 0 -118 44l-3 -2q32 -48 32 -106q0 -66 -43 -107.5t-113 -41.5q-104 0 -174 69.5t-124 166.5l33 21q43 -74 105.5 -130t126.5 -56q52 0 85.5 32t33.5 78q0 32 -15 62.5t-41 52.5q-53 -17 -121 -24l-31 57
l9 21q89 7 131 31q26 16 41 38t15 55q-1 35 -32.5 62.5t-69.5 27.5q-67 0 -143 -65l-40 76q28 20 78 40t76 20q41 0 85.5 -29.5t74.5 -75.5t30 -93q0 -33 -15.5 -64.5t-45.5 -56.5q29 -15 66 -25.5t70 -10.5q32 0 58 9.5t50 27.5v235h-141l-27 51v14h329l28 -52v-11z
M790 773.5q-47 -27.5 -114 -27.5q-73 0 -129.5 45t-93.5 106l29 15q75 -104 159 -105q60 0 106 29t73 68l56 -54q-39 -49 -86 -76.5z" />
    <glyph glyph-name="uni0973" unicode="&#x973;" horiz-adv-x="809" 
d="M6 0zM809 582h-111v-612h-15l-63 36v253h-2q-34 -18 -69 -18q-59 0 -118 44l-3 -2q32 -48 32 -106q0 -66 -43 -107.5t-113 -41.5q-104 0 -174 69.5t-124 166.5l33 21q43 -74 105.5 -130t126.5 -56q52 0 85.5 32t33.5 78q0 32 -15 62.5t-41 52.5q-53 -17 -121 -24l-31 57
l9 21q89 7 131 31q26 16 41 38t15 55q-1 35 -32.5 62.5t-69.5 27.5q-67 0 -143 -65l-40 76q28 20 78 40t76 20q41 0 85.5 -29.5t74.5 -75.5t30 -93q0 -33 -15.5 -64.5t-45.5 -56.5q29 -15 66 -25.5t70 -10.5q32 0 58 9.5t50 27.5v235h-141l-27 51v14h329l28 -52v-11z
M697 908v-278h-78v278h78z" />
    <glyph glyph-name="uni0974" unicode="&#x974;" horiz-adv-x="1109" 
d="M6 0zM1109 582h-111v-612h-15l-64 36v576h-221v-612h-15l-63 36v253h-2q-34 -18 -69 -18q-59 0 -118 44l-3 -2q32 -48 32 -106q0 -66 -43 -107.5t-113 -41.5q-104 0 -174 69.5t-124 166.5l33 21q43 -74 105.5 -130t126.5 -56q52 0 85.5 32t33.5 78q0 32 -15 62.5
t-41 52.5q-53 -17 -121 -24l-31 57l9 21q89 7 131 31q26 16 41 38t15 55q-1 35 -32.5 62.5t-69.5 27.5q-67 0 -143 -65l-40 76q28 20 78 40t76 20q41 0 85.5 -29.5t74.5 -75.5t30 -93q0 -33 -15.5 -64.5t-45.5 -56.5q29 -15 66 -25.5t70 -10.5q32 0 58 9.5t50 27.5v235h-141
l-27 51v14h629l28 -52v-11zM998 908v-278h-78v278h78z" />
    <glyph glyph-name="uni0976" unicode="&#x976;" horiz-adv-x="809" 
d="M6 0zM809 582h-111v-612h-15l-63 36v253h-2q-34 -18 -69 -18q-59 0 -118 44l-3 -2q32 -48 32 -106q0 -66 -43 -107.5t-113 -41.5q-104 0 -174 69.5t-124 166.5l33 21q43 -74 105.5 -130t126.5 -56q52 0 85.5 32t33.5 78q0 32 -15 62.5t-41 52.5q-53 -17 -121 -24l-31 57
l9 21q89 7 131 31q26 16 41 38t15 55q-1 35 -32.5 62.5t-69.5 27.5q-67 0 -143 -65l-40 76q28 20 78 40t76 20q41 0 85.5 -29.5t74.5 -75.5t30 -93q0 -33 -15.5 -64.5t-45.5 -56.5q29 -15 66 -25.5t70 -10.5q32 0 58 9.5t50 27.5v235h-141l-27 51v14h329l28 -52v-11z
M579 -61l36 -30q-31 -53 -89.5 -88t-126.5 -35t-126.5 35t-89.5 88l36 30q68 -89 180 -89t180 89z" />
    <glyph glyph-name="uni0977" unicode="&#x977;" horiz-adv-x="809" 
d="M6 0zM809 582h-111v-612h-15l-63 36v253h-2q-34 -18 -69 -18q-59 0 -118 44l-3 -2q32 -48 32 -106q0 -66 -43 -107.5t-113 -41.5q-104 0 -174 69.5t-124 166.5l33 21q43 -74 105.5 -130t126.5 -56q52 0 85.5 32t33.5 78q0 32 -15 62.5t-41 52.5q-53 -17 -121 -24l-31 57
l9 21q89 7 131 31q26 16 41 38t15 55q-1 35 -32.5 62.5t-69.5 27.5q-67 0 -143 -65l-40 76q28 20 78 40t76 20q41 0 85.5 -29.5t74.5 -75.5t30 -93q0 -33 -15.5 -64.5t-45.5 -56.5q29 -15 66 -25.5t70 -10.5q32 0 58 9.5t50 27.5v235h-141l-27 51v14h329l28 -52v-11z
M579 -61l36 -30q-31 -53 -89.5 -88t-126.5 -35t-126.5 35t-89.5 88l36 30q68 -89 180 -89t180 89zM579 -227l36 -30q-31 -53 -89.5 -88t-126.5 -35t-126.5 35t-89.5 88l36 30q68 -89 180 -89t180 89z" />
    <glyph glyph-name="uni0979" unicode="&#x979;" horiz-adv-x="730" 
d="M729 578h-112v-612h-14l-64 36v367h-212q46 -39 74 -83.5t28 -82.5q0 -54 -33.5 -90t-82.5 -36q-75 0 -131.5 54t-90.5 121t-70 158l39 17q48 -109 105.5 -192.5t128.5 -83.5q30 0 48 21.5t18 51.5q0 47 -48 96.5t-104 81.5l14 33h3l-1 1h316v144h-544l-27 51v14h734
l27 -52zM266 -33l-73 -75l-73 74l73 73zM401 39l73 -72l-73 -75l-73 74zM298 -68l73 -72l-73 -75l-73 74z" />
    <glyph glyph-name="uni097A" unicode="&#x97a;" horiz-adv-x="623" 
d="M623 593v-13h-111v-612h-15l-64 37l3 165l-4 2q-79 -56 -153 -56q-79 0 -136.5 56t-89.5 155q59 18 102 53t43 79q0 29 -19.5 56.5t-57.5 64.5h-125l-27 51v14h627zM189 578q27 -29 39 -44l206 -238v284h-246zM339.5 206.5q47.5 20.5 81.5 50.5l-147 170
q-4 -48 -49.5 -87t-92.5 -59q2 -39 35 -67t78 -28q47 0 94.5 20.5z" />
    <glyph glyph-name="uni097B" unicode="&#x97b;" horiz-adv-x="611" 
d="M611 593v-13h-111v-619h-445l-23 43v13h389v563h-207q15 -176 15 -288q0 -39 -16.5 -71t-61.5 -32q-35 0 -59.5 19t-36 46t-11.5 50q0 19 5 36l97 -13v253h-150l-27 51v14h614z" />
    <glyph glyph-name="uni097C" unicode="&#x97c;" horiz-adv-x="730" 
d="M730 593v-13h-112v-621h-563l-23 43v14h509v355h-212q45 -40 73.5 -83.5t28.5 -83.5q0 -54 -33.5 -90t-82.5 -36q-75 0 -131.5 54t-90.5 121t-70 158l38 17q50 -112 106.5 -194t128.5 -82q30 0 48 21.5t18 51.5q0 47 -48 96.5t-104 81.5l14 33h317v144h-545l-27 51v14
h734z" />
    <glyph glyph-name="uni097D" unicode="&#x97d;" horiz-adv-x="548" 
d="M345.5 626.5q49.5 -35.5 83 -91t33.5 -111.5q0 -47 -27.5 -83t-67.5 -57q-37 -19 -104 -33v-283h-14l-64 36l1 308l8 15q92 7 136 33q31 18 52 41.5t21 57.5q0 32 -19 62.5t-47.5 50t-54.5 19.5q-67 0 -143 -65l-40 76q28 20 78 40t75 20q44 0 93.5 -35.5z" />
    <glyph glyph-name="uni097E" unicode="&#x97e;" horiz-adv-x="585" 
d="M585 593v-13h-113v-181h-238q-75 0 -75 -77q0 -22 16 -42t33 -20q40 0 109 21q37 10 60 15t46 5q27 0 53.5 -25.5t43.5 -63.5t17 -73q0 -68 -43 -111.5t-120 -43.5q-86 0 -169 44t-174 146l32 30q76 -83 144 -117.5t133 -34.5q57 0 101 27.5t44 79.5q0 24 -11 45t-24 27
q-29 0 -52.5 -5.5t-57.5 -15.5q-27 -9 -47.5 -14t-44.5 -5q-27 0 -63 24.5t-61 61t-25 72.5q0 55 30 87t76 32h189v112h-398l-27 51v14h589zM553 -146v-15h-498l-23 43v13h498z" />
    <glyph glyph-name="uni097F" unicode="&#x97f;" horiz-adv-x="654" 
d="M654 593v-13h-112v-619h-487l-23 43v13h432l2 176l-3 2q-55 -46 -100.5 -71t-94.5 -25q-50 0 -96.5 21t-76 62t-29.5 97q0 61 27.5 106t70 68.5t85.5 23.5q69 0 125 -39t89 -84h2v226h-469l-27 51v14h658zM227 391l126 -191q33 17 62.5 41.5t49.5 49.5v2
q-26 39 -77.5 73.5t-97.5 34.5q-31 0 -63 -10zM134 324q-21 -33 -21 -67q0 -40 34.5 -66.5t86.5 -26.5q38 0 86 20l-128 193q-37 -20 -58 -53z" />
    <glyph glyph-name="uni2000" unicode="&#x2000;" horiz-adv-x="500" 
 />
    <glyph glyph-name="uni2001" unicode="&#x2001;" horiz-adv-x="1000" 
 />
    <glyph glyph-name="uni2002" unicode="&#x2002;" horiz-adv-x="500" 
 />
    <glyph glyph-name="uni2003" unicode="&#x2003;" horiz-adv-x="1000" 
 />
    <glyph glyph-name="uni2004" unicode="&#x2004;" horiz-adv-x="333" 
 />
    <glyph glyph-name="uni2005" unicode="&#x2005;" horiz-adv-x="250" 
 />
    <glyph glyph-name="uni2006" unicode="&#x2006;" horiz-adv-x="167" 
 />
    <glyph glyph-name="uni2007" unicode="&#x2007;" horiz-adv-x="629" 
 />
    <glyph glyph-name="uni2008" unicode="&#x2008;" horiz-adv-x="353" 
 />
    <glyph glyph-name="uni2009" unicode="&#x2009;" horiz-adv-x="200" 
 />
    <glyph glyph-name="uni200A" unicode="&#x200a;" horiz-adv-x="100" 
 />
    <glyph glyph-name="uni200C" unicode="&#x200c;" horiz-adv-x="11" 
 />
    <glyph glyph-name="uni200D" unicode="&#x200d;" horiz-adv-x="11" 
 />
    <glyph glyph-name="endash" unicode="&#x2013;" horiz-adv-x="679" 
d="M593 424v-66h-507v66h507z" />
    <glyph glyph-name="emdash" unicode="&#x2014;" horiz-adv-x="1172" 
d="M1086 424v-66h-1000v66h1000z" />
    <glyph glyph-name="quoteleft" unicode="&#x2018;" horiz-adv-x="379" 
d="M126 520q-27 47 -27 95q0 78 46 137.5t109 84.5l21 -26v-14q-36 -12 -64 -55t-28 -91q0 -39 21.5 -70t49.5 -35v-21l-50 -66q-51 14 -78 61z" />
    <glyph glyph-name="quoteright" unicode="&#x2019;" horiz-adv-x="379" 
d="M97 508q36 11 63.5 54t27.5 92q0 39 -21 70t-49 35v21l50 65q51 -12 78 -59t27 -96q1 -78 -45 -137.5t-109 -84.5l-22 27v13z" />
    <glyph glyph-name="quotesinglbase" unicode="&#x201a;" horiz-adv-x="376" 
d="M168 128q51 -14 78 -61t27 -95q1 -78 -45 -137t-109 -85l-22 27v12q36 12 63.5 55.5t27.5 91.5q0 39 -21 70.5t-49 34.5v21z" />
    <glyph glyph-name="quotedblleft" unicode="&#x201c;" horiz-adv-x="638" 
d="M126 519.5q-27 47.5 -27 95.5q0 78 46 137.5t109 84.5l22 -27v-13q-36 -12 -64 -55t-28 -91q0 -39 21 -70t49 -35v-21l-50 -66q-51 13 -78 60.5zM384.5 520q-26.5 48 -26.5 97q0 78 45.5 136.5t108.5 83.5l22 -27v-13q-36 -11 -63.5 -54t-27.5 -92q0 -39 21 -70t49 -35
v-21l-51 -66q-51 13 -77.5 61z" />
    <glyph glyph-name="quotedblright" unicode="&#x201d;" horiz-adv-x="649" 
d="M103 508q36 11 63.5 54t27.5 92q0 39 -21 70t-49 35v21l50 65q52 -12 78.5 -59t26.5 -96q1 -78 -45 -137.5t-109 -84.5l-22 27v13zM373 508q36 11 63.5 54t27.5 92q0 39 -21 70t-49 35v21l50 65q52 -12 78.5 -59t26.5 -96q1 -78 -45 -137.5t-109 -84.5l-22 27v13z" />
    <glyph glyph-name="quotedblbase" unicode="&#x201e;" horiz-adv-x="646" 
d="M179 129q51 -13 78 -60.5t27 -95.5q1 -78 -45 -137t-109 -85l-22 27v13q35 12 63 55t28 91q0 39 -21 70.5t-49 34.5v21zM449 129q52 -13 78.5 -60t26.5 -96q1 -77 -45.5 -136.5t-108.5 -85.5l-22 27v13q36 11 63.5 54.5t27.5 91.5q0 39 -21 70.5t-49 34.5v21z" />
    <glyph glyph-name="dagger" unicode="&#x2020;" horiz-adv-x="453" 
d="M188 557l-143 -3v68l150 -3l-10 102l-2 84h86l-2 -84l-10 -102l150 3v-68l-143 3l3 -69l-18 -350h-46l-18 350z" />
    <glyph glyph-name="daggerdbl" unicode="&#x2021;" horiz-adv-x="453" 
d="M267 721l-9 -102l149 3v-68l-142 3l2 -70l-9 -179l149 2v-67l-142 2l2 -75l-19 -349h-43l-19 349l2 75l-143 -2l1 67l149 -2l-9 179l2 70l-143 -3l1 68l149 -3l-9 102l-2 84h85z" />
    <glyph glyph-name="bullet" unicode="&#x2022;" horiz-adv-x="412" 
d="M138.5 285.5q-26.5 27.5 -26.5 66.5q0 42 29.5 72.5t69.5 30.5q37 0 63.5 -26t26.5 -65q0 -43 -29.5 -74.5t-69.5 -31.5q-37 0 -63.5 27.5z" />
    <glyph glyph-name="ellipsis" unicode="&#x2026;" horiz-adv-x="1037" 
d="M217.5 96q14.5 -16 14.5 -41q0 -29 -21 -47.5t-48 -18.5q-23 0 -40.5 15.5t-17.5 40.5q0 28 21.5 47.5t47.5 19.5q29 0 43.5 -16zM562.5 96q14.5 -16 14.5 -41q0 -29 -21 -47.5t-48 -18.5q-23 0 -40 15.5t-17 40.5q0 28 21 47.5t47 19.5q29 0 43.5 -16zM908.5 96
q14.5 -16 14.5 -41q0 -29 -21 -47.5t-48 -18.5q-23 0 -40.5 15.5t-17.5 40.5q0 28 21.5 47.5t47.5 19.5q29 0 43.5 -16z" />
    <glyph glyph-name="perthousand" unicode="&#x2030;" horiz-adv-x="1250" 
d="M331 -2h-72l272 786h73zM320.5 646.5q35.5 -50.5 35.5 -127.5q0 -57 -23 -98t-61 -62t-83 -21q-43 0 -76 24t-50.5 64.5t-17.5 87.5q0 58 23.5 99.5t62 62.5t84.5 21q70 0 105.5 -50.5zM140 614.5q-22 -35.5 -22 -96.5q0 -59 21.5 -96t59.5 -37q40 0 62 34.5t22 95.5
q0 62 -21 98.5t-60 36.5q-40 0 -62 -35.5zM786 389q35 -50 35 -128q0 -56 -22.5 -97t-60 -62.5t-81.5 -21.5t-77 24t-51 64.5t-18 87.5q0 58 23.5 99.5t62 62.5t84.5 21q70 0 105 -50zM1168 388.5q35 -50.5 35 -127.5q0 -56 -22.5 -97t-60 -62.5t-81.5 -21.5t-77 24
t-51 64.5t-18 87.5q0 58 23.5 99.5t62 62.5t84.5 21q70 0 105 -50.5zM606.5 356.5q-22.5 -35.5 -22.5 -96.5q0 -58 22 -95.5t60 -37.5q40 0 62 34.5t22 95.5q0 62 -21.5 98.5t-60.5 36.5t-61.5 -35.5zM988.5 356.5q-22.5 -35.5 -22.5 -96.5q0 -58 22 -95.5t60 -37.5
q40 0 62 34.5t22 95.5q0 62 -21.5 98.5t-59.5 36.5q-40 0 -62.5 -35.5z" />
    <glyph glyph-name="guilsinglleft" unicode="&#x2039;" horiz-adv-x="582" 
d="M437 526l24 -40l-257 -186l257 -179l-24 -42l-317 182v75z" />
    <glyph glyph-name="guilsinglright" unicode="&#x203a;" horiz-adv-x="582" 
d="M376 304l-255 179l24 43l317 -182v-76l-317 -189l-24 39z" />
    <glyph glyph-name="fraction" unicode="&#x2044;" horiz-adv-x="434" 
d="M426 902l-370 -1069l-60 14l371 1071z" />
    <glyph glyph-name="Euro" unicode="&#x20ac;" horiz-adv-x="682" 
d="M505 757q38 -7 87 -20l30 -8l-8 -137h-39l-24 81q-53 38 -160 38q-84 0 -137.5 -54t-73.5 -157h285v-58h-292q-3 -28 -3 -60t2 -48h279v-58h-275q30 -241 219 -241q58 0 95.5 11t69.5 36q4 12 6.5 23t4.5 20q2 10 10 42h41v-136q-12 -1 -29 -6t-24 -7q-43 -14 -87.5 -23
t-106.5 -9q-127 0 -201.5 77.5t-91.5 212.5h-100v58h96q-1 6 -1 20q0 39 7 88h-87v58h97q33 126 117.5 195t207.5 69q48 0 86 -7z" />
    <glyph glyph-name="uni20B9" unicode="&#x20b9;" horiz-adv-x="631" 
d="M550 582h-192q39 -39 49 -85h171v-15l-28 -51h-143q-20 -109 -179 -163l251 -254l-65 -49l-213 242q-22 25 -32.5 47.5t-12.5 38.5l5 4q24 5 60 22.5t67.5 45.5t39.5 64h-196v14l27 52h163q-17 42 -65 85h-124v14l27 51h419v-14z" />
    <glyph glyph-name="trademark" unicode="&#x2122;" horiz-adv-x="1078" 
d="M216 422v293l-83 -5l-20 -66h-30l9 114h331v-113l-28 -3l-13 68l-86 6v-294l65 -8v-35h-206v35zM522 422l16 293l-52 5v38h165l81 -220l20 -69l94 289h144v-38l-48 -5l29 -293l47 -8v-35h-166v35l45 8l-14 187l-5 107l-11 -38l-103 -303h-49l-105 270l-27 73l-2 -79
l-10 -217l48 -8v-35h-150v35z" />
    <glyph glyph-name="partialdiff" unicode="&#x2202;" horiz-adv-x="608" 
d="M502 732.5q67 -99.5 67 -262.5q0 -119 -30 -228.5t-100.5 -181.5t-186.5 -72q-63 0 -113.5 27t-79 75t-28.5 110q0 85 46.5 153t123 106t163.5 38q67 0 122 -21q-6 138 -59 219t-179 81q-88 0 -153 -43l-28 38q41 28 99 44.5t116 16.5q153 0 220 -99.5zM225 417
q-49 -25 -79 -74t-30 -117q0 -50 22 -92t61.5 -66.5t87.5 -24.5q93 0 137.5 78.5t56.5 194.5q3 25 5 76q-68 50 -155 50q-57 0 -106 -25z" />
    <glyph glyph-name="uni2206" unicode="&#x2206;" horiz-adv-x="864" 
d="M423 735l360 -708l-1 -27h-690l-20 11l329 710zM400 598l-249 -542h518z" />
    <glyph glyph-name="product" unicode="&#x220f;" horiz-adv-x="696" 
d="M99 705l-81 9v44h651v-44l-81 -9v-738l84 -14v-39h-257v39l84 14v743h-311v-743l85 -14v-39h-257v39l83 14v738z" />
    <glyph glyph-name="summation" unicode="&#x2211;" horiz-adv-x="776" 
d="M102 720l3 38h524l16 -156h-48l-27 103l-370 6l267 -365l-271 -388l380 14l46 105l45 -11l-22 -154l-536 1l-7 16l272 403z" />
    <glyph glyph-name="minus" unicode="&#x2212;" horiz-adv-x="605" 
d="M519 424v-66h-433v66h433z" />
    <glyph glyph-name="radical" unicode="&#x221a;" horiz-adv-x="864" 
d="M173 346h78l165 -425h4l310 1017h74l-349 -1111h-81l-189 450l-63 -47l-35 53z" />
    <glyph glyph-name="infinity" unicode="&#x221e;" horiz-adv-x="869" 
d="M731 459q39 -24 58.5 -63t19.5 -85q0 -53 -26 -97t-69 -69.5t-93 -25.5q-58 0 -103.5 35t-96.5 97q-51 -66 -90.5 -99t-92.5 -33q-57 0 -98.5 24t-62.5 64t-21 85q0 53 26 96.5t69.5 69t92.5 25.5q58 0 104 -35t97 -96q51 63 94.5 97t96.5 34q56 0 95 -24zM161 393
q-24 -34 -24 -84q0 -35 15 -66.5t41 -50.5t59 -19q38 0 72 30t72 83q-3 4 -8 10t-11 15q-43 56 -75.5 86t-70.5 30q-46 0 -70 -34zM471 316q51 -68 90.5 -106.5t82.5 -38.5q45 0 65 34.5t20 88.5t-29 92.5t-77 38.5q-69 0 -152 -109z" />
    <glyph glyph-name="integral" unicode="&#x222b;" horiz-adv-x="521" 
d="M453 818.5q38 -14.5 54 -52.5l-59 -42q-5 21 -30 37.5t-53 16.5q-44 0 -68 -18t-32.5 -53t-8.5 -93q0 -65 9.5 -132.5t28.5 -166.5q19 -105 28 -168t9 -126q0 -67 -24.5 -123.5t-70.5 -90t-107 -33.5q-38 0 -75.5 14.5t-53.5 52.5l59 42q5 -21 30 -38t53 -17
q45 0 68.5 18t32 53.5t8.5 94.5q0 63 -9.5 128t-28.5 164q-19 101 -28.5 167.5t-9.5 131.5q0 67 25 123.5t71 90.5t107 34q37 0 75 -14.5z" />
    <glyph glyph-name="approxequal" unicode="&#x2248;" horiz-adv-x="626" 
d="M142 545q45 27 96 27q27 0 48.5 -12.5t45.5 -34.5q23 -19 38 -28t32 -9q31 0 56.5 15t49.5 38l33 -41q-23 -38 -68 -65t-96 -27q-27 0 -47.5 12t-46.5 35q-23 20 -37 29t-33 9q-31 0 -56.5 -15t-49.5 -38l-33 40q23 38 68 65zM148.5 352.5q45.5 26.5 96.5 26.5
q27 0 48 -12t46 -34q23 -19 38 -28t32 -9q31 0 56.5 14.5t49.5 37.5l33 -40q-23 -38 -68 -65.5t-96 -27.5q-27 0 -48.5 12.5t-45.5 34.5q-21 19 -36.5 28.5t-33.5 9.5q-32 0 -57.5 -15t-48.5 -38l-33 41q22 38 67.5 64.5z" />
    <glyph glyph-name="notequal" unicode="&#x2260;" horiz-adv-x="605" 
d="M86 257v67h160l36 127h-196v67h215l26 89h79l-26 -89h139v-67h-159l-35 -127h194v-67h-214l-25 -86h-79l25 86h-140z" />
    <glyph glyph-name="lessequal" unicode="&#x2264;" horiz-adv-x="645" 
d="M559 705v-78l-365 -150l365 -151v-78l-473 211v38zM559 153v-68h-473v68h473z" />
    <glyph glyph-name="greaterequal" unicode="&#x2265;" horiz-adv-x="645" 
d="M450 477l-364 150v78l473 -208v-38l-473 -211v78zM559 153v-68h-473v68h473z" />
    <glyph glyph-name="lozenge" unicode="&#x25ca;" horiz-adv-x="690" 
d="M92 362l209 329h85l205 -337v-25l-209 -329h-85l-205 337v25zM337 634l-168 -276l176 -300l169 274z" />
    <glyph glyph-name="uni25CC" unicode="&#x25cc;" horiz-adv-x="769" 
d="M357 603.5q12 12.5 29 12.5q16 0 28.5 -12.5t12.5 -28.5q0 -17 -12.5 -29t-28.5 -12q-17 0 -29 12t-12 29q0 16 12 28.5zM230 572q12 12 28 12q17 0 29 -12t12 -29q0 -16 -12 -28.5t-29 -12.5q-16 0 -28 12t-12 29t12 29zM481.5 572q12.5 12 28.5 12q17 0 29 -12t12 -29
t-12 -29t-29 -12q-16 0 -28.5 12.5t-12.5 28.5q0 17 12.5 29zM136 479q12 12 29 12t29 -12t12 -29t-12 -29t-29 -12t-29 12t-12 29t12 29zM576.5 479q12.5 12 28.5 12q17 0 29 -12t12 -29t-12 -29t-29 -12t-29 12t-12 29t12.5 29zM105 352q12 12 29 12t29 -12t12 -29
q0 -16 -12 -28.5t-29 -12.5t-29 12t-12 29t12 29zM608 352q12 12 28 12q17 0 29 -12t12 -29t-12 -29t-29 -12q-16 0 -28 12.5t-12 28.5q0 17 12 29zM136 225.5q12 11.5 29 11.5t29 -12t12 -28t-12 -28.5t-29 -12.5t-29 12t-12 29t12 28.5zM576 225q12 12 29 12t29 -11.5
t12 -28.5t-12 -29t-29 -12q-16 0 -28.5 12.5t-12.5 28.5t12 28zM230 130.5q12 11.5 28 11.5q17 0 29 -12t12 -28t-12 -28.5t-29 -12.5q-16 0 -28 12t-12 29t12 28.5zM481 130q12 12 29 12t29 -11.5t12 -28.5t-12 -29t-29 -12q-16 0 -28.5 12.5t-12.5 28.5t12 28zM357 100
q12 12 29 12q16 0 28.5 -12t12.5 -29q0 -16 -12.5 -28.5t-28.5 -12.5q-17 0 -29 12t-12 29t12 29z" />
    <glyph glyph-name="NULL" horiz-adv-x="11" 
 />
    <glyph glyph-name="uni093F0902" horiz-adv-x="301" 
d="M0 0zM276 918q-69 0 -112.5 -33t-43.5 -95q0 -37 15.5 -78t32.5 -68h105l28 -52v-13h-111v-612h-15l-64 36v576h-115l-27 51v14h147q-77 109 -77 188q0 45 25.5 80.5t72 55.5t106.5 20q102 0 220 -77t255 -198l-25 -32q-132 112 -232 174.5t-186 62.5h1zM832 813l-73 -74
l-73 74l73 74z" />
    <glyph glyph-name="uni093F0930094D" horiz-adv-x="301" 
d="M786 1025.5q44 -21.5 78 -57.5l-25 -36q-23 19 -57.5 33.5t-66.5 14.5q-41 0 -68 -25t-27 -72q0 -37 17 -70.5t48 -67.5q15 -17 33 -34l-24 -30q-132 112 -232 174.5t-186 62.5q-69 0 -112.5 -33t-43.5 -95q0 -38 16 -80t33 -65h104l28 -52v-13h-111v-612h-15l-64 36v576
h-115l-27 51v14h148q-78 111 -78 189q0 44 26.5 79t72.5 55t106 20q130 0 325 -151l2 3q-24 36 -25 75q0 41 22.5 71t58 45.5t72.5 15.5q43 0 87 -21.5z" />
    <glyph glyph-name="uni093F0930094D0902" horiz-adv-x="301" 
d="M784.5 1026q42.5 -21 77.5 -56l-24 -37q-24 19 -57.5 33t-65.5 14q-41 0 -68 -25.5t-27 -72.5q0 -37 17 -70.5t48 -66.5q15 -17 33 -34l-24 -30q-132 112 -232 174.5t-186 62.5q-69 0 -112.5 -33t-43.5 -95q0 -38 16 -80t33 -65h104l28 -52v-13h-111v-612h-15l-64 36v576
h-115l-27 51v14h148q-78 111 -78 189q0 44 26.5 79t72.5 55t106 20q131 0 324 -151l2 3q-23 38 -23 77q0 40 22 69.5t57.5 45t72.5 15.5q43 0 85.5 -21zM817 849l-68 -70l-68 69l67 69z" />
    <glyph glyph-name="uni09400902" horiz-adv-x="300" 
d="M0 0zM300 593v-13h-111v-612h-15l-64 36v576h-115l-27 51v14h151q-53 128 -107 214t-118 86q-41 0 -64.5 -30t-23.5 -68q0 -33 17 -67.5t38 -56.5v-2l-44 -22q-39 33 -67.5 80t-28.5 100q0 36 19 67t53 50t78 19q72 0 128 -57t91.5 -129.5t79.5 -183.5h103zM318 795
l-73 -74l-73 74l73 74z" />
    <glyph glyph-name="uni09400930094D" horiz-adv-x="301" 
d="M52 880q14 43 55.5 71.5t89.5 28.5q42 0 83 -19t73 -51l-26 -39q-22 16 -53 29t-61 13q-40 0 -66 -25t-26 -71q0 -37 11.5 -70.5t42.5 -101.5h97l28 -52v-13h-111v-612h-15l-64 36l1 576h-116l-26 51v14h141q-50 125 -103 212.5t-114 87.5q-39 0 -62.5 -30t-23.5 -68
q0 -33 17 -67.5t38 -56.5v-2l-44 -22q-39 33 -67.5 80t-28.5 100q0 36 19 67t53 50t78 19q97 0 180 -135z" />
    <glyph glyph-name="uni09400930094D0902" horiz-adv-x="300" 
d="M52 880q14 43 55.5 71.5t89.5 28.5q42 0 82 -18t72 -50l-25 -40q-21 16 -52 28.5t-61 12.5q-40 0 -66 -25t-26 -71q0 -37 11.5 -70.5t42.5 -101.5h97l28 -52v-13h-111v-612h-15l-64 36l1 576h-116l-26 51v14h141q-50 125 -103 212.5t-114 87.5q-39 0 -62.5 -30t-23.5 -68
q0 -33 17 -67.5t38 -56.5v-2l-44 -22q-39 33 -67.5 80t-28.5 100q0 36 19 67t53 50t78 19q97 0 180 -135zM316 776l-67 -69l-69 68l68 69z" />
    <glyph glyph-name="uni094B0902" horiz-adv-x="301" 
d="M0 0zM301 592v-13h-111v-612h-15l-64 36v576h-115l-27 51v14h154q-39 83 -53 106q-85 155 -113 171l-117 -36q-14 11 -24 30t-10 39q0 28 18.5 44t50.5 16q67 0 118 -55t106 -161q44 -82 76 -153h98zM310 795l-73 -74l-73 74l73 74z" />
    <glyph glyph-name="uni094B0930094D" horiz-adv-x="301" 
d="M142 888q-27 -25 -27 -71q0 -37 13.5 -71t47.5 -101h97l28 -52v-13h-111v-612h-15l-64 36v576h-115l-27 51v14h141q-35 77 -52 106q-36 66 -72 114t-53 57l-117 -36q-14 11 -24 30t-10 39q0 29 18.5 44.5t50.5 15.5q55 0 102 -39t92 -111q10 50 53 82.5t96 32.5
q42 0 82.5 -18.5t73.5 -51.5l-25 -39q-23 16 -54 29t-61 13q-41 0 -68 -25z" />
    <glyph glyph-name="uni094B0930094D0902" horiz-adv-x="301" 
d="M142 889q-27 -25 -27 -71q0 -38 13.5 -72t47.5 -101h97l28 -52v-13h-111v-612h-15l-64 36v576h-115l-27 51v14h141q-35 77 -52 106q-36 66 -72 114t-53 57l-117 -36q-14 11 -24 30t-10 39q0 29 18.5 44.5t50.5 15.5q55 0 102 -39t92 -111q10 50 53 82.5t96 32.5
q42 0 82 -18t72 -50l-25 -40q-22 16 -52.5 29t-60.5 13q-41 0 -68 -25zM312 776l-67 -69l-69 68l68 69z" />
    <glyph glyph-name="uni094C0902" horiz-adv-x="300" 
d="M0 0zM300 593v-13h-111v-612h-15l-64 36v576h-115l-27 51v14h113q-37 48 -70 85.5t-44 43.5l-139 -19h-2q-12 10 -19.5 25.5t-7.5 30.5q0 25 17.5 40.5t45.5 15.5q65 0 128.5 -61t127.5 -161h29q-28 70 -49 112q-36 72 -70 126.5t-51 68.5l-128 -36h-2q-14 10 -23.5 29
t-9.5 38q0 29 18.5 45t50.5 16q75 0 128 -62t106 -175q15 -32 34 -78.5t32 -83.5h90zM323 795l-73 -74l-73 74l73 74z" />
    <glyph glyph-name="uni094C0930094D" horiz-adv-x="301" 
d="M-27 1000.5q46 -44.5 94 -131.5q10 48 52.5 79.5t93.5 31.5q42 0 82.5 -19t72.5 -51l-25 -39q-22 16 -53.5 29t-61.5 13q-39 0 -65.5 -25t-26.5 -70q1 -39 14.5 -75.5t43.5 -97.5h79l28 -52v-13h-111v-612h-15l-64 36l1 576h-116l-26 51v14h105q-34 45 -68 84t-46 45
l-140 -19q-13 11 -21 26.5t-8 30.5q0 25 18 40t47 15q64 0 127 -61t127 -161h27q-23 50 -66 128q-88 157 -115 179l-127 -35q-13 11 -23 29.5t-10 37.5q0 29 19 45t51 16q60 0 106 -44.5z" />
    <glyph glyph-name="uni094C0930094D0902" horiz-adv-x="301" 
d="M-27 1000.5q46 -44.5 94 -130.5q10 48 52 79t94 31q42 0 82 -18t72 -50l-25 -40q-22 16 -53 29t-61 13q-39 0 -65.5 -25t-26.5 -71q1 -39 14.5 -75.5t43.5 -97.5h79l28 -52v-13h-111v-612h-15l-64 36l1 576h-116l-26 51v14h105q-34 45 -68 84t-46 45l-140 -19
q-13 11 -21 26.5t-8 30.5q0 25 18 40t47 15q64 0 127 -61t127 -161h27q-16 33 -34.5 69t-31.5 59q-88 157 -115 179l-127 -35q-13 11 -23 29.5t-10 37.5q0 29 19 45t51 16q60 0 106 -44.5zM333 776l-68 -69l-69 68l68 69z" />
    <glyph glyph-name="uni093F.0" horiz-adv-x="301" 
d="M356.5 897.5q81.5 -78.5 149.5 -189.5l-33 -20q-66 101 -128.5 159.5t-122.5 58.5q-46 0 -74 -28.5t-29 -77.5q0 -40 16 -84.5t33 -70.5h105l28 -52v-13h-111v-612h-15l-64 36v576h-115l-27 51v14h147q-77 112 -77 193q0 60 42.5 99t107.5 39q86 0 167.5 -78.5z" />
    <glyph glyph-name="uni093F0902.0" horiz-adv-x="301" 
d="M356.5 897.5q81.5 -78.5 149.5 -189.5l-33 -20q-66 101 -128.5 159.5t-122.5 58.5q-46 0 -74 -28.5t-29 -77.5q0 -40 16 -84.5t33 -70.5h105l28 -52v-13h-111v-612h-15l-64 36v576h-115l-27 51v14h147q-77 112 -77 193q0 60 42.5 99t107.5 39q86 0 167.5 -78.5zM638 816
l-73 -75l-74 74l74 74z" />
    <glyph glyph-name="uni093F0930094D.0" horiz-adv-x="301" 
d="M581.5 1030.5q40.5 -19.5 72.5 -51.5l-24 -38q-22 16 -53.5 29t-61.5 13q-39 0 -66.5 -24t-27.5 -66q0 -28 8 -51.5t24 -50.5l36 -57q6 -7 16 -23l-34 -19q-72 101 -131 157.5t-118 56.5q-46 0 -74 -28.5t-29 -77.5q0 -40 16 -84.5t33 -70.5h105l28 -52v-13h-111v-612
h-15l-64 36v576h-115l-27 51v14h147q-77 112 -77 193q0 60 42.5 99t107.5 39q80 0 165 -82l3 2q-4 12 -4 33q0 37 21.5 64.5t55 42t69.5 14.5q42 0 82.5 -19.5z" />
    <glyph glyph-name="uni093F0930094D0902.0" horiz-adv-x="301" 
d="M580.5 1030.5q40.5 -18.5 71.5 -49.5l-23 -39q-23 16 -53.5 28.5t-60.5 12.5q-39 0 -66.5 -24t-27.5 -66q0 -27 8 -51.5t24 -51.5l33 -50l19 -29l-34 -19q-72 101 -131 157.5t-118 56.5q-46 0 -74 -28.5t-29 -77.5q0 -40 16 -84.5t33 -70.5h105l28 -52v-13h-111v-612h-15
l-64 36v576h-115l-27 51v14h147q-77 112 -77 193q0 60 42.5 99t107.5 39q80 0 165 -82l3 2q-4 12 -4 32q0 37 21 64.5t54.5 42t70.5 14.5q41 0 81.5 -18.5zM628 848l-73 -74l-73 73l73 74z" />
    <glyph glyph-name="uni093F.05" horiz-adv-x="301" 
d="M572 907.5q155 -80.5 308 -194.5l-24 -32q-337 237 -529 237q-94 0 -145.5 -39t-52.5 -104q0 -39 12 -74t27 -56h105l28 -52v-13h-111v-612h-15l-64 36v576h-115l-27 51v14h147q-31 42 -49 82t-18 85q0 47 28 87t83.5 64.5t134.5 24.5q122 0 277 -80.5z" />
    <glyph glyph-name="uni093F.10" horiz-adv-x="301" 
d="M598.5 907.5q163.5 -80.5 320.5 -194.5l-25 -32q-152 104 -297.5 170.5t-263.5 66.5q-98 0 -150.5 -39t-53.5 -104q0 -39 12 -74t27 -56h105l28 -52v-13h-111v-612h-15l-64 36v576h-115l-27 51v14h147q-31 42 -49 82t-18 85q0 47 28.5 87t85.5 64.5t138 24.5
q134 0 297.5 -80.5z" />
    <glyph glyph-name="uni093F0902.05" horiz-adv-x="301" 
d="M572 907.5q155 -80.5 308 -194.5l-24 -32q-337 237 -529 237q-94 0 -145.5 -39t-52.5 -104q0 -39 12 -74t27 -56h105l28 -52v-13h-111v-612h-15l-64 36v576h-115l-27 51v14h147q-31 42 -49 82t-18 85q0 47 28 87t83.5 64.5t134.5 24.5q122 0 277 -80.5zM989 814l-72 -75
l-74 74l73 74z" />
    <glyph glyph-name="uni093F0902.10" horiz-adv-x="301" 
d="M598.5 907.5q163.5 -80.5 320.5 -194.5l-25 -32q-152 104 -297.5 170.5t-263.5 66.5q-98 0 -150.5 -39t-53.5 -104q0 -39 12 -74t27 -56h105l28 -52v-13h-111v-612h-15l-64 36v576h-115l-27 51v14h147q-31 42 -49 82t-18 85q0 47 28.5 87t85.5 64.5t138 24.5
q134 0 297.5 -80.5zM1026 814l-72 -75l-74 74l73 74z" />
    <glyph glyph-name="uni093F0930094D.05" horiz-adv-x="301" 
d="M948.5 1027.5q42.5 -21.5 77.5 -57.5l-25 -36q-24 19 -58 33.5t-67 14.5q-40 0 -67 -25.5t-27 -71.5q0 -41 20 -77.5t55 -72.5l23 -22l-24 -32q-337 237 -529 237q-94 0 -145.5 -39t-52.5 -104q0 -39 12 -74t27 -56h105l28 -52v-13h-111v-612h-15l-64 36v576h-115l-27 51
v14h147q-31 42 -49 82t-18 85q0 47 28 87t83.5 64.5t134.5 24.5q169 0 448 -180l1 1q-35 54 -35 108q0 41 22.5 71t57.5 45.5t72 15.5q45 0 87.5 -21.5z" />
    <glyph glyph-name="uni093F0930094D.10" horiz-adv-x="301" 
d="M847 956.5q-27 -25.5 -27 -71.5q0 -44 21.5 -81t59.5 -74l18 -17l-25 -32q-152 104 -297.5 170.5t-263.5 66.5q-98 0 -150.5 -39t-53.5 -104q0 -39 12 -74t27 -56h105l28 -52v-13h-111v-612h-15l-64 36v576h-115l-27 51v14h147q-31 42 -49 82t-18 85q0 47 28.5 87
t85.5 64.5t138 24.5q105 0 230 -51.5t253 -133.5l1 1q-39 56 -39 113q0 41 22.5 71t57.5 45.5t72 15.5q45 0 87.5 -21.5t77.5 -57.5l-25 -36q-23 19 -57 33.5t-67 14.5q-40 0 -67 -25.5z" />
    <glyph glyph-name="uni093F0930094D0902.05" horiz-adv-x="301" 
d="M947 1028q42 -21 77 -56l-25 -37q-24 19 -57 33t-66 14q-40 0 -67 -25.5t-27 -71.5q0 -41 20 -77.5t55 -72.5l23 -22l-24 -32q-337 237 -529 237q-94 0 -145.5 -39t-52.5 -104q0 -39 12 -74t27 -56h105l28 -52v-13h-111v-612h-15l-64 36v576h-115l-27 51v14h147
q-31 42 -49 82t-18 85q0 47 28 87t83.5 64.5t134.5 24.5q93 0 208.5 -50t238.5 -130l1 1q-34 55 -34 108q0 41 22.5 71t57.5 45.5t72 15.5q44 0 86 -21zM979 851l-68 -69l-68 68l67 70z" />
    <glyph glyph-name="uni093F0930094D0902.10" horiz-adv-x="301" 
d="M846 957q-27 -25 -27 -72q0 -44 21.5 -80.5t60.5 -74.5l18 -17l-25 -32q-152 104 -297.5 170.5t-263.5 66.5q-98 0 -150.5 -39t-53.5 -104q0 -39 12 -74t27 -56h105l28 -52v-13h-111v-612h-15l-64 36v576h-115l-27 51v14h147q-31 42 -49 82t-18 85q0 47 28.5 87
t85.5 64.5t138 24.5q105 0 230 -51.5t253 -133.5l1 1q-39 56 -39 113q0 41 22.5 71t57.5 45.5t72 15.5q45 0 87 -21t76 -56l-24 -37q-24 19 -57.5 33t-65.5 14q-41 0 -68 -25zM1017 851l-68 -69l-68 68l67 70z" />
    <glyph glyph-name="uni0940.02" horiz-adv-x="300" 
d="M-94.5 908.5q138.5 -113.5 262.5 -263.5h104l28 -52v-13h-111v-612h-15l-63 36v576h-116l-26 51v14h139q-58 70 -134 138.5t-156.5 115t-144.5 46.5q-53 0 -86.5 -28.5t-33.5 -71.5q0 -33 17 -67t37 -56v-2l-43 -21q-39 31 -67.5 78t-28.5 100q0 38 19 71t58 53.5
t97 20.5q125 0 263.5 -113.5z" />
    <glyph glyph-name="uni09400902.02" horiz-adv-x="300" 
d="M0 0zM-94.5 908.5q138.5 -113.5 262.5 -263.5h104l28 -52v-13h-111v-612h-15l-63 36v576h-116l-26 51v14h139q-58 70 -134 138.5t-156.5 115t-144.5 46.5q-53 0 -86.5 -28.5t-33.5 -71.5q0 -33 17 -67t37 -56v-2l-43 -21q-39 31 -67.5 78t-28.5 100q0 38 19 71t58 53.5
t97 20.5q125 0 263.5 -113.5zM282 795l-73 -74l-73 74l73 74z" />
    <glyph glyph-name="uni09400930094D.02" horiz-adv-x="300" 
d="M-159 953q105 -69 208 -175q-9 32 -9 63q0 40 22 72t57.5 49.5t73.5 17.5q42 0 82 -18.5t73 -51.5l-25 -39q-22 16 -53 29t-61 13q-41 0 -67 -24.5t-26 -72.5q0 -44 15 -84.5t43 -86.5h98l28 -52v-13h-111v-612h-15l-63 36v576h-116l-26 51v14h139q-58 70 -134 138.5
t-156.5 115t-144.5 46.5q-53 0 -86.5 -28.5t-33.5 -71.5q0 -33 17 -67t37 -56v-2l-43 -21q-39 31 -67.5 78t-28.5 100q0 38 19 71t58 53.5t97 20.5q94 0 199 -69z" />
    <glyph glyph-name="uni09400930094D0902.02" horiz-adv-x="300" 
d="M-159 953q105 -69 208 -175q-9 30 -9 63q0 40 22 72t57 49.5t74 17.5q42 0 81.5 -18t71.5 -50l-25 -40q-22 16 -52.5 29t-59.5 13q-41 0 -67.5 -24.5t-26.5 -73.5q0 -43 15.5 -83.5t43.5 -87.5h98l28 -52v-13h-111v-612h-15l-63 36v576h-116l-26 51v14h139
q-58 70 -134 138.5t-156.5 115t-144.5 46.5q-53 0 -86.5 -28.5t-33.5 -71.5q0 -33 17 -67t37 -56v-2l-43 -21q-39 31 -67.5 78t-28.5 100q0 38 19 71t58 53.5t97 20.5q94 0 199 -69zM315 776l-67 -69l-69 68l68 69z" />
    <glyph glyph-name="uni0932.loclMAR" horiz-adv-x="723" 
d="M724 593v-13h-192v-150q50 -13 89.5 -54t39.5 -93q0 -69 -36.5 -128t-95.5 -121l-69 48q51 48 93 107t42 117q0 25 -11.5 42.5t-27.5 26t-30 8.5q-63 0 -104.5 -67t-58.5 -147l-70 43q13 60 40 107q-22 27 -52.5 44t-58.5 17q-45 0 -73.5 -32t-28.5 -83q0 -140 158 -282
l-29 -31q-87 78 -143.5 161t-56.5 189q0 41 18.5 75t50.5 53.5t71 19.5q47 0 90 -26t77 -68q47 57 99 70v154h-459l-27 51v14h727z" />
    <glyph glyph-name="uni0936.loclMAR" horiz-adv-x="736" 
d="M748 594v-14h-111v-612h-15l-63 36v576h-274v-80q39 -10 74 -40.5t56 -70t21 -75.5q0 -35 -24.5 -72t-65 -65.5t-84.5 -39.5l112 -169l-60 -38l-98 201l-2 -1q-27 0 -57 10t-50.5 27.5t-20.5 38.5q0 30 23 50.5t46 20.5q9 0 15 -2l51 -77q69 16 109.5 58t40.5 95
q0 35 -24.5 62t-63.5 27q-72 0 -186 -51l-37 72q80 31 147 41l1 78h-212l-26 51v14h750z" />
    <glyph glyph-name="uni091D.loclNEP" horiz-adv-x="974" 
d="M264 620.5q48 -35.5 48 -118.5v-208h223v286h-158l-27 51v14h597l27 -52v-13h-362v-215q32 30 70.5 52t76.5 22q76 0 119 -52.5t43 -139.5q0 -42 -22 -103t-47 -99l-61 63q28 31 54.5 77.5t26.5 87.5q0 42 -26.5 70.5t-64.5 28.5q-72 0 -169 -97v-307h-14l-63 37v224
h-224q-6 -87 -64 -87q-22 0 -41.5 14.5t-33.5 38.5q-22 39 -22 82q0 11 1 17h83v79q-86 32 -136 74.5t-50 106.5q0 48 30.5 75t76.5 27q61 0 109 -35.5zM133.5 582.5q-17.5 -17.5 -17.5 -50.5q0 -70 123 -109q5 47 5 96q0 35 -19 58t-46 23q-28 0 -45.5 -17.5z" />
    <glyph glyph-name="uni0979.loclNEP" horiz-adv-x="704" 
d="M705 593v-13h-441q22 -37 38 -67t28 -64q44 13 87 13q65 0 115.5 -33t78 -86t28.5 -112q0 -70 -37.5 -119t-92.5 -62l97 -145l-60 -30l-83 171q-39 2 -69 12q-58 20 -58 57q0 30 23 50.5t46 20.5q9 0 15 -2l50 -76q55 14 86.5 52.5t31.5 93.5q0 41 -20 73t-52 49t-68 17
q-56 0 -99 -27v-15q0 -45 -19.5 -84.5t-56.5 -64t-86 -24.5q-75 0 -132 46l-19 54l14 16q44 -47 113 -47q45 0 78 27.5t33 90.5q0 50 -26 112t-64 103h-187l-28 51v14h708z" />
    <glyph glyph-name="uni0928.post" 
d="M-149 298l-268 -155l57 -83q-16 -16 -39 -24.5t-46 -8.5q-37 0 -64.5 22.5t-27.5 59.5q0 26 24 50t54 41q72 41 254 124l56 26v-52z" />
    <glyph glyph-name="uni092F.post" horiz-adv-x="811" 
d="M811 593v-13h-111v-612h-15l-64 37l2 111l-4 3q-79 -56 -154 -56q-79 0 -136 53t-90 142q57 15 96.5 38.5t39.5 51.5q0 25 -17.5 38t-58.5 13h-208v69h169q44 0 86 -21t68.5 -54.5t26.5 -70.5q0 -38 -34 -63t-90 -47q14 -36 42.5 -57.5t71.5 -21.5q53 0 106 26t85 61v360
h-626l-27 51v14h815z" />
    <glyph glyph-name="uni0930.post" horiz-adv-x="198" 
d="M-152 264l-298 -254l-54 60l352 268v-74z" />
    <glyph glyph-name="uni0935.post" 
d="M-111 -431h-14l-64 36l1 96l-2 2q-81 -62 -148 -62q-38 0 -75 18t-61 51.5t-24 76.5q0 41 20.5 76.5t53.5 57t66 21.5q87 0 168 -91l2 4v180l77 -1v-465zM-387.5 -145.5q-29.5 -14.5 -47.5 -39t-18 -51.5q0 -28 21 -44t59 -16q52 0 99 25t85 63v2q-58 75 -136 75
q-33 0 -62.5 -14.5z" />
    <glyph glyph-name="uni0915094D0915" horiz-adv-x="1440" 
d="M1080 579v-224q81 73 146 73q77 0 120 -52t43 -139q0 -42 -22 -103t-47 -99l-61 63q28 32 54.5 78t26.5 87q0 42 -26.5 70.5t-64.5 28.5q-40 0 -81.5 -25t-87.5 -70v-300h-15l-65 37l4 192l-2 1q-48 -40 -85.5 -60t-88.5 -20q-48 0 -87.5 20.5t-63 60.5t-23.5 95
q0 8 2 24q-19 12 -43 12q-32 0 -64.5 -16.5t-68.5 -46.5v-298h-15l-65 37l4 190l-2 1v1q-48 -40 -85 -60t-88 -20q-48 0 -87.5 20.5t-63 60.5t-23.5 95q0 43 19.5 80.5t55 60.5t81.5 23q110 0 190 -118v241h-405l-27 51v14h1443l28 -52v-13zM676 373q20 38 55 60.5t81 22.5
q110 0 190 -118v241h-521v-228q59 44 110 44q49 0 85 -22zM200 184q56 0 108 27.5t95 70.5v1q-27 39 -72 67.5t-91 28.5q-33 0 -64.5 -13t-52 -38t-20.5 -59q0 -38 29.5 -61t67.5 -23v-1zM799 183q56 0 108 27.5t95 70.5v1q-27 39 -72 67.5t-91 28.5q-33 0 -64.5 -13
t-52 -38t-20.5 -59q0 -38 29.5 -61t67.5 -23v-1z" />
    <glyph glyph-name="uni0915094D0924" horiz-adv-x="942" 
d="M581 355q31 29 70 51.5t76 22.5q77 0 120 -52t43 -139q0 -42 -22 -102.5t-48 -99.5l-60 63q28 31 54 77.5t26 87.5q0 42 -26.5 70.5t-63.5 28.5q-41 0 -82 -26t-87 -71v-298h-14l-64 36v350h-175q-55 0 -88 -33t-32 -80q0 -55 39.5 -114t113.5 -116l-26 -28
q-89 70 -143 139t-55 149q0 47 29 83h-119l-27 52v14h483v160h-507l-26 51v14h945l28 -52v-13h-362v-225z" />
    <glyph glyph-name="uni0915094D0930" horiz-adv-x="841" 
d="M481 580v-224q81 73 146 73q77 0 120 -52t43 -139q0 -42 -22 -103t-47 -99l-61 63q28 32 54.5 78t26.5 87q0 42 -26.5 70.5t-64.5 28.5q-40 0 -81.5 -25t-87.5 -70v-300h-15l-65 37l4 194l-2 1l-10 -9l-12 -9l-275 -230l-55 60l163 113q-68 5 -113.5 49.5t-45.5 118.5
q0 43 19.5 80.5t55 60.5t81.5 23q110 0 190 -118v241h-405l-27 51v14h844l28 -52v-13h-360zM103 269q0 -38 29.5 -61t67.5 -23q56 0 108 27.5t95 70.5v1q-27 39 -72 67.5t-91 28.5q-33 0 -64.5 -13t-52 -38t-20.5 -59v-1z" />
    <glyph glyph-name="uni0915094D0932" horiz-adv-x="1333" 
d="M1335 580h-112v-612h-14l-64 36v343q-27 27 -50 27q-48 0 -82.5 -62.5t-51.5 -139.5l-69 40q13 61 39 110q-23 26 -52.5 42t-57.5 16q-44 0 -73 -32t-29 -83q0 -139 159 -282l-29 -31q-87 77 -143.5 160.5t-56.5 189.5q0 12 1 18q-16 9 -37 9q-32 0 -64.5 -16.5
t-68.5 -46.5v-298h-15l-65 37l4 190l-2 1v1q-48 -40 -85 -60t-88 -20q-48 0 -87.5 20.5t-63 60.5t-23.5 95q0 43 19.5 80.5t55 60.5t81.5 23q110 0 190 -118v241h-405l-27 51v14h1336l28 -52zM1145 579h-664v-228q59 44 110 44q45 0 79 -17q18 33 50 52.5t71 19.5
q46 0 88 -25t76 -66q50 71 116 72q39 0 74 -39v187zM200 184q56 0 108 27.5t95 70.5v1q-27 39 -72 67.5t-91 28.5q-33 0 -64.5 -13t-52 -38t-20.5 -59q0 -38 29.5 -61t67.5 -23v-1z" />
    <glyph glyph-name="uni0915094D0935" horiz-adv-x="1249" 
d="M1249 593v-13h-112v-612h-14l-64 37l2 182l-2 1q-110 -89 -194 -89q-51 0 -97 21t-74.5 62t-28.5 97q0 11 2 29q-24 21 -54 21q-32 0 -64.5 -16.5t-68.5 -46.5v-298h-15l-65 37l4 190l-2 1v1q-48 -40 -85 -60t-88 -20q-48 0 -87.5 20.5t-63 60.5t-23.5 95q0 43 19.5 80.5
t55 60.5t81.5 23q110 0 190 -118v241h-405l-27 51v14h1252zM588 397q56 0 95 -28q23 51 68.5 79.5t93.5 28.5q62 0 118 -37t96 -87h1v227h-581v-228q59 44 110 44zM829 164q57 0 121.5 37.5t108.5 88.5v3q-32 44 -81.5 76.5t-92.5 32.5q-49 0 -89 -21.5t-62 -54.5t-22 -68
q0 -40 33.5 -66.5t84.5 -26.5zM196 185q56 0 108 27.5t95 70.5v1q-27 39 -72 67.5t-91 28.5q-33 0 -64.5 -13t-52 -38t-20.5 -59q0 -38 29.5 -61t67.5 -23v-1z" />
    <glyph glyph-name="uni0915094D0937" horiz-adv-x="802" 
d="M690 580v-612h-15l-62 36v278h-2q-27 -11 -58 -17.5t-55 -6.5q-109 0 -207 63q-14 -8 -42 -22q-61 -31 -90 -55.5t-29 -62.5q0 -27 13 -52.5t36.5 -41.5t51.5 -16q39 0 88 18l-34 78q35 27 71 27q39 0 58.5 -20.5t19.5 -52.5q0 -53 -51 -84l82 -141l-50 -26l-66 152
q-36 -12 -74 -12q-41 0 -94 29.5t-90.5 78t-37.5 103.5q1 38 35 65.5t104 63.5l22 11q-60 35 -96 76t-36 81q0 45 23 77.5t59.5 49.5t77.5 17q32 0 73 -28.5t70.5 -68.5t29.5 -74q0 -49 -23 -84t-63 -63q59 -18 133 -18q80 0 151 44v210h-149l-27 51v14h337l27 -52v-13h-111
zM186 438q28 -34 67 -55q48 28 75 59t27 71q0 18 -14 36t-34 30t-37 12q-44 0 -78 -24t-34 -69q0 -26 28 -60z" />
    <glyph glyph-name="uni0915094D0937094D" horiz-adv-x="511" 
d="M315 633.5q41 -28.5 70.5 -68.5t29.5 -74q0 -51 -25 -87t-69 -65q36 -13 69.5 -21t71.5 -8q65 0 138 33l17 -72q-27 -14 -60 -21.5t-59 -7.5q-59 0 -109 20.5t-102 55.5l-35 -18q-43 -22 -66.5 -36.5t-39.5 -35t-16 -47.5t13 -52.5t36.5 -41.5t51.5 -16q39 0 88 18
l-34 78q35 27 71 27q39 0 58.5 -20.5t19.5 -52.5q0 -53 -51 -84l82 -141l-50 -26l-66 152q-36 -12 -74 -12q-41 0 -94 29.5t-90.5 78t-37.5 103.5q1 38 35 65.5t102 62.5l24 12q-59 34 -95.5 75.5t-36.5 81.5q0 45 23 77.5t59.5 49.5t77.5 17q32 0 73 -28.5zM590 593v-13
h-126l-27 51v14h124zM192 567q-34 -24 -34 -69q0 -26 28.5 -60.5t66.5 -54.5q48 28 75 59t27 71q0 18 -14 36t-34 30t-37 12q-44 0 -78 -24z" />
    <glyph glyph-name="uni0915094D0937094D0930" horiz-adv-x="921" 
d="M315 633.5q41 -28.5 70.5 -68.5t29.5 -74q0 -49 -22.5 -83.5t-62.5 -61.5q39 -12 88 -19t96 -7q49 0 108 17t110 45v198h-191l-27 51v14h380l27 -52v-13h-111v-612h-15l-64 37l3 144l-4 1l-179 -137l-50 54l231 163v60h-2q-41 -18 -90.5 -28t-89.5 -10q-69 0 -137.5 19.5
t-120.5 49.5q-37 -20 -44 -23q-42 -21 -64.5 -35.5t-38 -34.5t-15.5 -47t13 -52.5t36.5 -41.5t51.5 -16q39 0 88 18l-34 78q35 27 71 27q39 0 58.5 -20.5t19.5 -52.5q0 -53 -51 -84l82 -141l-50 -26l-66 152q-36 -12 -74 -12q-41 0 -94 29.5t-90.5 78t-37.5 103.5
q1 38 35 65.5t102 62.5l24 12q-59 34 -95.5 75.5t-36.5 81.5q0 45 23 77.5t59.5 49.5t77.5 17q32 0 73 -28.5zM192 567q-34 -24 -34 -69q0 -26 28.5 -60.5t66.5 -54.5q48 28 75 59t27 71q0 18 -14 36t-34 30t-37 12q-44 0 -78 -24z" />
    <glyph glyph-name="uni0915094D0072" horiz-adv-x="599" 
d="M627 593v-13h-148v-229q65 46 111 46q79 0 124 -59l-33 -41q-13 15 -30.5 24t-36.5 9q-59 0 -135 -65v-297h-15l-65 37l4 195l-2 1l-296 -249l-55 60l163 113q-69 4 -114 48.5t-45 119.5q0 43 19.5 80.5t55 60.5t81.5 23q66 0 110.5 -33t79.5 -82h1v238h-405l-27 52v13
h631zM144 350.5q-42 -29.5 -42 -80.5q0 -38 29 -60.5t68 -22.5q59 0 108.5 28t93.5 69v1q-27 38 -71.5 67t-90.5 29q-53 -1 -95 -30.5z" />
    <glyph glyph-name="uni0916094D0930" horiz-adv-x="843" 
d="M843 593v-13h-116v-612h-15l-64 37l3 62l-3 3l-365 -179l-53 59l142 63q-110 31 -238 175q-41 45 -57 71.5t-16 52.5q0 20 15 39t32 28l52 -42q12 18 20 48.5t8 61.5q0 26 -3.5 64t-8.5 69h-180l-27 51v14h847zM243 580q7 -44 12 -93t5 -80q0 -64 -25 -106.5t-68 -81.5
q47 -55 115 -104t144 -49q54 0 117.5 25.5t107.5 62.5l-1 94l-2 1q-47 -38 -81 -57.5t-73 -19.5q-46 0 -84 21t-60.5 57.5t-22.5 79.5q0 47 21 83.5t57.5 56t80.5 19.5q49 0 87 -23.5t73 -58.5h3v173h-406zM441.5 402.5q-31.5 -15.5 -49.5 -41.5t-18 -56q0 -28 25.5 -48
t67.5 -20q43 0 93 30.5t89 75.5v2q-26 34 -63.5 53.5t-74.5 19.5q-38 0 -69.5 -15.5z" />
    <glyph glyph-name="uni0916094D0072" horiz-adv-x="580" 
d="M607 593v-13h-365q8 -41 13 -90t5 -83q0 -64 -25 -106.5t-68 -81.5q48 -55 116 -104t143 -49q48 0 105.5 21t105.5 57l32 -64l-385 -189l-54 59l142 64q-110 31 -238 175q-41 45 -57 71.5t-16 52.5q0 20 15 39t32 28l52 -42q12 18 20 48.5t8 61.5q0 26 -3.5 64t-8.5 68
h-180l-27 52v13h611zM579 475q42 -21 67 -59t25 -87q0 -35 -25 -69t-66 -56t-86 -22q-46 0 -84 21t-60.5 57.5t-22.5 79.5q0 68 45.5 112t115.5 44q49 0 91 -21zM441 412.5q-32 -15.5 -49.5 -41.5t-17.5 -56q0 -28 25.5 -48t69.5 -20q38 0 73.5 15t58 40t22.5 53
q0 31 -32.5 52t-76.5 21q-41 0 -73 -15.5z" />
    <glyph glyph-name="uni0917094D0928" horiz-adv-x="611" 
d="M611 592v-13h-111v-612h-15l-65 37v199l-183 -147l58 -70q-17 -18 -41 -29.5t-49 -11.5q-39 0 -63.5 27t-25.5 57q0 25 18.5 46t48.5 42q79 56 237 158l1 305h-207q15 -156 15 -227q0 -39 -16.5 -71t-62.5 -32q-35 0 -59 19t-35.5 46t-11.5 49q0 20 5 37l97 -13v192h-150
l-27 51v14h614z" />
    <glyph glyph-name="uni0917094D0930" horiz-adv-x="611" 
d="M611 593v-13h-111v-612h-15l-65 37l2 183l-3 2l-245 -207l-52 61l299 232v304h-205q9 -144 9 -242q0 -39 -15.5 -70.5t-58.5 -31.5q-35 0 -59.5 19t-36 46t-11.5 50q0 19 5 37l97 -14l6 206h-156l-27 51v14h614z" />
    <glyph glyph-name="uni0917094D0072" horiz-adv-x="289" 
d="M209.5 221.5q-15.5 -31.5 -59.5 -31.5q-35 0 -59 19t-35.5 46t-11.5 50q0 20 5 37l97 -14l7 252h-157l-27 51v14h320l29 -52v-13h-105q12 -156 12 -288q0 -39 -15.5 -70.5zM414 185l-240 -202l-52 61l258 202z" />
    <glyph glyph-name="uni0918094D0930" horiz-adv-x="651" 
d="M669 593v-13h-111v-612h-15l-64 37l3 191l-3 1l-273 -249l-56 59l129 99q-60 2 -105 35q-31 24 -52 55t-21 63q0 42 21 79t57 61q-39 18 -62.5 33t-38 37.5t-14.5 55.5q0 25 10 55h-78l-27 51v14h672zM168 580q-32 -27 -32 -73q0 -22 18.5 -41t44.5 -29.5t46 -10.5l19 1
q57 0 84 -12l17 -40l-8 -20q-26 7 -65 7q-40 0 -68.5 -20t-43 -50t-14.5 -59q0 -32 27 -47.5t60 -15.5q55 0 121 40.5t106 93.5v276h-312z" />
    <glyph glyph-name="uni0918094D0072" horiz-adv-x="422" 
d="M450 593v-13h-282q-32 -29 -32 -73q0 -22 18.5 -41t44.5 -29.5t46 -10.5l19 1q57 0 85 -12l17 -40l-8 -20q-26 7 -65 7q-40 0 -69 -20t-43.5 -49.5t-14.5 -58.5q0 -33 26.5 -52t58.5 -19q67 0 132.5 33.5t121.5 89.5l37 -67l-337 -271l-54 59l144 98q-40 1 -67.5 9
t-53.5 27q-30 23 -52 54.5t-22 63.5q0 41 21.5 78.5t57.5 61.5q-39 18 -62.5 33t-38 37.5t-14.5 55.5q0 23 10 55h-78l-27 51v14h453z" />
    <glyph glyph-name="uni0919094D0915" horiz-adv-x="691" 
d="M313 -196l1 99l-1 1q-34 -23 -64 -35.5t-67 -12.5q-58 0 -97.5 36.5t-39.5 101.5q0 31 17 58.5t44 44t54 16.5q45 0 85.5 -25t67.5 -61l1 106q-152 20 -291 172l34 33q70 -82 133.5 -115t134.5 -33q52 1 85 19.5t33 50.5q0 16 -9 29t-19 17q-28 0 -57 -7.5t-34 -8.5
q-45 -13 -64 -13q-23 0 -56 22.5t-57.5 53.5t-24.5 55q0 40 26 62t69 22h148v88h-369l-27 51v14h694l29 -52v-13h-249v-150h-197q-25 0 -37.5 -15t-12.5 -34q0 -18 12 -30t25 -12t61 11q62 16 88 16q27 0 56.5 -21.5t49 -51.5t19.5 -54q0 -39 -31 -69.5t-92 -37.5v-91
q61 53 108 53q29 0 58 -17.5t47.5 -48.5t18.5 -70q0 -31 -16.5 -66t-45.5 -84l-60 57q33 36 54 65.5t21 59.5q0 24 -13.5 38t-35.5 14q-33 0 -64.5 -21t-71.5 -58v-190h-14zM528 393l72 74l74 -73l-73 -75zM237.5 -72q37.5 19 74.5 51q-20 28 -52.5 47t-69.5 19
q-41 0 -70.5 -21.5t-29.5 -57.5q0 -26 19.5 -41.5t48.5 -15.5q42 0 79.5 19z" />
    <glyph glyph-name="uni0919094D0915094D" horiz-adv-x="691" 
d="M693 593v-13h-249v-150h-197q-25 0 -37.5 -15t-12.5 -34q0 -18 12 -30t25 -12t61 11q62 16 88 16q27 0 56.5 -21.5t49 -51.5t19.5 -54q0 -39 -31 -70t-92 -38v-92q56 46 104 46q72 0 115 -52l-33 -38q-10 13 -26.5 21t-33.5 8q-33 0 -61 -15t-65 -47v-190h-14l-57 31
l1 99l-2 1q-35 -23 -64.5 -35t-66.5 -12q-58 0 -97.5 36.5t-39.5 101.5q0 31 17 58.5t44 44t54 16.5q44 0 84.5 -25t68.5 -61l1 106q-73 9 -145 50t-146 122l34 33q70 -82 133.5 -115t134.5 -33q52 1 85 19.5t33 50.5q0 16 -9 29t-19 17q-28 0 -57 -7.5t-34 -8.5
q-45 -13 -64 -13q-23 0 -56 22.5t-57.5 53.5t-24.5 55q0 40 26 62t69 22h148v88h-369l-27 51v14h694zM600 465l74 -69l-69 -75l-73 70zM238.5 -71.5q37.5 19.5 74.5 50.5q-21 28 -53.5 47t-68.5 19q-41 0 -70.5 -21.5t-29.5 -57.5q0 -26 19.5 -41.5t48.5 -15.5
q42 0 79.5 19.5z" />
    <glyph glyph-name="uni0919094D0915094D0937" horiz-adv-x="691" 
d="M693 593v-13h-249v-150h-197q-25 0 -37.5 -15t-12.5 -34q0 -18 12 -30t25 -12t61 11q62 16 88 16q27 0 56.5 -21.5t49 -51.5t19.5 -54q0 -32 -19 -55v-412h-14l-56 31v171q-45 -28 -93 -28q-32 0 -77 12.5t-89 33.5q-47 -21 -69.5 -39t-22.5 -51q0 -19 20.5 -35t49.5 -16
q30 0 61 11l-18 42q11 8 26 12.5t26 4.5q29 0 44.5 -15t16.5 -38q0 -28 -37 -49l56 -87l-48 -24l-41 97q-29 -9 -53 -9q-28 0 -68.5 19.5t-70 50.5t-29.5 65q0 31 26 49.5t78 40.5q-40 26 -63.5 53.5t-23.5 53.5q0 33 30.5 58.5t68.5 30.5q-48 37 -96 88l34 33
q70 -82 133.5 -115t134.5 -33q52 1 85 19.5t33 50.5q0 16 -9 29t-19 17q-28 0 -57 -7.5t-34 -8.5q-45 -13 -64 -13q-23 0 -56 22.5t-57.5 53.5t-24.5 55q0 40 26 62t69 22h148v88h-369l-27 51v14h694zM601 467l74 -73l-73 -75l-73 74zM190 71q17 18 17 44q0 25 -17.5 37
t-39.5 12q-26 0 -46.5 -15t-20.5 -37q0 -20 15.5 -39.5t43.5 -34.5q31 15 48 33zM419 140q-28 -9 -66 -9q-58 2 -112 20q22 -30 22 -54q0 -28 -15 -48t-41 -35q39 -12 82 -12q65 0 130 47v91z" />
    <glyph glyph-name="uni0919094D0916" horiz-adv-x="691" 
d="M692 593v-13h-249v-150h-197q-25 0 -37.5 -15t-12.5 -34q0 -18 12 -30t25 -12t61 11q62 16 88 16q27 0 56.5 -21.5t49 -51.5t19.5 -54t-11 -43v-423h-15l-55 31v24q-75 -35 -132 -35q-90 0 -203 116q-30 32 -44 52.5t-14 43.5q0 31 30 53h2l45 -36q16 23 20.5 36t4.5 35
q0 56 -17 128q-40 31 -95 84l34 33q70 -82 133.5 -115t134.5 -33q52 1 85 19.5t33 50.5q0 16 -9 29t-19 17q-28 0 -57 -7.5t-34 -8.5q-45 -13 -64 -13q-23 0 -56 22.5t-57.5 53.5t-24.5 55q0 40 26 62t69 22h148v88h-369l-27 51v14h694zM674 394l-73 -75l-73 74l72 74z
M191 69q0 -40 -19 -69.5t-50 -62.5q40 -41 80 -66t86 -25q67 0 137 47v50q-47 -43 -89 -43q-25 0 -51.5 15.5t-44 40.5t-17.5 53q0 41 32.5 70.5t75.5 29.5q37 0 94 -43v75q-31 -11 -73 -11q-88 1 -173 49q12 -68 12 -110zM293 33q-23 -21 -23 -48q0 -13 10.5 -21t28.5 -8
q55 0 117 56v3q-33 39 -69 39q-41 0 -64 -21z" />
    <glyph glyph-name="uni0919094D0917" horiz-adv-x="691" 
d="M692 592v-13h-249v-150h-197q-25 0 -37.5 -15t-12.5 -34q0 -18 12 -30t25 -12t61 11q62 16 88 16q27 0 56.5 -21.5t49 -51.5t19.5 -54q0 -25 -13 -47.5t-40 -37.5v-380h-14l-56 31v328q-20 -2 -32 -2q-55 2 -107 19q7 -82 7 -151q0 -37 -13.5 -66t-52.5 -29q-29 0 -49 16
t-29.5 38.5t-9.5 41.5t5 36l78 -14v156q-79 43 -158 128l34 33q70 -82 133.5 -115t134.5 -33q52 1 85 19.5t33 50.5q0 16 -9 29t-19 17q-28 0 -57 -7.5t-34 -8.5q-45 -13 -64 -13q-23 0 -56 22.5t-57.5 53.5t-24.5 55q0 40 26 62t69 22h148v88h-369l-27 51v14h694zM600 466
l74 -73l-73 -75l-73 74z" />
    <glyph glyph-name="uni0919094D0918" horiz-adv-x="691" 
d="M692 593v-13h-249v-150h-197q-25 0 -37.5 -15t-12.5 -34q0 -18 12 -30t25 -12t61 11q62 16 88 16q27 0 56.5 -21.5t49 -51.5t19.5 -54q0 -38 -27 -65v-401h-15l-55 31v66q-40 -30 -73 -43.5t-65 -13.5q-27 0 -49.5 8.5t-47.5 26.5q-38 27 -54.5 50.5t-16.5 48.5
q0 28 19 52t49 40q-105 42 -105 106q0 24 9 43.5t29 39.5q-37 29 -82 77l34 33q70 -82 133.5 -115t134.5 -33q52 1 85 19.5t33 50.5q0 16 -9 29t-19 17q-28 0 -57 -7.5t-34 -8.5q-45 -13 -64 -13q-23 0 -56 22.5t-57.5 53.5t-24.5 55q0 40 26 62t69 22h148v88h-369l-27 51
v14h694zM674 394l-73 -75l-73 74l72 74zM146.5 157q-7.5 -15 -7.5 -31q0 -19 15 -34t36.5 -23t38.5 -7q9 3 23 3q27 0 63 -13l16 -40l-8 -19q-8 1 -26 4t-32 3q-27 0 -49 -13t-34 -31.5t-12 -34.5q0 -21 18 -32t42 -11q40 0 90 25t90 63v171q-24 -7 -58 -7q-94 2 -185 53
q-13 -11 -20.5 -26z" />
    <glyph glyph-name="uni0919094D092E" horiz-adv-x="929" 
d="M928 593v-13h-111v-807h-15l-63 36v174h-276q-3 -36 -17.5 -61t-46.5 -25q-26 0 -49 20t-36 52q-12 28 -12 62q0 12 1 18h83v83q-22 -2 -34 -2q-84 2 -165 43t-164 132l34 33q69 -82 133 -115t135 -33q52 1 85 19.5t33 50.5q0 16 -9 29t-19 17q-22 0 -42.5 -4.5
t-49.5 -12.5q-17 -5 -33.5 -8.5t-29.5 -3.5q-23 0 -56 22.5t-57.5 53.5t-24.5 55q0 40 26 62t69 22h148v88h-369l-27 51v14h931zM443 580v-150h-197q-25 0 -37.5 -15t-12.5 -34q0 -18 12.5 -30t25.5 -12q12 0 60 11q64 16 88 16q27 0 56.5 -21.5t49 -51.5t19.5 -54
q0 -22 -10.5 -43t-32.5 -36v-111h276v531h-297zM674 393l-72 -74l-73 74l72 74z" />
    <glyph glyph-name="uni0919094D0930" horiz-adv-x="701" 
d="M701 594v-13h-248v-181h-219q-75 0 -75 -77q0 -22 16 -42t33 -20q22 0 45.5 5.5t53.5 15.5q34 10 55 15t42 5q27 0 53.5 -25.5t43.5 -63.5t17 -73q0 -68 -39.5 -111.5t-110.5 -43.5h-21l132 -128l-43 -33l-146 146l-182 -140l-63 56l195 124q-103 43 -210 164l33 30
q77 -83 142.5 -117.5t128.5 -34.5q55 0 93.5 27.5t38.5 79.5q0 24 -11 45t-26 27q-26 0 -47.5 -5.5t-50.5 -15.5q-26 -10 -44 -14.5t-39 -4.5q-28 0 -63.5 24.5t-60.5 61t-25 72.5q0 55 29.5 87t75.5 32h171v112h-379l-27 51v14h705zM611 421l74 -74l-73 -75l-73 75z" />
    <glyph glyph-name="uni091A094D091A" horiz-adv-x="953" 
d="M953 594v-14h-111v-611h-14l-66 36l3 166l-3 1q-37 -29 -81 -49t-83 -20q-37 0 -68 12t-53 33l-19 22q-42 -32 -85 -49.5t-80 -17.5q-36 0 -67.5 12.5t-53.5 33.5q-57 57 -57 119q0 51 40 100v1h-102l-26 51v14h642l28 -51v-14h-107q-49 -6 -78.5 -42.5t-30.5 -83.5
q1 -36 27 -61.5t59 -25.5q47 0 105.5 39t91.5 81v304h-768l-27 51v14h956zM285 369q-49 -6 -79 -42.5t-30 -83.5q0 -36 26.5 -61.5t60.5 -25.5q33 0 77 22.5t83 58.5q-3 15 -3 31q0 52 39 100v1h-174z" />
    <glyph glyph-name="uni091A094D0930" horiz-adv-x="657" 
d="M657 593v-13h-111v-612h-14l-66 36l3 166l-2 2l-279 -210l-55 60l125 88q-48 9 -77 38q-56 58 -56 119q0 53 38 100v1h-101l-27 51v15h339l27 -52v-14h-107q-48 -5 -78 -42t-31 -83q1 -36 27.5 -62t58.5 -26q47 0 105.5 39t91.5 81v305h-472l-27 51v14h660z" />
    </font>
</defs>
</svg>
