<?xml version="1.0" standalone="no"?>
<!DOCTYPE svg PUBLIC "-//W3C//DTD SVG 1.1//EN" "http://www.w3.org/Graphics/SVG/1.1/DTD/svg11.dtd" >
<svg xmlns="http://www.w3.org/2000/svg" xmlns:xlink="http://www.w3.org/1999/xlink" version="1.1">
<metadata>
Created by FontForge 20170731 at Fri Mar  6 09:07:48 2015
 By Aleksey,,,
Copyright (c) 2015 Dan Reynolds.
</metadata>
<defs>
<font id="Martel-Light" horiz-adv-x="0" >
  <font-face 
    font-family="Martel Light"
    font-weight="300"
    font-stretch="normal"
    units-per-em="1000"
    panose-1="0 0 4 0 0 0 0 0 0 0"
    ascent="800"
    descent="-200"
    x-height="546"
    cap-height="758"
    bbox="-650 -538 1425 1046"
    underline-thickness="50"
    underline-position="-150"
    unicode-range="U+000D-FB02"
  />
<missing-glyph horiz-adv-x="595" 
 />
    <glyph glyph-name="fi" unicode="fi" horiz-adv-x="732" 
d="M418 813v-69q-8 5 -30.5 9.5t-53.5 4.5t-52.5 -9.5t-34.5 -40t-13 -88.5v-78h152v-55h-152v-444l113 -8v-35h-289v35l102 9v443h-112v32l112 24v44q0 70 30.5 123t75.5 82t86 29q50 0 66 -8zM614 779.5q13 -14.5 13 -36.5q0 -26 -18.5 -43t-42.5 -17q-21 0 -36 14t-15 36
q0 25 19 43t42 18q25 0 38 -14.5zM619 545v-501l82 -9v-35h-235v35l84 9v426l-69 27v25l120 32z" />
    <glyph glyph-name="fl" unicode="fl" horiz-adv-x="742" 
d="M160 44v443h-112v32l112 24v44q0 70 30.5 123t75.5 82t86 29q50 0 66 -8v-69q-8 5 -30.5 9.5t-53.5 4.5t-52.5 -9.5t-34.5 -40t-13 -88.5v-78h152v-55h-152v-444l113 -8v-35h-289v35zM549 44v681l-80 14v36l137 17l17 -11v-738l87 -8v-35h-246v35z" />
    <glyph glyph-name="f_f" unicode="ff" horiz-adv-x="805" 
d="M160 44v443h-112v32l112 24v44q0 70 30.5 123t75.5 82t86 29q50 0 66 -8v-69q-8 5 -30.5 9.5t-53.5 4.5t-52.5 -9.5t-34.5 -40t-13 -88.5v-78h152v-55h-152v-444l113 -8v-35h-289v35zM562 44v443h-111v32l111 24v44q0 70 30.5 123t75.5 82t86 29q50 0 66 -8v-69
q-8 5 -30 9.5t-55 4.5q-31 0 -52.5 -9.5t-34.5 -40t-13 -88.5v-78h154v-55h-154v-444l115 -8v-35h-290v35z" />
    <glyph glyph-name="f_f_i" unicode="ffi" horiz-adv-x="1135" 
d="M418 813v-69q-8 5 -30.5 9.5t-53.5 4.5t-52.5 -9.5t-34.5 -40t-13 -88.5v-78h152v-55h-152v-444l113 -8v-35h-289v35l102 9v443h-112v32l112 24v44q0 70 30.5 123t75.5 82t86 29q50 0 66 -8zM820 813v-69q-8 5 -30 9.5t-55 4.5q-31 0 -52.5 -9.5t-34.5 -40t-13 -88.5v-78
h154v-55h-154v-444l115 -8v-35h-290v35l102 9v443h-111v32l111 24v44q0 70 30.5 123t75.5 82t86 29q50 0 66 -8zM1015 779.5q13 -14.5 13 -36.5q0 -26 -18 -43t-42 -17q-21 0 -36 14t-15 36q0 25 19 43t41 18q25 0 38 -14.5zM1022 545v-501l81 -9v-35h-235v35l84 9v426
l-69 27v25l121 32z" />
    <glyph glyph-name="f_f_l" unicode="ffl" horiz-adv-x="1144" 
d="M160 44v443h-112v32l112 24v44q0 70 30.5 123t75.5 82t86 29q50 0 66 -8v-69q-8 5 -30.5 9.5t-53.5 4.5t-52.5 -9.5t-34.5 -40t-13 -88.5v-78h152v-55h-152v-444l113 -8v-35h-289v35zM562 44v443h-111v32l111 24v44q0 70 30.5 123t75.5 82t86 29q50 0 66 -8v-69
q-8 5 -30 9.5t-55 4.5q-31 0 -52.5 -9.5t-34.5 -40t-13 -88.5v-78h154v-55h-154v-444l115 -8v-35h-290v35zM952 44v681l-80 14v36l137 17l17 -11v-738l86 -8v-35h-245v35z" />
    <glyph glyph-name=".notdef" horiz-adv-x="595" 
 />
    <glyph glyph-name=".null" 
 />
    <glyph glyph-name="nonmarkingreturn" unicode="&#xd;" 
 />
    <glyph glyph-name="space" unicode=" " horiz-adv-x="234" 
 />
    <glyph glyph-name="exclam" unicode="!" horiz-adv-x="339" 
d="M185 226h-47l-23 643h97zM212 84.5q13 -14.5 13 -35.5q0 -26 -18.5 -42.5t-42.5 -16.5q-21 0 -36 14t-15 36q0 25 19 42t42 17q25 0 38 -14.5z" />
    <glyph glyph-name="quotedbl" unicode="&#x22;" horiz-adv-x="615" 
d="M248 870l-19 -397h-51l-19 397h89zM457 870l-19 -397h-51l-19 397h89z" />
    <glyph glyph-name="numbersign" unicode="#" horiz-adv-x="696" 
d="M75 179v51h111l18 219h-118v50h121l13 163h67l-12 -163h172l14 163h66l-13 -163h106v-50h-108l-19 -219h110l1 -51h-113l-15 -179h-64l13 179h-174l-16 -179h-66l15 179h-109zM444 449h-173l-18 -219h173z" />
    <glyph glyph-name="dollar" unicode="$" horiz-adv-x="615" 
d="M124 177l26 -96q28 -27 74 -39t96 -12q66 0 115.5 35t49.5 105q0 42 -26 75t-64 57.5t-103 59.5q-60 32 -101 59.5t-69 67t-28 89.5q0 83 58.5 128.5t137.5 55.5l4 81h64l-3 -79q101 -5 155 -37v-130h-34l-32 94q-37 33 -127 33q-34 0 -69.5 -14t-60 -44.5t-24.5 -78.5
q0 -53 44.5 -90.5t129.5 -79.5q69 -35 112.5 -63t74.5 -68.5t31 -93.5q0 -97 -62.5 -147t-161.5 -55l-4 -102h-64l3 103q-58 4 -109 15.5t-69 23.5v147h36z" />
    <glyph glyph-name="percent" unicode="%" horiz-adv-x="843" 
d="M322 10h-64l263 763h64zM311 646.5q34 -50.5 34 -127.5q0 -57 -22.5 -98t-59.5 -62t-80 -21q-42 0 -73.5 24t-48.5 64.5t-17 87.5q0 58 22.5 99.5t60.5 62.5t82 21q68 0 102 -50.5zM131.5 618.5q-23.5 -36.5 -23.5 -100.5q0 -62 22 -100t62 -38q42 0 65.5 36t23.5 99
q0 65 -22 102.5t-63 37.5t-64.5 -36.5zM766 388.5q34 -50.5 34 -127.5q0 -56 -22 -97t-59 -62.5t-79 -21.5q-43 0 -75 24t-49 64t-17 88q0 58 22.5 99.5t60.5 62.5t82 21q68 0 102 -50.5zM586.5 360.5q-23.5 -36.5 -23.5 -100.5q0 -61 22 -99t63 -38q42 0 65.5 35.5
t23.5 98.5q0 65 -22 102.5t-63 37.5q-42 0 -65.5 -36.5z" />
    <glyph glyph-name="ampersand" unicode="&#x26;" horiz-adv-x="765" 
d="M463 717q39 -46 39 -115q0 -68 -45.5 -126t-113.5 -101q47 -58 110.5 -130.5t106.5 -111.5q20 42 20 109q0 46 -7.5 79t-13.5 39h73q1 -5 8.5 -33t7.5 -68q0 -43 -10.5 -85t-34.5 -76q34 -26 62 -39.5t57 -16.5v-34q-16 -6 -34 -6q-10 0 -32 4q-43 5 -98 44
q-35 -32 -90.5 -49t-105.5 -17q-58 0 -118 16.5t-103.5 59t-43.5 116.5q0 67 42 113.5t117 85.5q-45 63 -68 108t-23 98q0 85 50.5 133.5t128.5 48.5q80 0 119 -46zM261 693q-32 -29 -32 -88q0 -44 14 -81.5t31 -62t43 -54.5q57 28 90 73.5t33 105.5q0 52 -24 94t-83 42
q-40 0 -72 -29zM192.5 273.5q-25.5 -33.5 -25.5 -89.5q0 -46 27 -80.5t72.5 -52.5t99.5 -18q109 0 156 46q-59 51 -126.5 124.5t-116.5 139.5q-61 -36 -86.5 -69.5z" />
    <glyph glyph-name="quotesingle" unicode="'" horiz-adv-x="406" 
d="M248 870l-19 -397h-51l-19 397h89z" />
    <glyph glyph-name="parenleft" unicode="(" horiz-adv-x="386" 
d="M197 -70q-52 57 -98 166.5t-46 260.5q0 131 46.5 238t102.5 172t83 79l35 -20q-27 -17 -73.5 -76.5t-84.5 -161t-38 -231.5q0 -133 38 -236.5t84.5 -164.5t76.5 -80l-40 -24q-34 21 -86 78z" />
    <glyph glyph-name="parenright" unicode=")" horiz-adv-x="386" 
d="M139.5 -47.5q46.5 60.5 84.5 163t38 233.5t-38.5 233t-85 162t-76.5 81l41 24q33 -21 85 -78.5t98 -166.5t46 -260q0 -131 -46 -237.5t-101.5 -171.5t-83.5 -80l-35 20q27 17 73.5 77.5z" />
    <glyph glyph-name="asterisk" unicode="*" horiz-adv-x="635" 
d="M303 605l-31 -31l-150 -115l-41 58l169 90l42 17l-42 18l-169 89l39 57l149 -112l34 -32l-9 55l-15 172h73l-14 -172l-12 -55l44 37l140 106l44 -56l-169 -86l-48 -21l47 -18l171 -90l-46 -56l-147 114l-35 31l10 -50l15 -179h-73l15 179z" />
    <glyph glyph-name="plus" unicode="+" horiz-adv-x="614" 
d="M279 359l-80 -3h-113v61h113l80 -5l-3 81v116h62v-116l-5 -81l68 5h128v-61h-128l-68 4l5 -80v-124h-62v124z" />
    <glyph glyph-name="comma" unicode="," horiz-adv-x="332" 
d="M147 133q50 -11 75.5 -57t25.5 -92q1 -76 -44 -133.5t-104 -82.5l-19 25v10q23 8 45 30.5t35.5 54.5t13.5 65q0 41 -21.5 72.5t-48.5 34.5v18z" />
    <glyph glyph-name="hyphen" unicode="-" horiz-adv-x="599" 
d="M513 417v-58h-428v58h428z" />
    <glyph glyph-name="period" unicode="." horiz-adv-x="340" 
d="M204.5 83q11.5 -13 11.5 -33q0 -26 -17 -42t-40 -16q-19 0 -33 13t-14 33q0 24 18 41t39 17q24 0 35.5 -13z" />
    <glyph glyph-name="slash" unicode="/" horiz-adv-x="397" 
d="M368 781l-278 -958h-75l277 958h76z" />
    <glyph glyph-name="zero" unicode="0" horiz-adv-x="644" 
d="M523.5 527.5q56.5 -83.5 54.5 -223.5q0 -92 -34.5 -164.5t-93.5 -113t-131 -40.5q-88 0 -144.5 44t-82.5 116t-26 159q0 94 37 163.5t98.5 106t133.5 36.5q132 0 188.5 -83.5zM188.5 501q-44.5 -66 -44.5 -189q0 -120 45.5 -201t134.5 -81q90 0 133.5 70t43.5 200
q0 123 -43.5 195t-133.5 72q-91 0 -135.5 -66z" />
    <glyph glyph-name="one" unicode="1" horiz-adv-x="453" 
d="M205 45v476q-24 -7 -95 -25q-46 -12 -39 -10l-7 39q44 14 112.5 46t84.5 46l20 -7l-1 -566l137 -10v-34h-358v34z" />
    <glyph glyph-name="two" unicode="2" horiz-adv-x="594" 
d="M308.5 227.5q94.5 104.5 94.5 196.5q-1 58 -35.5 99.5t-103.5 41.5q-45 0 -95.5 -24t-79.5 -52l-19 31q31 38 91.5 68t128.5 30q64 0 106.5 -24t62.5 -62t20 -82q0 -66 -40.5 -139.5t-111 -142t-158.5 -120.5l297 17l46 78l34 -11l-31 -132h-435l-11 32
q145 91 239.5 195.5z" />
    <glyph glyph-name="three" unicode="3" horiz-adv-x="521" 
d="M370.5 580.5q53.5 -39.5 53.5 -119.5q0 -38 -24 -78.5t-62.5 -72t-79.5 -43.5q101 4 154 -42t53 -120q0 -65 -40.5 -127t-114.5 -101t-170 -39q-40 0 -78 7v43q26 -5 60 -5q74 0 134 28.5t94 75.5t34 100q0 72 -39.5 110.5t-130.5 37.5l-30 -4l-55 -12v56q96 17 155.5 62
t59.5 100q0 66 -36 97t-94 31q-52 0 -90 -17t-68 -42l-22 37q27 28 81.5 52.5t127.5 24.5q74 0 127.5 -39.5z" />
    <glyph glyph-name="four" unicode="4" horiz-adv-x="609" 
d="M114 180q76 135 127.5 232t102.5 210h26l43 -34q-31 -57 -182 -325q-30 -51 -97 -171l-29 -45l273 13l1 243l69 22v-262l111 5v-68h-111v-184h-70v184h-328l-13 40z" />
    <glyph glyph-name="five" unicode="5" horiz-adv-x="524" 
d="M102 -129q68 0 133.5 33.5t107 90t41.5 122.5q0 89 -45.5 132t-122.5 43q-65 0 -141 -28l-12 13l39 327h259l14 8h48l-19 -74h-244l-36 -230q65 31 130 31q57 0 104.5 -24t76 -72t28.5 -117q0 -67 -46 -136.5t-125 -115t-174 -45.5q-29 0 -51 6l2 38q11 -2 33 -2z" />
    <glyph glyph-name="six" unicode="6" horiz-adv-x="606" 
d="M496 715q-110 -35 -188.5 -98.5t-119.5 -141t-44 -154.5q-5 -123 37 -205.5t140 -82.5q53 0 89 29t53.5 73t17.5 88q0 95 -36.5 146t-92.5 51q-42 0 -65.5 -9t-42.5 -24l-20 33q14 18 57 35.5t87 17.5q59 0 100.5 -31.5t62.5 -80.5t21 -102q0 -64 -29.5 -126t-85 -102.5
t-129.5 -40.5q-75 0 -130.5 39t-85 104t-29.5 143q0 120 62 221t158.5 166.5t196.5 84.5z" />
    <glyph glyph-name="seven" unicode="7" horiz-adv-x="604" 
d="M317.5 159q61.5 147 141.5 350l19 47l-325 -10l-44 -93l-38 5l25 154h432l14 -17l-273 -748l-78 27q65 138 126.5 285z" />
    <glyph glyph-name="eight" unicode="8" horiz-adv-x="603" 
d="M420 735.5q45 -21.5 70.5 -59.5t25.5 -86q0 -58 -37 -118t-102 -94q83 -47 127 -88.5t44 -97.5q0 -69 -35 -115.5t-90 -68.5t-116 -22q-59 0 -114.5 21.5t-91.5 66t-36 108.5q0 57 41 111.5t116 91.5q-56 35 -87.5 79.5t-31.5 105.5t31.5 103.5t81 63t104.5 20.5
t100 -21.5zM239.5 700.5q-34.5 -17.5 -55.5 -48.5t-21 -70q0 -54 43 -93.5t123 -83.5q29 6 57 30.5t46 58.5t19 66q2 46 -15 82t-49 56t-73 20q-40 0 -74.5 -17.5zM173.5 294.5q-36.5 -43.5 -36.5 -94.5q0 -47 22.5 -86.5t64 -62.5t97.5 -23q42 0 78.5 17.5t59 49t22.5 70.5
q0 37 -22.5 66t-55 50t-90.5 52l-51 27q-52 -22 -88.5 -65.5z" />
    <glyph glyph-name="nine" unicode="9" horiz-adv-x="611" 
d="M300.5 -56q77.5 74 118 164.5t43.5 173.5q8 288 -170 288q-52 0 -88 -29t-54 -73t-18 -88q0 -94 37 -146t93 -52q34 0 64 10.5t45 22.5l19 -33q-20 -21 -60 -37t-84 -16q-59 0 -100.5 31.5t-62.5 80.5t-21 102q0 64 29.5 126t85 102.5t130.5 40.5t127.5 -39t79.5 -104
t27 -143q0 -127 -60.5 -241t-156.5 -189t-195 -94l-13 34q107 34 184.5 108z" />
    <glyph glyph-name="colon" unicode=":" horiz-adv-x="340" 
d="M205.5 482.5q10.5 -12.5 10.5 -31.5q0 -26 -17 -42t-39 -16q-20 0 -34 12.5t-14 33.5q0 25 18.5 41t41.5 16q23 -1 33.5 -13.5zM205 83q11 -13 11 -32q0 -27 -18.5 -43t-41.5 -15q-19 2 -31.5 14t-12.5 32q0 24 18 40.5t40 16.5q24 0 35 -13z" />
    <glyph glyph-name="semicolon" unicode=";" horiz-adv-x="338" 
d="M202.5 483q11.5 -13 11.5 -33q0 -26 -17 -41.5t-40 -15.5q-19 0 -33 12.5t-14 33.5q0 24 18 40.5t40 16.5q23 0 34.5 -13zM232.5 76.5q25.5 -45.5 25.5 -92.5q1 -76 -44 -133.5t-105 -82.5l-18 25v10q23 8 45 30.5t35.5 54.5t13.5 65q0 41 -21.5 72.5t-48.5 34.5v18
l42 55q50 -11 75.5 -56.5z" />
    <glyph glyph-name="less" unicode="&#x3c;" horiz-adv-x="644" 
d="M535 640v-72l-411 -202l411 -203v-72l-473 246v57z" />
    <glyph glyph-name="equal" unicode="=" horiz-adv-x="599" 
d="M513 508v-59h-428v59h428zM513 322v-58h-428v58h428z" />
    <glyph glyph-name="greater" unicode="&#x3e;" horiz-adv-x="644" 
d="M519 366l-410 203v72l473 -246v-58l-473 -246v73z" />
    <glyph glyph-name="question" unicode="?" horiz-adv-x="491" 
d="M326 852.5q66 -42.5 96 -107t31 -130.5q0 -27 -3 -41.5t-14.5 -27t-36.5 -27.5q-22 -14 -72 -38q-53 -26 -78.5 -44t-25.5 -42q0 -29 9.5 -57.5t28.5 -74.5q3 -9 11 -27h-38q-16 12 -36 44t-34.5 67.5t-14.5 59.5q1 28 34.5 49.5t98.5 50.5q57 25 79 39q16 10 22.5 18.5
t5.5 19.5q1 65 -32.5 120.5t-90 88t-118.5 32.5q-20 0 -44 -3t-38 -9l1 60q8 8 35 15t56 7q102 0 168 -42.5zM306.5 83q11.5 -13 11.5 -33q0 -26 -17 -42t-40 -16q-19 0 -33 13t-14 33q0 25 18 41.5t40 16.5q23 0 34.5 -13z" />
    <glyph glyph-name="at" unicode="@" horiz-adv-x="1034" 
d="M754 663.5q74 -37.5 116.5 -106.5t42.5 -161q0 -129 -41 -213.5t-100.5 -124t-116.5 -39.5q-21 0 -35.5 23t-14.5 71t16 143q-36 -100 -91 -172t-111 -72q-29 1 -57 25t-45.5 69.5t-17.5 106.5q0 63 26.5 134t76.5 119.5t116 48.5q31 0 71 -8t63 -21q4 12 8.5 18t11.5 5
q13 -5 45 -15q-16 -63 -44 -300q-4 -29 -4 -60t5 -49t13 -18q33 0 74 39.5t69.5 108t28.5 149.5q0 98 -42.5 161.5t-111 92t-150.5 28.5q-103 0 -189 -48t-138 -142t-52 -226q0 -126 48.5 -206t128 -115.5t177.5 -35.5q46 0 94.5 10.5t77.5 23.5l14 -35q-31 -24 -95.5 -40.5
t-125.5 -16.5q-108 0 -193.5 48t-133.5 136.5t-48 204.5q0 149 64 262t171.5 174t233.5 61q91 0 165 -37.5zM400.5 392.5q-39.5 -61.5 -39.5 -150.5q0 -58 17.5 -109.5t58.5 -51.5q35 0 78.5 57t78 137.5t43.5 142.5q-15 16 -51 26t-67 10q-79 0 -118.5 -61.5z" />
    <glyph glyph-name="A" unicode="A" horiz-adv-x="723" 
d="M72 47l260 713h62l249 -713l80 -12v-35h-239v35l83 11l-60 177h-307l-61 -177l84 -11v-35h-222v35zM397 540l-43 133l-138 -402h274z" />
    <glyph glyph-name="B" unicode="B" horiz-adv-x="691" 
d="M138 47v665l-83 7v39h117l47 3q89 5 138 4q115 -1 175.5 -46.5t60.5 -123.5q0 -71 -37 -122t-111 -67q54 -1 99 -23t71.5 -63.5t26.5 -96.5q0 -66 -34 -118t-104.5 -82t-173.5 -30q-48 0 -153 7h-124v35zM283 421l68 1q77 0 124 40t47 117q0 70 -51 106t-131 36
q-30 0 -70 -1t-56 -6l-1 -289q24 -4 70 -4zM272 44.5q43 -5.5 75 -5.5q96 0 156 38t60 128q0 88 -50 127t-148 39h-63q-66 0 -88 -2v-312q15 -7 58 -12.5z" />
    <glyph glyph-name="C" unicode="C" horiz-adv-x="684" 
d="M520.5 757.5q39.5 -7.5 82.5 -19.5l32 -8l-7 -132h-40l-21 82q-33 21 -70.5 30t-88.5 9q-75 0 -141 -40t-106.5 -116.5t-40.5 -182.5q0 -97 33.5 -176.5t99 -127t157.5 -47.5q60 0 102.5 15.5t67.5 42.5l23 77h34v-133q-16 -1 -57 -14q-49 -15 -90 -23t-101 -8
q-98 0 -177 47t-124 131.5t-45 190.5q0 122 54 215.5t143.5 144t192.5 50.5q48 0 87.5 -7.5z" />
    <glyph glyph-name="D" unicode="D" horiz-adv-x="777" 
d="M139 47v664l-84 8v39h121q50 0 112 4q39 3 80 3q181 0 271.5 -96t90.5 -270q0 -124 -49 -215.5t-135 -140t-194 -48.5q-21 0 -75 2q-46 3 -100 3h-124v35zM352 40q83 2 151 38t108.5 111.5t40.5 188.5q0 166 -79 253t-221 87q-68 0 -138 -8v-656q72 -14 138 -14z" />
    <glyph glyph-name="E" unicode="E" horiz-adv-x="638" 
d="M136 47v664l-84 8v39h501l14 -136h-43l-19 88l-294 6v-294l197 3l11 78h41v-206h-41l-11 79l-197 3v-335l314 8l45 108l35 -10l-21 -150h-534v35z" />
    <glyph glyph-name="F" unicode="F" horiz-adv-x="599" 
d="M141 48v663l-83 8v39h516l9 -135l-38 -1l-22 86l-307 6v-304l229 4l16 73h40v-200h-45l-12 76l-228 4v-321l144 -8v-38h-308v35z" />
    <glyph glyph-name="G" unicode="G" horiz-adv-x="747" 
d="M544 757.5q44 -7.5 85 -18.5q14 -5 23 -6l-7 -135h-42l-20 83q-14 14 -61.5 25.5t-116.5 10.5q-75 -1 -140 -41t-104.5 -116.5t-39.5 -180.5q0 -92 31 -171.5t94.5 -128.5t154.5 -49q53 0 99.5 11t75.5 37v222l-128 7v39h271v-39l-65 -8v-259q-16 -3 -55 -14
q-64 -19 -114 -29.5t-104 -10.5q-98 0 -175 47.5t-120 131.5t-43 189q0 122 53 215.5t142.5 144.5t195.5 51q66 0 110 -7.5z" />
    <glyph glyph-name="H" unicode="H" horiz-adv-x="829" 
d="M137 47v665l-80 7v39h234v-39l-79 -7v-323h401v323l-81 7v39h232v-39l-76 -7v-665l83 -12v-35h-241v35l83 12v295h-401v-296l83 -11v-35h-241v35z" />
    <glyph glyph-name="I" unicode="I" horiz-adv-x="368" 
d="M146 47v665l-83 7v39h241v-39l-83 -7v-666l87 -11v-35h-247v35z" />
    <glyph glyph-name="J" unicode="J" horiz-adv-x="348" 
d="M303 719l-84 -7v-460l1 -108q0 -76 -7 -118q-16 -89 -82 -145.5t-149 -69.5l-22 30q59 17 101.5 50t60.5 79q14 39 18 89t4 137v516l-84 7v39h243v-39z" />
    <glyph glyph-name="K" unicode="K" horiz-adv-x="686" 
d="M134 46v666l-77 7v39h231v-39l-78 -7v-357l300 356l-76 8l-1 39h228v-39l-77 -8l-239 -273q16 -18 50 -69.5t69 -106.5q64 -102 102 -157t50 -54l79 -16v-35h-134q-11 0 -39 42.5t-83 133.5q-49 82 -83 135t-56 75l-90 -104v-236l87 -11v-35h-242v35z" />
    <glyph glyph-name="L" unicode="L" horiz-adv-x="604" 
d="M139 47v661l-84 7v43h250v-43l-90 -7l-1 -662l287 9l54 119l35 -18l-32 -156h-505v35z" />
    <glyph glyph-name="M" unicode="M" horiz-adv-x="960" 
d="M126 46l50 662l-97 8v42h202l192 -569l22 -67l22 69l183 567h187v-42l-94 -8l57 -661l91 -12v-35h-248v35l87 11l-43 489l-6 164l-23 -88l-212 -618h-25l-198 559q-18 48 -31 89l-21 61l-6 -182l-26 -473l98 -12v-35h-248v35z" />
    <glyph glyph-name="N" unicode="N" horiz-adv-x="810" 
d="M770 716l-85 -8v-708h-79l-340 532l-71 137l-1 -623l97 -11v-35h-239v35l85 11v662l-82 7v43h158l342 -551l73 -135v636l-81 8v42h223v-42z" />
    <glyph glyph-name="O" unicode="O" horiz-adv-x="756" 
d="M566.5 717.5q70.5 -47.5 109 -131.5t38.5 -191q0 -127 -46.5 -219.5t-124.5 -141t-173 -48.5q-96 0 -169.5 48t-114 132.5t-40.5 191.5q0 131 51 225.5t136 140.5q75 41 170 41q93 0 163.5 -47.5zM251.5 679.5q-57.5 -41.5 -90 -121.5t-32.5 -190q0 -93 31 -170
t89 -122.5t136 -45.5q73 0 129 42.5t86.5 122.5t30.5 190q0 91 -29 167.5t-85 122.5t-134 46q-74 0 -131.5 -41.5z" />
    <glyph glyph-name="P" unicode="P" horiz-adv-x="629" 
d="M139 47v661l-83 6v44h119q22 0 61 3q70 4 114 4q120 0 185.5 -51.5t65.5 -175.5q0 -75 -39 -131.5t-102.5 -86.5t-133.5 -30h-58q-41 0 -54 -2v-241l134 -12v-35h-305v35zM318 330q93 1 149.5 45.5t56.5 159.5q0 95 -52.5 141.5t-156.5 43.5l-28 -2q-6 0 -30 -2t-43 -7
v-373q40 -6 104 -6z" />
    <glyph glyph-name="Q" unicode="Q" horiz-adv-x="756" 
d="M565.5 717.5q70.5 -47.5 109 -132t38.5 -191.5q0 -111 -36.5 -196.5t-99 -137t-140.5 -67.5q20 -54 75 -76t121 -22q47 0 67 17l9 -49q-7 -14 -36.5 -24.5t-69.5 -10.5q-78 0 -134 35.5t-78 122.5h-15q-99 -1 -174.5 47t-116 133.5t-39.5 191.5q0 123 45 213.5t121 138.5
q84 55 190 55q93 0 163.5 -47.5zM251 679.5q-58 -41.5 -90.5 -121t-32.5 -190.5q0 -93 31.5 -170t89.5 -122.5t136 -45.5q73 0 128.5 42.5t86 122.5t30.5 190q0 92 -29 168.5t-85 122t-133 45.5q-74 0 -132 -41.5z" />
    <glyph glyph-name="R" unicode="R" horiz-adv-x="687" 
d="M508 719.5q65 -45.5 65 -157.5q0 -75 -46 -132t-121 -81l5 -1q36 -13 70 -62t77 -128q30 -56 47.5 -82t31.5 -29l55 -12v-35h-126q-11 0 -27 26.5t-45 83.5q-52 106 -95 167t-90 56h-95v-286l105 -12v-35h-276v35l96 12v660l-84 7v44h128q7 0 41 2q65 5 99 5
q120 0 185 -45.5zM269 720.5q-33 -0.5 -55 -7.5v-333q21 -2 50.5 -3t53.5 -1q84 1 129.5 46t45.5 130q0 86 -41.5 129.5t-140.5 39.5q-9 0 -42 -0.5z" />
    <glyph glyph-name="S" unicode="S" horiz-adv-x="595" 
d="M163 2.5q-64 13.5 -87 27.5v147h36l26 -96q28 -27 74 -39t96 -12q67 0 116 34.5t49 105.5q0 42 -25.5 75t-63.5 58t-103 59q-61 31 -102 59t-69 67.5t-28 89.5q0 64 36.5 106.5t90 61.5t106.5 19q119 0 183 -38v-130h-33l-33 94q-37 33 -126 33q-35 0 -70.5 -13.5
t-60 -44.5t-24.5 -79q0 -52 43.5 -89t124.5 -78q75 -38 118 -65.5t74.5 -68t31.5 -94.5q0 -103 -70 -153t-178 -50q-68 0 -132 13.5z" />
    <glyph glyph-name="T" unicode="T" horiz-adv-x="610" 
d="M275 47v666l-195 -8l-32 -88l-34 -1l12 142h573l-1 -144l-33 -4l-21 95l-194 8v-666l133 -12v-35h-332v35z" />
    <glyph glyph-name="U" unicode="U" horiz-adv-x="768" 
d="M745 719l-77 -8v-380q0 -177 -76 -261t-206 -84q-157 0 -225.5 82.5t-68.5 253.5l1 390l-77 7v39h239v-39l-87 -8v-392q0 -162 61.5 -227t171.5 -65q104 0 155 78.5t51 225.5v380l-88 8v39h226v-39z" />
    <glyph glyph-name="V" unicode="V" horiz-adv-x="692" 
d="M2 719v39h249v-39l-94 -7l184 -539l32 -97l27 99l161 537l-81 7v39h212v-39l-64 -7l-240 -722h-57l-262 722z" />
    <glyph glyph-name="W" unicode="W" horiz-adv-x="1016" 
d="M1 719v39h248v-39l-99 -7l167 -530q14 -42 31 -95l30 89l112 446l-28 90l-82 7v39h253v-39l-89 -7l143 -540l24 -91l25 109l137 522l-88 7v39h227v-39l-75 -7l-210 -722h-59l-149 527l-146 -527h-63l-243 722z" />
    <glyph glyph-name="X" unicode="X" horiz-adv-x="686" 
d="M93 46l214 339l-206 327l-74 7v39h258v-39l-92 -7l166 -283l164 283l-80 7v39h220v-39l-68 -7l-208 -314l214 -352l85 -11v-35h-268v35l97 12l-183 299l-167 -300l96 -11v-35h-255v35z" />
    <glyph glyph-name="Y" unicode="Y" horiz-adv-x="653" 
d="M301 47v273l-237 392l-58 7v39h225v-39l-81 -8l166 -302l26 -51l24 52l152 301l-84 8v39h212v-39l-65 -12l-205 -391v-269l101 -12v-35h-273v35z" />
    <glyph glyph-name="Z" unicode="Z" horiz-adv-x="658" 
d="M620 724l-431 -613l-52 -66l395 16l55 123l42 -9l-33 -175h-535l-12 36l436 617l50 61l-372 -9l-41 -109l-43 7l14 155h515z" />
    <glyph glyph-name="bracketleft" unicode="[" horiz-adv-x="402" 
d="M100.5 796q5.5 23 22 32t51.5 9q33 0 59 -4t65 -12v-35h-141v-821h141v-35q-42 -10 -67.5 -14t-60.5 -4q-32 0 -47.5 9t-21.5 31t-6 66v707q0 48 5.5 71z" />
    <glyph glyph-name="backslash" unicode="\" horiz-adv-x="397" 
d="M368 -177h-76l-277 958h75z" />
    <glyph glyph-name="bracketright" unicode="]" horiz-adv-x="403" 
d="M246 786h-141v35q39 8 64.5 12t58.5 4q35 0 51.5 -9t22.5 -32t6 -71v-707q0 -44 -6 -66t-21.5 -31t-47.5 -9q-34 0 -60.5 4t-67.5 14v35h141v821z" />
    <glyph glyph-name="asciicircum" unicode="^" horiz-adv-x="627" 
d="M351 748l191 -473h-69l-164 390l-163 -390h-61l189 473h77z" />
    <glyph glyph-name="underscore" unicode="_" horiz-adv-x="691" 
d="M701 -153h-711v59h711v-59z" />
    <glyph glyph-name="grave" unicode="`" horiz-adv-x="432" 
d="M254 671q-58 38 -97.5 69t-59.5 62l56 61l147 -186l-22 -22z" />
    <glyph glyph-name="a" unicode="a" horiz-adv-x="554" 
d="M407 516q51 -39 51 -137l-1 -343h63v-28q-36 -18 -84 -18q-22 0 -32.5 6t-13.5 19.5t-3 41.5q-56 -68 -172 -68q-43 0 -78.5 19t-56 53t-20.5 77q0 67 53 108.5t127.5 59t144.5 17.5v47q0 75 -37 103t-106 28q-30 0 -72.5 -11.5t-74.5 -28.5l-14 36q33 27 91 42.5
t99 15.5q85 0 136 -39zM212 250.5q-79 -29.5 -79 -98.5q0 -112 127 -112q36 0 70.5 16t52.5 33l1 191q-93 0 -172 -29.5z" />
    <glyph glyph-name="b" unicode="b" horiz-adv-x="613" 
d="M19 742v35l142 15l17 -8v-289q36 30 76.5 49t93.5 19q56 0 104.5 -27t79 -87t30.5 -154q0 -84 -34.5 -154.5t-96.5 -112.5t-142 -42q-43 0 -83.5 6.5t-68 15.5t-32.5 16v704zM218 40.5q33 -9.5 80 -9.5q49 0 92.5 27t71 84t27.5 142q0 114 -50 167.5t-123 53.5
q-42 0 -78.5 -16t-59.5 -38v-382q7 -19 40 -28.5z" />
    <glyph glyph-name="c" unicode="c" horiz-adv-x="506" 
d="M400 554.5q34 -6.5 51 -17.5v-108h-36l-21 60q-16 12 -39.5 17.5t-47.5 5.5q-50 0 -91.5 -24t-67 -72t-25.5 -118q0 -87 27.5 -143.5t70.5 -82.5t89 -26q37 0 79.5 9.5t63.5 23.5l14 -37q-26 -24 -77.5 -38t-105.5 -14q-73 0 -125 35.5t-79 98t-27 141.5q0 90 36.5 157.5
t99 103t138.5 35.5q39 0 73 -6.5z" />
    <glyph glyph-name="d" unicode="d" horiz-adv-x="614" 
d="M507 782v-746h66v-32q-16 -8 -43 -13t-48 -5q-30 0 -39 13t-7 51q-22 -23 -66 -42.5t-106 -19.5q-56 0 -104.5 29.5t-78 91.5t-29.5 155q0 85 36.5 153.5t100 107t140.5 38.5q57 0 104 -18v181l-101 13v36l156 17zM227.5 494.5q-44.5 -23.5 -74 -77.5t-29.5 -140
q0 -77 23.5 -129t61.5 -76.5t83 -24.5q40 0 78 12.5t63 36.5v379q-34 43 -114 43q-47 0 -91.5 -23.5z" />
    <glyph glyph-name="e" unicode="e" horiz-adv-x="554" 
d="M449.5 510.5q49.5 -54.5 52.5 -151.5q2 -35 -5 -85h-373q-1 -106 50.5 -168t146.5 -62q41 0 86 10t64 23l16 -35q-26 -24 -82 -39t-114 -15q-114 0 -177 77t-63 207q0 82 34 147.5t94.5 103.5t137.5 40q83 2 132.5 -52.5zM181.5 469.5q-46.5 -48.5 -55.5 -146.5h297l1 29
q0 121 -66 157q-28 9 -64 9q-66 0 -112.5 -48.5z" />
    <glyph glyph-name="f" unicode="f" horiz-adv-x="403" 
d="M160 44v443h-112v32l112 24v44q0 70 30.5 123t75.5 82t86 29q50 0 66 -8v-69q-8 5 -30.5 9.5t-53.5 4.5t-52.5 -9.5t-34.5 -40t-13 -88.5v-78h152v-55h-152v-444l113 -8v-35h-289v35z" />
    <glyph glyph-name="g" unicode="g" horiz-adv-x="583" 
d="M429 531q25 21 78 21h61v-61l-101 1q28 -44 28 -106q0 -61 -29.5 -106.5t-78.5 -69.5t-106 -24q-60 0 -105 19q-7 -15 -8.5 -32t-1.5 -41q0 -30 15 -44.5t52 -16.5q24 -3 126 -3q85 0 126.5 -24t52 -54.5t10.5 -68.5q0 -82 -66.5 -131t-181.5 -49q-101 0 -168 33.5
t-67 110.5q0 41 26.5 78.5t57.5 56.5q-26 9 -37.5 23t-13.5 26t-2 33t16 55.5t43 59.5q-80 49 -80 151q0 64 31 108.5t80.5 67t106.5 24.5q81 2 136 -37zM184 490.5q-36 -33.5 -36 -108.5q0 -68 37 -110.5t110 -42.5q63 0 94 35t31 109q0 77 -35 114t-105 37
q-60 0 -96 -33.5zM139 -90q0 -65 49 -93.5t121 -28.5q83 0 132 29t49 85q0 33 -11.5 54.5t-44.5 34t-95 12.5h-69q-55 0 -93 8q-38 -38 -38 -101z" />
    <glyph glyph-name="h" unicode="h" horiz-adv-x="685" 
d="M140 44v681l-86 14v36l138 17l21 -11l-1 -220v-82q42 33 100 55t97 22q66 0 101.5 -25.5t50 -81.5t13.5 -154v-251l74 -9v-35h-231v35l83 9v214q0 91 -8.5 140.5t-35 74t-80.5 24.5q-38 0 -83.5 -13t-79.5 -36v-404l77 -9v-35h-224v35z" />
    <glyph glyph-name="i" unicode="i" horiz-adv-x="329" 
d="M210 779.5q13 -14.5 13 -36.5q0 -26 -18 -43t-42 -17q-21 0 -36 14t-15 36q0 25 18.5 43t41.5 18q25 0 38 -14.5zM217 545v-501l81 -9v-35h-235v35l84 9v426l-70 27v25l122 32z" />
    <glyph glyph-name="j" unicode="j" horiz-adv-x="315" 
d="M209.5 787q12.5 -14 12.5 -37q0 -26 -18 -42.5t-42 -16.5q-21 0 -36 13.5t-15 37.5q0 25 18.5 42t41.5 17q26 0 38.5 -14zM217 545v-551q0 -115 -46 -179t-126 -64q-11 0 -27.5 1t-19.5 4v57q14 -5 52 -5q34 0 54.5 17t31 58.5t10.5 115.5v471l-73 27v25l126 32z" />
    <glyph glyph-name="k" unicode="k" horiz-adv-x="617" 
d="M140 44v683l-88 13v35l145 17l17 -10v-424l-2 -92l238 238l-71 6v42h213v-42l-71 -7l-179 -176l216 -283l72 -9v-35h-225v35l73 10l-180 246l-86 -82l2 -111v-55l74 -8v-35h-229v35z" />
    <glyph glyph-name="l" unicode="l" horiz-adv-x="339" 
d="M147 44v681l-80 14v36l136 17l18 -11v-738l87 -8v-35h-246v35z" />
    <glyph glyph-name="m" unicode="m" horiz-adv-x="1005" 
d="M138 44v422l-71 31v25l118 32l18 -10v-67q37 29 95 53t106 25q52 2 83 -13.5t49 -53.5q34 25 93 45.5t105 21.5q61 3 96 -19.5t50 -73.5t15 -140v-278l83 -9v-35h-226v35l69 9v264q0 70 -9 110t-34 60t-73 20q-71 0 -156 -47q12 -49 12 -125v-283l77 -8v-35h-224v35l74 9
v273q0 67 -9 105t-33 56.5t-70 18.5q-34 0 -77.5 -15t-85.5 -43v-395l75 -9v-35h-218v35z" />
    <glyph glyph-name="n" unicode="n" horiz-adv-x="678" 
d="M138 43v423l-71 31v25l117 32l19 -10v-67q36 29 94.5 53.5t105.5 25.5q61 3 97 -19.5t52 -74t16 -138.5v-281l79 -8v-35h-228v35l75 9v267q0 67 -10 107.5t-35 60t-71 19.5q-38 0 -80.5 -15t-84.5 -44v-395l76 -9v-35h-220v35z" />
    <glyph glyph-name="o" unicode="o" horiz-adv-x="595" 
d="M442 524.5q53 -38.5 78 -102.5t25 -142q-1 -84 -34.5 -150.5t-90.5 -104t-125 -37.5q-84 0 -138.5 40t-79.5 106t-25 145q0 85 36 149.5t95.5 99.5t126.5 35q79 0 132 -38.5zM172 459q-42 -60 -42 -170t44 -182t129 -72q83 0 123 60.5t40 179.5q0 109 -42.5 176.5
t-126.5 67.5q-83 0 -125 -60z" />
    <glyph glyph-name="p" unicode="p" horiz-adv-x="645" 
d="M484.5 535.5q48.5 -27.5 79 -88t30.5 -156.5q0 -83 -35 -152t-97.5 -109.5t-142.5 -40.5q-56 0 -111 20l2 -141v-74l102 -9v-35h-248v35l72 10v671l-70 31v25l116 32l19 -10v-55q30 30 76 52t102 22q57 0 105.5 -27.5zM269.5 493.5q-32.5 -16.5 -61.5 -40.5l1 -377
q13 -20 42 -32.5t74 -13.5q51 0 95 26.5t71.5 85t27.5 148.5q0 113 -49 166.5t-121 53.5q-47 0 -79.5 -16.5z" />
    <glyph glyph-name="q" unicode="q" horiz-adv-x="601" 
d="M391.5 557.5q28.5 -5.5 47.5 -13.5l50 11l18 -8v-748l69 -9v-40h-248v40l105 10v177l2 76q-70 -67 -174 -67q-43 0 -90 21t-83.5 83t-36.5 176q0 83 36 150.5t100.5 107t146.5 39.5q29 0 57.5 -5.5zM222.5 491.5q-44.5 -27.5 -72 -83.5t-27.5 -137q0 -111 45 -169.5
t120 -58.5q51 0 88.5 15.5t56.5 36.5v383q-20 23 -48 32t-66 9q-52 0 -96.5 -27.5z" />
    <glyph glyph-name="r" unicode="r" horiz-adv-x="449" 
d="M139 44v422l-72 31v25l116 32l20 -10v-69q22 27 77 53.5t100 26.5q32 0 48 -2v-82q-4 1 -17 5.5t-29 6.5t-37 2q-68 0 -132 -41v-400l146 -9v-35h-305v35z" />
    <glyph glyph-name="s" unicode="s" horiz-adv-x="509" 
d="M119 137l16 -64q26 -21 55 -30t66 -9q59 0 94.5 25t35.5 75q0 26 -14.5 44t-36.5 30.5t-60 29.5l-35 16q-69 32 -109 68.5t-40 92.5q0 49 29 82t73.5 49.5t91.5 16.5q44 0 82 -10.5t60 -25.5v-98h-32l-18 57q-34 34 -94 34q-57 0 -89.5 -24t-32.5 -70q0 -35 27 -56
t84 -49l25 -12q8 -4 57 -25.5t76 -55.5t27 -78q0 -77 -57.5 -119.5t-148.5 -42.5q-93 0 -167 42v107h35z" />
    <glyph glyph-name="t" unicode="t" horiz-adv-x="418" 
d="M209 546h173v-52h-174v-275q0 -79 4 -113.5t16.5 -47.5t40.5 -13t60.5 10t45.5 19l13 -38q-19 -21 -64 -34.5t-81 -13.5q-52 0 -79.5 32t-27.5 102v372h-76v31l30 7q28 6 38 11t18 22q7 23 15 61.5t9 50.5h39v-131z" />
    <glyph glyph-name="u" unicode="u" horiz-adv-x="629" 
d="M57 503v31l109 21l15 -9v-335q0 -62 9 -96.5t33.5 -51.5t71.5 -17q46 0 90 22t64 42v379l-61 10v33l121 23l12 -8v-511h61v-33q-15 -7 -38.5 -12.5t-41.5 -5.5q-46 0 -46 38v45q-94 -78 -191 -78q-73 0 -107 29.5t-42 76t-9 133.5v264z" />
    <glyph glyph-name="v" unicode="v" horiz-adv-x="575" 
d="M1 505v41h202v-41l-67 -9l119 -286l48 -142l48 136l104 292l-66 8v42h186v-41l-55 -9l-200 -509h-51l-218 510z" />
    <glyph glyph-name="w" unicode="w" horiz-adv-x="818" 
d="M1 504v42h202v-42l-74 -9l105 -335l25 -96l21 97l102 385h66l105 -385l26 -98l25 94l88 339l-63 8v42h188v-41l-62 -10l-148 -508h-68l-114 397l-12 72l-19 -72l-108 -397h-62l-170 510z" />
    <glyph glyph-name="x" unicode="x" horiz-adv-x="563" 
d="M79 44l166 222l-172 231l-71 7v42h233v-42l-75 -7l110 -162l21 -33l23 38l106 157l-71 7v42h206v-42l-72 -8l-166 -222l174 -231l69 -8v-35h-231v35l75 8l-133 191l-24 -39l-105 -152l91 -8v-35h-227v35z" />
    <glyph glyph-name="y" unicode="y" horiz-adv-x="557" 
d="M111 -184q44 0 88.5 38.5t75.5 139.5h-17l-200 503l-57 7v42h216v-42l-77 -8l122 -342l41 -117l32 113l106 347l-80 7v42h203v-42l-58 -6q-37 -110 -68 -202t-55 -162q-40 -120 -52 -151q-42 -109 -86 -165.5t-105 -69.5q-30 3 -32 3q-10 0 -20 2t-15 4v64q20 -5 38 -5z
" />
    <glyph glyph-name="z" unicode="z" horiz-adv-x="522" 
d="M485 512l-304 -411l-48 -61l290 10l30 84h40l-9 -134h-425l-14 36l33 43l278 380l41 49l-267 -7l-27 -90h-35l1 135h406z" />
    <glyph glyph-name="braceleft" unicode="{" horiz-adv-x="495" 
d="M128.5 321q-40.5 21 -87.5 34v49q47 12 87.5 30.5t40.5 35.5v253q0 49 6 72.5t23 33t53 9.5q29 0 51 -3.5t41.5 -8t29.5 -6.5l-1 -35h-141v-311q0 -22 -14 -37.5t-34 -26.5t-64 -31q56 -26 84 -47.5t28 -50.5v-314h141l1 -36q-36 -9 -63.5 -13t-63.5 -4q-34 0 -50 9
t-21.5 32.5t-5.5 72.5v255q0 17 -40.5 38z" />
    <glyph glyph-name="bar" unicode="|" horiz-adv-x="414" 
d="M239 869v-960h-64v960h64z" />
    <glyph glyph-name="braceright" unicode="}" horiz-adv-x="459" 
d="M228 281q0 30 29 52t82 46q-7 4 -44 21.5t-52 35t-15 38.5v311h-141l-1 35q7 2 29.5 7.5t45 8t47.5 2.5q36 0 53 -9.5t23 -33t6 -72.5v-253q0 -17 40.5 -35.5t87.5 -30.5v-49q-47 -14 -87.5 -34.5t-40.5 -37.5v-255q0 -49 -5.5 -72t-22 -32.5t-50.5 -9.5q-36 0 -62.5 4
t-63.5 13l1 36h141v314z" />
    <glyph glyph-name="asciitilde" unicode="~" horiz-adv-x="611" 
d="M141.5 487q42.5 25 94.5 25q27 0 47 -12t46 -36q22 -20 37 -29.5t33 -9.5q54 0 106 54l31 -37q-26 -38 -69 -63t-94 -25q-27 0 -48.5 13t-45.5 36q-23 20 -38 29.5t-32 9.5q-32 0 -57 -15.5t-48 -39.5l-30 37q25 38 67.5 63z" />
    <glyph glyph-name="DEL" 
 />
    <glyph glyph-name="uni00A0" unicode="&#xa0;" horiz-adv-x="234" 
 />
    <glyph glyph-name="exclamdown" unicode="&#xa1;" horiz-adv-x="342" 
d="M213 684.5q11 -14.5 9 -35.5q-1 -24 -18.5 -39t-40.5 -14q-18 2 -31 14t-13 33q0 24 18 40t40 16q25 0 36 -14.5zM212 -195h-97l26 658h48z" />
    <glyph glyph-name="cent" unicode="&#xa2;" horiz-adv-x="539" 
d="M112.5 83.5q-48.5 74.5 -48.5 185.5q0 79 30 141.5t82.5 100.5t118.5 47l8 107h50l-7 -104q37 -1 68 -7.5t47 -16.5v-108h-36l-21 60q-16 12 -39.5 17.5t-47.5 5.5q-50 0 -91.5 -23.5t-67 -71t-25.5 -116.5q-1 -88 26.5 -145.5t71 -83.5t89.5 -26q37 0 79.5 9.5
t63.5 23.5l14 -37q-25 -23 -73 -36.5t-102 -15.5l-5 -95h-50l4 99q-90 15 -138.5 89.5z" />
    <glyph glyph-name="sterling" unicode="&#xa3;" horiz-adv-x="698" 
d="M519.5 755.5q30.5 -8.5 56.5 -29.5l-39 -74q-2 5 -20 20t-47 28t-64 13q-53 -1 -87 -51t-34 -179v-57h171v-60h-170v-27q0 -69 -7.5 -114.5t-21 -76t-36.5 -68.5q25 -1 86 -24q58 -21 92 -27q33 -5 55 -5q69 0 98 34t29 84q0 52 -38 80l37 70q59 -28 73 -110q3 -27 3 -33
q0 -62 -40 -111t-144 -54q-12 -1 -35 -1q-56 0 -99 12t-94 32q-30 12 -42.5 15.5t-22.5 1.5q-19 -26 -42.5 -42.5t-48.5 -16.5q-15 0 -27.5 8t-12.5 32q0 16 16.5 32.5t46 27t67.5 8.5q15 21 24.5 65t9.5 83v125h-94v60h94v58q0 75 29.5 139t82.5 102t122 38q43 1 73.5 -7.5
z" />
    <glyph glyph-name="currency" unicode="&#xa4;" horiz-adv-x="698" 
d="M235 482q50 37 110 37q33 0 64 -11t55 -32l84 84l33 -33l-86 -87q33 -46 33 -103q0 -63 -38 -111l86 -85l-34 -34l-85 86q-51 -38 -112 -38q-59 0 -108 35l-86 -85l-33 33l84 84q-39 48 -39 115q0 65 38 112l-85 86l33 33zM282 451.5q-29 -17.5 -46 -48t-17 -66.5
t17 -66.5t46 -48t63 -17.5t63 17.5t46 48t17 66.5t-17 66.5t-46 48t-63 17.5t-63 -17.5z" />
    <glyph glyph-name="yen" unicode="&#xa5;" horiz-adv-x="680" 
d="M303 47v146h-216v53h216v89l2 32h-218v53h191l-198 291l-66 8v39h230v-39l-78 -8l153 -236l26 -55h12l32 59q23 42 107 179l33 54l-74 7v39h210v-39l-69 -13l-189 -286h179v-53h-209l1 -34v-87h208v-53h-208v-146l99 -12v-35h-269v35z" />
    <glyph glyph-name="brokenbar" unicode="&#xa6;" horiz-adv-x="414" 
d="M239 869v-437h-64v437h64zM239 347v-438h-64v438h64z" />
    <glyph glyph-name="section" unicode="&#xa7;" horiz-adv-x="647" 
d="M454.5 850q48.5 -12 74.5 -27v-131h-35l-31 97q-15 15 -51 23t-79 8q-34 0 -71 -14.5t-63 -47t-26 -82.5q0 -38 24.5 -66.5t59.5 -48.5t98 -48q69 -31 110 -55t70 -60.5t29 -86.5q0 -43 -12 -85.5t-32 -69.5q35 -45 35 -97q0 -98 -71 -145.5t-179 -47.5q-68 0 -132.5 14
t-87.5 28v147h35l26 -94q32 -33 74 -42.5t99 -9.5q65 0 114.5 30.5t49.5 95.5q0 41 -24.5 71t-61 51.5t-97.5 49.5q-68 31 -108 54.5t-68 60t-28 86.5q0 41 14 81t38 66q-44 46 -44 107q0 66 37 111.5t91.5 67t104.5 21.5q69 0 117.5 -12zM175.5 472q-6.5 -25 -6.5 -49
q0 -38 24 -66.5t59.5 -48.5t97.5 -48q83 -37 120 -61q9 18 14 42.5t5 46.5q0 41 -25 71t-61 51t-98 50q-77 33 -112 57q-11 -20 -17.5 -45z" />
    <glyph glyph-name="dieresis" unicode="&#xa8;" horiz-adv-x="505" 
d="M98 700.5q-15 13.5 -15 37.5q0 25 19 43t42 18q27 0 40 -14.5t13 -37.5q0 -27 -19 -43.5t-44 -16.5q-21 0 -36 13.5zM320 700.5q-15 13.5 -15 37.5q0 25 18.5 43t41.5 18q27 0 40 -14.5t13 -37.5q0 -27 -18.5 -43.5t-43.5 -16.5q-21 0 -36 13.5z" />
    <glyph glyph-name="copyright" unicode="&#xa9;" horiz-adv-x="991" 
d="M699.5 881q94.5 -57 150 -152.5t55.5 -206.5q0 -110 -55.5 -205.5t-150 -152.5t-204.5 -57q-109 0 -203.5 57t-150.5 152.5t-56 205.5q0 111 55.5 206.5t150 152.5t204.5 57t204.5 -57zM317 837.5q-82 -49.5 -130 -133.5t-48 -182q0 -97 48 -181t130 -133.5t179 -49.5
t178.5 49.5t129 133.5t47.5 181q0 98 -47.5 182t-129 133.5t-178.5 49.5t-179 -49.5zM526 768q41 0 77.5 -7t48.5 -23v-93h-46l-21 61q-15 9 -33 13.5t-59 4.5q-63 -1 -100.5 -54t-37.5 -135q0 -56 22 -101t62 -70.5t92 -25.5q32 0 67 11.5t47 23.5l11 -29q-22 -25 -64 -42
t-92 -17q-105 0 -160.5 64.5t-55.5 168.5q0 65 32 120.5t81.5 89.5t98.5 39q8 1 30 1z" />
    <glyph glyph-name="ordfeminine" unicode="&#xaa;" horiz-adv-x="460" 
d="M305.5 767.5q33.5 -10.5 53.5 -42.5t20 -93l-1 -230h43v-31q-10 -5 -32 -10t-38 -5q-26 0 -32.5 12t-5.5 45q-26 -22 -61.5 -38t-94.5 -16q-24 0 -52 13t-48 39t-20 64q0 81 74 109t200 28v16q0 43 -13 64.5t-36.5 28.5t-62.5 7t-74 -9t-53 -24l-16 35q21 20 69 34t95 14
q52 0 85.5 -10.5zM164.5 555.5q-53.5 -18.5 -53.5 -66.5q0 -37 20 -59t53 -22q36 0 72 11.5t54 29.5v125q-92 0 -145.5 -18.5z" />
    <glyph glyph-name="guillemotleft" unicode="&#xab;" horiz-adv-x="912" 
d="M432 521l20 -35l-262 -186l262 -180l-20 -36l-311 184v62zM769 521l21 -35l-263 -186l263 -180l-21 -36l-312 184v62z" />
    <glyph glyph-name="logicalnot" unicode="&#xac;" horiz-adv-x="590" 
d="M505 417v-256h-63v204h-357v52h420z" />
    <glyph glyph-name="uni00AD" unicode="&#xad;" horiz-adv-x="595" 
d="M85 359zM513 417v-58h-428v58h428z" />
    <glyph glyph-name="registered" unicode="&#xae;" horiz-adv-x="991" 
d="M699.5 881q94.5 -57 150 -152.5t55.5 -206.5q0 -110 -55.5 -205.5t-150 -152.5t-204.5 -57q-109 0 -203.5 57t-150.5 152.5t-56 205.5q0 111 55.5 206.5t150 152.5t204.5 57t204.5 -57zM317 837.5q-82 -49.5 -130 -133.5t-48 -182q0 -97 48 -181t130 -133.5t179 -49.5
t178.5 49.5t129 133.5t47.5 181q0 98 -47.5 182t-129 133.5t-178.5 49.5t-179 -49.5zM631.5 731q41.5 -30 43.5 -84q0 -121 -128 -146q26 -16 42 -37.5t38 -58.5q22 -40 40.5 -59.5t48.5 -18.5v-39h-60q-34 0 -52.5 24t-40.5 74q-21 50 -40.5 78.5t-53.5 41.5
q-5 -2 -18.5 -6.5t-23.5 -5.5v-159l49 -11v-35h-166v35l48 12v372l-48 10v40h73q32 0 47 1q32 2 79 2q81 0 122.5 -30zM479.5 721q-13.5 0 -26 -1.5t-27.5 -4.5v-180q22 -4 74 -4q45 0 74.5 28.5t29.5 66.5q0 48 -29 71.5t-78 23.5h-17.5z" />
    <glyph glyph-name="macron" unicode="&#xaf;" horiz-adv-x="427" 
d="M348 777v-60h-257v60h257z" />
    <glyph glyph-name="degree" unicode="&#xb0;" horiz-adv-x="318" 
d="M235.5 757.5q35.5 -20.5 56.5 -55.5t21 -76t-20.5 -76.5t-56 -56t-77.5 -20.5q-41 0 -76.5 20.5t-56 56t-20.5 76.5q0 40 20.5 75t56 56t76.5 21t76.5 -20.5zM83 702q-30 -30 -30 -76q0 -44 31 -75.5t75 -31.5q46 0 76 30.5t30 76.5q0 44 -31 75t-75 31q-46 0 -76 -30z
" />
    <glyph glyph-name="plusminus" unicode="&#xb1;" horiz-adv-x="614" 
d="M278 359l-80 -3h-113v61h113l80 -5l-2 81v116h61v-116l-5 -81l68 5h128v-61h-128l-68 4l5 -80v-124h-61v124zM522 83v-58h-431v58h431z" />
    <glyph glyph-name="uni00B2" unicode="&#xb2;" horiz-adv-x="614" 
d="M202 475q74 48 130.5 104.5t56.5 103.5q0 51 -32.5 75.5t-82.5 24.5q-46 0 -95.5 -23t-77.5 -61l-32 37q16 25 49.5 50t78.5 41.5t94 16.5q68 0 110 -21.5t59 -51.5t17 -59q0 -87 -78.5 -159t-230.5 -151l271 14l56 75l41 -18l-28 -121h-419l-18 47q57 28 131 76z" />
    <glyph glyph-name="uni00B3" unicode="&#xb3;" horiz-adv-x="559" 
d="M181.5 360q38.5 -7 72.5 -7q73 1 110.5 32.5t37.5 79.5q0 43 -30.5 65.5t-83.5 22.5l-28 -4l-70 -14v50q79 13 125 47.5t46 84.5q0 34 -27.5 50.5t-68.5 16.5q-36 0 -81.5 -14.5t-69.5 -33.5l-20 38q33 25 90 44t108 19q70 0 109.5 -34.5t39.5 -83.5q0 -44 -29 -77.5
t-87 -53.5q57 4 92 -17t49 -52t14 -59q0 -45 -26.5 -81.5t-77.5 -57t-120 -20.5q-30 0 -70 8.5t-74 23.5v47q31 -13 69.5 -20z" />
    <glyph glyph-name="acute" unicode="&#xb4;" horiz-adv-x="432" 
d="M257 863l56 -61q-38 -59 -181 -147l-22 22z" />
    <glyph glyph-name="paragraph" unicode="&#xb6;" horiz-adv-x="642" 
d="M357.5 766q37.5 -2 60.5 -3l87 -5h82v-40l-82 -13v-659l70 -12v-34h-138l-1 703l-109 1v-704h-163v34l97 12v287q-105 0 -155.5 53t-50.5 167q0 98 62 156.5t187 58.5q16 0 53.5 -2z" />
    <glyph glyph-name="periodcentered" unicode="&#xb7;" horiz-adv-x="327" 
d="M206 452q11 -13 11 -33q0 -24 -17 -40t-39 -16q-20 0 -34 12.5t-14 33.5q0 24 18 40t40 16q24 0 35 -13z" />
    <glyph glyph-name="cedilla" unicode="&#xb8;" horiz-adv-x="297" 
d="M153 -43q0 -12 1 -18q65 1 98 -26.5t33 -65.5q0 -46 -33.5 -73.5t-86.5 -30.5l-23 -1q-32 0 -50 5t-23 6l1 41q15 -3 31 -5.5t28 -2.5q36 0 57.5 12t21.5 50q0 27 -22 41.5t-65 14.5q-8 0 -15.5 -1t-10.5 -1q0 24 3.5 45.5t11.5 51.5h47q-4 -22 -4 -42z" />
    <glyph glyph-name="uni00B9" unicode="&#xb9;" horiz-adv-x="528" 
d="M244 397v346q-87 -25 -140 -37l-8 40q45 14 115 47.5t86 48.5l24 -8l-2 -437l132 -11v-35h-345v35z" />
    <glyph glyph-name="ordmasculine" unicode="&#xba;" horiz-adv-x="477" 
d="M384.5 721.5q50.5 -56.5 50.5 -154.5q0 -70 -30.5 -117t-76.5 -69t-93 -22q-53 0 -96.5 24t-68.5 70t-25 110q0 72 30 120.5t76 71.5t94 23q89 0 139.5 -56.5zM153 695q-31 -40 -31 -121q0 -78 31.5 -125t79.5 -47q62 0 93 34.5t31 121.5q0 82 -30 129.5t-85 47.5
q-58 0 -89 -40z" />
    <glyph glyph-name="guillemotright" unicode="&#xbb;" horiz-adv-x="912" 
d="M386 304l-262 180l21 37l310 -183v-64l-310 -190l-21 34zM460 484l21 37l310 -183v-64l-310 -190l-21 34l262 186z" />
    <glyph glyph-name="onequarter" unicode="&#xbc;" horiz-adv-x="1276" 
d="M807 901l-365 -1068l-53 16l366 1069zM255 397v346q-94 -27 -140 -37l-8 40q45 14 115 47.5t86 48.5l23 -8l-1 -437l132 -11v-35h-345v35zM988 548l46 -40l-256 -331l-29 -40l221 14l1 135l71 10v-140l139 9l3 -69h-142v-183h-72l1 183h-269l-23 38l282 413z" />
    <glyph glyph-name="onehalf" unicode="&#xbd;" horiz-adv-x="1276" 
d="M804 904l-365 -1071l-53 10l366 1075zM255 397v346q-94 -27 -140 -37l-8 40q45 14 115 47.5t86 48.5l23 -8l-1 -437l132 -11v-35h-345v35zM837 123q74 48 130.5 104t56.5 103q0 52 -32.5 76.5t-83.5 24.5q-46 0 -95.5 -23t-77.5 -61l-32 36q16 26 49.5 51t78.5 41.5
t94 16.5q69 0 111 -22t59 -52.5t17 -59.5q0 -87 -79 -158t-230 -150l270 14l56 75l41 -18l-28 -122h-419l-17 48q57 28 131 76z" />
    <glyph glyph-name="threequarters" unicode="&#xbe;" horiz-adv-x="1279" 
d="M809 904l-365 -1071l-53 10l366 1075zM173.5 360q38.5 -7 72.5 -7q73 1 110.5 32.5t37.5 79.5q0 43 -30.5 65.5t-83.5 22.5l-28 -4l-70 -14v50q79 13 125 47.5t46 84.5q0 34 -27.5 50.5t-68.5 16.5q-36 0 -81.5 -14.5t-69.5 -33.5l-20 38q33 25 90 44t108 19
q70 0 109.5 -34.5t39.5 -83.5q0 -44 -29 -77.5t-87 -53.5q57 4 92 -17t49 -52t14 -59q0 -45 -26.5 -81.5t-77.5 -57t-120 -20.5q-30 0 -70 8.5t-74 23.5v47q31 -13 69.5 -20zM988 548l45 -40l-255 -331l-29 -40l221 14l1 135l71 10v-140l139 9l2 -69h-141v-183h-72l1 183
h-269l-23 38l282 413z" />
    <glyph glyph-name="questiondown" unicode="&#xbf;" horiz-adv-x="491" 
d="M260.5 686q11.5 -13 11.5 -33q0 -26 -17 -42t-40 -16q-19 0 -33 13t-14 33q0 25 18 41.5t40 16.5q23 0 34.5 -13zM260 454q15 -12 35.5 -44t35 -67.5t14.5 -58.5q-1 -27 -34 -49t-97 -50q-23 -10 -45.5 -21t-35.5 -20q-17 -11 -23 -19.5t-6 -21.5q0 -64 34 -118.5
t89.5 -86.5t116.5 -32q21 0 45.5 3t38.5 8l-1 -59q-7 -9 -34.5 -15.5t-56.5 -6.5q-102 0 -168 42.5t-96 107t-31 130.5q0 27 3 41t14.5 26.5t36.5 28.5q21 13 71 37q54 26 79.5 44t25.5 43q0 30 -10.5 61.5t-30.5 75.5l-9 21h39z" />
    <glyph glyph-name="Agrave" unicode="&#xc0;" horiz-adv-x="723" 
d="M272.5 822.5q-47.5 24.5 -91.5 54.5l60 61l143 -132l-20 -20q-44 12 -91.5 36.5zM72 47l260 713h62l249 -713l80 -12v-35h-239v35l83 11l-60 177h-307l-61 -177l84 -11v-35h-222v35zM397 540l-43 133l-138 -402h274z" />
    <glyph glyph-name="Aacute" unicode="&#xc1;" horiz-adv-x="723" 
d="M482 938l60 -61q-95 -66 -182 -91l-20 20zM72 47l260 713h62l249 -713l80 -12v-35h-239v35l83 11l-60 177h-307l-61 -177l84 -11v-35h-222v35zM397 540l-43 133l-138 -402h274z" />
    <glyph glyph-name="Acircumflex" unicode="&#xc2;" horiz-adv-x="723" 
d="M322 938h80l127 -127l-37 -20l-130 91l-133 -91l-33 19zM72 47l260 713h62l249 -713l80 -12v-35h-239v35l83 11l-60 177h-307l-61 -177l84 -11v-35h-222v35zM397 540l-43 133l-138 -402h274z" />
    <glyph glyph-name="Atilde" unicode="&#xc3;" horiz-adv-x="723" 
d="M226.5 915q36.5 23 74.5 23q22 0 38 -9.5t35 -27.5q17 -16 29 -23.5t28 -7.5q27 0 50.5 12.5t41.5 32.5l21 -32q-20 -34 -56.5 -57t-74.5 -23q-22 0 -37.5 9.5t-34.5 27.5q-16 16 -28.5 24t-28.5 8q-26 0 -50.5 -13t-42.5 -32l-21 31q20 34 56.5 57zM72 47l260 713h62
l249 -713l80 -12v-35h-239v35l83 11l-60 177h-307l-61 -177l84 -11v-35h-222v35zM397 540l-43 133l-138 -402h274z" />
    <glyph glyph-name="Adieresis" unicode="&#xc4;" horiz-adv-x="723" 
d="M294 917q13 -15 13 -38q0 -27 -19 -44.5t-43 -17.5q-21 0 -36.5 15t-15.5 38q0 25 19.5 43.5t42.5 18.5q26 0 39 -15zM516 917q13 -15 13 -38q0 -27 -19 -44.5t-44 -17.5q-21 0 -36.5 14.5t-15.5 37.5q0 26 19.5 44.5t42.5 18.5q27 0 40 -15zM643 47l80 -12v-35h-239v35
l83 11l-60 177h-307l-61 -177l84 -11v-35h-222v35l71 12l260 713h62zM216 271h274l-93 269l-43 133z" />
    <glyph glyph-name="Aring" unicode="&#xc5;" horiz-adv-x="723" 
d="M446.5 905.5q35.5 -32.5 35.5 -79.5q0 -35 -21 -62.5t-55 -40.5l237 -676l80 -12v-35h-239v35l83 11l-60 177h-307l-61 -177l84 -11v-35h-222v35l71 12l246 675q-35 13 -56 40.5t-21 63.5q0 46 35 79t85 33t85.5 -32.5zM311 871.5q-21 -18.5 -21 -45.5q0 -28 20.5 -46.5
t50.5 -18.5t50.5 18.5t20.5 45.5q0 28 -21 46.5t-50 18.5t-50 -18.5zM216 271h274l-93 269l-43 133z" />
    <glyph glyph-name="AE" unicode="&#xc6;" horiz-adv-x="947" 
d="M70 47l288 711h463l14 -136l-39 -1l-21 90l-323 5l88 -296l209 3l12 79h37v-201h-37l-12 74l-196 2l99 -331l177 6l46 107l33 -19l-22 -140h-403v35l84 12l-58 188h-300l-71 -189l86 -11v-35h-223v35zM398 593l-18 92l-153 -404h268z" />
    <glyph glyph-name="Ccedilla" unicode="&#xc7;" horiz-adv-x="685" 
d="M520.5 757.5q39.5 -7.5 82.5 -19.5l32 -8l-7 -132h-40l-21 82q-33 21 -70.5 30t-87.5 9q-76 0 -142 -40t-106.5 -116.5t-40.5 -182.5q0 -97 33.5 -176.5t99 -127t157.5 -47.5q59 0 102.5 15.5t67.5 42.5l23 77h34v-133q-13 -1 -31.5 -6.5t-23.5 -6.5q-42 -13 -81 -21
t-95 -10q-2 -18 -2 -28l1 -20q65 1 98.5 -26.5t33.5 -65.5q0 -46 -34 -73.5t-87 -30.5l-23 -1q-31 0 -49 5t-23 6l1 41q15 -3 31 -5.5t28 -2.5q36 0 57.5 12t21.5 50q0 27 -22.5 41.5t-64.5 14.5q-9 0 -16.5 -1t-10.5 -1q2 43 12 86q-90 7 -162 55.5t-112.5 129.5t-40.5 182
q0 122 53.5 215t143 144t193.5 51q48 0 87.5 -7.5z" />
    <glyph glyph-name="Egrave" unicode="&#xc8;" horiz-adv-x="638" 
d="M173 877l59 61l143 -132l-20 -20q-82 23 -182 91zM136 47v664l-84 8v39h501l14 -136h-43l-19 88l-294 6v-294l197 3l11 78h41v-206h-41l-11 79l-197 3v-335l314 8l45 108l35 -10l-21 -150h-534v35z" />
    <glyph glyph-name="Eacute" unicode="&#xc9;" horiz-adv-x="638" 
d="M473 938l59 -61q-96 -67 -180 -91l-21 20zM136 47v664l-84 8v39h501l14 -136h-43l-19 88l-294 6v-294l197 3l11 78h41v-206h-41l-11 79l-197 3v-335l314 8l45 108l35 -10l-21 -150h-534v35z" />
    <glyph glyph-name="Ecircumflex" unicode="&#xca;" horiz-adv-x="638" 
d="M312 938h80l128 -127l-38 -20l-130 91l-133 -91l-33 19zM136 47v664l-84 8v39h501l14 -136h-43l-19 88l-294 6v-294l197 3l11 78h41v-206h-41l-11 79l-197 3v-335l314 8l45 108l35 -10l-21 -150h-534v35z" />
    <glyph glyph-name="Edieresis" unicode="&#xcb;" horiz-adv-x="638" 
d="M285.5 917q12.5 -15 12.5 -38q0 -27 -19 -44.5t-43 -17.5q-21 0 -36.5 15t-15.5 38q0 25 19.5 43.5t42.5 18.5q27 0 39.5 -15zM506.5 917q13.5 -15 13.5 -38q0 -27 -19 -44.5t-44 -17.5q-21 0 -36.5 14.5t-15.5 37.5q0 26 19.5 44.5t42.5 18.5q26 0 39.5 -15zM567 622
h-43l-19 88l-294 6v-294l197 3l11 78h41v-206h-41l-11 79l-197 3v-335l314 8l45 108l35 -10l-21 -150h-534v35l86 12v664l-84 8v39h501z" />
    <glyph glyph-name="Igrave" unicode="&#xcc;" horiz-adv-x="368" 
d="M5 877l59 61l143 -132l-20 -20q-83 24 -182 91zM146 47v665l-83 7v39h241v-39l-83 -7v-666l87 -11v-35h-247v35z" />
    <glyph glyph-name="Iacute" unicode="&#xcd;" horiz-adv-x="368" 
d="M306 938l59 -61q-96 -67 -180 -91l-21 20zM146 47v665l-83 7v39h241v-39l-83 -7v-666l87 -11v-35h-247v35z" />
    <glyph glyph-name="Icircumflex" unicode="&#xce;" horiz-adv-x="368" 
d="M145 938h80l127 -127l-36 -20l-131 91l-134 -91l-32 19zM146 47v665l-83 7v39h241v-39l-83 -7v-666l87 -11v-35h-247v35z" />
    <glyph glyph-name="Idieresis" unicode="&#xcf;" horiz-adv-x="368" 
d="M119 917q13 -15 13 -38q0 -27 -19 -44.5t-44 -17.5q-21 0 -36.5 15t-15.5 38q0 25 19.5 43.5t42.5 18.5q27 0 40 -15zM339 917q13 -15 13 -38q0 -27 -19 -44.5t-44 -17.5q-21 0 -36.5 14.5t-15.5 37.5q0 26 19.5 44.5t43.5 18.5q26 0 39 -15zM304 719l-83 -7v-666l87 -11
v-35h-247v35l85 12v665l-83 7v39h241v-39z" />
    <glyph glyph-name="Eth" unicode="&#xd0;" horiz-adv-x="777" 
d="M139 47v316h-89v60h89v288l-84 8v39h121q49 0 111 4q39 3 81 3q181 0 271.5 -96.5t90.5 -269.5q0 -124 -49 -215.5t-135 -140t-194 -48.5q-21 0 -75 2q-46 3 -100 3h-124v35zM352 40q83 2 151 38t108.5 111.5t40.5 188.5q0 166 -79 253t-221 87q-68 0 -138 -8v-287h129
v-60h-129v-309q72 -14 138 -14z" />
    <glyph glyph-name="Ntilde" unicode="&#xd1;" horiz-adv-x="810" 
d="M52 0zM770 716l-85 -8v-708h-79l-340 532l-71 137l-1 -623l97 -11v-35h-239v35l85 11v662l-82 7v43h158l342 -551l73 -135v636l-81 8v42h223v-42zM268 915q36 23 74 23q23 0 39 -9.5t35 -27.5q17 -16 29 -23.5t27 -7.5q51 0 92 45l22 -32q-19 -33 -56 -56.5t-75 -23.5
q-22 0 -38.5 10t-34.5 28q-17 16 -29 23.5t-27 7.5q-26 0 -50.5 -13t-42.5 -32l-21 31q20 34 56 57z" />
    <glyph glyph-name="Ograve" unicode="&#xd2;" horiz-adv-x="756" 
d="M46 0zM566.5 717.5q70.5 -47.5 109 -131.5t38.5 -191q0 -127 -46.5 -219.5t-124.5 -141t-173 -48.5q-96 0 -169.5 48t-114 132.5t-40.5 191.5q0 131 51 225.5t136 140.5q75 41 170 41q93 0 163.5 -47.5zM251.5 679.5q-57.5 -41.5 -90 -121.5t-32.5 -190q0 -93 31 -170
t89 -122.5t136 -45.5q73 0 129 42.5t86.5 122.5t30.5 190q0 91 -29 167.5t-85 122.5t-134 46q-74 0 -131.5 -41.5zM205 877l59 61l144 -132l-21 -20q-83 24 -182 91z" />
    <glyph glyph-name="Oacute" unicode="&#xd3;" horiz-adv-x="756" 
d="M565 877q-96 -67 -181 -91l-21 20l143 132zM566.5 717.5q70.5 -47.5 108.5 -131.5t38 -190q0 -127 -46 -220t-124.5 -141.5t-172.5 -48.5q-96 0 -169.5 47.5t-114 132.5t-40.5 192q0 128 48 220t129.5 139.5t179.5 47.5q93 0 163.5 -47.5zM251.5 679.5
q-57.5 -41.5 -90 -121.5t-32.5 -190q0 -93 31 -170t89 -122.5t136 -45.5q73 0 129 42.5t86.5 122.5t30.5 190q0 91 -29 167.5t-85 122.5t-134 46q-74 0 -131.5 -41.5z" />
    <glyph glyph-name="Ocircumflex" unicode="&#xd4;" horiz-adv-x="756" 
d="M553 811l-37 -20l-130 91l-134 -91l-32 19l126 128h80zM566.5 717.5q70.5 -47.5 108.5 -131.5t38 -190q0 -127 -46 -220t-124.5 -141.5t-172.5 -48.5q-96 0 -169.5 47.5t-114 132.5t-40.5 192q0 128 48 220t129.5 139.5t179.5 47.5q93 0 163.5 -47.5zM251.5 679.5
q-57.5 -41.5 -90 -121.5t-32.5 -190q0 -93 31 -170t89 -122.5t136 -45.5q73 0 129 42.5t86.5 122.5t30.5 190q0 91 -29 167.5t-85 122.5t-134 46q-74 0 -131.5 -41.5z" />
    <glyph glyph-name="Otilde" unicode="&#xd5;" horiz-adv-x="756" 
d="M46 0zM566.5 717.5q70.5 -47.5 109 -131.5t38.5 -191q0 -127 -46.5 -219.5t-124.5 -141t-173 -48.5q-96 0 -169.5 48t-114 132.5t-40.5 191.5q0 131 51 225.5t136 140.5q75 41 170 41q93 0 163.5 -47.5zM251.5 679.5q-57.5 -41.5 -90 -121.5t-32.5 -190q0 -93 31 -170
t89 -122.5t136 -45.5q73 0 129 42.5t86.5 122.5t30.5 190q0 91 -29 167.5t-85 122.5t-134 46q-74 0 -131.5 -41.5zM249 915q36 23 74 23q23 0 39 -9.5t35 -27.5q17 -16 29 -23.5t27 -7.5q51 0 92 45l22 -32q-19 -33 -56 -56.5t-75 -23.5q-22 0 -38.5 10t-34.5 28
q-17 16 -29 23.5t-27 7.5q-26 0 -50.5 -13t-42.5 -32l-21 31q20 34 56 57z" />
    <glyph glyph-name="Odieresis" unicode="&#xd6;" horiz-adv-x="756" 
d="M46 0zM566.5 717.5q70.5 -47.5 109 -131.5t38.5 -191q0 -127 -46.5 -219.5t-124.5 -141t-173 -48.5q-96 0 -169.5 48t-114 132.5t-40.5 191.5q0 131 51 225.5t136 140.5q75 41 170 41q93 0 163.5 -47.5zM251.5 679.5q-57.5 -41.5 -90 -121.5t-32.5 -190q0 -93 31 -170
t89 -122.5t136 -45.5q73 0 129 42.5t86.5 122.5t30.5 190q0 91 -29 167.5t-85 122.5t-134 46q-74 0 -131.5 -41.5zM391 932q27 0 40 -15t13 -38q0 -27 -18.5 -44.5t-43.5 -17.5h-3h-3q-21 0 -37 14.5t-16 37.5q0 26 19.5 44.5t43.5 18.5h3h3h-1z" />
    <glyph glyph-name="multiply" unicode="&#xd7;" horiz-adv-x="596" 
d="M258 387l-169 161l47 51l161 -173l161 173l48 -51l-169 -161l169 -162l-48 -51l-161 173l-161 -173l-47 51z" />
    <glyph glyph-name="Oslash" unicode="&#xd8;" horiz-adv-x="756" 
d="M100.5 138.5q-54.5 92.5 -54.5 217.5q0 128 47.5 220.5t128 140.5t178.5 48q49 0 105 -17l28 78l34 -14l-27 -80q82 -42 127.5 -130t45.5 -206q0 -126 -45 -218t-121.5 -141t-169.5 -51q-50 0 -90 10l-30 -91l-37 14l29 89q-94 38 -148.5 130.5zM383 721
q-74 0 -131.5 -41.5t-90 -121t-32.5 -190.5q0 -103 36.5 -185.5t102.5 -123.5l219 636q-46 26 -104 26zM385 30q73 0 129 42.5t86.5 122.5t30.5 190q0 92 -29 169t-82 121l-215 -632q36 -13 80 -13z" />
    <glyph glyph-name="Ugrave" unicode="&#xd9;" horiz-adv-x="768" 
d="M16 0zM745 719l-77 -8v-380q0 -177 -76 -261t-206 -84q-157 0 -225.5 82.5t-68.5 253.5l1 390l-77 7v39h239v-39l-87 -8v-392q0 -162 61.5 -227t171.5 -65q104 0 155 78.5t51 225.5v380l-88 8v39h226v-39zM212 877l59 61l144 -132l-21 -20q-83 24 -182 91z" />
    <glyph glyph-name="Uacute" unicode="&#xda;" horiz-adv-x="768" 
d="M16 0zM745 719l-77 -8v-380q0 -177 -76 -261t-206 -84q-157 0 -225.5 82.5t-68.5 253.5l1 390l-77 7v39h239v-39l-87 -8v-392q0 -162 61.5 -227t171.5 -65q104 0 155 78.5t51 225.5v380l-88 8v39h226v-39zM513 938l60 -61q-95 -66 -181 -91l-21 20z" />
    <glyph glyph-name="Ucircumflex" unicode="&#xdb;" horiz-adv-x="769" 
d="M561 811l-38 -20l-130 91l-133 -91l-33 19l126 128h80zM745 719l-77 -8v-380q0 -177 -76 -261t-206 -84q-157 0 -225.5 82.5t-68.5 253.5l1 390l-77 7v39h239v-39l-87 -8v-392q0 -162 61.5 -227t171.5 -65q104 0 155 78.5t51 225.5v380l-88 8v39h226v-39z" />
    <glyph glyph-name="Udieresis" unicode="&#xdc;" horiz-adv-x="768" 
d="M16 0zM745 719l-77 -8v-380q0 -177 -76 -261t-206 -84q-157 0 -225.5 82.5t-68.5 253.5l1 390l-77 7v39h239v-39l-87 -8v-392q0 -162 61.5 -227t171.5 -65q104 0 155 78.5t51 225.5v380l-88 8v39h226v-39zM397 932q27 0 40 -15t13 -38q0 -27 -18.5 -44.5t-43.5 -17.5h-3
h-3q-21 0 -37 14.5t-16 37.5q0 26 19.5 44.5t43.5 18.5h3h3h-1z" />
    <glyph glyph-name="Yacute" unicode="&#xdd;" horiz-adv-x="653" 
d="M6 0zM301 47v273l-237 392l-58 7v39h225v-39l-81 -8l166 -302l26 -51l24 52l152 301l-84 8v39h212v-39l-65 -12l-205 -391v-269l101 -12v-35h-273v35zM462 938l60 -61q-95 -66 -181 -91l-21 20z" />
    <glyph glyph-name="Thorn" unicode="&#xde;" horiz-adv-x="628" 
d="M139 47v665l-80 7v39h238v-39l-83 -7v-111l34 4q62 8 98 8q116 0 185.5 -53.5t69.5 -159.5q0 -74 -38.5 -128.5t-101.5 -83t-133 -28.5l-83 1q-12 1 -31 1v-115l134 -12v-35h-305v35zM319 200q91 1 148.5 46t57.5 154q0 79 -51 124t-146 45q-46 0 -114 -16v-346
q41 -7 105 -7z" />
    <glyph glyph-name="germandbls" unicode="&#xdf;" horiz-adv-x="643" 
d="M111 47v381q0 115 36.5 193.5t95 116t126.5 37.5q62 0 105 -33t43 -111q0 -42 -13 -72t-38 -66q-21 -29 -31.5 -52t-10.5 -51q0 -30 21 -49t66 -43q38 -20 62 -37.5t41 -45.5t17 -68q0 -79 -57 -118t-142 -39q-34 0 -55 1t-48 7v73q76 -35 113 -35q53 0 86 22.5t33 76.5
q0 35 -25.5 58t-77.5 52q-54 29 -80.5 53t-26.5 62q0 20 11 43t33 57q27 43 41.5 75.5t14.5 65.5q0 54 -26 89t-77 35q-57 0 -92.5 -27.5t-53 -94t-17.5 -181.5v-422h-151v34z" />
    <glyph glyph-name="agrave" unicode="&#xe0;" horiz-adv-x="554" 
d="M60 0zM407 516q51 -39 51 -137l-1 -343h63v-28q-36 -18 -84 -18q-22 0 -32.5 6t-13.5 19.5t-3 41.5q-56 -68 -172 -68q-43 0 -78.5 19t-56 53t-20.5 77q0 67 53 108.5t127.5 59t144.5 17.5v47q0 75 -37 103t-106 28q-30 0 -72.5 -11.5t-74.5 -28.5l-14 36q33 27 91 42.5
t99 15.5q85 0 136 -39zM212 250.5q-79 -29.5 -79 -98.5q0 -112 127 -112q36 0 70.5 16t52.5 33l1 191q-93 0 -172 -29.5zM314 671q-58 38 -97.5 69t-59.5 62l56 61l147 -186l-22 -22z" />
    <glyph glyph-name="aacute" unicode="&#xe1;" horiz-adv-x="554" 
d="M60 0zM407 516q51 -39 51 -137l-1 -343h63v-28q-36 -18 -84 -18q-22 0 -32.5 6t-13.5 19.5t-3 41.5q-56 -68 -172 -68q-43 0 -78.5 19t-56 53t-20.5 77q0 67 53 108.5t127.5 59t144.5 17.5v47q0 75 -37 103t-106 28q-30 0 -72.5 -11.5t-74.5 -28.5l-14 36q33 27 91 42.5
t99 15.5q85 0 136 -39zM212 250.5q-79 -29.5 -79 -98.5q0 -112 127 -112q36 0 70.5 16t52.5 33l1 191q-93 0 -172 -29.5zM365 863l56 -61q-38 -59 -181 -147l-22 22z" />
    <glyph glyph-name="acircumflex" unicode="&#xe2;" horiz-adv-x="554" 
d="M60 0zM407 516q51 -39 51 -137l-1 -343h63v-28q-36 -18 -84 -18q-22 0 -32.5 6t-13.5 19.5t-3 41.5q-56 -68 -172 -68q-43 0 -78.5 19t-56 53t-20.5 77q0 67 53 108.5t127.5 59t144.5 17.5v47q0 75 -37 103t-106 28q-30 0 -72.5 -11.5t-74.5 -28.5l-14 36q33 27 91 42.5
t99 15.5q85 0 136 -39zM212 250.5q-79 -29.5 -79 -98.5q0 -112 127 -112q36 0 70.5 16t52.5 33l1 191q-93 0 -172 -29.5zM245 866h78l130 -194l-34 -20l-136 144l-142 -144l-31 18z" />
    <glyph glyph-name="atilde" unicode="&#xe3;" horiz-adv-x="554" 
d="M60 0zM407 516q51 -39 51 -137l-1 -343h63v-28q-36 -18 -84 -18q-22 0 -32.5 6t-13.5 19.5t-3 41.5q-56 -68 -172 -68q-43 0 -78.5 19t-56 53t-20.5 77q0 67 53 108.5t127.5 59t144.5 17.5v47q0 75 -37 103t-106 28q-30 0 -72.5 -11.5t-74.5 -28.5l-14 36q33 27 91 42.5
t99 15.5q85 0 136 -39zM212 250.5q-79 -29.5 -79 -98.5q0 -112 127 -112q36 0 70.5 16t52.5 33l1 191q-93 0 -172 -29.5zM148 788q37 24 74 24q22 0 37.5 -10t34.5 -29q18 -17 30 -25t28 -8q44 0 92 50l21 -30q-19 -34 -56 -57.5t-75 -23.5q-22 0 -37 9.5t-35 28.5
q-17 17 -29 25t-28 8q-27 0 -49.5 -14t-43.5 -36l-21 31q20 33 57 57z" />
    <glyph glyph-name="adieresis" unicode="&#xe4;" horiz-adv-x="554" 
d="M60 0zM407 516q51 -39 51 -137l-1 -343h63v-28q-36 -18 -84 -18q-22 0 -32.5 6t-13.5 19.5t-3 41.5q-56 -68 -172 -68q-43 0 -78.5 19t-56 53t-20.5 77q0 67 53 108.5t127.5 59t144.5 17.5v47q0 75 -37 103t-106 28q-30 0 -72.5 -11.5t-74.5 -28.5l-14 36q33 27 91 42.5
t99 15.5q85 0 136 -39zM212 250.5q-79 -29.5 -79 -98.5q0 -112 127 -112q36 0 70.5 16t52.5 33l1 191q-93 0 -172 -29.5zM129 700.5q-15 13.5 -15 37.5q0 25 19 43t42 18q27 0 40 -14.5t13 -37.5q0 -27 -19 -43.5t-44 -16.5q-21 0 -36 13.5zM351 700.5q-15 13.5 -15 37.5
q0 25 18.5 43t41.5 18q27 0 40 -14.5t13 -37.5q0 -27 -18.5 -43.5t-43.5 -16.5q-21 0 -36 13.5z" />
    <glyph glyph-name="aring" unicode="&#xe5;" horiz-adv-x="554" 
d="M60 0zM407 516q51 -39 51 -137l-1 -343h63v-28q-36 -18 -84 -18q-22 0 -32.5 6t-13.5 19.5t-3 41.5q-56 -68 -172 -68q-43 0 -78.5 19t-56 53t-20.5 77q0 67 53 108.5t127.5 59t144.5 17.5v47q0 75 -37 103t-106 28q-30 0 -72.5 -11.5t-74.5 -28.5l-14 36q33 27 91 42.5
t99 15.5q85 0 136 -39zM212 250.5q-79 -29.5 -79 -98.5q0 -112 127 -112q36 0 70.5 16t52.5 33l1 191q-93 0 -172 -29.5zM352.5 842.5q34.5 -33.5 34.5 -81.5q0 -47 -34.5 -80.5t-84.5 -33.5q-49 0 -84 33.5t-35 80.5t35 81t84 34q50 0 84.5 -33.5zM218.5 808.5
q-20.5 -20.5 -20.5 -48.5q0 -29 20.5 -49t48.5 -20q29 0 49.5 20t20.5 49t-20.5 49t-49.5 20q-28 0 -48.5 -20.5z" />
    <glyph glyph-name="ae" unicode="&#xe6;" horiz-adv-x="876" 
d="M780.5 504q47.5 -59 47.5 -163q0 -21 -2.5 -40.5t-3.5 -26.5h-366q-1 -121 56.5 -175.5t141.5 -54.5q39 0 83.5 10.5t63.5 22.5l16 -35q-25 -24 -81.5 -39t-111.5 -15q-68 0 -117.5 27.5t-79.5 78.5q-24 -46 -82.5 -75.5t-131.5 -29.5q-42 0 -77.5 19t-56 53.5
t-20.5 77.5q0 12 1 18q6 63 63.5 100t130.5 51.5t129 13.5v48q0 76 -36.5 103.5t-103.5 27.5q-30 0 -72 -11.5t-76 -29.5l-14 37q32 26 90.5 42t100.5 16q63 0 107 -21t63 -75q36 50 88.5 77t118.5 27q84 0 131.5 -59zM510.5 469.5q-45.5 -48.5 -53.5 -146.5h291q1 11 1 31
q0 120 -66 158q-23 6 -61 6q-66 0 -111.5 -48.5zM274.5 269.5q-57.5 -11.5 -99 -40t-41.5 -76.5q0 -57 32.5 -85t91.5 -28q40 0 75.5 21t48.5 50l1 169q-51 1 -108.5 -10.5z" />
    <glyph glyph-name="ccedilla" unicode="&#xe7;" horiz-adv-x="506" 
d="M302 -62q65 1 98 -26.5t33 -65.5q0 -46 -33.5 -73.5t-86.5 -30.5l-23 -1q-32 0 -50 5t-23 6l1 41q15 -3 31 -5.5t28 -2.5q36 0 57.5 12t21.5 50q0 27 -22 41.5t-65 14.5q-8 0 -15.5 -1t-10.5 -1q0 38 13 90q-96 10 -149.5 85.5t-53.5 187.5q0 90 36.5 157.5t99 103
t138.5 35.5q39 0 73 -6.5t51 -17.5v-108h-36l-21 60q-16 12 -39.5 17.5t-47.5 5.5q-50 0 -91.5 -24t-67 -72t-25.5 -118q0 -87 27.5 -143.5t70.5 -82.5t89 -26q37 0 79.5 9.5t63.5 23.5l14 -37q-24 -22 -69 -35.5t-96 -15.5q-2 -18 -2 -31q0 -14 1 -20z" />
    <glyph glyph-name="egrave" unicode="&#xe8;" horiz-adv-x="554" 
d="M51 0zM449.5 510.5q49.5 -54.5 52.5 -151.5q2 -35 -5 -85h-373q-1 -106 50.5 -168t146.5 -62q41 0 86 10t64 23l16 -35q-26 -24 -82 -39t-114 -15q-114 0 -177 77t-63 207q0 82 34 147.5t94.5 103.5t137.5 40q83 2 132.5 -52.5zM181.5 469.5q-46.5 -48.5 -55.5 -146.5
h297l1 29q0 121 -66 157q-28 9 -64 9q-66 0 -112.5 -48.5zM325 671q-58 38 -97.5 69t-59.5 62l56 61l147 -186l-22 -22z" />
    <glyph glyph-name="eacute" unicode="&#xe9;" horiz-adv-x="554" 
d="M51 0zM449.5 510.5q49.5 -54.5 52.5 -151.5q2 -35 -5 -85h-373q-1 -106 50.5 -168t146.5 -62q41 0 86 10t64 23l16 -35q-26 -24 -82 -39t-114 -15q-114 0 -177 77t-63 207q0 82 34 147.5t94.5 103.5t137.5 40q83 2 132.5 -52.5zM181.5 469.5q-46.5 -48.5 -55.5 -146.5
h297l1 29q0 121 -66 157q-28 9 -64 9q-66 0 -112.5 -48.5zM376 863l56 -61q-38 -59 -181 -147l-22 22z" />
    <glyph glyph-name="ecircumflex" unicode="&#xea;" horiz-adv-x="554" 
d="M51 0zM449.5 510.5q49.5 -54.5 52.5 -151.5q2 -35 -5 -85h-373q-1 -106 50.5 -168t146.5 -62q41 0 86 10t64 23l16 -35q-26 -24 -82 -39t-114 -15q-114 0 -177 77t-63 207q0 82 34 147.5t94.5 103.5t137.5 40q83 2 132.5 -52.5zM181.5 469.5q-46.5 -48.5 -55.5 -146.5
h297l1 29q0 121 -66 157q-28 9 -64 9q-66 0 -112.5 -48.5zM256 866h78l130 -194l-34 -20l-136 144l-142 -144l-31 18z" />
    <glyph glyph-name="edieresis" unicode="&#xeb;" horiz-adv-x="554" 
d="M51 0zM449.5 510.5q49.5 -54.5 52.5 -151.5q2 -35 -5 -85h-373q-1 -106 50.5 -168t146.5 -62q41 0 86 10t64 23l16 -35q-26 -24 -82 -39t-114 -15q-114 0 -177 77t-63 207q0 82 34 147.5t94.5 103.5t137.5 40q83 2 132.5 -52.5zM181.5 469.5q-46.5 -48.5 -55.5 -146.5
h297l1 29q0 121 -66 157q-28 9 -64 9q-66 0 -112.5 -48.5zM141 700.5q-15 13.5 -15 37.5q0 25 19 43t42 18q27 0 40 -14.5t13 -37.5q0 -27 -19 -43.5t-44 -16.5q-21 0 -36 13.5zM363 700.5q-15 13.5 -15 37.5q0 25 18.5 43t41.5 18q27 0 40 -14.5t13 -37.5
q0 -27 -18.5 -43.5t-43.5 -16.5q-21 0 -36 13.5z" />
    <glyph glyph-name="igrave" unicode="&#xec;" horiz-adv-x="329" 
d="M204 671q-58 38 -97.5 69t-59.5 62l56 61l147 -186l-22 -22zM147 44v426l-70 27v25l122 32l18 -10v-500l81 -9v-35h-235v35z" />
    <glyph glyph-name="iacute" unicode="&#xed;" horiz-adv-x="329" 
d="M63 0zM147 44v426l-70 27v25l122 32l18 -9v-501l81 -9v-35h-235v35zM255 863l56 -61q-38 -59 -181 -147l-22 22z" />
    <glyph glyph-name="icircumflex" unicode="&#xee;" horiz-adv-x="329" 
d="M134 866h78l130 -194l-34 -20l-135 144l-144 -144l-30 18zM147 44v426l-70 27v25l122 32l18 -10v-500l81 -9v-35h-235v35z" />
    <glyph glyph-name="idieresis" unicode="&#xef;" horiz-adv-x="329" 
d="M3 0zM147 44v426l-70 27v25l122 32l18 -9v-501l81 -9v-35h-235v35zM18 700.5q-15 13.5 -15 37.5q0 25 19 43t42 18q27 0 40 -14.5t13 -37.5q0 -27 -19 -43.5t-44 -16.5q-21 0 -36 13.5zM240 700.5q-15 13.5 -15 37.5q0 25 18.5 43t41.5 18q27 0 40 -14.5t13 -37.5
q0 -27 -18.5 -43.5t-43.5 -16.5q-21 0 -36 13.5z" />
    <glyph glyph-name="eth" unicode="&#xf0;" horiz-adv-x="596" 
d="M414 804l-81 -71q103 -78 158 -192.5t55 -242.5q0 -97 -34 -167t-90 -106.5t-123 -37.5q-74 -2 -130 30.5t-87 92t-31 135.5q0 83 33.5 141t90 87t124.5 29q41 0 88.5 -20.5t71.5 -50.5q-17 78 -61 145t-104 119l-84 -74l-43 34l82 75q-51 34 -90 47l11 45
q57 -21 115 -56l53 47l31 27zM174 403q-42 -55 -42 -153q0 -60 19.5 -110t58.5 -80t95 -30q48 0 84.5 34.5t55.5 88.5t19 112q0 50 -3 65q-7 28 -27 57.5t-55 50t-81 20.5q-82 0 -124 -55z" />
    <glyph glyph-name="ntilde" unicode="&#xf1;" horiz-adv-x="678" 
d="M67 0zM138 43v423l-71 31v25l117 32l19 -10v-67q36 29 94.5 53.5t105.5 25.5q61 3 97 -19.5t52 -74t16 -138.5v-281l79 -8v-35h-228v35l75 9v267q0 67 -10 107.5t-35 60t-71 19.5q-38 0 -80.5 -15t-84.5 -44v-395l76 -9v-35h-220v35zM228 788q37 24 74 24q22 0 37.5 -10
t34.5 -29q18 -17 30 -25t28 -8q44 0 92 50l21 -30q-19 -34 -56 -57.5t-75 -23.5q-22 0 -37 9.5t-35 28.5q-17 17 -29 25t-28 8q-27 0 -49.5 -14t-43.5 -36l-21 31q20 33 57 57z" />
    <glyph glyph-name="ograve" unicode="&#xf2;" horiz-adv-x="595" 
d="M52 0zM442 524.5q53 -38.5 78 -102.5t25 -142q-1 -84 -34.5 -150.5t-90.5 -104t-125 -37.5q-84 0 -138.5 40t-79.5 106t-25 145q0 85 36 149.5t95.5 99.5t126.5 35q79 0 132 -38.5zM172 459q-42 -60 -42 -170t44 -182t129 -72q83 0 123 60.5t40 179.5q0 109 -42.5 176.5
t-126.5 67.5q-83 0 -125 -60zM337 671q-58 38 -97.5 69t-59.5 62l56 61l147 -186l-22 -22z" />
    <glyph glyph-name="oacute" unicode="&#xf3;" horiz-adv-x="595" 
d="M52 0zM442 524.5q53 -38.5 78 -102.5t25 -142q-1 -84 -34.5 -150.5t-90.5 -104t-125 -37.5q-84 0 -138.5 40t-79.5 106t-25 145q0 85 36 149.5t95.5 99.5t126.5 35q79 0 132 -38.5zM172 459q-42 -60 -42 -170t44 -182t129 -72q83 0 123 60.5t40 179.5q0 109 -42.5 176.5
t-126.5 67.5q-83 0 -125 -60zM387 863l56 -61q-38 -59 -181 -147l-22 22z" />
    <glyph glyph-name="ocircumflex" unicode="&#xf4;" horiz-adv-x="595" 
d="M52 0zM442 524.5q53 -38.5 78 -102.5t25 -142q-1 -84 -34.5 -150.5t-90.5 -104t-125 -37.5q-84 0 -138.5 40t-79.5 106t-25 145q0 85 36 149.5t95.5 99.5t126.5 35q79 0 132 -38.5zM172 459q-42 -60 -42 -170t44 -182t129 -72q83 0 123 60.5t40 179.5q0 109 -42.5 176.5
t-126.5 67.5q-83 0 -125 -60zM267 866h78l130 -194l-34 -20l-136 144l-142 -144l-31 18z" />
    <glyph glyph-name="otilde" unicode="&#xf5;" horiz-adv-x="595" 
d="M52 0zM442 524.5q53 -38.5 78 -102.5t25 -142q-1 -84 -34.5 -150.5t-90.5 -104t-125 -37.5q-84 0 -138.5 40t-79.5 106t-25 145q0 85 36 149.5t95.5 99.5t126.5 35q79 0 132 -38.5zM172 459q-42 -60 -42 -170t44 -182t129 -72q83 0 123 60.5t40 179.5q0 109 -42.5 176.5
t-126.5 67.5q-83 0 -125 -60zM170 788q37 24 74 24q22 0 37.5 -10t34.5 -29q18 -17 30 -25t28 -8q44 0 92 50l21 -30q-19 -34 -56 -57.5t-75 -23.5q-22 0 -37 9.5t-35 28.5q-17 17 -29 25t-28 8q-27 0 -49.5 -14t-43.5 -36l-21 31q20 33 57 57z" />
    <glyph glyph-name="odieresis" unicode="&#xf6;" horiz-adv-x="595" 
d="M52 0zM442 524.5q53 -38.5 78 -102.5t25 -142q-1 -84 -34.5 -150.5t-90.5 -104t-125 -37.5q-84 0 -138.5 40t-79.5 106t-25 145q0 85 36 149.5t95.5 99.5t126.5 35q79 0 132 -38.5zM172 459q-42 -60 -42 -170t44 -182t129 -72q83 0 123 60.5t40 179.5q0 109 -42.5 176.5
t-126.5 67.5q-83 0 -125 -60zM152 700.5q-15 13.5 -15 37.5q0 25 19 43t42 18q27 0 40 -14.5t13 -37.5q0 -27 -19 -43.5t-44 -16.5q-21 0 -36 13.5zM374 700.5q-15 13.5 -15 37.5q0 25 18.5 43t41.5 18q27 0 40 -14.5t13 -37.5q0 -27 -18.5 -43.5t-43.5 -16.5
q-21 0 -36 13.5z" />
    <glyph glyph-name="divide" unicode="&#xf7;" horiz-adv-x="616" 
d="M351 610q13 -14 13 -36q0 -26 -18.5 -42.5t-42.5 -16.5q-21 0 -36 13.5t-15 36.5q0 25 19 42t41 17q26 0 39 -14zM531 359h-446v58h446v-58zM350 241q11 -15 9 -36q-1 -25 -18.5 -39.5t-41.5 -13.5q-18 2 -30.5 14.5t-12.5 32.5q0 24 18 40.5t39 16.5q26 0 37 -15z" />
    <glyph glyph-name="oslash" unicode="&#xf8;" horiz-adv-x="595" 
d="M86 112q-34 72 -34 165q0 85 35 149.5t93.5 100t126.5 36.5q42 0 72 -10l29 82l34 -14l-28 -81q64 -31 97 -100t33 -156q0 -85 -33.5 -152.5t-90.5 -105.5t-126 -38q-34 0 -68 8l-30 -90l-37 15l31 88q-70 31 -104 103zM297 519q-83 0 -125 -59.5t-42 -170.5
q0 -74 20 -133t61 -91l150 441q-27 13 -64 13zM303 35q163 0 163 240q0 71 -18 125.5t-54 85.5l-149 -440q27 -11 58 -11z" />
    <glyph glyph-name="ugrave" unicode="&#xf9;" horiz-adv-x="629" 
d="M332 671q-58 38 -97.5 69t-59.5 62l56 61l147 -186l-22 -22zM57 503v31l109 21l15 -9v-335q0 -62 9 -96.5t33.5 -51.5t71.5 -17q46 0 90 22t64 42v379l-61 10v33l121 23l12 -8v-511h61v-33q-15 -7 -38.5 -12.5t-41.5 -5.5q-46 0 -46 38v45q-94 -78 -191 -78
q-73 0 -107 29.5t-42 76t-9 133.5v264z" />
    <glyph glyph-name="uacute" unicode="&#xfa;" horiz-adv-x="629" 
d="M383 863l56 -61q-23 -35 -75 -75t-106 -72l-22 22zM57 503v31l109 21l15 -9v-335q0 -62 9 -96.5t33.5 -51.5t71.5 -17q46 0 90 22t64 42v379l-61 10v33l121 23l12 -8v-511h61v-33q-15 -7 -38.5 -12.5t-41.5 -5.5q-46 0 -46 38v45q-94 -78 -191 -78q-73 0 -107 29.5
t-42 76t-9 133.5v264z" />
    <glyph glyph-name="ucircumflex" unicode="&#xfb;" horiz-adv-x="629" 
d="M263 866h77l130 -194l-34 -20l-135 144l-143 -144l-31 18zM57 503v31l109 21l15 -9v-335q0 -62 9 -96.5t33.5 -51.5t71.5 -17q46 0 90 22t64 42v379l-61 10v33l121 23l12 -8v-511h61v-33q-15 -7 -38.5 -12.5t-41.5 -5.5q-46 0 -46 38v45q-94 -78 -191 -78
q-73 0 -107 29.5t-42 76t-9 133.5v264z" />
    <glyph glyph-name="udieresis" unicode="&#xfc;" horiz-adv-x="629" 
d="M57 0zM57 503v31l109 21l15 -9v-335q0 -62 9 -96.5t33.5 -51.5t71.5 -17q46 0 90 22t64 42v379l-61 10v33l121 23l12 -8v-511h61v-33q-15 -7 -38.5 -12.5t-41.5 -5.5q-46 0 -46 38v45q-94 -78 -191 -78q-73 0 -107 29.5t-42 76t-9 133.5v264zM148 700.5
q-15 13.5 -15 37.5q0 25 19 43t42 18q27 0 40 -14.5t13 -37.5q0 -27 -19 -43.5t-44 -16.5q-21 0 -36 13.5zM370 700.5q-15 13.5 -15 37.5q0 25 18.5 43t41.5 18q27 0 40 -14.5t13 -37.5q0 -27 -18.5 -43.5t-43.5 -16.5q-21 0 -36 13.5z" />
    <glyph glyph-name="yacute" unicode="&#xfd;" horiz-adv-x="557" 
d="M1 0zM111 -184q44 0 88.5 38.5t75.5 139.5h-17l-200 503l-57 7v42h216v-42l-77 -8l122 -342l41 -117l32 113l106 347l-80 7v42h203v-42l-58 -6q-37 -110 -68 -202t-55 -162q-40 -120 -52 -151q-42 -109 -86 -165.5t-105 -69.5q-30 3 -32 3q-10 0 -20 2t-15 4v64
q20 -5 38 -5zM377 863l56 -61q-38 -59 -181 -147l-22 22z" />
    <glyph glyph-name="thorn" unicode="&#xfe;" horiz-adv-x="614" 
d="M178 784v-289q79 68 169 68q57 0 105.5 -27t79 -87t30.5 -154q0 -84 -34.5 -155t-96.5 -112.5t-142 -41.5q-56 0 -113 12l1 -48l1 -156l103 -9v-35h-247v35l71 10v933l-86 14v35l142 15zM237.5 489q-37.5 -16 -58.5 -38v-382q7 -19 40 -28.5t80 -9.5q49 0 92.5 27t71 84
t27.5 142q0 114 -50 167.5t-123 53.5q-42 0 -79.5 -16z" />
    <glyph glyph-name="ydieresis" unicode="&#xff;" horiz-adv-x="557" 
d="M1 0zM111 -184q44 0 88.5 38.5t75.5 139.5h-17l-200 503l-57 7v42h216v-42l-77 -8l122 -342l41 -117l32 113l106 347l-80 7v42h203v-42l-58 -6q-37 -110 -68 -202t-55 -162q-40 -120 -52 -151q-42 -109 -86 -165.5t-105 -69.5q-30 3 -32 3q-10 0 -20 2t-15 4v64
q20 -5 38 -5zM142 700.5q-15 13.5 -15 37.5q0 25 19 43t42 18q27 0 40 -14.5t13 -37.5q0 -27 -19 -43.5t-44 -16.5q-21 0 -36 13.5zM364 700.5q-15 13.5 -15 37.5q0 25 18.5 43t41.5 18q27 0 40 -14.5t13 -37.5q0 -27 -18.5 -43.5t-43.5 -16.5q-21 0 -36 13.5z" />
    <glyph glyph-name="Amacron" unicode="&#x100;" horiz-adv-x="723" 
d="M1 0zM490 906v-60h-257v60h257zM72 47l260 713h62l249 -713l80 -12v-35h-239v35l83 11l-60 177h-307l-61 -177l84 -11v-35h-222v35zM397 540l-43 133l-138 -402h274z" />
    <glyph glyph-name="amacron" unicode="&#x101;" horiz-adv-x="554" 
d="M60 0zM407 516q51 -39 51 -137l-1 -343h63v-28q-36 -18 -84 -18q-22 0 -32.5 6t-13.5 19.5t-3 41.5q-56 -68 -172 -68q-43 0 -78.5 19t-56 53t-20.5 77q0 67 53 108.5t127.5 59t144.5 17.5v47q0 75 -37 103t-106 28q-30 0 -72.5 -11.5t-74.5 -28.5l-14 36q33 27 91 42.5
t99 15.5q85 0 136 -39zM212 250.5q-79 -29.5 -79 -98.5q0 -112 127 -112q36 0 70.5 16t52.5 33l1 191q-93 0 -172 -29.5zM398 777v-60h-257v60h257z" />
    <glyph glyph-name="Abreve" unicode="&#x102;" horiz-adv-x="723" 
d="M1 0zM496.5 890.5q-19.5 -34.5 -55 -55t-80.5 -20.5q-47 0 -82.5 21t-54 55t-18.5 74h30q8 -23 18 -40.5t36.5 -34.5t71.5 -17t71.5 17.5t36 34t18.5 40.5h28q0 -40 -19.5 -74.5zM72 47l260 713h62l249 -713l80 -12v-35h-239v35l83 11l-60 177h-307l-61 -177l84 -11v-35
h-222v35zM397 540l-43 133l-138 -402h274z" />
    <glyph glyph-name="abreve" unicode="&#x103;" horiz-adv-x="554" 
d="M60 0zM407 516q51 -39 51 -137l-1 -343h63v-28q-36 -18 -84 -18q-22 0 -32.5 6t-13.5 19.5t-3 41.5q-56 -68 -172 -68q-43 0 -78.5 19t-56 53t-20.5 77q0 67 53 108.5t127.5 59t144.5 17.5v47q0 75 -37 103t-106 28q-30 0 -72.5 -11.5t-74.5 -28.5l-14 36q33 27 91 42.5
t99 15.5q85 0 136 -39zM212 250.5q-79 -29.5 -79 -98.5q0 -112 127 -112q36 0 70.5 16t52.5 33l1 191q-93 0 -172 -29.5zM414 756.5q-21 -35.5 -57.5 -57t-82.5 -21.5q-47 0 -83.5 21.5t-56 57t-19.5 74.5h35q1 -2 10 -27t40 -45.5t76 -20.5t71.5 17.5t32.5 29t22 47.5h33
q0 -40 -21 -75.5z" />
    <glyph glyph-name="Aogonek" unicode="&#x104;" horiz-adv-x="723" 
d="M72 47l260 713h62l249 -713l80 -12v-35h-85q-29 -10 -64 -35t-59 -54.5t-24 -53.5q0 -34 16.5 -48t53.5 -16q43 -3 104 36l10 -36q-28 -22 -60 -36.5t-83 -14.5q-56 0 -83 27t-27 67q0 44 44 91.5t100 72.5h-82v35l83 11l-60 177h-307l-61 -177l84 -11v-35h-222v35z
M397 540l-43 133l-138 -402h274z" />
    <glyph glyph-name="aogonek" unicode="&#x105;" horiz-adv-x="554" 
d="M406.5 516q51.5 -39 51.5 -137l-1 -343h63v-32q-59 -26 -101 -63.5t-42 -75.5q0 -35 19.5 -51t51.5 -16q36 0 78 20v-35q-20 -16 -50.5 -26t-61.5 -10q-46 0 -77.5 24t-31.5 72q0 44 40 86t86 61q-29 1 -36.5 14.5t-7.5 52.5q-58 -68 -172 -68q-43 0 -78.5 19.5t-56 54.5
t-20.5 78q0 66 53 106.5t127.5 58t143.5 17.5v47q0 75 -37 103t-105 28q-30 0 -72.5 -11.5t-74.5 -28.5l-15 36q33 27 91.5 42.5t98.5 15.5q85 0 136.5 -39zM212 250.5q-79 -29.5 -79 -98.5q0 -112 127 -112q36 0 70.5 16t52.5 33l1 191q-93 0 -172 -29.5z" />
    <glyph glyph-name="Cacute" unicode="&#x106;" horiz-adv-x="684" 
d="M43 0zM520.5 757.5q39.5 -7.5 82.5 -19.5l32 -8l-7 -132h-40l-21 82q-33 21 -70.5 30t-88.5 9q-75 0 -141 -40t-106.5 -116.5t-40.5 -182.5q0 -97 33.5 -176.5t99 -127t157.5 -47.5q60 0 102.5 15.5t67.5 42.5l23 77h34v-133q-16 -1 -57 -14q-49 -15 -90 -23t-101 -8
q-98 0 -177 47t-124 131.5t-45 190.5q0 122 54 215.5t143.5 144t192.5 50.5q48 0 87.5 -7.5zM505 938l60 -61q-95 -66 -181 -91l-21 20z" />
    <glyph glyph-name="cacute" unicode="&#x107;" horiz-adv-x="506" 
d="M53 0zM400 554.5q34 -6.5 51 -17.5v-108h-36l-21 60q-16 12 -39.5 17.5t-47.5 5.5q-50 0 -91.5 -24t-67 -72t-25.5 -118q0 -87 27.5 -143.5t70.5 -82.5t89 -26q37 0 79.5 9.5t63.5 23.5l14 -37q-26 -24 -77.5 -38t-105.5 -14q-73 0 -125 35.5t-79 98t-27 141.5
q0 90 36.5 157.5t99 103t138.5 35.5q39 0 73 -6.5zM387 863l56 -61q-38 -59 -181 -147l-22 22z" />
    <glyph glyph-name="Ccaron" unicode="&#x10c;" horiz-adv-x="684" 
d="M43 0zM520.5 757.5q39.5 -7.5 82.5 -19.5l32 -8l-7 -132h-40l-21 82q-33 21 -70.5 30t-88.5 9q-75 0 -141 -40t-106.5 -116.5t-40.5 -182.5q0 -97 33.5 -176.5t99 -127t157.5 -47.5q60 0 102.5 15.5t67.5 42.5l23 77h34v-133q-16 -1 -57 -14q-49 -15 -90 -23t-101 -8
q-98 0 -177 47t-124 131.5t-45 190.5q0 122 54 215.5t143.5 144t192.5 50.5q48 0 87.5 -7.5zM263 938l123 -89l124 89l32 -20l-118 -125h-78l-119 124z" />
    <glyph glyph-name="ccaron" unicode="&#x10d;" horiz-adv-x="506" 
d="M53 0zM400 554.5q34 -6.5 51 -17.5v-108h-36l-21 60q-16 12 -39.5 17.5t-47.5 5.5q-50 0 -91.5 -24t-67 -72t-25.5 -118q0 -87 27.5 -143.5t70.5 -82.5t89 -26q37 0 79.5 9.5t63.5 23.5l14 -37q-26 -24 -77.5 -38t-105.5 -14q-73 0 -125 35.5t-79 98t-27 141.5
q0 90 36.5 157.5t99 103t138.5 35.5q39 0 73 -6.5zM168 865l138 -143l140 144l30 -19l-131 -195h-77l-135 195z" />
    <glyph glyph-name="Dcaron" unicode="&#x10e;" horiz-adv-x="777" 
d="M53 0zM139 47v664l-84 8v39h121q50 0 112 4q39 3 80 3q181 0 271.5 -96t90.5 -270q0 -124 -49 -215.5t-135 -140t-194 -48.5q-21 0 -75 2q-46 3 -100 3h-124v35zM352 40q83 2 151 38t108.5 111.5t40.5 188.5q0 166 -79 253t-221 87q-68 0 -138 -8v-656q72 -14 138 -14z
M226 938l123 -89l124 89l32 -20l-118 -125h-78l-119 124z" />
    <glyph glyph-name="dcaron" unicode="&#x10f;" horiz-adv-x="703" 
d="M52 0zM507 782v-746h66v-32q-16 -8 -43 -13t-48 -5q-30 0 -39 13t-7 51q-22 -23 -66 -42.5t-106 -19.5q-56 0 -104.5 29.5t-78 91.5t-29.5 155q0 85 36.5 153.5t100 107t140.5 38.5q57 0 104 -18v181l-101 13v36l156 17zM227.5 494.5q-44.5 -23.5 -74 -77.5t-29.5 -140
q0 -77 23.5 -129t61.5 -76.5t83 -24.5q40 0 78 12.5t63 36.5v379q-34 43 -114 43q-47 0 -91.5 -23.5zM576 541q19 54 19 114q0 42 -7.5 79t-17.5 48l7 21l61 17q13 -14 21.5 -45t8.5 -65q0 -61 -18 -120t-43 -79l-30 17z" />
    <glyph glyph-name="Dcroat" unicode="&#x110;" horiz-adv-x="777" 
d="M50 0zM139 47v316h-89v60h89v288l-84 8v39h121q49 0 111 4q39 3 81 3q181 0 271.5 -96.5t90.5 -269.5q0 -124 -49 -215.5t-135 -140t-194 -48.5q-21 0 -75 2q-46 3 -100 3h-124v35zM352 40q83 2 151 38t108.5 111.5t40.5 188.5q0 166 -79 253t-221 87q-68 0 -138 -8v-287
h129v-60h-129v-309q72 -14 138 -14z" />
    <glyph glyph-name="dcroat" unicode="&#x111;" horiz-adv-x="614" 
d="M507 601v-565h66v-32q-16 -8 -43 -13t-48 -5q-30 0 -39 13t-7 51q-22 -23 -66 -42.5t-106 -19.5q-55 0 -103.5 29t-78.5 85.5t-30 135.5q0 93 36 157.5t99 96t142 31.5q57 0 104 -18v96h-193v50h193v75l-101 13v36l156 17l19 -10v-131h85v-50h-85zM433 435q-14 17 -39 30
t-75 13q-47 0 -91.5 -21.5t-74 -71t-29.5 -129.5q0 -106 48.5 -157.5t119.5 -51.5q40 0 78.5 12.5t62.5 36.5v339z" />
    <glyph glyph-name="Emacron" unicode="&#x112;" horiz-adv-x="638" 
d="M50 0zM136 47v664l-84 8v39h501l14 -136h-43l-19 88l-294 6v-294l197 3l11 78h41v-206h-41l-11 79l-197 3v-335l314 8l45 108l35 -10l-21 -150h-534v35zM481 906v-60h-257v60h257z" />
    <glyph glyph-name="emacron" unicode="&#x113;" horiz-adv-x="554" 
d="M51 0zM449.5 510.5q49.5 -54.5 52.5 -151.5q2 -35 -5 -85h-373q-1 -106 50.5 -168t146.5 -62q41 0 86 10t64 23l16 -35q-26 -24 -82 -39t-114 -15q-114 0 -177 77t-63 207q0 82 34 147.5t94.5 103.5t137.5 40q83 2 132.5 -52.5zM181.5 469.5q-46.5 -48.5 -55.5 -146.5
h297l1 29q0 121 -66 157q-28 9 -64 9q-66 0 -112.5 -48.5zM419 777v-60h-257v60h257z" />
    <glyph glyph-name="Edotaccent" unicode="&#x116;" horiz-adv-x="638" 
d="M50 0zM136 47v664l-84 8v39h501l14 -136h-43l-19 88l-294 6v-294l197 3l11 78h41v-206h-41l-11 79l-197 3v-335l314 8l45 108l35 -10l-21 -150h-534v35zM359 880q0 -15 -8 -15l-3 2.5t-3 6.5q0 3 2.5 6.5t4.5 3.5q7 0 7 -4z" />
    <glyph glyph-name="edotaccent" unicode="&#x117;" horiz-adv-x="554" 
d="M51 0zM449.5 510.5q49.5 -54.5 52.5 -151.5q2 -35 -5 -85h-373q-1 -106 50.5 -168t146.5 -62q41 0 86 10t64 23l16 -35q-26 -24 -82 -39t-114 -15q-114 0 -177 77t-63 207q0 82 34 147.5t94.5 103.5t137.5 40q83 2 132.5 -52.5zM181.5 469.5q-46.5 -48.5 -55.5 -146.5
h297l1 29q0 121 -66 157q-28 9 -64 9q-66 0 -112.5 -48.5zM348 777q13 -15 13 -37q0 -27 -19 -45t-44 -18q-20 0 -36 15t-16 38q0 25 19.5 43.5t42.5 18.5q27 0 40 -15z" />
    <glyph glyph-name="Eogonek" unicode="&#x118;" horiz-adv-x="638" 
d="M136 47v664l-84 8v39h501l14 -136h-43l-19 88l-294 6v-294l197 3l11 78h41v-206h-41l-11 79l-197 3v-335l314 8l45 108l35 -10l-21 -150h1q-29 -11 -63.5 -36t-58.5 -54t-24 -53q0 -34 16.5 -48t53.5 -16q26 -2 54.5 10.5t49.5 25.5l9 -36q-26 -21 -58.5 -36t-84.5 -15
q-55 0 -82 27t-27 66q0 44 43.5 92t100.5 73h-464v35z" />
    <glyph glyph-name="eogonek" unicode="&#x119;" horiz-adv-x="554" 
d="M452.5 507q48.5 -56 49.5 -155q1 -37 -5 -78h-373q-1 -106 50.5 -168t146.5 -62q41 0 86 10t64 23l16 -36q-78 -58 -113 -96t-35 -72q0 -36 22 -53.5t55 -17.5q41 0 72 18v-38q-40 -31 -101 -31q-51 0 -86 25.5t-35 77.5q0 34 27.5 74t71.5 67q-44 -7 -74 -7
q-114 0 -177 77t-63 207q0 83 34.5 149.5t96 104t138.5 37.5q84 0 132.5 -56zM181.5 469.5q-46.5 -48.5 -55.5 -146.5h297q1 9 0.5 15.5t-0.5 11.5q0 80 -30 124t-99 44q-66 0 -112.5 -48.5z" />
    <glyph glyph-name="Ecaron" unicode="&#x11a;" horiz-adv-x="638" 
d="M50 0zM136 47v664l-84 8v39h501l14 -136h-43l-19 88l-294 6v-294l197 3l11 78h41v-206h-41l-11 79l-197 3v-335l314 8l45 108l35 -10l-21 -150h-534v35zM201 938l123 -89l124 89l32 -20l-118 -125h-78l-119 124z" />
    <glyph glyph-name="ecaron" unicode="&#x11b;" horiz-adv-x="554" 
d="M51 0zM449.5 510.5q49.5 -54.5 52.5 -151.5q2 -35 -5 -85h-373q-1 -106 50.5 -168t146.5 -62q41 0 86 10t64 23l16 -35q-26 -24 -82 -39t-114 -15q-114 0 -177 77t-63 207q0 82 34 147.5t94.5 103.5t137.5 40q83 2 132.5 -52.5zM181.5 469.5q-46.5 -48.5 -55.5 -146.5
h297l1 29q0 121 -66 157q-28 9 -64 9q-66 0 -112.5 -48.5zM158 865l138 -143l140 144l30 -19l-131 -195h-77l-135 195z" />
    <glyph glyph-name="Gbreve" unicode="&#x11e;" horiz-adv-x="747" 
d="M43 0zM544 757.5q44 -7.5 85 -18.5q14 -5 23 -6l-7 -135h-42l-20 83q-14 14 -61.5 25.5t-116.5 10.5q-75 -1 -140 -41t-104.5 -116.5t-39.5 -180.5q0 -92 31 -171.5t94.5 -128.5t154.5 -49q53 0 99.5 11t75.5 37v222l-128 7v39h271v-39l-65 -8v-259q-16 -3 -55 -14
q-64 -19 -114 -29.5t-104 -10.5q-98 0 -175 47.5t-120 131.5t-43 189q0 122 53 215.5t142.5 144.5t195.5 51q66 0 110 -7.5zM540.5 863.5q-19.5 -34.5 -55 -55t-80.5 -20.5q-47 0 -82.5 21t-54 55t-18.5 74h30q8 -23 18 -40.5t36.5 -34.5t71.5 -17t71.5 17.5t36 34
t18.5 40.5h28q0 -40 -19.5 -74.5z" />
    <glyph glyph-name="gbreve" unicode="&#x11f;" horiz-adv-x="583" 
d="M65 0zM429 531q25 21 78 21h61v-61l-101 1q28 -44 28 -106q0 -61 -29.5 -106.5t-78.5 -69.5t-106 -24q-60 0 -105 19q-7 -15 -8.5 -32t-1.5 -41q0 -30 15 -44.5t52 -16.5q24 -3 126 -3q85 0 126.5 -24t52 -54.5t10.5 -68.5q0 -82 -66.5 -131t-181.5 -49q-101 0 -168 33.5
t-67 110.5q0 41 26.5 78.5t57.5 56.5q-26 9 -37.5 23t-13.5 26t-2 33t16 55.5t43 59.5q-80 49 -80 151q0 64 31 108.5t80.5 67t106.5 24.5q81 2 136 -37zM184 490.5q-36 -33.5 -36 -108.5q0 -68 37 -110.5t110 -42.5q63 0 94 35t31 109q0 77 -35 114t-105 37
q-60 0 -96 -33.5zM139 -90q0 -65 49 -93.5t121 -28.5q83 0 132 29t49 85q0 33 -11.5 54.5t-44.5 34t-95 12.5h-69q-55 0 -93 8q-38 -38 -38 -101zM428 756.5q-21 -35.5 -57.5 -57t-82.5 -21.5q-47 0 -83.5 21.5t-56 57t-19.5 74.5h35q1 -2 10 -27t40 -45.5t76 -20.5
t71.5 17.5t32.5 29t22 47.5h33q0 -40 -21 -75.5z" />
    <glyph glyph-name="Gcommaaccent" unicode="&#x122;" horiz-adv-x="747" 
d="M43 0zM544 757.5q44 -7.5 85 -18.5q14 -5 23 -6l-7 -135h-42l-20 83q-14 14 -61.5 25.5t-116.5 10.5q-75 -1 -140 -41t-104.5 -116.5t-39.5 -180.5q0 -92 31 -171.5t94.5 -128.5t154.5 -49q53 0 99.5 11t75.5 37v222l-128 7v39h271v-39l-65 -8v-259q-16 -3 -55 -14
q-64 -19 -114 -29.5t-104 -10.5q-98 0 -175 47.5t-120 131.5t-43 189q0 122 53 215.5t142.5 144.5t195.5 51q66 0 110 -7.5zM447 -74q25 -34 26 -70q0 -41 -19.5 -77t-47 -60t-51.5 -32l-20 22v13q27 11 40.5 45.5t13.5 73.5q0 19 -9 34.5t-21.5 24.5t-22.5 9v22l41 41
q45 -12 70 -46z" />
    <glyph glyph-name="gcommaaccent" unicode="&#x123;" horiz-adv-x="583" 
d="M65 0zM429 531q25 21 78 21h61v-61l-101 1q28 -44 28 -106q0 -61 -29.5 -106.5t-78.5 -69.5t-106 -24q-60 0 -105 19q-7 -15 -8.5 -32t-1.5 -41q0 -30 15 -44.5t52 -16.5q24 -3 126 -3q85 0 126.5 -24t52 -54.5t10.5 -68.5q0 -82 -66.5 -131t-181.5 -49q-101 0 -168 33.5
t-67 110.5q0 41 26.5 78.5t57.5 56.5q-26 9 -37.5 23t-13.5 26t-2 33t16 55.5t43 59.5q-80 49 -80 151q0 64 31 108.5t80.5 67t106.5 24.5q81 2 136 -37zM184 490.5q-36 -33.5 -36 -108.5q0 -68 37 -110.5t110 -42.5q63 0 94 35t31 109q0 77 -35 114t-105 37
q-60 0 -96 -33.5zM139 -90q0 -65 49 -93.5t121 -28.5q83 0 132 29t49 85q0 33 -11.5 54.5t-44.5 34t-95 12.5h-69q-55 0 -93 8q-38 -38 -38 -101zM230 688q-25 34 -26 70q0 41 19.5 77t47 60t51.5 32l20 -22v-13q-27 -11 -40.5 -45.5t-13.5 -73.5q0 -19 9 -34.5t21.5 -24.5
t22.5 -9v-22l-41 -41q-45 12 -70 46z" />
    <glyph glyph-name="hbar" unicode="&#x127;" horiz-adv-x="685" 
d="M140 44v557h-85v50h85v74l-86 14v36l138 17l21 -11l-1 -130h94v-50h-94v-122q42 33 100 55t97 22q66 0 101.5 -25.5t50 -81.5t13.5 -154v-251l74 -9v-35h-231v35l83 9v214q0 91 -8.5 140.5t-35 74t-80.5 24.5q-38 0 -83.5 -13t-79.5 -36v-404l77 -9v-35h-224v35z" />
    <glyph glyph-name="Itilde" unicode="&#x128;" horiz-adv-x="368" 
d="M51.5 915q36.5 23 74.5 23q22 0 38 -9.5t35 -27.5q17 -16 29 -23.5t28 -7.5q27 0 50.5 12.5t41.5 32.5l21 -32q-19 -33 -55.5 -56.5t-74.5 -23.5q-23 0 -38.5 9.5t-35.5 28.5q-17 16 -29 23.5t-27 7.5q-25 0 -50 -13.5t-42 -31.5l-21 31q19 34 55.5 57zM146 47v665l-83 7
v39h241v-39l-83 -7v-666l87 -11v-35h-247v35z" />
    <glyph glyph-name="itilde" unicode="&#x129;" horiz-adv-x="329" 
d="M0 0zM147 44v426l-70 27v25l122 32l18 -9v-501l81 -9v-35h-235v35zM37 788q37 24 74 24q22 0 37.5 -10t34.5 -29q18 -17 30 -25t28 -8q44 0 92 50l21 -30q-19 -34 -56 -57.5t-75 -23.5q-22 0 -37 9.5t-35 28.5q-17 17 -29 25t-28 8q-27 0 -49.5 -14t-43.5 -36l-21 31
q20 33 57 57z" />
    <glyph glyph-name="Imacron" unicode="&#x12a;" horiz-adv-x="355" 
d="M48 0zM305 928v-60h-257v60h257zM146 47v665l-83 7v39h241v-39l-83 -7v-666l87 -11v-35h-247v35z" />
    <glyph glyph-name="imacron" unicode="&#x12b;" horiz-adv-x="329" 
d="M34 0zM147 44v426l-70 27v25l122 32l18 -9v-501l81 -9v-35h-235v35zM291 777v-60h-257v60h257z" />
    <glyph glyph-name="Iogonek" unicode="&#x12e;" horiz-adv-x="368" 
d="M308 35v-35h-24q-31 -10 -65 -35t-56.5 -54t-22.5 -52q0 -32 15 -49t52 -17q14 0 34.5 5t31.5 12l9 -36q-18 -13 -50.5 -22.5t-67.5 -9.5q-40 0 -68 26.5t-28 68.5q0 28 21 60.5t56 60t74 42.5h-158v35l85 12v665l-83 7v39h241v-39l-83 -7v-666z" />
    <glyph glyph-name="iogonek" unicode="&#x12f;" horiz-adv-x="329" 
d="M127 697q-15 14 -15 36q0 25 18.5 43t41.5 18q25 0 38 -14.5t13 -36.5q0 -26 -18 -43t-42 -17q-21 0 -36 14zM300 -207q-29 -22 -60 -36.5t-83 -14.5q-55 0 -82 27t-27 66q0 44 43.5 92t100.5 73h-129v35l84 9v426l-70 27v25l122 32l18 -9v-501l81 -9v-35h-34
q-30 -10 -64.5 -35t-58.5 -54.5t-24 -53.5q0 -35 16 -48.5t53 -15.5q40 -3 105 36z" />
    <glyph glyph-name="Idotaccent" unicode="&#x130;" horiz-adv-x="368" 
d="M61 0zM146 47v665l-83 7v39h241v-39l-83 -7v-666l87 -11v-35h-247v35zM192 880q0 -15 -8 -15l-3 2.5t-3 6.5q0 3 2.5 6.5t4.5 3.5q7 0 7 -4z" />
    <glyph glyph-name="dotlessi" unicode="&#x131;" horiz-adv-x="329" 
d="M147 44v426l-70 27v25l122 32l18 -9v-501l81 -9v-35h-235v35z" />
    <glyph glyph-name="IJ" unicode="&#x132;" horiz-adv-x="716" 
d="M146 47v665l-83 7v39h241v-39l-83 -7v-666l87 -11v-35h-247v35zM429.5 -108.5q42.5 33.5 60.5 78.5q13 39 17.5 90t4.5 136v516l-84 7v39h243v-39l-85 -7v-460l1 -115q0 -71 -7 -111q-16 -89 -82 -145.5t-148 -69.5l-22 30q59 17 101.5 50.5z" />
    <glyph glyph-name="ij" unicode="&#x133;" horiz-adv-x="644" 
d="M63 0zM210 779.5q13 -14.5 13 -36.5q0 -26 -18 -43t-42 -17q-21 0 -36 14t-15 36q0 25 18.5 43t41.5 18q25 0 38 -14.5zM217 545v-501l81 -9v-35h-235v35l84 9v426l-70 27v25l122 32zM538.5 787q12.5 -14 12.5 -37q0 -26 -18 -42.5t-42 -16.5q-21 0 -36 13.5t-15 37.5
q0 25 18.5 42t41.5 17q26 0 38.5 -14zM546 545v-551q0 -115 -46 -179t-126 -64q-11 0 -27.5 1t-19.5 4v57q14 -5 52 -5q34 0 54.5 17t31 58.5t10.5 115.5v471l-73 27v25l126 32z" />
    <glyph glyph-name="Jcircumflex" unicode="&#x134;" horiz-adv-x="348" 
d="M349 811l-37 -20l-130 91l-134 -91l-32 19l126 128h80zM303 719l-84 -7v-460l1 -108q0 -76 -7 -118q-16 -89 -82 -145.5t-149 -69.5l-22 30q59 17 101.5 50t60.5 79q14 39 18 89t4 137v516l-84 7v39h243v-39z" />
    <glyph glyph-name="jcircumflex" unicode="&#x135;" horiz-adv-x="315" 
d="M142 863h78l130 -195l-34 -19l-135 143l-143 -143l-31 18zM73 497v25l126 32l18 -9v-551q0 -115 -46 -179t-126 -64q-11 0 -27.5 1t-19.5 4v57q14 -5 52 -5q34 0 54.5 17t31 58.5t10.5 115.5v471z" />
    <glyph glyph-name="Kcommaaccent" unicode="&#x136;" horiz-adv-x="686" 
d="M55 0zM134 46v666l-77 7v39h231v-39l-78 -7v-357l300 356l-76 8l-1 39h228v-39l-77 -8l-239 -273q16 -18 50 -69.5t69 -106.5q64 -102 102 -157t50 -54l79 -16v-35h-134q-11 0 -39 42.5t-83 133.5q-49 82 -83 135t-56 75l-90 -104v-236l87 -11v-35h-242v35zM460 -74
q25 -34 26 -70q0 -41 -19.5 -77t-47 -60t-51.5 -32l-20 22v13q27 11 40.5 45.5t13.5 73.5q0 19 -9 34.5t-21.5 24.5t-22.5 9v22l41 41q45 -12 70 -46z" />
    <glyph glyph-name="kcommaaccent" unicode="&#x137;" horiz-adv-x="617" 
d="M52 0zM140 44v683l-88 13v35l145 17l17 -10v-424l-2 -92l238 238l-71 6v42h213v-42l-71 -7l-179 -176l216 -283l72 -9v-35h-225v35l73 10l-180 246l-86 -82l2 -111v-55l74 -8v-35h-229v35zM409 -74q25 -34 26 -70q0 -41 -19.5 -77t-47 -60t-51.5 -32l-20 22v13
q27 11 40.5 45.5t13.5 73.5q0 19 -9 34.5t-21.5 24.5t-22.5 9v22l41 41q45 -12 70 -46z" />
    <glyph glyph-name="kgreenlandic" unicode="&#x138;" horiz-adv-x="617" 
d="M140 44v452l-90 12v36l149 14l14 -10v-204l-2 -78l239 238l-71 6v42h213v-42l-72 -7l-179 -176l217 -283l71 -9v-35h-224v35l73 10l-181 246l-86 -82l3 -111v-55l74 -8v-35h-230v35z" />
    <glyph glyph-name="Lacute" unicode="&#x139;" horiz-adv-x="604" 
d="M53 0zM139 47v661l-84 7v43h250v-43l-90 -7l-1 -662l287 9l54 119l35 -18l-32 -156h-505v35zM298 938l60 -61q-95 -66 -181 -91l-21 20z" />
    <glyph glyph-name="lacute" unicode="&#x13a;" horiz-adv-x="339" 
d="M62 0zM147 44v681l-80 14v36l136 17l18 -11v-738l87 -8v-35h-246v35zM264 1044l56 -61q-38 -59 -181 -147l-22 22z" />
    <glyph glyph-name="Lcommaaccent" unicode="&#x13b;" horiz-adv-x="604" 
d="M53 0zM139 47v661l-84 7v43h250v-43l-90 -7l-1 -662l287 9l54 119l35 -18l-32 -156h-505v35zM364 -74q25 -34 26 -70q0 -41 -19.5 -77t-47 -60t-51.5 -32l-20 22v13q27 11 40.5 45.5t13.5 73.5q0 19 -9 34.5t-21.5 24.5t-22.5 9v22l41 41q45 -12 70 -46z" />
    <glyph glyph-name="lcommaaccent" unicode="&#x13c;" horiz-adv-x="339" 
d="M62 0zM147 44v681l-80 14v36l136 17l18 -11v-738l87 -8v-35h-246v35zM239 -74q25 -34 26 -70q0 -41 -19.5 -77t-47 -60t-51.5 -32l-20 22v13q27 11 40.5 45.5t13.5 73.5q0 19 -9 34.5t-21.5 24.5t-22.5 9v22l41 41q45 -12 70 -46z" />
    <glyph glyph-name="Lcaron" unicode="&#x13d;" horiz-adv-x="604" 
d="M53 0zM139 47v661l-84 7v43h250v-43l-90 -7l-1 -662l287 9l54 119l35 -18l-32 -156h-505v35zM401 541q19 54 19 114q0 42 -7.5 79t-17.5 48l7 21l61 17q13 -14 21.5 -45t8.5 -65q0 -61 -18 -120t-43 -79l-30 17z" />
    <glyph glyph-name="lcaron" unicode="&#x13e;" horiz-adv-x="339" 
d="M62 0zM147 44v681l-80 14v36l136 17l18 -11v-738l87 -8v-35h-246v35zM289 541q19 54 19 114q0 42 -7.5 79t-17.5 48l7 21l61 17q13 -14 21.5 -45t8.5 -65q0 -61 -18 -120t-43 -79l-30 17z" />
    <glyph glyph-name="Ldot" unicode="&#x13f;" horiz-adv-x="678" 
d="M305 715l-90 -7l-1 -662l287 9l54 119l35 -18l-32 -156h-505v35l86 12v661l-84 7v43h250v-43zM628 452q11 -13 11 -32q0 -25 -16.5 -41t-38.5 -16q-20 0 -34 12.5t-14 33.5q0 24 18 40t40 16q23 0 34 -13z" />
    <glyph glyph-name="ldot" unicode="&#x140;" horiz-adv-x="505" 
d="M221 781v-738l87 -8v-35h-246v35l85 9v681l-80 14v36l136 17zM467 431.5q11 -14.5 9 -35.5q-1 -23 -17.5 -37.5t-38.5 -14.5q-20 0 -33.5 12.5t-13.5 33.5q0 24 18 40t40 16q25 0 36 -14.5z" />
    <glyph glyph-name="Lslash" unicode="&#x141;" horiz-adv-x="604" 
d="M305 715l-90 -7l-1 -337l191 76l82 33v-63l-273 -106v-265l287 9l54 119l35 -18l-32 -156h-505v35l86 12v235l-92 -35v28v29l92 37v367l-84 7v43h250v-43z" />
    <glyph glyph-name="lslash" unicode="&#x142;" horiz-adv-x="339" 
d="M147 44v344l-84 -34v53l84 35v283l-80 14v36l136 17l18 -11v-308l93 39v-57l-93 -38v-374l87 -8v-35h-246v35z" />
    <glyph glyph-name="Nacute" unicode="&#x143;" horiz-adv-x="810" 
d="M52 0zM770 716l-85 -8v-708h-79l-340 532l-71 137l-1 -623l97 -11v-35h-239v35l85 11v662l-82 7v43h158l342 -551l73 -135v636l-81 8v42h223v-42zM525 938l60 -61q-95 -66 -181 -91l-21 20z" />
    <glyph glyph-name="nacute" unicode="&#x144;" horiz-adv-x="678" 
d="M444 863l56 -61q-40 -60 -181 -147l-22 22zM138 43v423l-71 31v25l117 32l19 -10v-67q36 29 94.5 53.5t105.5 25.5q61 3 97 -19.5t52 -74t16 -138.5v-281l79 -8v-35h-228v35l75 9v267q0 67 -10 107.5t-35 60t-71 19.5q-38 0 -80.5 -15t-84.5 -44v-395l76 -9v-35h-220v35z
" />
    <glyph glyph-name="Ncommaaccent" unicode="&#x145;" horiz-adv-x="810" 
d="M52 0zM770 716l-85 -8v-708h-79l-340 532l-71 137l-1 -623l97 -11v-35h-239v35l85 11v662l-82 7v43h158l342 -551l73 -135v636l-81 8v42h223v-42zM482 -74q25 -34 26 -70q0 -41 -19.5 -77t-47 -60t-51.5 -32l-20 22v13q27 11 40.5 45.5t13.5 73.5q0 19 -9 34.5
t-21.5 24.5t-22.5 9v22l41 41q45 -12 70 -46z" />
    <glyph glyph-name="ncommaaccent" unicode="&#x146;" horiz-adv-x="678" 
d="M67 0zM138 43v423l-71 31v25l117 32l19 -10v-67q36 29 94.5 53.5t105.5 25.5q61 3 97 -19.5t52 -74t16 -138.5v-281l79 -8v-35h-228v35l75 9v267q0 67 -10 107.5t-35 60t-71 19.5q-38 0 -80.5 -15t-84.5 -44v-395l76 -9v-35h-220v35zM410 -74q25 -34 26 -70
q0 -41 -19.5 -77t-47 -60t-51.5 -32l-20 22v13q27 11 40.5 45.5t13.5 73.5q0 19 -9 34.5t-21.5 24.5t-22.5 9v22l41 41q45 -12 70 -46z" />
    <glyph glyph-name="Ncaron" unicode="&#x147;" horiz-adv-x="810" 
d="M52 0zM770 716l-85 -8v-708h-79l-340 532l-71 137l-1 -623l97 -11v-35h-239v35l85 11v662l-82 7v43h158l342 -551l73 -135v636l-81 8v42h223v-42zM293 938l123 -89l124 89l32 -20l-118 -125h-78l-119 124z" />
    <glyph glyph-name="ncaron" unicode="&#x148;" horiz-adv-x="678" 
d="M67 0zM138 43v423l-71 31v25l117 32l19 -10v-67q36 29 94.5 53.5t105.5 25.5q61 3 97 -19.5t52 -74t16 -138.5v-281l79 -8v-35h-228v35l75 9v267q0 67 -10 107.5t-35 60t-71 19.5q-38 0 -80.5 -15t-84.5 -44v-395l76 -9v-35h-220v35zM210 865l138 -143l140 144l30 -19
l-131 -195h-77l-135 195z" />
    <glyph glyph-name="Omacron" unicode="&#x14c;" horiz-adv-x="758" 
d="M46 0zM507 928v-60h-257v60h257zM566.5 717.5q70.5 -47.5 109 -131.5t38.5 -191q0 -127 -46.5 -219.5t-124.5 -141t-173 -48.5q-96 0 -169.5 48t-114 132.5t-40.5 191.5q0 131 51 225.5t136 140.5q75 41 170 41q93 0 163.5 -47.5zM251.5 679.5q-57.5 -41.5 -90 -121.5
t-32.5 -190q0 -93 31 -170t89 -122.5t136 -45.5q73 0 129 42.5t86.5 122.5t30.5 190q0 91 -29 167.5t-85 122.5t-134 46q-74 0 -131.5 -41.5z" />
    <glyph glyph-name="omacron" unicode="&#x14d;" horiz-adv-x="594" 
d="M52 0zM410 777v-60h-257v60h257zM442 524.5q53 -38.5 78 -102.5t25 -142q-1 -84 -34.5 -150.5t-90.5 -104t-125 -37.5q-84 0 -138.5 40t-79.5 106t-25 145q0 85 36 149.5t95.5 99.5t126.5 35q79 0 132 -38.5zM172 459q-42 -60 -42 -170t44 -182t129 -72q83 0 123 60.5
t40 179.5q0 109 -42.5 176.5t-126.5 67.5q-83 0 -125 -60z" />
    <glyph glyph-name="Ohungarumlaut" unicode="&#x150;" horiz-adv-x="756" 
d="M46 0zM566.5 717.5q70.5 -47.5 109 -131.5t38.5 -191q0 -127 -46.5 -219.5t-124.5 -141t-173 -48.5q-96 0 -169.5 48t-114 132.5t-40.5 191.5q0 131 51 225.5t136 140.5q75 41 170 41q93 0 163.5 -47.5zM251.5 679.5q-57.5 -41.5 -90 -121.5t-32.5 -190q0 -93 31 -170
t89 -122.5t136 -45.5q73 0 129 42.5t86.5 122.5t30.5 190q0 91 -29 167.5t-85 122.5t-134 46q-74 0 -131.5 -41.5zM415 993l48 -48q-26 -36 -81 -84t-110 -90l-19 22zM647 993l49 -48q-27 -35 -82.5 -83.5t-109.5 -90.5l-19 22z" />
    <glyph glyph-name="ohungarumlaut" unicode="&#x151;" horiz-adv-x="595" 
d="M52 0zM442 524.5q53 -38.5 78 -102.5t25 -142q-1 -84 -34.5 -150.5t-90.5 -104t-125 -37.5q-84 0 -138.5 40t-79.5 106t-25 145q0 85 36 149.5t95.5 99.5t126.5 35q79 0 132 -38.5zM172 459q-42 -60 -42 -170t44 -182t129 -72q83 0 123 60.5t40 179.5q0 109 -42.5 176.5
t-126.5 67.5q-83 0 -125 -60zM298 878l48 -48q-26 -36 -81 -84t-110 -90l-19 22zM530 878l49 -48q-27 -35 -82.5 -83.5t-109.5 -90.5l-19 22z" />
    <glyph glyph-name="OE" unicode="&#x152;" horiz-adv-x="1004" 
d="M470 758h456l13 -136h-43l-20 88l-282 6v-293l194 4l14 77h40v-205h-40l-14 78l-194 3v-336l296 8l46 108l37 -10l-22 -150h-483q-39 -11 -92 -14q-99 -1 -175 47.5t-116.5 136t-38.5 199.5q2 124 50 213.5t128.5 136t178.5 46.5q29 0 67 -7zM251.5 679.5
q-57.5 -41.5 -90 -121t-32.5 -189.5q0 -93 31 -170.5t89 -123.5t136 -46q77 0 135 50v590q-57 52 -137 52q-74 0 -131.5 -41.5z" />
    <glyph glyph-name="oe" unicode="&#x153;" horiz-adv-x="990" 
d="M887.5 508.5q48.5 -54.5 50.5 -149.5q2 -35 -5 -85h-373q-1 -106 50.5 -168t147.5 -62q41 0 85.5 10t64.5 23l15 -35q-26 -24 -82 -39t-113 -15q-79 0 -134 37t-82 106q-33 -67 -90 -105t-127 -38q-83 0 -137.5 40t-80 106t-25.5 144q0 85 36 150t95 100t127 35
q78 0 131 -38.5t79 -104.5q35 67 97 105t141 38q81 0 129.5 -54.5zM172.5 459.5q-42.5 -59.5 -42.5 -170.5q0 -110 44 -182t128 -72q83 0 123.5 60t40.5 180q0 109 -42 176.5t-127 67.5q-82 0 -124.5 -59.5zM617.5 469.5q-46.5 -48.5 -55.5 -146.5h297q1 11 1 32
q0 118 -66 154q-27 9 -63 9q-67 0 -113.5 -48.5z" />
    <glyph glyph-name="Racute" unicode="&#x154;" horiz-adv-x="687" 
d="M43 0zM508 719.5q65 -45.5 65 -157.5q0 -75 -46 -132t-121 -81l5 -1q36 -13 70 -62t77 -128q30 -56 47.5 -82t31.5 -29l55 -12v-35h-126q-11 0 -27 26.5t-45 83.5q-52 106 -95 167t-90 56h-95v-286l105 -12v-35h-276v35l96 12v660l-84 7v44h128q7 0 41 2q65 5 99 5
q120 0 185 -45.5zM269 720.5q-33 -0.5 -55 -7.5v-333q21 -2 50.5 -3t53.5 -1q84 1 129.5 46t45.5 130q0 86 -41.5 129.5t-140.5 39.5q-9 0 -42 -0.5zM456 938l60 -61q-95 -66 -181 -91l-21 20z" />
    <glyph glyph-name="racute" unicode="&#x155;" horiz-adv-x="449" 
d="M54 0zM139 44v422l-72 31v25l116 32l20 -10v-69q22 27 77 53.5t100 26.5q32 0 48 -2v-82q-4 1 -17 5.5t-29 6.5t-37 2q-68 0 -132 -41v-400l146 -9v-35h-305v35zM297 863l56 -61q-38 -59 -181 -147l-22 22z" />
    <glyph glyph-name="Rcommaaccent" unicode="&#x156;" horiz-adv-x="687" 
d="M43 0zM508 719.5q65 -45.5 65 -157.5q0 -75 -46 -132t-121 -81l5 -1q36 -13 70 -62t77 -128q30 -56 47.5 -82t31.5 -29l55 -12v-35h-126q-11 0 -27 26.5t-45 83.5q-52 106 -95 167t-90 56h-95v-286l105 -12v-35h-276v35l96 12v660l-84 7v44h128q7 0 41 2q65 5 99 5
q120 0 185 -45.5zM269 720.5q-33 -0.5 -55 -7.5v-333q21 -2 50.5 -3t53.5 -1q84 1 129.5 46t45.5 130q0 86 -41.5 129.5t-140.5 39.5q-9 0 -42 -0.5zM434 -74q25 -34 26 -70q0 -41 -19.5 -77t-47 -60t-51.5 -32l-20 22v13q27 11 40.5 45.5t13.5 73.5q0 19 -9 34.5
t-21.5 24.5t-22.5 9v22l41 41q45 -12 70 -46z" />
    <glyph glyph-name="rcommaaccent" unicode="&#x157;" horiz-adv-x="449" 
d="M54 0zM139 44v422l-72 31v25l116 32l20 -10v-69q22 27 77 53.5t100 26.5q32 0 48 -2v-82q-4 1 -17 5.5t-29 6.5t-37 2q-68 0 -132 -41v-400l146 -9v-35h-305v35zM241 -74q25 -34 26 -70q0 -41 -19.5 -77t-47 -60t-51.5 -32l-20 22v13q27 11 40.5 45.5t13.5 73.5
q0 19 -9 34.5t-21.5 24.5t-22.5 9v22l41 41q45 -12 70 -46z" />
    <glyph glyph-name="Rcaron" unicode="&#x158;" horiz-adv-x="687" 
d="M43 0zM508 719.5q65 -45.5 65 -157.5q0 -75 -46 -132t-121 -81l5 -1q36 -13 70 -62t77 -128q30 -56 47.5 -82t31.5 -29l55 -12v-35h-126q-11 0 -27 26.5t-45 83.5q-52 106 -95 167t-90 56h-95v-286l105 -12v-35h-276v35l96 12v660l-84 7v44h128q7 0 41 2q65 5 99 5
q120 0 185 -45.5zM269 720.5q-33 -0.5 -55 -7.5v-333q21 -2 50.5 -3t53.5 -1q84 1 129.5 46t45.5 130q0 86 -41.5 129.5t-140.5 39.5q-9 0 -42 -0.5zM215 938l123 -89l124 89l32 -20l-118 -125h-78l-119 124z" />
    <glyph glyph-name="rcaron" unicode="&#x159;" horiz-adv-x="449" 
d="M54 0zM139 44v422l-72 31v25l116 32l20 -10v-69q22 27 77 53.5t100 26.5q32 0 48 -2v-82q-4 1 -17 5.5t-29 6.5t-37 2q-68 0 -132 -41v-400l146 -9v-35h-305v35zM148 865l138 -143l140 144l30 -19l-131 -195h-77l-135 195z" />
    <glyph glyph-name="Sacute" unicode="&#x15a;" horiz-adv-x="595" 
d="M76 0zM163 2.5q-64 13.5 -87 27.5v147h36l26 -96q28 -27 74 -39t96 -12q67 0 116 34.5t49 105.5q0 42 -25.5 75t-63.5 58t-103 59q-61 31 -102 59t-69 67.5t-28 89.5q0 64 36.5 106.5t90 61.5t106.5 19q119 0 183 -38v-130h-33l-33 94q-37 33 -126 33q-35 0 -70.5 -13.5
t-60 -44.5t-24.5 -79q0 -52 43.5 -89t124.5 -78q75 -38 118 -65.5t74.5 -68t31.5 -94.5q0 -103 -70 -153t-178 -50q-68 0 -132 13.5zM372 938l60 -61q-95 -66 -181 -91l-21 20z" />
    <glyph glyph-name="Scedilla" unicode="&#x15e;" horiz-adv-x="595" 
d="M542 194q0 -98 -64 -148.5t-166 -54.5q-2 -18 -2 -31q0 -14 1 -20q65 1 98 -26.5t33 -65.5q0 -46 -33.5 -73.5t-86.5 -30.5l-23 -1q-32 0 -50 5t-23 6l1 41q15 -3 31 -5.5t28 -2.5q36 0 57.5 12t21.5 50q0 27 -22 41.5t-65 14.5q-8 0 -15.5 -1t-10.5 -1q0 41 12 88
q-60 3 -114.5 15.5t-73.5 23.5v147h36l26 -96q28 -27 74 -39t96 -12q67 0 116 34.5t49 105.5q0 42 -25.5 75t-63.5 58t-103 59q-61 31 -102 59t-69 67.5t-28 89.5q0 64 36.5 106.5t90 61.5t106.5 19q119 0 183 -38v-130h-33l-33 94q-37 33 -126 33q-35 0 -70.5 -13.5
t-60 -44.5t-24.5 -79q0 -52 43.5 -89t124.5 -78q75 -38 118 -65.5t74.5 -68t31.5 -94.5z" />
    <glyph glyph-name="scedilla" unicode="&#x15f;" horiz-adv-x="509" 
d="M456 149q0 -76 -55.5 -118t-144.5 -44q-2 -18 -2 -29q0 -13 1 -19q65 1 98 -26.5t33 -65.5q0 -46 -33.5 -73.5t-86.5 -30.5l-23 -1q-32 0 -50 5t-23 6l1 41q15 -3 31 -5.5t28 -2.5q36 0 57.5 12t21.5 50q0 27 -22 41.5t-65 14.5q-8 0 -15.5 -1t-10.5 -1q0 42 12 89
q-69 8 -124 39v107h35l16 -64q26 -21 55 -30t66 -9q59 0 94.5 25t35.5 75q0 26 -14.5 44t-36.5 30.5t-60 29.5l-35 16q-69 32 -109 68.5t-40 92.5q0 49 29 82t73.5 49.5t91.5 16.5q44 0 82 -10.5t60 -25.5v-98h-32l-18 57q-34 34 -94 34q-57 0 -89.5 -24t-32.5 -70
q0 -35 27 -56t84 -49l25 -12q8 -4 57 -25.5t76 -55.5t27 -78z" />
    <glyph glyph-name="Scaron" unicode="&#x160;" horiz-adv-x="595" 
d="M76 0zM163 2.5q-64 13.5 -87 27.5v147h36l26 -96q28 -27 74 -39t96 -12q67 0 116 34.5t49 105.5q0 42 -25.5 75t-63.5 58t-103 59q-61 31 -102 59t-69 67.5t-28 89.5q0 64 36.5 106.5t90 61.5t106.5 19q119 0 183 -38v-130h-33l-33 94q-37 33 -126 33q-35 0 -70.5 -13.5
t-60 -44.5t-24.5 -79q0 -52 43.5 -89t124.5 -78q75 -38 118 -65.5t74.5 -68t31.5 -94.5q0 -103 -70 -153t-178 -50q-68 0 -132 13.5zM193 938l123 -89l124 89l32 -20l-118 -125h-78l-119 124z" />
    <glyph glyph-name="scaron" unicode="&#x161;" horiz-adv-x="495" 
d="M115 865l139 -143l139 144l30 -19l-131 -195h-77l-135 195zM116 137l17 -64q26 -21 55 -30t66 -9q59 0 94.5 25t35.5 75q0 26 -14.5 44t-36.5 30.5t-61 29.5l-35 16q-69 31 -109 68t-40 94q0 48 29 81.5t73.5 49.5t90.5 16q45 0 83.5 -10.5t60.5 -25.5v-98h-33l-18 57
q-32 34 -93 34q-57 0 -89.5 -24.5t-32.5 -70.5q0 -27 18 -47t40 -31.5t78 -37.5q8 -4 56.5 -25.5t75.5 -55.5t27 -78q0 -77 -57 -119.5t-148 -42.5q-93 0 -167 42v107h34z" />
    <glyph glyph-name="Tcaron" unicode="&#x164;" horiz-adv-x="597" 
d="M14 0zM187 938l123 -89l124 89l32 -20l-118 -125h-78l-119 124zM275 47v666l-195 -8l-32 -88l-34 -1l12 142h573l-1 -144l-33 -4l-21 95l-194 8v-666l133 -12v-35h-332v35z" />
    <glyph glyph-name="tcaron" unicode="&#x165;" horiz-adv-x="418" 
d="M60 0zM209 546h173v-52h-174v-275q0 -79 4 -113.5t16.5 -47.5t40.5 -13t60.5 10t45.5 19l13 -38q-19 -21 -64 -34.5t-81 -13.5q-52 0 -79.5 32t-27.5 102v372h-76v31l30 7q28 6 38 11t18 22q7 23 15 61.5t9 50.5h39v-131zM287 671q19 54 19 114q0 42 -7.5 79t-17.5 48
l7 21l61 17q13 -14 21.5 -45t8.5 -65q0 -61 -18 -120t-43 -79l-30 17z" />
    <glyph glyph-name="Umacron" unicode="&#x16a;" horiz-adv-x="768" 
d="M16 0zM745 719l-77 -8v-380q0 -177 -76 -261t-206 -84q-157 0 -225.5 82.5t-68.5 253.5l1 390l-77 7v39h239v-39l-87 -8v-392q0 -162 61.5 -227t171.5 -65q104 0 155 78.5t51 225.5v380l-88 8v39h226v-39zM516 908v-60h-257v60h257z" />
    <glyph glyph-name="umacron" unicode="&#x16b;" horiz-adv-x="629" 
d="M57 0zM57 503v31l109 21l15 -9v-335q0 -62 9 -96.5t33.5 -51.5t71.5 -17q46 0 90 22t64 42v379l-61 10v33l121 23l12 -8v-511h61v-33q-15 -7 -38.5 -12.5t-41.5 -5.5q-46 0 -46 38v45q-94 -78 -191 -78q-73 0 -107 29.5t-42 76t-9 133.5v264zM441 777v-60h-257v60h257z
" />
    <glyph glyph-name="Uring" unicode="&#x16e;" horiz-adv-x="768" 
d="M16 0zM745 719l-77 -8v-380q0 -177 -76 -261t-206 -84q-157 0 -225.5 82.5t-68.5 253.5l1 390l-77 7v39h239v-39l-87 -8v-392q0 -162 61.5 -227t171.5 -65q104 0 155 78.5t51 225.5v380l-88 8v39h226v-39zM472.5 905.5q35.5 -32.5 35.5 -79.5q0 -46 -35.5 -78.5
t-85.5 -32.5t-85 32.5t-35 78.5q0 47 35 79.5t85 32.5t85.5 -32.5zM337 871.5q-21 -18.5 -21 -45.5q0 -28 20.5 -46.5t50.5 -18.5t50.5 18.5t20.5 45.5q0 28 -21 46.5t-50 18.5t-50 -18.5z" />
    <glyph glyph-name="uring" unicode="&#x16f;" horiz-adv-x="629" 
d="M57 0zM57 503v31l109 21l15 -9v-335q0 -62 9 -96.5t33.5 -51.5t71.5 -17q46 0 90 22t64 42v379l-61 10v33l121 23l12 -8v-511h61v-33q-15 -7 -38.5 -12.5t-41.5 -5.5q-46 0 -46 38v45q-94 -78 -191 -78q-73 0 -107 29.5t-42 76t-9 133.5v264zM391.5 842.5
q34.5 -33.5 34.5 -81.5q0 -47 -34.5 -80.5t-84.5 -33.5q-49 0 -84 33.5t-35 80.5t35 81t84 34q50 0 84.5 -33.5zM257.5 808.5q-20.5 -20.5 -20.5 -48.5q0 -29 20.5 -49t48.5 -20q29 0 49.5 20t20.5 49t-20.5 49t-49.5 20q-28 0 -48.5 -20.5z" />
    <glyph glyph-name="Uhungarumlaut" unicode="&#x170;" horiz-adv-x="768" 
d="M16 0zM745 719l-77 -8v-380q0 -177 -76 -261t-206 -84q-157 0 -225.5 82.5t-68.5 253.5l1 390l-77 7v39h239v-39l-87 -8v-392q0 -162 61.5 -227t171.5 -65q104 0 155 78.5t51 225.5v380l-88 8v39h226v-39zM415 993l48 -48q-26 -36 -81 -84t-110 -90l-19 22zM647 993
l49 -48q-27 -35 -82.5 -83.5t-109.5 -90.5l-19 22z" />
    <glyph glyph-name="uhungarumlaut" unicode="&#x171;" horiz-adv-x="629" 
d="M57 0zM57 503v31l109 21l15 -9v-335q0 -62 9 -96.5t33.5 -51.5t71.5 -17q46 0 90 22t64 42v379l-61 10v33l121 23l12 -8v-511h61v-33q-15 -7 -38.5 -12.5t-41.5 -5.5q-46 0 -46 38v45q-94 -78 -191 -78q-73 0 -107 29.5t-42 76t-9 133.5v264zM329 878l48 -48
q-26 -36 -81 -84t-110 -90l-19 22zM561 878l49 -48q-27 -35 -82.5 -83.5t-109.5 -90.5l-19 22z" />
    <glyph glyph-name="Uogonek" unicode="&#x172;" horiz-adv-x="768" 
d="M744 758v-39l-77 -8v-380q0 -155 -59 -238.5t-162 -101.5q-45 -22 -83 -62.5t-38 -70.5q0 -32 15 -49t52 -17q14 0 34.5 5t31.5 12l9 -36q-18 -13 -50.5 -22.5t-67.5 -9.5q-40 0 -68 26.5t-28 68.5q0 37 35 80t86 70q-151 3 -216.5 85.5t-65.5 250.5l1 390l-77 7v39h239
v-39l-87 -8v-392q0 -162 61.5 -227t171.5 -65q104 0 155 78.5t51 225.5v380l-88 8v39h225z" />
    <glyph glyph-name="uogonek" unicode="&#x173;" horiz-adv-x="629" 
d="M505 -13q-44 -25 -79 -61.5t-35 -66.5q0 -35 16 -48.5t53 -15.5q40 -3 105 36l9 -36q-29 -22 -60 -36.5t-83 -14.5q-55 0 -82 27t-27 66q0 44 43 90.5t99 72.5q-7 8 -7 24v45q-94 -78 -191 -78q-73 0 -107 29.5t-42 76t-9 133.5v264l-50 10v31l109 21l15 -9v-335
q0 -62 9 -96.5t33.5 -51.5t71.5 -17q46 0 90 22t64 42v379l-61 10v33l121 23l12 -8v-511h61v-33q-15 -7 -38 -12.5t-41 -6.5z" />
    <glyph glyph-name="Ydieresis" unicode="&#x178;" horiz-adv-x="653" 
d="M6 0zM301 47v273l-237 392l-58 7v39h225v-39l-81 -8l166 -302l26 -51l24 52l152 301l-84 8v39h212v-39l-65 -12l-205 -391v-269l101 -12v-35h-273v35zM347 932q27 0 40 -15t13 -38q0 -27 -18.5 -44.5t-43.5 -17.5h-3h-3q-21 0 -37 14.5t-16 37.5q0 26 19.5 44.5
t43.5 18.5h3h3h-1z" />
    <glyph glyph-name="Zacute" unicode="&#x179;" horiz-adv-x="658" 
d="M49 0zM620 724l-431 -613l-52 -66l395 16l55 123l42 -9l-33 -175h-535l-12 36l436 617l50 61l-372 -9l-41 -109l-43 7l14 155h515zM481 938l60 -61q-95 -66 -181 -91l-21 20z" />
    <glyph glyph-name="zacute" unicode="&#x17a;" horiz-adv-x="522" 
d="M45 0zM485 512l-304 -411l-48 -61l290 10l30 84h40l-9 -134h-425l-14 36l33 43l278 380l41 49l-267 -7l-27 -90h-35l1 135h406zM338 863l56 -61q-38 -59 -181 -147l-22 22z" />
    <glyph glyph-name="Zdotaccent" unicode="&#x17b;" horiz-adv-x="658" 
d="M49 0zM620 724l-431 -613l-52 -66l395 16l55 123l42 -9l-33 -175h-535l-12 36l436 617l50 61l-372 -9l-41 -109l-43 7l14 155h515zM368 880q0 -15 -8 -15l-3 2.5t-3 6.5q0 3 2.5 6.5t4.5 3.5q7 0 7 -4z" />
    <glyph glyph-name="zdotaccent" unicode="&#x17c;" horiz-adv-x="522" 
d="M45 0zM485 512l-304 -411l-48 -61l290 10l30 84h40l-9 -134h-425l-14 36l33 43l278 380l41 49l-267 -7l-27 -90h-35l1 135h406zM309 777q13 -15 13 -37q0 -27 -19 -45t-44 -18q-20 0 -36 15t-16 38q0 25 19.5 43.5t42.5 18.5q27 0 40 -15z" />
    <glyph glyph-name="Zcaron" unicode="&#x17d;" horiz-adv-x="658" 
d="M49 0zM620 724l-431 -613l-52 -66l395 16l55 123l42 -9l-33 -175h-535l-12 36l436 617l50 61l-372 -9l-41 -109l-43 7l14 155h515zM239 938l123 -89l124 89l32 -20l-118 -125h-78l-119 124z" />
    <glyph glyph-name="zcaron" unicode="&#x17e;" horiz-adv-x="522" 
d="M45 0zM485 512l-304 -411l-48 -61l290 10l30 84h40l-9 -134h-425l-14 36l33 43l278 380l41 49l-267 -7l-27 -90h-35l1 135h406zM134 865l138 -143l140 144l30 -19l-131 -195h-77l-135 195z" />
    <glyph glyph-name="florin" unicode="&#x192;" horiz-adv-x="523" 
d="M91 487l2 32l114 24l3 44q6 69 41 122.5t82.5 82.5t88.5 29q52 0 66 -8l-5 -69q-6 5 -29 9.5t-55 4.5q-31 0 -53.5 -9.5t-38 -40t-19.5 -88.5l-7 -78h156l-5 -55h-155l-50 -661h-75l50 661h-111z" />
    <glyph glyph-name="Scommaaccent" unicode="&#x218;" horiz-adv-x="595" 
d="M76 0zM163 2.5q-64 13.5 -87 27.5v147h36l26 -96q28 -27 74 -39t96 -12q67 0 116 34.5t49 105.5q0 42 -25.5 75t-63.5 58t-103 59q-61 31 -102 59t-69 67.5t-28 89.5q0 64 36.5 106.5t90 61.5t106.5 19q119 0 183 -38v-130h-33l-33 94q-37 33 -126 33q-35 0 -70.5 -13.5
t-60 -44.5t-24.5 -79q0 -52 43.5 -89t124.5 -78q75 -38 118 -65.5t74.5 -68t31.5 -94.5q0 -103 -70 -153t-178 -50q-68 0 -132 13.5zM351 -86q25 -34 26 -70q0 -41 -19.5 -77t-47 -60t-51.5 -32l-20 22v13q27 11 40.5 45.5t13.5 73.5q0 19 -9 34.5t-21.5 24.5t-22.5 9v22
l41 41q45 -12 70 -46z" />
    <glyph glyph-name="scommaaccent" unicode="&#x219;" horiz-adv-x="509" 
d="M84 0zM119 137l16 -64q26 -21 55 -30t66 -9q59 0 94.5 25t35.5 75q0 26 -14.5 44t-36.5 30.5t-60 29.5l-35 16q-69 32 -109 68.5t-40 92.5q0 49 29 82t73.5 49.5t91.5 16.5q44 0 82 -10.5t60 -25.5v-98h-32l-18 57q-34 34 -94 34q-57 0 -89.5 -24t-32.5 -70q0 -35 27 -56
t84 -49l25 -12q8 -4 57 -25.5t76 -55.5t27 -78q0 -77 -57.5 -119.5t-148.5 -42.5q-93 0 -167 42v107h35zM310 -87q25 -34 26 -70q0 -41 -19.5 -77t-47 -60t-51.5 -32l-20 22v13q27 11 40.5 45.5t13.5 73.5q0 19 -9 34.5t-21.5 24.5t-22.5 9v22l41 41q45 -12 70 -46z" />
    <glyph glyph-name="uni021A" unicode="&#x21a;" horiz-adv-x="610" 
d="M14 0zM275 47v666l-195 -8l-32 -88l-34 -1l12 142h573l-1 -144l-33 -4l-21 95l-194 8v-666l133 -12v-35h-332v35zM368 -74q25 -34 26 -70q0 -41 -19.5 -77t-47 -60t-51.5 -32l-20 22v13q27 11 40.5 45.5t13.5 73.5q0 19 -9 34.5t-21.5 24.5t-22.5 9v22l41 41
q45 -12 70 -46z" />
    <glyph glyph-name="uni021B" unicode="&#x21b;" horiz-adv-x="418" 
d="M60 0zM209 546h173v-52h-174v-275q0 -79 4 -113.5t16.5 -47.5t40.5 -13t60.5 10t45.5 19l13 -38q-19 -21 -64 -34.5t-81 -13.5q-52 0 -79.5 32t-27.5 102v372h-76v31l30 7q28 6 38 11t18 22q7 23 15 61.5t9 50.5h39v-131zM292 -74q25 -34 26 -70q0 -41 -19.5 -77t-47 -60
t-51.5 -32l-20 22v13q27 11 40.5 45.5t13.5 73.5q0 19 -9 34.5t-21.5 24.5t-22.5 9v22l41 41q45 -12 70 -46z" />
    <glyph glyph-name="uni0237" unicode="&#x237;" horiz-adv-x="315" 
d="M73 497v25l126 32l18 -9v-551q0 -115 -46 -179t-126 -64q-11 0 -27.5 1t-19.5 4v57q14 -5 52 -5q34 0 54.5 17t31 58.5t10.5 115.5v471z" />
    <glyph glyph-name="circumflex" unicode="&#x2c6;" horiz-adv-x="519" 
d="M221 866h78l130 -194l-34 -20l-136 144l-142 -144l-31 18z" />
    <glyph glyph-name="caron" unicode="&#x2c7;" horiz-adv-x="519" 
d="M120 865l138 -143l140 144l30 -19l-131 -195h-77l-135 195z" />
    <glyph glyph-name="breve" unicode="&#x2d8;" horiz-adv-x="498" 
d="M388 756.5q-21 -35.5 -57.5 -57t-82.5 -21.5q-47 0 -83.5 21.5t-56 57t-19.5 74.5h35q1 -2 10 -27t40 -45.5t76 -20.5t71.5 17.5t32.5 29t22 47.5h33q0 -40 -21 -75.5z" />
    <glyph glyph-name="dotaccent" unicode="&#x2d9;" horiz-adv-x="257" 
d="M172 777q13 -15 13 -37q0 -27 -19 -45t-44 -18q-20 0 -36 15t-16 38q0 25 19.5 43.5t42.5 18.5q27 0 40 -15z" />
    <glyph glyph-name="ring" unicode="&#x2da;" horiz-adv-x="274" 
d="M221.5 842.5q34.5 -33.5 34.5 -81.5q0 -47 -34.5 -80.5t-84.5 -33.5q-49 0 -84 33.5t-35 80.5t35 81t84 34q50 0 84.5 -33.5zM87.5 808.5q-20.5 -20.5 -20.5 -48.5q0 -29 20.5 -49t48.5 -20q29 0 49.5 20t20.5 49t-20.5 49t-49.5 20q-28 0 -48.5 -20.5z" />
    <glyph glyph-name="ogonek" unicode="&#x2db;" horiz-adv-x="343" 
d="M198 0q-30 -10 -64.5 -35t-58.5 -54.5t-24 -53.5q0 -35 16 -48.5t53 -15.5q40 -3 105 36l9 -36q-29 -22 -60 -36.5t-83 -14.5q-55 0 -82 27t-27 66q0 44 43.5 92t100.5 73l32 4z" />
    <glyph glyph-name="tilde" unicode="&#x2dc;" horiz-adv-x="422" 
d="M81 788q37 24 74 24q22 0 37.5 -10t34.5 -29q18 -17 30 -25t28 -8q44 0 92 50l21 -30q-19 -34 -56 -57.5t-75 -23.5q-22 0 -37 9.5t-35 28.5q-17 17 -29 25t-28 8q-27 0 -49.5 -14t-43.5 -36l-21 31q20 33 57 57z" />
    <glyph glyph-name="hungarumlaut" unicode="&#x2dd;" horiz-adv-x="428" 
d="M262 878l48 -48q-26 -36 -81 -84t-110 -90l-19 22zM494 878l49 -48q-27 -35 -82.5 -83.5t-109.5 -90.5l-19 22z" />
    <glyph glyph-name="uni0326" unicode="&#x326;" horiz-adv-x="342" 
d="M-90 -74q25 -34 26 -70q0 -41 -19.5 -77t-47 -60t-51.5 -32l-20 22v13q27 11 40.5 45.5t13.5 73.5q0 19 -9 34.5t-21.5 24.5t-22.5 9v22l41 41q45 -12 70 -46z" />
    <glyph glyph-name="Omega" unicode="&#x3a9;" horiz-adv-x="941" 
d="M108 164l15 -92h171q-45 29 -85 77t-65 111.5t-24 133.5q2 120 51 201.5t126 121.5t166 40q94 0 166.5 -39.5t113.5 -115t41 -181.5q0 -62 -25 -129.5t-65 -126t-83 -93.5h177l32 106l40 -4l-21 -174h-322v66q83 48 132.5 136t49.5 207q0 103 -33 174t-88.5 106
t-121.5 35q-73 0 -130 -37.5t-89.5 -112.5t-32.5 -181q0 -77 28.5 -143t72.5 -112.5t90 -69.5v-68h-327v160z" />
    <glyph glyph-name="mu" unicode="&#x3bc;" horiz-adv-x="699" 
d="M132 -190v682l-50 10v31l108 22l15 -9v-333q0 -61 9.5 -96.5t34.5 -53t71 -17.5t89.5 22t63.5 42v379l-61 10v33l122 23l12 -8v-511h60v-33q-15 -7 -38 -12.5t-42 -5.5q-46 0 -46 38v45q-91 -78 -190 -78q-50 0 -85 16v-196h-73z" />
    <glyph glyph-name="pi" unicode="&#x3c0;" horiz-adv-x="774" 
d="M645.5 503.5q-42.5 -35.5 -106.5 -35.5l-17 -347q0 -29 7 -41t17 -12q22 0 44.5 16t31.5 40h44q-6 -26 -27 -58t-51.5 -55t-65.5 -23q-29 0 -40 25.5t-11 68.5q0 18 2 50q5 114 16 288l3 48h-198l-12 -263q-7 -80 -19.5 -116t-44.5 -66q-27 -23 -64 -35l-56 60
q11 3 31 11t37 20q37 26 52 60.5t18 89.5q4 70 11 239h-31q-30 0 -56.5 -14t-36.5 -37l-43 5q0 28 11 46q22 39 58.5 58.5t84.5 19.5l318 -1q72 0 99 55h43q-6 -61 -48.5 -96.5z" />
    <glyph glyph-name="uni0901" unicode="&#x901;" 
d="M-96 953l-66 -68l-67 67l66 67zM-172 800q60 0 106.5 28.5t73.5 65.5l48 -46q-38 -49 -83 -75.5t-110 -26.5q-73 0 -129 42.5t-93 100.5l28 15q75 -103 159 -104z" />
    <glyph glyph-name="uni0902" unicode="&#x902;" 
d="M-87 790l-66 -68l-67 67l66 68z" />
    <glyph glyph-name="uni0903" unicode="&#x903;" horiz-adv-x="307" 
d="M218 434l-66 -68l-67 67l66 68zM218 98l-66 -68l-67 67l66 68z" />
    <glyph glyph-name="uni0904" unicode="&#x904;" horiz-adv-x="789" 
d="M789 585h-115v-612h-13l-54 31v270h-1q-36 -22 -76 -22q-57 0 -119 42l-3 -2q38 -53 38 -115q0 -63 -42.5 -103t-110.5 -40q-104 0 -172.5 68t-117.5 161l32 19q40 -72 102.5 -130t127.5 -58q52 0 85.5 32.5t33.5 80.5q0 34 -18 67t-46 54q-51 -16 -114 -21l-26 49l7 20
q82 4 126 30q27 17 42.5 39.5t15.5 55.5q0 24 -15.5 46t-40 36t-49.5 14q-65 0 -139 -62l-36 68q27 18 76 38t71 20q42 -1 85.5 -29t72.5 -72.5t29 -92.5q0 -33 -16.5 -65.5t-48.5 -56.5q75 -34 135 -34q58 0 112 38l1 235h-137l-23 44v12h166q9 15 9 35q0 48 -25.5 80.5
t-85.5 32.5q-18 0 -78 -6q-10 -1 -43 -4t-56 -3q-56 0 -102 17.5t-72.5 44t-26.5 49.5q0 34 20 88l43 -7q-15 -42 -15 -66q0 -30 24.5 -45t63.5 -15q25 0 106 7q23 1 66 4t57 3q37 0 70 -16.5t55 -43.5q46 -57 46 -104q0 -19 -8 -51h104l23 -43v-12z" />
    <glyph glyph-name="uni0905" unicode="&#x905;" horiz-adv-x="789" 
d="M789 585h-115v-612h-13l-54 31v270h-1q-36 -22 -76 -22q-57 0 -119 42l-3 -2q38 -53 38 -115q0 -63 -42.5 -103t-110.5 -40q-104 0 -172.5 68t-117.5 161l32 19q40 -72 102.5 -130t127.5 -58q52 0 85.5 32.5t33.5 80.5q0 34 -18 67t-46 54q-51 -16 -114 -21l-26 49l7 20
q82 4 126 30q27 17 42.5 39.5t15.5 55.5q0 24 -15.5 46t-40 36t-49.5 14q-65 0 -139 -62l-36 68q27 18 76 38t71 20q42 -1 85.5 -29t72.5 -72.5t29 -92.5q0 -33 -16.5 -65.5t-48.5 -56.5q75 -34 135 -34q58 0 112 38l1 235h-142l-23 44v12h323l23 -43v-12z" />
    <glyph glyph-name="uni0906" unicode="&#x906;" horiz-adv-x="1086" 
d="M1086 585h-114v-612h-14l-54 31v581h-230v-612h-13l-54 31v270h-1q-36 -22 -76 -22q-57 0 -119 42l-3 -2q38 -53 38 -115q0 -63 -42.5 -103t-110.5 -40q-104 0 -172.5 68t-117.5 161l32 19q40 -72 102.5 -130t127.5 -58q52 0 85.5 32.5t33.5 80.5q0 34 -18 67t-46 54
q-51 -16 -114 -21l-26 49l7 20q82 4 126 30q27 17 42.5 39.5t15.5 55.5q0 24 -15.5 46t-40 36t-49.5 14q-65 0 -139 -62l-36 68q27 18 76 38t71 20q42 -1 85.5 -29t72.5 -72.5t29 -92.5q0 -33 -16.5 -65.5t-48.5 -56.5q75 -34 135 -34q58 0 112 38l1 235h-142l-23 44v12h619
l24 -43v-12z" />
    <glyph glyph-name="uni0907" unicode="&#x907;" horiz-adv-x="495" 
d="M144.5 408q-13.5 -22 -13.5 -51q0 -25 16.5 -46t32.5 -21t38 4.5t42 10.5q45 13 65 13q28 0 51.5 -25t37.5 -62t14 -71q0 -32 -26 -61.5t-70 -49.5t-95 -24l99 -132l-56 -58l-98 191q-45 6 -81.5 21.5t-36.5 40.5q0 30 21.5 50t45.5 20q10 0 14 -2l51 -76q83 5 134.5 31
t51.5 76q0 25 -9.5 47.5t-21.5 27.5q-13 0 -32 -5.5t-24 -6.5q-6 -2 -33 -9t-51 -7q-25 0 -56.5 24.5t-53.5 59.5t-22 63q0 48 23.5 78t65.5 30h152v95h-325l-22 44v12h505l24 -43v-13h-115v-154h-198q-31 0 -44.5 -22z" />
    <glyph glyph-name="uni0908" unicode="&#x908;" horiz-adv-x="495" 
d="M478 640l24 -43v-13h-115v-154h-198q-31 0 -44.5 -22t-13.5 -51q0 -25 16.5 -46t32.5 -21t38 4.5t42 10.5q45 13 65 13q28 0 51.5 -25t37.5 -62t14 -71q0 -32 -26 -61.5t-70 -49.5t-95 -24l99 -132l-56 -58l-98 191q-45 6 -81.5 21.5t-36.5 40.5q0 30 21.5 50t45.5 20
q10 0 14 -2l51 -76q83 5 134.5 31t51.5 76q0 25 -9.5 47.5t-21.5 27.5q-13 0 -32 -5.5t-24 -6.5q-6 -2 -33 -9t-51 -7q-25 0 -56.5 24.5t-53.5 59.5t-22 63q0 48 23.5 78t65.5 30h152v95h-325l-22 44v12h339v4q-48 41 -77.5 88t-29.5 96q0 40 22 71.5t58.5 49t78.5 17.5
q38 0 75 -16.5t68 -43.5l-24 -38q-24 16 -53 28t-58 12q-42 0 -70.5 -25.5t-28.5 -72.5q0 -43 30 -89t70 -79l-3 -2h108z" />
    <glyph glyph-name="uni0909" unicode="&#x909;" horiz-adv-x="578" 
d="M577 585h-202q38 -38 60.5 -76t22.5 -70q0 -33 -17 -59.5t-46 -44.5q49 -37 83 -82t34 -96q0 -36 -19.5 -71t-54.5 -57.5t-81 -22.5q-107 0 -192 82t-140 178l33 22q25 -47 70 -99t98 -87.5t101 -35.5q55 0 89.5 33.5t34.5 80.5q0 66 -102 133q-30 -9 -62 -9
q-46 0 -80 11l-25 51l7 14q51 -7 77 -7q62 0 99.5 24.5t37.5 66.5q0 31 -27 63.5t-65 56.5h-316l-22 44v12h582l23 -43z" />
    <glyph glyph-name="uni090A" unicode="&#x90a;" horiz-adv-x="826" 
d="M827 583h-450q38 -38 60.5 -76t22.5 -70q0 -33 -17 -59.5t-46 -44.5q30 -23 52 -45q57 46 101 72.5t87 26.5q32 0 62.5 -21t50 -58t19.5 -82q0 -39 -18.5 -94.5t-40.5 -92.5l-70 39q35 45 60 85.5t25 82.5q0 39 -21.5 59.5t-54.5 20.5q-36 0 -74 -24.5t-84 -68.5
q21 -39 21 -78q0 -35 -19.5 -70t-55 -57t-80.5 -22q-107 0 -192 82t-140 178l33 22q25 -47 70 -99t98 -87.5t101 -35.5q55 0 89.5 33.5t34.5 80.5q0 66 -102 133q-30 -9 -62 -9q-46 0 -80 11l-25 51l7 14q51 -7 77 -7q62 0 99.5 24.5t37.5 66.5q0 31 -27 63.5t-65 56.5h-316
l-22 44v12h830l23 -43z" />
    <glyph glyph-name="uni090B" unicode="&#x90b;" horiz-adv-x="844" 
d="M844 597v-13h-384v-255q8 -1 25 -1q69 0 114 32l-35 77q6 7 22 13.5t30 6.5q31 0 51.5 -17.5t20.5 -46.5q0 -33 -26 -57l77 -168q-53 -29 -77.5 -52.5t-24.5 -51.5q0 -23 19 -42t52 -19q20 0 47 6.5t47 17.5l41 -56q-21 -11 -46 -18.5t-45 -7.5q-40 0 -79.5 19.5t-65 52
t-25.5 69.5q0 30 23.5 60.5t68.5 57.5l-49 105q-29 -16 -64 -25.5t-67 -9.5q-18 0 -34 3v-305h-14l-55 31l3 235l-2 2l-266 -206l-49 54l314 221q-48 46 -92.5 64t-89.5 18q-32 0 -63.5 -9t-74.5 -25l-36 66q25 10 70.5 21.5t75.5 11.5q54 -1 105 -24.5t107 -67.5v220h-398
l-22 44v12h847z" />
    <glyph glyph-name="uni090C" unicode="&#x90c;" horiz-adv-x="721" 
d="M721 597v-13h-189v-161q50 -15 89 -55t39 -90q-1 -47 -26.5 -85.5t-73.5 -88.5q-36 -38 -51.5 -59t-15.5 -43q0 -25 18.5 -41t49.5 -16t60 19t60 51l48 -48q-38 -35 -74 -51t-73 -16q-28 0 -65 17t-62.5 46.5t-25.5 65.5q0 24 17 47t51 57q47 48 72.5 87t25.5 88
q0 25 -14 43t-32.5 26.5t-32.5 8.5q-65 0 -102 -66.5t-57 -152.5l-69 33q15 65 47 120q-25 28 -58.5 46.5t-62.5 18.5q-45 0 -73.5 -31.5t-28.5 -81.5q0 -77 30.5 -139t76.5 -125l-33 -19q-56 78 -95 155t-39 158q0 40 18 73.5t48.5 52.5t67.5 19q46 0 92.5 -27t80.5 -66
q45 61 106 74l1 156h-471l-22 44v12h725z" />
    <glyph glyph-name="uni090D" unicode="&#x90d;" horiz-adv-x="573" 
d="M0 0zM618 -85.5q23 -24.5 23 -49.5q0 -28 -19 -43.5t-48 -15.5q-21 0 -36 13t-22 30v2l49 54l-368 247q-58 40 -76.5 65.5t-18.5 61.5v305h-107l-22 44v12h576l24 -43v-13h-99v-244q0 -62 -29 -95.5t-68 -47.5l-49 33v10q39 18 59.5 37t20.5 50v257h-239v-316
q0 -22 11 -38.5t41 -37.5l308 -209q66 -44 89 -68.5zM412 772.5q-45 -26.5 -110 -26.5q-73 0 -129 42.5t-93 100.5l28 15q75 -103 159 -104q60 0 106.5 28.5t73.5 65.5l48 -46q-38 -49 -83 -75.5z" />
    <glyph glyph-name="uni090E" unicode="&#x90e;" horiz-adv-x="573" 
d="M0 967q-15 -47 -15 -66q0 -30 24.5 -45t63.5 -15q26 0 108 7q22 1 64.5 4t56.5 3q37 0 70 -16.5t55 -43.5q47 -56 47 -104q0 -17 -9 -51h84l24 -43v-13h-99v-244q0 -62 -28.5 -95.5t-68.5 -47.5l-49 33v10q39 18 59.5 37t20.5 50v257h-238v-316q0 -22 11 -38.5t41 -37.5
l307 -209q66 -44 89.5 -68.5t23.5 -49.5q0 -28 -19.5 -43.5t-47.5 -15.5q-21 0 -36.5 13t-22.5 30v2l50 54l-368 247q-40 27 -60.5 47t-27.5 38t-7 42v305h-107l-23 44v12h445q8 16 8 35q0 48 -25.5 80.5t-85.5 32.5q-17 0 -77 -6q-79 -7 -100 -7q-56 0 -102 17.5t-72.5 44
t-26.5 49.5q0 29 9 57t10 31z" />
    <glyph glyph-name="uni090F" unicode="&#x90f;" horiz-adv-x="573" 
d="M618 -85.5q23 -24.5 23 -49.5q0 -28 -19 -43.5t-48 -15.5q-21 0 -36 13t-22 30v2l49 54l-368 247q-58 40 -76.5 65.5t-18.5 61.5v305h-107l-22 44v12h576l24 -43v-13h-99v-244q0 -62 -29 -95.5t-68 -47.5l-49 33v10q39 18 59.5 37t20.5 50v257h-239v-316q0 -22 11 -38.5
t41 -37.5l308 -209q66 -44 89 -68.5z" />
    <glyph glyph-name="uni0910" unicode="&#x910;" horiz-adv-x="573" 
d="M0 0zM618 -85.5q23 -24.5 23 -49.5q0 -28 -19 -43.5t-48 -15.5q-21 0 -36 13t-22 30v2l49 54l-368 247q-58 40 -76.5 65.5t-18.5 61.5v305h-107l-22 44v12h576l24 -43v-13h-99v-244q0 -62 -29 -95.5t-68 -47.5l-49 33v10q39 18 59.5 37t20.5 50v257h-239v-316
q0 -22 11 -38.5t41 -37.5l308 -209q66 -44 89 -68.5zM277 962q51 -55 106 -161q15 -30 19 -37q49 -97 58 -118h-53q-43 95 -51 109q-88 166 -115 180l-115 -34q-12 10 -21.5 27t-9.5 35q0 26 17 40t47 14q67 0 118 -55z" />
    <glyph glyph-name="uni0911" unicode="&#x911;" horiz-adv-x="1086" 
d="M3 0zM1086 585h-114v-612h-14l-54 31v581h-230v-612h-13l-54 31v270h-1q-36 -22 -76 -22q-57 0 -119 42l-3 -2q38 -53 38 -115q0 -63 -42.5 -103t-110.5 -40q-104 0 -172.5 68t-117.5 161l32 19q40 -72 102.5 -130t127.5 -58q52 0 85.5 32.5t33.5 80.5q0 34 -18 67
t-46 54q-51 -16 -114 -21l-26 49l7 20q82 4 126 30q27 17 42.5 39.5t15.5 55.5q0 24 -15.5 46t-40 36t-49.5 14q-65 0 -139 -62l-36 68q27 18 76 38t71 20q42 -1 85.5 -29t72.5 -72.5t29 -92.5q0 -33 -16.5 -65.5t-48.5 -56.5q75 -34 135 -34q58 0 112 38l1 235h-142l-23 44
v12h619l24 -43v-12zM1055 772.5q-45 -26.5 -110 -26.5q-73 0 -129 42.5t-93 100.5l28 15q75 -103 159 -104q60 0 106.5 28.5t73.5 65.5l48 -46q-38 -49 -83 -75.5z" />
    <glyph glyph-name="uni0912" unicode="&#x912;" horiz-adv-x="1086" 
d="M493 967q-14 -44 -14 -66q0 -30 24.5 -45t62.5 -15q26 0 108 7q22 1 64.5 4t56.5 3q38 0 70.5 -16.5t54.5 -43.5q47 -58 47 -104q0 -17 -9 -51h104l24 -43v-13h-115v-612h-13l-54 31l1 581h-231v-612h-14l-53 31v270h-2q-35 -22 -76 -22q-56 0 -118 42l-4 -3
q39 -55 39 -114q0 -63 -42.5 -103t-110.5 -40q-104 0 -172.5 68t-117.5 161l32 19q40 -72 102.5 -130t127.5 -58q52 0 85.5 32.5t33.5 80.5q0 33 -18 66t-46 55q-23 -8 -55.5 -13.5t-58.5 -7.5l-27 49l8 20q82 5 126 30q27 17 42.5 39.5t15.5 55.5q0 24 -16 46t-40.5 36
t-49.5 14q-34 0 -70 -17.5t-68 -44.5l-37 68q27 18 76.5 38t71.5 20q42 -1 85.5 -29t72 -72.5t28.5 -92.5q0 -35 -18 -67.5t-47 -53.5q75 -34 136 -34q33 0 60 10t52 29v234h-141l-23 44v12h468q8 16 8 35q0 48 -25.5 80.5t-85.5 32.5q-17 0 -77 -6q-79 -7 -100 -7
q-56 0 -102 17.5t-72.5 44t-26.5 49.5q0 34 20 88z" />
    <glyph glyph-name="uni0913" unicode="&#x913;" horiz-adv-x="1086" 
d="M3 0zM1086 585h-114v-612h-14l-54 31v581h-230v-612h-13l-54 31v270h-1q-36 -22 -76 -22q-57 0 -119 42l-3 -2q38 -53 38 -115q0 -63 -42.5 -103t-110.5 -40q-104 0 -172.5 68t-117.5 161l32 19q40 -72 102.5 -130t127.5 -58q52 0 85.5 32.5t33.5 80.5q0 34 -18 67
t-46 54q-51 -16 -114 -21l-26 49l7 20q82 4 126 30q27 17 42.5 39.5t15.5 55.5q0 24 -15.5 46t-40 36t-49.5 14q-65 0 -139 -62l-36 68q27 18 76 38t71 20q42 -1 85.5 -29t72.5 -72.5t29 -92.5q0 -33 -16.5 -65.5t-48.5 -56.5q75 -34 135 -34q58 0 112 38l1 235h-142l-23 44
v12h619l24 -43v-12zM764 960q51 -55 106 -161q15 -30 19 -37q49 -97 58 -118h-53q-43 95 -51 109q-88 166 -115 180l-115 -34q-12 10 -21.5 27t-9.5 35q0 26 17 40t47 14q67 0 118 -55z" />
    <glyph glyph-name="uni0914" unicode="&#x914;" horiz-adv-x="1086" 
d="M3 0zM1086 585h-114v-612h-14l-54 31v581h-230v-612h-13l-54 31v270h-1q-36 -22 -76 -22q-57 0 -119 42l-3 -2q38 -53 38 -115q0 -63 -42.5 -103t-110.5 -40q-104 0 -172.5 68t-117.5 161l32 19q40 -72 102.5 -130t127.5 -58q52 0 85.5 32.5t33.5 80.5q0 34 -18 67
t-46 54q-51 -16 -114 -21l-26 49l7 20q82 4 126 30q27 17 42.5 39.5t15.5 55.5q0 24 -15.5 46t-40 36t-49.5 14q-65 0 -139 -62l-36 68q27 18 76 38t71 20q42 -1 85.5 -29t72.5 -72.5t29 -92.5q0 -33 -16.5 -65.5t-48.5 -56.5q75 -34 135 -34q58 0 112 38l1 235h-142l-23 44
v12h619l24 -43v-12zM792 974q53 -58 102 -163q16 -37 36.5 -86t37.5 -94h-31q-14 35 -30 71t-27 59q-39 73 -71.5 124.5t-48.5 63.5l-123 -37h-1q-14 10 -24.5 28.5t-10.5 37.5q0 25 17.5 39.5t47.5 14.5q73 0 126 -58zM909 631l-30 -1q-45 58 -82 100t-48 46l-127 -18h-2
q-12 9 -19.5 23.5t-7.5 29.5q0 23 16 36.5t43 13.5q112 0 257 -230z" />
    <glyph glyph-name="uni0915" unicode="&#x915;" horiz-adv-x="832" 
d="M467 584v-238q36 34 75.5 57t76.5 23q76 0 116.5 -51.5t40.5 -138.5q0 -43 -24 -103.5t-49 -94.5l-49 59q27 28 52.5 72.5t25.5 88.5q0 46 -28 77t-67 31t-80.5 -25.5t-89.5 -73.5v-295h-13l-55 31l4 203l-1 1q-34 -29 -57 -45t-53.5 -27.5t-67.5 -11.5q-46 0 -84.5 20
t-61.5 58t-23 92q0 42 19.5 78.5t55 59t80.5 22.5q63 0 109 -32t83 -82l1 245h-408l-22 44v12h836l23 -43v-13h-365zM401 282v4q-29 41 -74 70t-90 29q-53 -1 -94 -32t-41 -83q0 -40 28.5 -64t66.5 -24q102 0 204 100z" />
    <glyph glyph-name="uni0916" unicode="&#x916;" horiz-adv-x="824" 
d="M832 597v-13h-122v-612h-14l-54 31l2 74q-43 -27 -103 -46.5t-112 -19.5q-129 0 -292 178q-39 43 -55 70t-16 53q0 20 14.5 37.5t30.5 25.5l51 -43q14 20 21.5 50t7.5 61t-3.5 71.5t-9.5 69.5h-182l-23 44v12h836zM162 225q49 -58 119 -108.5t147 -50.5q52 0 111 22.5
t105 58.5l-1 109q-49 -40 -83 -60.5t-75 -20.5q-46 0 -83.5 20.5t-58.5 55.5t-21 76q0 70 44 113t111 43q49 0 91 -24t73 -57h2v182h-408q8 -41 12.5 -92t4.5 -85q0 -64 -23 -104t-66 -78h-1zM643 340q-26 38 -65.5 59.5t-79.5 21.5q-36 0 -66 -16t-47.5 -43t-17.5 -59
q0 -29 25 -50t67 -21q44 0 94.5 31.5t88.5 76.5v1z" />
    <glyph glyph-name="uni0917" unicode="&#x917;" horiz-adv-x="599" 
d="M597 598v-13h-115v-612h-13l-54 31v581h-208q11 -176 11 -291q0 -37 -14.5 -67t-54.5 -30q-34 0 -57.5 18.5t-34.5 44t-11 46.5q0 18 5 33l97 -13l6 258h-159l-22 44v12h602z" />
    <glyph glyph-name="uni0918" unicode="&#x918;" horiz-adv-x="647" 
d="M664 598v-13h-114v-612h-14l-54 31l2 197l-2 1q-110 -94 -191 -94q-71 0 -114 33q-31 22 -52 52.5t-21 65.5q0 41 21.5 78.5t57.5 60.5q-38 18 -60 33t-36 37.5t-14 56.5q0 26 13 59h-91l-22 44v12h668zM253 165q55 0 120.5 40.5t109.5 99.5v279h-317
q-14 -13 -22.5 -32.5t-8.5 -42.5q0 -24 19.5 -44t47 -31t47.5 -10h5q63 0 91 -11l17 -32l-7 -19q-26 7 -65 7q-41 0 -69.5 -21t-42.5 -52t-14 -62q0 -35 27 -51t62 -16v-2z" />
    <glyph glyph-name="uni0919" unicode="&#x919;" horiz-adv-x="685" 
d="M685 597v-13h-240v-178h-212q-75 0 -75 -81q0 -23 18 -43.5t36 -20.5q19 0 39.5 5t51.5 15q37 11 57 16t41 5q27 0 52.5 -24.5t41.5 -61t16 -69.5q1 -65 -38.5 -107.5t-109.5 -42.5q-82 0 -161.5 42t-169.5 143l31 28q140 -154 270 -154q54 0 90.5 28t36.5 82
q0 25 -11.5 47t-24.5 28q-26 1 -47 -4t-52 -16q-26 -10 -42 -14t-35 -4q-29 0 -64 23t-59 58t-24 68q0 51 29.5 82t74.5 31h172v119h-382l-22 44v12h689zM669 352l-67 -68l-66 67l66 68z" />
    <glyph glyph-name="uni091A" unicode="&#x91a;" horiz-adv-x="653" 
d="M651 597v-13h-114v-612h-13l-55 30l1 183l-1 1q-40 -32 -84.5 -54t-85.5 -22q-36 0 -66.5 11.5t-51.5 31.5q-56 56 -56 119q0 30 13 57t32 45v2h-107l-23 44v11h334l23 -42v-13h-94v-2q-57 -1 -89 -38t-33 -88q1 -38 29 -65.5t63 -27.5q48 0 105 40t93 86v303h-476
l-22 44v12h656z" />
    <glyph glyph-name="uni091B" unicode="&#x91b;" horiz-adv-x="770" 
d="M559 584v-113q50 -17 84.5 -58t35.5 -105q0 -63 -33 -124q50 -28 78 -61t29 -83q0 -38 -22 -92t-50 -95l-51 55q77 84 77 142q-1 28 -23 49t-65 44q-52 -68 -132 -109.5t-164 -41.5q-43 0 -91 25t-80 62t-32 68q0 49 38 87q-52 32 -75 58t-23 65q0 27 16.5 53.5t45.5 43
t64 16.5q25 0 47.5 -4t34.5 -10l28 -65q-47 24 -93 24q-34 0 -61 -20t-27 -54q0 -21 15 -37.5t37 -26.5t40 -11q27 11 54 11q44 0 78 -8l17 -35l-7 -18q-27 6 -62 6q-31 0 -54 -15t-35 -38t-12 -47q0 -29 29.5 -51t70.5 -22q84 1 156 34t119 89q-9 4 -27 14
q-143 79 -143 191q0 50 29 75.5t71 28.5v103h-496l-22 44v12h773l24 -43v-13h-211zM621 333q0 46 -30.5 71.5t-70.5 26.5q-30 -1 -50 -18.5t-20 -52.5q0 -41 32.5 -76t83.5 -60l23 -12q33 58 33 121h-1z" />
    <glyph glyph-name="uni091C" unicode="&#x91c;" horiz-adv-x="725" 
d="M724 584h-115v-612h-13l-54 31v373h-219q47 -38 76.5 -84t29.5 -85q0 -49 -31 -83t-77 -34q-70 0 -124.5 46t-88.5 105.5t-71 141.5l-12 27l37 17q38 -76 67.5 -127.5t76 -98.5t97.5 -47q29 0 45.5 20.5t16.5 49.5q0 48 -47 97t-101 79l13 31h312v153h-547l-22 44v12h728
l23 -43v-13z" />
    <glyph glyph-name="uni091D" unicode="&#x91d;" horiz-adv-x="760" 
d="M759 597v-13h-115v-612h-13l-53 30v231h-2q-10 -4 -27 -8t-31 -4q-29 0 -51.5 6.5t-54.5 18.5h-3q20 -42 20 -84q0 -33 -26 -63t-70.5 -50t-95.5 -24l99 -132l-56 -58l-98 191q-45 6 -81.5 21.5t-36.5 40.5q0 30 21.5 50t45.5 20q9 0 15 -2l50 -76q82 5 134.5 32t52.5 78
q0 24 -8.5 45.5t-19.5 26.5q-13 0 -34 -5.5t-25 -6.5q-56 -16 -85 -16q-24 0 -55.5 24.5t-54 59.5t-22.5 63q0 48 23.5 78t65.5 30h153v95h-326l-22 44v12h763zM480 281q27 0 53 7.5t44 19.5v276h-190v-154h-199q-31 0 -44.5 -22t-13.5 -51q0 -25 16.5 -46.5t32.5 -21.5
q27 0 83 16q45 13 63 13q25 0 47 -19q30 -8 55.5 -13t53.5 -5h-1z" />
    <glyph glyph-name="uni091E" unicode="&#x91e;" horiz-adv-x="721" 
d="M721 584h-114v-611h-13l-54 31v256l-1 1q-17 -12 -37 -12q-13 0 -30.5 6.5t-23.5 8.5h-3q-5 -56 -47.5 -93.5t-101.5 -37.5q-72 0 -141.5 50t-143.5 142l29 27q72 -78 127.5 -116t105.5 -38q53 1 86 31t33 71q0 30 -22.5 56.5t-53.5 26.5q-21 0 -48 -12t-51 -28l-46 58
q67 43 101 43q29 0 66 -18t66 -49t38 -69l14 -1q46 0 83 25l1 252h-545l-22 44v12h724l23 -43z" />
    <glyph glyph-name="uni091F" unicode="&#x91f;" horiz-adv-x="527" 
d="M537 597v-13h-158v-199q-109 -8 -186 -50t-77 -117q0 -41 22 -67.5t54 -39t62 -12.5q44 0 99 14.5t116 49.5l32 -63q-107 -60 -223 -60q-60 0 -108 28t-75.5 75.5t-27.5 101.5q0 99 71.5 143.5t173.5 58.5v137h-317l-22 44v12h541z" />
    <glyph glyph-name="uni0920" unicode="&#x920;" horiz-adv-x="578" 
d="M576 586h-200q32 -50 32 -85t-25 -81q125 -90 125 -196q0 -54 -28 -100.5t-80.5 -74t-122.5 -27.5q-63 0 -112.5 31t-77.5 82.5t-28 110.5q0 99 76 146t191 57q14 32 14 66q0 27 -27 69h-318l-22 44v12h581l23 -43zM416 334.5q-29 37.5 -60 50.5q-100 -8 -174.5 -49
t-74.5 -115q0 -46 22.5 -77.5t56 -47t67.5 -15.5q62 0 105.5 24t65 64t21.5 86q0 42 -29 79.5z" />
    <glyph glyph-name="uni0921" unicode="&#x921;" horiz-adv-x="574" 
d="M574 597v-13h-111v-178h-229q-75 0 -75 -81q0 -23 17 -43.5t36 -20.5q22 0 45.5 5t56.5 15q34 10 58 15.5t48 5.5q26 0 52 -24.5t42 -61t16 -69.5q0 -66 -42.5 -108t-118.5 -42q-87 0 -166 41.5t-170 143.5l31 28q76 -84 144 -119t131 -35q55 0 97.5 28.5t42.5 81.5
q0 25 -11 47t-23 28q-30 1 -54 -4.5t-56 -15.5q-29 -9 -47 -13.5t-40 -4.5q-29 0 -63.5 23t-58.5 57.5t-24 68.5q0 51 29.5 82t74.5 31h190v119h-401l-22 44v12h578z" />
    <glyph glyph-name="uni0922" unicode="&#x922;" horiz-adv-x="551" 
d="M142.5 360q-43.5 -37 -43.5 -104q0 -50 26.5 -90.5t65 -66t75.5 -35.5q-38 54 -38 108q1 59 38 88.5t85 29.5q38 0 70.5 -19.5t51.5 -54.5t19 -77t-26.5 -73.5t-66 -48t-76.5 -16.5q-60 0 -123.5 34t-106 98t-42.5 149q0 89 52.5 132.5t142.5 43.5h102v126h-353l-22 44
v12h553l25 -43v-13h-137v-187h-150q-78 0 -121.5 -37zM376 238q-21 0 -44 -12.5t-38.5 -36.5t-15.5 -57q1 -35 24 -73q61 3 103.5 30.5t42.5 69.5q0 36 -22 58t-49 22z" />
    <glyph glyph-name="uni0923" unicode="&#x923;" horiz-adv-x="761" 
d="M761 584h-116v-612h-13l-54 31v581h-171v-264q0 -40 -20.5 -72.5t-55 -51.5t-73.5 -19q-31 0 -57 13.5t-57 41.5q-51 46 -51 97v255h-98l-23 44v12h765l24 -43v-13zM341 584h-181v-265q0 -51 24 -66.5t67 -15.5q44 0 67 31.5t23 68.5v247z" />
    <glyph glyph-name="uni0924" unicode="&#x924;" horiz-adv-x="595" 
d="M595 584h-115v-612h-13l-53 31v370h-158q-69 0 -100.5 -28t-30.5 -86q0 -54 38 -117.5t104 -128.5l-22 -24q-78 73 -129 148t-52 153q0 67 38 104.5t129 37.5h183v152h-419l-22 44v12h599l23 -43v-13z" />
    <glyph glyph-name="uni0925" unicode="&#x925;" horiz-adv-x="660" 
d="M661 597v-13h-115v-612h-13l-56 31l4 179l-4 2q-85 -63 -161 -63q-79 0 -128.5 44.5t-83.5 133.5q66 14 109 51q-72 32 -118 83t-46 113q0 51 30.5 78.5t75.5 27.5q43 0 85 -19.5t69 -58t27 -92.5q0 -71 -46.5 -132t-116.5 -96q10 -30 40 -50.5t74 -20.5q52 0 106 27
t86 64v310h-97l-23 44v12h278zM150 445q43 -40 98 -58q32 48 32 114q-1 39 -28.5 68.5t-74.5 29.5q-32 0 -51 -17.5t-19 -52.5q0 -44 43 -84z" />
    <glyph glyph-name="uni0926" unicode="&#x926;" horiz-adv-x="559" 
d="M559 597v-13h-152v-181h-131q-87 0 -127 -38.5t-40 -104.5q0 -55 33.5 -89.5t76 -49t72.5 -14.5q32 0 69 7l-46 107q34 35 79 35q41 0 63 -25.5t22 -61.5q0 -27 -15.5 -51t-45.5 -41l86 -161l-49 -25l-72 169q-38 -13 -92 -13q-50 0 -103 28.5t-88.5 81.5t-35.5 124
q0 93 47 137.5t148 44.5h82v121h-345l-22 44v12h562z" />
    <glyph glyph-name="uni0927" unicode="&#x927;" horiz-adv-x="655" 
d="M657 584h-114v-612h-14l-54 31l1 198l-3 2q-99 -77 -172 -77q-39 0 -70 10t-58 35q-25 23 -42.5 52t-17.5 53q0 29 14.5 58t39.5 51q-52 33 -84.5 81.5t-32.5 100.5q0 49 30.5 75.5t76.5 26.5q22 0 46 -8t42 -21q25 -17 39 -35t14 -40q0 -14 -11 -26t-36 -12q-16 0 -23 5
v67q-15 18 -49 18q-32 0 -52.5 -16.5t-20.5 -51.5q0 -41 32.5 -80t72.5 -56q23 10 51 10q55 0 78 -11l18 -31l-7 -19q-31 7 -63 7q-33 0 -59.5 -17.5t-41.5 -45t-15 -57.5q0 -32 27.5 -48.5t62.5 -16.5q53 0 112 35t99 82v283h-106l-23 44v12h286l24 -43z" />
    <glyph glyph-name="uni0928" unicode="&#x928;" horiz-adv-x="572" 
d="M572 597v-13h-114v-612h-14l-53 31v315l-222 -3l14 -100q-11 -5 -33 -5t-47.5 11t-44 34t-18.5 57q0 42 29.5 55t68.5 13q115 0 253 -6v210h-396l-22 44v12h576z" />
    <glyph glyph-name="uni0929" unicode="&#x929;" horiz-adv-x="572" 
d="M572 597v-13h-114v-612h-14l-53 31v315l-222 -3l14 -100q-11 -5 -33 -5t-47.5 11t-44 34t-18.5 57q0 42 29.5 55t68.5 13q115 0 253 -6v210h-396l-22 44v12h576zM226 133l67 -67l-66 -68l-67 67z" />
    <glyph glyph-name="uni092A" unicode="&#x92a;" horiz-adv-x="571" 
d="M571 597v-13h-114v-612h-14l-53 31v225h-2q-32 -21 -62 -32.5t-69 -11.5q-32 0 -60 13t-57 42q-23 21 -35 45t-12 56v244h-98l-22 44v12h575zM322.5 264q37.5 17 67.5 42v278h-230v-246q0 -91 86 -91q39 0 76.5 17z" />
    <glyph glyph-name="uni092B" unicode="&#x92b;" horiz-adv-x="813" 
d="M451 584v-220q39 36 76 58.5t76 22.5q75 0 116 -51t41 -138q0 -42 -24 -102.5t-49 -95.5l-51 58q27 28 53 73t26 88q0 46 -28 77.5t-67 31.5q-43 0 -81 -27t-88 -77v-310h-13l-55 31v220h-3q-31 -18 -59.5 -28.5t-63.5 -10.5q-32 0 -60 13t-57 42q-23 21 -35 45t-12 56
v244h-98l-22 44v12h816l24 -43v-13h-362zM246 247q67 0 138 55v282h-224v-246q0 -91 87 -91h-1z" />
    <glyph glyph-name="uni092C" unicode="&#x92c;" horiz-adv-x="648" 
d="M649 597v-13h-116v-612h-13l-53 30l2 200l-4 2q-52 -46 -100.5 -73t-97.5 -27q-50 0 -96 20.5t-74.5 60t-28.5 93.5q0 60 27.5 104t69.5 67t84 23q67 0 122 -36t93 -86h3v234h-472l-22 44v12h652zM356 198q33 18 62.5 43t49.5 50q-30 45 -82 80t-99 35q-32 0 -62 -11
l130 -198zM239 163q39 0 85 19l-131 198q-35 -20 -55.5 -53t-20.5 -69q0 -41 34.5 -68.5t87.5 -27.5v1z" />
    <glyph glyph-name="uni092D" unicode="&#x92d;" horiz-adv-x="708" 
d="M708 596v-13h-115v-612h-14l-53 31v233h-228q-2 -35 -15.5 -59.5t-43.5 -24.5q-21 0 -41.5 13.5t-34.5 38.5q-17 32 -17 72q0 11 1 16h84v84q-86 31 -134.5 71.5t-48.5 104.5q0 47 29 74t73 27q57 0 102.5 -33.5t45.5 -116.5v-210h228v292h-159l-23 44v12h340zM105 532
q0 -41 35.5 -66t95.5 -43q4 60 4 93q0 38 -20 61.5t-49 23.5t-47 -18t-18 -51h-1z" />
    <glyph glyph-name="uni092E" unicode="&#x92e;" horiz-adv-x="613" 
d="M614 597v-13h-115v-612h-13l-54 31v250h-247q-2 -35 -15.5 -59.5t-43.5 -24.5q-20 0 -39.5 12t-33.5 35q-20 37 -20 79l1 14h85v275h-123l-23 44v12h616zM433 309v275h-247v-275h247z" />
    <glyph glyph-name="uni092F" unicode="&#x92f;" horiz-adv-x="610" 
d="M610 584h-114v-612h-14l-54 31l3 176l-4 2q-85 -60 -158 -60q-77 0 -130.5 54t-84.5 150q55 16 99.5 52.5t44.5 80.5q0 30 -22 59t-63 67h-118l-22 44v12h615l22 -43v-13zM342.5 208.5q52.5 25.5 86.5 61.5l1 314h-256v-1q40 -40 64.5 -74.5t24.5 -71.5q0 -51 -46 -92.5
t-94 -63.5q2 -38 35 -68t81 -30q51 0 103.5 25.5z" />
    <glyph glyph-name="uni0930" unicode="&#x930;" horiz-adv-x="399" 
d="M399 583h-160q8 -42 12.5 -93.5t4.5 -83.5q0 -61 -24.5 -104t-65.5 -78l209 -226l-42 -31l-202 232q-34 40 -48 64t-14 48q0 19 15 36.5t31 26.5l51 -43q13 21 21 50.5t8 60.5q0 29 -4 70.5t-10 71.5h-186l-22 44v12h403l23 -43v-14z" />
    <glyph glyph-name="uni0931" unicode="&#x931;" horiz-adv-x="399" 
d="M399 583h-160q8 -42 12.5 -93.5t4.5 -83.5q0 -61 -24.5 -104t-65.5 -78l209 -226l-42 -31l-202 232q-34 40 -48 64t-14 48q0 19 15 36.5t31 26.5l51 -43q13 21 21 50.5t8 60.5q0 29 -4 70.5t-10 71.5h-186l-22 44v12h403l23 -43v-14zM117 93l67 -67l-66 -68l-67 67z" />
    <glyph glyph-name="uni0932" unicode="&#x932;" horiz-adv-x="717" 
d="M718 584h-115v-612h-13l-54 31v344q-28 32 -54 32q-47 0 -80 -62.5t-51 -141.5l-61 35q13 61 39 111q-23 28 -54 46.5t-61 18.5q-45 0 -73.5 -32t-28.5 -85q0 -141 155 -282l-28 -30q-82 77 -134.5 160t-52.5 188q0 40 18 73t48.5 51.5t67.5 18.5q47 0 89.5 -25.5
t74.5 -64.5q50 70 111 70q39 0 74 -37v193h-540l-22 44v12h720l24 -43z" />
    <glyph glyph-name="uni0933" unicode="&#x933;" horiz-adv-x="784" 
d="M616 584v-128q52 -20 83.5 -70.5t31.5 -121.5q0 -53 -21.5 -92t-55.5 -59.5t-71 -20.5q-54 0 -101 31.5t-81 70.5q-30 -60 -68 -89.5t-94 -29.5q-49 0 -91.5 25.5t-67.5 70t-25 96.5q0 59 23.5 102.5t60.5 66t75 22.5q36 0 69 -15t55 -32.5t60 -51.5q30 55 64.5 81.5
t85.5 27.5v116h-553l-22 44v12h788l23 -43v-13h-168zM651.5 380q-28.5 33 -72.5 33q-41 0 -68.5 -22.5t-45.5 -56t-46 -100.5q25 -35 61 -58.5t75 -23.5q32 0 61 21.5t46.5 56t17.5 71.5q0 46 -28.5 79zM210 131q44 0 73.5 23t48.5 59t47 103q-28 37 -61.5 59.5t-69.5 22.5
q-44 0 -75.5 -23t-47 -60.5t-15.5 -79.5q0 -45 26.5 -74.5t74.5 -29.5h-1z" />
    <glyph glyph-name="uni0934" unicode="&#x934;" horiz-adv-x="784" 
d="M616 584v-128q52 -20 83.5 -70.5t31.5 -121.5q0 -53 -21.5 -92t-55.5 -59.5t-71 -20.5q-54 0 -101 31.5t-81 70.5q-30 -60 -68 -89.5t-94 -29.5q-49 0 -91.5 25.5t-67.5 70t-25 96.5q0 59 23.5 102.5t60.5 66t75 22.5q36 0 69 -15t55 -32.5t60 -51.5q30 55 64.5 81.5
t85.5 27.5v116h-553l-22 44v12h788l23 -43v-13h-168zM651.5 380q-28.5 33 -72.5 33q-41 0 -68.5 -22.5t-45.5 -56t-46 -100.5q25 -35 61 -58.5t75 -23.5q32 0 61 21.5t46.5 56t17.5 71.5q0 46 -28.5 79zM210 131q44 0 73.5 23t48.5 59t47 103q-28 37 -61.5 59.5t-69.5 22.5
q-44 0 -75.5 -23t-47 -60.5t-15.5 -79.5q0 -45 26.5 -74.5t74.5 -29.5h-1zM406 67l67 -66l-66 -68l-67 67z" />
    <glyph glyph-name="uni0935" unicode="&#x935;" horiz-adv-x="644" 
d="M644 597v-13h-116v-612h-12l-54 31l2 193l-2 1q-110 -93 -197 -93q-50 0 -95.5 20.5t-73.5 60t-28 93.5q0 60 27 104t68 67t83 23q64 0 120.5 -36.5t94.5 -86.5h2v235h-468l-22 44v12h647zM356.5 199q64.5 38 106.5 89q-31 45 -83 81t-97 36q-48 0 -86.5 -21.5t-60 -55.5
t-21.5 -71q0 -41 34.5 -68.5t85.5 -27.5q57 0 121.5 38z" />
    <glyph glyph-name="uni0936" unicode="&#x936;" horiz-adv-x="717" 
d="M601 584v-612h-13l-54 31l1 581h-189q27 -24 41 -57.5t14 -72.5q0 -56 -28 -112.5t-73 -100t-93 -59.5l122 -184l-55 -36l-108 211h-9q-24 0 -51 10t-45.5 26t-18.5 33q0 30 21 49t45 19l14 -1l52 -79q73 30 118 94q-77 30 -129 83.5t-52 119.5q0 32 15 57h-131l-22 44
v12h720l24 -43v-13h-116zM331 526.5q-13 25.5 -36.5 41.5t-54.5 16q-30 0 -50 -19t-20 -54q0 -45 45.5 -86t101.5 -59q27 53 27 108q0 27 -13 52.5z" />
    <glyph glyph-name="uni0937" unicode="&#x937;" horiz-adv-x="590" 
d="M589 597v-13h-115v-612h-13l-53 31v199h-2q-39 -25 -71.5 -39.5t-68.5 -14.5q-59 0 -127 61q-23 22 -34.5 44.5t-11.5 54.5v276h-97l-23 44v12h593zM160 584l248 -257v257h-248zM255 210q36 0 75 19.5t75 48.5l-245 255v-226q0 -50 27.5 -73t66.5 -23z" />
    <glyph glyph-name="uni0938" unicode="&#x938;" horiz-adv-x="669" 
d="M668 597v-13h-115v-612h-13l-54 31v238h-2q-48 -24 -104 -24q-49 0 -86.5 20t-71.5 47h-2q-19 -29 -54 -59l199 -226l-41 -31l-193 232q-38 47 -50 66t-12 46q0 19 15 36.5t31 26.5l51 -43q13 21 21 50.5t8 60.5q0 30 -4 71.5t-10 69.5h-186l-22 44v12h672zM362 279
q71 0 125 38v268h-248q7 -39 12 -89t5 -88q0 -48 -16 -88q59 -42 121 -42z" />
    <glyph glyph-name="uni0939" unicode="&#x939;" horiz-adv-x="556" 
d="M176 418q-31 0 -45 -15.5t-14 -37.5q0 -21 13 -45t35 -46q50 39 123 39q48 0 94 -25t74.5 -62t28.5 -70q0 -41 -28.5 -77.5t-68.5 -59.5l-53 48v2q40 26 64 54.5t24 62.5q0 19 -14.5 38t-40.5 31.5t-58 12.5t-64 -16.5t-53 -47.5t-21 -70q0 -44 24 -81t71.5 -73
t129.5 -83l-19 -29q-124 65 -198.5 132.5t-74.5 155.5q0 48 31 88q-30 33 -52 74.5t-22 73.5q0 85 93 85h203v107h-363l-22 44v12h559l24 -43v-13h-131v-165h-249v-1z" />
    <glyph glyph-name="uni093A" unicode="&#x93a;" horiz-adv-x="381" 
d="M-499 908v-281h-67v281h67z" />
    <glyph glyph-name="uni093B" unicode="&#x93b;" horiz-adv-x="297" 
d="M297 597v-13h-115v-612h-13l-55 31l1 581h-120l-22 44v12h142v268h67v-268h91z" />
    <glyph glyph-name="uni093C" unicode="&#x93c;" 
d="M-86 -131l-67 -69l-67 68l67 67z" />
    <glyph glyph-name="uni093D" unicode="&#x93d;" horiz-adv-x="509" 
d="M456 597v-13h-239q-22 0 -33.5 -12t-11.5 -34q0 -18 17 -42t50 -60l29 -31q71 -75 110 -133t39 -119q0 -37 -22.5 -68t-60 -49t-78.5 -18q-54 0 -109 46t-112 118l28 23q104 -123 183 -123q49 0 79.5 28t30.5 66q0 68 -108 188l-36 40q-6 6 -39 41.5t-50.5 65.5t-17.5 53
q0 30 25.5 53t58.5 23h243z" />
    <glyph glyph-name="uni093E" unicode="&#x93e;" horiz-adv-x="297" 
d="M297 597v-13h-115v-612h-13l-55 31l1 581h-120l-22 44v12h300z" />
    <glyph glyph-name="uni093F" unicode="&#x93f;" horiz-adv-x="297" 
d="M156.5 888q-44.5 -33 -44.5 -96q0 -40 17.5 -83.5t35.5 -68.5h108l24 -43v-13h-115v-612h-13l-55 31l1 581h-120l-22 44v12h145q-74 109 -74 186q0 45 25 80.5t70.5 55.5t104.5 20q101 0 215.5 -75t252.5 -198l-24 -30q-90 77 -156.5 127t-133.5 82.5t-126 32.5
q-71 0 -115.5 -33z" />
    <glyph glyph-name="uni0940" unicode="&#x940;" horiz-adv-x="297" 
d="M297 597v-13h-115v-612h-13l-55 31l1 581h-120l-22 44v12h149q-54 134 -109 224.5t-120 90.5q-42 0 -66.5 -31t-24.5 -69q0 -35 18.5 -71t41.5 -59v-2l-42 -21q-37 32 -64 79.5t-27 100.5q0 35 18 66t51 49.5t75 18.5q71 0 126.5 -58t90.5 -131t80 -187h103z" />
    <glyph glyph-name="uni0941" unicode="&#x941;" 
d="M-348 -226.5q81 -65.5 152 -65.5q53 0 84.5 24t31.5 63q0 22 -20.5 42t-54.5 20q-21 0 -49 -7.5t-48 -19.5l-43 63q22 12 48.5 19.5t47.5 7.5q37 0 77.5 -22t68 -56t27.5 -67q0 -29 -19 -58.5t-54.5 -49t-82.5 -19.5q-84 0 -167.5 58t-180.5 210l39 21q62 -98 143 -163.5
z" />
    <glyph glyph-name="uni0942" unicode="&#x942;" 
d="M-73 -204q-73 61 -138 61q-50 0 -82.5 -22.5t-32.5 -59.5q0 -22 20.5 -42t53.5 -20q20 0 48.5 8t47.5 19l42 -61q-22 -12 -48 -19.5t-46 -7.5q-37 0 -77 22.5t-67 58t-27 73.5q0 28 18 53.5t50.5 41.5t74.5 16q59 -1 113 -27.5t112 -86t129 -160.5l-36 -21
q-82 113 -155 174z" />
    <glyph glyph-name="uni0943" unicode="&#x943;" 
d="M-87 -35q-60 0 -101 -25.5t-41 -61.5q0 -21 16 -38t48 -17q20 0 46.5 7t45.5 18l43 -59q-21 -11 -46 -18.5t-45 -7.5q-41 0 -78 18.5t-59.5 50t-22.5 68.5q0 28 23.5 55t61.5 43.5t80 15.5z" />
    <glyph glyph-name="uni0944" unicode="&#x944;" 
d="M-84 -36q-39 1 -72.5 -9.5t-53.5 -30.5t-20 -45q0 -22 16 -39t48 -17q21 0 48 7t47 18l42 -59q-21 -11 -46 -18.5t-47 -7.5q-40 -28 -40 -65q1 -22 17.5 -40t48.5 -18q19 0 46 7t49 18l42 -58q-21 -11 -46.5 -18.5t-44.5 -7.5q-41 0 -79 18.5t-62 49.5t-24 66q0 33 24 65
q-41 18 -66 50t-25 70q0 29 24.5 56t63.5 43t80 14z" />
    <glyph glyph-name="uni0945" unicode="&#x945;" 
d="M-27 772.5q-45 -26.5 -110 -26.5q-73 0 -129 42.5t-93 100.5l28 15q75 -103 159 -104q60 0 106.5 28.5t73.5 65.5l48 -46q-38 -49 -83 -75.5z" />
    <glyph glyph-name="uni0946" unicode="&#x946;" 
d="M-587 967q-15 -47 -15 -66q0 -30 25 -45t64 -15q25 0 106 7q24 1 66 4t56 3q38 0 71 -16.5t54 -43.5q21 -25 34 -52.5t13 -51.5q0 -25 -10 -55l-47 2q9 18 9 37q0 48 -25 80.5t-85 32.5q-19 0 -79 -6q-10 -1 -43 -4t-56 -3q-56 0 -102 17.5t-72.5 44t-26.5 49.5
q0 26 8.5 53.5t10.5 34.5z" />
    <glyph glyph-name="uni0947" unicode="&#x947;" 
d="M-323 962q51 -55 106 -161q15 -30 19 -37q49 -97 58 -118h-53q-43 95 -51 109q-88 166 -115 180l-115 -34q-12 10 -21.5 27t-9.5 35q0 26 17 40t47 14q67 0 118 -55z" />
    <glyph glyph-name="uni0948" unicode="&#x948;" 
d="M-293 976q53 -58 102 -163q16 -37 36.5 -86t37.5 -94h-31q-14 35 -30 71t-27 59q-39 73 -71.5 124.5t-48.5 63.5l-123 -37h-1q-14 10 -24.5 28.5t-10.5 37.5q0 25 17.5 39.5t47.5 14.5q73 0 126 -58zM-176 633l-30 -1q-45 58 -82 100t-48 46l-127 -18h-2
q-12 9 -19.5 23.5t-7.5 29.5q0 23 16 36.5t43 13.5q112 0 257 -230z" />
    <glyph glyph-name="uni0949" unicode="&#x949;" horiz-adv-x="297" 
d="M0 0zM297 597v-13h-115v-612h-13l-55 31l1 581h-120l-22 44v12h300zM267 772.5q-45 -26.5 -110 -26.5q-73 0 -129 42.5t-93 100.5l28 15q75 -103 159 -104q60 0 106.5 28.5t73.5 65.5l48 -46q-38 -49 -83 -75.5z" />
    <glyph glyph-name="uni094A" unicode="&#x94a;" horiz-adv-x="297" 
d="M-291 967q-15 -42 -15 -66q0 -30 24.5 -45t63.5 -15q15 0 105 6q102 8 125 8q37 0 69.5 -16.5t54.5 -43.5q46 -57 46 -104q0 -21 -8 -51h98l24 -43v-13h-114v-612h-14l-54 31l1 581h-120l-23 44v12h155q8 16 8 35q0 48 -25.5 80.5t-85.5 32.5q-17 0 -77 -6
q-79 -7 -100 -7q-56 0 -102 17.5t-72.5 44t-26.5 49.5q0 29 9 57t10 31z" />
    <glyph glyph-name="uni094B" unicode="&#x94b;" horiz-adv-x="297" 
d="M297 596v-13h-115v-612h-13l-55 31l1 581h-120l-22 44v12h149q-41 93 -53 115q-88 166 -115 180l-115 -34q-12 10 -21.5 27t-9.5 35q0 26 17 40t47 14q67 0 118 -55t106 -161q3 -6 6.5 -12.5t6.5 -12.5q52 -105 65 -135h99z" />
    <glyph glyph-name="uni094C" unicode="&#x94c;" horiz-adv-x="297" 
d="M297 597v-13h-115v-612h-13l-55 31l1 581h-120l-22 44v12h113q-43 56 -78 95t-46 43l-127 -18h-2q-11 10 -19 24.5t-8 28.5q0 23 16 36.5t43 13.5q110 0 253 -223h30q-15 35 -29.5 68.5t-25.5 54.5q-38 72 -70.5 124t-48.5 64l-122 -37h-2q-13 10 -23.5 28.5t-10.5 37.5
q0 26 16.5 40t47.5 14q73 0 124.5 -57t102.5 -163q14 -29 35 -80.5t36 -93.5h95z" />
    <glyph glyph-name="uni094D" unicode="&#x94d;" 
d="M-79.5 -213.5q-50.5 30.5 -109.5 49.5l-130 -39q-13 10 -21.5 27.5t-8.5 35.5q0 28 17.5 43.5t48.5 15.5q34 0 91 -25t124 -71t130 -106l-24 -22q-67 61 -117.5 91.5z" />
    <glyph glyph-name="uni0950" unicode="&#x950;" horiz-adv-x="1120" 
d="M725 735l-67 -67l-66 67l66 68zM648 583q61 0 108 28.5t72 65.5l48 -46q-39 -48 -84 -75t-109 -27q-74 0 -130 42.5t-92 100.5l28 16q75 -104 159 -105zM322.5 632q43.5 -28 72.5 -73t29 -93q0 -34 -18 -67.5t-47 -52.5q19 -17 41 -43q14 -17 13 -16q48 -56 85.5 -87
t82.5 -31q37 0 66.5 34.5t70.5 105.5q31 53 54.5 86t53.5 55.5t65 22.5q27 0 56 -14t52 -37q26 -26 39.5 -63t13.5 -75q0 -67 -41.5 -108t-103.5 -41q-46 0 -87.5 30.5t-70.5 75.5q-41 -68 -71.5 -101.5t-63.5 -33.5q-48 0 -83 24.5t-70 62.5q-11 13 -16 17l-2 -1
q2 -7 4 -25q2 -67 -41 -109t-113 -42q-104 0 -172.5 68t-117.5 161l32 19q40 -72 102.5 -130t127.5 -58q52 0 85.5 32.5t33.5 80.5q0 33 -18 66t-46 55q-23 -8 -55.5 -13.5t-58.5 -7.5l-27 49l8 20q82 5 126 30q27 17 42.5 39.5t15.5 55.5q0 24 -16 46t-40.5 36t-49.5 14
q-34 0 -70 -17.5t-68 -44.5l-37 68q27 18 76.5 38t71.5 20q41 0 84.5 -28zM811 336q-21 -28 -39 -58q17 -38 43.5 -61.5t55.5 -23.5q34 0 63 16.5t46.5 43t17.5 53.5q0 48 -21.5 78.5t-57.5 30.5q-50 0 -108 -79z" />
    <glyph glyph-name="uni0951" unicode="&#x951;" 
d="M-124 1000v-263h-59v263h59z" />
    <glyph glyph-name="uni0952" unicode="&#x952;" 
d="M-385 -198h462v-48h-462v48z" />
    <glyph glyph-name="uni0953" unicode="&#x953;" 
d="M-380 975l64 19l160 -228v-7l-41 -21l-183 230v7z" />
    <glyph glyph-name="uni0954" unicode="&#x954;" 
d="M35 975v-7l-183 -230l-40 21v7l160 228z" />
    <glyph glyph-name="uni0956" unicode="&#x956;" 
d="M-45 -61l35 -29q-30 -52 -89 -86t-126 -34q-68 0 -126.5 34t-89.5 86l36 29q66 -92 180 -93q114 1 180 93z" />
    <glyph glyph-name="uni0957" unicode="&#x957;" 
d="M-45 -61l35 -29q-30 -52 -89 -86t-126 -34q-68 0 -126.5 34t-89.5 86l36 29q66 -92 180 -93q114 1 180 93zM-45 -227l35 -29q-30 -52 -89 -86t-126 -34q-68 0 -126.5 34t-89.5 86l36 29q66 -92 180 -93q114 1 180 93z" />
    <glyph glyph-name="uni0958" unicode="&#x958;" horiz-adv-x="832" 
d="M0 0zM467 584v-238q36 34 75.5 57t76.5 23q76 0 116.5 -51.5t40.5 -138.5q0 -43 -24 -103.5t-49 -94.5l-49 59q27 28 52.5 72.5t25.5 88.5q0 46 -28 77t-67 31t-80.5 -25.5t-89.5 -73.5v-295h-13l-55 31l4 203l-1 1q-34 -29 -57 -45t-53.5 -27.5t-67.5 -11.5
q-46 0 -84.5 20t-61.5 58t-23 92q0 42 19.5 78.5t55 59t80.5 22.5q63 0 109 -32t83 -82l1 245h-408l-22 44v12h836l23 -43v-13h-365zM401 282v4q-29 41 -74 70t-90 29q-53 -1 -94 -32t-41 -83q0 -40 28.5 -64t66.5 -24q102 0 204 100zM287 6l-67 -69l-67 68l67 67z" />
    <glyph glyph-name="uni0959" unicode="&#x959;" horiz-adv-x="824" 
d="M0 0zM832 597v-13h-122v-612h-14l-54 31l2 74q-43 -27 -103 -46.5t-112 -19.5q-129 0 -292 178q-39 43 -55 70t-16 53q0 20 14.5 37.5t30.5 25.5l51 -43q14 20 21.5 50t7.5 61t-3.5 71.5t-9.5 69.5h-182l-23 44v12h836zM162 225q49 -58 119 -108.5t147 -50.5
q52 0 111 22.5t105 58.5l-1 109q-49 -40 -83 -60.5t-75 -20.5q-46 0 -83.5 20.5t-58.5 55.5t-21 76q0 70 44 113t111 43q49 0 91 -24t73 -57h2v182h-408q8 -41 12.5 -92t4.5 -85q0 -64 -23 -104t-66 -78h-1zM643 340q-26 38 -65.5 59.5t-79.5 21.5q-36 0 -66 -16t-47.5 -43
t-17.5 -59q0 -29 25 -50t67 -21q44 0 94.5 31.5t88.5 76.5v1zM200 1l-67 -69l-67 68l67 67z" />
    <glyph glyph-name="uni095A" unicode="&#x95a;" horiz-adv-x="599" 
d="M0 0zM597 598v-13h-115v-612h-13l-54 31v581h-208q11 -176 11 -291q0 -37 -14.5 -67t-54.5 -30q-34 0 -57.5 18.5t-34.5 44t-11 46.5q0 18 5 33l97 -13l6 258h-159l-22 44v12h602zM222 66l-67 -69l-67 68l67 67z" />
    <glyph glyph-name="uni095B" unicode="&#x95b;" horiz-adv-x="725" 
d="M0 0zM724 584h-115v-612h-13l-54 31v373h-219q47 -38 76.5 -84t29.5 -85q0 -49 -31 -83t-77 -34q-70 0 -124.5 46t-88.5 105.5t-71 141.5l-12 27l37 17q38 -76 67.5 -127.5t76 -98.5t97.5 -47q29 0 45.5 20.5t16.5 49.5q0 48 -47 97t-101 79l13 31h312v153h-547l-22 44
v12h728l23 -43v-13zM133 33l-67 -69l-67 68l67 67z" />
    <glyph glyph-name="uni095C" unicode="&#x95c;" horiz-adv-x="574" 
d="M0 0zM574 597v-13h-111v-178h-229q-75 0 -75 -81q0 -23 17 -43.5t36 -20.5q22 0 45.5 5t56.5 15q34 10 58 15.5t48 5.5q26 0 52 -24.5t42 -61t16 -69.5q0 -66 -42.5 -108t-118.5 -42q-87 0 -166 41.5t-170 143.5l31 28q76 -84 144 -119t131 -35q55 0 97.5 28.5t42.5 81.5
q0 25 -11 47t-23 28q-30 1 -54 -4.5t-56 -15.5q-29 -9 -47 -13.5t-40 -4.5q-29 0 -63.5 23t-58.5 57.5t-24 68.5q0 51 29.5 82t74.5 31h190v119h-401l-22 44v12h578zM427 -130l-67 -69l-67 68l67 67z" />
    <glyph glyph-name="uni095D" unicode="&#x95d;" horiz-adv-x="551" 
d="M0 0zM142.5 360q-43.5 -37 -43.5 -104q0 -50 26.5 -90.5t65 -66t75.5 -35.5q-38 54 -38 108q1 59 38 88.5t85 29.5q38 0 70.5 -19.5t51.5 -54.5t19 -77t-26.5 -73.5t-66 -48t-76.5 -16.5q-60 0 -123.5 34t-106 98t-42.5 149q0 89 52.5 132.5t142.5 43.5h102v126h-353
l-22 44v12h553l25 -43v-13h-137v-187h-150q-78 0 -121.5 -37zM376 238q-21 0 -44 -12.5t-38.5 -36.5t-15.5 -57q1 -35 24 -73q61 3 103.5 30.5t42.5 69.5q0 36 -22 58t-49 22zM384 -123l-67 -69l-67 68l67 67z" />
    <glyph glyph-name="uni095E" unicode="&#x95e;" horiz-adv-x="813" 
d="M0 0zM451 584v-220q39 36 76 58.5t76 22.5q75 0 116 -51t41 -138q0 -42 -24 -102.5t-49 -95.5l-51 58q27 28 53 73t26 88q0 46 -28 77.5t-67 31.5q-43 0 -81 -27t-88 -77v-310h-13l-55 31v220h-3q-31 -18 -59.5 -28.5t-63.5 -10.5q-32 0 -60 13t-57 42q-23 21 -35 45
t-12 56v244h-98l-22 44v12h816l24 -43v-13h-362zM246 247q67 0 138 55v282h-224v-246q0 -91 87 -91h-1zM198 74l-67 -69l-67 68l67 67z" />
    <glyph glyph-name="uni095F" unicode="&#x95f;" horiz-adv-x="610" 
d="M0 0zM610 584h-114v-612h-14l-54 31l3 176l-4 2q-85 -60 -158 -60q-77 0 -130.5 54t-84.5 150q55 16 99.5 52.5t44.5 80.5q0 30 -22 59t-63 67h-118l-22 44v12h615l22 -43v-13zM342.5 208.5q52.5 25.5 86.5 61.5l1 314h-256v-1q40 -40 64.5 -74.5t24.5 -71.5
q0 -51 -46 -92.5t-94 -63.5q2 -38 35 -68t81 -30q51 0 103.5 25.5zM140 67l-67 -69l-67 68l67 67z" />
    <glyph glyph-name="uni0960" unicode="&#x960;" horiz-adv-x="844" 
d="M844 597v-13h-384v-255q8 -1 25 -1q69 0 113 34l-34 75q6 7 22 13.5t30 6.5q31 0 50.5 -17t19.5 -46q0 -32 -24 -58l77 -168q-53 -29 -77.5 -52.5t-24.5 -51.5q0 -22 13.5 -37t46.5 -15q20 0 47 7t47 18l42 -57q-21 -11 -46.5 -18t-47.5 -8q-36 -30 -34 -70
q0 -21 16.5 -39t49.5 -18q20 0 47 7t47 19l41 -58q-20 -11 -45.5 -18t-46.5 -7q-41 0 -78 18t-60 48.5t-23 65.5q0 40 18 68q-40 16 -64.5 47t-24.5 69q0 30 23.5 60.5t68.5 57.5l-49 105q-29 -17 -63.5 -26t-68.5 -9q-18 0 -33 3v-305h-14l-55 31l3 236l-2 1l-266 -206
l-49 54l314 221q-48 46 -92.5 64t-89.5 18q-32 0 -63.5 -9t-74.5 -25l-36 66q25 10 70.5 21.5t75.5 11.5q54 -1 105 -24.5t107 -67.5v220h-398l-22 44v12h847z" />
    <glyph glyph-name="uni0961" unicode="&#x961;" horiz-adv-x="721" 
d="M721 597v-13h-189v-161q50 -15 89 -55t39 -90q-1 -47 -26.5 -85.5t-73.5 -88.5q-36 -38 -51.5 -59t-15.5 -43q0 -25 18.5 -41t49.5 -16t60 19t60 51l48 -48q-40 -36 -80 -54q-31 -29 -31 -56q0 -25 18 -40.5t48 -15.5q31 0 60 18.5t60 50.5l48 -48q-39 -35 -74.5 -51
t-71.5 -16q-31 0 -66 12t-59.5 36.5t-24.5 59.5q0 19 11 38q-30 5 -62.5 22.5t-54 45t-21.5 60.5q0 24 17 47t51 57q47 48 72.5 87t25.5 88q0 25 -14 43t-32.5 26.5t-32.5 8.5q-65 0 -102 -66.5t-57 -152.5l-69 33q16 68 47 120q-25 28 -58.5 46.5t-62.5 18.5
q-45 0 -73.5 -31.5t-28.5 -81.5q0 -77 30.5 -139t76.5 -125l-33 -19q-56 78 -95 155t-39 158q0 40 18 73.5t48.5 52.5t67.5 19q45 0 92 -27t81 -65q45 60 106 73l1 156h-471l-22 44v12h725z" />
    <glyph glyph-name="uni0962" unicode="&#x962;" 
d="M-123 -103q26 -13 44.5 -33t18.5 -40q0 -19 -10 -35.5t-28 -37.5q-15 -17 -22.5 -28.5t-7.5 -23.5t9.5 -19.5t23.5 -7.5q21 0 41.5 13.5t31.5 31.5l35 -47q-45 -32 -97 -32q-33 0 -65 18.5t-32 55.5q0 10 6 19.5t20 26.5q19 21 30 40t11 42q0 18 -12.5 28.5t-24.5 10.5
q-59 0 -87 -118l-56 14q11 43 26 70q-13 13 -29.5 21.5t-30.5 8.5q-24 0 -41 -15t-17 -38q0 -38 20 -72.5t54 -74.5l-22 -18q-44 36 -75.5 80t-31.5 83q0 32 17 54.5t40 33.5t41 11q42 0 92 -46q31 36 77 39v109h51v-124z" />
    <glyph glyph-name="uni0963" unicode="&#x963;" 
d="M-123 -103q26 -13 44.5 -33t18.5 -40q0 -19 -10 -35.5t-28 -37.5q-15 -17 -22.5 -28.5t-7.5 -23.5t9.5 -19.5t23.5 -7.5q21 0 41 13.5t31 31.5l36 -47q-19 -13 -41 -21q-19 -16 -19 -35q0 -11 14 -18.5t28 -7.5q20 0 40.5 13t32.5 29l43 -41q-22 -17 -50 -27.5t-55 -10.5
q-20 0 -45.5 8.5t-43.5 24.5t-18 39q0 5 6 17q-33 3 -60 20.5t-27 51.5q0 10 6 19.5t20 26.5q19 21 30 40t11 42q0 18 -12.5 28.5t-24.5 10.5q-36 0 -55 -35t-32 -83l-55 14q11 43 26 70q-13 13 -29.5 21.5t-31.5 8.5q-23 0 -40 -15t-17 -38q0 -37 19.5 -71.5t53.5 -75.5
l-22 -18q-44 36 -75 80t-31 83q0 32 17 54.5t40 33.5t40 11q41 0 93 -46q31 36 77 39v109h51v-124z" />
    <glyph glyph-name="uni0964" unicode="&#x964;" horiz-adv-x="491" 
d="M337 629v-657h-13l-54 31v656h13z" />
    <glyph glyph-name="uni0965" unicode="&#x965;" horiz-adv-x="755" 
d="M337 629v-657h-13l-54 31v656h13zM601 629v-657h-13l-54 31v656h13z" />
    <glyph glyph-name="uni0966" unicode="&#x966;" horiz-adv-x="631" 
d="M143.5 384.5q31.5 51.5 81 83t98.5 31.5q52 0 97 -28t72.5 -78t27.5 -113q0 -59 -32.5 -111.5t-81.5 -83.5t-97 -31q-56 0 -101 30t-70.5 81t-25.5 113q0 55 31.5 106.5zM203.5 207q25.5 -44 62 -67t67.5 -23q30 0 58 16.5t45 45t17 63.5q0 51 -22 96t-58 71.5t-74 26.5
q-31 0 -59 -16t-45 -45t-17 -64q0 -60 25.5 -104z" />
    <glyph glyph-name="uni0967" unicode="&#x967;" horiz-adv-x="631" 
d="M385.5 650q41.5 -23 67.5 -62.5t26 -87.5q0 -53 -36.5 -110.5t-93.5 -124.5l-74 -84l138 -143l17 -19q41 -45 60.5 -72t19.5 -51q1 -28 -18 -44.5t-45 -16.5q-25 0 -42 15.5t-26 36.5v2l53 46q-37 50 -89.5 103t-134.5 130l-22 21v1l131 147q-52 30 -85 54t-57 57.5
t-24 75.5t20.5 76t55 53.5t75.5 19.5q42 0 83.5 -23zM251 586q-30 -34 -30 -80q0 -36 39 -73t87 -57q30 41 47.5 80t17.5 69q0 37 -25.5 66t-63.5 29q-42 0 -72 -34z" />
    <glyph glyph-name="uni0968" unicode="&#x968;" horiz-adv-x="631" 
d="M412 629q49 -36 78 -91t29 -109q0 -60 -32.5 -115t-87 -91t-117.5 -40l188 -284l-67 -42l-169 328q-49 7 -85.5 24t-36.5 42q0 29 21.5 48t45.5 19q10 0 14 -2l51 -77q90 20 149.5 77.5t59.5 144.5q0 56 -30.5 95.5t-84.5 39.5q-37 0 -90 -19.5t-97 -44.5l-49 74
q62 28 111.5 43.5t94.5 15.5q55 0 104 -36z" />
    <glyph glyph-name="uni0969" unicode="&#x969;" horiz-adv-x="631" 
d="M565 226q0 -43 -38.5 -90t-100.5 -78.5t-129 -31.5l50 -41l55 -106l-73 45l-43 103q-42 3 -82 17.5t-40 40.5q-1 30 21 50t46 20q10 0 14 -2l51 -76q87 23 146 73t59 109q0 41 -31.5 64.5t-75.5 23.5q-18 0 -25 -1q-41 -19 -88.5 -29.5t-85.5 -10.5q-17 0 -29.5 17
t-12.5 43q0 9 26 19.5t72 18.5t101 10q28 17 42.5 38.5t14.5 52.5q0 39 -28.5 65t-73.5 26q-30 0 -67 -7t-87 -20q-8 -2 -17.5 -4.5t-19.5 -4.5l-41 80q110 22 201 22q47 0 93 -31.5t75.5 -76.5t29.5 -81q0 -47 -39 -84q133 -69 133 -162z" />
    <glyph glyph-name="uni096A" unicode="&#x96a;" horiz-adv-x="631" 
d="M478.5 252.5q35.5 -48.5 35.5 -90.5q0 -41 -28 -72t-71 -47t-86 -16t-84.5 19t-68 54t-26.5 81q0 45 29 90.5t102 119.5q-67 61 -192 149l-70 51l42 49l60 -51q138 -117 192 -166q36 36 70 67q110 108 188 186l32 -77q-43 -39 -68 -61q-13 -12 -70 -63.5t-103 -97.5
q81 -76 116.5 -124.5zM363 97.5q31 16.5 50 43.5t19 59q0 25 -23 57t-68 76l-11 11q-69 -74 -93.5 -112.5t-24.5 -74.5q0 -31 25.5 -53.5t61.5 -22.5q33 0 64 16.5z" />
    <glyph glyph-name="uni096B" unicode="&#x96b;" horiz-adv-x="631" 
d="M587 -144l-147 309q-28 -22 -60 -35t-62 -13q-47 0 -92.5 20.5t-75 59t-29.5 88.5q0 65 30 167.5t71 195.5l69 -56q-109 -227 -109 -329q0 -36 25.5 -65.5t61.5 -29.5q27 0 65 18t74 48l-44 90q22 16 55 16q36 0 63.5 -18.5t27.5 -47.5q0 -37 -38 -80l168 -311z" />
    <glyph glyph-name="uni096C" unicode="&#x96c;" horiz-adv-x="631" 
d="M313 659l37 -70q-27 5 -50 5q-93 0 -140.5 -24.5t-47.5 -95.5q0 -36 27.5 -66.5t60.5 -43.5q41 26 94 40.5t96 14.5q16 0 28.5 -17.5t12.5 -43.5q0 -9 -25.5 -19t-67.5 -17.5t-88 -8.5q-67 -39 -67 -103q0 -30 19.5 -58.5t50 -46.5t62.5 -18q54 0 125 27l-33 61
q28 18 58 18q28 0 48.5 -14t20.5 -38q0 -36 -36 -67l122 -183l-47 -23l-101 187q-58 -33 -127 -33q-50 0 -103 35.5t-88 87.5t-35 97q0 53 46 96q-50 30 -83 76t-33 92q0 74 58 114.5t162 40.5q24 0 44 -2z" />
    <glyph glyph-name="uni096D" unicode="&#x96d;" horiz-adv-x="631" 
d="M147 324q47 -129 105.5 -185t119.5 -56q92 0 133.5 63t44.5 164q-26 -18 -49 -26.5t-49 -8.5q-38 0 -72.5 14t-59.5 39q-33 30 -48.5 68.5t-15.5 89.5q0 37 20 70.5t51.5 54.5t64.5 21q43 0 74 -15.5t57 -48.5q38 -44 57.5 -120t19.5 -152q0 -88 -31 -150.5t-80.5 -94.5
t-102.5 -32q-92 0 -165 74.5t-120.5 215.5t-64.5 337l43 13q21 -206 68 -335zM349 536q-32 -36 -32 -86t27 -82.5t84 -32.5q27 0 60 14.5t57 39.5q-11 81 -43 132t-73 51q-48 0 -80 -36z" />
    <glyph glyph-name="uni096E" unicode="&#x96e;" horiz-adv-x="631" 
d="M495 641l-216 -244q-81 -92 -108.5 -146t-27.5 -101q0 -25 16 -54t47 -49.5t74 -20.5q54 0 110 39t124 108l56 -54q-74 -77 -135 -107t-132 -30q-60 0 -111.5 27.5t-82 73t-30.5 96.5q0 42 21 91t81 117l289 330z" />
    <glyph glyph-name="uni096F" unicode="&#x96f;" horiz-adv-x="631" 
d="M305.5 659.5q44.5 -26.5 74.5 -69.5t30 -92q0 -42 -26 -78t-69 -59t-90 -30q155 -145 277 -265q46 -44 72 -79t26 -62q1 -28 -18 -44t-46 -16q-24 0 -41.5 15t-26.5 36v2l54 46q-40 55 -133.5 146t-227.5 212q-65 59 -87.5 99.5t-22.5 98.5q0 44 22 82t60.5 61t87.5 23
q40 0 84.5 -26.5zM181.5 604.5q-32.5 -19.5 -50 -50t-17.5 -61.5q0 -30 11 -57t36 -56q51 6 92.5 29.5t65.5 54.5t24 59q0 42 -24 71.5t-63 29.5q-42 0 -74.5 -19.5z" />
    <glyph glyph-name="uni0970" unicode="&#x970;" horiz-adv-x="447" 
d="M97.5 355.5q25.5 36.5 62.5 58t68 21.5q37 0 70.5 -18.5t54.5 -54t21 -83.5q0 -47 -26.5 -83.5t-63 -57t-65.5 -20.5q-38 0 -72 20t-54.5 56.5t-20.5 82.5q0 42 25.5 78.5zM149 235q17 -28 41.5 -43t44.5 -15q30 0 55.5 21.5t25.5 56.5q0 31 -15.5 59t-39.5 45.5
t-47 17.5q-31 0 -56.5 -21t-25.5 -56q0 -37 17 -65z" />
    <glyph glyph-name="uni0971" unicode="&#x971;" horiz-adv-x="297" 
d="M205 610l-66 -68l-67 67l66 68z" />
    <glyph glyph-name="uni0972" unicode="&#x972;" horiz-adv-x="789" 
d="M3 0zM789 585h-115v-612h-13l-54 31v270h-1q-36 -22 -76 -22q-57 0 -119 42l-3 -2q38 -53 38 -115q0 -63 -42.5 -103t-110.5 -40q-104 0 -172.5 68t-117.5 161l32 19q40 -72 102.5 -130t127.5 -58q52 0 85.5 32.5t33.5 80.5q0 34 -18 67t-46 54q-51 -16 -114 -21l-26 49
l7 20q82 4 126 30q27 17 42.5 39.5t15.5 55.5q0 24 -15.5 46t-40 36t-49.5 14q-65 0 -139 -62l-36 68q27 18 76 38t71 20q42 -1 85.5 -29t72.5 -72.5t29 -92.5q0 -33 -16.5 -65.5t-48.5 -56.5q75 -34 135 -34q58 0 112 38l1 235h-142l-23 44v12h323l23 -43v-12zM767 772.5
q-45 -26.5 -110 -26.5q-73 0 -129 42.5t-93 100.5l28 15q75 -103 159 -104q60 0 106.5 28.5t73.5 65.5l48 -46q-38 -49 -83 -75.5z" />
    <glyph glyph-name="uni0973" unicode="&#x973;" horiz-adv-x="789" 
d="M3 0zM789 585h-115v-612h-13l-54 31v270h-1q-36 -22 -76 -22q-57 0 -119 42l-3 -2q38 -53 38 -115q0 -63 -42.5 -103t-110.5 -40q-104 0 -172.5 68t-117.5 161l32 19q40 -72 102.5 -130t127.5 -58q52 0 85.5 32.5t33.5 80.5q0 34 -18 67t-46 54q-51 -16 -114 -21l-26 49
l7 20q82 4 126 30q27 17 42.5 39.5t15.5 55.5q0 24 -15.5 46t-40 36t-49.5 14q-65 0 -139 -62l-36 68q27 18 76 38t71 20q42 -1 85.5 -29t72.5 -72.5t29 -92.5q0 -33 -16.5 -65.5t-48.5 -56.5q75 -34 135 -34q58 0 112 38l1 235h-142l-23 44v12h323l23 -43v-12zM674 908
v-281h-67v281h67z" />
    <glyph glyph-name="uni0974" unicode="&#x974;" horiz-adv-x="1086" 
d="M3 0zM1086 585h-114v-612h-14l-54 31v581h-230v-612h-13l-54 31v270h-1q-36 -22 -76 -22q-57 0 -119 42l-3 -2q38 -53 38 -115q0 -63 -42.5 -103t-110.5 -40q-104 0 -172.5 68t-117.5 161l32 19q40 -72 102.5 -130t127.5 -58q52 0 85.5 32.5t33.5 80.5q0 34 -18 67
t-46 54q-51 -16 -114 -21l-26 49l7 20q82 4 126 30q27 17 42.5 39.5t15.5 55.5q0 24 -15.5 46t-40 36t-49.5 14q-65 0 -139 -62l-36 68q27 18 76 38t71 20q42 -1 85.5 -29t72.5 -72.5t29 -92.5q0 -33 -16.5 -65.5t-48.5 -56.5q75 -34 135 -34q58 0 112 38l1 235h-142l-23 44
v12h619l24 -43v-12zM972 908v-281h-67v281h67z" />
    <glyph glyph-name="uni0976" unicode="&#x976;" horiz-adv-x="789" 
d="M3 0zM789 585h-115v-612h-13l-54 31v270h-1q-36 -22 -76 -22q-57 0 -119 42l-3 -2q38 -53 38 -115q0 -63 -42.5 -103t-110.5 -40q-104 0 -172.5 68t-117.5 161l32 19q40 -72 102.5 -130t127.5 -58q52 0 85.5 32.5t33.5 80.5q0 34 -18 67t-46 54q-51 -16 -114 -21l-26 49
l7 20q82 4 126 30q27 17 42.5 39.5t15.5 55.5q0 24 -15.5 46t-40 36t-49.5 14q-65 0 -139 -62l-36 68q27 18 76 38t71 20q42 -1 85.5 -29t72.5 -72.5t29 -92.5q0 -33 -16.5 -65.5t-48.5 -56.5q75 -34 135 -34q58 0 112 38l1 235h-142l-23 44v12h323l23 -43v-12zM528 -61
l35 -29q-30 -52 -89 -86t-126 -34q-68 0 -126.5 34t-89.5 86l36 29q66 -92 180 -93q114 1 180 93z" />
    <glyph glyph-name="uni0977" unicode="&#x977;" horiz-adv-x="789" 
d="M3 0zM789 585h-115v-612h-13l-54 31v270h-1q-36 -22 -76 -22q-57 0 -119 42l-3 -2q38 -53 38 -115q0 -63 -42.5 -103t-110.5 -40q-104 0 -172.5 68t-117.5 161l32 19q40 -72 102.5 -130t127.5 -58q52 0 85.5 32.5t33.5 80.5q0 34 -18 67t-46 54q-51 -16 -114 -21l-26 49
l7 20q82 4 126 30q27 17 42.5 39.5t15.5 55.5q0 24 -15.5 46t-40 36t-49.5 14q-65 0 -139 -62l-36 68q27 18 76 38t71 20q42 -1 85.5 -29t72.5 -72.5t29 -92.5q0 -33 -16.5 -65.5t-48.5 -56.5q75 -34 135 -34q58 0 112 38l1 235h-142l-23 44v12h323l23 -43v-12zM528 -61
l35 -29q-30 -52 -89 -86t-126 -34q-68 0 -126.5 34t-89.5 86l36 29q66 -92 180 -93q114 1 180 93zM528 -227l35 -29q-30 -52 -89 -86t-126 -34q-68 0 -126.5 34t-89.5 86l36 29q66 -92 180 -93q114 1 180 93z" />
    <glyph glyph-name="uni0979" unicode="&#x979;" horiz-adv-x="725" 
d="M724 584h-115v-612h-13l-54 31v373h-219q47 -38 76.5 -84t29.5 -85q0 -49 -31 -83t-77 -34q-70 0 -124.5 46t-88.5 105.5t-71 141.5l-12 27l37 17q38 -76 67.5 -127.5t76 -98.5t97.5 -47q29 0 45.5 20.5t16.5 49.5q0 48 -47 97t-101 79l13 31h312v153h-547l-22 44v12h728
l23 -43v-13zM270 -26l-70 -72l-70 71l69 70zM403 43l71 -69l-70 -72l-70 71zM302 -62l71 -69l-70 -72l-70 71z" />
    <glyph glyph-name="uni097A" unicode="&#x97a;" horiz-adv-x="610" 
d="M610 597v-13h-114v-612h-14l-54 31l3 176l-4 2q-85 -60 -158 -60q-77 0 -130.5 54t-84.5 150q55 16 99.5 52.5t44.5 80.5q0 30 -22 59t-63 67h-118l-22 44v12h615zM174 583q30 -30 45 -48l210 -242l1 291h-256v-1zM238 183q46 0 94 21.5t83 52.5l-152 175
q-3 -49 -48.5 -89.5t-91.5 -61.5q2 -38 35 -68t81 -30h-1z" />
    <glyph glyph-name="uni097B" unicode="&#x97b;" horiz-adv-x="599" 
d="M598 597v-13h-115v-619h-430l-21 38v12h384v569h-207q12 -147 12 -289q0 -37 -15 -67.5t-57 -30.5q-34 0 -57.5 18.5t-34.5 44t-11 46.5q0 18 5 33l97 -13v258h-153l-22 44v12h602z" />
    <glyph glyph-name="uni097C" unicode="&#x97c;" horiz-adv-x="725" 
d="M724 597v-13h-115v-610h-556l-21 38v12h510l1 352h-220q46 -38 76 -83t30 -86q0 -49 -31.5 -83t-77.5 -34q-70 0 -124 46t-88 105.5t-71 141.5l-12 27l36 17q37 -74 67.5 -126.5t77 -99.5t97.5 -47q29 0 45.5 20.5t16.5 49.5q0 48 -47 97t-101 79l13 31h313v153h-548
l-22 44v12h728z" />
    <glyph glyph-name="uni097D" unicode="&#x97d;" horiz-adv-x="542" 
d="M344.5 625.5q48.5 -34.5 80.5 -89t32 -111.5q0 -47 -28.5 -83t-67.5 -55q-41 -20 -106 -33v-282h-12l-54 31v307l8 13q89 7 133 33q33 20 53.5 43.5t20.5 59.5q0 32 -20.5 64t-50 52.5t-55.5 20.5q-64 0 -140 -62l-36 68q26 18 75.5 38t73.5 20q45 0 93.5 -34.5z" />
    <glyph glyph-name="uni097E" unicode="&#x97e;" horiz-adv-x="574" 
d="M574 597v-13h-111v-178h-229q-75 0 -75 -81q0 -23 17 -43.5t36 -20.5q22 0 45.5 5t56.5 15q34 10 58 15.5t48 5.5q26 0 52 -24.5t42 -61t16 -69.5q0 -66 -42.5 -108t-118.5 -42q-87 0 -166 41.5t-170 143.5l31 28q76 -84 144 -119t131 -35q55 0 97.5 28.5t42.5 81.5
q0 25 -11 47t-23 28q-30 1 -54 -4.5t-56 -15.5q-29 -9 -47 -13.5t-40 -4.5q-29 0 -63.5 23t-58.5 57.5t-24 68.5q0 51 29.5 82t74.5 31h190v119h-401l-22 44v12h578zM542 -136v-13h-489l-20 38v11h488z" />
    <glyph glyph-name="uni097F" unicode="&#x97f;" horiz-adv-x="648" 
d="M648 597v-13h-116v-619h-479l-21 38v12h434l2 187l-3 2q-54 -47 -101.5 -73.5t-96.5 -26.5q-50 0 -96 20.5t-74.5 60t-28.5 93.5q0 60 27.5 104t69.5 67t85 23q70 0 126 -38.5t89 -83.5h2v234h-472l-22 44v12h652zM224 395l130 -198q34 19 63 43t49 49v2q-25 40 -78.5 77
t-101.5 37q-30 0 -62 -10zM136 325.5q-20 -33.5 -20 -68.5q0 -41 34.5 -68.5t86.5 -27.5q38 0 86 20l-132 199q-35 -21 -55 -54.5z" />
    <glyph glyph-name="uni2000" unicode="&#x2000;" horiz-adv-x="500" 
 />
    <glyph glyph-name="uni2001" unicode="&#x2001;" horiz-adv-x="1000" 
 />
    <glyph glyph-name="uni2002" unicode="&#x2002;" horiz-adv-x="500" 
 />
    <glyph glyph-name="uni2003" unicode="&#x2003;" horiz-adv-x="1000" 
 />
    <glyph glyph-name="uni2004" unicode="&#x2004;" horiz-adv-x="333" 
 />
    <glyph glyph-name="uni2005" unicode="&#x2005;" horiz-adv-x="250" 
 />
    <glyph glyph-name="uni2006" unicode="&#x2006;" horiz-adv-x="167" 
 />
    <glyph glyph-name="uni2007" unicode="&#x2007;" horiz-adv-x="629" 
 />
    <glyph glyph-name="uni2008" unicode="&#x2008;" horiz-adv-x="353" 
 />
    <glyph glyph-name="uni2009" unicode="&#x2009;" horiz-adv-x="200" 
 />
    <glyph glyph-name="uni200A" unicode="&#x200a;" horiz-adv-x="100" 
 />
    <glyph glyph-name="uni200C" unicode="&#x200c;" 
 />
    <glyph glyph-name="uni200D" unicode="&#x200d;" 
 />
    <glyph glyph-name="endash" unicode="&#x2013;" horiz-adv-x="673" 
d="M588 417v-58h-503v58h503z" />
    <glyph glyph-name="emdash" unicode="&#x2014;" horiz-adv-x="1171" 
d="M1085 417v-58h-1000v58h1000z" />
    <glyph glyph-name="quoteleft" unicode="&#x2018;" horiz-adv-x="370" 
d="M126.5 530q-25.5 46 -25.5 92q0 75 44 130.5t102 80.5l18 -23v-12q-36 -12 -64.5 -54.5t-28.5 -92.5q0 -41 21 -72t49 -35v-18l-40 -54q-50 12 -75.5 58z" />
    <glyph glyph-name="quoteright" unicode="&#x2019;" horiz-adv-x="370" 
d="M96 516q37 12 64.5 55t27.5 93q0 40 -21 71.5t-48 34.5v19l40 53q49 -12 74.5 -57t26.5 -91q0 -75 -44 -131.5t-103 -81.5l-17 24v11z" />
    <glyph glyph-name="quotesinglbase" unicode="&#x201a;" horiz-adv-x="364" 
d="M159 113q34 -8 57 -33.5t33.5 -57t10.5 -59.5q0 -75 -44.5 -132t-102.5 -81l-17 24v11q36 12 64 55.5t28 94.5q0 40 -21 71.5t-48 34.5v18z" />
    <glyph glyph-name="quotedblleft" unicode="&#x201c;" horiz-adv-x="622" 
d="M125.5 529q-25.5 45 -25.5 91q0 76 44 132.5t103 80.5l17 -23v-12q-36 -12 -64.5 -55t-28.5 -92q0 -40 21 -71.5t49 -35.5v-18l-40 -54q-50 12 -75.5 57zM378.5 530q-25.5 46 -25.5 92q0 75 44 130.5t103 80.5l17 -23v-12q-36 -12 -64 -54.5t-28 -92.5q0 -41 20.5 -72
t48.5 -35v-18l-40 -54q-50 12 -75.5 58z" />
    <glyph glyph-name="quotedblright" unicode="&#x201d;" horiz-adv-x="635" 
d="M105 517q36 12 64 54.5t28 92.5q0 40 -21 71.5t-48 35.5v18l40 53q50 -12 75.5 -57.5t25.5 -92.5q0 -74 -44 -130t-103 -81l-17 24v12zM371 517q36 12 64 54.5t28 92.5q0 41 -20.5 72t-48.5 35v18l40 53q51 -12 76 -57.5t25 -92.5q0 -74 -44 -130t-103 -81l-17 24v12z
" />
    <glyph glyph-name="quotedblbase" unicode="&#x201e;" horiz-adv-x="634" 
d="M175 114q50 -12 75.5 -57t26.5 -91q0 -75 -44 -131.5t-103 -81.5l-17 24v11q36 12 64 55t28 93q0 40 -21 71.5t-49 35.5v18zM444 114q50 -12 75 -56.5t26 -91.5q0 -75 -44 -131.5t-103 -81.5l-17 24v11q36 12 64 55t28 93q0 41 -21 72t-49 35v18z" />
    <glyph glyph-name="dagger" unicode="&#x2020;" horiz-adv-x="440" 
d="M186 561l-143 -1v58h150l-8 98l-2 89h73l-2 -89l-8 -98h151v-58l-143 1v-64l-14 -358h-39l-16 358z" />
    <glyph glyph-name="daggerdbl" unicode="&#x2021;" horiz-adv-x="440" 
d="M254 716l-8 -98h150v-58l-143 1l1 -65l-8 -188l150 -1v-57l-143 1l1 -72l-16 -358h-36l-17 358l1 72l-144 -1l1 57l150 1l-8 188l1 65l-144 -1l1 58h150l-8 98l-2 89h73z" />
    <glyph glyph-name="bullet" unicode="&#x2022;" horiz-adv-x="407" 
d="M145 291q-23 24 -23 58q0 39 25 66t60 27q34 0 57.5 -26t22.5 -62q-3 -36 -28.5 -61.5t-58.5 -25.5q-32 0 -55 24z" />
    <glyph glyph-name="ellipsis" unicode="&#x2026;" horiz-adv-x="1019" 
d="M206 84q13 -14 13 -35q0 -26 -18.5 -43t-42.5 -17q-21 0 -36 14t-15 37q0 25 18.5 41.5t41.5 16.5q26 0 39 -14zM545 84q13 -14 13 -35q0 -26 -18.5 -43t-42.5 -17q-20 0 -35 14t-15 37q0 24 18.5 41t41.5 17q25 0 38 -14zM884 84q13 -14 13 -35q0 -26 -18 -43t-42 -17
q-21 0 -36 14t-15 37q0 24 19 41t41 17q25 0 38 -14z" />
    <glyph glyph-name="perthousand" unicode="&#x2030;" horiz-adv-x="1219" 
d="M322 10h-64l263 763h64zM311 646.5q34 -50.5 34 -127.5q0 -57 -22.5 -98t-59.5 -62t-80 -21q-42 0 -73.5 24t-48.5 64.5t-17 87.5q0 58 22.5 99.5t60.5 62.5t82 21q68 0 102 -50.5zM131.5 618.5q-23.5 -36.5 -23.5 -100.5q0 -62 22 -100t62 -38q42 0 65.5 36t23.5 99
q0 65 -22 102.5t-63 37.5t-64.5 -36.5zM766 388.5q34 -50.5 34 -127.5q0 -56 -22 -97t-59 -62.5t-79 -21.5q-43 0 -75 24t-49 64t-17 88q0 58 22.5 99.5t60.5 62.5t82 21q68 0 102 -50.5zM1142 388.5q34 -50.5 34 -127.5q0 -56 -22 -97t-59 -62.5t-79 -21.5q-43 0 -75 24
t-49 64t-17 88q0 58 23 99t60.5 62.5t81.5 21.5q68 0 102 -50.5zM586.5 360.5q-23.5 -36.5 -23.5 -100.5q0 -61 22 -99t63 -38q42 0 65.5 35.5t23.5 98.5q0 65 -22 102.5t-63 37.5q-42 0 -65.5 -36.5zM963 360.5q-24 -36.5 -24 -100.5q0 -61 22 -99t62 -38q43 0 66.5 35.5
t23.5 98.5q0 65 -22 102.5t-63 37.5t-65 -36.5z" />
    <glyph glyph-name="guilsinglleft" unicode="&#x2039;" horiz-adv-x="576" 
d="M432 521l20 -35l-262 -186l262 -180l-20 -36l-311 184v62z" />
    <glyph glyph-name="guilsinglright" unicode="&#x203a;" horiz-adv-x="576" 
d="M386 304l-262 180l21 37l310 -183v-64l-310 -190l-21 34z" />
    <glyph glyph-name="fraction" unicode="&#x2044;" horiz-adv-x="422" 
d="M411 904l-365 -1071l-53 10l366 1075z" />
    <glyph glyph-name="Euro" unicode="&#x20ac;" horiz-adv-x="662" 
d="M511 754q46 -10 95 -25l-7 -130h-33l-22 80q-55 38 -165 38q-86 0 -143.5 -56t-78.5 -163h296v-53h-303q-4 -28 -4 -63q0 -32 2 -50h291v-53h-287q15 -116 69.5 -183.5t158.5 -67.5q62 0 102.5 12t75.5 40q7 48 15 80h34v-129q-7 -1 -44 -12q-46 -15 -91.5 -24t-110.5 -9
q-126 0 -198.5 78.5t-88.5 214.5h-100v53h96v23q0 47 6 90h-87v53h97q32 126 116 196t204 70q59 0 105 -10z" />
    <glyph glyph-name="uni20B9" unicode="&#x20b9;" horiz-adv-x="631" 
d="M550 582h-199q41 -39 51 -87h171v-12l-23 -45h-146q-15 -116 -176 -168l243 -263l-57 -40l-209 242q-22 24 -32 47t-12 39l5 4q25 6 62.5 24t69.5 47.5t37 67.5h-197v13l23 44h166q-19 44 -68 88h-120v13l23 44h412v-12z" />
    <glyph glyph-name="trademark" unicode="&#x2122;" horiz-adv-x="1067" 
d="M215 419v300l-86 -5l-20 -67h-27l9 111h326l-1 -111l-26 -2l-11 70l-91 5v-301l66 -7v-33h-201v33zM519 419l16 300l-53 4v35h158l86 -230l21 -71l98 301h138v-35l-50 -4l30 -299l48 -8v-33h-160v33l47 7l-17 192l-6 108l-12 -40l-103 -304h-49l-104 271l-29 76l-3 -81
l-11 -222l49 -7v-33h-147v33z" />
    <glyph glyph-name="partialdiff" unicode="&#x2202;" horiz-adv-x="593" 
d="M491 727q65 -100 65 -263q0 -116 -28 -223t-96.5 -179t-181.5 -72q-63 0 -113.5 27t-79 75t-28.5 109q0 84 45 150.5t119.5 103.5t160.5 37q71 0 130 -24q-4 142 -57 226.5t-184 84.5q-91 0 -157 -44l-24 33q39 27 96.5 43t114.5 16q153 0 218 -100zM217 418.5
q-51 -25.5 -82.5 -76t-31.5 -120.5q0 -51 22.5 -93t62.5 -66.5t89 -24.5q97 0 143.5 80.5t58.5 198.5q3 31 5 78q-68 49 -158 49q-58 0 -109 -25.5z" />
    <glyph glyph-name="uni2206" unicode="&#x2206;" horiz-adv-x="864" 
d="M427 732l403 -802l-51 67l-781 3l73 12l377 803zM401 618l-266 -576h552z" />
    <glyph glyph-name="product" unicode="&#x220f;" horiz-adv-x="660" 
d="M90 712l-80 8v38h627v-38l-79 -8v-751l83 -13v-34h-240v34l83 13v755h-320v-755l84 -13v-34h-241v34l83 13v751z" />
    <glyph glyph-name="summation" unicode="&#x2211;" horiz-adv-x="781" 
d="M102 728l3 30h525l16 -154h-41l-25 105l-393 7l271 -370l-271 -393l397 13l45 108l37 -10l-21 -152l-536 1l-7 8l277 414z" />
    <glyph glyph-name="minus" unicode="&#x2212;" horiz-adv-x="599" 
d="M513 417v-58h-428v58h428z" />
    <glyph glyph-name="radical" unicode="&#x221a;" horiz-adv-x="864" 
d="M179 346h65l170 -435h4l314 1027h68l-350 -1111h-71l-191 456l-62 -48l-33 48z" />
    <glyph glyph-name="infinity" unicode="&#x221e;" horiz-adv-x="832" 
d="M732 425.5q41 -48.5 41 -118.5q0 -52 -24 -92.5t-64.5 -63.5t-88.5 -23q-55 0 -98.5 34t-94.5 96q-33 -44 -56.5 -70t-53.5 -43t-67 -17q-55 0 -94.5 23.5t-59 61.5t-19.5 82q0 52 24.5 92.5t65 63.5t88.5 23q55 0 99.5 -35t93.5 -96q50 64 92 97.5t94 33.5
q81 0 122 -48.5zM148.5 395.5q-24.5 -33.5 -25.5 -86.5q0 -57 31 -97t81 -40q40 0 73.5 31t73.5 86l-18 25q-42 56 -73.5 85.5t-69.5 29.5q-48 0 -72.5 -33.5zM523 393.5q-39 -31.5 -78 -81.5q33 -45 56 -72.5t53.5 -49.5t60.5 -22q48 0 68.5 34.5t20.5 90.5t-26.5 94
t-75.5 38q-40 0 -79 -31.5z" />
    <glyph glyph-name="integral" unicode="&#x222b;" horiz-adv-x="509" 
d="M439.5 817q36.5 -14 52.5 -51l-55 -37q-5 20 -30 36t-54 16q-46 0 -70.5 -18.5t-33.5 -54t-9 -94.5q0 -65 9.5 -132t28.5 -169t28.5 -167.5t9.5 -128.5q0 -65 -23.5 -120.5t-68 -88.5t-103.5 -33q-35 0 -71.5 14t-52.5 52l55 36q5 -20 30 -36t54 -16q46 0 70.5 18.5
t33.5 54.5t9 96q0 63 -9.5 128.5t-28.5 165.5q-19 102 -28.5 169t-9.5 132q0 64 23.5 119.5t68 89t103.5 33.5q35 0 71.5 -14z" />
    <glyph glyph-name="approxequal" unicode="&#x2248;" horiz-adv-x="618" 
d="M140 538.5q43 24.5 94 24.5q27 0 47 -12t47 -36q22 -20 37 -29.5t33 -9.5q32 0 57.5 15.5t48.5 38.5l30 -37q-26 -37 -69 -62t-94 -25q-27 0 -47.5 12.5t-45.5 35.5q-24 21 -38 30t-32 9q-32 0 -57.5 -15.5t-48.5 -38.5l-30 37q25 38 68 62.5zM148 358.5q43 24.5 94 24.5
q27 0 47.5 -12t46.5 -35q22 -20 37 -29.5t33 -9.5q32 0 57.5 15t48.5 38l29 -36q-25 -38 -68 -63t-94 -25q-27 0 -47.5 12.5t-46.5 36.5q-22 20 -37 29.5t-32 9.5q-32 0 -57 -15.5t-49 -39.5l-30 37q25 38 68 62.5z" />
    <glyph glyph-name="notequal" unicode="&#x2260;" horiz-adv-x="599" 
d="M85 264v58h161l35 127h-196v59h212l25 87h73l-25 -87h143v-59h-160l-34 -127h194v-58h-211l-23 -81h-73l23 81h-144z" />
    <glyph glyph-name="lessequal" unicode="&#x2264;" horiz-adv-x="643" 
d="M558 705v-68l-382 -160l382 -161v-68l-473 213v34zM559 148v-59h-474v59h474z" />
    <glyph glyph-name="greaterequal" unicode="&#x2265;" horiz-adv-x="643" 
d="M466 477l-381 160v68l473 -210v-34l-473 -213v68zM559 148v-59h-474v59h474z" />
    <glyph glyph-name="lozenge" unicode="&#x25ca;" horiz-adv-x="696" 
d="M95 361l210 330h77l207 -340v-20l-210 -331h-76l-208 340v21zM339 643l-175 -287l180 -307l176 285z" />
    <glyph glyph-name="uni25CC" unicode="&#x25cc;" horiz-adv-x="769" 
d="M357 603.5q12 12.5 29 12.5q16 0 28.5 -12.5t12.5 -28.5q0 -17 -12.5 -29t-28.5 -12q-17 0 -29 12t-12 29q0 16 12 28.5zM230 572q12 12 28 12q17 0 29 -12t12 -29q0 -16 -12 -28.5t-29 -12.5q-16 0 -28 12t-12 29t12 29zM481.5 572q12.5 12 28.5 12q17 0 29 -12t12 -29
t-12 -29t-29 -12q-16 0 -28.5 12.5t-12.5 28.5q0 17 12.5 29zM136 479q12 12 29 12t29 -12t12 -29t-12 -29t-29 -12t-29 12t-12 29t12 29zM576.5 479q12.5 12 28.5 12q17 0 29 -12t12 -29t-12 -29t-29 -12t-29 12t-12 29t12.5 29zM105 352q12 12 29 12t29 -12t12 -29
q0 -16 -12 -28.5t-29 -12.5t-29 12t-12 29t12 29zM608 352q12 12 28 12q17 0 29 -12t12 -29t-12 -29t-29 -12q-16 0 -28 12.5t-12 28.5q0 17 12 29zM136 225.5q12 11.5 29 11.5t29 -12t12 -28t-12 -28.5t-29 -12.5t-29 12t-12 29t12 28.5zM576 225q12 12 29 12t29 -11.5
t12 -28.5t-12 -29t-29 -12q-16 0 -28.5 12.5t-12.5 28.5t12 28zM230 130.5q12 11.5 28 11.5q17 0 29 -12t12 -28t-12 -28.5t-29 -12.5q-16 0 -28 12t-12 29t12 28.5zM481 130q12 12 29 12t29 -11.5t12 -28.5t-12 -29t-29 -12q-16 0 -28.5 12.5t-12.5 28.5t12 28zM357 100
q12 12 29 12q16 0 28.5 -12t12.5 -29q0 -16 -12.5 -28.5t-28.5 -12.5q-17 0 -29 12t-12 29t12 29z" />
    <glyph glyph-name="NULL" 
 />
    <glyph glyph-name="uni093F0902" horiz-adv-x="297" 
d="M0 0zM156.5 888q-44.5 -33 -44.5 -96q0 -40 17.5 -83.5t35.5 -68.5h108l24 -43v-13h-115v-612h-13l-55 31l1 581h-120l-22 44v12h145q-74 109 -74 186q0 45 25 80.5t70.5 55.5t104.5 20q101 0 215.5 -75t252.5 -198l-24 -30q-90 77 -156.5 127t-133.5 82.5t-126 32.5
q-71 0 -115.5 -33zM808 814l-66 -68l-67 67l66 68z" />
    <glyph glyph-name="uni093F0930094D" horiz-adv-x="297" 
d="M778 1020q42 -20 75 -52l-23 -34q-25 20 -58.5 34.5t-66.5 14.5q-43 0 -71 -26.5t-28 -74.5q0 -40 18.5 -74t53.5 -71q17 -16 33 -30l-22 -28q-90 77 -157 127t-134 82.5t-126 32.5q-71 0 -115.5 -33t-44.5 -96q0 -40 17.5 -84t35.5 -68h108l24 -43v-13h-115v-612h-13
l-55 31l1 581h-120l-22 44v12h145q-74 110 -74 186q0 45 25 80.5t70.5 55.5t104.5 20q128 0 318 -148l2 2q-21 36 -21 72q0 40 22 70t57 46t73 16q41 0 83 -20z" />
    <glyph glyph-name="uni093F0930094D0902" horiz-adv-x="297" 
d="M784 1018q45 -23 82 -61l-25 -31q-27 22 -63 38t-72 16q-43 0 -70.5 -25.5t-27.5 -72.5q0 -41 18.5 -75t53.5 -71l31 -29l-22 -28q-90 77 -157 127t-134 82.5t-126 32.5q-71 0 -115.5 -33t-44.5 -96q0 -40 17.5 -84t35.5 -68h108l24 -43v-13h-115v-612h-13l-55 31l1 581
h-120l-22 44v12h145q-74 110 -74 186q0 45 25 80.5t70.5 55.5t104.5 20q131 0 319 -149l1 3q-21 36 -21 73q0 40 22.5 70t58 46t72.5 16q43 0 88 -23zM799 847l-65 -66l-65 65l64 67z" />
    <glyph glyph-name="uni09400902" horiz-adv-x="297" 
d="M0 0zM297 597v-13h-115v-612h-13l-55 31l1 581h-120l-22 44v12h149q-54 134 -109 224.5t-120 90.5q-42 0 -66.5 -31t-24.5 -69q0 -35 18.5 -71t41.5 -59v-2l-42 -21q-37 32 -64 79.5t-27 100.5q0 35 18 66t51 49.5t75 18.5q71 0 126.5 -58t90.5 -131t80 -187h103z
M307 789l-66 -68l-67 67l66 68z" />
    <glyph glyph-name="uni09400930094D" horiz-adv-x="297" 
d="M-28.5 978.5q44.5 -37.5 84.5 -104.5q14 43 56.5 72t91.5 29q39 0 76.5 -15.5t68.5 -43.5l-25 -38q-23 16 -52 28t-58 12q-42 0 -69 -25.5t-27 -72.5q0 -34 10.5 -66t35.5 -92q5 -9 10 -22h98l24 -43v-13h-114v-612h-14l-54 31l1 581h-120l-23 44v12h141
q-54 135 -107 225t-115 90q-41 0 -65 -31.5t-24 -68.5q0 -35 18.5 -71t41.5 -59v-2l-42 -21q-37 32 -64 79.5t-27 100.5q0 35 18 66t51 49.5t75 18.5q54 0 98.5 -37.5z" />
    <glyph glyph-name="uni09400930094D0902" horiz-adv-x="297" 
d="M56 874q14 44 56.5 72.5t90.5 28.5q41 0 82 -19t75 -53l-26 -34q-23 18 -56 32t-64 14q-42 0 -69 -25t-27 -71q0 -33 10 -63.5t36 -93.5q2 -4 4.5 -9.5t5.5 -12.5h98l24 -43v-13h-114v-612h-14l-54 31l1 581h-120l-23 44v12h141q-54 135 -107 225t-115 90
q-41 0 -65 -31.5t-24 -68.5q0 -35 18.5 -71t41.5 -59v-2l-42 -21q-37 32 -64 79.5t-27 100.5q0 35 18 66t51 49.5t75 18.5q100 0 183 -142zM306 773l-64 -66l-66 65l65 66z" />
    <glyph glyph-name="uni094B0902" horiz-adv-x="297" 
d="M0 0zM297 596v-13h-115v-612h-13l-55 31l1 581h-120l-22 44v12h149q-41 93 -53 115q-88 166 -115 180l-115 -34q-12 10 -21.5 27t-9.5 35q0 26 17 40t47 14q67 0 118 -55t106 -161q3 -6 6.5 -12.5t6.5 -12.5q52 -105 65 -135h99zM298 789l-66 -68l-67 67l66 68z" />
    <glyph glyph-name="uni094B0930094D" horiz-adv-x="297" 
d="M137.5 891q-28.5 -25 -28.5 -72q0 -35 12 -68.5t40 -87.5l11 -23h101l24 -43v-13h-115v-612h-13l-54 31v581h-119l-23 44v12h137q-12 30 -27 61.5t-26 51.5q-37 70 -74 121.5t-53 58.5l-115 -34q-13 9 -22 27t-9 36q0 25 17 39.5t47 14.5q57 0 105 -41.5t94 -117.5
q9 49 53 83t97 34q39 0 77 -16t68 -44l-23 -38q-58 40 -111 40q-42 0 -70.5 -25z" />
    <glyph glyph-name="uni094B0930094D0902" horiz-adv-x="297" 
d="M137 887.5q-28 -25.5 -28 -70.5q0 -33 11.5 -65t39.5 -88l12 -24h101l24 -43v-13h-115v-612h-13l-54 31v581h-119l-23 44v12h137q-12 30 -27 61.5t-26 51.5q-37 70 -74 121.5t-53 58.5l-115 -34q-13 9 -22 27t-9 36q0 25 17 39.5t47 14.5q57 0 105 -41.5t94 -117.5
q9 49 53 83t96 34q41 0 82.5 -19.5t74.5 -52.5l-25 -35q-24 18 -56.5 32t-64.5 14q-42 0 -70 -25.5zM299 771l-64 -65l-66 65l65 65z" />
    <glyph glyph-name="uni094C0902" horiz-adv-x="297" 
d="M0 0zM297 597v-13h-115v-612h-13l-55 31l1 581h-120l-22 44v12h113q-43 56 -78 95t-46 43l-127 -18h-2q-11 10 -19 24.5t-8 28.5q0 23 16 36.5t43 13.5q110 0 253 -223h30q-15 35 -29.5 68.5t-25.5 54.5q-38 72 -70.5 124t-48.5 64l-122 -37h-2q-13 10 -23.5 28.5
t-10.5 37.5q0 26 16.5 40t47.5 14q73 0 124.5 -57t102.5 -163q14 -29 35 -80.5t36 -93.5h95zM309 789l-66 -68l-67 67l66 68z" />
    <glyph glyph-name="uni094C0930094D" horiz-adv-x="297" 
d="M-29 988.5q46 -44.5 93 -130.5q10 49 52.5 82t95.5 33q39 0 77.5 -16t70.5 -43l-25 -39q-23 17 -52.5 29t-58.5 12q-40 0 -67.5 -25.5t-28.5 -72.5q1 -37 13.5 -70t39.5 -89l9 -19h83l24 -43v-13h-115v-612h-13l-54 31v581h-120l-22 44v12h103q-41 53 -75.5 93t-45.5 43
l-128 -18q-12 9 -20.5 23.5t-8.5 28.5q0 23 16.5 37t43.5 14q109 0 250 -221h30q-17 35 -39.5 79.5t-30.5 56.5q-86 152 -114 173l-120 -37q-14 11 -24.5 29t-10.5 38q0 25 17.5 39.5t48.5 14.5q60 0 106 -44.5z" />
    <glyph glyph-name="uni094C0930094D0902" horiz-adv-x="297" 
d="M-29 989q46 -44 94 -131q10 49 53 82t95 33q41 0 82 -19t75 -53l-26 -34q-23 18 -56 31.5t-65 13.5q-40 0 -67 -25t-28 -70q1 -39 15.5 -76t46.5 -101h83l24 -43v-13h-115v-612h-13l-54 31v581h-120l-22 44v12h103q-41 53 -75.5 93t-45.5 43l-128 -18q-12 9 -20.5 23.5
t-8.5 28.5q0 23 16.5 37t43.5 14q109 0 250 -221h30q-55 111 -70 136q-86 152 -114 173l-120 -37q-14 11 -24.5 29t-10.5 38q0 25 17.5 39.5t48.5 14.5q60 0 106 -44zM319 771l-65 -66l-66 65l65 66z" />
    <glyph glyph-name="uni093F.0" horiz-adv-x="297" 
d="M353.5 893.5q79.5 -77.5 144.5 -187.5l-31 -19q-140 224 -249 224q-47 0 -76.5 -28.5t-30.5 -78.5q0 -43 17.5 -90t35.5 -74h109l24 -43v-13h-115v-612h-13l-55 31l1 581h-120l-22 44v12h145q-74 113 -74 195q0 60 41 98t105 38q84 0 163.5 -77.5z" />
    <glyph glyph-name="uni093F0902.0" horiz-adv-x="297" 
d="M353.5 893.5q79.5 -77.5 144.5 -187.5l-31 -19q-140 224 -249 224q-47 0 -76.5 -28.5t-30.5 -78.5q0 -43 17.5 -90t35.5 -74h109l24 -43v-13h-115v-612h-13l-55 31l1 581h-120l-22 44v12h145q-74 113 -74 195q0 60 41 98t105 38q84 0 163.5 -77.5zM617 816l-66 -67
l-67 67l67 67z" />
    <glyph glyph-name="uni093F0930094D.0" horiz-adv-x="297" 
d="M574.5 1028q38.5 -16 67.5 -43l-23 -38q-22 16 -52 28t-59 12q-42 0 -70.5 -25t-28.5 -68q0 -26 7 -48.5t24 -49.5l57 -88l-32 -17q-71 103 -130 161.5t-117 58.5q-47 0 -76.5 -28.5t-30.5 -78.5q0 -43 17.5 -90t35.5 -74h109l24 -43v-13h-115v-612h-13l-55 31l1 581
h-120l-22 44v12h145q-74 113 -74 195q0 60 41 98t105 38q77 0 161 -82l3 2q-4 10 -4 30q0 37 21 65t55.5 43t71.5 15q38 0 76.5 -16z" />
    <glyph glyph-name="uni093F0930094D0902.0" horiz-adv-x="297" 
d="M579.5 1026.5q41.5 -19.5 74.5 -52.5l-24 -35q-24 18 -56.5 32t-64.5 14q-43 0 -71.5 -24.5t-28.5 -65.5q-1 -26 6 -48t23 -48q14 -23 44 -69l15 -22l-32 -17q-71 103 -130 161.5t-117 58.5q-47 0 -76.5 -28.5t-30.5 -78.5q0 -43 17.5 -90t35.5 -74h109l24 -43v-13h-115
v-612h-13l-55 31l1 581h-120l-22 44v12h145q-74 113 -74 195q0 60 41 98t105 38q75 0 161 -81l2 2q-4 10 -4 30q0 38 21.5 66t56 43t71.5 15q40 0 81.5 -19.5zM613 847l-70 -70l-70 70l69 71z" />
    <glyph glyph-name="uni093F.05" horiz-adv-x="297" 
d="M562.5 902.5q150.5 -79.5 303.5 -193.5l-23 -30q-341 242 -519 242q-95 0 -148 -41.5t-53 -107.5q0 -40 13 -74.5t28 -57.5h109l24 -43v-13h-115v-612h-13l-55 31l1 581h-120l-22 44v12h145q-29 42 -46 81.5t-17 84.5q0 46 27.5 86.5t82 65t131.5 24.5q116 0 266.5 -79.5
z" />
    <glyph glyph-name="uni093F.10" horiz-adv-x="297" 
d="M588 902q159 -80 315 -193l-24 -30q-349 242 -550 242q-99 0 -152.5 -41.5t-53.5 -107.5q0 -40 13 -74.5t28 -57.5h109l24 -43v-13h-115v-612h-13l-55 31l1 581h-120l-22 44v12h145q-29 42 -46 81.5t-17 84.5q0 46 28 86.5t83.5 65t135.5 24.5q127 0 286 -80z" />
    <glyph glyph-name="uni093F0902.05" horiz-adv-x="297" 
d="M562.5 902.5q150.5 -79.5 303.5 -193.5l-23 -30q-341 242 -519 242q-95 0 -148 -41.5t-53 -107.5q0 -40 13 -74.5t28 -57.5h109l24 -43v-13h-115v-612h-13l-55 31l1 581h-120l-22 44v12h145q-29 42 -46 81.5t-17 84.5q0 46 27.5 86.5t82 65t131.5 24.5q116 0 266.5 -79.5
zM958 814l-66 -68l-67 67l66 68z" />
    <glyph glyph-name="uni093F0902.10" horiz-adv-x="297" 
d="M588 902q159 -80 315 -193l-24 -30q-349 242 -550 242q-99 0 -152.5 -41.5t-53.5 -107.5q0 -40 13 -74.5t28 -57.5h109l24 -43v-13h-115v-612h-13l-55 31l1 581h-120l-22 44v12h145q-29 42 -46 81.5t-17 84.5q0 46 28 86.5t83.5 65t135.5 24.5q127 0 286 -80zM993 814
l-66 -68l-67 67l66 68z" />
    <glyph glyph-name="uni093F0930094D.05" horiz-adv-x="297" 
d="M933.5 1022q41.5 -20 74.5 -52l-24 -34q-26 20 -59 34t-66 14q-42 0 -70.5 -26t-28.5 -73q0 -44 22 -81.5t61 -75.5l23 -19l-23 -30q-341 242 -519 242q-95 0 -148 -41.5t-53 -107.5q0 -40 13 -74.5t28 -57.5h109l24 -43v-13h-115v-612h-13l-55 31l1 581h-120l-22 44v12
h145q-29 42 -46 81.5t-17 84.5q0 46 27.5 86.5t82 65t131.5 24.5q88 0 200.5 -49.5t231.5 -127.5l1 1q-31 52 -31 104q0 40 22 70t57 46t73 16q42 0 83.5 -20z" />
    <glyph glyph-name="uni093F0930094D.10" horiz-adv-x="297" 
d="M825.5 958q-28.5 -26 -28.5 -73t22 -83.5t65 -76.5q5 -5 10 -9t9 -7l-24 -30q-349 242 -550 242q-99 0 -152.5 -41.5t-53.5 -107.5q0 -40 13 -74.5t28 -57.5h109l24 -43v-13h-115v-612h-13l-55 31l1 581h-120l-22 44v12h145q-29 42 -46 81.5t-17 84.5q0 46 28 86.5
t83.5 65t135.5 24.5q181 0 467 -183l1 1q-16 22 -26 50t-10 60q0 40 22 70t57 46t73 16q42 0 83.5 -19.5t74.5 -52.5l-24 -34q-26 20 -59 34t-66 14q-41 0 -69.5 -26z" />
    <glyph glyph-name="uni093F0930094D0902.05" horiz-adv-x="297" 
d="M939.5 1020q44.5 -23 80.5 -61l-25 -31q-27 22 -63.5 38t-71.5 16q-41 0 -69 -25.5t-28 -71.5q0 -44 21 -81t59 -75q12 -9 23 -20l-23 -30q-341 242 -519 242q-95 0 -148 -41.5t-53 -107.5q0 -40 13 -74.5t28 -57.5h109l24 -43v-13h-115v-612h-13l-55 31l1 581h-120
l-22 44v12h145q-29 42 -46 81.5t-17 84.5q0 46 27.5 86.5t82 65t131.5 24.5q159 0 433 -177l1 1q-32 48 -32 105q0 40 22.5 70t57.5 46t72 16q45 0 89.5 -23zM954 850l-65 -67l-65 66l64 66z" />
    <glyph glyph-name="uni093F0930094D0902.10" horiz-adv-x="297" 
d="M827 956.5q-28 -25.5 -28 -71.5q0 -47 22 -84t64 -77l18 -15l-24 -30q-349 242 -550 242q-99 0 -152.5 -41.5t-53.5 -107.5q0 -40 13 -74.5t28 -57.5h109l24 -43v-13h-115v-612h-13l-55 31l1 581h-120l-22 44v12h145q-29 42 -46 81.5t-17 84.5q0 46 28 86.5t83.5 65
t135.5 24.5q181 0 467 -183l1 1q-36 51 -36 111q0 40 22.5 70t58 46t72.5 16q44 0 88.5 -23t81.5 -61l-26 -31q-27 22 -63 38t-72 16q-41 0 -69 -25.5zM990 850l-65 -67l-65 66l64 66z" />
    <glyph glyph-name="uni0940.02" horiz-adv-x="297" 
d="M-93 903.5q143 -117.5 261 -263.5h105l24 -43v-13h-115v-612h-13l-54 31v581h-120l-22 44v12h139q-58 72 -136.5 144t-160.5 121t-146 49q-56 0 -90 -29.5t-34 -72.5q0 -35 18.5 -71t40.5 -57v-2l-42 -21q-37 31 -63.5 78t-26.5 100q0 59 42.5 100.5t127.5 41.5
q122 0 265 -117.5z" />
    <glyph glyph-name="uni09400902.02" horiz-adv-x="297" 
d="M0 0zM-93 903.5q143 -117.5 261 -263.5h105l24 -43v-13h-115v-612h-13l-54 31v581h-120l-22 44v12h139q-58 72 -136.5 144t-160.5 121t-146 49q-56 0 -90 -29.5t-34 -72.5q0 -35 18.5 -71t40.5 -57v-2l-42 -21q-37 31 -63.5 78t-26.5 100q0 59 42.5 100.5t127.5 41.5
q122 0 265 -117.5zM268 789l-66 -68l-67 67l66 68z" />
    <glyph glyph-name="uni09400930094D.02" horiz-adv-x="297" 
d="M-155 948q109 -73 214 -183q-10 26 -15 61q-1 44 21 78t59 53t78 19q39 0 76.5 -16t68.5 -44l-25 -38q-23 16 -52 28t-58 12q-44 0 -71 -24.5t-27 -75.5q0 -45 16 -88t44 -90h99l24 -43v-13h-115v-612h-13l-54 31v581h-120l-22 44v12h139q-58 72 -136.5 144t-160.5 121
t-146 49q-56 0 -90 -29.5t-34 -72.5q0 -35 18.5 -71t40.5 -57v-2l-42 -21q-37 31 -63.5 78t-26.5 100q0 59 42.5 100.5t127.5 41.5q94 0 203 -73z" />
    <glyph glyph-name="uni09400930094D0902.02" horiz-adv-x="297" 
d="M-155 948.5q109 -72.5 215 -183.5q-11 30 -14 62q-1 44 20.5 78t58 52.5t77.5 18.5t82 -19.5t74 -52.5l-26 -35q-24 18 -56 32t-64 14q-43 0 -70 -24t-27 -74q0 -44 15.5 -86.5t43.5 -90.5h99l24 -43v-13h-115v-612h-13l-54 31v581h-120l-22 44v12h139q-58 72 -136.5 144
t-160.5 121t-146 49q-56 0 -90 -29.5t-34 -72.5q0 -35 18.5 -71t40.5 -57v-2l-42 -21q-37 31 -63.5 78t-26.5 100q0 59 42.5 100.5t127.5 41.5q94 0 203 -72.5zM310 773l-64 -66l-66 65l65 66z" />
    <glyph glyph-name="uni0932.loclMAR" horiz-adv-x="707" 
d="M707 597v-13h-192v-156q47 -11 85 -49t38 -90q0 -70 -38.5 -130t-99.5 -121l-60 45q47 40 93 103t46 124q0 25 -11.5 42t-27 25.5t-28.5 8.5q-63 0 -103.5 -66.5t-58.5 -147.5l-62 40q13 58 41 107q-22 29 -53 47.5t-62 18.5q-45 0 -73.5 -32.5t-28.5 -84.5
q0 -141 155 -282l-28 -30q-82 77 -134.5 160t-52.5 188q0 40 18 72.5t48.5 51.5t67.5 19q47 0 91 -26.5t74 -65.5q43 55 98 69l1 160h-455l-22 44v12h711z" />
    <glyph glyph-name="uni0936.loclMAR" horiz-adv-x="725" 
d="M737 597v-13h-115v-612h-14l-53 31v581h-282v-85q39 -7 74.5 -35.5t57 -68.5t21.5 -78q0 -35 -24.5 -71.5t-64.5 -64.5t-82 -39l113 -170l-52 -36l-104 200q-43 0 -84 21t-41 50q0 30 21.5 49t44.5 19q10 0 14 -2l53 -79q67 17 107 60t40 97q0 36 -25.5 64.5t-64.5 28.5
q-69 0 -184 -49l-33 64q75 29 146 40l1 85h-213l-23 44v12h742z" />
    <glyph glyph-name="uni091D.loclNEP" horiz-adv-x="957" 
d="M252.5 618.5q45.5 -33.5 45.5 -116.5v-210h228v292h-159l-23 44v12h589l23 -43v-13h-364v-224q33 32 73 55.5t79 23.5q76 0 116.5 -51.5t40.5 -138.5q0 -42 -24 -103t-49 -95l-50 59q27 28 53 72.5t26 88.5q0 46 -28 77t-68 31q-41 0 -82.5 -27t-86.5 -73v-307h-12
l-54 31v233h-228q-2 -36 -15 -60t-44 -24q-41 0 -68 37q-25 38 -25 86q0 11 1 17h84v84q-86 30 -134.5 70.5t-48.5 104.5q0 47 29 74t73 27q57 0 102.5 -33.5zM125 584q-18 -18 -18 -51q0 -41 35.5 -66.5t94.5 -43.5q4 56 4 94t-20 61.5t-49 23.5t-47 -18z" />
    <glyph glyph-name="uni0979.loclNEP" horiz-adv-x="698" 
d="M698 597v-13h-443q50 -76 71 -141q47 14 85 14q66 0 116 -31t76.5 -82.5t26.5 -110.5q1 -71 -36 -119.5t-91 -60.5l97 -146l-52 -26l-88 168q-45 2 -76 14q-46 20 -46 51q0 29 21.5 48.5t44.5 19.5q10 0 14 -2l52 -78q52 13 84 53.5t32 96.5q0 43 -21 75.5t-55 50
t-71 17.5q-28 0 -51 -6t-46 -20l1 -17q0 -44 -19.5 -83t-55 -63t-83.5 -24q-75 0 -132 46l-16 46l14 16q44 -47 113 -47q46 0 80.5 28.5t34.5 92.5q0 51 -27.5 114t-68.5 106h-187l-23 44v12h701z" />
    <glyph glyph-name="uni0928.post" 
d="M-142 302l-273 -157l58 -84q-16 -15 -38 -22.5t-44 -7.5q-34 0 -60.5 21.5t-26.5 57.5q0 40 73 83q65 38 205 104q32 16 58.5 29t48.5 24z" />
    <glyph glyph-name="uni092F.post" horiz-adv-x="803" 
d="M803 597v-13h-114v-612h-14l-54 31l2 122l-5 3q-83 -60 -158 -60q-77 0 -131 51t-86 139q53 14 93 38t40 52q0 27 -18.5 41.5t-63.5 14.5h-202v59h170q45 0 85 -18.5t64.5 -50.5t24.5 -70q0 -28 -19 -48.5t-43 -33t-62 -28.5q14 -37 43.5 -60.5t74.5 -23.5q52 0 106 26.5
t86 62.5v365h-627l-22 44v12h807z" />
    <glyph glyph-name="uni0930.post" horiz-adv-x="288" 
d="M-144 273l-305 -262l-48 53l353 275v-66z" />
    <glyph glyph-name="uni0935.post" 
d="M-115 -425h-13l-54 30l1 107l-2 1q-39 -30 -75.5 -47.5t-75.5 -17.5q-37 0 -73 17.5t-59.5 50t-23.5 75.5q0 39 20.5 73.5t53.5 55.5t66 21q51 0 93 -27t74 -64l2 -25l-3 204l69 7v-461zM-406.5 -156q-37.5 -32 -37.5 -76q0 -30 21.5 -46.5t59.5 -16.5q52 0 98 24.5
t83 62.5v2q-25 36 -60 59.5t-77 23.5q-50 -1 -87.5 -33z" />
    <glyph glyph-name="uni0915094D0915" horiz-adv-x="1425" 
d="M1060 584v-238q36 34 75.5 57t76.5 23q76 0 116.5 -51.5t40.5 -138.5q0 -43 -24 -103.5t-49 -94.5l-49 59q27 28 52.5 72.5t25.5 88.5q0 46 -28 77t-67 31t-80.5 -25.5t-89.5 -73.5v-295h-13l-55 31l4 203l-1 1q-34 -29 -57 -45t-53.5 -27.5t-67.5 -11.5q-46 0 -84.5 20
t-61.5 58t-23 92q0 14 3 27q-22 14 -45 14q-32 0 -65.5 -17.5t-73.5 -50.5v-293h-13l-55 31l4 201l-2 1v1q-35 -29 -57 -45t-52.5 -27.5t-67.5 -11.5q-46 0 -84.5 20t-61.5 58t-23 92q0 42 19.5 78.5t55 59t80.5 22.5q63 0 109 -32t83 -82l1 245h-408l-22 44v12h1429l23 -43
v-13h-365zM585 394q47 0 82 -22q20 37 55 59t80 22q63 0 109 -32t83 -82l1 245h-528v-242q66 50 118 50v2zM401 284v4q-29 41 -74 70t-90 29q-53 -1 -94 -32t-41 -83q0 -40 28.5 -64t66.5 -24q102 0 204 100zM994 284v4q-29 41 -74 70t-90 29q-53 -1 -94 -32t-41 -83
q0 -40 28.5 -64t66.5 -24q102 0 204 100z" />
    <glyph glyph-name="uni0915094D0924" horiz-adv-x="930" 
d="M568 346q33 32 73 56t78 24q76 0 117 -51.5t41 -138.5q0 -43 -24.5 -103t-49.5 -95l-49 59q27 30 52.5 73.5t25.5 87.5q0 46 -28 77t-67 31q-41 0 -82 -26.5t-87 -73.5v-294h-13l-54 31v355h-181q-56 0 -90 -32t-34 -78q0 -57 39.5 -117t113.5 -118l-23 -24
q-86 68 -137.5 136t-52.5 147q0 49 31 86h-123l-22 44v12h479l1 170h-506l-22 44v12h934l24 -43v-13h-364v-238z" />
    <glyph glyph-name="uni0915094D0930" horiz-adv-x="832" 
d="M467 585v-238q36 34 75.5 57t76.5 23q76 0 116.5 -51.5t40.5 -138.5q0 -43 -24 -103.5t-49 -94.5l-49 59q27 28 52.5 72.5t25.5 88.5q0 46 -28 77t-67 31t-80.5 -25.5t-89.5 -73.5v-295h-13l-55 31l4 204l-2 1l-301 -248l-48 52l169 116q-71 1 -118.5 44.5t-47.5 119.5
q0 42 19.5 78.5t55 59t80.5 22.5q63 0 109 -32t83 -82l1 245h-408l-22 44v12h836l23 -43v-13zM130.5 207q28.5 -24 66.5 -24q102 0 204 100v4q-29 41 -74 70t-90 29q-53 -1 -94 -32t-41 -83q0 -40 28.5 -64z" />
    <glyph glyph-name="uni0915094D0932" horiz-adv-x="1310" 
d="M1310 584h-115v-612h-13l-54 31v344q-28 32 -54 32q-47 0 -80 -62.5t-51 -141.5l-61 35q13 61 39 111q-23 28 -54 46.5t-61 18.5q-45 0 -73.5 -32t-28.5 -85q0 -141 155 -282l-28 -30q-82 77 -134.5 160t-52.5 188q0 12 1 18q-19 11 -39 11q-32 0 -65.5 -17.5
t-73.5 -50.5v-293h-13l-55 31l4 201l-2 1v1q-35 -29 -57 -45t-52.5 -27.5t-67.5 -11.5q-46 0 -84.5 20t-61.5 58t-23 92q0 42 19.5 78.5t55 59t80.5 22.5q63 0 109 -32t83 -82l1 245h-408l-22 44v12h1313l24 -43v-13zM1127 585h-660v-242q66 50 118 50q44 0 76 -17
q17 33 48.5 52.5t69.5 19.5q47 0 89.5 -25.5t74.5 -64.5q50 70 111 70q39 0 74 -37zM401 283v4q-29 41 -74 70t-90 29q-53 -1 -94 -32t-41 -83q0 -40 28.5 -64t66.5 -24q102 0 204 100z" />
    <glyph glyph-name="uni0915094D0935" horiz-adv-x="1237" 
d="M1236 598v-13h-116v-612h-12l-54 31l2 193l-2 1q-110 -93 -197 -93q-50 0 -95.5 20.5t-73.5 60t-28 93.5q0 12 2 32q-25 23 -56 23q-32 0 -65.5 -17.5t-73.5 -50.5v-293h-13l-55 31l4 201l-2 1v1q-35 -29 -57 -45t-52.5 -27.5t-67.5 -11.5q-46 0 -84.5 20t-61.5 58
t-23 92q0 42 19.5 78.5t55 59t80.5 22.5q63 0 109 -32t83 -82l1 245h-408l-22 44v12h1240zM675 364q23 51 68.5 79.5t93.5 28.5q64 0 120.5 -36.5t94.5 -86.5h2v235h-588v-242q66 50 118 50q56 0 93 -28h-2zM946.5 200q64.5 38 106.5 89q-31 45 -83 81t-97 36
q-48 0 -86.5 -21.5t-60 -55.5t-21.5 -71q0 -41 34.5 -68.5t85.5 -27.5q57 0 121.5 38zM399 283v4q-29 41 -74 70t-90 29q-53 -1 -94 -32t-41 -83q0 -40 28.5 -64t66.5 -24q102 0 204 100z" />
    <glyph glyph-name="uni0915094D0937" horiz-adv-x="790" 
d="M675 584v-612h-13l-53 31v289h-2q-28 -13 -59.5 -19t-56.5 -6q-111 0 -209 57q-12 -7 -36 -19q-62 -32 -92 -57.5t-31 -64.5q0 -28 13.5 -54t38 -42.5t54.5 -16.5q41 0 90 18l-34 80q31 25 66 25q37 0 56 -20.5t19 -51.5q0 -51 -48 -80l78 -143l-44 -22l-65 150
q-37 -12 -78 -12q-39 0 -90 27.5t-87.5 74.5t-36.5 102q1 38 34 64.5t100 61.5q9 4 27 14q-58 34 -93.5 76.5t-35.5 82.5q0 44 22 76t57 48.5t74 16.5q32 0 72 -27t68 -66t28 -72q0 -48 -23.5 -83t-65.5 -63q71 -21 140 -21q78 0 150 43v215h-151l-23 44v12h332l24 -43v-13
h-116zM182.5 436q29.5 -35 70.5 -57q47 28 73.5 59.5t26.5 73.5q0 19 -14.5 38t-35.5 32t-38 13q-44 0 -78 -25t-34 -71q0 -28 29.5 -63z" />
    <glyph glyph-name="uni0915094D0937094D" horiz-adv-x="505" 
d="M312 631q40 -27 68 -66t28 -72q0 -51 -25.5 -86.5t-70.5 -64.5q79 -29 147 -29q62 0 135 33l19 -62q-29 -15 -62.5 -22.5t-59.5 -7.5q-61 0 -110 18t-104 49l-29 -15q-63 -32 -93.5 -57.5t-31.5 -65.5q0 -28 13.5 -54t38 -42.5t54.5 -16.5q41 0 90 18l-34 80q31 25 66 25
q37 0 56 -20.5t19 -51.5q0 -51 -48 -80l78 -143l-44 -22l-65 150q-37 -12 -78 -12q-39 0 -90 27.5t-87.5 74.5t-36.5 102q1 38 35 65.5t102 62.5l24 12q-58 34 -93.5 76.5t-35.5 82.5q0 44 22 76t57 48.5t74 16.5q32 0 72 -27zM577 597v-13h-120l-23 44v12h119zM187 570
q-34 -25 -34 -71q0 -28 30 -63t70 -57q47 29 73.5 60.5t26.5 72.5q0 19 -14.5 38t-35.5 32t-38 13q-44 0 -78 -25z" />
    <glyph glyph-name="uni0915094D0937094D0930" horiz-adv-x="912" 
d="M312 631q40 -27 68 -66t28 -72q0 -49 -23.5 -83.5t-65.5 -62.5q40 -13 91.5 -21t100.5 -8q50 0 109 16.5t110 45.5v204h-203l-23 44v12h385l23 -43v-13h-115v-612h-14l-54 31l2 152l-3 1l-185 -141l-45 49l232 164v70h-2q-43 -19 -94 -29.5t-91 -10.5q-72 0 -142 19.5
t-120 46.5l-38 -21q-61 -32 -90 -57t-30 -63q0 -28 13.5 -54t38 -42.5t54.5 -16.5q41 0 90 18l-34 80q31 25 66 25q37 0 56 -20.5t19 -51.5q0 -51 -48 -80l78 -143l-44 -22l-65 150q-37 -12 -78 -12q-39 0 -90 27.5t-87.5 74.5t-36.5 102q1 38 35 65.5t102 62.5l24 12
q-58 34 -93.5 76.5t-35.5 82.5q0 44 22 76t57 48.5t74 16.5q32 0 72 -27zM187 570q-34 -25 -34 -71q0 -28 30 -63t70 -57q47 29 73.5 60.5t26.5 72.5q0 19 -14.5 38t-35.5 32t-38 13q-44 0 -78 -25z" />
    <glyph glyph-name="uni0915094D0072" horiz-adv-x="593" 
d="M616 597v-13h-148l1 -241q68 51 118 51q75 0 118 -57l-30 -37q-12 16 -30 24.5t-37 8.5q-34 0 -68 -17.5t-72 -50.5v-293h-13l-55 31l4 205l-2 1l-301 -248l-48 51l167 116q-71 2 -118 45.5t-47 118.5q0 42 19.5 78.5t55 59t80.5 22.5q66 0 110.5 -32t81.5 -79h1v243
h-408l-22 44v12h620zM143.5 354q-40.5 -31 -40.5 -84q0 -40 28.5 -63.5t66.5 -23.5q60 0 109.5 28.5t95.5 71.5v1q-29 41 -74 71.5t-91 30.5q-54 -1 -94.5 -32z" />
    <glyph glyph-name="uni0916094D0930" horiz-adv-x="832" 
d="M832 597v-13h-122v-612h-14l-54 31l3 68l-4 3l-360 -175l-47 52l148 66q-113 24 -246 172q-39 44 -55 70.5t-16 52.5q0 20 14.5 37.5t30.5 25.5l51 -43q14 20 21.5 50t7.5 61q0 29 -3.5 69t-8.5 72h-182l-23 44v12h836zM234 584q8 -43 12.5 -93.5t4.5 -83.5
q0 -64 -23 -104t-66 -78q49 -58 119 -108.5t147 -50.5q53 0 113 23.5t103 58.5v106l-3 1q-45 -38 -81 -59t-76 -21q-46 0 -83.5 20.5t-58.5 55.5t-21 76q0 46 20.5 81.5t56 55t78.5 19.5q83 0 164 -81h3v182h-409zM433 405q-30 -16 -47.5 -43t-17.5 -59q0 -29 25 -50t67 -21
q43 0 94.5 31t89.5 76v2q-26 38 -65.5 59t-79.5 21q-36 0 -66 -16z" />
    <glyph glyph-name="uni0916094D0072" horiz-adv-x="571" 
d="M594 597v-13h-360q8 -41 13 -91.5t5 -84.5q0 -64 -23.5 -104.5t-66.5 -78.5q51 -59 120 -109t146 -50q48 0 103 20t102 54l29 -56l-381 -185l-47 52l149 66q-113 25 -247 172q-40 45 -55.5 71.5t-15.5 52.5q0 20 14.5 37.5t31.5 25.5l50 -43q13 19 21 49t8 62
q0 29 -3.5 69.5t-9.5 70.5h-181l-23 44v12h598zM573 470q42 -21 67 -58t25 -85q0 -33 -26 -66t-68 -54.5t-86 -21.5q-46 0 -83.5 20.5t-58.5 55.5t-21 76q0 67 44.5 110.5t114.5 43.5q50 0 92 -21zM406 397.5q-38 -34.5 -38 -84.5q0 -29 25 -50t69 -21q40 0 75.5 15.5
t57.5 41t22 53.5q0 32 -32 55.5t-78 24.5q-63 0 -101 -34.5z" />
    <glyph glyph-name="uni0917094D0928" horiz-adv-x="599" 
d="M597 598v-13h-115v-612h-13l-55 31v204l-1 1l-190 -149l59 -72q-16 -17 -39.5 -27.5t-47.5 -10.5q-37 0 -61 25.5t-25 54.5q0 24 17 42.5t47 40.5q122 85 242 162l1 310h-206q12 -147 12 -229q0 -37 -15.5 -68t-57.5 -31q-34 0 -57.5 18.5t-34.5 44.5t-11 47q0 18 5 33
l97 -14v198h-153l-22 44v12h602z" />
    <glyph glyph-name="uni0917094D0930" horiz-adv-x="599" 
d="M598 597v-13h-115v-612h-13l-55 31l2 191l-3 1l-245 -206l-48 55l295 228v312h-206q8 -134 8 -249q0 -37 -14.5 -67t-54.5 -30q-34 0 -57.5 18t-34.5 43.5t-11 47.5q0 18 5 33l97 -14l5 218h-158l-22 44v12h602z" />
    <glyph glyph-name="uni0917094D0072" horiz-adv-x="281" 
d="M217 287q0 -37 -14.5 -67.5t-54.5 -30.5q-34 0 -57.5 18.5t-34.5 44t-11 46.5q0 19 5 34l97 -14l6 267h-159l-22 44v12h309l24 -43v-13h-97q10 -163 10 -299zM404 188l-236 -198l-47 55l251 195z" />
    <glyph glyph-name="uni0918094D0930" horiz-adv-x="647" 
d="M664 597v-13h-114v-612h-14l-54 31l2 204l-2 1l-279 -254l-48 52l132 103q-66 -2 -112 32q-31 22 -52 52.5t-21 65.5q0 41 21.5 78.5t58.5 60.5q-38 18 -60 32.5t-36 37.5t-14 57q0 26 12 59h-89l-22 44v12h668zM167 584q-33 -30 -33 -75q0 -25 20 -44.5t47.5 -31
t47.5 -10.5h5q63 0 91 -11l17 -32l-7 -19q-26 7 -65 7q-41 0 -69.5 -21t-42.5 -52t-14 -62q0 -35 27 -51t62 -16q56 0 121.5 41t108.5 96v281h-316z" />
    <glyph glyph-name="uni0918094D0072" horiz-adv-x="415" 
d="M438 597v-13h-271q-33 -30 -33 -75q0 -25 20 -44.5t47.5 -31t47.5 -10.5h5q62 0 90 -11l17 -32l-6 -19q-26 7 -65 7q-41 0 -69.5 -20.5t-42.5 -51.5t-14 -62q0 -35 26 -54t60 -19q126 0 251 123l33 -58l-332 -271l-47 51l145 102q-40 -1 -68 6t-55 25q-31 22 -53 53.5
t-22 66.5q0 41 21.5 78.5t58.5 60.5q-38 18 -60 32.5t-36 37.5t-14 57q0 26 12 59h-89l-22 44v12h442z" />
    <glyph glyph-name="uni0919094D0915" horiz-adv-x="681" 
d="M316 -185l1 104l-1 1q-35 -24 -66 -37t-69 -13q-56 0 -94.5 34t-38.5 98q0 30 17.5 57t44.5 43t54 16q44 0 84 -25.5t67 -60.5l1 108q-73 8 -145 46t-146 116l32 31q70 -78 134.5 -110t135.5 -33q50 1 79.5 20t29.5 53q0 16 -10 29t-21 18q-21 1 -40 -3t-48 -13
q-42 -12 -58 -12q-24 0 -56 21.5t-55 52t-23 53.5q0 36 25 57.5t67 21.5h149v96h-371l-22 44v12h684l24 -43v-13h-245v-151h-190q-26 0 -39 -16t-13 -37q0 -19 13.5 -31t27.5 -12q6 0 52 10q66 15 89 15q28 0 56.5 -20t47.5 -48.5t19 -50.5q-1 -38 -31.5 -67.5t-89.5 -35.5
v-97q67 56 109 56q30 0 58.5 -17t47 -47.5t18.5 -68.5q0 -30 -17.5 -65.5t-46.5 -80.5l-54 55q30 31 50.5 61t20.5 61q0 26 -14.5 41t-36.5 15q-34 0 -65.5 -22t-69.5 -59v-185h-12zM527 394l66 67l67 -67l-67 -67zM239 -67q37 19 77 52q-20 31 -53.5 52t-71.5 21
q-40 0 -69 -23t-29 -60q0 -28 20 -44.5t49 -16.5q40 0 77 19z" />
    <glyph glyph-name="uni0919094D0915094D" horiz-adv-x="681" 
d="M681 597v-13h-245v-151h-190q-26 0 -39 -16t-13 -37q0 -19 13.5 -31t27.5 -12q6 0 52 10q66 15 89 15q28 0 56.5 -20t47.5 -48.5t19 -50.5q-1 -38 -31.5 -67.5t-89.5 -35.5v-98q60 49 106 49q70 0 109 -50l-29 -33q-9 13 -25 20t-33 7q-35 0 -62 -15t-66 -47v-186h-12
l-50 28l1 104l-1 1q-35 -24 -65.5 -37t-68.5 -13q-56 0 -94.5 34t-38.5 98q0 30 17.5 57t44.5 43t54 16q44 0 83.5 -25t67.5 -60l1 107q-74 8 -146 46t-146 116l32 31q70 -78 134.5 -110t135.5 -33q50 1 79.5 20t29.5 53q0 16 -10 29t-21 18q-21 1 -40 -3t-48 -13
q-42 -12 -58 -12q-24 0 -56 21.5t-55 52t-23 53.5q0 36 25 57.5t67 21.5h149v96h-371l-22 44v12h684zM514 406l91 68l67 -92l-92 -68zM163 -86q41 0 77 19t76 51v1q-23 31 -55.5 52t-69.5 21q-40 0 -69 -23t-29 -60q0 -28 20 -44.5t49 -16.5h1z" />
    <glyph glyph-name="uni0919094D0915094D0937" horiz-adv-x="681" 
d="M680 596v-13h-245v-151h-190q-26 0 -39 -16t-13 -37q0 -19 13.5 -31t27.5 -12q6 0 52 10q66 15 89 15q28 0 56.5 -20t47.5 -48.5t19 -50.5q-2 -32 -19 -53v-403h-12l-50 27v173q-47 -29 -97 -29q-34 0 -78 12t-88 33q-44 -19 -67.5 -38.5t-23.5 -52.5q0 -22 21.5 -39.5
t52.5 -17.5q30 0 61 11l-19 42q12 9 26.5 13.5t26.5 4.5q28 -1 42.5 -15.5t15.5 -35.5q0 -28 -37 -49l55 -87l-46 -23l-42 98q-27 -9 -52 -9q-27 0 -66.5 19t-68.5 49.5t-29 64.5q0 31 25 50t77 42q-39 26 -62.5 54t-23.5 56q0 31 27 55.5t62 31.5q-42 33 -84 76l32 31
q70 -78 134.5 -110t135.5 -33q50 1 79.5 20t29.5 53q0 16 -10 29t-21 18q-21 1 -40 -3t-48 -13q-42 -12 -58 -12q-24 0 -56 21.5t-55 52t-23 53.5q0 36 25 57.5t67 21.5h149v96h-371l-22 44v12h684zM592 460l67 -67l-67 -67l-66 67zM190.5 81.5q17.5 19.5 17.5 46.5
q0 25 -18.5 38t-42.5 13q-26 0 -47.5 -16t-21.5 -39q0 -21 17 -41.5t46 -36.5q32 16 49.5 35.5zM418 147q-29 -10 -68 -10q-56 2 -106 17q15 -23 15 -41q0 -31 -16.5 -52.5t-46.5 -37.5q44 -15 91 -15q66 0 131 46v93z" />
    <glyph glyph-name="uni0919094D0916" horiz-adv-x="681" 
d="M681 597v-13h-245v-151h-190q-26 0 -39 -16t-13 -37q0 -19 13.5 -31t27.5 -12q6 0 52 10q66 15 89 15q28 0 56.5 -20t47.5 -48.5t19 -50.5q-2 -23 -11 -42v-414h-13l-49 28v25q-37 -17 -68 -26t-64 -9q-57 0 -107.5 34t-93.5 79q-27 28 -41 48.5t-14 44.5q0 15 8 29
t22 23h2l44 -36q17 24 20.5 36.5t3.5 35.5q0 30 -3 56t-11 63q-47 33 -99 84l32 31q70 -78 134.5 -110t135.5 -33q50 1 79.5 20t29.5 53q0 16 -10 29t-21 18q-21 1 -40 -3t-48 -13q-42 -12 -58 -12q-24 0 -56 21.5t-55 52t-23 53.5q0 36 25 57.5t67 21.5h149v96h-371l-22 44
v12h684zM660 394l-67 -67l-66 67l66 67zM189 79q0 -38 -18.5 -68.5t-48.5 -61.5q39 -42 80 -68.5t87 -26.5q36 0 69 11t68 34v55q-19 -19 -43 -31.5t-48 -12.5q-26 0 -52 14.5t-42.5 39t-16.5 51.5q0 41 32.5 70.5t75.5 29.5q40 0 94 -43l1 79q-34 -13 -76 -13
q-90 2 -173 47q11 -60 11 -106zM291 44q-23 -21 -23 -50q0 -14 11 -23t30 -9q33 0 61.5 15.5t55.5 41.5v3q-35 43 -71 43q-41 0 -64 -21z" />
    <glyph glyph-name="uni0919094D0917" horiz-adv-x="681" 
d="M682 597v-13h-245v-151h-190q-26 0 -39 -16t-13 -37q0 -19 13.5 -31t27.5 -12q6 0 52 10q66 15 89 15q28 0 56.5 -20t47.5 -48.5t19 -50.5q-1 -24 -13.5 -45.5t-37.5 -36.5v-374h-12l-50 28v326q-17 -3 -36 -3q-56 2 -105 17q5 -78 5 -148q0 -36 -13 -64t-50 -28
q-26 0 -44.5 15t-27.5 36t-9 39q0 22 4 34l75 -14v154q-82 41 -161 123l32 31q70 -78 134.5 -110t135.5 -33q50 1 79.5 20t29.5 53q0 16 -10 29t-21 18q-21 1 -40 -3t-48 -13q-42 -12 -58 -12q-24 0 -56 21.5t-55 52t-23 53.5q0 36 25 57.5t67 21.5h149v96h-371l-22 44v12
h684zM594 461l67 -67l-67 -67l-66 67z" />
    <glyph glyph-name="uni0919094D0918" horiz-adv-x="681" 
d="M681 597v-13h-245v-151h-190q-26 0 -39 -16t-13 -37q0 -19 13.5 -31t27.5 -12q6 0 52 10q66 15 89 15q28 0 56.5 -20t47.5 -48.5t19 -50.5q-2 -37 -24 -60v-396h-13l-49 28v65q-42 -32 -76.5 -46.5t-68.5 -14.5q-27 0 -48 7.5t-45 24.5q-36 26 -52 49t-16 49
q0 28 18.5 52t48.5 39q-46 19 -74.5 46.5t-28.5 60.5q0 24 9 43t27 38q-37 27 -82 74l32 31q70 -78 134.5 -110t135.5 -33q50 1 79.5 20t29.5 53q0 16 -10 29t-21 18q-21 1 -40 -3t-48 -13q-42 -12 -58 -12q-24 0 -56 21.5t-55 52t-23 53.5q0 36 25 57.5t67 21.5h149v96
h-371l-22 44v12h684zM660 394l-67 -67l-66 67l66 67zM135 131q0 -21 16.5 -37t39.5 -24t42 -7q5 1 21 1q30 0 60 -12l15 -36l-7 -17q-42 7 -57 7q-29 0 -51 -13t-34 -32t-12 -37q0 -23 18.5 -34.5t44.5 -11.5q42 0 91.5 25t90.5 64l1 179q-30 -8 -63 -8q-98 2 -186 51
q-30 -24 -30 -58z" />
    <glyph glyph-name="uni0919094D092E" horiz-adv-x="911" 
d="M911 597v-13h-114v-797h-14l-53 31v177h-279q-1 -36 -14.5 -61.5t-44.5 -25.5q-23 1 -44 17t-35 45q-14 30 -14 64q0 11 1 17h84v90q-17 -3 -35 -3q-84 2 -163.5 39.5t-162.5 124.5l32 31q70 -78 134.5 -110t135.5 -33q50 1 79.5 20t29.5 53q0 16 -10 29t-21 18
q-21 1 -40 -3t-48 -13q-42 -12 -58 -12q-24 0 -56 21.5t-55 52t-23 53.5q0 36 25.5 57.5t67.5 21.5h148v96h-371l-22 44v12h916zM434 584v-151h-190q-26 0 -39 -16t-13 -37q0 -19 13.5 -31t27.5 -12q6 0 52 10q66 15 89 15q28 0 56.5 -20t47.5 -48.5t19 -50.5t-11.5 -43.5
t-34.5 -36.5v-112h279v533h-296zM660 397l-69 -70l-68 69l68 70z" />
    <glyph glyph-name="uni0919094D0930" horiz-adv-x="685" 
d="M686 597v-13h-240v-178h-212q-75 0 -75 -81q0 -23 18 -43.5t36 -20.5q19 0 39.5 5t51.5 15q37 11 57 16t41 5q27 0 52.5 -24.5t41.5 -61t16 -69.5q1 -65 -38.5 -107.5t-109.5 -42.5q-18 0 -27 1l138 -134l-40 -30l-145 147l-184 -140l-57 51l198 126q-105 40 -215 164
l31 28q140 -154 270 -154q54 0 90.5 28t36.5 82q0 25 -11.5 47t-24.5 28q-26 1 -47 -4t-52 -16q-26 -10 -42 -14t-35 -4q-29 0 -64 23t-59 58t-24 68q0 51 29.5 82t74.5 31h172v119h-382l-22 44v12h689zM603 419l67 -67l-67 -68l-66 67z" />
    <glyph glyph-name="uni091A094D091A" horiz-adv-x="948" 
d="M948 597v-13h-114v-611h-13l-55 30l2 183l-3 1q-39 -32 -85 -54t-86 -22q-37 0 -68.5 12t-52.5 33q-6 6 -20 24q-41 -33 -84 -51t-79 -18t-66.5 11.5t-50.5 30.5q-57 57 -57 119q0 54 44 104l1 1h-107l-23 43v13h638l23 -44v-12h-100q-52 -3 -83.5 -41t-31.5 -87
q0 -38 28 -65t63 -27q49 0 107 40t92 84v303h-772l-22 44v12h951zM288 377q-52 -3 -84 -41t-32 -87q0 -38 28 -65t64 -27q34 0 77.5 23t83.5 60q-4 13 -4 32q0 29 12 56t32 48v1h-177z" />
    <glyph glyph-name="uni091A094D0930" horiz-adv-x="653" 
d="M652 597v-13h-114v-612h-13l-55 30l1 184l-2 1l-288 -219l-48 53l133 94q-54 6 -85 37q-56 58 -56 120q0 28 12 55t31 48l1 1h-106l-23 43v13h333l23 -43v-13h-100q-52 -2 -83.5 -40.5t-31.5 -87.5q0 -38 28.5 -65t62.5 -27q49 0 107.5 40.5t91.5 83.5v304h-476l-22 44
v12h656z" />
    </font>
</defs>
</svg>
