<svg xmlns="http://www.w3.org/2000/svg" width="543.389" height="450.018" viewBox="0 0 543.389 450.018">
  <g id="Filter-bro" transform="translate(-56.509 -87.266)">
    <g id="freepik--background-simple--inject-374" transform="translate(56.509 143.511)">
      <path id="Path_1741" data-name="Path 1741" d="M574.868,315.445s-16.7-7.124-16.7-41.908S555.389,200,519.213,169.267s-65.395-10.5-121.05-.849-58.438-45.79-175.314-39.988S80.929,204.26,75.363,251.97s45.915,67.593,22.262,104.117-48.7,43.926-38.959,90.523,41.741,73.451,112.7,75.134,111.31-65.228,153.052-68.289,64,69.04,160.008,56.406S634.7,402.879,574.868,315.445Z" transform="translate(-56.509 -128.003)" fill="#92e3a9"/>
      <path id="Path_1742" data-name="Path 1742" d="M574.868,315.445s-16.7-7.124-16.7-41.908S555.389,200,519.213,169.267s-65.395-10.5-121.05-.849-58.438-45.79-175.314-39.988S80.929,204.26,75.363,251.97s45.915,67.593,22.262,104.117-48.7,43.926-38.959,90.523,41.741,73.451,112.7,75.134,111.31-65.228,153.052-68.289,64,69.04,160.008,56.406S634.7,402.879,574.868,315.445Z" transform="translate(-56.509 -128.003)" fill="#fff" opacity="0.7"/>
    </g>
    <g id="freepik--device-1--inject-374" transform="translate(429.914 398.337)">
      <path id="Path_1743" data-name="Path 1743" d="M341.695,311.15H453.534a5.969,5.969,0,0,1,5.969,5.969V389.86H335.67V317.119a5.969,5.969,0,0,1,6.025-5.969Z" transform="translate(-320.657 -311.15)" fill="#92e3a9" stroke="#263238" stroke-linecap="round" stroke-linejoin="round" stroke-width="1"/>
      <path id="Path_1744" data-name="Path 1744" d="M346.243,315.44h99.122a5.969,5.969,0,0,1,5.969,5.969v67.83H340.26V321.423a5.983,5.983,0,0,1,5.983-5.983Z" transform="translate(-318.861 -309.471)" fill="#263238" stroke="#263238" stroke-linecap="round" stroke-linejoin="round" stroke-width="1"/>
      <path id="Path_1745" data-name="Path 1745" d="M462.654,375.282H335.482a10.6,10.6,0,0,1-10.6-10.6H473.256A10.6,10.6,0,0,1,462.654,375.282Z" transform="translate(-324.88 -290.199)" fill="#92e3a9" stroke="#263238" stroke-linecap="round" stroke-linejoin="round" stroke-width="1"/>
    </g>
    <g id="freepik--device-2--inject-374" transform="translate(259.276 398.337)">
      <path id="Path_1746" data-name="Path 1746" d="M219.045,311.15H330.884a5.969,5.969,0,0,1,5.969,5.969V389.86H213.02V317.119a5.969,5.969,0,0,1,6.025-5.969Z" transform="translate(-198.021 -311.15)" fill="#92e3a9" stroke="#263238" stroke-linecap="round" stroke-linejoin="round" stroke-width="1"/>
      <path id="Path_1747" data-name="Path 1747" d="M223.6,315.44h99.122a5.969,5.969,0,0,1,5.969,5.969v67.83H217.63V321.423a5.969,5.969,0,0,1,5.969-5.983Z" transform="translate(-196.217 -309.471)" fill="#263238" stroke="#263238" stroke-linecap="round" stroke-linejoin="round" stroke-width="1"/>
      <path id="Path_1748" data-name="Path 1748" d="M340.028,375.282H212.842a10.6,10.6,0,0,1-10.6-10.6H350.617a10.6,10.6,0,0,1-10.588,10.6Z" transform="translate(-202.24 -290.199)" fill="#92e3a9" stroke="#263238" stroke-linecap="round" stroke-linejoin="round" stroke-width="1"/>
    </g>
    <g id="freepik--device-3--inject-374" transform="translate(84.407 398.336)">
      <path id="Path_1749" data-name="Path 1749" d="M93.37,311.15H205.154a5.969,5.969,0,0,1,5.969,5.969v72.741H87.29V317.119a5.969,5.969,0,0,1,6.08-5.969Z" transform="translate(-72.361 -311.149)" fill="#92e3a9" stroke="#263238" stroke-linecap="round" stroke-linejoin="round" stroke-width="1"/>
      <path id="Path_1750" data-name="Path 1750" d="M97.909,315.44h99.122A5.969,5.969,0,0,1,203,321.409v67.83H91.94V321.423a5.983,5.983,0,0,1,5.969-5.983Z" transform="translate(-70.541 -309.47)" fill="#263238" stroke="#263238" stroke-linecap="round" stroke-linejoin="round" stroke-width="1"/>
      <path id="Path_1751" data-name="Path 1751" d="M214.334,375.282H87.148a10.6,10.6,0,0,1-10.588-10.6H224.937A10.6,10.6,0,0,1,214.334,375.282Z" transform="translate(-76.56 -290.198)" fill="#92e3a9" stroke="#263238" stroke-linecap="round" stroke-linejoin="round" stroke-width="1"/>
      <path id="Path_1752" data-name="Path 1752" d="M154.839,373.357H115.88V321.18h27.354l11.6,10.63Z" transform="translate(-61.171 -307.223)" fill="#fff" stroke="#263238" stroke-linecap="round" stroke-linejoin="round" stroke-width="1"/>
      <path id="Path_1753" data-name="Path 1753" d="M135.54,321.18v10.63h11.6Z" transform="translate(-53.477 -307.223)" fill="#fff" stroke="#263238" stroke-linecap="round" stroke-linejoin="round" stroke-width="1"/>
    </g>
    <g id="freepik--Server--inject-374" transform="translate(73.972 88.38)">
      <path id="Path_1754" data-name="Path 1754" d="M508.034,326.234a79.058,79.058,0,0,0-42.159-64.977,79.044,79.044,0,0,0-130.609-85.806,79.072,79.072,0,0,0-149.754,49.491c-2.435-.223-4.884-.362-7.374-.362a79.058,79.058,0,0,0-75.761,101.654Z" transform="translate(-57.311 -73.421)" fill="#92e3a9" stroke="#263238" stroke-linecap="round" stroke-linejoin="round" stroke-width="1"/>
      <path id="Path_1755" data-name="Path 1755" d="M235.771,187.059l3.645-1.67-.779-4.383-4.021-.306a17.213,17.213,0,0,0-2.018-3.812l2.087-3.506-3.145-3.145-3.534,2.1a17.489,17.489,0,0,0-6.748-2.783l-1.016-4.035h-4.452l-1.016,4.063a17.7,17.7,0,0,0-4.007,1.266l-3.172-2.783-3.576,2.63,1.5,3.924a18.087,18.087,0,0,0-2.56,3.325l-4.174-.431-1.517,4.174,3.465,2.351a18.755,18.755,0,0,0-.25,2.95q0,.626,0,1.252l-3.645,2.031,1.141,4.3h4.174a17.877,17.877,0,0,0,2.268,3.6l-1.795,3.645,3.409,2.866,3.3-2.365a17.323,17.323,0,0,0,3.979,1.67l.654,3.993,4.439.376,1.391-3.771a17.322,17.322,0,0,0,4.258-.918l2.783,2.783,3.854-2.226-1.057-3.826a17.572,17.572,0,0,0,2.95-3.228l3.924.724,1.878-4.021-3.075-2.546a17.615,17.615,0,0,0,.459-4.271Zm-6.581-.083a11.223,11.223,0,1,0,0,.083Z" transform="translate(-19.05 -58.189)" fill="#263238"/>
      <path id="Path_1756" data-name="Path 1756" d="M326.376,234.4l3.645-1.67-.765-4.369-4.021-.32a18.505,18.505,0,0,0-2.018-3.812l2.073-3.506-3.145-3.145-3.534,2.1a17.615,17.615,0,0,0-6.748-2.783l-1.016-4.035H306.41l-1.03,4.063a17.362,17.362,0,0,0-3.993,1.266l-3.186-2.783-3.645,2.546,1.5,3.938a16.9,16.9,0,0,0-2.546,3.312l-4.174-.431-1.531,4.174,3.465,2.351a18.756,18.756,0,0,0-.237,2.95c0,.431,0,.835,0,1.252l-3.645,2.031,1.155,4.3h4.174a17.881,17.881,0,0,0,2.268,3.6l-1.809,3.8,3.409,2.783,3.3-2.365a18.007,18.007,0,0,0,3.979,1.684l.668,3.979,4.425.39,1.391-3.771a17.2,17.2,0,0,0,4.258-.932l2.783,2.783,3.854-2.226-1.057-3.826a18.086,18.086,0,0,0,2.964-3.228l3.91.723,1.878-4.035-3.131-2.463A17.155,17.155,0,0,0,326.376,234.4Zm-6.581-.083a11.131,11.131,0,1,1-11.131-11.131A11.131,11.131,0,0,1,319.8,234.315Z" transform="translate(16.39 -39.661)" fill="#263238"/>
      <path id="Path_1757" data-name="Path 1757" d="M129.56,269.818V224.6a13.218,13.218,0,0,1,13.218-13.218h94.614" transform="translate(-45.382 -40.24)" fill="none" stroke="#263238" stroke-linejoin="round" stroke-width="7"/>
      <path id="Path_1758" data-name="Path 1758" d="M308.39,203.55h20.871A13.455,13.455,0,0,1,342.715,217v47.766" transform="translate(24.609 -43.305)" fill="none" stroke="#263238" stroke-linejoin="round" stroke-width="7"/>
      <path id="Path_1759" data-name="Path 1759" d="M233.692,119.26v52.97a4.313,4.313,0,0,0,4.313,4.313h16.905a4.313,4.313,0,0,1,4.313,4.313V193.3h-46.4a10.032,10.032,0,0,0-10.032,10.046v71.517A10.032,10.032,0,0,0,212.822,284.9H344.585a10.032,10.032,0,0,0,10.032-10.046V203.341A10.032,10.032,0,0,0,344.585,193.3H298.127V180.856a4.313,4.313,0,0,1,4.313-4.313H319.36a4.3,4.3,0,0,0,4.3-4.313V120.568" transform="translate(-16.721 -76.294)" fill="#fff" stroke="#263238" stroke-linecap="round" stroke-linejoin="round" stroke-width="1"/>
      <path id="Path_1760" data-name="Path 1760" d="M220.05,104.88s28.287,3.465,33.323,34.576" transform="translate(-9.966 -81.922)" fill="none" stroke="#263238" stroke-linecap="round" stroke-linejoin="round" stroke-width="2"/>
      <path id="Path_1761" data-name="Path 1761" d="M238.8,129.1l8.014,11.326,5.8-12.592Z" transform="translate(-2.627 -72.94)" fill="#263238"/>
      <path id="Path_1762" data-name="Path 1762" d="M289.049,104.88s-30.332,5.691-33.769,58.2" transform="translate(3.822 -81.922)" fill="none" stroke="#263238" stroke-linecap="round" stroke-linejoin="round" stroke-width="2"/>
      <path id="Path_1763" data-name="Path 1763" d="M250.41,145.06l6.47,12.272,7.388-11.729Z" transform="translate(1.916 -66.197)" fill="#263238"/>
      <path id="Path_1764" data-name="Path 1764" d="M224.05,88.38s28.287,3.465,33.324,34.576" transform="translate(-8.4 -88.38)" fill="none" stroke="#263238" stroke-linecap="round" stroke-linejoin="round" stroke-width="2"/>
      <path id="Path_1765" data-name="Path 1765" d="M242.8,112.6l8.014,11.326,5.8-12.592Z" transform="translate(-1.062 -79.398)" fill="#263238"/>
      <path id="Path_1766" data-name="Path 1766" d="M305.92,104.88s-28.273,3.465-33.31,34.576" transform="translate(10.605 -81.922)" fill="none" stroke="#263238" stroke-linecap="round" stroke-linejoin="round" stroke-width="2"/>
      <path id="Path_1767" data-name="Path 1767" d="M267.88,127.83l5.816,12.592,8-11.326Z" transform="translate(8.754 -72.94)" fill="#263238"/>
      <path id="Path_1768" data-name="Path 1768" d="M335.694,184.784H289.862V170.87H262.034v13.914H217.023a8.223,8.223,0,0,0-8.223,8.237v52.747a8.223,8.223,0,0,0,8.223,8.223H335.694a8.237,8.237,0,0,0,8.237-8.223V193.021a8.237,8.237,0,0,0-8.237-8.237Z" transform="translate(-14.369 -56.095)" fill="#263238"/>
      <line id="Line_375" data-name="Line 375" x2="17.893" transform="translate(204.7 139.722)" fill="none" stroke="#fff" stroke-linecap="round" stroke-linejoin="round" stroke-width="1"/>
      <line id="Line_376" data-name="Line 376" x2="45.192" transform="translate(204.7 148.182)" fill="none" stroke="#fff" stroke-linecap="round" stroke-linejoin="round" stroke-width="1"/>
      <line id="Line_377" data-name="Line 377" x2="12.815" transform="translate(253.273 148.182)" fill="none" stroke="#fff" stroke-linecap="round" stroke-linejoin="round" stroke-width="1"/>
      <line id="Line_378" data-name="Line 378" x2="21.511" transform="translate(269.705 148.182)" fill="none" stroke="#fff" stroke-linecap="round" stroke-linejoin="round" stroke-width="1"/>
      <line id="Line_379" data-name="Line 379" x2="17.893" transform="translate(238.774 139.722)" fill="none" stroke="#fff" stroke-linecap="round" stroke-linejoin="round" stroke-width="1"/>
      <line id="Line_380" data-name="Line 380" x2="25.128" transform="translate(293.4 139.722)" fill="none" stroke="#fff" stroke-linecap="round" stroke-linejoin="round" stroke-width="1"/>
      <line id="Line_381" data-name="Line 381" x2="25.128" transform="translate(293.4 148.182)" fill="none" stroke="#fff" stroke-linecap="round" stroke-linejoin="round" stroke-width="1"/>
      <line id="Line_382" data-name="Line 382" x2="8.209" transform="translate(227.184 139.722)" fill="none" stroke="#fff" stroke-linecap="round" stroke-linejoin="round" stroke-width="1"/>
      <line id="Line_383" data-name="Line 383" x2="8.209" transform="translate(260.229 139.722)" fill="none" stroke="#fff" stroke-linecap="round" stroke-linejoin="round" stroke-width="1"/>
      <line id="Line_384" data-name="Line 384" x2="6.094" transform="translate(272.07 139.722)" fill="none" stroke="#fff" stroke-linecap="round" stroke-linejoin="round" stroke-width="1"/>
      <line id="Line_385" data-name="Line 385" x2="8.209" transform="translate(281.74 139.722)" fill="none" stroke="#fff" stroke-linecap="round" stroke-linejoin="round" stroke-width="1"/>
      <line id="Line_386" data-name="Line 386" x1="17.879" transform="translate(300.649 155.918)" fill="none" stroke="#fff" stroke-linecap="round" stroke-linejoin="round" stroke-width="1"/>
      <line id="Line_387" data-name="Line 387" x1="45.192" transform="translate(273.336 164.377)" fill="none" stroke="#fff" stroke-linecap="round" stroke-linejoin="round" stroke-width="1"/>
      <line id="Line_388" data-name="Line 388" x1="12.815" transform="translate(257.141 164.377)" fill="none" stroke="#fff" stroke-linecap="round" stroke-linejoin="round" stroke-width="1"/>
      <line id="Line_389" data-name="Line 389" x1="21.511" transform="translate(232.012 164.377)" fill="none" stroke="#fff" stroke-linecap="round" stroke-linejoin="round" stroke-width="1"/>
      <line id="Line_390" data-name="Line 390" x1="17.879" transform="translate(266.574 155.918)" fill="none" stroke="#fff" stroke-linecap="round" stroke-linejoin="round" stroke-width="1"/>
      <line id="Line_391" data-name="Line 391" x1="25.142" transform="translate(204.7 155.918)" fill="none" stroke="#fff" stroke-linecap="round" stroke-linejoin="round" stroke-width="1"/>
      <line id="Line_392" data-name="Line 392" x1="25.142" transform="translate(204.7 164.377)" fill="none" stroke="#fff" stroke-linecap="round" stroke-linejoin="round" stroke-width="1"/>
      <line id="Line_393" data-name="Line 393" x1="8.223" transform="translate(287.834 155.918)" fill="none" stroke="#fff" stroke-linecap="round" stroke-linejoin="round" stroke-width="1"/>
      <line id="Line_394" data-name="Line 394" x1="8.209" transform="translate(254.789 155.918)" fill="none" stroke="#fff" stroke-linecap="round" stroke-linejoin="round" stroke-width="1"/>
      <line id="Line_395" data-name="Line 395" x1="6.094" transform="translate(245.063 155.918)" fill="none" stroke="#fff" stroke-linecap="round" stroke-linejoin="round" stroke-width="1"/>
      <line id="Line_396" data-name="Line 396" x1="8.223" transform="translate(233.278 155.918)" fill="none" stroke="#fff" stroke-linecap="round" stroke-linejoin="round" stroke-width="1"/>
      <line id="Line_397" data-name="Line 397" x1="17.879" transform="translate(300.649 171.863)" fill="none" stroke="#fff" stroke-linecap="round" stroke-linejoin="round" stroke-width="1"/>
      <line id="Line_398" data-name="Line 398" x2="45.192" transform="translate(204.7 180.323)" fill="none" stroke="#fff" stroke-linecap="round" stroke-linejoin="round" stroke-width="1"/>
      <line id="Line_399" data-name="Line 399" x2="12.815" transform="translate(253.273 180.323)" fill="none" stroke="#fff" stroke-linecap="round" stroke-linejoin="round" stroke-width="1"/>
      <line id="Line_400" data-name="Line 400" x2="21.511" transform="translate(269.705 180.323)" fill="none" stroke="#fff" stroke-linecap="round" stroke-linejoin="round" stroke-width="1"/>
      <line id="Line_401" data-name="Line 401" x1="17.879" transform="translate(266.574 171.863)" fill="none" stroke="#fff" stroke-linecap="round" stroke-linejoin="round" stroke-width="1"/>
      <line id="Line_402" data-name="Line 402" x1="25.142" transform="translate(204.7 171.863)" fill="none" stroke="#fff" stroke-linecap="round" stroke-linejoin="round" stroke-width="1"/>
      <line id="Line_403" data-name="Line 403" x2="25.128" transform="translate(293.4 180.323)" fill="none" stroke="#fff" stroke-linecap="round" stroke-linejoin="round" stroke-width="1"/>
      <line id="Line_404" data-name="Line 404" x1="8.223" transform="translate(287.834 171.863)" fill="none" stroke="#fff" stroke-linecap="round" stroke-linejoin="round" stroke-width="1"/>
      <line id="Line_405" data-name="Line 405" x1="8.209" transform="translate(254.789 171.863)" fill="none" stroke="#fff" stroke-linecap="round" stroke-linejoin="round" stroke-width="1"/>
      <line id="Line_406" data-name="Line 406" x1="6.094" transform="translate(245.063 171.863)" fill="none" stroke="#fff" stroke-linecap="round" stroke-linejoin="round" stroke-width="1"/>
      <line id="Line_407" data-name="Line 407" x1="8.223" transform="translate(233.278 171.863)" fill="none" stroke="#fff" stroke-linecap="round" stroke-linejoin="round" stroke-width="1"/>
      <line id="Line_408" data-name="Line 408" x1="17.879" transform="translate(300.649 187.822)" fill="none" stroke="#fff" stroke-linecap="round" stroke-linejoin="round" stroke-width="1"/>
      <line id="Line_409" data-name="Line 409" x1="17.879" transform="translate(266.574 187.822)" fill="none" stroke="#fff" stroke-linecap="round" stroke-linejoin="round" stroke-width="1"/>
      <line id="Line_410" data-name="Line 410" x1="25.142" transform="translate(204.7 187.822)" fill="none" stroke="#fff" stroke-linecap="round" stroke-linejoin="round" stroke-width="1"/>
      <line id="Line_411" data-name="Line 411" x1="8.223" transform="translate(287.834 187.822)" fill="none" stroke="#fff" stroke-linecap="round" stroke-linejoin="round" stroke-width="1"/>
      <line id="Line_412" data-name="Line 412" x1="8.209" transform="translate(254.789 187.822)" fill="none" stroke="#fff" stroke-linecap="round" stroke-linejoin="round" stroke-width="1"/>
      <line id="Line_413" data-name="Line 413" x1="6.094" transform="translate(245.063 187.822)" fill="none" stroke="#fff" stroke-linecap="round" stroke-linejoin="round" stroke-width="1"/>
      <line id="Line_414" data-name="Line 414" x1="8.223" transform="translate(233.278 187.822)" fill="none" stroke="#fff" stroke-linecap="round" stroke-linejoin="round" stroke-width="1"/>
      <path id="Path_1769" data-name="Path 1769" d="M203.235,248.834l5.2-2.365-1.1-6.289-5.732-.445a24.959,24.959,0,0,0-2.866-5.426l2.95-5-4.48-4.438-5.023,2.991a25.212,25.212,0,0,0-9.6-3.924L181.2,218.21h-6.331l-1.461,5.774a24.68,24.68,0,0,0-5.691,1.809l-4.522-3.91L158,225.5l2.129,5.565a26.116,26.116,0,0,0-3.632,4.717l-5.955-.612-2.171,5.941,4.939,3.353a24.584,24.584,0,0,0-.362,4.174,15.125,15.125,0,0,0,.07,1.781l-5.19,2.894,1.642,6.122,5.872-.083a25.351,25.351,0,0,0,3.228,5.134l-2.532,5.273,4.842,4.063,4.7-3.367a24.559,24.559,0,0,0,5.663,2.393l.946,5.677,6.3.543,1.906-5.357a25.228,25.228,0,0,0,6.066-1.391l3.979,4.049,5.482-3.172-1.5-5.454a24.866,24.866,0,0,0,4.174-4.592l5.566,1.03,2.671-5.732-4.369-3.6a25.043,25.043,0,0,0,.765-6.011Zm-9.364-.111a15.806,15.806,0,1,1-15.806-15.806A15.806,15.806,0,0,1,193.871,248.723Z" transform="translate(-38.231 -37.567)" fill="#263238"/>
      <path id="Path_1770" data-name="Path 1770" d="M113.545,277.915h9.461a15.792,15.792,0,0,1,31.125,0h14.721l-1.03-5.816-5.719-.445a25.044,25.044,0,0,0-2.88-5.426l2.964-5-4.466-4.48-5.037,2.964a25.044,25.044,0,0,0-9.6-3.924l-1.391-5.732h-6.331l-1.391,5.774a25.048,25.048,0,0,0-5.7,1.809l-4.522-3.924-5.176,3.632,2.129,5.565a24.906,24.906,0,0,0-3.631,4.717l-5.969-.612-2.157,5.941,4.925,3.353A6.4,6.4,0,0,0,113.545,277.915Z" transform="translate(-53.452 -25.102)" fill="#263238"/>
      <rect id="Rectangle_226" data-name="Rectangle 226" width="27.828" height="11.131" transform="translate(376.59 227.963)" fill="#fff" stroke="#263238" stroke-linecap="round" stroke-linejoin="round" stroke-width="1"/>
      <rect id="Rectangle_227" data-name="Rectangle 227" width="29.678" height="40.809" transform="translate(397.002 211.99)" fill="#fff" stroke="#263238" stroke-linecap="round" stroke-linejoin="round" stroke-width="1"/>
      <path id="Path_1771" data-name="Path 1771" d="M345.916,255.858h-30.61V244.81H257.55v10.31" transform="translate(4.711 -27.157)" fill="none" stroke="#263238" stroke-linecap="round" stroke-linejoin="round" stroke-width="2"/>
      <line id="Line_415" data-name="Line 415" x1="66.786" transform="translate(284.759 244.66)" fill="none" stroke="#263238" stroke-linecap="round" stroke-linejoin="round" stroke-width="2"/>
      <rect id="Rectangle_228" data-name="Rectangle 228" width="20.412" height="21.525" transform="translate(280.126 231.275)" fill="#fff" stroke="#263238" stroke-linecap="round" stroke-linejoin="round" stroke-width="1"/>
      <rect id="Rectangle_229" data-name="Rectangle 229" width="54.723" height="59.37" transform="translate(235.602 224.248)" fill="#fff" stroke="#263238" stroke-linecap="round" stroke-linejoin="round" stroke-width="1"/>
      <rect id="Rectangle_230" data-name="Rectangle 230" width="45.456" height="59.37" transform="translate(240.235 224.248)" fill="#fff" stroke="#263238" stroke-linecap="round" stroke-linejoin="round" stroke-width="1"/>
      <circle id="Ellipse_88" data-name="Ellipse 88" cx="3.826" cy="3.826" r="3.826" transform="translate(316.177 224.207)" fill="#263238"/>
      <circle id="Ellipse_89" data-name="Ellipse 89" cx="3.826" cy="3.826" r="3.826" transform="translate(258.56 213.827)" fill="#263238"/>
      <rect id="Rectangle_231" data-name="Rectangle 231" width="39.891" height="40.809" transform="translate(346.912 211.99)" fill="#fff" stroke="#263238" stroke-linecap="round" stroke-linejoin="round" stroke-width="1"/>
      <rect id="Rectangle_232" data-name="Rectangle 232" width="54.723" height="9.587" transform="translate(235.602 224.248)" fill="#263238" stroke="#263238" stroke-linecap="round" stroke-linejoin="round" stroke-width="1"/>
      <path id="Path_1772" data-name="Path 1772" d="M353.631,253.528H338.855V247.99l-19.215,11.1,19.215,11.1v-5.538h14.776Z" transform="translate(29.012 -25.912)" fill="#263238"/>
      <path id="Path_1773" data-name="Path 1773" d="M254.408,261.76v14.762H248.87l11.1,19.229,11.1-19.229h-5.538V261.76Z" transform="translate(1.314 -20.523)" fill="#263238"/>
      <line id="Line_416" data-name="Line 416" y2="21.998" transform="translate(381.015 165.56)" fill="none" stroke="#263238" stroke-miterlimit="10" stroke-width="1"/>
      <path id="Path_1774" data-name="Path 1774" d="M340.41,222.45l3.465,6.011,3.478-6.011Z" transform="translate(37.14 -35.908)" fill="#263238"/>
      <path id="Path_1775" data-name="Path 1775" d="M335.39,186.09a17.114,17.114,0,0,1,10.449,15.778v4.7" transform="translate(35.176 -50.138)" fill="none" stroke="#263238" stroke-miterlimit="10" stroke-width="1"/>
      <path id="Path_1776" data-name="Path 1776" d="M340.41,200.08l3.465,6.011,3.478-6.011Z" transform="translate(37.14 -44.663)" fill="#263238"/>
      <line id="Line_417" data-name="Line 417" x2="14.095" transform="translate(344.811 134.602)" fill="none" stroke="#263238" stroke-miterlimit="10" stroke-width="1"/>
      <path id="Path_1777" data-name="Path 1777" d="M326.28,189.573l6.011-3.465-6.011-3.478Z" transform="translate(31.61 -51.493)" fill="#263238"/>
      <circle id="Ellipse_90" data-name="Ellipse 90" cx="10.853" cy="10.853" r="10.853" transform="translate(19.091 411.553) rotate(-45.74)" fill="#263238"/>
      <path id="Path_1778" data-name="Path 1778" d="M97.962,384.976a3.242,3.242,0,1,0-.945,2.3,3.256,3.256,0,0,0,.945-2.3Z" transform="translate(-60.297 26.427)" fill="#fff"/>
      <circle id="Ellipse_91" data-name="Ellipse 91" cx="10.853" cy="10.853" r="10.853" transform="translate(81.976 411.413) rotate(-45)" fill="#263238"/>
      <path id="Path_1779" data-name="Path 1779" d="M143.182,384.976a3.256,3.256,0,1,0-.959,2.307,3.256,3.256,0,0,0,.959-2.307Z" transform="translate(-42.599 26.427)" fill="#fff"/>
      <circle id="Ellipse_92" data-name="Ellipse 92" cx="10.853" cy="10.853" r="10.853" transform="matrix(0.973, -0.231, 0.231, 0.973, 147.204, 403.327)" fill="#263238"/>
      <path id="Path_1780" data-name="Path 1780" d="M188.4,384.976a3.256,3.256,0,1,0-3.256,3.256A3.256,3.256,0,0,0,188.4,384.976Z" transform="translate(-24.901 26.427)" fill="#fff"/>
      <circle id="Ellipse_93" data-name="Ellipse 93" cx="10.853" cy="10.853" r="10.853" transform="matrix(0.973, -0.231, 0.231, 0.973, 210.111, 403.333)" fill="#263238"/>
      <path id="Path_1781" data-name="Path 1781" d="M233.622,384.976a3.256,3.256,0,1,0-3.256,3.256A3.256,3.256,0,0,0,233.622,384.976Z" transform="translate(-7.203 26.427)" fill="#fff"/>
      <circle id="Ellipse_94" data-name="Ellipse 94" cx="10.853" cy="10.853" r="10.853" transform="translate(273.604 402.437) rotate(-9.24)" fill="#263238"/>
      <path id="Path_1782" data-name="Path 1782" d="M278.832,384.976a3.256,3.256,0,1,0-3.256,3.256A3.256,3.256,0,0,0,278.832,384.976Z" transform="translate(10.492 26.427)" fill="#fff"/>
      <circle id="Ellipse_95" data-name="Ellipse 95" cx="10.853" cy="10.853" r="10.853" transform="translate(333.641 411.406) rotate(-45)" fill="#263238"/>
      <path id="Path_1783" data-name="Path 1783" d="M324.052,384.976a3.256,3.256,0,1,0-3.256,3.256,3.256,3.256,0,0,0,3.256-3.256Z" transform="translate(28.19 26.427)" fill="#fff"/>
      <circle id="Ellipse_96" data-name="Ellipse 96" cx="10.853" cy="10.853" r="10.853" transform="translate(396.553 411.398) rotate(-45)" fill="#263238"/>
      <path id="Path_1784" data-name="Path 1784" d="M369.272,384.976a3.256,3.256,0,1,0-3.256,3.256A3.256,3.256,0,0,0,369.272,384.976Z" transform="translate(45.888 26.427)" fill="#fff"/>
      <circle id="Ellipse_97" data-name="Ellipse 97" cx="10.853" cy="10.853" r="10.853" transform="translate(462.006 402.948) rotate(-11.73)" fill="#263238"/>
      <path id="Path_1785" data-name="Path 1785" d="M414.482,384.976a3.242,3.242,0,1,0-.945,2.3,3.256,3.256,0,0,0,.945-2.3Z" transform="translate(63.582 26.427)" fill="#fff"/>
      <rect id="Rectangle_233" data-name="Rectangle 233" width="509.244" height="8.348" transform="translate(0 396.028)" fill="#263238" stroke="#263238" stroke-linecap="round" stroke-linejoin="round" stroke-width="1"/>
      <line id="Line_418" data-name="Line 418" y1="8.112" transform="translate(11.131 396.042)" fill="none" stroke="#fff" stroke-linejoin="round" stroke-width="1"/>
      <line id="Line_419" data-name="Line 419" y1="8.112" transform="translate(30.61 396.042)" fill="none" stroke="#fff" stroke-linejoin="round" stroke-width="1"/>
      <line id="Line_420" data-name="Line 420" y1="8.112" transform="translate(50.09 396.042)" fill="none" stroke="#fff" stroke-linejoin="round" stroke-width="1"/>
      <line id="Line_421" data-name="Line 421" y1="8.112" transform="translate(69.569 396.042)" fill="none" stroke="#fff" stroke-linejoin="round" stroke-width="1"/>
      <line id="Line_422" data-name="Line 422" y1="8.112" transform="translate(89.048 396.042)" fill="none" stroke="#fff" stroke-linejoin="round" stroke-width="1"/>
      <line id="Line_423" data-name="Line 423" y1="8.112" transform="translate(108.527 396.042)" fill="none" stroke="#fff" stroke-linejoin="round" stroke-width="1"/>
      <line id="Line_424" data-name="Line 424" y1="8.112" transform="translate(128.007 396.042)" fill="none" stroke="#fff" stroke-linejoin="round" stroke-width="1"/>
      <line id="Line_425" data-name="Line 425" y1="8.112" transform="translate(147.486 396.042)" fill="none" stroke="#fff" stroke-linejoin="round" stroke-width="1"/>
      <line id="Line_426" data-name="Line 426" y1="8.112" transform="translate(166.965 396.042)" fill="none" stroke="#fff" stroke-linejoin="round" stroke-width="1"/>
      <line id="Line_427" data-name="Line 427" y1="8.112" transform="translate(186.445 396.042)" fill="none" stroke="#fff" stroke-linejoin="round" stroke-width="1"/>
      <line id="Line_428" data-name="Line 428" y2="8.112" transform="translate(205.924 396.042)" fill="none" stroke="#fff" stroke-linejoin="round" stroke-width="1"/>
      <line id="Line_429" data-name="Line 429" y1="8.112" transform="translate(225.403 396.042)" fill="none" stroke="#fff" stroke-linejoin="round" stroke-width="1"/>
      <line id="Line_430" data-name="Line 430" y1="8.112" transform="translate(244.883 396.042)" fill="none" stroke="#fff" stroke-linejoin="round" stroke-width="1"/>
      <line id="Line_431" data-name="Line 431" y1="8.112" transform="translate(264.362 396.042)" fill="none" stroke="#fff" stroke-linejoin="round" stroke-width="1"/>
      <line id="Line_432" data-name="Line 432" y1="8.112" transform="translate(283.841 396.042)" fill="none" stroke="#fff" stroke-linejoin="round" stroke-width="1"/>
      <line id="Line_433" data-name="Line 433" y1="8.112" transform="translate(303.32 396.042)" fill="none" stroke="#fff" stroke-linejoin="round" stroke-width="1"/>
      <line id="Line_434" data-name="Line 434" y1="8.112" transform="translate(322.8 396.042)" fill="none" stroke="#fff" stroke-linejoin="round" stroke-width="1"/>
      <line id="Line_435" data-name="Line 435" y1="8.112" transform="translate(342.279 396.042)" fill="none" stroke="#fff" stroke-linejoin="round" stroke-width="1"/>
      <line id="Line_436" data-name="Line 436" y1="8.112" transform="translate(361.758 396.042)" fill="none" stroke="#fff" stroke-linejoin="round" stroke-width="1"/>
      <line id="Line_437" data-name="Line 437" y1="8.112" transform="translate(381.238 396.042)" fill="none" stroke="#fff" stroke-linejoin="round" stroke-width="1"/>
      <line id="Line_438" data-name="Line 438" y1="8.112" transform="translate(400.717 396.042)" fill="none" stroke="#fff" stroke-linejoin="round" stroke-width="1"/>
      <line id="Line_439" data-name="Line 439" y1="8.112" transform="translate(420.196 396.042)" fill="none" stroke="#fff" stroke-linejoin="round" stroke-width="1"/>
      <line id="Line_440" data-name="Line 440" y1="8.112" transform="translate(439.675 396.042)" fill="none" stroke="#fff" stroke-linejoin="round" stroke-width="1"/>
      <line id="Line_441" data-name="Line 441" y1="8.112" transform="translate(459.155 396.042)" fill="none" stroke="#fff" stroke-linejoin="round" stroke-width="1"/>
      <line id="Line_442" data-name="Line 442" y1="8.112" transform="translate(478.634 396.042)" fill="none" stroke="#fff" stroke-linejoin="round" stroke-width="1"/>
      <line id="Line_443" data-name="Line 443" y1="8.112" transform="translate(498.113 396.042)" fill="none" stroke="#fff" stroke-linejoin="round" stroke-width="1"/>
      <rect id="Rectangle_234" data-name="Rectangle 234" width="509.244" height="8.348" transform="translate(0 419.681)" fill="#263238" stroke="#263238" stroke-linecap="round" stroke-linejoin="round" stroke-width="1"/>
      <line id="Line_444" data-name="Line 444" y1="8.112" transform="translate(11.131 419.695)" fill="none" stroke="#fff" stroke-linejoin="round" stroke-width="1"/>
      <line id="Line_445" data-name="Line 445" y1="8.112" transform="translate(30.61 419.695)" fill="none" stroke="#fff" stroke-linejoin="round" stroke-width="1"/>
      <line id="Line_446" data-name="Line 446" y1="8.112" transform="translate(50.09 419.695)" fill="none" stroke="#fff" stroke-linejoin="round" stroke-width="1"/>
      <line id="Line_447" data-name="Line 447" y1="8.112" transform="translate(69.569 419.695)" fill="none" stroke="#fff" stroke-linejoin="round" stroke-width="1"/>
      <line id="Line_448" data-name="Line 448" y1="8.112" transform="translate(89.048 419.695)" fill="none" stroke="#fff" stroke-linejoin="round" stroke-width="1"/>
      <line id="Line_449" data-name="Line 449" y1="8.112" transform="translate(108.527 419.695)" fill="none" stroke="#fff" stroke-linejoin="round" stroke-width="1"/>
      <line id="Line_450" data-name="Line 450" y1="8.112" transform="translate(128.007 419.695)" fill="none" stroke="#fff" stroke-linejoin="round" stroke-width="1"/>
      <line id="Line_451" data-name="Line 451" y1="8.112" transform="translate(147.486 419.695)" fill="none" stroke="#fff" stroke-linejoin="round" stroke-width="1"/>
      <line id="Line_452" data-name="Line 452" y1="8.112" transform="translate(166.965 419.695)" fill="none" stroke="#fff" stroke-linejoin="round" stroke-width="1"/>
      <line id="Line_453" data-name="Line 453" y1="8.112" transform="translate(186.445 419.695)" fill="none" stroke="#fff" stroke-linejoin="round" stroke-width="1"/>
      <line id="Line_454" data-name="Line 454" y1="8.112" transform="translate(205.924 419.695)" fill="none" stroke="#fff" stroke-linejoin="round" stroke-width="1"/>
      <line id="Line_455" data-name="Line 455" y1="8.112" transform="translate(225.403 419.695)" fill="none" stroke="#fff" stroke-linejoin="round" stroke-width="1"/>
      <line id="Line_456" data-name="Line 456" y1="8.112" transform="translate(244.883 419.695)" fill="none" stroke="#fff" stroke-linejoin="round" stroke-width="1"/>
      <line id="Line_457" data-name="Line 457" y1="8.112" transform="translate(264.362 419.695)" fill="none" stroke="#fff" stroke-linejoin="round" stroke-width="1"/>
      <line id="Line_458" data-name="Line 458" y1="8.112" transform="translate(283.841 419.695)" fill="none" stroke="#fff" stroke-linejoin="round" stroke-width="1"/>
      <line id="Line_459" data-name="Line 459" y1="8.112" transform="translate(303.32 419.695)" fill="none" stroke="#fff" stroke-linejoin="round" stroke-width="1"/>
      <line id="Line_460" data-name="Line 460" y1="8.112" transform="translate(322.8 419.695)" fill="none" stroke="#fff" stroke-linejoin="round" stroke-width="1"/>
      <line id="Line_461" data-name="Line 461" y1="8.112" transform="translate(342.279 419.695)" fill="none" stroke="#fff" stroke-linejoin="round" stroke-width="1"/>
      <line id="Line_462" data-name="Line 462" y1="8.112" transform="translate(361.758 419.695)" fill="none" stroke="#fff" stroke-linejoin="round" stroke-width="1"/>
      <line id="Line_463" data-name="Line 463" y1="8.112" transform="translate(381.238 419.695)" fill="none" stroke="#fff" stroke-linejoin="round" stroke-width="1"/>
      <line id="Line_464" data-name="Line 464" y1="8.112" transform="translate(400.717 419.695)" fill="none" stroke="#fff" stroke-linejoin="round" stroke-width="1"/>
      <line id="Line_465" data-name="Line 465" y1="8.112" transform="translate(420.196 419.695)" fill="none" stroke="#fff" stroke-linejoin="round" stroke-width="1"/>
      <line id="Line_466" data-name="Line 466" y1="8.112" transform="translate(439.675 419.695)" fill="none" stroke="#fff" stroke-linejoin="round" stroke-width="1"/>
      <line id="Line_467" data-name="Line 467" y1="8.112" transform="translate(459.155 419.695)" fill="none" stroke="#fff" stroke-linejoin="round" stroke-width="1"/>
      <line id="Line_468" data-name="Line 468" y1="8.112" transform="translate(478.634 419.695)" fill="none" stroke="#fff" stroke-linejoin="round" stroke-width="1"/>
      <line id="Line_469" data-name="Line 469" y1="8.112" transform="translate(498.113 419.695)" fill="none" stroke="#fff" stroke-linejoin="round" stroke-width="1"/>
    </g>
    <g id="freepik--File--inject-374" transform="translate(318.173 367.017)">
      <path id="Path_1786" data-name="Path 1786" d="M283.529,340.831H244.57V288.64h27.354l11.6,10.63Z" transform="translate(-244.57 -288.64)" fill="#fff" stroke="#263238" stroke-linecap="round" stroke-linejoin="round" stroke-width="1"/>
      <path id="Path_1787" data-name="Path 1787" d="M264.23,288.64v10.63h11.6Z" transform="translate(-236.876 -288.64)" fill="#fff" stroke="#263238" stroke-linecap="round" stroke-linejoin="round" stroke-width="1"/>
    </g>
  </g>
</svg>
