<svg xmlns="http://www.w3.org/2000/svg" xmlns:xlink="http://www.w3.org/1999/xlink" width="446.682" height="442.987" viewBox="0 0 446.682 442.987">
  <defs>
    <clipPath id="clip-path">
      <path id="Path_299" data-name="Path 299" d="M151.19,362.49S130.74,338.66,127,330.42c0,0-14.08-.46-16,11.89a95,95,0,0,0,0,24.88s13.88,37.88,19.65,52.22Z" fill="#757575" stroke="#263238" stroke-linecap="round" stroke-linejoin="round" stroke-width="1"/>
    </clipPath>
    <clipPath id="clip-path-2">
      <path id="Path_327" data-name="Path 327" d="M151.19,360s18.39-13,51.86.66l25.11-5.86s16.24,44.11,6.5,89.32c0,0-21.79,15.63-58.27,15.55-39.57-.1-49.37-15.55-49.37-15.55l5.66-14.43c-3.41-16.48-7.82-42.9-4.46-56.58C133.33,352.31,151.19,360,151.19,360Z" fill="#757575" stroke="#263238" stroke-linecap="round" stroke-linejoin="round" stroke-width="1"/>
    </clipPath>
    <clipPath id="clip-path-3">
      <path id="Path_343" data-name="Path 343" d="M228.16,354.77a150,150,0,0,0,.61,43c3.74,24,9.6,23.77,9.6,23.77s33.45-41.34,42.39-58.05c0,0-2.12-24-11.53-29.1Z" fill="#757575" stroke="#263238" stroke-linecap="round" stroke-linejoin="round" stroke-width="1"/>
    </clipPath>
    <clipPath id="clip-path-4">
      <path id="Path_349" data-name="Path 349" d="M203.05,360.63s-13.85-10.16-32.21-12.3S153,357,153,357a3.17,3.17,0,0,0-1.76,4C152,364.07,176.86,367,203.05,360.63Z" fill="#757575" stroke="#263238" stroke-linecap="round" stroke-linejoin="round" stroke-width="1"/>
    </clipPath>
  </defs>
  <g id="Directions-bro" transform="translate(-21.427 -29.116)">
    <g id="freepik--background-simple--inject-47">
      <path id="Path_215" data-name="Path 215" d="M67.93,167.09s-27.88,72,11.3,144.5S199.11,422.39,263.7,455.14s131.66,16.8,163.53-36.84-11.84-91.93-11.9-168.42,11.45-96.74-30-161.36-143.06-78.93-219.9-31S67.93,167.09,67.93,167.09Z" fill="#fff" opacity="0.7"/>
      <path id="Path_216" data-name="Path 216" d="M127,444.09c23.6,24.91,81.54,15.79,106.63,0,81.46-51.26,224.25-136.57,230.71-260.17,2.75-52.54-43.57-80.12-62.93-88.22C355,76.27,304,70.43,253.62,68.18c-52.57-2.35-109-.52-156.31,25.13C79.38,103,62.46,115.49,50.88,132.5c-11.77,17.28-18.54,37.85-20.33,58.62-2.9,33.5,6.11,67.09,19.74,97.83s31.81,59.21,48.49,88.4C109.66,396.4,107.14,423.09,127,444.09Z" fill="#92e3a9"/>
      <path id="Path_217" data-name="Path 217" d="M127,444.09c23.6,24.91,81.54,15.79,106.63,0,81.46-51.26,224.25-136.57,230.71-260.17,2.75-52.54-43.57-80.12-62.93-88.22C355,76.27,304,70.43,253.62,68.18c-52.57-2.35-109-.52-156.31,25.13C79.38,103,62.46,115.49,50.88,132.5c-11.77,17.28-18.54,37.85-20.33,58.62-2.9,33.5,6.11,67.09,19.74,97.83s31.81,59.21,48.49,88.4C109.66,396.4,107.14,423.09,127,444.09Z" fill="#fff" opacity="0.7"/>
    </g>
    <g id="freepik--Buildings--inject-47">
      <path id="Path_218" data-name="Path 218" d="M332.72,384.36c.28-86.36.28-182.36,0-268.14" fill="none" stroke="#263238" stroke-linecap="round" stroke-linejoin="round" stroke-width="1"/>
      <path id="Path_219" data-name="Path 219" d="M348.77,89.52c.23,95.48.23,179.48,0,274.93" fill="none" stroke="#263238" stroke-linecap="round" stroke-linejoin="round" stroke-width="1"/>
      <path id="Path_220" data-name="Path 220" d="M332.72,95.74v-35a19.35,19.35,0,0,1,8-1.43c5.66,0,8,1.43,8,1.43v9.74" fill="none" stroke="#263238" stroke-linecap="round" stroke-linejoin="round" stroke-width="1"/>
      <path id="Path_221" data-name="Path 221" d="M433.43,59.3l3.3,1.34-21.17,18L348.77,89.52l-3.16-.94" fill="none" stroke="#263238" stroke-linecap="round" stroke-linejoin="round" stroke-width="1"/>
      <path id="Path_222" data-name="Path 222" d="M345.61,71.17l64.61-14.24,23.21,2.37L413.49,77.15,345.61,88.58Z" fill="none" stroke="#263238" stroke-linecap="round" stroke-linejoin="round" stroke-width="1"/>
      <path id="Path_223" data-name="Path 223" d="M280.6,84.33l-2.71,1.62,16.42,19.59,38.4,10.68,4.1-1.03" fill="none" stroke="#263238" stroke-linecap="round" stroke-linejoin="round" stroke-width="1"/>
      <path id="Path_224" data-name="Path 224" d="M336.81,97.31,296.95,81.95,280.6,84.33l16.88,20.14,39.33,10.72Z" fill="none" stroke="#263238" stroke-linecap="round" stroke-linejoin="round" stroke-width="1"/>
      <line id="Line_12" data-name="Line 12" y2="340.95" transform="translate(208.26 108.49)" fill="none" stroke="#263238" stroke-linecap="round" stroke-linejoin="round" stroke-width="1"/>
      <path id="Path_225" data-name="Path 225" d="M114.63,82.57C146,90,177,101,208.26,108.49" fill="none" stroke="#263238" stroke-linecap="round" stroke-linejoin="round" stroke-width="1"/>
      <path id="Path_226" data-name="Path 226" d="M78.21,101.76C121,112,165,123,208.26,134" fill="none" stroke="#263238" stroke-linecap="round" stroke-linejoin="round" stroke-width="1"/>
      <path id="Path_227" data-name="Path 227" d="M50.22,124.93C102,137,155,148,208.26,159.43" fill="none" stroke="#263238" stroke-linecap="round" stroke-linejoin="round" stroke-width="1"/>
      <path id="Path_228" data-name="Path 228" d="M34.22,152q86.67,16.5,174,32.89" fill="none" stroke="#263238" stroke-linecap="round" stroke-linejoin="round" stroke-width="1"/>
      <line id="Line_13" data-name="Line 13" x2="186.26" y2="29.75" transform="translate(22 180.61)" fill="none" stroke="#263238" stroke-linecap="round" stroke-linejoin="round" stroke-width="1"/>
      <line id="Line_14" data-name="Line 14" x2="186.26" y2="24.29" transform="translate(22 211.54)" fill="none" stroke="#263238" stroke-linecap="round" stroke-linejoin="round" stroke-width="1"/>
      <path id="Path_229" data-name="Path 229" d="M26.34,242.9C87,248,147,256,208.26,261.3" fill="none" stroke="#263238" stroke-linecap="round" stroke-linejoin="round" stroke-width="1"/>
      <path id="Path_230" data-name="Path 230" d="M34.94,274.31C82,278,129,280,177,285c10,0,21,0,31.26,1.76" fill="none" stroke="#263238" stroke-linecap="round" stroke-linejoin="round" stroke-width="1"/>
      <path id="Path_231" data-name="Path 231" d="M46.59,305.35C101,308,154,311,208.26,312.23" fill="none" stroke="#263238" stroke-linecap="round" stroke-linejoin="round" stroke-width="1"/>
      <path id="Path_232" data-name="Path 232" d="M61.15,335.74C110,336,159,337,208.26,337.7" fill="none" stroke="#263238" stroke-linecap="round" stroke-linejoin="round" stroke-width="1"/>
      <path id="Path_233" data-name="Path 233" d="M78.13,365.25C121,365,165,364,208.26,363.17" fill="none" stroke="#263238" stroke-linecap="round" stroke-linejoin="round" stroke-width="1"/>
      <path id="Path_234" data-name="Path 234" d="M93,393.85c38-1.85,77-3.85,115.29-5.22" fill="none" stroke="#263238" stroke-linecap="round" stroke-linejoin="round" stroke-width="1"/>
      <line id="Line_15" data-name="Line 15" y2="296.62" transform="translate(196.49 121.21)" fill="none" stroke="#263238" stroke-linecap="round" stroke-linejoin="round" stroke-width="1"/>
      <line id="Line_16" data-name="Line 16" y2="184.29" transform="translate(140.51 95.53)" fill="none" stroke="#263238" stroke-linecap="round" stroke-linejoin="round" stroke-width="1"/>
      <line id="Line_17" data-name="Line 17" y2="203.66" transform="translate(76.81 120.4)" fill="none" stroke="#263238" stroke-linecap="round" stroke-linejoin="round" stroke-width="1"/>
      <path id="Path_235" data-name="Path 235" d="M460.62,127.76l-97.83,11.3V368.39" fill="none" stroke="#263238" stroke-linecap="round" stroke-linejoin="round" stroke-width="1"/>
      <path id="Path_236" data-name="Path 236" d="M467.57,157.21l-91.78,7.61V348.05" fill="none" stroke="#263238" stroke-linecap="round" stroke-linejoin="round" stroke-width="1"/>
      <line id="Line_18" data-name="Line 18" x1="89.13" y2="6.36" transform="translate(378.44 201.9)" fill="none" stroke="#263238" stroke-linecap="round" stroke-linejoin="round" stroke-width="1"/>
      <line id="Line_19" data-name="Line 19" x1="73.31" y2="4.77" transform="translate(381.07 240.75)" fill="none" stroke="#263238" stroke-linecap="round" stroke-linejoin="round" stroke-width="1"/>
      <line id="Line_20" data-name="Line 20" y2="140.66" transform="translate(411.71 168.71)" fill="none" stroke="#263238" stroke-linecap="round" stroke-linejoin="round" stroke-width="1"/>
      <path id="Path_237" data-name="Path 237" d="M115.74,427.46A63.16,63.16,0,0,0,127,444.09c23.6,24.91,82.55,15.79,107.64,0,8.25-5.19,16.12-10.74,25.42-16.63" fill="none" stroke="#263238" stroke-linecap="round" stroke-linejoin="round" stroke-width="1"/>
    </g>
    <g id="freepik--Map--inject-47">
      <path id="Path_238" data-name="Path 238" d="M350.9,258.16,341.72,294l16,93.17h-.12l-.39.08c-6.81,1.49-80.17,17.45-83.76,17.15-3.76-.31-62.7-9.38-62.7-9.38l-52.17,6.1-41.83-18.45L78.1,389.49,67.1,253s8.17-66.74,4.41-84.71c0,0,64.37,9.24,70.32,9.88S217,157,217,157l58.41,19.35,48.93-6.19,72.4,33.9S349.73,250.86,350.9,258.16Z" fill="#fff" stroke="#263238" stroke-linecap="round" stroke-linejoin="round" stroke-width="1"/>
      <path id="Path_239" data-name="Path 239" d="M79,174.16,141.83,183,216,164.74l59.35,16.61,46.57-5L386.44,204s-36.72,45.5-38.13,48.41S335.13,294,335.13,294l15.54,88.7-75.29,16.57-63.33-10.13-50.19,4.42-42.67-18.31L83.75,382.7,72.25,255.06S82.81,203.14,79,174.16Z" fill="#92e3a9" stroke="#263238" stroke-linecap="round" stroke-linejoin="round" stroke-width="1"/>
      <path id="Path_240" data-name="Path 240" d="M297.83,221.81,308,219.35l49.4,21.11c2.42-3.09,5.15-6.54,7.95-10.06L311.8,207.77l-11.28,3.16,7.07-33.07-9.35,1L289.66,214l-27.72,7.76-53.34,4.65L187.29,237l1-31.21,26.06-12.28,30.36,5.86,5.17-25.1-9.22-2.58-2.92,18.23-23.39-5-25.74,11.61.83-25.22L177,174.33v67.72l-31.61,15.7V182.12l-3.6.88-7.88-1.11,1.35,25.88H113.88L79.65,181c.22,3.86.25,8,.15,12.21l30.41,25.45h25.64l1,19.3-.94,8L72.87,262l.33,3.65,62.24-15.69L134,262.41,74.24,277.16l1.1,12.26L107,281.05l2.94,37.72L80.77,349.63l1.14,12.62,10.28-10.88,2.28,29.05,2.94-.62-2-31.83,21.29-22.52,10.3-2.63,40.77-13.15-.9,5.92L144.23,386l8.71,3.74,11.9-38.41,17.56-3.25,35.28,15.26,16.37,1.05-2.78,27.83,4.36.69,1.9-28.31,41.07,2.63,29.67-4.27,3.78,28.24,7.64-1.68L316,361.82l30.21-4.35-1.51-8.64-64.3,8.53-26-2.28,3.7-35,22.59-12.34h7l50.64,5.13-1.78-10.25-47.43-4.49H278.17l5.56-33.43Zm-168,89.1-17.2,5.1-2.28-35.87,26.5-7,39.52-20.4L169.86,296Zm55.78,27.33-17.83,3.54,7.4-23.78,11.19-70.39,22.53-11.63,8.75,35.48L214.38,301l-9.82,44.84Zm81.69-32.5-15.52,7.35-5.71,41.26-26-2.28-8.95-3.59,10-44.53L225,273.12h17.91l29.89-5Zm6.95-44.81-30,6.17H220.13l-7.26-31.75L259.94,231l26.58-6.46Z" fill="#fff" stroke="#263238" stroke-linecap="round" stroke-linejoin="round" stroke-width="1"/>
      <path id="Path_241" data-name="Path 241" d="M286.52,289.5l2.71-21.41,34.6,7.6-2.82,18.28Z" fill="#fff" opacity="0.5"/>
      <path id="Path_242" data-name="Path 242" d="M307.96,267.1l7.05-19.66,26.06,9.83-5.98,20.33Z" fill="#fff" opacity="0.5"/>
      <path id="Path_243" data-name="Path 243" d="M302.3,224.56h2.88l10.89,4.93-10.89,33.03-10.21-3.06-3.27-.72Z" fill="#fff" opacity="0.5"/>
      <path id="Path_244" data-name="Path 244" d="M323.83,233.32l25.42,10.22-4.23,7.32-24.01-7.32Z" fill="#fff" opacity="0.5"/>
      <path id="Path_245" data-name="Path 245" d="M307.96,204.02l4.93-22.67,8.12-1.29,12,4.82-8.5,23.37-11.46-4.23Z" fill="#fff" opacity="0.5"/>
      <path id="Path_246" data-name="Path 246" d="M329.83,210.7l5.3-13.04,35.66,16.24-7.06,10.66Z" fill="#fff" opacity="0.5"/>
      <path id="Path_247" data-name="Path 247" d="M253.84,180.06l18.94,5.48-5.75,30.13H247.57Z" fill="#fff" opacity="0.5"/>
      <path id="Path_248" data-name="Path 248" d="M277.58,186.37l14.12-2.4-5.18,26.73-13.74,3.56Z" fill="#fff" opacity="0.5"/>
      <path id="Path_249" data-name="Path 249" d="M243.69,204.02l-1.71,13.06-30.79,1.41-18.51,9.54V210.7l22.41-11.58Z" fill="#fff" opacity="0.5"/>
      <path id="Path_250" data-name="Path 250" d="M194.02,174.16l22.24-5.85-1.72,13.04-21.82,8.53Z" fill="#fff" opacity="0.5"/>
      <path id="Path_251" data-name="Path 251" d="M219.09,181.35l16.12,3.53,2.57-11.93-16.69-2.83Z" fill="#fff" opacity="0.5"/>
      <path id="Path_252" data-name="Path 252" d="M149.42,184.88v19.14l23.3-6.36v-17.6Z" fill="#fff" opacity="0.5"/>
      <path id="Path_253" data-name="Path 253" d="M151.02,211.11v37.83l12.87-5.4-2.03-23.28,10.86-3.18V204.02Z" fill="#fff" opacity="0.5"/>
      <path id="Path_254" data-name="Path 254" d="M111.99,223.08l1.77,24.36,16.94-3.9,2.72-7.6V223.08Z" fill="#fff" opacity="0.5"/>
      <path id="Path_255" data-name="Path 255" d="M84.46,204l22.35,17.3v12l-25.18,1.94S84.81,214.26,84.46,204Z" fill="#fff" opacity="0.5"/>
      <path id="Path_256" data-name="Path 256" d="M81.63,240.03l23.03-2.12v11.62l-27.08,7.39Z" fill="#fff" opacity="0.5"/>
      <path id="Path_257" data-name="Path 257" d="M111.99,183.97v16.52l18.71,1.41-.77-17.02Z" fill="#fff" opacity="0.5"/>
      <path id="Path_258" data-name="Path 258" d="M190.29,250.86l16.07-7.49,4.83,27.39L187.08,275Z" fill="#fff" opacity="0.5"/>
      <path id="Path_259" data-name="Path 259" d="M194.02,279.17l-1.3,18.76,16.72-1.76V275Z" fill="#fff" opacity="0.5"/>
      <path id="Path_260" data-name="Path 260" d="M241.98,237.91l-2.18,24.61h9.09l20.22-3.34,11.65-29.69-22.2,6.45Z" fill="#fff" opacity="0.5"/>
      <path id="Path_261" data-name="Path 261" d="M219.09,239.32V246l16.83-.48v-7.61Z" fill="#fff" opacity="0.5"/>
      <path id="Path_262" data-name="Path 262" d="M243.69,282.07l-1.71,19.75,22.19-3.89L267.03,275Z" fill="#fff" opacity="0.5"/>
      <path id="Path_263" data-name="Path 263" d="M224.27,307.77l15.53,1.11-3.88,39.63-14.9-.46-5.58-2.01Z" fill="#fff" opacity="0.5"/>
      <path id="Path_264" data-name="Path 264" d="M229.34,279.17l10.46,1.51-2.02,13.29H227.5Z" fill="#fff" opacity="0.5"/>
      <path id="Path_265" data-name="Path 265" d="M312.89,316.01l20.12,1.95,4.59,24.24-24.71.51Z" fill="#fff" opacity="0.5"/>
      <path id="Path_266" data-name="Path 266" d="M267.03,324.06l19.49-1.57,2.71,28.4H263.81Z" fill="#fff" opacity="0.5"/>
      <path id="Path_267" data-name="Path 267" d="M321.01,367.19l2.82,12.98,13.77-2.24-2.47-13.5Z" fill="#fff" opacity="0.5"/>
      <path id="Path_268" data-name="Path 268" d="M276.52,372.3l27.36-3.33,1.3,15.11-29.8,7.39-16.86-1.98,5.88-18.59Z" fill="#fff" opacity="0.5"/>
      <path id="Path_269" data-name="Path 269" d="M134.94,328.14l22.25-4.08-1.5,15.36-6.27,14.98-16,4.26Z" fill="#fff" opacity="0.5"/>
      <path id="Path_270" data-name="Path 270" d="M115.53,284.36v12.16l17.13-2.55,9.17-3.53L141.36,275l-6.24,4.17Z" fill="#fff" opacity="0.5"/>
      <path id="Path_271" data-name="Path 271" d="M79.86,293.97l22.6-5.56,2.2,23.35-21.62,4.25Z" fill="#fff" opacity="0.5"/>
      <path id="Path_272" data-name="Path 272" d="M81.44,335.48l12.9-11.42,3.35,3.1L84.35,339.97Z" fill="#fff" opacity="0.5"/>
      <path id="Path_273" data-name="Path 273" d="M84.81,367.19l6.31-1.49,1.14,12.73-6.25.91Z" fill="#fff" opacity="0.5"/>
      <path id="Path_274" data-name="Path 274" d="M101.4,374.91l-1.21-22.25,15.34-1.77v21.99Z" fill="#fff" opacity="0.5"/>
      <circle id="Ellipse_2" data-name="Ellipse 2" cx="8.63" cy="8.63" r="8.63" transform="translate(189.41 306.8)" fill="#fff" opacity="0.5"/>
      <path id="Path_275" data-name="Path 275" d="M350.9,258.16,341.72,294l16,93.17h-.12l-.39.08L273.46,404.4l21.77-146.72,29.08-87.56,72.4,33.9S349.73,250.86,350.9,258.16Z" fill="rgba(0,0,0,0.7)" opacity="0.1"/>
      <path id="Path_276" data-name="Path 276" d="M275.38,176.31l-22.16,78.55-19.3,34.12L210.76,395.02l-52.17,6.1,38.42-89.35,9.14-66.8,11.58-87.76Z" fill="rgba(0,0,0,0.7)" opacity="0.1"/>
      <path id="Path_277" data-name="Path 277" d="M141.36,178.14l-1.59,73L117.87,383.2l-1.11-.49L78.1,389.49,68,263.72l60.51-23.4,10-62.55Z" fill="rgba(0,0,0,0.7)" opacity="0.1"/>
    </g>
    <g id="freepik--Directions--inject-47">
      <path id="Path_278" data-name="Path 278" d="M292.66,217.68a1.32,1.32,0,0,0-1.29-.36L261,225.15l-51.67,3.9a1.29,1.29,0,0,0-.51.14L141,264l1-22V212.27a1.34,1.34,0,0,0-1.34-1.34H127a1.34,1.34,0,1,0,0,2.68h12.26V241.9l-1.08,24.27a1.32,1.32,0,0,0,.61,1.19,1.35,1.35,0,0,0,1.33.07l69.67-35.73,51.52-3.89a.851.851,0,0,0,.23,0l28.22-7.28-12.15,43a1,1,0,0,0,0,.14l-2,11.88h-1.14a.41.41,0,0,0-.4.5l1.69,4.69a.47.47,0,0,0,.83.18l3.16-4.57c.2-.28,0-.62-.43-.64h-1l1.89-11.46L293,219a1.32,1.32,0,0,0-.34-1.32Z" fill="#92e3a9"/>
      <path id="Path_279" data-name="Path 279" d="M292.66,217.68a1.32,1.32,0,0,0-1.29-.36L261,225.15l-51.67,3.9a1.29,1.29,0,0,0-.51.14L141,264l1-22V212.27a1.34,1.34,0,0,0-1.34-1.34H127a1.34,1.34,0,1,0,0,2.68h12.26V241.9l-1.08,24.27a1.32,1.32,0,0,0,.61,1.19,1.35,1.35,0,0,0,1.33.07l69.67-35.73,51.52-3.89a.851.851,0,0,0,.23,0l28.22-7.28-12.15,43a1,1,0,0,0,0,.14l-2,11.88h-1.14a.41.41,0,0,0-.4.5l1.69,4.69a.47.47,0,0,0,.83.18l3.16-4.57c.2-.28,0-.62-.43-.64h-1l1.89-11.46L293,219a1.32,1.32,0,0,0-.34-1.32Z" fill="rgba(0,0,0,0.7)" opacity="0.6"/>
      <path id="Path_280" data-name="Path 280" d="M133,164.14h0a14.61,14.61,0,0,0-20.67,0h0a14.63,14.63,0,0,0,0,20.67l10.34,10.33L133,184.81A14.61,14.61,0,0,0,133,164.14Zm-6,14.59h0a6,6,0,1,1,0-8.51h0a6,6,0,0,1,0,8.51Z" fill="#263238"/>
      <path id="Path_281" data-name="Path 281" d="M112.34,180.88a18.24,18.24,0,0,0,4.81,6.07" fill="none" stroke="#fff" stroke-linecap="round" stroke-linejoin="round" stroke-width="1"/>
      <path id="Path_282" data-name="Path 282" d="M115.89,164c-5,3-6.3,8.79-4.66,14.12" fill="none" stroke="#fff" stroke-linecap="round" stroke-linejoin="round" stroke-width="1"/>
      <path id="Path_283" data-name="Path 283" d="M122.71,162.06a13.12,13.12,0,0,0-3.73.56" fill="none" stroke="#fff" stroke-linecap="round" stroke-linejoin="round" stroke-width="1"/>
      <path id="Path_284" data-name="Path 284" d="M264.84,257h0a14.61,14.61,0,0,0-20.67,0h0a14.61,14.61,0,0,0,0,20.67L254.5,288l10.34-10.33A14.61,14.61,0,0,0,264.84,257Zm-6.08,14.59h0a6,6,0,1,1,0-8.51h0a6,6,0,0,1,0,8.51Z" fill="#263238"/>
      <path id="Path_285" data-name="Path 285" d="M244.14,273.74a18.25,18.25,0,0,0,4.81,6.08" fill="none" stroke="#fff" stroke-linecap="round" stroke-linejoin="round" stroke-width="1"/>
      <path id="Path_286" data-name="Path 286" d="M247.69,256.85c-5,3-6.3,8.78-4.66,14.12" fill="none" stroke="#fff" stroke-linecap="round" stroke-linejoin="round" stroke-width="1"/>
      <path id="Path_287" data-name="Path 287" d="M254.5,254.92a13.35,13.35,0,0,0-3.72.56" fill="none" stroke="#fff" stroke-linecap="round" stroke-linejoin="round" stroke-width="1"/>
    </g>
    <g id="freepik--Character--inject-47">
      <path id="Path_288" data-name="Path 288" d="M350.9,258.15c-1.18.48-11.06,1.65-11.06,1.65.23-2.35,5.18-6.59,5.18-8.94A1.69,1.69,0,0,0,342.9,249c-.47,3.06-8.24,8.7-9.89,9.41s-6.12,15.77-8.54,18.13c-19,18.94-37,29.89-43.71,43a53.19,53.19,0,0,1-18.36,19.91s-3.88,49.94,10.94,27.75,20.13-20.89,27.54-30.77S322.77,304,334.07,285c5.77-4.9,10.24-2.63,13.77-6.16.75-.75.24-3.77,1.41-5.75s3.06-5.55,2.83-7.67,1.65-3.29,1.88-4.47S352.08,257.68,350.9,258.15Z" fill="#bfbfbf" stroke="#263238" stroke-miterlimit="10" stroke-width="1"/>
      <path id="Path_289" data-name="Path 289" d="M123,327.58c-3.84-14.23-19.2-28.66-33.86-51.12C87.27,273.65,86,258,84.55,257s-7.9-8.16-7.73-11.25a1.69,1.69,0,0,0-2.46,1.4c-.49,2.3,3.47,7.47,3.22,9.82,0,0-9.43-3.19-10.49-3.9s-3.56.93-3.57,2.13,1.58,2.74.91,4.77.44,5.91,1.18,8.09-.38,5,.19,5.91c2.73,4.19,7.57,2.89,12.2,8.88,7.14,20.84,16.63,45.93,21.84,57.14s10.66,11,20.58,35.81,16.45-24.89,16.45-24.89A53.22,53.22,0,0,1,123,327.58Z" fill="#bfbfbf" stroke="#263238" stroke-miterlimit="10" stroke-width="1"/>
      <path id="Path_290" data-name="Path 290" d="M129.24,334.35s2.56-6.08-2.22-8-10.79,1.55-10.79,1.55-8.83,2.21-9.18,11.55c0,0-2,31.34,5.36,31.46S129.24,334.35,129.24,334.35Z" fill="#999" stroke="#263238" stroke-linecap="round" stroke-linejoin="round" stroke-width="1"/>
      <path id="Path_291" data-name="Path 291" d="M267,335.44s-.39-4.92,5.61-4.27,10.94,9.2,10.59,21.17c0,0,2.75,15.27-4.63,14.85S267,335.44,267,335.44Z" fill="#999" stroke="#263238" stroke-linecap="round" stroke-linejoin="round" stroke-width="1"/>
      <path id="Path_292" data-name="Path 292" d="M151.19,362.49S130.74,338.66,127,330.42c0,0-14.08-.46-16,11.89a95,95,0,0,0,0,24.88s13.88,37.88,19.65,52.22Z" fill="#757575"/>
      <g id="Group_26" data-name="Group 26" clip-path="url(#clip-path)">
        <g id="Group_21" data-name="Group 21" opacity="0.3">
          <path id="Path_293" data-name="Path 293" d="M144,353.86a26,26,0,0,0-9.44,3.18c-.77.42-1.55.89-2.33,1.42a11.919,11.919,0,0,0-2,1.69c-3,3-5,7.53-6.25,12.86a69.941,69.941,0,0,0-1.44,8.36,114.859,114.859,0,0,0-.68,14.83c-1.7-4.51-3.38-9-4.9-13.11h0a79.814,79.814,0,0,1,1.34-9.14h0a50.349,50.349,0,0,1,2-7.13,27,27,0,0,1,6.9-11.14,16.481,16.481,0,0,1,2.08-1.64c.78-.52,1.56-1,2.32-1.44a32.66,32.66,0,0,1,8.63-3.45Z" fill="#92e3a9"/>
        </g>
        <g id="Group_22" data-name="Group 22" opacity="0.3">
          <path id="Path_294" data-name="Path 294" d="M136.14,344a62.369,62.369,0,0,0-8.09,2.94c-.91.4-1.84.84-2.81,1.31a14.006,14.006,0,0,0-2,1.18c-3.33,2.4-5.64,6.26-7.25,10.67a50.159,50.159,0,0,0-1.91,7.06c-.39,2-.68,4-.91,5.94l-2.16-5.88s-.34-2.28-.59-5.84a6.022,6.022,0,0,0-.07-1.11,43.45,43.45,0,0,1,2.16-5.55,24.65,24.65,0,0,1,8.09-10,18.2,18.2,0,0,1,2.24-1.3c.86-.43,1.71-.82,2.53-1.19a70.6,70.6,0,0,1,7.31-2.83Q134.345,341.635,136.14,344Z" fill="#92e3a9"/>
        </g>
        <g id="Group_23" data-name="Group 23" opacity="0.3">
          <path id="Path_295" data-name="Path 295" d="M128.88,333.78a29.3,29.3,0,0,0-6.56,2.59,33.611,33.611,0,0,0-4.56,2.91,46.889,46.889,0,0,0-7.15,6.65c.11-1.2.26-2.41.44-3.61a12.83,12.83,0,0,1,4.1-7.87h0l.13-.08a39.181,39.181,0,0,1,3.32-2.14c.42-.25.85-.48,1.28-.71l.08.16a19.3,19.3,0,0,1,2.4-.7,20.509,20.509,0,0,1,4.63-.53A30.674,30.674,0,0,0,128.88,333.78Z" fill="#92e3a9"/>
        </g>
        <g id="Group_24" data-name="Group 24" opacity="0.3">
          <path id="Path_296" data-name="Path 296" d="M141.16,365.4l-4,3.58a95.926,95.926,0,0,1-7-8.83c-1.05-1.47-2.06-3-3.05-4.49-1.33-2.06-2.62-4.15-3.85-6.25q-1.36-2.34-2.64-4.68c-1-1.83-2-3.66-2.88-5.45s-1.68-3.34-2.45-4.94h0a14.639,14.639,0,0,1,3.33-2.13c.42-.25.85-.48,1.28-.71l.08.16c.74,1.53,1.51,3.11,2.33,4.72,1,1.92,2,3.89,3.09,5.87q1.28,2.34,2.64,4.68,1.68,2.85,3.48,5.66,1.47,2.28,3,4.46A93,93,0,0,0,141.16,365.4Z" fill="#92e3a9"/>
        </g>
        <g id="Group_25" data-name="Group 25" opacity="0.3">
          <path id="Path_297" data-name="Path 297" d="M136,398.49,130.85,400c-1.53-5.21-4.6-11.74-8.36-18.63-1.33-2.45-2.76-4.94-4.24-7.43h0c-1.34-2.28-2.73-4.55-4.13-6.79-1.21-2-2.43-3.9-3.66-5.78a6.022,6.022,0,0,0-.07-1.11c-.15-2.57-.23-5.66-.12-9l2.28,3.45c1.14,1.74,2.31,3.55,3.48,5.38,1.4,2.2,2.81,4.45,4.2,6.72,1.26,2.06,2.5,4.14,3.7,6.21C129.29,382.25,133.92,391.43,136,398.49Z" fill="#92e3a9"/>
        </g>
        <path id="Path_298" data-name="Path 298" d="M135.58,405.86l-4.88,13.55c-5.77-14.34-19.65-52.21-19.65-52.21a95,95,0,0,1,0-24.88c1.17-7.68,7-10.41,11.34-11.37a6.905,6.905,0,0,1,.76.17s-11.14,7.13-9.92,34.58l10.85,30s1.14-10.45,5.48-8.94C131.43,387.43,134.09,396.1,135.58,405.86Z" fill="rgba(0,0,0,0.7)" opacity="0.2"/>
      </g>
      <path id="Path_300" data-name="Path 300" d="M151.19,362.49S130.74,338.66,127,330.42c0,0-14.08-.46-16,11.89a95,95,0,0,0,0,24.88s13.88,37.88,19.65,52.22Z" fill="none" stroke="#263238" stroke-linecap="round" stroke-linejoin="round" stroke-width="1"/>
      <path id="Path_301" data-name="Path 301" d="M195.22,341.21c-.1.41-.51.75-1.2,1a16.72,16.72,0,0,1-6,.44c-12.75-.7-38.62-8.27-44.79-23.33-6.59-16.07,10.32-37.05,28.42-37.5,10.4-.25,19.17,12,21.28,26.44C194,315.22,199.91,321,195.22,341.21Z" fill="#bfbfbf" stroke="#263238" stroke-miterlimit="10" stroke-width="1"/>
      <path id="Path_302" data-name="Path 302" d="M186.38,318a7,7,0,0,0-.71,4.31" fill="none" stroke="#263238" stroke-linecap="round" stroke-linejoin="round" stroke-width="1"/>
      <path id="Path_303" data-name="Path 303" d="M186.48,326.34s1.85,2.5,3.18,1.34" fill="none" stroke="#263238" stroke-linecap="round" stroke-linejoin="round" stroke-width="1"/>
      <path id="Path_304" data-name="Path 304" d="M194,342.21a16.72,16.72,0,0,1-6,.44c.26-1.89.76-4.08.92-5.18.52-3.47-1.22-4.55-.48-4.8s.67,2.84,2.14,4.41A22.78,22.78,0,0,1,194,342.21Z" fill="#263238"/>
      <path id="Path_305" data-name="Path 305" d="M189,339.57s-2.27,8.7-2,13.11a55.841,55.841,0,0,0,1.83,10l-27.46,1.59s4.11-19.77,1.91-26.69,17.56-4.4,17.56-4.4" fill="#bfbfbf" stroke="#263238" stroke-miterlimit="10" stroke-width="1"/>
      <path id="Path_306" data-name="Path 306" d="M185.86,298.76c1.15-3.74,3.2-3.36,3.2-3.36s-1.33-17.95-9-19.86c-5.18-1.3-6.6,6.5-12,.88-3-3.15-8.48-4-12.15-1.34-2.17,1.6-2.1,3.83-3.55,5.77s-4.44,1.86-6.64,2.31c-3.4.69-6.85,3.22-7.56,6.8-.58,2.92,3,5.23,2.3,7.63-.83,2.87-3.5,4.61-5.15,7-2,2.86-2.18,6.58-1.41,9.9,1.15,4.94,3.7,6.87,7.67,9.39,2,1.26,3.17,3.55,4.4,5.48,4.12,6.48,9.12,11.22,17,12.56,15.81,2.7,22.89-11.89,22.89-11.89s-1.78-14.46-.49-16.11,4,4,4,4C192.66,309.12,185.86,298.76,185.86,298.76Z" fill="#263238"/>
      <path id="Path_307" data-name="Path 307" d="M189.53,320.15c-.48-1.76-.14-9-2.33-8.34-1.92.59-1,8.06,1,13.05s4.45,5,4.52,3.55-1.59-2.36-2-4.45" fill="#bfbfbf" stroke="#263238" stroke-miterlimit="10" stroke-width="1"/>
      <path id="Path_308" data-name="Path 308" d="M184.73,289.78s.87-8.25-4.7-8-5.28,8-5.28,8-4.68-1.59-6.28,1.11.05,8.16.05,8.16-5,1.59-3.77,4.94-2,3.85-2,3.85" fill="none" stroke="#fff" stroke-linecap="round" stroke-linejoin="round" stroke-width="1" opacity="0.3"/>
      <path id="Path_309" data-name="Path 309" d="M183.46,296.52s-.88,7.3-6.09,7.47c0,0-5.36,16.48-23.57,16.13" fill="none" stroke="#fff" stroke-linecap="round" stroke-linejoin="round" stroke-width="1" opacity="0.3"/>
      <path id="Path_310" data-name="Path 310" d="M169.51,280.68s-4.2-3.93-9.25-1.52-1.69,9.25-1.69,9.25-4.9-.3-6.51,3.4,3.16,6.12,3.16,6.12-5.44,2.89-3.16,5.18,0,6.89,0,6.89" fill="none" stroke="#fff" stroke-linecap="round" stroke-linejoin="round" stroke-width="1" opacity="0.3"/>
      <path id="Path_311" data-name="Path 311" d="M148.51,288.41s-7.62,2.4-6,8.11,2.9,5.69,2.9,5.69-5.71,2-6.06,6.11,4.59,3.94,4.59,3.94-1.59,4.14,2.47,5.7" fill="none" stroke="#fff" stroke-linecap="round" stroke-linejoin="round" stroke-width="1" opacity="0.3"/>
      <path id="Path_312" data-name="Path 312" d="M151.19,360s18.39-13,51.86.66l25.11-5.86s16.24,44.11,6.5,89.32c0,0-21.79,15.63-58.27,15.55-39.57-.1-49.37-15.55-49.37-15.55l5.66-14.43c-3.41-16.48-7.82-42.9-4.46-56.58C133.33,352.31,151.19,360,151.19,360Z" fill="#757575"/>
      <g id="Group_37" data-name="Group 37" clip-path="url(#clip-path-2)">
        <g id="Group_27" data-name="Group 27" opacity="0.3">
          <path id="Path_313" data-name="Path 313" d="M226.34,448.79c-1.52.74-3.26,1.52-5.18,2.32-.16-1.91-.32-3.8-.46-5.67s-.29-3.8-.42-5.67c-.42-5.66-.77-11.08-1.07-16.23q-.17-2.94-.31-5.77-.6-11.58-.87-21.3-.09-3.15-.16-6.09-.21-10.32-.15-18.24c0-2.08,0-4,.06-5.88q.09-5.22.24-9.12l5.39-1.26c-.08,2.26-.17,4.91-.23,7.95h0c0,1.87-.07,3.87-.09,6,0,5,0,10.87.09,17.52q0,3,.13,6.27.25,9.86.84,21.79c.1,1.9.19,3.85.3,5.83q.45,7.74,1,16.28.21,2.81.43,5.7C226.05,445.07,226.19,446.91,226.34,448.79Z" fill="#92e3a9"/>
        </g>
        <g id="Group_28" data-name="Group 28" opacity="0.3">
          <path id="Path_314" data-name="Path 314" d="M210.45,358.91c-.4,2.95-.82,6.48-1.24,10.54-.2,1.84-.4,3.8-.58,5.86-.53,5.88-1,12.6-1.38,20-.09,1.94-.18,3.93-.24,6-.24,6.61-.36,13.69-.28,21.16,0,1.88,0,3.78.08,5.7q.16,8,.64,16.6c.11,1.84.22,3.7.36,5.58q.16,2.58.39,5.19c-1.69.46-3.45.9-5.28,1.3-.13-1.59-.26-3.17-.36-4.74-.14-1.86-.26-3.71-.37-5.54-.35-5.76-.57-11.37-.69-16.81-.06-1.89-.09-3.75-.11-5.6-.09-7.39,0-14.41.2-21q.09-3,.22-5.81c.32-7.53.79-14.4,1.31-20.47.18-2,.35-3.91.53-5.73.42-4.13.84-7.79,1.23-10.91Z" fill="#92e3a9"/>
        </g>
        <g id="Group_29" data-name="Group 29" opacity="0.3">
          <path id="Path_315" data-name="Path 315" d="M192.53,357c-.54,4.26-1.18,10-1.82,16.82q-.26,2.65-.49,5.52c-.52,6.35-1,13.49-1.4,21.21-.09,1.82-.18,3.66-.25,5.54-.27,6.66-.43,13.7-.46,21v5.46c0,5.8.16,11.76.41,17.81.07,1.81.15,3.62.25,5.45,0,1.06.11,2.11.18,3.17-1.74.17-3.52.32-5.34.41-.05-.83-.1-1.66-.14-2.48-.1-1.81-.19-3.61-.26-5.41-.27-6.23-.41-12.36-.45-18.34v-5.39c0-7.31.18-14.35.44-21,.07-1.85.14-3.66.23-5.45.37-7.73.85-14.91,1.38-21.32.15-1.88.31-3.7.47-5.44.71-7.78,1.44-14.18,2-18.79C189,356.13,190.72,356.54,192.53,357Z" fill="#92e3a9"/>
        </g>
        <g id="Group_30" data-name="Group 30" opacity="0.3">
          <path id="Path_316" data-name="Path 316" d="M173.57,459.6c-1.87,0-3.68-.11-5.42-.23,0-.3-.07-.61-.1-.93-.18-1.74-.33-3.53-.45-5.38-.42-6.24-.55-13-.68-20.27v-.88c0-1.49-.05-3-.08-4.56-.12-6.51-.3-13.45-.71-20.78-.1-1.78-.21-3.6-.34-5.43-.18-2.59-.39-5.21-.64-7.88-.45-4.74-.68-9-.73-12.94,0-1.9,0-3.69.06-5.38a76.52,76.52,0,0,1,3-20.17,56.5,56.5,0,0,1,5.77-.36c-1.43,3.92-3.07,10.55-3.39,20.82-.05,1.69-.07,3.47,0,5.36q.06,5.49.68,12.16.43,4.53.73,8.9c.12,1.82.23,3.61.32,5.38.39,7.41.56,14.41.68,21,0,1.3,0,2.57.07,3.83v1.55c.13,7,.26,13.61.68,19.61.12,1.84.27,3.62.47,5.34A6.566,6.566,0,0,0,173.57,459.6Z" fill="#92e3a9"/>
        </g>
        <g id="Group_31" data-name="Group 31" opacity="0.3">
          <path id="Path_317" data-name="Path 317" d="M155.68,379.13a98.566,98.566,0,0,0-.07,10.44c.17,3.33.24,6.49.24,9.54,0,1.89,0,3.72-.07,5.54-.16,6.2-.56,12.08-1,18.14,0,.54-.07,1.09-.11,1.64-.13,1.82-.25,3.66-.36,5.53-.32,5-.57,10.21-.63,15.82v4.36q.06,3.08.23,5.83c0,.55.06,1.1.11,1.63q-2.92-.57-5.46-1.28c-.05-.8-.09-1.62-.13-2.47-.09-1.94-.13-4-.14-6.11v-2c.06-6.27.36-12,.71-17.51.13-1.9.25-3.76.38-5.61v-.2c.45-6.47.88-12.71,1-19.36v-5.69c0-2.42-.09-4.92-.22-7.52a105.82,105.82,0,0,1,.11-11.93c.1-1.83.25-3.65.41-5.46.44-4.67,1.07-9.21,1.74-13.28a33.24,33.24,0,0,1,5-2.16h.05q.39-.15.81-.27c-.89,5-1.79,10.91-2.34,17C155.9,375.52,155.77,377.33,155.68,379.13Z" fill="#92e3a9"/>
        </g>
        <g id="Group_32" data-name="Group 32" opacity="0.3">
          <path id="Path_318" data-name="Path 318" d="M149,359.25c.76.19,1.37.4,1.74.53a17.41,17.41,0,0,0-7.4,10,22.09,22.09,0,0,0-.85,5.45,29.508,29.508,0,0,0,.09,3.84q.68,7.83.86,15.12.105,3,.1,6a186.8,186.8,0,0,1-.93,19.46q-.27,2.85-.66,5.63c-.14,1.07-.29,2.14-.46,3.2-.63,4-1.25,8.84-1.76,13.77-.21,2.09-.41,4.19-.58,6.27q-.17,2.13-.3,4.2a41.32,41.32,0,0,1-5.17-2.83c.13-1.73.29-3.46.45-5.13.22-2.32.46-4.54.7-6.57.7-6.05,1.36-10.42,1.38-10.54q.36-2.35.66-4.77.36-2.85.6-5.77a181.858,181.858,0,0,0,.69-19.69c0-2.1-.09-4.22-.18-6.39q-.23-5.59-.74-11.52a34.791,34.791,0,0,1,0-6.64,26.368,26.368,0,0,1,1.13-5.45,22,22,0,0,1,5.41-8.89,20.76,20.76,0,0,1,5.22.72Z" fill="#92e3a9"/>
          <path id="Path_319" data-name="Path 319" d="M157.59,357Z" fill="#92e3a9"/>
        </g>
        <g id="Group_33" data-name="Group 33" opacity="0.3">
          <path id="Path_320" data-name="Path 320" d="M231.43,365.61c-2.29,1.3-5.08,2.77-8.35,4.25q-2.49,1.14-5.36,2.28c-2.78,1.1-5.82,2.17-9.09,3.17q-2.65.81-5.51,1.53a123.821,123.821,0,0,1-12.9,2.54c-1.76.25-3.58.46-5.42.64-3.92.39-8,.6-12.28.6h-2.74c-1.84,0-3.64-.13-5.38-.27a83.441,83.441,0,0,1-8.72-1.19q-2.76-.54-5.31-1.22a67.993,67.993,0,0,1-7.92-2.64q-2.74-1.09-5.21-2.34a66,66,0,0,1-7.5-4.42,19.75,19.75,0,0,1,2.71-4.62,61,61,0,0,0,5.92,3.59c1.54.82,3.19,1.61,4.93,2.34a62.944,62.944,0,0,0,7.48,2.63c1.68.49,3.44.91,5.28,1.28a72.193,72.193,0,0,0,8.4,1.21c1.73.16,3.51.25,5.35.29h2.65a119.11,119.11,0,0,0,12.821-.691c1.849-.2,3.663-.439,5.429-.719a116,116,0,0,0,12.94-2.75c1.93-.52,3.78-1.08,5.56-1.66,3.1-1,6-2.1,8.57-3.19,2-.81,3.74-1.63,5.39-2.43h0c2.65-1.28,4.91-2.5,6.75-3.58C230.38,361.76,230.89,363.56,231.43,365.61Z" fill="#92e3a9"/>
        </g>
        <g id="Group_34" data-name="Group 34" opacity="0.3">
          <path id="Path_321" data-name="Path 321" d="M235.57,385.62a117.3,117.3,0,0,1-12.27,8c-1.67,1-3.42,1.9-5.27,2.82a106.1,106.1,0,0,1-11,4.81c-1.76.66-3.56,1.28-5.42,1.84a92.749,92.749,0,0,1-13,3c-1.76.27-3.56.5-5.38.66q-3.7.34-7.56.35c-1.36,0-2.74,0-4.12-.11-1.79-.09-3.58-.24-5.4-.46a9.373,9.373,0,0,1-1.05-.12,77.827,77.827,0,0,1-9.28-1.8q-2.76-.72-5.32-1.6a73.161,73.161,0,0,1-7-2.8c-1.88-.87-3.67-1.8-5.38-2.77a74.462,74.462,0,0,1-11-7.66c-.1-2.55-.12-5,0-7.32a70,70,0,0,0,10.87,8.59q2.59,1.67,5.46,3.14a66.124,66.124,0,0,0,7.08,3.13c1.72.65,3.52,1.23,5.37,1.75a68.76,68.76,0,0,0,9.9,2h0c1.82.24,3.62.41,5.42.51a77.406,77.406,0,0,0,12.23-.31c1.83-.19,3.64-.44,5.4-.75a88.131,88.131,0,0,0,13-3.28c1.86-.62,3.68-1.29,5.44-2a106,106,0,0,0,10.62-4.94q2.81-1.5,5.3-3a116,116,0,0,0,11.38-7.8C234.91,381.5,235.25,383.52,235.57,385.62Z" fill="#92e3a9"/>
        </g>
        <g id="Group_35" data-name="Group 35" opacity="0.3">
          <path id="Path_322" data-name="Path 322" d="M237.77,413.43v1.21c-3.84,2.09-8.35,4.38-13.33,6.63-1.69.77-3.44,1.53-5.23,2.27-3.93,1.64-8.1,3.21-12.4,4.6-1.74.56-3.52,1.09-5.31,1.58a107.855,107.855,0,0,1-13.39,2.88c-1.78.26-3.56.46-5.35.61-2.12.18-4.25.28-6.36.28-1.38,0-2.75,0-4.12-.12-1.63-.1-3.25-.27-4.87-.5l-.49-.08A90.444,90.444,0,0,1,154.33,430c-1.79-.54-3.54-1.12-5.27-1.74q-3.67-1.34-7.15-2.88-2.61-1.15-5.08-2.4-3.17-1.57-6.08-3.26c-.41-2.27-.81-4.63-1.2-7q3.72,2.31,7.88,4.52c1.66.87,3.38,1.72,5.14,2.54q3.33,1.55,6.87,2.9c1.71.65,3.46,1.27,5.25,1.82a83.836,83.836,0,0,0,12.13,2.92c.45.08.9.15,1.36.21,1.32.19,2.66.33,4,.43a67.915,67.915,0,0,0,10.56-.17c1.79-.17,3.57-.39,5.36-.68a105.7,105.7,0,0,0,13.28-3q2.7-.78,5.34-1.68c4.23-1.42,8.31-3,12.17-4.67,1.8-.76,3.55-1.55,5.24-2.33,5.18-2.41,9.8-4.84,13.56-6.94C237.75,410.13,237.77,411.77,237.77,413.43Z" fill="#92e3a9"/>
        </g>
        <g id="Group_36" data-name="Group 36" opacity="0.3">
          <path id="Path_323" data-name="Path 323" d="M236.63,432.39c-.12,1-.26,2-.41,3s-.35,2.26-.54,3.4c-2.7,1.28-6,2.8-9.77,4.43-1.65.72-3.4,1.45-5.21,2.19-4,1.63-8.34,3.3-12.89,4.88-1.73.6-3.48,1.19-5.25,1.75-4.52,1.44-9.16,2.74-13.79,3.79-1.77.42-3.54.78-5.3,1.1a99.274,99.274,0,0,1-9.85,1.34h-.19c-1.32.11-2.64.15-3.92.15h-1.46A49.7,49.7,0,0,1,154,456a51.871,51.871,0,0,1-5.48-2.12,64.261,64.261,0,0,1-14.37-9.03,72.788,72.788,0,0,1-5.43-4.93l2.18-5.53c1.11,1.18,2.43,2.5,3.95,3.89s3.1,2.69,4.9,4.06a58.865,58.865,0,0,0,8.65,5.43,47.069,47.069,0,0,0,5.39,2.4,44.92,44.92,0,0,0,13.87,2.92A43.848,43.848,0,0,0,173,453h.23a91.694,91.694,0,0,0,10-1.41q2.64-.51,5.31-1.14c4.58-1.08,9.19-2.42,13.67-3.88,1.78-.58,3.54-1.18,5.26-1.79,4.54-1.62,8.88-3.32,12.83-5,1.83-.75,3.56-1.5,5.2-2.22C230.13,435.53,234,433.7,236.63,432.39Z" fill="#92e3a9"/>
        </g>
        <path id="Path_324" data-name="Path 324" d="M203.24,360.58c-7.37,4.2-25.09,13.3-38.27,12.29-10.58-.81-15-7.83-16-13.62a16,16,0,0,1,2.23.72s18.39-13,51.86.66Z" fill="rgba(0,0,0,0.7)" opacity="0.2"/>
        <path id="Path_325" data-name="Path 325" d="M179.46,459.6h-3.07c-39.56-.1-49.37-15.56-49.37-15.56l5.67-14.43a288.159,288.159,0,0,1-5.22-34.06c3.09,6.39,22.32,43.44,50.79,43.28C198.44,438.75,188.78,451,179.46,459.6Z" fill="rgba(0,0,0,0.7)" opacity="0.2"/>
        <path id="Path_326" data-name="Path 326" d="M237.77,413.43a150.56,150.56,0,0,1-1.55,22c-10.45-12.59-7.16-35.42-7.16-35.42C230.44,408.9,235.06,412.22,237.77,413.43Z" fill="rgba(0,0,0,0.7)" opacity="0.2"/>
      </g>
      <path id="Path_328" data-name="Path 328" d="M151.19,360s18.39-13,51.86.66l25.11-5.86s16.24,44.11,6.5,89.32c0,0-21.79,15.63-58.27,15.55-39.57-.1-49.37-15.55-49.37-15.55l5.66-14.43c-3.41-16.48-7.82-42.9-4.46-56.58C133.33,352.31,151.19,360,151.19,360Z" fill="none" stroke="#263238" stroke-linecap="round" stroke-linejoin="round" stroke-width="1"/>
      <path id="Path_329" data-name="Path 329" d="M163.66,367.09c11.56.45,25.6.37,35.68-6.06" fill="none" stroke="#263238" stroke-linecap="round" stroke-linejoin="round" stroke-width="1"/>
      <path id="Path_330" data-name="Path 330" d="M157.19,366.66c1,.11,2.07.19,3.11.26" fill="none" stroke="#263238" stroke-linecap="round" stroke-linejoin="round" stroke-width="1"/>
      <path id="Path_331" data-name="Path 331" d="M166.11,438.57a25.7,25.7,0,0,0,.79,5.52" fill="none" stroke="#263238" stroke-linecap="round" stroke-linejoin="round" stroke-width="1"/>
      <path id="Path_332" data-name="Path 332" d="M163.07,369.72a25.38,25.38,0,0,0-1.84,14.38c4.46,17,7.14,33,4.84,50.24" fill="none" stroke="#263238" stroke-linecap="round" stroke-linejoin="round" stroke-width="1"/>
      <path id="Path_333" data-name="Path 333" d="M169.37,427a38.4,38.4,0,0,0,17.71.17" fill="none" stroke="#263238" stroke-linecap="round" stroke-linejoin="round" stroke-width="1"/>
      <path id="Path_334" data-name="Path 334" d="M133.08,391.07c6.28,14.82,17.62,27.46,32.13,34.58" fill="none" stroke="#263238" stroke-linecap="round" stroke-linejoin="round" stroke-width="1"/>
      <path id="Path_335" data-name="Path 335" d="M130.12,382.67c.34,1.2.71,2.4,1.12,3.59" fill="none" stroke="#263238" stroke-linecap="round" stroke-linejoin="round" stroke-width="1"/>
      <path id="Path_336" data-name="Path 336" d="M228.16,354.77a150,150,0,0,0,.61,43c3.74,24,9.6,23.77,9.6,23.77s33.45-41.34,42.39-58.05c0,0-2.12-24-11.53-29.1Z" fill="#757575"/>
      <g id="Group_43" data-name="Group 43" clip-path="url(#clip-path-3)">
        <g id="Group_38" data-name="Group 38" opacity="0.3">
          <path id="Path_337" data-name="Path 337" d="M274.76,373.18c-1.35,2-2.8,4.13-4.34,6.31-.79-4.75-1.71-9.14-2.71-13.2q-.72-3-1.52-5.71c-1.13-4-2.34-7.58-3.56-10.83q-1-2.75-2.08-5.16-1.12-2.61-2.21-4.83l4.86-2.42c.62,1.25,1.24,2.57,1.87,4,.71,1.61,1.42,3.32,2.13,5.16q1.8,4.62,3.52,10.23c.54,1.81,1.08,3.7,1.58,5.68Q273.64,367.43,274.76,373.18Z" fill="#92e3a9"/>
        </g>
        <g id="Group_39" data-name="Group 39" opacity="0.3">
          <path id="Path_338" data-name="Path 338" d="M262.5,390.4c-1.58,2.11-3.15,4.21-4.72,6.26a192.426,192.426,0,0,0-3-20h0q-.59-3-1.26-5.79c-1.08-4.69-2.28-9-3.49-12.94q-.87-2.76-1.74-5.27c-.83-2.43-1.66-4.66-2.45-6.69l4.86-2.41c.74,1.87,1.52,3.91,2.3,6.13q.89,2.49,1.78,5.27c1.17,3.71,2.34,7.78,3.42,12.19q.69,2.81,1.34,5.79C260.71,378.33,261.72,384.15,262.5,390.4Z" fill="#92e3a9"/>
        </g>
        <g id="Group_40" data-name="Group 40" opacity="0.3">
          <path id="Path_339" data-name="Path 339" d="M249.83,407c-1.64,2.12-3.18,4.07-4.57,5.83-1.22-8.91-2.76-17.71-4.4-26q-.57-2.91-1.16-5.72c-1.15-5.51-2.33-10.71-3.46-15.46-.44-1.87-.88-3.66-1.3-5.37-.71-2.88-1.39-5.53-2-7.92l4.9-2.44q.915,3.48,2,7.7c.44,1.72.88,3.52,1.34,5.4h0c1.07,4.5,2.2,9.43,3.32,14.67.4,1.87.8,3.79,1.2,5.74h0C247.16,391,248.61,398.9,249.83,407Z" fill="#92e3a9"/>
        </g>
        <g id="Group_41" data-name="Group 41" opacity="0.3">
          <path id="Path_340" data-name="Path 340" d="M274.8,340.68c-2.3,1.83-4.83,3.79-7.6,5.81q-2.19,1.61-4.57,3.26Q259,352.31,254.8,355c-1.53,1-3.12,2-4.75,3q-4.25,2.58-8.92,5.14h0c-1.6.88-3.22,1.75-4.89,2.62-3,1.55-6.07,3.09-9.27,4.59,0-2.22.13-4.24.25-6.05h0q4-1.92,7.72-3.9c1.65-.89,3.27-1.77,4.85-2.66,3-1.66,5.81-3.34,8.52-5q2.43-1.49,4.71-3c2.66-1.72,5.17-3.43,7.53-5.1,1.57-1.11,3.08-2.19,4.52-3.26,2.39-1.77,4.59-3.48,6.61-5.09a15.81,15.81,0,0,1,1.78,2.2A19.787,19.787,0,0,1,274.8,340.68Z" fill="#92e3a9"/>
        </g>
        <g id="Group_42" data-name="Group 42" opacity="0.3">
          <path id="Path_341" data-name="Path 341" d="M279.67,356c-2.32,2.06-4.78,4.21-7.37,6.42q-2.24,1.92-4.59,3.89c-2.63,2.19-5.35,4.42-8.15,6.65-1.56,1.24-3.15,2.49-4.76,3.72h0c-3,2.3-6.05,4.59-9.15,6.82h0c-1.59,1.15-3.18,2.28-4.79,3.39-4.13,2.85-8.32,5.58-12.49,8.09-.28-2-.5-3.94-.69-5.84,4-2.49,8-5.18,12-8,1.59-1.12,3.18-2.25,4.75-3.41,3.09-2.25,6.13-4.56,9.09-6.88,1.58-1.24,3.15-2.48,4.68-3.72,2.75-2.2,5.41-4.41,8-6.57,1.54-1.31,3.06-2.59,4.53-3.86,2.68-2.33,5.22-4.58,7.59-6.71C278.87,352.09,279.32,354.14,279.67,356Z" fill="#92e3a9"/>
        </g>
        <path id="Path_342" data-name="Path 342" d="M280.76,363.45c-8.95,16.71-42.4,58.05-42.4,58.05s-5,.21-8.69-18.62c2.73,10.15,10.13,11.19,10.13,11.19L273.88,369c-3.63-7.72-.51-29.94-.42-30.53C279.31,347,280.76,363.45,280.76,363.45Z" fill="rgba(0,0,0,0.7)" opacity="0.2"/>
      </g>
      <path id="Path_344" data-name="Path 344" d="M228.16,354.77a150,150,0,0,0,.61,43c3.74,24,9.6,23.77,9.6,23.77s33.45-41.34,42.39-58.05c0,0-2.12-24-11.53-29.1Z" fill="none" stroke="#263238" stroke-linecap="round" stroke-linejoin="round" stroke-width="1"/>
      <path id="Path_345" data-name="Path 345" d="M203.05,360.63s-13.85-10.16-32.21-12.3S153,357,153,357a3.17,3.17,0,0,0-1.76,4C152,364.07,176.86,367,203.05,360.63Z" fill="#757575"/>
      <g id="Group_47" data-name="Group 47" clip-path="url(#clip-path-4)">
        <g id="Group_44" data-name="Group 44" opacity="0.3">
          <path id="Path_346" data-name="Path 346" d="M169.74,348.21a34.85,34.85,0,0,0-1.29,3.7c-.45,1.5-.9,3.28-1.31,5.36s-.75,4.38-1,7c-2-.09-3.74-.24-5.36-.41.25-2.49.58-4.72.93-6.72s.77-3.82,1.2-5.4c.36-1.37.74-2.57,1.11-3.64a34,34,0,0,1,5.72.11Z" fill="#92e3a9"/>
        </g>
        <g id="Group_45" data-name="Group 45" opacity="0.3">
          <path id="Path_347" data-name="Path 347" d="M184.43,351.43v2.2c-.07,1.58-.18,3.38-.39,5.4-.15,1.5-.35,3.12-.6,4.85-1.89.17-3.72.29-5.49.38.35-2.19.6-4.2.78-6,.2-2.05.31-3.85.36-5.39v-3C180.93,350.31,182.73,350.85,184.43,351.43Z" fill="#92e3a9"/>
        </g>
        <g id="Group_46" data-name="Group 46" opacity="0.3">
          <path id="Path_348" data-name="Path 348" d="M203.05,360.63c-2,.47-3.88.9-5.81,1.28-4.65-1.25-9.09-2.19-13.24-2.88-1.83-.31-3.59-.57-5.31-.79-4.23-.55-8.1-.83-11.55-1-2-.08-3.79-.1-5.46-.09a94.919,94.919,0,0,0-9.75.52,3.35,3.35,0,0,1,1-.69,7.88,7.88,0,0,1,1.91-5c2.17-.16,4.87-.27,8-.26,1.72,0,3.58,0,5.57.13,3.21.16,6.76.45,10.6.94q2.58.31,5.34.78c3.27.54,6.73,1.22,10.32,2.09h0a63.879,63.879,0,0,1,8.38,4.97Z" fill="#92e3a9"/>
        </g>
      </g>
      <path id="Path_350" data-name="Path 350" d="M203.05,360.63s-13.85-10.16-32.21-12.3S153,357,153,357a3.17,3.17,0,0,0-1.76,4C152,364.07,176.86,367,203.05,360.63Z" fill="none" stroke="#263238" stroke-linecap="round" stroke-linejoin="round" stroke-width="1"/>
      <path id="Path_351" data-name="Path 351" d="M173,355.84a35.2,35.2,0,0,1,5.25,1.17" fill="none" stroke="#263238" stroke-linecap="round" stroke-linejoin="round" stroke-width="1"/>
      <path id="Path_352" data-name="Path 352" d="M153,357a54.639,54.639,0,0,1,16.41-1.54" fill="none" stroke="#263238" stroke-linecap="round" stroke-linejoin="round" stroke-width="1"/>
      <path id="Path_353" data-name="Path 353" d="M121.2,355.76a48.9,48.9,0,0,0,.34,5.27" fill="none" stroke="#263238" stroke-linecap="round" stroke-linejoin="round" stroke-width="1"/>
      <path id="Path_354" data-name="Path 354" d="M129.24,334.35c-5.56,3.64-7.53,11.53-8,17.69" fill="none" stroke="#263238" stroke-linecap="round" stroke-linejoin="round" stroke-width="1"/>
      <path id="Path_355" data-name="Path 355" d="M261.18,380.85a15.75,15.75,0,0,1-5,3.61" fill="none" stroke="#263238" stroke-linecap="round" stroke-linejoin="round" stroke-width="1"/>
      <path id="Path_356" data-name="Path 356" d="M277,345.83c-3.35,10.6-6.92,22.21-13.31,32" fill="none" stroke="#263238" stroke-linecap="round" stroke-linejoin="round" stroke-width="1"/>
      <path id="Path_357" data-name="Path 357" d="M238.37,421.5s-5.16,2.51-12-11.64" fill="none" stroke="#263238" stroke-linecap="round" stroke-linejoin="round" stroke-width="1"/>
      <path id="Path_358" data-name="Path 358" d="M229.8,435.06c-5,8.69-12.08,16.77-21.6,20.45" fill="none" stroke="#263238" stroke-linecap="round" stroke-linejoin="round" stroke-width="1"/>
      <path id="Path_359" data-name="Path 359" d="M233.65,427c-.52,1.41-1.13,2.78-1.78,4.13" fill="none" stroke="#263238" stroke-linecap="round" stroke-linejoin="round" stroke-width="1"/>
    </g>
  </g>
</svg>
