<svg xmlns="http://www.w3.org/2000/svg" width="468.024" height="446.143" viewBox="0 0 468.024 446.143">
  <g id="Authentication-bro" transform="translate(-12.123 -28.507)">
    <g id="freepik--background-simple--inject-3">
      <path id="Path_14" data-name="Path 14" d="M400.7,431.59c24.71-22.22,43.07-52.57,56.93-82,20.59-43.72,31.55-98.27,2.81-140.78-16.58-24.52-42.48-40-71.23-45.83-27.66-5.6-54.56-4.39-78.35-21.92-24.06-17.75-45-39.89-66.54-60.5-55.38-53-156-37.8-202.73,33.56s-34,164.06,11,207.06C93,359.81,149.38,367.36,194,397.56c22.11,15,37.57,37.07,61,50.24,27.25,15.31,60.66,21.59,91.36,13.77C367.26,456.24,385.22,445.51,400.7,431.59Z" fill="#92e3a9"/>
      <path id="Path_15" data-name="Path 15" d="M400.7,431.59c24.71-22.22,43.07-52.57,56.93-82,20.59-43.72,31.55-98.27,2.81-140.78-16.58-24.52-42.48-40-71.23-45.83-27.66-5.6-54.56-4.39-78.35-21.92-24.06-17.75-45-39.89-66.54-60.5-55.38-53-156-37.8-202.73,33.56s-34,164.06,11,207.06C93,359.81,149.38,367.36,194,397.56c22.11,15,37.57,37.07,61,50.24,27.25,15.31,60.66,21.59,91.36,13.77C367.26,456.24,385.22,445.51,400.7,431.59Z" fill="#fff" opacity="0.7"/>
    </g>
    <g id="freepik--Plants--inject-3">
      <line id="Line_1" data-name="Line 1" x1="3.87" y1="36.33" transform="translate(442.89 407.52)" fill="none" stroke="#263238" stroke-linecap="round" stroke-linejoin="round" stroke-width="0.985"/>
      <path id="Path_16" data-name="Path 16" d="M442.87,408.54s-6.95-5.41-6.95-17.78,9.27-22.41,9.27-22.41,10.05,12.37,7.73,24.73S442.87,408.54,442.87,408.54Z" fill="#92e3a9" stroke="#263238" stroke-linecap="round" stroke-linejoin="round" stroke-width="0.985"/>
      <line id="Line_2" data-name="Line 2" y1="27.3" x2="1.77" transform="translate(442.89 380.22)" fill="none" stroke="#263238" stroke-linecap="round" stroke-linejoin="round" stroke-width="0.985"/>
      <path id="Path_17" data-name="Path 17" d="M450.33,441.17a161.911,161.911,0,0,1,12.31-25.07" fill="none" stroke="#263238" stroke-linecap="round" stroke-linejoin="round" stroke-width="0.985"/>
      <path id="Path_18" data-name="Path 18" d="M459,422.67s-3.86-7.93,1.6-19,18.22-16,18.22-16,3.55,15.53-4,25.6S459,422.67,459,422.67Z" fill="#92e3a9" stroke="#263238" stroke-linecap="round" stroke-linejoin="round" stroke-width="0.985"/>
      <line id="Line_3" data-name="Line 3" y1="23.13" x2="14.07" transform="translate(459 399.54)" fill="none" stroke="#263238" stroke-linecap="round" stroke-linejoin="round" stroke-width="0.985"/>
      <path id="Path_19" data-name="Path 19" d="M440.49,444.41a100.59,100.59,0,0,0-8.5-20.09L426.58,415" fill="none" stroke="#263238" stroke-linecap="round" stroke-linejoin="round" stroke-width="0.985"/>
      <path id="Path_20" data-name="Path 20" d="M430.93,422.21a26.45,26.45,0,0,1-25-5.22c-12-10.08-11.33-30.65-11.33-30.65s23.26-3.32,32.65,9.86a27.65,27.65,0,0,1,3.68,26.01Z" fill="#92e3a9" stroke="#263238" stroke-linecap="round" stroke-linejoin="round" stroke-width="0.985"/>
      <line id="Line_4" data-name="Line 4" x1="27.57" y1="28.73" transform="translate(403.36 393.48)" fill="none" stroke="#263238" stroke-linecap="round" stroke-linejoin="round" stroke-width="0.985"/>
      <rect id="Rectangle_10" data-name="Rectangle 10" width="29.43" height="28.86" transform="translate(430.05 436.07)" fill="#263238" stroke="#263238" stroke-linecap="round" stroke-linejoin="round" stroke-width="0.985"/>
    </g>
    <g id="freepik--Window--inject-3">
      <rect id="Rectangle_11" data-name="Rectangle 11" width="196.86" height="165.85" transform="translate(213.45 29)" fill="#fff" stroke="#263238" stroke-linecap="round" stroke-linejoin="round" stroke-width="0.985"/>
      <path id="Path_21" data-name="Path 21" d="M254.31,122.24h-1.6l-.27-1.82H250.5l-.28,1.82h-1.45l1.61-10.07h2.32Zm-3.61-3.19h1.52l-.76-5.1Z" fill="#263238"/>
      <path id="Path_22" data-name="Path 22" d="M256.55,112.17v7.77c0,.72.32,1,.82,1s.83-.26.83-1v-7.77h1.49v7.67c0,1.61-.8,2.53-2.36,2.53s-2.36-.92-2.36-2.53v-7.67Z" fill="#263238"/>
      <path id="Path_23" data-name="Path 23" d="M260.31,112.17h4.89v1.44h-1.65v8.63H262v-8.63h-1.65Z" fill="#263238"/>
      <path id="Path_24" data-name="Path 24" d="M267.48,122.24h-1.59V112.17h1.59v4.32h1.79v-4.32h1.62v10.07h-1.62v-4.31h-1.79Z" fill="#263238"/>
      <path id="Path_25" data-name="Path 25" d="M273.62,116.41h2.17v1.44h-2.17v3h2.73v1.44H272V112.17h4.31v1.44h-2.73Z" fill="#263238"/>
      <path id="Path_26" data-name="Path 26" d="M278.74,115v7.29h-1.42V112.17h2l1.63,6v-6h1.41v10.07h-1.63Z" fill="#263238"/>
      <path id="Path_27" data-name="Path 27" d="M283,112.17h4.9v1.44h-1.66v8.63h-1.58v-8.63H283Z" fill="#263238"/>
      <path id="Path_28" data-name="Path 28" d="M288.6,112.17h1.58v10.07H288.6Z" fill="#263238"/>
      <path id="Path_29" data-name="Path 29" d="M295.92,118.49v1.34c0,1.61-.8,2.53-2.36,2.53s-2.36-.92-2.36-2.53v-5.24c0-1.62.81-2.54,2.36-2.54s2.36.92,2.36,2.54v1h-1.49v-1.08c0-.72-.32-1-.82-1s-.82.28-.82,1v5.44c0,.72.31,1,.82,1s.82-.25.82-1v-1.44Z" fill="#263238"/>
      <path id="Path_30" data-name="Path 30" d="M302,122.24h-1.6l-.27-1.82H298.2l-.28,1.82h-1.45l1.61-10.07h2.32Zm-3.61-3.19h1.52l-.76-5.1Z" fill="#263238"/>
      <path id="Path_31" data-name="Path 31" d="M301.73,112.17h4.9v1.44H305v8.63h-1.58v-8.63h-1.66Z" fill="#263238"/>
      <path id="Path_32" data-name="Path 32" d="M308.9,116.41h2.17v1.44H308.9v3h2.74v1.44h-4.32V112.17h4.32v1.44H308.9Z" fill="#263238"/>
      <path id="Path_33" data-name="Path 33" d="M316.33,118.9l-2-6.73H316l1.21,4.59,1.21-4.59h1.51l-2,6.73v3.34h-1.58Z" fill="#263238"/>
      <path id="Path_34" data-name="Path 34" d="M320.2,114.59a2.4,2.4,0,1,1,4.8,0v5.24a2.4,2.4,0,0,1-4.8,0Zm1.58,5.34c0,.72.32,1,.82,1s.82-.27.82-1v-5.44c0-.72-.32-1-.82-1s-.82.28-.82,1Z" fill="#263238"/>
      <path id="Path_35" data-name="Path 35" d="M327.53,112.17v7.77c0,.72.32,1,.82,1s.82-.26.82-1v-7.77h1.5v7.67c0,1.61-.8,2.53-2.36,2.53s-2.36-.92-2.36-2.53v-7.67Z" fill="#263238"/>
      <path id="Path_36" data-name="Path 36" d="M335.06,122.24a3,3,0,0,1-.14-1.24v-1.58c0-.93-.32-1.28-1-1.28h-.55v4.1h-1.58V112.17h2.39c1.64,0,2.34.76,2.34,2.32v.79a2,2,0,0,1-1,2c.79.33,1.05,1.09,1.05,2.14V121a2.91,2.91,0,0,0,.17,1.22Zm-1.73-8.63v3.09H334c.59,0,.95-.26.95-1.06v-1c0-.72-.24-1-.8-1Z" fill="#263238"/>
      <path id="Path_37" data-name="Path 37" d="M344.89,122.24h-1.6l-.27-1.82h-1.95l-.27,1.82h-1.45L341,112.17h2.32Zm-3.61-3.19h1.52L342,114Z" fill="#263238"/>
      <path id="Path_38" data-name="Path 38" d="M350.2,118.49v1.34c0,1.61-.81,2.53-2.36,2.53s-2.36-.92-2.36-2.53v-5.24c0-1.62.8-2.54,2.36-2.54s2.36.92,2.36,2.54v1h-1.5v-1.08c0-.72-.32-1-.82-1s-.82.28-.82,1v5.44c0,.72.32,1,.82,1s.82-.25.82-1v-1.44Z" fill="#263238"/>
      <path id="Path_39" data-name="Path 39" d="M355.75,118.49v1.34c0,1.61-.8,2.53-2.36,2.53s-2.36-.92-2.36-2.53v-5.24c0-1.62.81-2.54,2.36-2.54s2.36.92,2.36,2.54v1h-1.5v-1.08c0-.72-.31-1-.82-1s-.82.28-.82,1v5.44c0,.72.32,1,.82,1s.82-.25.82-1v-1.44Z" fill="#263238"/>
      <path id="Path_40" data-name="Path 40" d="M356.58,114.59a2.41,2.41,0,1,1,4.81,0v5.24a2.41,2.41,0,1,1-4.81,0Zm1.59,5.34c0,.72.31,1,.82,1s.82-.27.82-1v-5.44c0-.72-.32-1-.82-1s-.82.28-.82,1Z" fill="#263238"/>
      <path id="Path_41" data-name="Path 41" d="M363.92,112.17v7.77c0,.72.32,1,.82,1s.82-.26.82-1v-7.77h1.5v7.67c0,1.61-.8,2.53-2.36,2.53s-2.36-.92-2.36-2.53v-7.67Z" fill="#263238"/>
      <path id="Path_42" data-name="Path 42" d="M369.55,115v7.29h-1.42V112.17h2l1.63,6v-6h1.41v10.07h-1.63Z" fill="#263238"/>
      <path id="Path_43" data-name="Path 43" d="M373.82,112.17h4.9v1.44h-1.66v8.63h-1.58v-8.63h-1.66Z" fill="#263238"/>
      <circle id="Ellipse_1" data-name="Ellipse 1" cx="22.58" cy="22.58" r="22.58" transform="matrix(0.159, -0.987, 0.987, 0.159, 286.92, 96.397)" fill="#92e3a9"/>
      <path id="Path_44" data-name="Path 44" d="M322.65,72.49a9.85,9.85,0,1,1-9.85-9.85A9.85,9.85,0,0,1,322.65,72.49Z" fill="#263238"/>
      <path id="Path_45" data-name="Path 45" d="M296.59,93.4a22.56,22.56,0,0,0,32.42,0v-.65a8.68,8.68,0,0,0-8.68-8.69H305.28a8.69,8.69,0,0,0-8.69,8.69Z" fill="#263238"/>
      <rect id="Rectangle_12" data-name="Rectangle 12" width="136.22" height="16.56" transform="translate(244.25 140.39)" fill="none" stroke="#263238" stroke-miterlimit="10" stroke-width="0.985"/>
      <rect id="Rectangle_13" data-name="Rectangle 13" width="136.22" height="16.56" transform="translate(244.25 165.22)" fill="#92e3a9" stroke="#263238" stroke-miterlimit="10" stroke-width="0.985"/>
      <path id="Path_46" data-name="Path 46" d="M289.94,149.14v1h-2.46v3.58h3v1h-4.14V144.68h4.14v1h-3v3.44Z" fill="#bdbdbd"/>
      <path id="Path_47" data-name="Path 47" d="M292.53,154.76h-1V144.68H293l2.33,7.28v-7.28h1v10.08h-1.17l-2.58-8.15Z" fill="#bdbdbd"/>
      <path id="Path_48" data-name="Path 48" d="M298.89,154.76V145.7H297v-1h4.84v1H300v9.06Z" fill="#bdbdbd"/>
      <path id="Path_49" data-name="Path 49" d="M306.23,149.14v1h-2.46v3.58h3v1h-4.14V144.68h4.14v1h-3v3.44Z" fill="#bdbdbd"/>
      <path id="Path_50" data-name="Path 50" d="M310.07,144.68c1.59,0,2.25.81,2.25,2.3v.82a1.89,1.89,0,0,1-1.25,2.08c.92.27,1.26,1,1.26,2.1v1.57a2.64,2.64,0,0,0,.2,1.21H311.4a2.65,2.65,0,0,1-.19-1.23V152c0-1.14-.53-1.5-1.47-1.5H309v4.31h-1.12V144.68Zm-.28,4.75c.89,0,1.42-.29,1.42-1.38v-1c0-.9-.33-1.38-1.17-1.38H309v3.73Z" fill="#bdbdbd"/>
      <path id="Path_51" data-name="Path 51" d="M320.18,147.11V148h-1.07v-1c0-.91-.36-1.46-1.18-1.46s-1.18.55-1.18,1.46v5.32c0,.91.37,1.46,1.18,1.46s1.18-.55,1.18-1.46v-1.31h1.07v1.25c0,1.53-.73,2.54-2.28,2.54s-2.26-1-2.26-2.54v-5.21c0-1.52.72-2.53,2.26-2.53S320.18,145.59,320.18,147.11Z" fill="#bdbdbd"/>
      <path id="Path_52" data-name="Path 52" d="M321.11,147.11c0-1.54.76-2.53,2.3-2.53a2.217,2.217,0,0,1,2.32,2.53v5.21c0,1.53-.76,2.54-2.32,2.54s-2.3-1-2.3-2.54Zm1.11,5.27c0,.92.39,1.46,1.19,1.46s1.2-.54,1.2-1.46v-5.32c0-.91-.38-1.46-1.2-1.46s-1.19.55-1.19,1.46Z" fill="#bdbdbd"/>
      <path id="Path_53" data-name="Path 53" d="M329.15,144.68c1.57,0,2.29.95,2.29,2.51v5.08c0,1.54-.72,2.49-2.29,2.49h-2.36V144.68Zm0,9c.8,0,1.19-.5,1.19-1.42v-5.18c0-.92-.39-1.43-1.21-1.43h-1.21v8Z" fill="#bdbdbd"/>
      <path id="Path_54" data-name="Path 54" d="M336.07,149.14v1h-2.46v3.58h3v1h-4.15V144.68h4.15v1h-3v3.44Z" fill="#bdbdbd"/>
      <path id="Path_55" data-name="Path 55" d="M303.2,169.6c1.56,0,2.28,1,2.28,2.51v5.08c0,1.54-.72,2.49-2.28,2.49h-2.37V169.6Zm0,9.06c.81,0,1.2-.51,1.2-1.43v-5.18c0-.92-.39-1.42-1.21-1.42H302v8Z" fill="#263238"/>
      <path id="Path_56" data-name="Path 56" d="M306.45,172c0-1.54.76-2.54,2.3-2.54s2.32,1,2.32,2.54v5.21a2.22,2.22,0,0,1-2.32,2.53c-1.54,0-2.3-1-2.3-2.53Zm1.1,5.27c0,.92.39,1.45,1.2,1.45s1.19-.53,1.19-1.45V172c0-.91-.37-1.46-1.19-1.46s-1.2.55-1.2,1.46Z" fill="#263238"/>
      <path id="Path_57" data-name="Path 57" d="M313.12,179.68h-1V169.6h1.42l2.33,7.29V169.6h1v10.08H315.7l-2.58-8.15Z" fill="#263238"/>
      <path id="Path_58" data-name="Path 58" d="M321.6,174.07v1h-2.46v3.59h3v1H318V169.6h4.15v1h-3v3.44Z" fill="#263238"/>
      <rect id="Rectangle_14" data-name="Rectangle 14" width="196.86" height="8.02" transform="translate(213.45 29)" fill="#92e3a9" stroke="#263238" stroke-linecap="round" stroke-linejoin="round" stroke-width="0.985"/>
      <line id="Line_5" data-name="Line 5" y1="1.48" transform="translate(81.72 283.79)" fill="none" stroke="#263238" stroke-linecap="round" stroke-linejoin="round" stroke-width="0.985"/>
      <path id="Path_59" data-name="Path 59" d="M81.72,280.86V154.07a19.5,19.5,0,0,1,19.51-19.5H194" fill="none" stroke="#263238" stroke-linecap="round" stroke-linejoin="round" stroke-width="0.985" stroke-dasharray="2.927 2.927"/>
      <line id="Line_6" data-name="Line 6" x2="1.47" transform="translate(195.51 134.57)" fill="none" stroke="#263238" stroke-linecap="round" stroke-linejoin="round" stroke-width="0.985"/>
      <path id="Path_60" data-name="Path 60" d="M206.73,135.38l-15.94-9.21v18.41Z" fill="#263238"/>
      <line id="Line_7" data-name="Line 7" x2="1.48" transform="translate(358.9 408.76)" fill="none" stroke="#263238" stroke-linecap="round" stroke-linejoin="round" stroke-width="0.985"/>
      <path id="Path_61" data-name="Path 61" d="M363.31,408.76h5.47a19.57,19.57,0,0,0,19.57-19.57v-185" fill="none" stroke="#263238" stroke-linecap="round" stroke-linejoin="round" stroke-width="0.985" stroke-dasharray="2.93 2.93"/>
      <line id="Line_8" data-name="Line 8" y1="1.47" transform="translate(388.35 201.26)" fill="none" stroke="#263238" stroke-linecap="round" stroke-linejoin="round" stroke-width="0.985"/>
      <path id="Path_62" data-name="Path 62" d="M353.32,407.9l15.94,9.2V398.69Z" fill="#263238"/>
    </g>
    <g id="freepik--Character--inject-3">
      <path id="Path_63" data-name="Path 63" d="M269.79,287.86a10,10,0,0,1,8.88-5.35h85.55s6.18,0,4.33,11.75-27.21,83.49-33.4,105.13-7.42,67.41-7.42,67.41H225.07S233.3,357.53,269.79,287.86Z" fill="#fff" stroke="#263238" stroke-linecap="round" stroke-linejoin="round" stroke-width="0.985"/>
      <path id="Path_64" data-name="Path 64" d="M349.38,302.92c-8.65,20.18-27,100-29.92,163.88h8.27s1.27-45.8,7.42-67.41,31.54-93.38,33.4-105.13-4.33-11.75-4.33-11.75S356.31,286.74,349.38,302.92Z" fill="#263238" stroke="#263238" stroke-linecap="round" stroke-linejoin="round" stroke-width="0.985"/>
      <path id="Path_65" data-name="Path 65" d="M186.7,284.13s-15.7-1.91-26.07-12.81,22.54-49.77,40.11-58.93,24.81-6.65,43.65,7.24,37.23,36.18,37,51.13-8.37,22.1,3,29.47,43.55,28.3,48.25,42.68-3.45,32.27-22.32,42-49.83,9.28-79.65-.36S194.36,344.41,198.2,332s14-20.94,10.94-30.38S186.7,284.13,186.7,284.13Z" fill="#263238" stroke="#263238" stroke-linecap="round" stroke-linejoin="round" stroke-width="0.985"/>
      <path id="Path_66" data-name="Path 66" d="M200.16,327s-16.24-2.26-23.74,2.59-44.56,68.19-44.56,68.19l-20.47-27.55L93.64,378.2s8.32,32.2,18,48.22,15.2,17.64,18.52,17.11c9.88-1.57,38.5-34.68,38.5-34.68l10.4,34.6L172,468.6H303.5L287.55,442s20.81-96,15.51-106.17S266.88,327,257.17,327h-27.8a69.3,69.3,0,0,1-12.79,1.32A161.215,161.215,0,0,1,200.16,327Z" fill="#92e3a9"/>
      <path id="Path_67" data-name="Path 67" d="M288,330.24l.27.11-2.52,6.42-.28-.11Zm-.69,7.14.27.11,2.53-6.42-.28-.11Zm11.47,20.43-.29-.08-1.11,3.95h.31Zm1.9.54-.29-.08-1,3.41h.3Zm-12,.22.94,3.11h.31l-1-3.2Zm2.18-.65-.29.08,1.11,3.68h.31Zm8.05-14.69,3.43-6-.25-.15-3.43,6Zm1.72,1,3.21-5.61a1.3,1.3,0,0,0-.06-.48l-3.41,5.95Zm2.25,8.53.57-.75.06-.55-.87,1.12Zm-8.49-6.09,4.78,5,.21-.2-4.78-5ZM292.88,348l4.77,5,.22-.2-4.78-5Zm-5.27,0,.08-.29L284,346.8v.3Zm-3.66-3,4.15,1.05.07-.29-4.17-1Zm4.63,8.93-.09-.28L284,355.21v.31Zm-.71-2.16-3.92,1.3v.31l4-1.33Zm-2.17,55.87,2.52-6.42-.27-.11-2.53,6.42Zm4.08-5.81-2.52,6.42.27.11,2.53-6.42Zm-.13,30.1-.77-2.57-.29.08.94,3.1Zm5-43.18-.28.1,2.34,6.49h.06l.09-.45Zm1.57-.57,1.23,3.39a4.147,4.147,0,0,1,.1-.58l-1.05-2.91Zm4.38-16.9.16.53.09-.6Zm-6.58-.39-.4,6.88h.29l.4-6.89Zm1.57,7h.29l.4-6.89h-.29Zm-8.41-7.3.14-.26-3.4-1.83v.34Zm-3.26-4,4.19,2.25.14-.26L284,366.33ZM286.54,377l-.19-.22L284,379v.39Zm-1.29-1.49-.19-.23-1.14,1v.39ZM284,387.34v.31l6.22-2.43-.11-.27Zm0-2.12v.32l5.5-2.15-.11-.28Zm3.67,12.52.07-.29-3.74-.84v.3Zm.43-1.92.07-.29-4.17-.94v.3ZM287.61,419l.08-.28-3.74-.95v.31ZM284,416l4.15,1.06.07-.29L284,415.71Zm4.63,8.93-.09-.28-4.54,1.5v.32Zm-.62-1.87-.09-.28-3.92,1.3v.31Zm8.89-58.62.79-2.77h-.31l-.76,2.69Zm2.83-2.77h-.3l-.91,3.22.28.09Zm-9.1,3.49.29-.08-1-3.41h-.31Zm2.17-.65-.85-2.84h-.31l.88,2.93Zm1.65,95.35,2.34,6.48.28-.1-2.34-6.48Zm4.47,5.71-2.34-6.48-.28.1,2.35,6.48Zm3.31,1.6-.29-.08-.42,1.5h.31ZM284,439.85l3.26,1.75.14-.26-3.4-1.83Zm0-2.24,4,2.19.06-.3L284,437.28ZM286.57,448l-.19-.23L284,449.9v.38Zm-1.29-1.5-.19-.22-1.14,1v.39Zm4.78,9.36L284,458.28v.32l6.22-2.44Zm-6.11.59,5.5-2.15-.11-.27-5.39,2.1Zm0,11.07v.31l3.31.74h.38l.05-.2Zm4.1-.79.07-.29-4.17-.94v.31Zm-73.57-130.1.27.11,2.53-6.42-.28-.11Zm1.83.72.28.11,2.52-6.42-.27-.11Zm64.62,8.95,3,.77v-.3l-2.95-.75Zm.56-2.19-.08.28,2.54.65v-.31ZM284,355.52v-.31l-2,.67.09.28ZM281.32,354l.09.28,2.54-.84v-.31ZM276,361.68h.34l1.3-2.26-.25-.15Zm2.28,0h.34l.73-1.28-.25-.15Zm-14.87-2.76-.23.19,2.11,2.57h.38Zm1.3-1.06,3.13,3.82h.38l-3.28-4Zm-7.46,3.37-.27.1.12.35h.32Zm1.58-.57.37,1h.31l-.4-1.12Zm-10.82,1,.85-3.35-.29-.07-.87,3.42Zm2.47-2.94-.75,2.94H250l.73-2.86Zm-22.67-.93-.29-.08-1.12,3.95h.31Zm1.89.54-.28-.08-1,3.41h.31Zm-12,.22.94,3.11h.31l-1-3.2Zm2.17-.65-.28.08,1.11,3.68h.3Zm8.06-14.69,3.43-6-.26-.15-3.43,6Zm1.46.84.25.14,3.43-6-.26-.15Zm39.13,4.4,6.35,2.69.11-.27-6.35-2.69Zm-.77,1.81,6.35,2.69.11-.27-6.4-2.68Zm5.35-10.36.28.08,1.88-6.63-.29-.09Zm1.89.54.29.08,1.87-6.64-.28-.08ZM264.67,328.1l2,6.6.28-.08L265,328Zm1.88-.57,2,6.6.28-.08-2-6.6ZM244.76,355.8l-2-6.6-.28.08,2,6.61Zm1.89-.57-2-6.6-.29.08,2,6.61Zm7.8-3.82,6.83-1v-.29l-6.83,1Zm.28,1.95,6.83-1v-.29l-6.83,1Zm5-8.41.29.07,1.54-6.72-.29-.07Zm3.46-6.28-1.54,6.72.29.07,1.54-6.72ZM239,341.12l.25.16,3.69-5.83-.25-.15Zm5.61-4.61-.25-.16-3.69,5.83.25.16Zm-6.41-6.71,6.32-2.76v-.07h-.54l-5.87,2.56Zm.67,1.53.12.27,6.32-2.75-.12-.27Zm-6-4.36h-.31L231,332.39l.29.08Zm-3.45,5,1.4-5h-.31l-1.38,4.88Zm27.06-2.88L255.8,327h-.31l.65,2.16Zm-2.17.65.29-.08-.8-2.65h-.31ZM231.67,352.6l.23.18,4.2-5.47-.24-.18Zm1.56,1.2.24.18,4.19-5.48-.23-.18Zm-9.82-7.11,4.78,5,.22-.2-4.78-5ZM221.93,348l4.78,5,.21-.2-4.77-5Zm26.18-8.84-.12.27,6.35,2.7.12-.28Zm.65-1.54,6.35,2.69.12-.27-6.35-2.69ZM216.67,348l.07-.29L213,346.8v.3Zm-3.66-3,4.14,1.05.08-.29-4.23-1Zm4.63,8.93-.1-.28L213,355.21v.31Zm-.72-2.16-3.91,1.3v.31l4-1.33Zm.08,49.34-2.52,6.42.27.11,2.53-6.42Zm1.84.72-2.53,6.42.28.11,2.52-6.42Zm62.3-34.51,2.81,1.52v-.34l-2.67-1.44Zm1.07-2-.14.25,1.88,1v-.34ZM284,379l-2.79,2.42.19.22,2.6-2.25Zm-3.89,1.15,3.89-3.36v-.39l-4.08,3.52Zm3.58,7.36.1.28.21-.09v-.31Zm-.72-1.83.1.27.93-.36v-.32Zm1,11-3-.68-.07.29,3.06.69Zm0-2-2.56-.58-.06.29,2.62.59Zm0,23.15L281,417l-.07.29,3,.77Zm-2.46-2.66-.08.29L284,416v-.3Zm2.49,11.3v-.32l-2,.67.09.28Zm0-2.08v-.31l-2.63.87.09.28Zm-40.6-59.21-6.35-2.7-.11.27,6.35,2.7Zm-7.23-.61,6.35,2.69.11-.27-6.35-2.69Zm41.45,65.79-.25-.14L276,432.63h.34Zm1.71,1-.25-.15-.82,1.44h.34Zm-16.17-1.29,2.11,2.58h.38l-2.26-2.77Zm1.53-1.25,3.13,3.83h.38l-3.28-4Zm-7.46,3.38-.27.1.12.35h.32Zm1.58-.57.37,1h.31l-.4-1.12Zm-10-2.33-.29-.08-.87,3.43H248Zm1.62.41-.75,2.94H250l.73-2.87Zm-22.67-.94-.29-.08-1.12,4h.31Zm1.89.54-.28-.08-1,3.42h.31Zm-12,.22.94,3.12h.31l-1-3.2Zm1.89-.56,1.11,3.68h.3l-1.13-3.77Zm11.51-20.9-3.43,6,.26.15,3.43-6Zm2,1.12-.26-.15-3.42,6,.25.15Zm27.89-32.86-4.4-5.33-.22.19,4.36,5.34Zm-1.52,1.25L255,372.22l-.23.19,4.37,5.34Zm-10.81-2.92,2.34,6.48.28-.1-2.34-6.48Zm1.86-.67,2.34,6.48.27-.1-2.34-6.48Zm24.49,47.86-6.35-2.69-.11.27,6.35,2.69Zm-.77,1.82-6.35-2.7-.11.28,6.35,2.69Zm.76-19.42-1.87,6.64.28.08,1.88-6.64Zm2.18.62-.28-.08-1.88,6.63.29.08Zm-10.17.71-2-6.6-.28.08,2,6.61Zm1.89-.57-2-6.6-.29.08,2,6.61Zm-20-17.27-3.43,6,.25.14,3.43-6Zm-1.46-.83-.26-.15-3.42,6,.25.14Zm-11.65,5.45L231.37,387l-.23.19,4.37,5.34Zm1.52-1.25-4.36-5.34-.23.19,4.36,5.34Zm-13.8-2.17,2.34,6.49.28-.1-2.35-6.49Zm1.85-.67,2.34,6.49.28-.1-2.34-6.49ZM273,393.52l.29.07,1.7-6.68-.29-.08Zm3.9-6.13-.29-.07-1.7,6.68.29.07ZM265.62,393l-6.35-2.69-.11.27,6.35,2.7Zm.77-1.81L260,388.5l-.11.27,6.35,2.69Zm-21.63,35.56-2-6.61-.28.09,2,6.6Zm1.89-.57-2-6.61-.29.09,2,6.6Zm14.63-4.79v-.29l-6.83,1v.29Zm.28,1.95v-.29l-6.83,1v.29ZM260,416l1.54-6.72-.29-.07-1.54,6.73Zm1.92.44,1.54-6.72-.29-.07-1.54,6.73Zm-19-10-.25-.16L239,412.07l.25.16Zm1.67,1.05-.25-.16-3.69,5.83.25.16Zm-.09-9.47-.11-.27-6.33,2.76.12.27Zm.79,1.81-.12-.27-6.32,2.76.12.27Zm-12.15-3-.28-.09L231,403.33l.29.08Zm-3.77,6.1,1.87-6.64-.28-.08-1.88,6.64ZM256.42,400l-2-6.6-.29.08,2,6.61Zm-4.15-6,2,6.6.29-.08-2-6.6Zm-9.59-17-5.51,4.16.18.23,5.51-4.15Zm-4.14,6,5.5-4.16-.17-.23-5.51,4.15Zm-4.76-5.71-1.91-6.63-.29.09,1.92,6.62Zm-4.09-6L231.6,378l.29-.08L230,371.27Zm-6.58-.39-.4,6.88H223l.4-6.89Zm1.56,7h.3l.4-6.89h-.3ZM236,418.21l-.24-.18-4.19,5.48.23.18Zm1.56,1.2-.23-.18-4.2,5.48.24.18Zm-14.25-1.82,4.78,5,.22-.21-4.78-5ZM221.93,419l4.78,5,.21-.2-4.77-5Zm50.22-38.41-.23-.18-4.34,5.36.23.19Zm-1.76-1.42-4.34,5.36.23.19,4.33-5.37ZM271.6,369h-.29l-.78,6.85h.3Zm-2.25-.26-.77,6.86h.29l.77-6.85Zm-14.89,44.1-6.35-2.69-.12.27,6.35,2.69Zm-5.7-4.24,6.35,2.69.12-.27-6.35-2.69Zm-32.49-37.91.14-.26-3.4-1.83v.34Zm-3.26-4,4.19,2.25.14-.26L213,366.33Zm2.62,10.41-.2-.22L213,379v.39Zm-1.29-1.49-.2-.23-1.13,1v.39Zm4.77,9.36-6.1,2.39v.31l6.21-2.43Zm-.61-1.56-.1-.28-5.4,2.09v.32Zm-1.82,14.35.06-.29-3.73-.84v.3ZM213,394.89l4.1.93.07-.29-4.17-.94ZM216.67,419l.07-.28-3.73-.95v.31ZM213,416l4.14,1.06.08-.29L213,415.71Zm4.63,8.93-.1-.28-4.53,1.5v.32Zm-.62-1.87-.1-.28-3.91,1.3v.31Zm56.92-57.81.25.14,2.13-3.72H276Zm1.71,1,.25.14,2.7-4.7h-.34Zm-7.89-2-2.11-2.58h-.38l2.26,2.76Zm1.3-1.06.23-.19-1.09-1.33h-.38Zm-9.48,4.52-2.18-6h-.32l2.22,6.14Zm1.57-.57.28-.1-1.94-5.37h-.31Zm-14.3-2.21.29.07.85-3.33h-.31Zm1.91.49.29.07,1-3.82h-.31Zm-22.85-1,.78-2.77h-.31l-.76,2.69Zm2.83-2.77h-.31l-.91,3.22.29.09Zm-9.1,3.49.28-.08-1-3.41h-.31Zm2.17-.65-.86-2.84h-.3l.87,2.93Zm59.47,73.55-.14.26,2.81,1.52v-.34Zm.93-1.73-.14.26,1.88,1v-.33Zm1.8,13.97v-.38l-2.79,2.41.19.22Zm0-2.6v-.39l-4.08,3.53.19.22Zm-.31,10.72.1.28.21-.08v-.32Zm-.72-1.83.1.28.93-.37v-.32Zm-2,10.31-.07.29,3.06.69v-.31Zm3-1.35-2.56-.58-.06.29,2.62.6ZM243.4,436.12l-6.35-2.69-.11.27,6.35,2.69Zm-7.23-.61,6.35,2.7.11-.28-6.35-2.69Zm20.15,6.59,4.36,5.34.23-.19-4.37-5.33Zm3.07,6.4L255,443.17l-.23.18,4.37,5.34ZM251.2,452l-2.34-6.49-.28.1,2.34,6.49Zm1.85-.67-2.34-6.49-.27.1,2.34,6.49Zm-4,7.51-.25-.15-3.43,6,.25.15Zm-1.71-1-.26-.14-3.42,6,.25.15Zm-11.65,5.45L231.37,458l-.23.18,4.37,5.34Zm1.52-1.25-4.36-5.33-.23.18,4.36,5.34Zm-11.18,4.22-2.35-6.48-.27.1,2.34,6.48Zm1.85-.67-2.34-6.48-.28.1,2.34,6.48Zm47-7.73-.29-.07-1.7,6.68.29.07Zm1.91.48-.29-.07-1.7,6.69.29.07ZM265.62,464l-6.35-2.69-.11.27,6.35,2.69Zm.77-1.82L260,459.44l-.11.27,6.35,2.7Zm-33.54,5.51-.28,1h.31l.25-.88Zm-1.62-.46-.28-.08-.43,1.5h.31Zm22.92-2.76,1.26,4.18h.31l-1.28-4.27Zm-1.6.48-.28.08,1.08,3.62h.31Zm-9.69-16.63-.18-.23-5.51,4.15.18.24Zm1.18,1.58-.17-.24-5.51,4.15.18.24Zm-10.54-1.47.28-.09-1.91-6.62-.29.08Zm-1.61.46L230,442.22l-.28.08,1.91,6.62Zm-8.89,0,.4-6.88h-.29l-.4,6.89Zm2,.12.4-6.89h-.3l-.4,6.88Zm47.18,2.58-.23-.19-4.34,5.36.23.19Zm-1.76-1.43-4.34,5.36.23.19,4.33-5.36ZM271.63,440h-.29l-.78,6.85h.3Zm-2.25-.25-.77,6.85h.29l.77-6.86Zm-53.08,1.94.14-.26-3.4-1.83v.34Zm1.07-2L213,437.28v.33l4.19,2.26ZM215.63,448l-.2-.23L213,449.89v.39Zm-1.29-1.5-.2-.22-1.13,1v.39Zm4.77,9.36-6.1,2.39v.32l6.21-2.44Zm-6.1.59,5.49-2.15-.1-.27-5.39,2.1Zm0,11.07v.31l3.31.74h.37l.05-.2Zm4.1-.79.07-.29-4.17-.94v.31Zm57.08-30.41,2.13-3.72H276l-2,3.57Zm4.07-3.72-2.61,4.55.25.15,2.7-4.7Zm-10.73,2.76.23-.19-2.11-2.57h-.38Zm1.53-1.25.23-.19-1.09-1.32h-.38Zm-9.48,4.52-2.18-6h-.32l2.22,6.13Zm1.57-.56.28-.11-1.94-5.36h-.31Zm-14-2.14.85-3.33h-.31l-.83,3.26Zm1.62.41.29.07,1-3.81h-.31Zm-22.85-1,.78-2.76h-.31l-.76,2.68Zm2.52-2.76-.91,3.22.29.08.93-3.3Zm-8.79,3.49.28-.09-1-3.4h-.31Zm1.88-.57.29-.08-.86-2.84h-.3ZM210,346.33l3,.77v-.3l-2.95-.75Zm.56-2.19-.07.28,2.54.65v-.31ZM213,355.52v-.31l-2,.67.1.28ZM210.38,354l.09.28,2.54-.84v-.31ZM205,361.68h.34l1.3-2.26-.26-.15Zm2.27,0h.34l.74-1.28-.26-.15Zm-14.86-2.76-.23.19,2.11,2.57h.38Zm1.3-1.06,3.12,3.82h.39l-3.28-4Zm-7.46,3.37-.28.1.13.35h.31Zm1.58-.57.36,1h.32l-.4-1.12Zm-10.83,1,.85-3.35-.28-.07-.87,3.42Zm2.48-2.94-.75,2.94h.31l.72-2.86Zm-23.77,2.94,1.09-3.87-.28-.08-1.12,3.95Zm3-3.33-.29-.08-1,3.41h.31Zm38.78-9.88,6.35,2.69.12-.27-6.35-2.69Zm-.77,1.81L203.1,353l.12-.27L196.87,350Zm5.35-10.36.29.08,1.87-6.63-.28-.09Zm1.9.54.28.08,1.88-6.64-.28-.08ZM193.72,328.1l2,6.6.28-.08L194,328Zm1.89-.57,2,6.6.28-.08-2-6.6Zm-24.06,21.75,2,6.61.28-.09-2-6.6Zm4.16,6-2-6.6-.28.08,2,6.61Zm7.8-3.82,6.83-1v-.29l-6.83,1Zm.23,1.66v.29l6.83-1v-.29Zm6.86-14.77-.29-.07L188.78,345l.28.07Zm1.64.37-1.54,6.72.28.07,1.54-6.72ZM168,341.12l.25.16,3.69-5.83-.25-.15Zm1.67,1.06.25.16,3.69-5.83-.25-.16Zm15.78-13.13-.64-2.13h-.3l.66,2.17Zm-2.17.65.28-.08-.71-2.38-.29.06Zm-22.64,22.86.23.18,4.19-5.47-.23-.18Zm6-4.1-.24-.18-4.19,5.48.24.18Zm10.5-9.29-.11.27,6.35,2.7.11-.28Zm.66-1.54,6.35,2.69.11-.27-6.35-2.69Zm-31.76,63.55-2.52,6.42.27.11,2.52-6.42Zm1.83.72-2.52,6.42.27.11,2.53-6.42Zm62.3-34.51,2.82,1.52v-.34l-2.68-1.44Zm1.08-2-.14.25,1.88,1v-.34ZM213,379l-2.8,2.42.2.22,2.6-2.25Zm-3.89,1.15,3.89-3.36v-.39l-4.08,3.52Zm3.57,7.36.11.28.21-.09v-.31Zm.32-2.24-1,.41.11.27.93-.36Zm0,11.39-3-.68-.06.29,3.06.69Zm-2.56-2.6-.07.29,2.63.59v-.3ZM213,417.74l-2.95-.75-.08.29,3,.77Zm-2.47-2.66-.07.29L213,416v-.3ZM213,426.47v-.32l-2,.67.1.28Zm0-2.08v-.31l-2.63.87.09.28Zm-47-61.64,6.35,2.7.12-.27-6.35-2.7Zm-.77,1.82,6.35,2.69.12-.27-6.35-2.69Zm41.46,65.79-.26-.14L205,432.63h.34Zm1.71,1-.26-.15-.82,1.44h.34Zm-16.17-1.29,2.11,2.58h.38l-2.26-2.77Zm1.53-1.25,3.12,3.83h.39l-3.28-4Zm-7.46,3.38-.28.1.13.35h.31Zm1.58-.57.36,1h.32l-.4-1.12Zm-11.13,1h.3l.85-3.35-.28-.08Zm2.78-2.94-.75,2.94h.31l.72-2.87ZM147,429.43l-.28.08.55,1.82.24-.22Zm1.89-.57-.29.09.27.86.23-.23Zm11.49-20.67-.26-.14-3.43,6,.26.15Zm-1.72,7,3.43-6-.26-.15-3.43,6ZM190,376.31,185.6,371l-.23.19,4.37,5.34Zm-1.53,1.25-4.37-5.34-.22.19,4.36,5.34Zm-10.8-2.92,2.34,6.48.28-.1-2.34-6.48Zm1.85-.67,2.34,6.48.28-.1-2.34-6.48ZM204,421.83l-6.35-2.69-.12.27,6.35,2.69Zm-.77,1.82-6.35-2.7-.12.28,6.35,2.69Zm.76-19.42-1.88,6.64.29.08,1.87-6.64Zm2.18.62-.28-.08L204,411.4l.28.08Zm-10.17.71-2-6.6-.28.08,2,6.61Zm1.89-.57-2-6.6-.28.08,2,6.61Zm-20-17.27-3.43,6,.26.14,3.43-6Zm-1.71-1-3.43,6,.26.14,3.43-6Zm-16,.45,4.37,5.34.22-.19L160.43,387Zm1.52-1.25,4.37,5.34.23-.19-4.3-5.32Zm-9.21,3,2.34,6.49.28-.1-2.34-6.49Zm1.86-.67,2.34,6.49.27-.1-2.34-6.49ZM202,393.52l.29.07,1.69-6.68-.28-.08Zm3.9-6.13-.29-.07-1.7,6.68.29.07ZM194.68,393l-6.35-2.69-.12.27,6.35,2.7Zm.77-1.81-6.35-2.69-.12.27,6.35,2.69Zm-22,28.47,2,6.6.28-.08-2-6.61Zm16.9,1.73v-.29l-6.83,1v.29Zm.27,1.95v-.29l-6.83,1v.29ZM189.06,416l1.54-6.72-.29-.07-1.53,6.73Zm1.92.44,1.54-6.72-.28-.07-1.54,6.73Zm-19.26-10.16-2.6,4.11.11.38L172,406.4Zm1.67,1.05-3.52,5.56.11.37,3.66-5.77Zm-6.28-6.82.12.27,6.32-2.76-.12-.27Zm7.23-.68-.12-.27-6.32,2.76.11.27Zm-12.15-3-.29-.09-1.9,6.59.28.08Zm-3.78,6.1,1.88-6.64-.28-.08-1.88,6.64ZM185.48,400l-2-6.6-.28.08,2,6.61Zm-4.16-6,2,6.6.28-.08-2-6.6Zm-9.59-17-5.5,4.16.18.23,5.5-4.15Zm-4.32,5.73.18.24,5.51-4.16-.18-.23Zm-6.77-12,1.91,6.62.29-.08-1.92-6.63Zm-1.89.54,1.91,6.63.28-.08L159,371.27Zm-7,6.49h.3l.4-6.89h-.3Zm2.66-6.75h-.29l-.4,6.89h.29Zm2.42,50.69-4.22-4.39-.21.2,4.23,4.4Zm-5.64-3-.19.3,4.28,4.45.2-.21Zm50-38.2-.23-.18-4.33,5.36.23.19Zm-1.76-1.42-4.34,5.36.23.19,4.34-5.37ZM200.66,369h-.3l-.77,6.85h.29Zm-2.26-.26-.77,6.86h.3l.77-6.85Zm-14.89,44.1-6.35-2.69-.11.27,6.35,2.69Zm.77-1.82-6.35-2.69-.11.27,6.35,2.69Zm-39.6-33.91-.19-.22-.23.2-.5.82Zm3.49,7.87-6.1,2.39v.31l6.21-2.43Zm-.61-1.56-.11-.28-5.38,2.11v.32Zm-1.83,14.35.07-.29-3.73-.84v.3Zm.44-1.92.06-.29-4.16-.94v.3ZM145.72,419l.08-.28-3.73-.95v.31Zm-3.65-3,4.14,1.06.07-.29-4.21-1.07Zm4.62,8.93-.09-.28-4.53,1.49v.32Zm-.62-1.87-.09-.28-3.91,1.29v.31ZM203,365.26l.26.14,2.13-3.72H205Zm1.71,1,.26.14,2.69-4.7h-.34Zm-7.88-2-2.11-2.58h-.38l2.26,2.76Zm1.29-1.06.23-.19-1.08-1.33h-.39Zm-9.48,4.52-2.18-6h-.31l2.21,6.14Zm1.58-.57.28-.1-1.94-5.37h-.32Zm-14.3-2.21.29.07.84-3.33h-.3Zm1.91.49.28.07,1-3.82h-.31Zm-23.14-1.06.29.08.78-2.77h-.31Zm3.12-2.69h-.31l-.91,3.22.28.09Zm52.39,76.65,2.82,1.52v-.34l-2.68-1.44Zm1.08-2-.14.26,1.88,1v-.33ZM213,450.28v-.39l-2.8,2.42.2.22Zm0-2.6v-.39l-4.08,3.53.19.22Zm-.32,10.72.11.28.21-.08v-.32Zm-.72-1.83.11.28.93-.37v-.32Zm-2,10.31-.06.29,3.06.69v-.31Zm3-1.35-2.56-.58-.07.29,2.63.6ZM185.37,442.1l4.37,5.34.23-.19-4.37-5.33Zm3.07,6.4-4.37-5.33-.22.18,4.36,5.34Zm-8.18,3.5-2-5.58-.14.49,1.87,5.19Zm1.85-.67-2.34-6.49-.28.1,2.34,6.49Zm-4,7.51-.26-.15-3.43,6,.26.15Zm-2-1.12L174,461.5l-.33,1.17,2.77-4.84Zm27.81.16-.28-.07-1.7,6.68.29.07Zm1.92.48-.29-.07-1.7,6.69.29.07ZM194.68,464l-6.35-2.69-.12.27,6.35,2.69Zm.77-1.82-6.35-2.69-.12.27,6.35,2.7Zm-12.24,2.29,1.26,4.18h.31l-1.29-4.27Zm-1.6.48-.29.08,1.09,3.62h.31Zm19.59-13.4-.23-.19-4.33,5.36.23.19Zm-1.76-1.43-4.34,5.36.23.19,4.34-5.36Zm1.22-10.16h-.3l-.77,6.85h.29Zm-2.26-.25-.77,6.85h.3l.77-6.86Zm4.85-3.31,2.13-3.72H205l-2,3.57Zm4.06-3.72-2.61,4.55.26.15,2.69-4.7Zm-10.72,2.76.23-.19-2.11-2.57h-.38Zm1.52-1.25.23-.19-1.08-1.32h-.39Zm-9.48,4.52-2.18-6h-.31l2.21,6.13Zm1.58-.56.28-.11-1.94-5.36h-.32Zm-13.9-3.81.17.55.56-2.21h-.3Zm1.51,2.08.28.07,1-3.81h-.31Zm-36.07-48.91.11.28.21-.09v-.31Zm.32-2.24-1,.41.11.27.93-.36Zm-3.07,11,3.07.69v-.3l-3-.68Zm.44-1.92,2.63.59v-.3L139.5,394Zm2.63,23.44-3-.75-.07.29,3,.77Zm-2.47-2.66-.07.29,2.54.64v-.3Zm2.47,11.39v-.32l-2,.67.09.28Zm0-2.08v-.31l-2.64.87.09.28Zm-6.34,6-.25-.14-1.38,2.41h.34Zm1.71,1-.25-.15-.82,1.44h.34Zm-16.16-1.29,2.1,2.58h.39l-2.26-2.77Zm1.52-1.25,3.13,3.83h.38l-3.28-4Zm-5.6,2.71-.28.1.37,1h.32Zm-4.3-59.1,1,1.28-1-1.33Zm-6.21,2.23,2.35,6.48.27-.1L107,374.54Zm1.86-.67,2.34,6.48.28-.1-2.34-6.48ZM133,421.83l-6.35-2.69-.11.27,6.35,2.69Zm-.77,1.82-6.34-2.7-.12.28,6.35,2.69Zm.77-19.42-1.88,6.64.28.08,1.88-6.64Zm2.18.62-.29-.08-1.87,6.63.28.08Zm-10.17.71-2-6.6-.28.08,2,6.61Zm1.88-.57-2-6.6-.28.08,2,6.61Zm-19.72-17.12-.25-.15-3.43,6,.26.14Zm-1.71-1-.25-.15-3.43,6,.26.14ZM123.73,393l-6.35-2.69-.11.27,6.35,2.7Zm.77-1.81-6.35-2.69-.11.27,6.35,2.69Zm-11.94,31.16,6.83-1v-.29l-6.83,1Zm.28,1.95,6.83-1v-.29l-6.83,1Zm5-8.4.29.06,1.54-6.72-.29-.07Zm3.46-6.29-1.54,6.73.29.06,1.54-6.72Zm-18.8-11.9-2.63,1.15.1.28,2.65-1.16Zm.78,1.81-2.77,1.21.1.28,2.79-1.22Zm9-6,2,6.61.29-.09-2-6.6Zm-1.89.57,2,6.6.29-.08-2-6.6ZM95.29,381.3l.18.23,5.51-4.15-.18-.24Zm6.88-2.35-.18-.23-5.51,4.15.18.24Zm10.41,33.91-6.35-2.69-.12.27,6.35,2.69Zm-5.7-4.24,6.35,2.69.12-.27L107,408.3Zm32.52,29.5-.14.26.25-.2Zm.93-1.73-.14.26.73.39.24-.21ZM129,443.61h.3l.41-3.7h-.29Zm-2-.34.29.09.41-3.67h-.29Zm7.39-10.64h-.34l-2,3.57.25.15Zm2.27,0h-.34l-2.61,4.55.26.15Zm-11.06,2.76.22-.19-2.1-2.57h-.39Zm1.52-1.25.23-.19-1.09-1.32h-.38Zm-9.88-1.51,1.43,4,.55.64-1.66-4.6Z" fill="#fff"/>
      <path id="Path_68" data-name="Path 68" d="M200.16,327s-16.24-2.26-23.74,2.59-44.56,68.19-44.56,68.19l-20.47-27.55L93.64,378.2s8.32,32.2,18,48.22,15.2,17.64,18.52,17.11c9.88-1.57,38.5-34.68,38.5-34.68l10.4,34.6L172,468.6H303.5L287.55,442s20.81-96,15.51-106.17S266.88,327,257.17,327h-27.8a69.3,69.3,0,0,1-12.79,1.32A161.215,161.215,0,0,1,200.16,327Z" fill="none" stroke="#263238" stroke-width="0.985"/>
      <path id="Path_69" data-name="Path 69" d="M168.67,408.85a43.23,43.23,0,0,1-4.25-24.61c1.93-13.47,10.27-28.22,10.27-28.22s-16.64,24-16.64,32,4.95,19.7,4.95,19.7l-4.32,12.33Z" fill="#263238" stroke="#263238" stroke-linecap="round" stroke-linejoin="round" stroke-width="0.985"/>
      <path id="Path_70" data-name="Path 70" d="M213.93,313.73l.44,14.12-11.91.44S200,380.1,210.6,389.37,253.2,327,253.2,327l-11-2.21-3.53-28.68Z" fill="#cfcfcf" stroke="#263238" stroke-linecap="round" stroke-linejoin="round" stroke-width="0.985"/>
      <path id="Path_71" data-name="Path 71" d="M239.94,301.71l-25.47,24v-8.49Z" fill="#263238" stroke="#263238" stroke-linecap="round" stroke-linejoin="round" stroke-width="0.985"/>
      <path id="Path_72" data-name="Path 72" d="M210.6,389.37s1.28-8.34,7.69-19.24" fill="#fff" stroke="#263238" stroke-linecap="round" stroke-linejoin="round" stroke-width="0.985"/>
      <path id="Path_73" data-name="Path 73" d="M208.8,234.11l-29,30.15a56.721,56.721,0,0,1,3.26,20c-.34,10.68,9.37,26.39,17.31,33.69s24.14-3.92,30.19-7.88a76,76,0,0,0,11.25-9.32,13.06,13.06,0,0,0,10.78-6.58S210.45,249.14,208.8,234.11Z" fill="#cfcfcf" stroke="#263238" stroke-linecap="round" stroke-linejoin="round" stroke-width="0.985"/>
      <path id="Path_74" data-name="Path 74" d="M200.94,265.07a20.14,20.14,0,0,1,1.92,6.5c.09,2.79-4.8,15.86-4.1,16.73s2.89,3.75,4.6,3.38" fill="none" stroke="#263238" stroke-linecap="round" stroke-linejoin="round" stroke-width="0.985"/>
      <path id="Path_75" data-name="Path 75" d="M213,279.36a18.69,18.69,0,0,1,12.7-.15" fill="none" stroke="#263238" stroke-linecap="round" stroke-linejoin="round" stroke-width="0.493"/>
      <path id="Path_76" data-name="Path 76" d="M190.43,280.4a25.249,25.249,0,0,1,6.71-.94" fill="none" stroke="#263238" stroke-linecap="round" stroke-linejoin="round" stroke-width="0.493"/>
      <path id="Path_77" data-name="Path 77" d="M197.28,257.68a7.29,7.29,0,0,0-6,2.44c-2.51,2.89-3.73,5.41-4.36,3.37s2.17-5.79,3.16-6.55S195.71,253.2,197.28,257.68Z" fill="#263238"/>
      <path id="Path_78" data-name="Path 78" d="M209.69,256a18.64,18.64,0,0,1,8.47,2c3.83,2.1,2-2.16-.69-3.38S210.12,253.52,209.69,256Z" fill="#263238"/>
      <path id="Path_79" data-name="Path 79" d="M254.09,306.15c.18,3-1.37,5.5-3.44,5.62s-3.9-2.2-4.08-5.18,1.07-10.67,3.14-10.79S253.92,303.16,254.09,306.15Z" fill="#92e3a9" stroke="#263238" stroke-linecap="round" stroke-linejoin="round" stroke-width="0.985"/>
      <path id="Path_80" data-name="Path 80" d="M196.09,275c.14,2-.62,3.62-1.69,3.69s-2-1.46-2.17-3.42.62-3.62,1.69-3.69S196,273.08,196.09,275Z" fill="#263238"/>
      <path id="Path_81" data-name="Path 81" d="M217.67,274.23c.14,2-.62,3.61-1.68,3.69s-2-1.46-2.18-3.43.63-3.61,1.69-3.68S217.54,272.27,217.67,274.23Z" fill="#263238"/>
      <path id="Path_82" data-name="Path 82" d="M203.22,297.37s5.09,1.63,12-4.28" fill="none" stroke="#263238" stroke-linecap="round" stroke-linejoin="round" stroke-width="0.985"/>
      <path id="Path_83" data-name="Path 83" d="M111.39,370.25l-9.31-12.47c-.43-3.32-1.26-10.18-1.4-14.81-.19-6.3.12-10.15-3.46-15.74s-13.57-14.42-14.51-16.47-3.66,3.73-1.95,7.48,3.27,4.9,3.27,4.9-18.39-9.14-19-7.65,8.56,27.84,12.76,34.79c1.75,2.9,6.6,6.78,8.94,10.14a31.209,31.209,0,0,1,2.93,5.27c2.18,9.27,4.72,19.47,6,19.84C98.57,386.38,110.92,386.58,111.39,370.25Z" fill="#cfcfcf" stroke="#263238" stroke-miterlimit="10" stroke-width="0.985"/>
      <path id="Path_84" data-name="Path 84" d="M85.25,341.6h0a1.32,1.32,0,0,1-1.62-.94L69,286.57a1.32,1.32,0,0,1,.9-1.57h0a1.33,1.33,0,0,1,1.62.93L86.19,340a1.33,1.33,0,0,1-.94,1.6Z" fill="#263238" stroke="#263238" stroke-miterlimit="10" stroke-width="0.985"/>
      <path id="Path_85" data-name="Path 85" d="M74.7,307.19s-14.12,7.46-13.25,8.92,3.45,6.67,4.63,6.55,9.75-7.12,10.37-8S74.7,307.19,74.7,307.19Z" fill="#cfcfcf" stroke="#263238" stroke-miterlimit="10" stroke-width="0.985"/>
      <path id="Path_86" data-name="Path 86" d="M77.22,316.35S65.49,325,65.87,326.26,72,342.43,73,343.64s10.18-3,10.18-3Z" fill="#cfcfcf" stroke="#263238" stroke-miterlimit="10" stroke-width="0.985"/>
      <path id="Path_87" data-name="Path 87" d="M79,324.39s-11.23,8.82-10.49,9.1" fill="none" stroke="#263238" stroke-miterlimit="10" stroke-width="0.985"/>
      <line id="Line_9" data-name="Line 9" x1="9.44" y2="5.53" transform="translate(71.68 333.95)" fill="none" stroke="#263238" stroke-miterlimit="10" stroke-width="0.985"/>
      <path id="Path_88" data-name="Path 88" d="M84,323.14l5.18,5.06s-6.88,14.69-.29,22.8" fill="none" stroke="#263238" stroke-miterlimit="10" stroke-width="0.985"/>
      <path id="Path_89" data-name="Path 89" d="M288.39,330.13s12.57-1.64,18,8.75,39.36,102.22,39.91,111-22.42,10.93-30.07,7.11-29-49.2-31.16-55.22" fill="#92e3a9"/>
      <rect id="Rectangle_15" data-name="Rectangle 15" width="6.881" height="0.299" transform="translate(290.523 400.342) rotate(-74.291)" fill="#fff"/>
      <path id="Path_90" data-name="Path 90" d="M296.73,375.04l-1.91-6.63-.29.09,1.92,6.62Z" fill="#fff"/>
      <rect id="Rectangle_16" data-name="Rectangle 16" width="6.9" height="0.3" transform="translate(293.912 401.012) rotate(-74.16)" fill="#fff"/>
      <path id="Path_91" data-name="Path 91" d="M298.69,390.03l-4.37-5.34-.23.19,4.37,5.33Z" fill="#fff"/>
      <rect id="Rectangle_17" data-name="Rectangle 17" width="6.9" height="0.3" transform="matrix(0.917, -0.4, 0.4, 0.917, 301.797, 399.943)" fill="#fff"/>
      <path id="Path_92" data-name="Path 92" d="M307.53,405.14l-.25-.16-3.69,5.83.25.16Z" fill="#fff"/>
      <path id="Path_93" data-name="Path 93" d="M292.64,369.04l1.91,6.63.29-.09-1.92-6.62Z" fill="#fff"/>
      <path id="Path_94" data-name="Path 94" d="M301.92,409.75l.25.16,3.69-5.82-.25-.16Z" fill="#fff"/>
      <path id="Path_95" data-name="Path 95" d="M300.21,388.78l-4.36-5.34-.23.19,4.36,5.33Z" fill="#fff"/>
      <rect id="Rectangle_18" data-name="Rectangle 18" width="6.9" height="0.3" transform="translate(301.308 380.479) rotate(-36.93)" fill="#fff"/>
      <path id="Path_96" data-name="Path 96" d="M305.44,346.97l1.99,6.61.28-.09-1.98-6.6Z" fill="#fff"/>
      <path id="Path_97" data-name="Path 97" d="M305.81,375.02l-.18-.24-5.51,4.15.18.24Z" fill="#fff"/>
      <path id="Path_98" data-name="Path 98" d="M302.17,339l2.07-3.27c-.07-.07-.13-.15-.2-.23l-2.12,3.34Z" fill="#fff"/>
      <path id="Path_99" data-name="Path 99" d="M296.12,351.45l.24.18,4.19-5.48-.23-.18Z" fill="#fff"/>
      <path id="Path_100" data-name="Path 100" d="M299.88,360.44l6.35,2.69.12-.27L300,360.17Z" fill="#fff"/>
      <path id="Path_101" data-name="Path 101" d="M307.33,346.4l1.99,6.61.28-.09-1.98-6.6Z" fill="#fff"/>
      <path id="Path_102" data-name="Path 102" d="M306.91,390.56l3.43-5.99-.26-.14-3.42,5.98Z" fill="#fff"/>
      <rect id="Rectangle_19" data-name="Rectangle 19" width="0.29" height="6.9" transform="matrix(0.391, -0.921, 0.921, 0.391, 299.124, 362.277)" fill="#fff"/>
      <rect id="Rectangle_20" data-name="Rectangle 20" width="6.9" height="0.3" transform="matrix(0.917, -0.4, 0.4, 0.917, 300.991, 398.174)" fill="#fff"/>
      <path id="Path_103" data-name="Path 103" d="M323,457.13l-.11.27,3.19,1.36h.78Z" fill="#fff"/>
      <path id="Path_104" data-name="Path 104" d="M324.38,435.68l-1.94-5.37-.4-1.11-.28.1.37,1.01,1.97,5.47Z" fill="#fff"/>
      <path id="Path_105" data-name="Path 105" d="M317.74,441.04l4.37,5.34.22-.19-4.36-5.34Z" fill="#fff"/>
      <path id="Path_106" data-name="Path 106" d="M322.52,436.35l-2.17-6.04-.17-.44-.27.09.12.35,2.22,6.14Z" fill="#fff"/>
      <path id="Path_107" data-name="Path 107" d="M324.46,420.74l-6.83.96.04.29,6.83-.96Z" fill="#fff"/>
      <path id="Path_108" data-name="Path 108" d="M344.3,450.22l1.85-1.6-.06-.33-2,1.71Z" fill="#fff"/>
      <path id="Path_109" data-name="Path 109" d="M294.56,350.25l.23.18,4.2-5.48-.24-.18Z" fill="#fff"/>
      <rect id="Rectangle_21" data-name="Rectangle 21" width="0.3" height="6.9" transform="translate(286.405 386.615) rotate(-19.85)" fill="#fff"/>
      <path id="Path_110" data-name="Path 110" d="M343,448.73l2.64-2.28a3,3,0,0,1-.08-.32l-2.75,2.38Z" fill="#fff"/>
      <path id="Path_111" data-name="Path 111" d="M323.86,444.94l-4.37-5.33-.23.18,4.37,5.34Z" fill="#fff"/>
      <rect id="Rectangle_22" data-name="Rectangle 22" width="6.9" height="0.3" transform="translate(287.639 375.674) rotate(-86.67)" fill="#fff"/>
      <path id="Path_112" data-name="Path 112" d="M319.37,397.68l-1.98-6.6-.29.08,1.99,6.61Z" fill="#fff"/>
      <rect id="Rectangle_23" data-name="Rectangle 23" width="0.29" height="6.9" transform="translate(313.388 371.639) rotate(-19.84)" fill="#fff"/>
      <path id="Path_113" data-name="Path 113" d="M312.66,359.37l-.95,3.75.29.07.97-3.82.73-2.87-.29-.07Z" fill="#fff"/>
      <path id="Path_114" data-name="Path 114" d="M310.63,359.37l-.83,3.26.29.07.84-3.33.86-3.35-.29-.07Z" fill="#fff"/>
      <path id="Path_115" data-name="Path 115" d="M315.21,391.73l1.99,6.6.28-.08-1.98-6.61Z" fill="#fff"/>
      <rect id="Rectangle_24" data-name="Rectangle 24" width="0.29" height="6.9" transform="translate(311.52 372.335) rotate(-19.85)" fill="#fff"/>
      <rect id="Rectangle_25" data-name="Rectangle 25" width="0.3" height="6.9" transform="translate(288.269 385.929) rotate(-19.84)" fill="#fff"/>
      <path id="Path_116" data-name="Path 116" d="M303.84,340l1.68-2.65-.18-.28-1.75,2.78Z" fill="#fff"/>
      <path id="Path_117" data-name="Path 117" d="M311.71,406.26l6.35,2.69.11-.27-6.35-2.69Z" fill="#fff"/>
      <path id="Path_118" data-name="Path 118" d="M294.26,334.94l-.26-.15-3.43,5.98.26.15Z" fill="#fff"/>
      <path id="Path_119" data-name="Path 119" d="M341,431.3l-.13-.37-2.25,3.94.25.14Z" fill="#fff"/>
      <path id="Path_120" data-name="Path 120" d="M334.55,437.6l-.29-.03-.78,6.85.3.03Z" fill="#fff"/>
      <rect id="Rectangle_26" data-name="Rectangle 26" width="0.29" height="6.9" transform="matrix(0.391, -0.921, 0.921, 0.391, 330.658, 418.941)" fill="#fff"/>
      <path id="Path_121" data-name="Path 121" d="M339.27,430.31l.87-1.51-.12-.38-1.09,1.89-2.05,3.58.26.14Z" fill="#fff"/>
      <path id="Path_122" data-name="Path 122" d="M335.1,449.19l-.23-.19-4.34,5.36.23.19Z" fill="#fff"/>
      <path id="Path_123" data-name="Path 123" d="M336.81,419.07l-5.28-2.24-.11.27,5.52,2.34Z" fill="#fff"/>
      <path id="Path_124" data-name="Path 124" d="M333.56,447.95l-.23-.19L329,453.12l.23.19Z" fill="#fff"/>
      <path id="Path_125" data-name="Path 125" d="M326.42,407.37l-.29-.07-1.54,6.72.29.07Z" fill="#fff"/>
      <path id="Path_126" data-name="Path 126" d="M330.48,433.08l.23-.19-2.11-2.58-2.26-2.76-.23.19,2.11,2.57Z" fill="#fff"/>
      <path id="Path_127" data-name="Path 127" d="M292.28,341.75l.26.15,3.43-5.99-.26-.14Z" fill="#fff"/>
      <rect id="Rectangle_27" data-name="Rectangle 27" width="0.29" height="6.9" transform="translate(311.518 443.269) rotate(-19.85)" fill="#fff"/>
      <path id="Path_128" data-name="Path 128" d="M337.9,455.54l-.29-.08-.53,2.08.33-.09Z" fill="#fff"/>
      <rect id="Rectangle_28" data-name="Rectangle 28" width="0.29" height="6.9" transform="translate(313.394 442.578) rotate(-19.84)" fill="#fff"/>
      <path id="Path_129" data-name="Path 129" d="M322.88,386.46l2.64,1.12a1.341,1.341,0,0,0-.14-.38l-2.39-1Z" fill="#fff"/>
      <path id="Path_130" data-name="Path 130" d="M339.81,456l-.29-.07-.24.93.34-.12Z" fill="#fff"/>
      <path id="Path_131" data-name="Path 131" d="M305.58,435.62l-5.24-2.22.22.41,4.9,2.08Z" fill="#fff"/>
      <path id="Path_132" data-name="Path 132" d="M287.67,345.76l3.41,3.55.22-.2-3.61-3.75Z" fill="#fff"/>
      <path id="Path_133" data-name="Path 133" d="M317.74,370.1l2.34,2.85-.33-.86L318,369.91Z" fill="#fff"/>
      <path id="Path_134" data-name="Path 134" d="M289.66,350.68l.21-.21-2.3-2.4-.02.41Z" fill="#fff"/>
      <path id="Path_135" data-name="Path 135" d="M327.61,396.73l1.99,6.61.28-.09-1.98-6.6Z" fill="#fff"/>
      <path id="Path_136" data-name="Path 136" d="M306.35,433.81l-6.35-2.7-.12.27,6.35,2.7Z" fill="#fff"/>
      <path id="Path_137" data-name="Path 137" d="M298.99,415.9l-.24-.18-4.19,5.47.23.18Z" fill="#fff"/>
      <path id="Path_138" data-name="Path 138" d="M309.6,423.87l-1.98-6.61-.29.09,1.99,6.6Z" fill="#fff"/>
      <path id="Path_139" data-name="Path 139" d="M307.71,424.44l-1.98-6.61-.29.09,1.99,6.6Z" fill="#fff"/>
      <path id="Path_140" data-name="Path 140" d="M300.55,417.09l-.23-.17-4.2,5.47.24.18Z" fill="#fff"/>
      <path id="Path_141" data-name="Path 141" d="M290.47,362.59l.29.08.93-3.3.94-3.33-.28-.09-.97,3.42Z" fill="#fff"/>
      <path id="Path_142" data-name="Path 142" d="M289.33,359.37l-.76,2.69.29.08.78-2.77,1.09-3.87-.28-.08Z" fill="#fff"/>
      <path id="Path_143" data-name="Path 143" d="M294.26,405.88l-.26-.15-3.43,5.99.26.14Z" fill="#fff"/>
      <path id="Path_144" data-name="Path 144" d="M295.97,406.86l-.26-.15-3.43,5.99.26.14Z" fill="#fff"/>
      <path id="Path_145" data-name="Path 145" d="M311.8,385.41l-3.43,5.98.25.15,3.43-5.99Z" fill="#fff"/>
      <path id="Path_146" data-name="Path 146" d="M324.21,406.86l-1.54,6.72.29.07,1.54-6.72Z" fill="#fff"/>
      <path id="Path_147" data-name="Path 147" d="M326.31,389.73,322.22,388l-.11.27,4.34,1.84C326.4,390,326.36,389.86,326.31,389.73Z" fill="#fff"/>
      <path id="Path_148" data-name="Path 148" d="M324.23,419.08l-.04-.29-6.83.96.04.29Z" fill="#fff"/>
      <path id="Path_149" data-name="Path 149" d="M327.87,426.3l-.23.19,3.13,3.82,1.24,1.52.23-.19-1.09-1.33Z" fill="#fff"/>
      <path id="Path_150" data-name="Path 150" d="M312.97,430.31l.73-2.86-.29-.07-.75,2.93-.95,3.75.29.07Z" fill="#fff"/>
      <rect id="Rectangle_29" data-name="Rectangle 29" width="0.29" height="6.9" transform="matrix(0.391, -0.921, 0.921, 0.391, 310.941, 408.102)" fill="#fff"/>
      <path id="Path_151" data-name="Path 151" d="M310.93,430.31l.86-3.35-.29-.07-.87,3.42-.83,3.26.29.08Z" fill="#fff"/>
      <path id="Path_152" data-name="Path 152" d="M331.82,444.23l.77-6.85-.29-.03-.78,6.85Z" fill="#fff"/>
      <path id="Path_153" data-name="Path 153" d="M288.39,330.13s12.57-1.64,18,8.75,39.36,102.22,39.91,111-22.42,10.93-30.07,7.11-29-49.2-31.16-55.22" fill="none" stroke="#263238" stroke-width="0.985"/>
      <path id="Path_154" data-name="Path 154" d="M212.4,455.32s-25.69-3.28-30.07-2.74-24.05,13.67-24.05,13.67H214Z" fill="#cfcfcf" stroke="#263238" stroke-linecap="round" stroke-linejoin="round" stroke-width="0.985"/>
      <path id="Path_155" data-name="Path 155" d="M318.45,437.82l-106,17.5L214,466.25H344.7a95.886,95.886,0,0,0,1.64-16.4c0-8.2-4.92-17.49-4.92-17.49" fill="#92e3a9"/>
      <path id="Path_156" data-name="Path 156" d="M327.23,455.87l1.99,6.6.28-.08-1.98-6.61Z" fill="#fff"/>
      <path id="Path_157" data-name="Path 157" d="M334.49,437.19l-4.34,5.36.23.19,4.34-5.36Z" fill="#fff"/>
      <path id="Path_158" data-name="Path 158" d="M328.62,441.31l.23.19,4.33-5.36-.23-.19Z" fill="#fff"/>
      <path id="Path_159" data-name="Path 159" d="M314.83,450.86l1.99,6.61.28-.09-1.98-6.6Z" fill="#fff"/>
      <path id="Path_160" data-name="Path 160" d="M331.39,461.82l-1.99-6.61-.28.09,1.99,6.6Z" fill="#fff"/>
      <path id="Path_161" data-name="Path 161" d="M318.99,456.82l-1.98-6.61-.29.09,1.99,6.6Z" fill="#fff"/>
      <rect id="Rectangle_30" data-name="Rectangle 30" width="6.9" height="0.3" transform="translate(335.537 450.341) rotate(-75.75)" fill="#fff"/>
      <path id="Path_162" data-name="Path 162" d="M336.02,466.25h.31l1.45-5.12-.29-.08Z" fill="#fff"/>
      <path id="Path_163" data-name="Path 163" d="M311.44,465.12l-.11.27,2.02.86h.76Z" fill="#fff"/>
      <rect id="Rectangle_31" data-name="Rectangle 31" width="6.9" height="0.3" transform="matrix(0.246, -0.969, 0.969, 0.246, 337.421, 450.777)" fill="#fff"/>
      <rect id="Rectangle_32" data-name="Rectangle 32" width="0.3" height="6.9" transform="translate(287.88 445.058) rotate(-19.84)" fill="#fff"/>
      <path id="Path_164" data-name="Path 164" d="M321.73,447.41l6.34,2.69.12-.27-6.35-2.7Z" fill="#fff"/>
      <path id="Path_165" data-name="Path 165" d="M323.83,466l-.06.25h.3l.05-.19Z" fill="#fff"/>
      <rect id="Rectangle_33" data-name="Rectangle 33" width="0.29" height="6.9" transform="matrix(0.391, -0.921, 0.921, 0.391, 322.496, 445.61)" fill="#fff"/>
      <path id="Path_166" data-name="Path 166" d="M293.71,444.01l4.37,5.34.23-.19-4.37-5.34Z" fill="#fff"/>
      <path id="Path_167" data-name="Path 167" d="M299.83,447.91l-4.37-5.33-.22.18,4.36,5.34Z" fill="#fff"/>
      <path id="Path_168" data-name="Path 168" d="M342.63,436.92l.61-.53-.12-.29-.68.6Z" fill="#fff"/>
      <rect id="Rectangle_34" data-name="Rectangle 34" width="6.9" height="0.3" transform="translate(291.635 459.611) rotate(-74.16)" fill="#fff"/>
      <path id="Path_169" data-name="Path 169" d="M343.9,451.12l2.41.55v-.3l-2.36-.54Z" fill="#fff"/>
      <path id="Path_170" data-name="Path 170" d="M306.9,464.12l-1.35,2.13h.35l1.25-1.98Z" fill="#fff"/>
      <path id="Path_171" data-name="Path 171" d="M346.24,453.37l-2.71-.61-.07.28,2.76.63C346.23,453.57,346.24,453.47,346.24,453.37Z" fill="#fff"/>
      <path id="Path_172" data-name="Path 172" d="M343.92,438.41l.07-.06-.11-.3-.15.14Z" fill="#fff"/>
      <rect id="Rectangle_35" data-name="Rectangle 35" width="6.9" height="0.3" transform="matrix(0.917, -0.4, 0.4, 0.917, 300.607, 457.297)" fill="#fff"/>
      <path id="Path_173" data-name="Path 173" d="M305.48,463.22l-.25-.16-2.02,3.19h.35Z" fill="#fff"/>
      <rect id="Rectangle_36" data-name="Rectangle 36" width="6.9" height="0.3" transform="translate(293.553 460.2) rotate(-74.16)" fill="#fff"/>
      <rect id="Rectangle_37" data-name="Rectangle 37" width="6.9" height="0.3" transform="matrix(0.917, -0.4, 0.4, 0.917, 301.417, 459.08)" fill="#fff"/>
      <path id="Path_174" data-name="Path 174" d="M311.67,444.69l-.25-.15-3.43,5.99.25.15Z" fill="#fff"/>
      <path id="Path_175" data-name="Path 175" d="M306.28,449.55l.25.14,3.43-5.98-.26-.15Z" fill="#fff"/>
      <rect id="Rectangle_38" data-name="Rectangle 38" width="6.9" height="0.3" transform="matrix(0.917, -0.4, 0.4, 0.917, 229.671, 457.303)" fill="#fff"/>
      <path id="Path_176" data-name="Path 176" d="M222.94,465.01l-.26-.14-.79,1.38h.34Z" fill="#fff"/>
      <path id="Path_177" data-name="Path 177" d="M220.98,459.7l1.72-6.08-.32.05-1.68,5.95Z" fill="#fff"/>
      <path id="Path_178" data-name="Path 178" d="M224.65,465.99l-.26-.14-.23.4h.34Z" fill="#fff"/>
      <path id="Path_179" data-name="Path 179" d="M257.9,448.28l.12-.27-.38-.15-.54.08Z" fill="#fff"/>
      <path id="Path_180" data-name="Path 180" d="M265.08,466.25h.31l1.44-5.12-.28-.08Z" fill="#fff"/>
      <path id="Path_181" data-name="Path 181" d="M267.67,446.2l-1.17,4.62.28.08,1.21-4.75Z" fill="#fff"/>
      <path id="Path_182" data-name="Path 182" d="M234.54,463.22l-.25-.16-2.02,3.19h.35Z" fill="#fff"/>
      <path id="Path_183" data-name="Path 183" d="M236.21,464.27l-.25-.15-1.36,2.13h.35Z" fill="#fff"/>
      <path id="Path_184" data-name="Path 184" d="M295.33,465.85l-.23.4h.34l.15-.26Z" fill="#fff"/>
      <path id="Path_185" data-name="Path 185" d="M339.39,461.59l-1.32,4.66h.31l1.29-4.58Z" fill="#fff"/>
      <rect id="Rectangle_39" data-name="Rectangle 39" width="0.3" height="6.9" transform="translate(286.026 445.741) rotate(-19.85)" fill="#fff"/>
      <path id="Path_186" data-name="Path 186" d="M268.44,461.59l-1.31,4.66h.3l1.3-4.58Z" fill="#fff"/>
      <path id="Path_187" data-name="Path 187" d="M240.5,465.12l-.12.27,2.03.86h.75Z" fill="#fff"/>
      <path id="Path_188" data-name="Path 188" d="M293.88,465.01l-.26-.14-.79,1.38h.34Z" fill="#fff"/>
      <rect id="Rectangle_40" data-name="Rectangle 40" width="6.881" height="0.299" transform="translate(221.103 459.726) rotate(-74.291)" fill="#fff"/>
      <path id="Path_189" data-name="Path 189" d="M279.85,458.12l-.28-.11-2.52,6.42.27.11Z" fill="#fff"/>
      <rect id="Rectangle_41" data-name="Rectangle 41" width="6.9" height="0.3" transform="matrix(0.917, -0.4, 0.4, 0.917, 230.458, 459.106)" fill="#fff"/>
      <path id="Path_190" data-name="Path 190" d="M281.68,458.83l-.28-.1-2.52,6.42.28.1Z" fill="#fff"/>
      <path id="Path_191" data-name="Path 191" d="M272.52,453.05l3.06.69,3.66.82.07-.29-3.73-.84-3-.67Z" fill="#fff"/>
      <path id="Path_192" data-name="Path 192" d="M279.68,452.64l.07-.29-4.17-.94-2.56-.58-.07.29,2.63.59Z" fill="#fff"/>
      <path id="Path_193" data-name="Path 193" d="M264.88,450.41l.99-3.91-.32.05-.96,3.79Z" fill="#fff"/>
      <path id="Path_194" data-name="Path 194" d="M257.25,449.83l-3.24-1.38-.54.09,3.66,1.56Z" fill="#fff"/>
      <path id="Path_195" data-name="Path 195" d="M247.76,456.9l.29-.08-1.99-6.61-.28.09Z" fill="#fff"/>
      <path id="Path_196" data-name="Path 196" d="M246.16,457.38l-1.99-6.6-.28.08,1.99,6.61Z" fill="#fff"/>
      <path id="Path_197" data-name="Path 197" d="M256.29,455.87l1.99,6.6.28-.08-1.99-6.61Z" fill="#fff"/>
      <path id="Path_198" data-name="Path 198" d="M252.88,466l-.06.25h.31l.04-.19Z" fill="#fff"/>
      <path id="Path_199" data-name="Path 199" d="M260.45,461.82l-1.99-6.61-.28.09,1.98,6.6Z" fill="#fff"/>
      <path id="Path_200" data-name="Path 200" d="M318.45,437.82l-106,17.5L214,466.25H344.7a95.886,95.886,0,0,0,1.64-16.4c0-8.2-4.92-17.49-4.92-17.49" fill="none" stroke="#263238" stroke-width="0.985"/>
    </g>
    <g id="freepik--Device--inject-3">
      <path id="Path_201" data-name="Path 201" d="M341.76,464.48H210L205.68,392a4.93,4.93,0,0,1,4.86-5.74H341.2a4.92,4.92,0,0,1,4.86,5.74Z" fill="#263238" stroke="#263238" stroke-linecap="round" stroke-linejoin="round" stroke-width="0.985"/>
      <path id="Path_202" data-name="Path 202" d="M216.47,388H340.25a4.8,4.8,0,0,1,4.79,5.56" fill="none" stroke="#fff" stroke-linecap="round" stroke-linejoin="round" stroke-width="0.985"/>
      <path id="Path_203" data-name="Path 203" d="M206.66,392.45A4.82,4.82,0,0,1,211.5,388" fill="none" stroke="#fff" stroke-linecap="round" stroke-linejoin="round" stroke-width="0.985"/>
      <rect id="Rectangle_42" data-name="Rectangle 42" width="132.88" height="7.06" transform="translate(209.43 457.42)" fill="#fff" stroke="#263238" stroke-linecap="round" stroke-linejoin="round" stroke-width="0.985"/>
      <path id="Path_204" data-name="Path 204" d="M284.82,425.66c0,3.12-4.22,5.65-9.42,5.65s-9.41-2.53-9.41-5.65,4.22-5.65,9.41-5.65S284.82,422.54,284.82,425.66Z" fill="#fff" stroke="#263238" stroke-linecap="round" stroke-linejoin="round" stroke-width="0.985"/>
    </g>
    <g id="freepik--Mug--inject-3">
      <path id="Path_205" data-name="Path 205" d="M78.94,457.2a22.651,22.651,0,0,1-8.09-1.93,2.8,2.8,0,0,1,2.21-5.14c2.58,1.1,5.89,1.78,6.78,1.4,1.62-1.83,4.13-12.88.89-18.15a2.56,2.56,0,0,0-1.85-1.45c-1.84-.25-4.56,1.64-5.52,2.54a2.8,2.8,0,0,1-3.82-4.09c.51-.48,5.15-4.65,10.08-4a8.09,8.09,0,0,1,5.87,4.06C90.26,438.2,87,453,83.33,455.9a6.94,6.94,0,0,1-4.39,1.3Z" fill="#263238" stroke="#263238" stroke-linecap="round" stroke-linejoin="round" stroke-width="0.985"/>
      <rect id="Rectangle_43" data-name="Rectangle 43" width="30.85" height="40.95" transform="translate(43.14 424.1)" fill="#263238" stroke="#263238" stroke-linecap="round" stroke-linejoin="round" stroke-width="0.985"/>
      <path id="Path_206" data-name="Path 206" d="M45.94,421.86s0-3.41,6.25-6.82,9.66-8.52,6.25-18.18-2.84-16.48,4-22.17" fill="none" stroke="#263238" stroke-linecap="round" stroke-linejoin="round" stroke-width="0.985"/>
      <path id="Path_207" data-name="Path 207" d="M47.36,385.51c.32-4.15,2.17-7.66,6-10.82" fill="none" stroke="#263238" stroke-linecap="round" stroke-linejoin="round" stroke-width="0.985"/>
      <path id="Path_208" data-name="Path 208" d="M49.35,396.86a39.78,39.78,0,0,1-1.51-5.28" fill="none" stroke="#263238" stroke-linecap="round" stroke-linejoin="round" stroke-width="0.985"/>
      <path id="Path_209" data-name="Path 209" d="M71.32,400.19a25.07,25.07,0,0,0-.95-3.33l-.52-1.54" fill="none" stroke="#263238" stroke-linecap="round" stroke-linejoin="round" stroke-width="0.985"/>
      <path id="Path_210" data-name="Path 210" d="M57.87,421.86s0-3.41,6.25-6.82c4.1-2.24,7-5.21,7.51-9.71" fill="none" stroke="#263238" stroke-linecap="round" stroke-linejoin="round" stroke-width="0.985"/>
    </g>
    <g id="freepik--Table--inject-3">
      <rect id="Rectangle_44" data-name="Rectangle 44" width="465.44" height="10.3" transform="translate(14.59 464.35)" fill="#263238"/>
    </g>
  </g>
</svg>
