<svg xmlns="http://www.w3.org/2000/svg" xmlns:xlink="http://www.w3.org/1999/xlink" width="507.712" height="420.118" viewBox="0 0 507.712 420.118">
  <defs>
    <clipPath id="clip-path">
      <path id="Path_1926" data-name="Path 1926" d="M291.884,452.352s10.64-3.912,11.889-12.743-5.658-21.383-11.316-25.792a33.132,33.132,0,0,0-10.067-5.658s87.443-59.14,110.087-79.274,64.8-51.584,64.8-51.584,8.805-4.4,15.725,0,11.469,8.831,11.953,18.872c.293,5.7-11.316,13.839-11.316,13.839L316.363,440.271S297.618,453.218,291.884,452.352Z" transform="translate(-282.39 -275.347)" fill="#fff" stroke="#263238" stroke-linecap="round" stroke-linejoin="round" stroke-width="1"/>
    </clipPath>
    <clipPath id="clip-path-2">
      <path id="Path_1958" data-name="Path 1958" d="M247.507,219.476s-8.385-4.205-17.19-9.646-21.4-11.329-24.747-13.431-6.142-4.919-12.157-.828c-11.622,7.875-5.033,30.583-5.033,33.54s-6.3,22.237-5.875,26.009,1.274,22.224,1.274,22.224,1.669,3.364,7.964,1.682c0,0,4.192-19.293,4.613-24.747a105.668,105.668,0,0,1,2.931-14.68l4.205,23.906-4.205,19.713s2.944,9.646,12.59,13,19.688,6.244,31.437,2.1c4.613-1.644,12.17-7.964,12.17-7.964s-3.823-42.778-3.823-44.881S250.871,228.7,247.507,219.476Z" transform="translate(-182.484 -193.48)" fill="#fff" stroke="#263238" stroke-linecap="round" stroke-linejoin="round" stroke-width="1"/>
    </clipPath>
    <clipPath id="clip-path-3">
      <path id="Path_1968" data-name="Path 1968" d="M296.843,160.087l-18.223,6.078c-3.224,1.07-3.581,5.352-3.581,10.36s2.854,46.818,2.141,51.826-1.427,19.662-1.427,19.662a99.959,99.959,0,0,0,8.92,7.506,22.733,22.733,0,0,0,7.862,2.867l2.549-7.506,3.211,9.29s9.29,2.854,16.8,1.784S328.675,249.1,328.675,249.1l-3.989-23.957s11.469-44.307,8.576-49.7-13.941-11.8-21.446-14.3a33.438,33.438,0,0,0-14.973-1.058Z" transform="translate(-275.04 -159.682)" fill="#fff" stroke="#263238" stroke-linecap="round" stroke-linejoin="round" stroke-width="1"/>
    </clipPath>
  </defs>
  <g id="Agreement-bro" transform="translate(-51.289 -84.998)">
    <g id="freepik--background-simple--inject-43" transform="translate(51.289 84.998)">
      <path id="Path_1918" data-name="Path 1918" d="M384.954,116.336C371.344,99.923,355.033,87.18,328.082,85.2c-48.016-3.517-73.731,38.828-108.571,63.575-43.454,30.864-100.364,23.32-140.683,60.185-44.04,40.268-28.939,78.013,1.274,99.4s36.483,55.368,57.879,98.121,72.979,84.3,115.758,88.067c28.162,2.485,57.178-10.258,82.83-20.389,41.3-16.247,83.11-24.479,125.646-35.986,35.069-9.494,71.807-25.269,87.251-60.682C570.849,328.418,554.5,259.21,518,229.022s-67.946-33.973-93.113-60.4C409.114,152.194,398.347,132.481,384.954,116.336Z" transform="translate(-51.289 -84.998)" fill="#92e3a9"/>
      <path id="Path_1919" data-name="Path 1919" d="M384.954,116.336C371.344,99.923,355.033,87.18,328.082,85.2c-48.016-3.517-73.731,38.828-108.571,63.575-43.454,30.864-100.364,23.32-140.683,60.185-44.04,40.268-28.939,78.013,1.274,99.4s36.483,55.368,57.879,98.121,72.979,84.3,115.758,88.067c28.162,2.485,57.178-10.258,82.83-20.389,41.3-16.247,83.11-24.479,125.646-35.986,35.069-9.494,71.807-25.269,87.251-60.682C570.849,328.418,554.5,259.21,518,229.022s-67.946-33.973-93.113-60.4C409.114,152.194,398.347,132.481,384.954,116.336Z" transform="translate(-51.289 -84.998)" fill="#fff" opacity="0.7"/>
    </g>
    <g id="freepik--Agreement--inject-43" transform="translate(72.979 197.419)">
      <path id="Path_1920" data-name="Path 1920" d="M106.259,309.8,90.2,297.911a91.622,91.622,0,0,1-11.469-10.067,104.316,104.316,0,0,1-7.875-8.92l-2.549-3.657,23.5-10.067S92.84,295.528,106.259,309.8Z" transform="translate(-68.31 -147.99)" fill="#263238"/>
      <path id="Path_1921" data-name="Path 1921" d="M71.09,288.353s5.1,26.429,41.53,52.246S331.545,475.854,341.612,479s15.088,0,19.5-3.148,171.738-142.2,171.738-142.2-75.49-38.382-132.731-71.718S301.344,205.32,289.391,194.6,263.6,173.22,263.6,173.22s-96.248,64.161-130.858,82.409S71.09,288.353,71.09,288.353Z" transform="translate(-67.547 -173.22)" fill="#92e3a9" stroke="#263238" stroke-linecap="round" stroke-linejoin="round" stroke-width="1"/>
      <line id="Line_499" data-name="Line 499" y1="45.951" x2="67.767" transform="translate(135.446 34.839)" fill="none" stroke="#fff" stroke-linecap="round" stroke-linejoin="round" stroke-width="1"/>
      <line id="Line_500" data-name="Line 500" y1="39.465" x2="58.197" transform="translate(69.602 85.977)" fill="none" stroke="#fff" stroke-linecap="round" stroke-linejoin="round" stroke-width="1"/>
      <line id="Line_501" data-name="Line 501" y1="67.296" x2="99.255" transform="translate(121.836 47.914)" fill="none" stroke="#fff" stroke-linecap="round" stroke-linejoin="round" stroke-width="1"/>
      <line id="Line_502" data-name="Line 502" y1="16.4" x2="24.186" transform="translate(87.468 122.116)" fill="none" stroke="#fff" stroke-linecap="round" stroke-linejoin="round" stroke-width="1"/>
      <line id="Line_503" data-name="Line 503" y1="90.603" x2="133.611" transform="translate(105.347 60.975)" fill="none" stroke="#fff" stroke-linecap="round" stroke-linejoin="round" stroke-width="1"/>
      <line id="Line_504" data-name="Line 504" y1="79.198" x2="116.815" transform="translate(140.02 74.05)" fill="none" stroke="#fff" stroke-linecap="round" stroke-linejoin="round" stroke-width="1"/>
      <line id="Line_505" data-name="Line 505" y1="7.238" x2="10.666" transform="translate(123.212 157.415)" fill="none" stroke="#fff" stroke-linecap="round" stroke-linejoin="round" stroke-width="1"/>
      <line id="Line_506" data-name="Line 506" y1="90.603" x2="133.611" transform="translate(141.091 87.111)" fill="none" stroke="#fff" stroke-linecap="round" stroke-linejoin="round" stroke-width="1"/>
      <line id="Line_507" data-name="Line 507" y1="90.603" x2="133.611" transform="translate(158.956 100.186)" fill="none" stroke="#fff" stroke-linecap="round" stroke-linejoin="round" stroke-width="1"/>
      <line id="Line_508" data-name="Line 508" y1="45.11" x2="66.531" transform="translate(243.914 113.247)" fill="none" stroke="#fff" stroke-linecap="round" stroke-linejoin="round" stroke-width="1"/>
      <line id="Line_509" data-name="Line 509" y1="38.79" x2="57.203" transform="translate(176.835 165.06)" fill="none" stroke="#fff" stroke-linecap="round" stroke-linejoin="round" stroke-width="1"/>
      <line id="Line_510" data-name="Line 510" y1="31.819" x2="46.907" transform="translate(281.404 126.309)" fill="none" stroke="#fff" stroke-linecap="round" stroke-linejoin="round" stroke-width="1"/>
      <line id="Line_511" data-name="Line 511" y1="30.163" x2="44.486" transform="translate(229.272 163.315)" fill="none" stroke="#fff" stroke-linecap="round" stroke-linejoin="round" stroke-width="1"/>
      <line id="Line_512" data-name="Line 512" y1="18.248" x2="26.926" transform="translate(194.701 198.664)" fill="none" stroke="#fff" stroke-linecap="round" stroke-linejoin="round" stroke-width="1"/>
      <line id="Line_513" data-name="Line 513" y1="6.537" x2="9.634" transform="translate(336.556 139.383)" fill="none" stroke="#fff" stroke-linecap="round" stroke-linejoin="round" stroke-width="1"/>
      <line id="Line_514" data-name="Line 514" y1="78.484" x2="115.732" transform="translate(212.579 151.502)" fill="none" stroke="#fff" stroke-linecap="round" stroke-linejoin="round" stroke-width="1"/>
      <line id="Line_515" data-name="Line 515" y1="79.287" x2="116.917" transform="translate(247.138 152.445)" fill="none" stroke="#fff" stroke-linecap="round" stroke-linejoin="round" stroke-width="1"/>
      <line id="Line_516" data-name="Line 516" y1="6.537" x2="9.659" transform="translate(230.445 236.51)" fill="none" stroke="#fff" stroke-linecap="round" stroke-linejoin="round" stroke-width="1"/>
      <path id="Path_1922" data-name="Path 1922" d="M283.612,380.4a17.191,17.191,0,0,0-5.671,13.266c0,8.818,10.067,13.852,14.476,12.59s18.248-16.986,18.248-16.986-3.823-11.953-11.329-12.577S283.612,380.4,283.612,380.4Z" transform="translate(-10.81 -117.424)" fill="#263238" stroke="#263238" stroke-linecap="round" stroke-linejoin="round" stroke-width="1"/>
      <path id="Path_1923" data-name="Path 1923" d="M291.884,452.352s10.64-3.912,11.889-12.743-5.658-21.383-11.316-25.792a33.132,33.132,0,0,0-10.067-5.658s87.443-59.14,110.087-79.274,64.8-51.584,64.8-51.584,8.805-4.4,15.725,0,11.469,8.831,11.953,18.872c.293,5.7-11.316,13.839-11.316,13.839L316.363,440.271S297.618,453.218,291.884,452.352Z" transform="translate(-9.587 -145.206)" fill="#fff"/>
      <g id="Group_95" data-name="Group 95" transform="translate(272.803 130.14)" clip-path="url(#clip-path)">
        <path id="Path_1924" data-name="Path 1924" d="M482.9,292.654a27.628,27.628,0,0,0-.548-4.384c-5,4.333-14.017,11.966-30.481,25.359-33.973,27.678-61.026,47.812-61.026,47.812s29.564-22.02,18.872-16.986-33.973,25.167-54.693,42.154c-13.151,10.755-36.381,32.355-53.266,49.481h0c-1.274,8.805-11.889,12.743-11.889,12.743,5.734.867,24.479-12.08,24.479-12.08L471.624,306.518S483.194,298.35,482.9,292.654Z" transform="translate(-280.338 -271.802)" fill="#92e3a9"/>
        <path id="Path_1925" data-name="Path 1925" d="M482.9,292.654a27.628,27.628,0,0,0-.548-4.384c-5,4.333-14.017,11.966-30.481,25.359-33.973,27.678-61.026,47.812-61.026,47.812s29.564-22.02,18.872-16.986-33.973,25.167-54.693,42.154c-13.151,10.755-36.381,32.355-53.266,49.481h0c-1.274,8.805-11.889,12.743-11.889,12.743,5.734.867,24.479-12.08,24.479-12.08L471.624,306.518S483.194,298.35,482.9,292.654Z" transform="translate(-280.338 -271.802)" fill="#fff" opacity="0.5"/>
      </g>
      <path id="Path_1927" data-name="Path 1927" d="M291.884,452.352s10.64-3.912,11.889-12.743-5.658-21.383-11.316-25.792a33.132,33.132,0,0,0-10.067-5.658s87.443-59.14,110.087-79.274,64.8-51.584,64.8-51.584,8.805-4.4,15.725,0,11.469,8.831,11.953,18.872c.293,5.7-11.316,13.839-11.316,13.839L316.363,440.271S297.618,453.218,291.884,452.352Z" transform="translate(-9.587 -145.206)" fill="none" stroke="#263238" stroke-linecap="round" stroke-linejoin="round" stroke-width="1"/>
    </g>
    <g id="freepik--Plants--inject-43" transform="translate(90.373 145.946)">
      <path id="Path_1928" data-name="Path 1928" d="M344.071,157.394s6.129-4.7,7.735-7.76c1.363-2.549,2.37-6.282,1.045-9.1a5.212,5.212,0,0,0-7.353-2.459c-3.759,2.268-4.269,10.194-3.377,14.017C342.2,152.412,344.008,157.445,344.071,157.394Z" transform="translate(-10.701 -131.572)" fill="#263238"/>
      <path id="Path_1929" data-name="Path 1929" d="M300.262,187.331c.255.229,4.537,3.428,4.562,3.351s2.549-7.314,2.166-10.73c-.293-2.931-1.491-6.563-4.141-8.168a5.2,5.2,0,0,0-7.493,1.988C293.47,177.748,297.408,184.629,300.262,187.331Z" transform="translate(-23.56 -122.375)" fill="#263238"/>
      <path id="Path_1930" data-name="Path 1930" d="M404.153,159.58s-22.542,22.606-22.823,50.781,21.816,51.214,21.816,51.214,22.542-22.619,22.81-50.781S404.153,159.58,404.153,159.58Z" transform="translate(0.157 -125.488)" fill="#263238"/>
      <path id="Path_1931" data-name="Path 1931" d="M401.027,234.431a7.866,7.866,0,0,0,.816-1.007c1.657-2.421,3.084-5.976,2.09-8.92a5.212,5.212,0,0,0-7.021-3.288c-3.033,1.376-4.575,6.193-4.957,10.194-1.2-.293-2.281-.522-3.211-.688L387.583,228c-.433-.943-.714-1.886-1.1-2.842-.51-1.414-.968-2.905-1.427-4.384,1.771-.752,6.919-3.084,8.856-5.161s3.95-5.441,3.415-8.5a5.212,5.212,0,0,0-6.435-4.32c-4.231,1.2-6.818,8.691-6.958,12.628a17.456,17.456,0,0,0,.115,1.937c-.4-1.453-.8-2.905-1.172-4.4-1.019-4.231-1.937-8.576-2.867-12.934-.191-.9-.4-1.8-.6-2.7,1.491-.637,7.1-3.1,9.124-5.288s3.95-5.429,3.4-8.5a5.2,5.2,0,0,0-6.372-4.32c-4.231,1.2-6.818,8.7-6.97,12.628,0,.14.064,1.134.153,2.243-.535-2.357-1.109-4.689-1.746-7a91.751,91.751,0,0,0-3.976-11.634c.522-.217,7.149-2.982,9.4-5.4,2-2.154,3.95-5.441,3.415-8.5a5.212,5.212,0,0,0-6.435-4.32c-4.231,1.2-6.818,8.691-6.97,12.628,0,.268.268,3.823.408,5.1a.977.977,0,0,0,0-.14,68.727,68.727,0,0,0-5.887-10.526,93.577,93.577,0,0,0-6.563-8.576c-2.154-2.549-4.282-4.753-6.18-6.69-1.032-1.045-2-1.975-2.905-2.829h.089c.076,0-1.988-4.932-2.154-5.237-1.924-3.428-7.646-8.92-11.966-8.041a5.2,5.2,0,0,0-3.734,6.779c.918,2.969,4.154,5.008,6.907,6s9.048.637,10.589.522c.93.918,1.911,1.9,2.969,3.007,1.86,1.975,3.925,4.218,6.015,6.8.561.688,1.134,1.453,1.695,2.192-1.211-1.032-2.893-2.421-3.071-2.549-3.288-2.154-10.9-4.384-14.323-1.618a5.212,5.212,0,0,0-.2,7.748c2.192,2.2,6,2.549,8.92,2.128s8.5-3.708,9.685-4.447c1.274,1.644,2.459,3.351,3.645,5.212a67.362,67.362,0,0,1,5.594,10.526c.089.2.153.433.229.65-.51-.612-3.555-3.823-3.823-3.976-3.033-2.549-10.36-5.556-14.017-3.186a5.225,5.225,0,0,0-1.045,7.646c1.937,2.434,5.683,3.16,8.614,3.1,3.39-.076,10.092-3.339,10.347-3.466a94.278,94.278,0,0,1,3.594,11.341c.714,2.842,1.274,5.76,1.911,8.691-.675-.777-3.5-3.721-3.734-3.912-3.033-2.549-10.36-5.556-14.017-3.186a5.212,5.212,0,0,0-1.045,7.646c1.937,2.434,5.683,3.173,8.614,3.109,3.3-.076,9.748-3.173,10.284-3.441.268,1.338.535,2.663.79,4,.841,4.358,1.657,8.729,2.549,13.023.331,1.491.7,2.944,1.07,4.409-1.058-1.147-3.033-3.186-3.224-3.339-3.02-2.549-10.347-5.569-14.017-3.2a5.225,5.225,0,0,0-1.045,7.646c1.924,2.434,5.683,3.16,8.614,3.1s8.423-2.549,9.952-3.275c.637,2.421,1.274,4.8,2.1,7.123.357.994.663,2.039,1.058,2.969.2.5.4.994.6,1.478l-.854-.089s-.076,1.376,0,3.619c-3.2-2.357-7.837-4.409-10.883-3.058a5.212,5.212,0,0,0-2.2,7.429,5.518,5.518,0,0,0,.675.943,20.019,20.019,0,0,0,4.04,9.366c.166.2,2.332,2.256,3.466,3.288-1.1-.624-2.192-1.274-3.326-1.886-1.644-.943-3.339-1.988-5-2.982l-2.612-1.618c-.867-.548-1.644-1.172-2.472-1.771-1.211-.892-2.408-1.873-3.606-2.854,1.045-1.618,4.065-6.372,4.536-9.2s.293-6.716-1.848-8.92a5.212,5.212,0,0,0-7.748,0c-2.88,3.326-.892,11.01,1.16,14.374.064.1.561.765,1.172,1.555-1.134-.994-2.281-1.988-3.4-3.033-3.2-2.969-6.372-6.078-9.532-9.2l-1.988-1.924c.892-1.351,4.205-6.5,4.689-9.43s.293-6.716-1.848-8.92a5.2,5.2,0,0,0-7.748,0c-2.867,3.339-.892,11.023,1.16,14.374.076.115.675.9,1.363,1.784-1.746-1.657-3.517-3.3-5.314-4.868a92.221,92.221,0,0,0-9.748-7.518c.331-.471,4.333-6.371,4.881-9.685.471-2.893.28-6.716-1.848-8.92a5.212,5.212,0,0,0-7.748-.064c-2.88,3.339-.892,11.023,1.147,14.374.153.242,2.37,3.084,3.186,4.078l-.115-.089a68.7,68.7,0,0,0-10.73-5.53,92.04,92.04,0,0,0-10.194-3.53c-3.211-.943-6.193-1.606-8.844-2.179-1.44-.293-2.765-.535-4-.752h.076c.064,0-4.384-3.02-4.677-3.173-3.492-1.8-11.3-3.211-14.425-.115a5.225,5.225,0,0,0,.624,7.735c2.409,1.962,6.231,1.873,9.086,1.185s7.888-4.46,9.111-5.4c1.274.242,2.638.522,4.141.867,2.625.624,5.594,1.351,8.767,2.357.841.268,1.746.586,2.625.879-1.58-.191-3.759-.421-3.976-.421-3.925,0-11.469,2.357-12.845,6.55a5.225,5.225,0,0,0,4.116,6.575c3.033.637,6.372-1.274,8.6-3.135s5.1-7.786,5.62-9.048c1.937.688,3.9,1.427,5.913,2.332a67.537,67.537,0,0,1,10.475,5.683c.191.14.37.293.561.421-.765-.229-5.1-1.185-5.365-1.274-3.9-.408-11.7,1.083-13.482,5.1a5.212,5.212,0,0,0,3.364,6.983c2.956.968,6.486-.5,8.92-2.166,2.778-1.924,6.575-8.347,6.716-8.589a90.939,90.939,0,0,1,9.251,7.467c2.179,1.975,4.294,4.078,6.372,6.193-1.007-.28-4.983-1.16-5.276-1.2-3.912-.421-11.7,1.07-13.495,5.1a5.212,5.212,0,0,0,3.364,6.983c2.956.968,6.486-.5,8.92-2.166,2.7-1.886,6.371-8.015,6.677-8.538.956.968,1.911,1.924,2.854,2.893,3.109,3.173,6.206,6.371,9.366,9.443,1.083,1.058,2.2,2.064,3.313,3.071-1.516-.37-4.282-.981-4.524-1.007-3.912-.421-11.7,1.07-13.482,5.1A5.212,5.212,0,0,0,344.843,251c2.956.968,6.5-.5,8.92-2.166s5.607-6.779,6.486-8.219c1.86,1.669,3.746,3.288,5.683,4.779.841.637,1.669,1.274,2.549,1.886l2.549,1.733c1.746,1.109,3.377,2.154,5.1,3.16.828.51,1.631.968,2.447,1.453-1.491-.6-3.823-1.516-4.065-1.567-3.823-1.007-11.736-.714-14.107,2.982a5.212,5.212,0,0,0,2.268,7.416c2.765,1.4,6.486.5,9.124-.79,2.905-1.427,7.327-6.741,7.862-7.391,2,1.172,3.963,2.306,5.811,3.326,4.957,2.74,9.277,4.932,12.628,6.563,10.832,9.646,26.263,10.908,26.263,10.908s1.07-18.49-9.646-30.813A38.114,38.114,0,0,0,401.027,234.431Zm-19.841,17.751c.357-.752,3.058-6.588,3.288-9.9.612-.1,1.274-.229,1.822-.357a42.766,42.766,0,0,0,6.588,16.388q-2.982-1.478-6.371-3.262c-1.733-.879-3.5-1.848-5.327-2.867Z" transform="translate(-29.351 -132.826)" fill="#263238"/>
      <path id="Path_1932" data-name="Path 1932" d="M446.116,210.68s-18.5.306-30,11.915-11.609,30.112-11.609,30.112,18.5-.306,30-11.915S446.116,210.68,446.116,210.68Z" transform="translate(6.516 -111.471)" fill="#263238"/>
      <path id="Path_1933" data-name="Path 1933" d="M403.227,235.939l18.4-16.082-.765-.879L403.24,234.372l.2-21.408.1.064,15.687-22.262-.956-.663-14.807,21.013.5-51.533-1.16-.013-.344,34.98-11.431-10.182-.777.867,12.2,10.857-.255,25L384.877,205.33l-.777.867,18.082,16.464-.217,22.772L388.93,234.907l-.739.9,13.762,11.1-.153,14.667h1.172l.255-25.652Z" transform="translate(0.918 -125.49)" fill="#fff"/>
      <path id="Path_1934" data-name="Path 1934" d="M392.741,228.468l-1.16-.153-1.644,12.921-7.684-8.831h.013l-1.759-15.687-1.147.127,1.567,14.03L361.839,208.92l-.879.765,12.947,14.9-8.334-.013v1.16l9.353.025,9.086,10.437-13.036-.166-.013,1.172,14.068.178,8.257,9.494-9.2.433.051,1.16,10.131-.471,5.492,6.333.879-.765-9.685-11.137Z" transform="translate(-5.43 -111.954)" fill="#fff"/>
      <path id="Path_1935" data-name="Path 1935" d="M424.734,233.31l15.508-2.931-.217-1.147-13.877,2.612,20.478-20.669-.828-.816-13.89,14.03-.612-8.321-1.16.089.675,9.328-9.736,9.838-.8-13.011-1.16.076.867,14.043-8.856,8.946-1.109-9.149-1.16.14,1.223,10.054-5.9,5.964.828.816,10.386-10.488,14.043.739.064-1.172-13.011-.675,8.232-8.321Z" transform="translate(6.426 -111.559)" fill="#fff"/>
      <path id="Path_1936" data-name="Path 1936" d="M141.354,158.7s-4.74-2.549-6.18-4.422c-1.274-1.631-2.345-4.04-1.759-6.117a3.619,3.619,0,0,1,4.74-2.549c2.842,1.121,4.1,6.486,3.925,9.213C142.068,155.084,141.405,158.729,141.354,158.7Z" transform="translate(-67.891 -129.377)" fill="#263238"/>
      <path id="Path_1937" data-name="Path 1937" d="M174.747,174.184c-.14.191-2.7,2.867-2.727,2.829s-2.549-4.715-2.714-7.111c-.14-2.026.268-4.651,1.9-6.066a3.606,3.606,0,0,1,5.352.51C178.3,166.856,176.4,172.017,174.747,174.184Z" transform="translate(-58.008 -124.583)" fill="#263238"/>
      <path id="Path_1938" data-name="Path 1938" d="M104.321,166.66s18.019,12.9,21.447,32.151-9.022,37.566-9.022,37.566-18.019-12.9-21.447-32.151S104.321,166.66,104.321,166.66Z" transform="translate(-78.465 -123.546)" fill="#263238"/>
      <path id="Path_1939" data-name="Path 1939" d="M128.433,216.524a4.588,4.588,0,0,1-.675-.6c-1.414-1.465-2.8-3.734-2.459-5.862a3.606,3.606,0,0,1,4.422-3.058c2.243.6,3.823,3.708,4.562,6.372.79-.331,1.5-.612,2.115-.841l.5-2c.178-.688.268-1.376.408-2.064.191-1.032.331-2.1.484-3.16-1.274-.319-5.1-1.274-6.652-2.549s-3.326-3.275-3.313-5.429a3.606,3.606,0,0,1,3.9-3.7c3.046.331,5.671,5.174,6.219,7.837,0,.089.076.663.14,1.351.115-1.045.217-2.09.293-3.148.217-3.02.344-6.091.484-9.175,0-.65.064-1.274.1-1.924-1.1-.268-5.212-1.274-6.856-2.549s-3.326-3.262-3.3-5.429a3.606,3.606,0,0,1,3.9-3.7c3.033.331,5.671,5.174,6.219,7.85,0,.089.089.777.153,1.555.1-1.682.217-3.351.4-5a63.458,63.458,0,0,1,1.389-8.423c-.382-.089-5.237-1.211-7.06-2.549-1.618-1.274-3.326-3.275-3.313-5.429a3.606,3.606,0,0,1,3.912-3.7c3.033.331,5.658,5.1,6.206,7.837,0,.191.268,2.689.319,3.581v-.1a46.412,46.412,0,0,1,2.829-7.888,63.983,63.983,0,0,1,3.5-6.626c1.172-1.988,2.383-3.746,3.453-5.288.586-.828,1.147-1.58,1.669-2.268h0s.79-3.606.879-3.823c.917-2.549,4.205-6.983,7.264-6.881a3.619,3.619,0,0,1,3.339,4.218c-.293,2.128-2.268,3.9-4.052,4.893s-6.117,1.478-7.187,1.58c-.522.726-1.083,1.516-1.682,2.4-1.045,1.567-2.2,3.339-3.339,5.352-.306.535-.6,1.121-.9,1.682.714-.841,1.695-1.988,1.81-2.09,2-1.848,6.958-4.256,9.621-2.752a3.606,3.606,0,0,1,1.019,5.276c-1.274,1.759-3.823,2.421-5.849,2.485s-6.244-1.567-7.136-1.937c-.663,1.274-1.274,2.549-1.9,3.989a47.263,47.263,0,0,0-2.625,7.85l-.076.471c.28-.484,2-2.995,2.141-3.16,1.784-2.052,6.448-5,9.251-3.823a3.619,3.619,0,0,1,1.606,5.1c-1.045,1.9-3.53,2.829-5.543,3.122-2.332.331-7.289-1.134-7.48-1.185a64.316,64.316,0,0,0-1.16,8.168c-.166,2.039-.255,4.1-.319,6.168.382-.612,1.988-2.944,2.115-3.1,1.784-2.064,6.448-5,9.264-3.823a3.606,3.606,0,0,1,1.593,5.1c-1.045,1.886-3.53,2.816-5.543,3.109-2.268.331-7.034-1.058-7.429-1.172,0,.943,0,1.886-.089,2.829,0,3.084-.127,6.168-.28,9.213,0,1.058-.14,2.09-.229,3.135.6-.9,1.708-2.549,1.822-2.651,1.784-2.064,6.448-5,9.264-3.823a3.606,3.606,0,0,1,1.593,5.1c-1.045,1.886-3.53,2.816-5.543,3.109s-6.053-.777-7.187-1.1c-.153,1.72-.344,3.441-.612,5.1-.14.714-.229,1.453-.4,2.141-.076.37-.153.726-.242,1.083l.573-.153s.217.93.408,2.472c1.911-1.975,4.855-3.912,7.1-3.339a3.619,3.619,0,0,1,2.357,4.842,5.237,5.237,0,0,1-.344.714,14.157,14.157,0,0,1-1.695,6.881c-.089.153-1.338,1.81-2,2.638.688-.548,1.364-1.083,2.064-1.669,1.007-.828,2.052-1.746,3.071-2.549l1.542-1.44c.535-.471.994-.994,1.491-1.5.726-.752,1.44-1.555,2.141-2.37-.9-.981-3.517-3.9-4.154-5.773s-.968-4.562.229-6.372a3.619,3.619,0,0,1,5.3-.93c2.345,1.95,1.873,7.442.854,9.965a11.547,11.547,0,0,1-.624,1.2c.663-.8,1.274-1.618,1.988-2.459,1.835-2.4,3.645-4.893,5.467-7.391.37-.522.765-1.032,1.134-1.555-.765-.816-3.619-3.963-4.294-5.913s-.968-4.562.229-6.372a3.606,3.606,0,0,1,5.3-.93c2.357,1.95,1.873,7.429.867,9.965,0,.089-.37.7-.739,1.389,1.007-1.351,2.026-2.676,3.084-3.95a62.036,62.036,0,0,1,5.811-6.257c-.28-.293-3.7-3.912-4.447-6.078-.663-1.924-.968-4.562.229-6.372a3.632,3.632,0,0,1,5.3-.93c2.345,1.962,1.873,7.442.854,9.978,0,.178-1.274,2.383-1.708,3.148h.076a46.857,46.857,0,0,1,6.7-5.021,64.616,64.616,0,0,1,6.575-3.594c2.09-1.007,4.052-1.81,5.811-2.549.943-.37,1.822-.688,2.638-.981h0S200,176,200.189,175.836c2.179-1.631,7.365-3.5,9.85-1.733a3.619,3.619,0,0,1,.471,5.365c-1.427,1.618-4.052,2-6.091,1.848s-5.913-2.141-6.856-2.651c-.841.319-1.746.663-2.74,1.07-1.72.726-3.67,1.567-5.722,2.625l-1.695.9c1.058-.319,2.549-.726,2.663-.739,2.689-.446,8.156.28,9.545,2.995a3.606,3.606,0,0,1-2.052,4.97c-2.013.79-4.524-.089-6.257-1.147s-4.345-4.753-4.893-5.556c-1.274.7-2.549,1.427-3.823,2.281a45.659,45.659,0,0,0-6.512,5.1l-.344.344c.5-.242,3.326-1.389,3.53-1.453,2.625-.726,8.13-.6,9.825,1.95a3.606,3.606,0,0,1-1.5,5.161c-1.911,1.007-4.5.408-6.372-.459-2.115-1.007-5.454-4.97-5.581-5.1a64.153,64.153,0,0,0-5.467,6.168c-1.274,1.606-2.472,3.288-3.67,4.983.65-.306,3.275-1.376,3.479-1.427,2.625-.739,8.13-.612,9.812,1.937a3.606,3.606,0,0,1-1.5,5.1c-1.911,1.007-4.5.408-6.372-.459-2.077-.968-5.288-4.753-5.556-5.1-.548.765-1.1,1.529-1.631,2.306-1.759,2.549-3.517,5.1-5.314,7.531-.637.854-1.274,1.669-1.924,2.549.994-.433,2.816-1.172,2.982-1.211,2.625-.739,8.13-.612,9.812,1.937a3.606,3.606,0,0,1-1.491,5.161c-1.911,1.007-4.5.408-6.372-.459s-4.613-3.989-5.39-4.881c-1.083,1.351-2.179,2.676-3.339,3.925-.51.535-.994,1.109-1.5,1.58L150.72,222.9c-1.07.968-2.064,1.873-3.084,2.74l-1.5,1.274c.943-.586,2.459-1.478,2.549-1.542,2.549-1.134,7.952-1.835,10,.421a3.619,3.619,0,0,1-.7,5.339c-1.746,1.274-4.384,1.083-6.372.5-2.154-.637-5.785-3.823-6.231-4.154-1.274,1.045-2.447,2.039-3.594,2.956-3.071,2.434-5.785,4.435-7.888,5.938-6.372,7.837-16.732,10.475-16.732,10.475s-2.854-12.526,3.071-22.2a26.264,26.264,0,0,1,8.194-8.117Zm15.623,9.876a26.761,26.761,0,0,1-3.4-6.371h-1.274a29.475,29.475,0,0,1-2.625,11.966c1.274-.892,2.549-1.886,4.014-2.956C141.813,228.171,142.922,227.3,144.056,226.4Z" transform="translate(-72.491 -130.925)" fill="#263238"/>
      <path id="Path_1940" data-name="Path 1940" d="M82.15,206.055s12.743-1.911,21.905,4.715,11.469,19.28,11.469,19.28-12.743,1.924-21.905-4.7S82.15,206.055,82.15,206.055Z" transform="translate(-81.908 -112.81)" fill="#263238"/>
      <path id="Path_1941" data-name="Path 1941" d="M112.683,218.933l-14.438-8.895.421-.688,13.826,8.512-2.6-14.629-.051.051L96.55,189.853l.573-.573,12.552,12.692-6.27-35.222.8-.14,4.243,23.906,6.652-8.283.637.51-7.1,8.831,3.033,17.088,10.054-12.781.637.5-10.5,13.342,2.765,15.572,7.722-8.7.6.535-8.13,9.175,1.771,10.016-.79.153-3.122-17.534Z" transform="translate(-77.958 -123.559)" fill="#fff"/>
      <path id="Path_1942" data-name="Path 1942" d="M119.346,213.053l.777-.229,2.612,8.653,4.243-6.919h-.013l-.6-10.946.8-.038.535,9.787,10.551-17.229.688.421L131.8,208.236l5.7-.969.14.8-6.4,1.083-5.021,8.194,8.895-1.606.14.79-9.608,1.746-4.562,7.442,6.346-.765.1.8-6.983.841-3.046,4.97-.688-.433,5.352-8.729Z" transform="translate(-72.401 -115.462)" fill="#fff"/>
      <path id="Path_1943" data-name="Path 1943" d="M99.494,219.044l-10.959-.229.013-.8,9.8.191L81.96,206.4l.471-.663,11.125,8.015L93.021,208l.8-.076.6,6.461,7.8,5.62-.943-9,.8-.089,1.019,9.723,7.085,5.1-.28-6.384.8-.038.319,7.034,4.715,3.39-.471.663-8.308-5.989-9.532,2.115-.178-.79,8.831-1.962-6.588-4.74Z" transform="translate(-81.96 -112.826)" fill="#fff"/>
    </g>
    <g id="freepik--Characters--inject-43" transform="translate(218.471 141.774)">
      <path id="Path_1944" data-name="Path 1944" d="M267.181,211.62s-4.294,2.944-4.842,3.339-1.618,10.194-1.618,10.666,7.646-.14,9.048-1.618,1.478-6.078,1.478-6.078A8.92,8.92,0,0,0,267.181,211.62Z" transform="translate(-161.024 -107.041)" fill="#fff" stroke="#263238" stroke-linecap="round" stroke-linejoin="round" stroke-width="1"/>
      <path id="Path_1945" data-name="Path 1945" d="M277.537,175.521l-.714,32.176-11.074,14.3s4.282,3.211,3.925,6.779l12.157-7.506s0-32.163-.714-40.383S278.3,172.667,277.537,175.521Z" transform="translate(-159.644 -117.416)" fill="#fff" stroke="#263238" stroke-linecap="round" stroke-linejoin="round" stroke-width="1"/>
      <path id="Path_1946" data-name="Path 1946" d="M260.413,224.753s2.141-6.779,2.549-7.862,11.469-1.07,11.469-1.07a13.1,13.1,0,0,1,.37,2.867c0,1.427-2.549,2.854-2.549,2.854a5.531,5.531,0,0,1-2.141,4.651,32.289,32.289,0,0,1-6.486,3.874l-4.294-1.427Z" transform="translate(-161.405 -105.889)" fill="#fff" stroke="#263238" stroke-linecap="round" stroke-linejoin="round" stroke-width="1"/>
      <path id="Path_1947" data-name="Path 1947" d="M265.7,212.442s-2.421,0-2.829.675.268,6.754,1.083,6.754,2.421.535,2.689-1.083S267.454,212.175,265.7,212.442Z" transform="translate(-160.469 -106.818)" fill="#fff" stroke="#263238" stroke-linecap="round" stroke-linejoin="round" stroke-width="1"/>
      <path id="Path_1948" data-name="Path 1948" d="M217.566,349.643s-3.046,7.034-2.2,9.545,2.128,4.116,7.862,2.2,19.115-12.157,19.115-14.68-15.941.841-15.941.841S225.531,350.063,217.566,349.643Z" transform="translate(-173.506 -70.242)" fill="#fff" stroke="#263238" stroke-linecap="round" stroke-linejoin="round" stroke-width="1"/>
      <path id="Path_1949" data-name="Path 1949" d="M189.388,331.149s-.816,6.18-.268,7.136a5.288,5.288,0,0,0,4.4,2.2c1.924-.14,3.16-.14,3.568-1.657s.688-3.02,1.1-4.256a6.69,6.69,0,0,0-.548-5.9c-1.516-2.612-6.881-1.822-8.589,3.007" transform="translate(-180.716 -75.335)" fill="#fff" stroke="#263238" stroke-linecap="round" stroke-linejoin="round" stroke-width="1"/>
      <path id="Path_1950" data-name="Path 1950" d="M202.094,269.016s.421,18.452.421,20.555-7.544,16.783-7.544,20.555-5.951,40.268-5.951,40.268a5.8,5.8,0,0,0,4.192,2.549,7.48,7.48,0,0,0,4.192-1.274s11.469-37.324,14.756-41.1,9.226-18.872,9.226-18.872,3.823,22.644,3.364,25.575-4.192,15.521-3.823,21.816,3.351,36.063,3.351,36.063a5.824,5.824,0,0,0,5.875,2.1,10.194,10.194,0,0,0,5.862-4.613s5.033-40.268,5.454-44.46,5.033-29.78,5.454-38.586.421-20.975.421-20.975a51.685,51.685,0,0,1-25.167-1.274A98.12,98.12,0,0,1,202.935,259Z" transform="translate(-180.691 -94.045)" fill="#263238" stroke="#263238" stroke-linecap="round" stroke-linejoin="round" stroke-width="1"/>
      <path id="Path_1951" data-name="Path 1951" d="M231.785,171.188a55.76,55.76,0,0,1,1.478,6.512,30.91,30.91,0,0,1-.293,3.249s2.37,1.185,2.37,2.663-2.077,4.142-2.077,4.142l-.879,7.1c-.306,2.357-2.077,5.021-3.823,5.607a16.067,16.067,0,0,1-5.021.306l-.892,9.748-16.859-6.206,1.185-8.92s-3.823-10.347-2.064-16.26,9.162-7.391,13.6-8.92S231.785,171.188,231.785,171.188Z" transform="translate(-176.46 -118.536)" fill="#fff" stroke="#263238" stroke-linecap="round" stroke-linejoin="round" stroke-width="1"/>
      <path id="Path_1952" data-name="Path 1952" d="M207.77,201.307S198.85,190.96,198.3,181.2s2.956-15.967,8.92-18.031,9.162-1.491,9.162-1.491-4.435-.879.306-2.956,10.054,1.478,10.054,1.478-2.956-2.357.586-2.064,5.021,2.064,8.283,9.468-5.62,10.042-7.1,10.64,2.663,2.37,2.064,3.823-3.823,3.823-3.823,3.823l.879,6.512s-1.478,2.357-2.357.879-1.185-4.435-3.823-2.663.586,7.646,1.478,7.646-2.077,3.249-5.913,4.435a10.284,10.284,0,0,1-6.206.293,4.256,4.256,0,0,1-3.046-1.682Z" transform="translate(-178.161 -121.73)" fill="#263238" stroke="#263238" stroke-linecap="round" stroke-linejoin="round" stroke-width="1"/>
      <path id="Path_1953" data-name="Path 1953" d="M202.85,197.458a5.1,5.1,0,0,1,5.62-2.663c3.823.892,11.826,4.141,13.6,6.512s3.823,9.455,3.823,9.455L204.009,201S200.773,199.523,202.85,197.458Z" transform="translate(-177.089 -111.688)" fill="#fff" stroke="#263238" stroke-linecap="round" stroke-linejoin="round" stroke-width="1"/>
      <path id="Path_1954" data-name="Path 1954" d="M191.4,259.391l.624,3.122V269.1l-.943,2.549-1.555.624v-1.567l.93,5.951-1.873,1.555s-4.065-6.563-5.008-8.436,0-10.437,0-10.437S185.148,260.958,191.4,259.391Z" transform="translate(-182.299 -93.951)" fill="#fff" stroke="#263238" stroke-linecap="round" stroke-linejoin="round" stroke-width="1"/>
      <path id="Path_1955" data-name="Path 1955" d="M247.507,219.476s-8.385-4.205-17.19-9.646-21.4-11.329-24.747-13.431-6.142-4.919-12.157-.828c-11.622,7.875-5.033,30.583-5.033,33.54s-6.3,22.237-5.875,26.009,1.274,22.224,1.274,22.224,1.669,3.364,7.964,1.682c0,0,4.192-19.293,4.613-24.747a105.668,105.668,0,0,1,2.931-14.68l4.205,23.906-4.205,19.713s2.944,9.646,12.59,13,19.688,6.244,31.437,2.1c4.613-1.644,12.17-7.964,12.17-7.964s-3.823-42.778-3.823-44.881S250.871,228.7,247.507,219.476Z" transform="translate(-182.484 -112.017)" fill="#fff"/>
      <g id="Group_96" data-name="Group 96" transform="translate(0 81.463)" clip-path="url(#clip-path-2)">
        <path id="Path_1956" data-name="Path 1956" d="M241.326,293.3c4.613-1.644,12.17-7.964,12.17-7.964s-1.631-18.477-2.753-31.73a1.567,1.567,0,0,0-1.657.28c-2.893,2.408-1.924,23.651-3.823,22.7s-11.1-27.053-18.35-37.668,2.421,6.27.484,12.068-21.663-33.323-32.355-38.153-1.937,8.691-1.937,8.691l1.95,23.014c.892-4.855,2.268-9.952,2.268-9.952l4.205,23.906L197.324,278.2s2.944,9.646,12.59,13S229.577,297.438,241.326,293.3Z" transform="translate(-180.496 -188.46)" fill="#92e3a9"/>
        <path id="Path_1957" data-name="Path 1957" d="M241.326,293.3c4.613-1.644,12.17-7.964,12.17-7.964s-1.631-18.477-2.753-31.73a1.567,1.567,0,0,0-1.657.28c-2.893,2.408-1.924,23.651-3.823,22.7s-11.1-27.053-18.35-37.668,2.421,6.27.484,12.068-21.663-33.323-32.355-38.153-1.937,8.691-1.937,8.691l1.95,23.014c.892-4.855,2.268-9.952,2.268-9.952l4.205,23.906L197.324,278.2s2.944,9.646,12.59,13S229.577,297.438,241.326,293.3Z" transform="translate(-180.496 -188.46)" fill="#fff" opacity="0.5"/>
      </g>
      <path id="Path_1959" data-name="Path 1959" d="M247.507,219.476s-8.385-4.205-17.19-9.646-21.4-11.329-24.747-13.431-6.142-4.919-12.157-.828c-11.622,7.875-5.033,30.583-5.033,33.54s-6.3,22.237-5.875,26.009,1.274,22.224,1.274,22.224,1.669,3.364,7.964,1.682c0,0,4.192-19.293,4.613-24.747a105.668,105.668,0,0,1,2.931-14.68l4.205,23.906-4.205,19.713s2.944,9.646,12.59,13,19.688,6.244,31.437,2.1c4.613-1.644,12.17-7.964,12.17-7.964s-3.823-42.778-3.823-44.881S250.871,228.7,247.507,219.476Z" transform="translate(-182.484 -112.017)" fill="none" stroke="#263238" stroke-linecap="round" stroke-linejoin="round" stroke-width="1"/>
      <path id="Path_1960" data-name="Path 1960" d="M197.133,233.713s-3.823-10.437-6.843-18.783" transform="translate(-180.343 -106.133)" fill="none" stroke="#263238" stroke-linecap="round" stroke-linejoin="round" stroke-width="1"/>
      <path id="Path_1961" data-name="Path 1961" d="M227.684,214.759s6.3-1.669,8.805-.828,15.1,34.406,15.1,34.406L268.372,227.8s2.549-3.364,7.544,3.823l-21.383,40.255s-2.549,3.823-6.716.421-25.168-36.547-25.168-36.547" transform="translate(-171.467 -106.472)" fill="#fff" stroke="#263238" stroke-linecap="round" stroke-linejoin="round" stroke-width="1"/>
      <path id="Path_1962" data-name="Path 1962" d="M313.753,305.344s-.357,14.438,2.867,18.783,7.149,3.135,7.149-1.555-1.784-14.489-4.294-18.783S313.753,305.344,313.753,305.344Z" transform="translate(-146.48 -82.191)" fill="#fff" stroke="#263238" stroke-linecap="round" stroke-linejoin="round" stroke-width="1"/>
      <path id="Path_1963" data-name="Path 1963" d="M283.753,284.643s-11.074,7.149-11.787,10.717,12.858-.357,16.8-5.365S288.761,283.216,283.753,284.643Z" transform="translate(-157.947 -87.142)" fill="#fff" stroke="#263238" stroke-linecap="round" stroke-linejoin="round" stroke-width="1"/>
      <path id="Path_1964" data-name="Path 1964" d="M277.968,228.372s-1.44,25.371.357,34.317,1.427,41.1,1.427,41.1,2.549.714,4.638,1.427,5.365-2.854,5.365-2.854l5.365-40.026,3.568-15.368,8.576,33.947,16.451,48.245s1.07,1.083,4.638,1.44a3.339,3.339,0,0,0,3.938-2.867l-5.008-52.54-3.568-44.677s-14.3,0-23.231-1.07a65.194,65.194,0,0,1-18.235-5.709L277.611,222Z" transform="translate(-156.443 -104.194)" fill="#263238" stroke="#263238" stroke-linecap="round" stroke-linejoin="round" stroke-width="1"/>
      <path id="Path_1965" data-name="Path 1965" d="M296.843,160.087l-18.223,6.078c-3.224,1.07-3.581,5.352-3.581,10.36s2.854,46.818,2.141,51.826-1.427,19.662-1.427,19.662a99.959,99.959,0,0,0,8.92,7.506,22.733,22.733,0,0,0,7.862,2.867l2.549-7.506,3.211,9.29s9.29,2.854,16.8,1.784S328.675,249.1,328.675,249.1l-3.989-23.957s11.469-44.307,8.576-49.7-13.941-11.8-21.446-14.3a33.438,33.438,0,0,0-14.973-1.058Z" transform="translate(-157.096 -121.288)" fill="#fff"/>
      <g id="Group_97" data-name="Group 97" transform="translate(117.944 38.394)" clip-path="url(#clip-path-3)">
        <path id="Path_1966" data-name="Path 1966" d="M325.975,187.21s-3.39,9.659-6.282,20.771-12.552,30.9-13.52,32.355-20.287-24.632-18.834-20.771a94.93,94.93,0,0,1,2.893,11.112l-14.017-36.815c.65,12.042,1.274,24.377.854,26.951-.714,5.008-1.427,19.65-1.427,19.65a99.967,99.967,0,0,0,8.92,7.506,22.732,22.732,0,0,0,7.862,2.867l2.549-7.506,3.211,9.29s9.29,2.854,16.8,1.784,13.584-12.858,13.584-12.858l-4.04-23.957s3.211-12.45,5.8-24.951Z" transform="translate(-274.875 -152.131)" fill="#92e3a9"/>
        <path id="Path_1967" data-name="Path 1967" d="M325.975,187.21s-3.39,9.659-6.282,20.771-12.552,30.9-13.52,32.355-20.287-24.632-18.834-20.771a94.93,94.93,0,0,1,2.893,11.112l-14.017-36.815c.65,12.042,1.274,24.377.854,26.951-.714,5.008-1.427,19.65-1.427,19.65a99.967,99.967,0,0,0,8.92,7.506,22.732,22.732,0,0,0,7.862,2.867l2.549-7.506,3.211,9.29s9.29,2.854,16.8,1.784,13.584-12.858,13.584-12.858l-4.04-23.957s3.211-12.45,5.8-24.951Z" transform="translate(-274.875 -152.131)" fill="#fff" opacity="0.5"/>
      </g>
      <path id="Path_1969" data-name="Path 1969" d="M296.843,160.087l-18.223,6.078c-3.224,1.07-3.581,5.352-3.581,10.36s2.854,46.818,2.141,51.826-1.427,19.662-1.427,19.662a99.959,99.959,0,0,0,8.92,7.506,22.733,22.733,0,0,0,7.862,2.867l2.549-7.506,3.211,9.29s9.29,2.854,16.8,1.784S328.675,249.1,328.675,249.1l-3.989-23.957s11.469-44.307,8.576-49.7-13.941-11.8-21.446-14.3a33.438,33.438,0,0,0-14.973-1.058Z" transform="translate(-157.096 -121.288)" fill="none" stroke="#263238" stroke-linecap="round" stroke-linejoin="round" stroke-width="1"/>
      <path id="Path_1970" data-name="Path 1970" d="M288.485,161.69l-5.365,11.443L288.842,181l-6.792,5.352,9.3,13.227" transform="translate(-155.173 -120.737)" fill="#fff" stroke="#263238" stroke-linecap="round" stroke-linejoin="round" stroke-width="1"/>
      <path id="Path_1971" data-name="Path 1971" d="M312.764,162.25l3.568,16.082-8.576,2.154,3.925,5.709s-5.352,6.078-10.36,8.92-13.941,8.219-13.941,8.219l2.549,39.312" transform="translate(-153.711 -120.583)" fill="#fff" stroke="#263238" stroke-linecap="round" stroke-linejoin="round" stroke-width="1"/>
      <path id="Path_1972" data-name="Path 1972" d="M290.7,160.512s-1.07,12.514-1.07,19.662a89.416,89.416,0,0,0,2.141,16.438s10.36-14.654,13.584-20.733,4.638-11.469,2.549-14.3-3.938-2.549-3.938-2.549S293.924,156.231,290.7,160.512Z" transform="translate(-153.094 -121.713)" fill="#fff" stroke="#263238" stroke-linecap="round" stroke-linejoin="round" stroke-width="1"/>
      <path id="Path_1973" data-name="Path 1973" d="M291.974,174.748l.714,2.867-2.5,7.862,1.427,7.862,4.638-6.792-.714-8.219,2.51-2.867-1.8-5.352Z" transform="translate(-152.94 -118.427)" fill="#263238"/>
      <path id="Path_1974" data-name="Path 1974" d="M289.91,175l5.709-3.211,5.722,5.722" transform="translate(-153.017 -117.967)" fill="none" stroke="#263238" stroke-linecap="round" stroke-linejoin="round" stroke-width="1"/>
      <path id="Path_1975" data-name="Path 1975" d="M317.571,233.77l-2.141,7.506.714,5.722h1.427l.714-3.211.357,8.219,3.581.357,3.925-9.659v-8.219Z" transform="translate(-146.017 -100.965)" fill="#fff" stroke="#263238" stroke-linecap="round" stroke-linejoin="round" stroke-width="1"/>
      <path id="Path_1976" data-name="Path 1976" d="M319.4,175.953s-6.078,8.92-6.435,13.227,1.083,9.29,1.8,12.87.357,20.733,1.784,26.76,1.784,22.16,1.784,22.16,2.549,3.581,8.576.714c0,0,2.549-27.512,1.8-41.81a115.771,115.771,0,0,0-4.294-25.728s1.784-9.659-1.784-13.227" transform="translate(-146.709 -118.205)" fill="#fff" stroke="#263238" stroke-linecap="round" stroke-linejoin="round" stroke-width="1"/>
      <path id="Path_1977" data-name="Path 1977" d="M293,162.588s-.357,12.87,1.784,12.87,7.506-13.941,8.219-16.438S293,162.588,293,162.588Z" transform="translate(-152.174 -121.635)" fill="#fff" stroke="#263238" stroke-linecap="round" stroke-linejoin="round" stroke-width="1"/>
      <path id="Path_1978" data-name="Path 1978" d="M287.285,142.67s-.969,12.488,1.274,17.611,3.823,11.469,7.365,11.838,11.2-9.6,11.2-9.6l.956-2.549a22.122,22.122,0,0,0,3.823-12.17C311.93,140.708,293.35,136.222,287.285,142.67Z" transform="translate(-153.794 -126.808)" fill="#fff" stroke="#263238" stroke-linecap="round" stroke-linejoin="round" stroke-width="1"/>
      <path id="Path_1979" data-name="Path 1979" d="M291.9,150.39l-.79,7.442,3.135.777" transform="translate(-152.688 -123.837)" fill="#fff" stroke="#263238" stroke-linecap="round" stroke-linejoin="round" stroke-width="0.75"/>
      <path id="Path_1980" data-name="Path 1980" d="M290.286,150.736c0,.828-.217,1.5-.484,1.5s-.471-.675-.471-1.5.217-1.516.471-1.516S290.286,149.9,290.286,150.736Z" transform="translate(-153.176 -124.158)" fill="#263238"/>
      <path id="Path_1981" data-name="Path 1981" d="M295.633,152.224c0,.841-.2,1.516-.471,1.516s-.471-.675-.471-1.516.2-1.5.471-1.5S295.633,151.4,295.633,152.224Z" transform="translate(-151.706 -123.746)" fill="#263238"/>
      <path id="Path_1982" data-name="Path 1982" d="M293.69,149.2s3.644-.956,5.237,1.746" transform="translate(-151.98 -124.209)" fill="#fff" stroke="#263238" stroke-linecap="round" stroke-linejoin="round" stroke-width="0.75"/>
      <path id="Path_1983" data-name="Path 1983" d="M288.46,147.968a2.421,2.421,0,0,1,3.173,1.109" transform="translate(-153.415 -124.562)" fill="#fff" stroke="#263238" stroke-linecap="round" stroke-linejoin="round" stroke-width="0.75"/>
      <path id="Path_1984" data-name="Path 1984" d="M291.2,158.75a3.262,3.262,0,0,0,3.963.637" transform="translate(-152.663 -121.543)" fill="#fff" stroke="#263238" stroke-linecap="round" stroke-linejoin="round" stroke-width="0.75"/>
      <path id="Path_1985" data-name="Path 1985" d="M293.6,132.251s-10.883,2.23-9.608,8.92,12.157,8.64,15.368,8.64a34.739,34.739,0,0,0,7.034-.956s-3.2,3.517-1.274,5.1S308,156.5,308,156.5s2.243,1.606,2.243-.319a19.6,19.6,0,0,1,.956-4.791l2.88-.331s3.823-7.034,2.549-11.838S306.076,124.885,293.6,132.251Z" transform="translate(-154.669 -129.552)" fill="#263238" stroke="#263238" stroke-linecap="round" stroke-linejoin="round" stroke-width="1"/>
      <path id="Path_1986" data-name="Path 1986" d="M302.81,152.074s2.243-8.64,6.078-5.441-3.2,9.608-4.8,9.29" transform="translate(-149.479 -125.062)" fill="#fff" stroke="#263238" stroke-linecap="round" stroke-linejoin="round" stroke-width="1"/>
    </g>
  </g>
</svg>
