<svg xmlns="http://www.w3.org/2000/svg" width="602.875" height="356.955" viewBox="0 0 602.875 356.955">
  <g id="Delivery_address-bro" data-name="Delivery address-bro" transform="translate(-28.11 -40.063)">
    <g id="freepik--background-simple--inject-42" transform="translate(31.514 40.063)">
      <path id="Path_1164" data-name="Path 1164" d="M606.836,174.676a144.814,144.814,0,0,0-28.408-50.923C534.554,73.464,469.97,47.99,404.728,41.72,240.49,26,196.941,126.893,166.745,145.456,107.8,181.708-.992,229.91,41.684,318.462c23.549,48.835,92.718,53.181,139.432,53.48,136.275.855,154.615-19.221,227.12-2.626S554.2,381.5,592.149,323.868C619.163,282.843,621.635,220.441,606.836,174.676Z" transform="translate(-32.005 -40.063)" fill="#92e3a9"/>
      <path id="Path_1165" data-name="Path 1165" d="M606.836,174.676a144.814,144.814,0,0,0-28.408-50.923C534.554,73.464,469.97,47.99,404.728,41.72,240.49,26,196.941,126.893,166.745,145.456,107.8,181.708-.992,229.91,41.684,318.462c23.549,48.835,92.718,53.181,139.432,53.48,136.275.855,154.615-19.221,227.12-2.626S554.2,381.5,592.149,323.868C619.163,282.843,621.635,220.441,606.836,174.676Z" transform="translate(-32.005 -40.063)" fill="#fff" opacity="0.7"/>
    </g>
    <g id="freepik--Buildings--inject-42" transform="translate(36.942 47.853)">
      <path id="Path_1166" data-name="Path 1166" d="M704.13,254.43v35.73h22.283" transform="translate(-134.615 -78.849)" fill="none" stroke="#263238" stroke-linecap="round" stroke-linejoin="round" stroke-width="1"/>
      <path id="Path_1167" data-name="Path 1167" d="M642.58,165.21V150.89h16.509v44.746h10.162v47.236h10.162V178.237H695.23v56.9" transform="translate(-125.716 -63.878)" fill="none" stroke="#263238" stroke-linecap="round" stroke-linejoin="round" stroke-width="1"/>
      <path id="Path_1168" data-name="Path 1168" d="M63.59,203.169V180.929H80.1v29.828H96.609V158.551h38.1v47.236h34.285V143.641h27.938v59.665h27.784V71.548h16.672v54.686h13.969V49.17h34.285V210.757h45.722V103.865h29.2V166.01h25.4V83.977H434.41V173.47h22.865V121.264h17.775v34.807h17.775V113.8h10.162V71.548h15.243v120.04h13.926V161.04h3.849v67.124h22.857V154.385" transform="translate(-41.999 -49.17)" fill="none" stroke="#263238" stroke-linecap="round" stroke-linejoin="round" stroke-width="1"/>
      <path id="Path_1169" data-name="Path 1169" d="M38.35,287.169H59.941V233.74" transform="translate(-38.35 -75.857)" fill="none" stroke="#263238" stroke-linecap="round" stroke-linejoin="round" stroke-width="1"/>
      <rect id="Rectangle_100" data-name="Rectangle 100" width="12.232" height="12.232" transform="translate(511.424 192.185)" fill="none" stroke="#263238" stroke-linecap="round" stroke-linejoin="round" stroke-width="1"/>
      <rect id="Rectangle_101" data-name="Rectangle 101" width="12.232" height="12.232" transform="translate(531.517 192.185)" fill="none" stroke="#263238" stroke-linecap="round" stroke-linejoin="round" stroke-width="1"/>
      <rect id="Rectangle_102" data-name="Rectangle 102" width="12.232" height="12.232" transform="translate(26.612 192.185)" fill="none" stroke="#263238" stroke-linecap="round" stroke-linejoin="round" stroke-width="1"/>
      <rect id="Rectangle_103" data-name="Rectangle 103" width="12.232" height="12.232" transform="translate(7.391 219.259)" fill="none" stroke="#263238" stroke-linecap="round" stroke-linejoin="round" stroke-width="1"/>
      <rect id="Rectangle_104" data-name="Rectangle 104" width="12.232" height="12.232" transform="translate(511.424 212.27)" fill="none" stroke="#263238" stroke-linecap="round" stroke-linejoin="round" stroke-width="1"/>
    </g>
    <g id="freepik--Plants--inject-42" transform="translate(30.837 305.456)">
      <path id="Path_1170" data-name="Path 1170" d="M615.419,377.955c2.224.975,7.656.855,7.7.855s-1.172-3.559-1.275-3.772c-1.189-2.489-4.961-6.612-8.032-6.193a3.661,3.661,0,0,0-2.943,4.585C611.347,375.551,613.528,377.125,615.419,377.955Z" transform="translate(-115.007 -352.99)" fill="#92e3a9"/>
      <path id="Path_1171" data-name="Path 1171" d="M617.391,391.02c2.31.342,7.16-1.069,7.545-1.18a63.714,63.714,0,0,0,2.943,8.135c.667,1.548,1.386,3.079,2.121,4.611-.436-.65-.855-1.223-.907-1.3-1.8-2.087-6.527-5.064-9.409-3.858a3.661,3.661,0,0,0-1.625,5.209c1.052,1.916,3.567,2.866,5.612,3.156s6.236-.813,7.331-1.121c.291.582.573,1.172.855,1.754,1.411,2.8,2.823,5.577,4.123,8.357.462.975.855,1.95,1.3,2.934-.394-.582-.736-1.061-.787-1.129-1.813-2.087-6.535-5.064-9.409-3.858a3.67,3.67,0,0,0-1.625,5.209c1.052,1.916,3.576,2.857,5.611,3.156s5.834-.7,7.134-1.069c.4,1.018.8,2.036,1.146,3.037.222.684.479,1.334.659,2.036s.385,1.386.573,2.062c.316,1.326.65,2.686.932,3.986.2.9.368,1.762.547,2.635-.445-.984-1.36-2.874-1.454-3.028-1.471-2.344-5.689-5.988-8.691-5.235a3.678,3.678,0,0,0-2.4,4.9c.753,2.053,3.105,3.37,5.073,3.978,2.181.659,6.989.051,7.6,0,.282,1.437.547,2.84.778,4.166.18.984.334,1.925.479,2.831h1.925c-.18-1.009-.376-2.062-.6-3.165-.282-1.463-.624-3.02-.984-4.619a36.711,36.711,0,0,0,4.234-1.985c1.591,1.711,5.646,3.721,6.176,3.978-.556,1.36-1.1,2.677-1.642,3.909l-.855,1.882h2.13c.163-.385.325-.77.488-1.172.565-1.377,1.146-2.857,1.711-4.388.582.12,5.346,1.095,7.57.59,2.01-.453,4.448-1.591,5.355-3.584a3.67,3.67,0,0,0-2.027-5.064c-2.934-.984-7.416,2.344-9.05,4.568-.1.137-.992,1.711-1.54,2.66.231-.633.47-1.232.7-1.882.47-1.275.855-2.566,1.369-3.952.2-.676.4-1.352.607-2.044s.368-1.429.556-2.147c.393-1.711.719-3.422,1.009-5.132,1.112.411,5.132,1.8,7.177,1.651s4.645-.9,5.843-2.729a3.67,3.67,0,0,0-1.232-5.312c-2.754-1.42-7.7,1.2-9.649,3.148-.12.12-1.369,1.711-2.036,2.566.163-1.052.334-2.087.462-3.156.385-3.071.667-6.185.975-9.3.094-.949.2-1.9.3-2.849.393.145,5.133,1.9,7.425,1.711,2.053-.137,4.645-.855,5.834-2.729a3.661,3.661,0,0,0-1.232-5.312c-2.754-1.42-7.7,1.2-9.641,3.148-.154.145-1.942,2.387-2.37,2.985.214-2.1.453-4.174.778-6.219a64.688,64.688,0,0,1,1.779-8.178c.188.068,5.132,1.925,7.468,1.754,2.062-.137,4.645-.9,5.842-2.729a3.67,3.67,0,0,0-1.232-5.312c-2.754-1.42-7.7,1.2-9.649,3.148-.154.154-2.079,2.566-2.4,3.028a1.9,1.9,0,0,1,.12-.47,47.684,47.684,0,0,1,3.242-7.741c.7-1.377,1.454-2.652,2.207-3.884.855.445,4.919,2.4,7.074,2.489s4.713-.385,6.1-2.079a3.661,3.661,0,0,0-.633-5.415c-2.566-1.711-7.776.351-9.931,2.07-.12.094-1.215,1.18-1.993,1.985.351-.548.7-1.121,1.044-1.642,1.3-1.95,2.609-3.653,3.772-5.132.676-.855,1.3-1.6,1.89-2.3,1.086,0,5.466-.154,7.382-1.052s4-2.515,4.457-4.653a3.661,3.661,0,0,0-3.062-4.508c-3.079-.334-6.732,3.884-7.861,6.407-.094.222-1.223,3.807-1.172,3.807h.12c-.582.667-1.2,1.377-1.856,2.173-1.206,1.48-2.566,3.165-3.892,5.09A65.288,65.288,0,0,0,668,380.738a47.29,47.29,0,0,0-3.422,7.767v.094c0-.907,0-3.422-.043-3.635-.359-2.737-2.66-7.827-5.7-8.392a3.653,3.653,0,0,0-4.226,3.422c-.18,2.173,1.394,4.354,2.934,5.731,1.711,1.548,6.561,3.054,6.946,3.174a63.865,63.865,0,0,0-2.036,8.409c-.3,1.66-.547,3.336-.77,5.021v-1.583c-.351-2.746-2.652-7.836-5.7-8.4a3.67,3.67,0,0,0-4.226,3.422c-.18,2.181,1.4,4.363,2.943,5.74s5.646,2.754,6.732,3.105c-.077.642-.163,1.292-.24,1.933-.376,3.114-.736,6.21-1.172,9.247-.163,1.069-.351,2.113-.539,3.156a9.023,9.023,0,0,0-.043-1.369c-.351-2.737-2.652-7.827-5.7-8.392a3.661,3.661,0,0,0-4.226,3.422c-.18,2.173,1.4,4.354,2.943,5.731s5.252,2.626,6.535,3.045c-.222,1.061-.445,2.13-.71,3.156-.205.693-.342,1.377-.582,2.07s-.436,1.36-.659,2.027q-.693,1.925-1.42,3.841c-.334.855-.659,1.711-.992,2.5.162-1.061.453-3.148.453-3.319a14.234,14.234,0,0,0-1.908-6.929,4.283,4.283,0,0,0-.051-.8,3.67,3.67,0,0,0-4.482-3.114c-2.985.8-4.885,6.048-5.03,8.811,0,.163.1,1.942.188,3.062-.154-.65-.291-1.283-.453-1.95-.317-1.326-.667-2.635-1.044-4.046-.2-.676-.411-1.36-.616-2.053s-.479-1.386-.727-2.087c-.59-1.617-1.266-3.233-1.985-4.842,1.155-.274,5.252-1.317,6.9-2.566s3.37-3.31,3.362-5.5a3.67,3.67,0,0,0-3.961-3.747c-3.08.334-5.748,5.235-6.3,7.947,0,.163-.222,2.156-.3,3.251-.436-.967-.855-1.933-1.352-2.891-1.377-2.772-2.857-5.535-4.277-8.289l-1.326-2.566c.419-.094,5.312-1.232,7.16-2.652,1.634-1.257,3.37-3.31,3.362-5.492a3.67,3.67,0,0,0-3.961-3.755c-3.079.334-5.748,5.235-6.3,7.947,0,.205-.308,3.062-.334,3.8-.967-1.873-1.916-3.738-2.78-5.62a64.484,64.484,0,0,1-3.02-7.8c.188-.043,5.312-1.206,7.194-2.66,1.642-1.249,3.379-3.31,3.362-5.492a3.661,3.661,0,0,0-3.961-3.755c-3.071.334-5.748,5.235-6.3,7.947,0,.214-.316,3.293-.334,3.849a1.954,1.954,0,0,0-.154-.462,46.724,46.724,0,0,1-1.565-8.238c-.18-1.54-.257-3.02-.3-4.465.975-.111,5.423-.71,7.271-1.822s3.721-2.926,3.943-5.132a3.67,3.67,0,0,0-3.524-4.166c-3.1,0-6.287,4.577-7.143,7.211,0,.137-.351,1.642-.565,2.746V373.39c0-2.344.154-4.491.3-6.39.094-1.078.2-2.044.308-2.96.9-.616,4.474-3.139,5.577-4.944s1.95-4.277,1.155-6.347a3.67,3.67,0,0,0-5.047-2.07c-2.746,1.42-3.473,6.963-3.02,9.683,0,.24,1.078,3.849,1.129,3.824l.051-.043c-.12.855-.24,1.813-.351,2.84-.188,1.9-.385,4.046-.436,6.4a65.876,65.876,0,0,0,.18,7.587,47.7,47.7,0,0,0,1.4,8.374v.1c-.488-.77-1.925-2.857-2.053-3.011-1.8-2.087-6.527-5.064-9.409-3.858a3.67,3.67,0,0,0-1.625,5.209C612.831,389.779,615.338,390.72,617.391,391.02Z" transform="translate(-115.106 -350.315)" fill="#92e3a9"/>
      <path id="Path_1172" data-name="Path 1172" d="M679.2,378.572s.984-3.61,1.018-3.849c.385-2.737-.488-8.255-3.276-9.6a3.661,3.661,0,0,0-4.987,2.207c-.744,2.053.2,4.576,1.326,6.3C674.6,375.672,679.192,378.572,679.2,378.572Z" transform="translate(-123.82 -352.41)" fill="#92e3a9"/>
      <path id="Path_1173" data-name="Path 1173" d="M35.89,377.955c2.224.975,7.7.855,7.7.855s-1.172-3.559-1.275-3.772c-1.189-2.489-4.961-6.612-8.032-6.193a3.653,3.653,0,0,0-2.934,4.585C31.818,375.551,34,377.125,35.89,377.955Z" transform="translate(-31.214 -352.99)" fill="#92e3a9"/>
      <path id="Path_1174" data-name="Path 1174" d="M37.834,391.031c2.3.342,7.151-1.069,7.536-1.18a65.011,65.011,0,0,0,2.943,8.109c.667,1.548,1.386,3.079,2.13,4.611-.445-.65-.855-1.223-.907-1.3-1.813-2.087-6.535-5.064-9.41-3.858a3.67,3.67,0,0,0-1.625,5.209c1.052,1.916,3.576,2.866,5.611,3.156s6.236-.813,7.331-1.121c.291.582.573,1.172.855,1.754,1.4,2.8,2.814,5.577,4.115,8.357.462.975.855,1.95,1.3,2.934-.393-.582-.727-1.061-.787-1.129-1.813-2.087-6.535-5.064-9.41-3.858a3.67,3.67,0,0,0-1.625,5.209c1.052,1.916,3.576,2.857,5.62,3.156s5.825-.7,7.126-1.069c.4,1.018.8,2.036,1.146,3.037.222.684.479,1.334.659,2.036s.385,1.386.573,2.062c.317,1.326.659,2.686.932,3.986.2.9.376,1.762.547,2.635-.445-.984-1.36-2.874-1.454-3.028-1.471-2.344-5.688-5.988-8.691-5.235a3.67,3.67,0,0,0-2.318,4.961c.744,2.053,3.1,3.37,5.073,3.978,2.173.659,6.98.051,7.587,0,.282,1.437.556,2.84.787,4.166.171.984.325,1.925.47,2.831h1.933c-.188-1.009-.385-2.062-.607-3.165-.282-1.463-.616-3.02-.975-4.619a37.563,37.563,0,0,0,4.226-1.984c1.591,1.711,5.646,3.721,6.176,3.978-.556,1.36-1.1,2.677-1.642,3.909-.282.65-.565,1.266-.855,1.882h2.036c.163-.385.325-.77.488-1.172.573-1.377,1.146-2.857,1.711-4.388.582.12,5.346,1.095,7.57.59,2.01-.453,4.448-1.591,5.355-3.584a3.661,3.661,0,0,0-2.027-5.064c-2.934-.984-7.408,2.344-9.05,4.568-.1.137-.992,1.711-1.54,2.66.24-.633.47-1.232.7-1.882.47-1.275.855-2.566,1.369-3.952.2-.676.4-1.352.607-2.044s.368-1.429.556-2.147c.4-1.711.719-3.422,1.009-5.132,1.121.411,5.132,1.8,7.177,1.651s4.645-.9,5.842-2.729a3.661,3.661,0,0,0-1.232-5.312c-2.754-1.42-7.7,1.2-9.649,3.148-.12.12-1.369,1.711-2.036,2.566.163-1.052.334-2.087.462-3.156.385-3.071.676-6.185.975-9.3.094-.95.2-1.9.3-2.849.393.145,5.132,1.9,7.425,1.711,2.062-.137,4.645-.855,5.834-2.729a3.661,3.661,0,0,0-1.232-5.312c-2.746-1.42-7.7,1.2-9.64,3.148-.145.145-1.942,2.387-2.369,2.985.222-2.1.462-4.174.778-6.219a64.684,64.684,0,0,1,1.788-8.178c.18.068,5.09,1.925,7.468,1.754,2.053-.137,4.645-.9,5.834-2.729a3.67,3.67,0,0,0-1.232-5.312c-2.754-1.42-7.7,1.2-9.64,3.148-.154.154-2.087,2.566-2.4,3.028.043-.154.077-.316.12-.47A47.672,47.672,0,0,1,88.8,381c.7-1.377,1.454-2.652,2.216-3.884.855.445,4.919,2.4,7.066,2.489s4.713-.385,6.108-2.079a3.67,3.67,0,0,0-.642-5.415c-2.566-1.711-7.776.351-9.931,2.07-.12.094-1.206,1.18-1.993,1.985.351-.547.7-1.121,1.052-1.642,1.292-1.95,2.566-3.653,3.764-5.132.676-.855,1.3-1.6,1.89-2.3,1.086,0,5.466-.154,7.382-1.052s4-2.515,4.457-4.653a3.661,3.661,0,0,0-3.062-4.508c-3.079-.334-6.732,3.884-7.861,6.407-.094.222-1.223,3.807-1.163,3.807h.06c-.582.667-1.2,1.377-1.856,2.173-1.206,1.48-2.566,3.165-3.892,5.09a66.922,66.922,0,0,0-3.986,6.356,47.292,47.292,0,0,0-3.422,7.767v.094c0-.907,0-3.422-.051-3.635-.359-2.737-2.652-7.827-5.7-8.392a3.653,3.653,0,0,0-4.226,3.422c-.18,2.173,1.4,4.354,2.943,5.731,1.711,1.548,6.552,3.054,6.937,3.174a65.224,65.224,0,0,0-2.036,8.409c-.3,1.659-.539,3.336-.77,5.021v-1.583c-.359-2.746-2.66-7.836-5.706-8.4a3.67,3.67,0,0,0-4.226,3.422c-.171,2.181,1.4,4.363,2.943,5.74s5.646,2.754,6.732,3.105c-.077.642-.163,1.292-.24,1.933-.376,3.114-.727,6.21-1.172,9.247-.154,1.069-.351,2.113-.539,3.156v-1.369c-.359-2.737-2.66-7.827-5.7-8.392a3.653,3.653,0,0,0-4.226,3.422c-.18,2.173,1.394,4.354,2.934,5.731s5.252,2.626,6.544,3.045c-.231,1.061-.453,2.13-.719,3.156-.2.693-.342,1.377-.582,2.07s-.436,1.36-.659,2.027q-.693,1.925-1.42,3.841c-.325.855-.659,1.711-.992,2.5.171-1.061.453-3.148.453-3.319a14.234,14.234,0,0,0-1.908-6.929,4.277,4.277,0,0,0-.051-.8,3.661,3.661,0,0,0-4.474-3.114c-2.994.8-4.893,6.048-5.03,8.811,0,.163.094,1.942.18,3.062-.154-.65-.291-1.283-.453-1.95-.317-1.326-.667-2.635-1.035-4.046-.205-.676-.411-1.36-.624-2.053s-.479-1.386-.719-2.087c-.59-1.617-1.275-3.233-1.993-4.842,1.163-.274,5.261-1.317,6.9-2.566s3.379-3.31,3.362-5.5a3.67,3.67,0,0,0-3.961-3.747c-3.079.334-5.748,5.235-6.3,7.947,0,.163-.222,2.156-.3,3.251-.436-.967-.855-1.933-1.352-2.891-1.377-2.772-2.849-5.535-4.277-8.289-.453-.855-.855-1.711-1.326-2.566.411-.094,5.3-1.232,7.151-2.652,1.634-1.257,3.422-3.31,3.362-5.492a3.67,3.67,0,0,0-3.961-3.755c-3.079.334-5.748,5.235-6.3,7.947-.043.205-.3,3.062-.334,3.8-.967-1.873-1.916-3.738-2.78-5.62a64.479,64.479,0,0,1-3.02-7.8c.2-.043,5.312-1.206,7.194-2.66,1.642-1.249,3.379-3.31,3.362-5.492a3.661,3.661,0,0,0-3.952-3.755c-3.079.334-5.748,5.235-6.313,7.947-.043.214-.317,3.293-.325,3.849-.051-.154-.12-.308-.163-.462a47.527,47.527,0,0,1-1.565-8.238c-.171-1.54-.257-3.02-.3-4.465.975-.111,5.432-.71,7.271-1.822s3.721-2.925,3.943-5.132a3.67,3.67,0,0,0-3.7-4.055c-3.088,0-6.287,4.576-7.134,7.211-.051.137-.359,1.642-.573,2.746V373.47c0-2.344.145-4.491.3-6.39.086-1.078.2-2.044.3-2.96.855-.616,4.482-3.139,5.577-4.944s1.959-4.277,1.155-6.347a3.67,3.67,0,0,0-5.047-2.07c-2.746,1.42-3.473,6.963-3.02,9.683.043.24,1.078,3.849,1.129,3.824l.051-.043c-.12.855-.24,1.813-.351,2.84-.188,1.9-.385,4.046-.436,6.4a65.908,65.908,0,0,0,.18,7.587,47.731,47.731,0,0,0,1.386,8.357v.1c-.488-.77-1.916-2.857-2.044-3.011-1.813-2.087-6.535-5.064-9.41-3.858a3.67,3.67,0,0,0-1.625,5.209C33.267,389.791,35.79,390.732,37.834,391.031Z" transform="translate(-31.276 -350.327)" fill="#92e3a9"/>
      <path id="Path_1175" data-name="Path 1175" d="M99.671,378.572c.051,0,.992-3.61,1.018-3.849.385-2.737-.488-8.255-3.276-9.6a3.661,3.661,0,0,0-4.987,2.207c-.744,2.053.205,4.577,1.326,6.3C95.069,375.672,99.671,378.572,99.671,378.572Z" transform="translate(-40.026 -352.41)" fill="#92e3a9"/>
    </g>
    <g id="freepik--Device--inject-42" transform="translate(43.768 84.533)">
      <path id="Path_1176" data-name="Path 1176" d="M98.808,92.05h429.8A8.948,8.948,0,0,1,537.556,101V382.641H89.86V101a8.948,8.948,0,0,1,8.948-8.948Z" transform="translate(-52.624 -92.05)" fill="#263238" stroke="#263238" stroke-miterlimit="10" stroke-width="1"/>
      <rect id="Rectangle_105" data-name="Rectangle 105" width="410.99" height="243.09" transform="translate(55.533 19.743)" fill="#fff" stroke="#263238" stroke-linecap="round" stroke-linejoin="round" stroke-width="1"/>
      <rect id="Rectangle_106" data-name="Rectangle 106" width="136.874" height="20.436" transform="translate(63.565 92.744)" fill="#fff" stroke="#263238" stroke-linecap="round" stroke-linejoin="round" stroke-width="1"/>
      <rect id="Rectangle_107" data-name="Rectangle 107" width="136.874" height="20.436" transform="translate(63.565 196.086)" fill="#fff" stroke="#263238" stroke-linecap="round" stroke-linejoin="round" stroke-width="1"/>
      <rect id="Rectangle_108" data-name="Rectangle 108" width="136.874" height="20.436" transform="translate(205.238 92.744)" fill="#fff" stroke="#263238" stroke-linecap="round" stroke-linejoin="round" stroke-width="1"/>
      <rect id="Rectangle_109" data-name="Rectangle 109" width="136.874" height="20.436" transform="translate(63.565 169.414)" fill="#fff" stroke="#263238" stroke-linecap="round" stroke-linejoin="round" stroke-width="1"/>
      <rect id="Rectangle_110" data-name="Rectangle 110" width="136.874" height="20.436" transform="translate(205.238 169.414)" fill="#fff" stroke="#263238" stroke-linecap="round" stroke-linejoin="round" stroke-width="1"/>
      <rect id="Rectangle_111" data-name="Rectangle 111" width="277.957" height="20.436" transform="translate(63.565 118.295)" fill="#fff" stroke="#263238" stroke-linecap="round" stroke-linejoin="round" stroke-width="1"/>
      <rect id="Rectangle_112" data-name="Rectangle 112" width="277.957" height="20.436" transform="translate(63.565 143.846)" fill="#fff" stroke="#263238" stroke-linecap="round" stroke-linejoin="round" stroke-width="1"/>
      <path id="Path_1177" data-name="Path 1177" d="M126.364,167.71c1.634,0,2.387.992,2.387,2.618v5.329c0,1.6-.753,2.566-2.387,2.566H123.9V167.71Zm0,9.41c.855,0,1.249-.53,1.249-1.488v-5.406c0-.958-.411-1.48-1.266-1.48h-1.257v8.374Z" transform="translate(-57.546 -102.99)" fill="#263238"/>
      <path id="Path_1178" data-name="Path 1178" d="M134.58,172.363v1.052h-2.566v3.738h3.156v1.069h-4.32V167.71h4.32v1.1h-3.156V172.4Z" transform="translate(-58.551 -102.99)" fill="#263238"/>
      <path id="Path_1179" data-name="Path 1179" d="M137.16,178.223V167.71h1.172v9.41H141.3v1.1Z" transform="translate(-59.463 -102.99)" fill="#263238"/>
      <path id="Path_1180" data-name="Path 1180" d="M144.242,167.71v10.513H143.07V167.71Z" transform="translate(-60.318 -102.99)" fill="#263238"/>
      <path id="Path_1181" data-name="Path 1181" d="M146.673,167.71l1.711,9.144,1.711-9.144h1.078L149.2,178.223h-1.711l-1.976-10.5Z" transform="translate(-60.67 -102.99)" fill="#263238"/>
      <path id="Path_1182" data-name="Path 1182" d="M156.908,172.363v1.052h-2.566v3.738h3.148v1.069h-4.32V167.71h4.32v1.1h-3.148V172.4Z" transform="translate(-61.778 -102.99)" fill="#263238"/>
      <path id="Path_1183" data-name="Path 1183" d="M161.818,167.71c1.651,0,2.335.855,2.335,2.4v.855a1.968,1.968,0,0,1-1.3,2.164c.958.282,1.317,1.061,1.317,2.19v1.634a2.566,2.566,0,0,0,.214,1.257H163.2a2.7,2.7,0,0,1-.2-1.275v-1.651c0-1.18-.556-1.557-1.531-1.557h-.855v4.491H159.44V167.71Zm-.3,4.953c.924,0,1.48-.3,1.48-1.437v-1.009c0-.941-.342-1.437-1.215-1.437h-1.138v3.884Z" transform="translate(-62.685 -102.99)" fill="#263238"/>
      <path id="Path_1184" data-name="Path 1184" d="M168.014,174.451l-2.224-6.741h1.223l1.634,5.132,1.651-5.132h1.1l-2.233,6.741v3.772h-1.155Z" transform="translate(-63.603 -102.99)" fill="#263238"/>
      <path id="Path_1185" data-name="Path 1185" d="M177.188,176.1l-.376,2.121H175.7l2.01-10.5h1.711l2,10.5h-1.189l-.411-2.113Zm.145-1.009h2.344l-1.155-6.056Z" transform="translate(-65.036 -102.991)" fill="#263238"/>
      <path id="Path_1186" data-name="Path 1186" d="M185.914,167.71c1.634,0,2.387.992,2.387,2.618v5.329c0,1.6-.753,2.566-2.387,2.566H183.45V167.71Zm0,9.41c.855,0,1.249-.53,1.249-1.488v-5.406c0-.958-.4-1.48-1.257-1.48h-1.266v8.374Z" transform="translate(-66.156 -102.99)" fill="#263238"/>
      <path id="Path_1187" data-name="Path 1187" d="M192.855,167.71c1.642,0,2.387.992,2.387,2.618v5.329c0,1.6-.744,2.566-2.387,2.566H190.4V167.71Zm0,9.41c.855,0,1.24-.53,1.24-1.488v-5.406c0-.958-.4-1.48-1.257-1.48H191.58v8.374Z" transform="translate(-67.161 -102.99)" fill="#263238"/>
      <path id="Path_1188" data-name="Path 1188" d="M199.678,167.71c1.651,0,2.335.855,2.335,2.4v.855a1.968,1.968,0,0,1-1.3,2.164c.958.282,1.317,1.061,1.317,2.19v1.634a2.566,2.566,0,0,0,.214,1.257h-1.189a2.7,2.7,0,0,1-.2-1.275v-1.651c0-1.18-.556-1.557-1.531-1.557h-.855v4.491H197.3V167.71Zm-.3,4.953c.924,0,1.48-.3,1.48-1.437v-1.009c0-.941-.342-1.437-1.215-1.437h-1.138v3.884Z" transform="translate(-68.159 -102.99)" fill="#263238"/>
      <path id="Path_1189" data-name="Path 1189" d="M207.988,172.363v1.052h-2.566v3.738h3.148v1.069h-4.32V167.71h4.32v1.1h-3.148V172.4Z" transform="translate(-69.164 -102.99)" fill="#263238"/>
      <path id="Path_1190" data-name="Path 1190" d="M215.083,170.218v.291h-1.112v-.342c0-.95-.359-1.5-1.2-1.5s-1.206.547-1.206,1.48c0,2.361,3.533,2.566,3.533,5.535,0,1.591-.77,2.626-2.37,2.626s-2.361-1.035-2.361-2.626v-.6h1.095v.659c0,.949.393,1.506,1.232,1.506s1.232-.556,1.232-1.506c0-2.335-3.516-2.566-3.516-5.517,0-1.617.753-2.626,2.327-2.626S215.083,168.626,215.083,170.218Z" transform="translate(-70.049 -102.974)" fill="#263238"/>
      <path id="Path_1191" data-name="Path 1191" d="M221.6,170.218v.291h-1.112v-.342c0-.95-.359-1.5-1.2-1.5s-1.2.547-1.2,1.48c0,2.361,3.524,2.566,3.524,5.535,0,1.591-.77,2.626-2.37,2.626s-2.361-1.035-2.361-2.626v-.6h1.095v.659c0,.949.393,1.506,1.232,1.506s1.232-.556,1.232-1.506c0-2.335-3.507-2.566-3.507-5.517,0-1.617.744-2.626,2.327-2.626S221.6,168.626,221.6,170.218Z" transform="translate(-70.991 -102.974)" fill="#263238"/>
      <path id="Path_1192" data-name="Path 1192" d="M129.714,211.338v.855h-1.933v3.635h-.941V207.42h3.345v.855h-2.4v3.062Z" transform="translate(-57.971 -108.731)" fill="#ccc"/>
      <path id="Path_1193" data-name="Path 1193" d="M132.551,207.46v8.409h-.941V207.46Z" transform="translate(-58.661 -108.737)" fill="#ccc"/>
      <path id="Path_1194" data-name="Path 1194" d="M135.683,207.457c1.317,0,1.873.676,1.873,1.925v.684a1.574,1.574,0,0,1-1.044,1.711c.77.231,1.052.855,1.052,1.754v1.309a2.147,2.147,0,0,0,.171,1.009h-.949a2.19,2.19,0,0,1-.154-1.027V213.5c0-.95-.445-1.249-1.223-1.249h-.659v3.593h-.941V207.44Zm-.24,3.961c.744,0,1.189-.24,1.189-1.146v-.8c0-.761-.274-1.155-.975-1.155h-.907v3.105Z" transform="translate(-58.979 -108.734)" fill="#ccc"/>
      <path id="Path_1195" data-name="Path 1195" d="M142.978,209.467v.231h-.855v-.274c0-.761-.291-1.206-.958-1.206s-.958.445-.958,1.189c0,1.882,2.814,2.07,2.814,4.431,0,1.275-.607,2.1-1.89,2.1s-1.89-.855-1.89-2.1v-.479h.855v.539c0,.753.308,1.2.984,1.2s.984-.445.984-1.2c0-1.873-2.806-2.053-2.806-4.423,0-1.292.6-2.1,1.856-2.1S142.978,208.193,142.978,209.467Z" transform="translate(-59.764 -108.726)" fill="#ccc"/>
      <path id="Path_1196" data-name="Path 1196" d="M145.738,215.869v-7.553H144.19v-.855h4.029v.855h-1.557v7.553Z" transform="translate(-60.48 -108.737)" fill="#ccc"/>
      <path id="Path_1197" data-name="Path 1197" d="M152.625,215.869h-.855V207.46h1.189l1.942,6.073V207.46h.855v8.409h-.975l-2.147-6.8Z" transform="translate(-61.576 -108.737)" fill="#ccc"/>
      <path id="Path_1198" data-name="Path 1198" d="M158.45,214.178l-.325,1.711h-.855l1.608-8.409h1.36l1.608,8.409h-.941l-.325-1.711Zm.12-.8h1.89l-.949-4.85Z" transform="translate(-62.371 -108.74)" fill="#ccc"/>
      <path id="Path_1199" data-name="Path 1199" d="M166.544,215.852h-.924l-1.394-6.681v6.7h-.855V207.46h1.394l1.386,6.715,1.334-6.715h1.309v8.409h-.855v-6.758Z" transform="translate(-63.253 -108.737)" fill="#ccc"/>
      <path id="Path_1200" data-name="Path 1200" d="M173.8,211.182v.855h-2.053v2.985h2.566v.855H170.89V207.47h3.422v.855h-2.566v2.866Z" transform="translate(-64.34 -108.739)" fill="#ccc"/>
      <path id="Path_1201" data-name="Path 1201" d="M292.64,215.869V207.46h.932v7.553h2.4v.855Z" transform="translate(-81.944 -108.737)" fill="#ccc"/>
      <path id="Path_1202" data-name="Path 1202" d="M298.27,214.178l-.325,1.711h-.855l1.608-8.409h1.36l1.608,8.409h-.941l-.317-1.711Zm.12-.8h1.873l-.949-4.85Z" transform="translate(-82.587 -108.74)" fill="#ccc"/>
      <path id="Path_1203" data-name="Path 1203" d="M306.9,209.467v.231h-.855v-.274c0-.761-.291-1.206-.967-1.206s-.958.445-.958,1.189c0,1.882,2.823,2.07,2.823,4.431,0,1.275-.616,2.1-1.9,2.1s-1.882-.855-1.882-2.1v-.479h.855v.539c0,.753.316,1.2.984,1.2s.984-.445.984-1.2c0-1.873-2.806-2.053-2.806-4.423,0-1.292.6-2.1,1.865-2.1S306.9,208.193,306.9,209.467Z" transform="translate(-83.465 -108.726)" fill="#ccc"/>
      <path id="Path_1204" data-name="Path 1204" d="M309.658,215.869v-7.553H308.11v-.855h4.02v.855h-1.548v7.553Z" transform="translate(-84.181 -108.737)" fill="#ccc"/>
      <path id="Path_1205" data-name="Path 1205" d="M316.545,215.869h-.855V207.46h1.189l1.95,6.073V207.46h.855v8.409h-.967l-2.156-6.8Z" transform="translate(-85.277 -108.737)" fill="#ccc"/>
      <path id="Path_1206" data-name="Path 1206" d="M322.37,214.178l-.325,1.711h-.855l1.608-8.409h1.36l1.608,8.409h-.932l-.325-1.711Zm.12-.8h1.873l-.949-4.85Z" transform="translate(-86.072 -108.74)" fill="#ccc"/>
      <path id="Path_1207" data-name="Path 1207" d="M330.482,215.852h-.855l-1.394-6.681v6.7h-.813V207.46h1.309l1.377,6.715,1.334-6.715h1.309v8.409h-.855v-6.758Z" transform="translate(-86.973 -108.737)" fill="#ccc"/>
      <path id="Path_1208" data-name="Path 1208" d="M337.72,211.182v.855h-2.053v2.985h2.515v.855H334.76V207.47h3.422v.855h-2.515v2.866Z" transform="translate(-88.034 -108.739)" fill="#ccc"/>
      <path id="Path_1209" data-name="Path 1209" d="M128.03,243.309l-.325,1.711h-.855l1.617-8.4h1.352l1.608,8.4h-.941l-.325-1.711Zm.12-.8h1.873l-.95-4.85Z" transform="translate(-57.972 -112.953)" fill="#ccc"/>
      <path id="Path_1210" data-name="Path 1210" d="M135.017,236.6c1.309,0,1.908.8,1.908,2.087v4.277c0,1.283-.6,2.07-1.908,2.07H133.05V236.6Zm0,7.553c.676,0,1-.419,1-1.189v-4.277c0-.77-.325-1.189-1.009-1.189H134v6.7Z" transform="translate(-58.869 -112.951)" fill="#ccc"/>
      <path id="Path_1211" data-name="Path 1211" d="M140.567,236.6c1.309,0,1.908.8,1.908,2.087v4.277c0,1.283-.6,2.07-1.908,2.07H138.6V236.6Zm0,7.553c.667,0,.992-.419.992-1.189v-4.277c0-.77-.325-1.189-1.009-1.189h-1.009v6.7Z" transform="translate(-59.671 -112.951)" fill="#ccc"/>
      <path id="Path_1212" data-name="Path 1212" d="M146.033,236.6c1.317,0,1.865.676,1.865,1.925v.684c0,.924-.316,1.5-1.044,1.711a1.55,1.55,0,0,1,1.061,1.711v1.309a2.113,2.113,0,0,0,.163,1.009h-.941a2.121,2.121,0,0,1-.163-1.018v-1.317c0-.95-.445-1.249-1.223-1.249h-.659v3.584h-.932V236.6Zm-.248,3.961c.744,0,1.189-.24,1.189-1.155v-.8c0-.753-.274-1.146-.967-1.146h-.915v3.105Z" transform="translate(-60.475 -112.951)" fill="#ccc"/>
      <path id="Path_1213" data-name="Path 1213" d="M152.681,240.364v.855h-2.053v2.994h2.523v.855H149.73V236.6h3.422v.855h-2.523v2.908Z" transform="translate(-61.281 -112.951)" fill="#ccc"/>
      <path id="Path_1214" data-name="Path 1214" d="M158.368,238.644v.222h-.855v-.274c0-.753-.291-1.2-.967-1.2s-.958.445-.958,1.189c0,1.882,2.823,2.062,2.823,4.431,0,1.266-.616,2.1-1.9,2.1s-1.882-.855-1.882-2.1v-.488h.855v.53c0,.761.316,1.206.984,1.206s.992-.445.992-1.206c0-1.873-2.814-2.053-2.814-4.414,0-1.3.6-2.1,1.865-2.1S158.368,237.336,158.368,238.644Z" transform="translate(-61.989 -112.942)" fill="#ccc"/>
      <path id="Path_1215" data-name="Path 1215" d="M163.568,238.644v.222h-.855v-.274c0-.753-.291-1.2-.967-1.2s-.958.445-.958,1.189c0,1.882,2.823,2.062,2.823,4.431,0,1.266-.616,2.1-1.9,2.1s-1.882-.855-1.882-2.1v-.488h.855v.53c0,.761.317,1.206.984,1.206s.984-.445.984-1.206c0-1.873-2.806-2.053-2.806-4.414,0-1.3.6-2.1,1.865-2.1S163.568,237.336,163.568,238.644Z" transform="translate(-62.741 -112.942)" fill="#ccc"/>
      <path id="Path_1216" data-name="Path 1216" d="M167.35,245v-8.4h.932v7.553h2.4v.855Z" transform="translate(-63.828 -112.951)" fill="#ccc"/>
      <path id="Path_1217" data-name="Path 1217" d="M173.011,236.6V245h-.941v-8.4Z" transform="translate(-64.511 -112.951)" fill="#ccc"/>
      <path id="Path_1218" data-name="Path 1218" d="M175.115,245h-.855v-8.4h1.18l1.95,6.073V236.6h.855V245h-.975l-2.147-6.792Z" transform="translate(-64.827 -112.951)" fill="#ccc"/>
      <path id="Path_1219" data-name="Path 1219" d="M183.021,240.364v.855h-2.053v2.994h2.523v.855H180.07V236.6h3.422v.855h-2.523v2.908Z" transform="translate(-65.668 -112.951)" fill="#ccc"/>
      <path id="Path_1220" data-name="Path 1220" d="M189.063,238.123a2.4,2.4,0,0,1-1.163.359v-.761a1.446,1.446,0,0,0,1.437-1.121h.65V245h-.924Z" transform="translate(-66.8 -112.951)" fill="#ccc"/>
      <path id="Path_1221" data-name="Path 1221" d="M128.03,274.869l-.325,1.711h-.855l1.617-8.4h1.352l1.608,8.4h-.941l-.325-1.711Zm.12-.8h1.873l-.95-4.85Z" transform="translate(-57.972 -117.517)" fill="#ccc"/>
      <path id="Path_1222" data-name="Path 1222" d="M135.017,268.18c1.309,0,1.908.787,1.908,2.087V274.5c0,1.283-.6,2.079-1.908,2.079H133.05v-8.4Zm0,7.545c.676,0,1-.419,1-1.189v-4.32c0-.77-.325-1.189-1.009-1.189H134v6.7Z" transform="translate(-58.869 -117.517)" fill="#ccc"/>
      <path id="Path_1223" data-name="Path 1223" d="M140.567,268.18c1.309,0,1.908.787,1.908,2.087V274.5c0,1.283-.6,2.079-1.908,2.079H138.6v-8.4Zm0,7.545c.667,0,.992-.419.992-1.189v-4.32c0-.77-.325-1.189-1.009-1.189h-1.009v6.7Z" transform="translate(-59.671 -117.517)" fill="#ccc"/>
      <path id="Path_1224" data-name="Path 1224" d="M146.033,268.18c1.317,0,1.865.667,1.865,1.916v.684c0,.924-.316,1.506-1.044,1.711.77.231,1.061.855,1.061,1.754v1.309a2.147,2.147,0,0,0,.163,1.009h-.941a2.121,2.121,0,0,1-.163-1.018v-1.326c0-.95-.445-1.249-1.223-1.249h-.659v3.61h-.932v-8.4Zm-.248,3.961c.744,0,1.189-.24,1.189-1.155v-.8c0-.761-.274-1.155-.967-1.155h-.915v3.114Z" transform="translate(-60.475 -117.517)" fill="#ccc"/>
      <path id="Path_1225" data-name="Path 1225" d="M152.681,271.9v.855h-2.053v2.968h2.523v.855H149.73v-8.4h3.422v.855h-2.523v2.874Z" transform="translate(-61.281 -117.517)" fill="#ccc"/>
      <path id="Path_1226" data-name="Path 1226" d="M158.368,270.176v.231h-.855v-.274c0-.761-.291-1.206-.967-1.206s-.958.445-.958,1.189c0,1.89,2.823,2.07,2.823,4.431,0,1.275-.616,2.1-1.9,2.1s-1.882-.855-1.882-2.1v-.479h.855v.53c0,.753.316,1.2.984,1.2s.992-.445.992-1.2c0-1.873-2.814-2.053-2.814-4.422,0-1.292.6-2.1,1.865-2.1S158.368,268.91,158.368,270.176Z" transform="translate(-61.989 -117.502)" fill="#ccc"/>
      <path id="Path_1227" data-name="Path 1227" d="M163.568,270.176v.231h-.855v-.274c0-.761-.291-1.206-.967-1.206s-.958.445-.958,1.189c0,1.89,2.823,2.07,2.823,4.431,0,1.275-.616,2.1-1.9,2.1s-1.882-.855-1.882-2.1v-.479h.855v.53c0,.753.317,1.2.984,1.2s.984-.445.984-1.2c0-1.873-2.806-2.053-2.806-4.422,0-1.292.6-2.1,1.865-2.1S163.568,268.91,163.568,270.176Z" transform="translate(-62.741 -117.502)" fill="#ccc"/>
      <path id="Path_1228" data-name="Path 1228" d="M167.35,276.58v-8.4h.932v7.545h2.4v.855Z" transform="translate(-63.828 -117.517)" fill="#ccc"/>
      <path id="Path_1229" data-name="Path 1229" d="M173.011,268.18v8.4h-.941v-8.4Z" transform="translate(-64.511 -117.517)" fill="#ccc"/>
      <path id="Path_1230" data-name="Path 1230" d="M175.115,276.58h-.855v-8.4h1.18l1.95,6.073V268.18h.855v8.4h-.975l-2.147-6.792Z" transform="translate(-64.827 -117.517)" fill="#ccc"/>
      <path id="Path_1231" data-name="Path 1231" d="M183.021,271.9v.855h-2.053v2.968h2.523v.855H180.07v-8.4h3.422v.855h-2.523v2.874Z" transform="translate(-65.668 -117.517)" fill="#ccc"/>
      <path id="Path_1232" data-name="Path 1232" d="M191.031,270.2c0,2.566-2.84,3.422-2.857,5.381v.128h2.763v.855H187.25v-.719c0-2.712,2.849-3.242,2.849-5.612,0-.855-.291-1.317-.984-1.317s-.984.488-.984,1.24v.744h-.855v-.684c0-1.292.59-2.139,1.882-2.139S191.031,268.918,191.031,270.2Z" transform="translate(-66.706 -117.502)" fill="#ccc"/>
      <path id="Path_1233" data-name="Path 1233" d="M128.4,305.58v-7.545H126.84v-.855h4.029v.855h-1.548v7.545Z" transform="translate(-57.971 -121.71)" fill="#ccc"/>
      <path id="Path_1234" data-name="Path 1234" d="M132.2,299.2c0-1.283.642-2.113,1.925-2.113a1.859,1.859,0,0,1,1.933,2.113v4.345a1.937,1.937,0,1,1-3.858,0Zm.924,4.4c0,.77.325,1.215,1,1.215s.992-.445.992-1.215v-4.44c0-.761-.308-1.215-.992-1.215s-1,.453-1,1.215Z" transform="translate(-58.746 -121.697)" fill="#ccc"/>
      <path id="Path_1235" data-name="Path 1235" d="M139.948,305.58h-1.292l-1.146-8.4h.907l.984,7.151.941-7.143h.924l.924,7.16.95-7.168h.778l-1.1,8.4h-1.24l-.8-5.7Z" transform="translate(-59.514 -121.71)" fill="#ccc"/>
      <path id="Path_1236" data-name="Path 1236" d="M146.745,305.58h-.855v-8.4h1.189l1.942,6.073V297.18h.855v8.4h-.984l-2.147-6.792Z" transform="translate(-60.725 -121.71)" fill="#ccc"/>
      <path id="Path_1237" data-name="Path 1237" d="M155.446,297.189l-3.31,8.392h-.855l3.319-8.4Z" transform="translate(-61.505 -121.71)" fill="#ccc"/>
      <path id="Path_1238" data-name="Path 1238" d="M160.631,299.2v.761h-.855v-.8c0-.761-.3-1.215-.984-1.215s-.984.453-.984,1.215v4.44c0,.753.316,1.215.984,1.215s.984-.462.984-1.215V302.5h.855v1.044c0,1.275-.6,2.113-1.89,2.113s-1.89-.855-1.89-2.113V299.2c0-1.275.6-2.113,1.89-2.113S160.631,297.928,160.631,299.2Z" transform="translate(-62.31 -121.697)" fill="#ccc"/>
      <path id="Path_1239" data-name="Path 1239" d="M163.2,297.189v8.392h-.932v-8.4Z" transform="translate(-63.094 -121.71)" fill="#ccc"/>
      <path id="Path_1240" data-name="Path 1240" d="M165.638,305.58v-7.545H164.09v-.855h4.02v.855h-1.531v7.545Z" transform="translate(-63.357 -121.71)" fill="#ccc"/>
      <path id="Path_1241" data-name="Path 1241" d="M170.971,302.579,169.2,297.19h.967l1.309,4.132,1.326-4.132h.855l-1.8,5.389v3h-.924Z" transform="translate(-64.096 -121.711)" fill="#ccc"/>
      <path id="Path_1242" data-name="Path 1242" d="M128.685,329.34c1.326,0,1.882.778,1.882,2.053V332.4c0,1.334-.616,2.027-1.95,2.027h-.855v3.319h-.941V329.34Zm-.068,4.277c.693,0,1.026-.325,1.026-1.129v-1.112c0-.77-.274-1.155-.958-1.155h-.9v3.422Z" transform="translate(-57.968 -126.36)" fill="#ccc"/>
      <path id="Path_1243" data-name="Path 1243" d="M132.982,333.968v3.781h-.932V329.34h.932v3.781h2.07V329.34h.932v8.409h-.932v-3.781Z" transform="translate(-58.724 -126.36)" fill="#ccc"/>
      <path id="Path_1244" data-name="Path 1244" d="M137.69,331.353c0-1.283.633-2.113,1.916-2.113a1.859,1.859,0,0,1,1.933,2.113V335.7c0,1.275-.633,2.113-1.933,2.113s-1.916-.855-1.916-2.113Zm.924,4.4c0,.77.325,1.215.992,1.215s1-.445,1-1.215v-4.44c0-.761-.316-1.215-1-1.215s-.992.453-.992,1.215Z" transform="translate(-59.54 -126.345)" fill="#ccc"/>
      <path id="Path_1245" data-name="Path 1245" d="M144.055,337.749H143.2V329.34h1.189l1.942,6.073V329.34h.855v8.409h-.975l-2.147-6.8Z" transform="translate(-60.336 -126.36)" fill="#ccc"/>
      <path id="Path_1246" data-name="Path 1246" d="M151.96,333.064v.855h-2.053v2.994h2.515v.855H149V329.36h3.422v.855H149.9v2.866Z" transform="translate(-61.175 -126.363)" fill="#ccc"/>
      <path id="Path_1247" data-name="Path 1247" d="M157.015,337.749h-.855V329.34h1.189l1.942,6.073V329.34h.855v8.409h-.975l-2.147-6.8Z" transform="translate(-62.21 -126.36)" fill="#ccc"/>
      <path id="Path_1248" data-name="Path 1248" d="M162.841,335.764c0,.753.3,1.215.984,1.215s.975-.462.975-1.215V329.34h.855v6.373c0,1.275-.59,2.13-1.882,2.13s-1.873-.855-1.873-2.13V329.34h.941Z" transform="translate(-63.04 -126.36)" fill="#ccc"/>
      <path id="Path_1249" data-name="Path 1249" d="M170.475,337.732h-.855l-1.394-6.681v6.7h-.855V329.34h1.3l1.386,6.715,1.334-6.715H172.7v8.409h-.855v-6.766Z" transform="translate(-63.831 -126.36)" fill="#ccc"/>
      <path id="Path_1250" data-name="Path 1250" d="M176.582,329.34c1.309,0,1.822.624,1.822,1.865v.411c0,.855-.248,1.437-.984,1.668.855.231,1.129.855,1.129,1.8v.7a1.711,1.711,0,0,1-1.916,1.976H174.7v-8.409Zm-.231,3.567c.744,0,1.129-.239,1.129-1.112v-.5c0-.744-.248-1.1-.924-1.1h-.924v2.712Zm.282,3.986c.684,0,.992-.359.992-1.138v-.719c0-.941-.368-1.249-1.172-1.249H175.6v3.131Z" transform="translate(-64.891 -126.36)" fill="#ccc"/>
      <path id="Path_1251" data-name="Path 1251" d="M183.2,333.064v.855h-2.053v2.994h2.566v.855H180.29V329.36h3.422v.855h-2.566v2.866Z" transform="translate(-65.699 -126.363)" fill="#ccc"/>
      <path id="Path_1252" data-name="Path 1252" d="M187.123,329.34c1.317,0,1.865.676,1.865,1.925v.684c0,.924-.316,1.5-1.044,1.711a1.55,1.55,0,0,1,1.061,1.711v1.377a2.147,2.147,0,0,0,.163,1.009h-.941a2.19,2.19,0,0,1-.163-1.026v-1.317c0-.949-.445-1.249-1.223-1.249h-.659v3.593h-.932v-8.409Zm-.248,3.961c.744,0,1.189-.24,1.189-1.146v-.8c0-.761-.274-1.155-.967-1.155h-.915v3.131Z" transform="translate(-66.416 -126.36)" fill="#ccc"/>
      <path id="Path_1253" data-name="Path 1253" d="M294.466,297.189c1.326,0,1.89.778,1.89,2.053v1.009c0,1.334-.624,2.027-1.959,2.027h-.855v3.3h-.932v-8.4Zm-.068,4.277c.693,0,1.027-.325,1.027-1.129v-1.121c0-.761-.274-1.146-.958-1.146h-.855v3.422Z" transform="translate(-81.94 -121.71)" fill="#ccc"/>
      <path id="Path_1254" data-name="Path 1254" d="M297.76,299.2c0-1.283.633-2.113,1.916-2.113a1.859,1.859,0,0,1,1.933,2.113v4.345c0,1.275-.633,2.113-1.933,2.113s-1.916-.855-1.916-2.113Zm.924,4.4c0,.77.325,1.215.992,1.215s1-.445,1-1.215v-4.44c0-.761-.316-1.215-1-1.215s-.992.453-.992,1.215Z" transform="translate(-82.684 -121.697)" fill="#ccc"/>
      <path id="Path_1255" data-name="Path 1255" d="M306.918,299.194v.222h-.855v-.274c0-.753-.291-1.2-.958-1.2s-.958.445-.958,1.189c0,1.882,2.814,2.062,2.814,4.431,0,1.266-.607,2.1-1.89,2.1s-1.89-.855-1.89-2.1v-.479h.855v.522c0,.761.308,1.206.984,1.206s.984-.445.984-1.206c0-1.873-2.814-2.053-2.814-4.414,0-1.3.607-2.1,1.865-2.1S306.918,297.92,306.918,299.194Z" transform="translate(-83.468 -121.697)" fill="#ccc"/>
      <path id="Path_1256" data-name="Path 1256" d="M309.668,305.58v-7.545H308.12v-.855h4.02v.855h-1.557v7.545Z" transform="translate(-84.182 -121.71)" fill="#ccc"/>
      <path id="Path_1257" data-name="Path 1257" d="M319.441,299.2v.761h-.855v-.8c0-.761-.3-1.215-.984-1.215s-.984.453-.984,1.215v4.44c0,.753.308,1.215.984,1.215s.984-.462.984-1.215V302.5h.855v1.044c0,1.275-.607,2.113-1.9,2.113s-1.882-.855-1.882-2.113V299.2c0-1.275.6-2.113,1.882-2.113S319.441,297.928,319.441,299.2Z" transform="translate(-85.272 -121.697)" fill="#ccc"/>
      <path id="Path_1258" data-name="Path 1258" d="M321,299.2c0-1.283.633-2.113,1.916-2.113a1.859,1.859,0,0,1,1.933,2.113v4.345c0,1.275-.633,2.113-1.933,2.113S321,304.806,321,303.548Zm.924,4.4c0,.77.325,1.215.992,1.215s1-.445,1-1.215v-4.44c0-.761-.316-1.215-1-1.215s-.992.453-.992,1.215Z" transform="translate(-86.045 -121.697)" fill="#ccc"/>
      <path id="Path_1259" data-name="Path 1259" d="M328.5,297.19c1.309,0,1.908.8,1.908,2.087v4.277c0,1.283-.6,2.07-1.908,2.07H326.53v-8.4Zm0,7.553c.667,0,.992-.419.992-1.189v-4.32c0-.77-.325-1.189-1.009-1.189h-1.009v6.681Z" transform="translate(-86.844 -121.711)" fill="#ccc"/>
      <path id="Path_1260" data-name="Path 1260" d="M335.074,300.91v.855h-2.053v2.96h2.523v.855H332.08v-8.4h3.464v.855h-2.523V300.9Z" transform="translate(-87.647 -121.71)" fill="#ccc"/>
      <rect id="Rectangle_113" data-name="Rectangle 113" width="410.99" height="25.551" transform="translate(55.533 19.743)" fill="#92e3a9" stroke="#263238" stroke-linecap="round" stroke-linejoin="round" stroke-width="1"/>
      <rect id="Rectangle_114" data-name="Rectangle 114" width="59.126" height="18.246" transform="translate(184.384 27.048)" fill="#fff" stroke="#263238" stroke-linecap="round" stroke-linejoin="round" stroke-width="1"/>
      <rect id="Rectangle_115" data-name="Rectangle 115" width="59.126" height="18.246" transform="translate(250.079 27.048)" fill="#fff" stroke="#263238" stroke-linecap="round" stroke-linejoin="round" stroke-width="1"/>
      <rect id="Rectangle_116" data-name="Rectangle 116" width="59.126" height="18.246" transform="translate(315.783 27.048)" fill="#fff" stroke="#263238" stroke-linecap="round" stroke-linejoin="round" stroke-width="1"/>
      <rect id="Rectangle_117" data-name="Rectangle 117" width="59.126" height="18.246" transform="translate(381.479 27.048)" fill="#fff" stroke="#263238" stroke-linecap="round" stroke-linejoin="round" stroke-width="1"/>
      <rect id="Rectangle_118" data-name="Rectangle 118" width="307.682" height="15.158" transform="translate(108.269 276.605)" fill="#263238" stroke="#263238" stroke-linecap="round" stroke-linejoin="round" stroke-width="1"/>
      <rect id="Rectangle_119" data-name="Rectangle 119" width="307.682" height="7.861" transform="translate(108.269 283.902)" fill="#fff" stroke="#263238" stroke-linecap="round" stroke-linejoin="round" stroke-width="1"/>
      <path id="Path_1261" data-name="Path 1261" d="M47.54,443.63s5.047,6.176,20.2,11.232H549.477s11.232-2.806,16.253-10.667Z" transform="translate(-46.505 -142.885)" fill="#263238" stroke="#263238" stroke-linecap="round" stroke-linejoin="round" stroke-width="1"/>
      <rect id="Rectangle_120" data-name="Rectangle 120" width="520.346" height="11.805" rx="1.89" transform="translate(0 289.685)" fill="#969696" stroke="#263238" stroke-miterlimit="10" stroke-width="1"/>
      <path id="Path_1262" data-name="Path 1262" d="M354.673,101.666a3.926,3.926,0,1,0-3.926,3.926A3.926,3.926,0,0,0,354.673,101.666Z" transform="translate(-89.778 -92.873)" fill="#263238" stroke="#263238" stroke-linecap="round" stroke-linejoin="round" stroke-width="1"/>
      <path id="Path_1263" data-name="Path 1263" d="M94.6,181.772h0a1.121,1.121,0,0,1-1.121-1.121V148.086A1.121,1.121,0,0,1,94.6,147h0a1.129,1.129,0,0,1,1.129,1.121v32.565a1.121,1.121,0,0,1-1.129,1.086Z" transform="translate(-53.147 -99.995)" fill="#263238"/>
      <rect id="Rectangle_121" data-name="Rectangle 121" width="58.339" height="36.671" rx="1.45" transform="translate(371.522 59.571)" fill="#adadad"/>
      <rect id="Rectangle_122" data-name="Rectangle 122" width="11.035" height="8.109" transform="translate(414.343 63.018)" fill="#fff"/>
      <line id="Line_283" data-name="Line 283" x2="6.809" transform="translate(377.68 80.862)" fill="none" stroke="#fff" stroke-miterlimit="10" stroke-width="1"/>
      <line id="Line_284" data-name="Line 284" x2="6.809" transform="translate(377.68 66.26)" fill="none" stroke="#fff" stroke-miterlimit="10" stroke-width="1"/>
      <line id="Line_285" data-name="Line 285" x2="6.809" transform="translate(377.68 90.271)" fill="none" stroke="#fff" stroke-miterlimit="10" stroke-width="1"/>
      <line id="Line_286" data-name="Line 286" x2="6.818" transform="translate(388.382 90.271)" fill="none" stroke="#fff" stroke-miterlimit="10" stroke-width="1"/>
      <line id="Line_287" data-name="Line 287" x2="6.809" transform="translate(387.74 80.862)" fill="none" stroke="#fff" stroke-miterlimit="10" stroke-width="1"/>
      <line id="Line_288" data-name="Line 288" x2="6.809" transform="translate(397.8 80.862)" fill="none" stroke="#fff" stroke-miterlimit="10" stroke-width="1"/>
      <line id="Line_289" data-name="Line 289" x2="6.818" transform="translate(407.851 80.862)" fill="none" stroke="#fff" stroke-miterlimit="10" stroke-width="1"/>
      <line id="Line_290" data-name="Line 290" x2="6.818" transform="translate(417.91 80.862)" fill="none" stroke="#fff" stroke-miterlimit="10" stroke-width="1"/>
    </g>
    <g id="freepik--Character--inject-42" transform="translate(301.956 198.119)">
      <path id="Path_1264" data-name="Path 1264" d="M418.794,349.883s-13.456-8.392-11.12-8.785,38.442.984,41.564,1.369,13.464,1.565,14.824,2.147,15.218,5.466,24,6.244,17.964.2,19.512.975,7.416,6.843,6.048,8.973-5.073,2.737-5.073,2.737l-28.879,3.122s-4.679-5.466-8.392-7.031-28.682-8.973-35.7-8.973S418.794,349.883,418.794,349.883Z" transform="translate(-356.726 -241.636)" fill="#263238" stroke="#263238" stroke-miterlimit="10" stroke-width="1"/>
      <path id="Path_1265" data-name="Path 1265" d="M412.363,369.63s-12.7,24.191-25.953,33.164c0,0-2.147.787,1.754.787s16-13.079,19.905-17.758,8-7.613,13.071-7.613h7.416Z" transform="translate(-353.605 -245.772)" fill="#263238" stroke="#263238" stroke-miterlimit="10" stroke-width="1"/>
      <path id="Path_1266" data-name="Path 1266" d="M426.9,393.81a26.928,26.928,0,1,0,26.92,26.923A26.928,26.928,0,0,0,426.9,393.81Zm0,42.343a15.4,15.4,0,1,1,15.4-15.4,15.4,15.4,0,0,1-15.4,15.4Z" transform="translate(-355.65 -249.268)" fill="#263238" stroke="#263238" stroke-miterlimit="10" stroke-width="1"/>
      <path id="Path_1267" data-name="Path 1267" d="M429.57,412.28a11.12,11.12,0,1,0,11.12,11.12,11.12,11.12,0,0,0-11.12-11.12Zm0,17.493a6.373,6.373,0,1,1,6.364-6.373,6.373,6.373,0,0,1-6.364,6.373Z" transform="translate(-358.323 -251.938)" fill="#263238" stroke="#263238" stroke-miterlimit="10" stroke-width="1"/>
      <path id="Path_1268" data-name="Path 1268" d="M428.181,402.7a19.315,19.315,0,1,0,19.29,19.315,19.315,19.315,0,0,0-19.29-19.315Zm0,34.738a15.4,15.4,0,1,1,15.4-15.4,15.4,15.4,0,0,1-15.4,15.4Z" transform="translate(-356.934 -250.553)" fill="#fff" stroke="#263238" stroke-miterlimit="10" stroke-width="1"/>
      <path id="Path_1269" data-name="Path 1269" d="M444.3,381.49l-7.613,20.684,3.516,1.36,7.8-20.684Z" transform="translate(-360.961 -247.486)" fill="#263238" stroke="#263238" stroke-miterlimit="10" stroke-width="1"/>
      <path id="Path_1270" data-name="Path 1270" d="M433.029,404.607s-8-3.516-14.439,1.36-7.22,10.9-7.22,10.9a51.54,51.54,0,0,0,23.413,8.554c13.267,1.146,26.732-.778,33.361-2.729a59.88,59.88,0,0,0,11.7-4.876l-16.39-17.964s-2.335-3.319-7.8-.2-5.663,7.22-5.663,7.22Z" transform="translate(-357.3 -249.919)" fill="#263238" stroke="#263238" stroke-miterlimit="10" stroke-width="1"/>
      <path id="Path_1271" data-name="Path 1271" d="M448.964,383.08l-5.654,20.881,16.39,7.416a11.976,11.976,0,0,1,1.557-6.843c1.95-3.122,4.491-2.934,5.073-2.566s4.1,2.147,4.1,2.147l-1.557-12.292Z" transform="translate(-361.918 -247.716)" fill="#263238" stroke="#263238" stroke-miterlimit="10" stroke-width="1"/>
      <path id="Path_1272" data-name="Path 1272" d="M616.227,393.81a26.928,26.928,0,1,0,26.92,26.923,26.928,26.928,0,0,0-26.92-26.923Zm0,42.343a15.4,15.4,0,1,1,15.4-15.4,15.4,15.4,0,0,1-15.4,15.4Z" transform="translate(-383.025 -249.268)" fill="#263238" stroke="#263238" stroke-miterlimit="10" stroke-width="1"/>
      <path id="Path_1273" data-name="Path 1273" d="M618.9,412.28a11.12,11.12,0,1,0,11.12,11.12A11.12,11.12,0,0,0,618.9,412.28Zm0,17.493a6.373,6.373,0,1,1,6.364-6.373A6.373,6.373,0,0,1,618.9,429.773Z" transform="translate(-385.699 -251.938)" fill="#263238" stroke="#263238" stroke-miterlimit="10" stroke-width="1"/>
      <path id="Path_1274" data-name="Path 1274" d="M617.515,402.7a19.315,19.315,0,1,0,19.315,19.315A19.315,19.315,0,0,0,617.515,402.7Zm0,34.738a15.4,15.4,0,1,1,15.4-15.4,15.4,15.4,0,0,1-15.4,15.4Z" transform="translate(-384.313 -250.553)" fill="#fff" stroke="#263238" stroke-miterlimit="10" stroke-width="1"/>
      <path id="Path_1275" data-name="Path 1275" d="M591.9,393.515l21.24,6.535s11.437-8.64,24.5-5.6c0,0-4.662-13.3-34.071-15.637Z" transform="translate(-383.402 -247.099)" fill="#92e3a9" stroke="#263238" stroke-miterlimit="10" stroke-width="1"/>
      <path id="Path_1276" data-name="Path 1276" d="M614.356,419.537l-18.306-31.89,3.644-2.087L618,417.475a1.711,1.711,0,0,1-.624,2.293l-.736.419A1.711,1.711,0,0,1,614.356,419.537Z" transform="translate(-384.003 -248.075)" fill="#6e6e6e" stroke="#263238" stroke-miterlimit="10" stroke-width="1"/>
      <path id="Path_1277" data-name="Path 1277" d="M546.527,327.89s17.168,8.195,21.856,11.7,14.243,11.12,15.8,13.267,6.048,9.17,4.491,11.514-2.566,3.7-3.516,4.277-5.458,1.36-7.6,3.9-20.1,31.026-20.1,31.026-6.433,10.342-7.416,10.342-12.292,4.1-26.723,3.507-31.8-4.482-34.926-4.679a21.059,21.059,0,0,1-8.007-2.737c-1.369-.787-5.261-3.31-10.924-9.17s-9.367-7.8-8.973-15.218c0,0-44.481-19.512-46.637-21.659s-7.22-12.1-5.073-13.849,11.12-3.712,22.437-2.344,36.1,7.023,40.974,10.342a39.108,39.108,0,0,1,7.613,6.638l28.879-3.122,1.754,3.139s-10.342,13.456-10.342,14.431S511.6,399.5,511.6,399.5s-6.048.778-10.342.975-8,.778-8,.778S531.506,403.4,537.554,403s9.948-6.843,10.924-9.367-1.565-14.824.582-22.241,4.884-12.292,1.959-17.365-13.079-16.39-13.079-19.674S546.527,327.89,546.527,327.89Z" transform="translate(-356.849 -239.736)" fill="#92e3a9" stroke="#263238" stroke-miterlimit="10" stroke-width="1"/>
      <path id="Path_1278" data-name="Path 1278" d="M556.382,327.89s-11.317,6.629-11.317,7.8,9.563,19.512,10.924,23.413-2.729,29.46-3.7,32.2-6.638,8.554-6.638,8.554l-24.191-.385-4.576,1.026-5.765-.051s-6.629-3.122-7.8-3.319-22.052-5.663-24.978-3.9-1.95,3.9-.778,4.277,44.1,8.195,45.072,8.195,22.437,3.507,29.854.778,14.628-13.267,16.193-16.783l1.557-3.507-6.433-5.663s.188-5.466,1.36-8.392,5.073-11.7,3.909-14.824-17.733-20.248-17.562-22.788S556.382,327.89,556.382,327.89Z" transform="translate(-366.703 -239.736)" fill="#263238" stroke="#263238" stroke-miterlimit="10" stroke-width="1"/>
      <path id="Path_1279" data-name="Path 1279" d="M563.493,395.511a14.945,14.945,0,0,0-6.1,4.157c-.137.607-.257,1.052-.342,1.309-.975,2.729-6.638,8.554-6.638,8.554l-24.191-.385-4.576,1.027-5.765-.051a41.817,41.817,0,0,0-6.5,2.121c9.332,1.711,17.6,3.148,18.015,3.148.975,0,22.437,3.507,29.854.778s14.628-13.267,16.193-16.783L575,395.879A19.333,19.333,0,0,0,563.493,395.511Z" transform="translate(-371.471 -249.412)" fill="#263238" stroke="#263238" stroke-miterlimit="10" stroke-width="1"/>
      <path id="Path_1280" data-name="Path 1280" d="M567.342,307.382s-10.154-3.7-13.858-2.147-9.752,6.441-10.539,9.76.787,4.876,3.319,7.22,9.367,9.752,9.367,9.752l10.342-7.408,1.369-1.762s4.876-1.36,5.073-2.335a28.384,28.384,0,0,0-.975-8.785,6.159,6.159,0,0,0-4.1-4.294Z" transform="translate(-376.295 -236.405)" fill="#92e3a9" stroke="#263238" stroke-miterlimit="10" stroke-width="1"/>
      <path id="Path_1281" data-name="Path 1281" d="M570.849,308.73s-1.711,3.31-.393,5.654,4.277,8.776,5.073,6.843-.385-8.195-1.711-9.948a9.64,9.64,0,0,0-2.968-2.549Z" transform="translate(-380.23 -236.966)" fill="#fff" stroke="#263238" stroke-miterlimit="10" stroke-width="1"/>
      <path id="Path_1282" data-name="Path 1282" d="M550.41,327.24c2.908,3,6.33,6.715,6.33,6.715l10.342-7.408,1.369-1.762a26.972,26.972,0,0,0,4.115-1.523c-3.986-1.882-12.934-5.834-15.047-4.328S552.035,324.99,550.41,327.24Z" transform="translate(-377.403 -238.393)" fill="#6e6e6e" stroke="#263238" stroke-miterlimit="10" stroke-width="1"/>
      <path id="Path_1283" data-name="Path 1283" d="M551.8,306.4s-.188-13.849-2.566-14.243-6.638,1.369-6.638,1.369a11.334,11.334,0,0,1-1.711-9.315q.077-.308.18-.642c1.753-5.851,10.342,5.073,11.12,6.843a10.579,10.579,0,0,1,.582,4.277l1.172,10.932s3.319,1.95,1.762,2.147-7.81,0-6.245-1.565S551.8,306.4,551.8,306.4Z" transform="translate(-375.975 -233.081)" fill="#263238" stroke="#263238" stroke-miterlimit="10" stroke-width="1"/>
      <path id="Path_1284" data-name="Path 1284" d="M563.378,328.48l-20.6-9.41c.171,2.027,1.54,3.37,3.49,5.132,2.566,2.344,9.367,9.752,9.367,9.752Z" transform="translate(-376.3 -238.461)" fill="#263238" stroke="#263238" stroke-miterlimit="10" stroke-width="1"/>
      <rect id="Rectangle_123" data-name="Rectangle 123" width="64.566" height="55.542" transform="translate(29.939 43.005)" fill="#263238" stroke="#263238" stroke-miterlimit="10" stroke-width="1"/>
      <rect id="Rectangle_124" data-name="Rectangle 124" width="54.156" height="1.386" transform="translate(34.798 98.555)" fill="#263238" stroke="#263238" stroke-miterlimit="10" stroke-width="1"/>
      <path id="Path_1285" data-name="Path 1285" d="M520.9,405.544c1.651-.18,2.8-.325,2.8-.325S512.18,385.87,512.18,384.9s10.342-14.431,10.342-14.431l-1.754-3.122-28.879,3.122s16.586,19.315,21.856,25.56A109.346,109.346,0,0,1,520.9,405.544Z" transform="translate(-368.942 -245.442)" fill="#6e6e6e" stroke="#263238" stroke-miterlimit="10" stroke-width="1"/>
      <line id="Line_291" data-name="Line 291" x2="3.379" y2="0.881" transform="translate(227.522 123.379)" fill="#fff" stroke="#263238" stroke-miterlimit="10" stroke-width="1"/>
      <line id="Line_292" data-name="Line 292" x2="20.624" y2="5.381" transform="translate(204.067 117.263)" fill="#fff" stroke="#263238" stroke-miterlimit="10" stroke-width="1"/>
      <path id="Path_1286" data-name="Path 1286" d="M598.7,361.657l-13.071-11.2,7.7,2.1,13.541,11.206Z" transform="translate(-382.496 -243)" fill="#fff" stroke="#263238" stroke-miterlimit="10" stroke-width="1"/>
      <path id="Path_1287" data-name="Path 1287" d="M499.36,391.33c3.165.282,5.423.5,5.423.5" transform="translate(-370.022 -248.909)" fill="none" stroke="#263238" stroke-miterlimit="10" stroke-width="1"/>
      <path id="Path_1288" data-name="Path 1288" d="M470.91,393.467s0-2.8,6.3-3.148a147.055,147.055,0,0,1,15.4.667" transform="translate(-365.909 -248.762)" fill="none" stroke="#263238" stroke-miterlimit="10" stroke-width="1"/>
      <path id="Path_1289" data-name="Path 1289" d="M526.678,339.163c-.778-.188-5.209-3.824-4.414-3.918,7.04-.855,25.243,1.24,28.323,1.711,4.14.59-1.5,24.422-2.874,32.891-1.189,7.3.462,12.207.316,13.687a.684.684,0,0,0,.248.607l.855.753a.77.77,0,0,1,.248.479l.291,2.8a.727.727,0,0,0,.736.642,21.006,21.006,0,0,0,6.227-.975c2.361-.984,6.1-2.361,5.133-.2s-4.132,6.108-5.9,6.895-11.223,3.345-13.593,3.943a46.669,46.669,0,0,1-8.143.411.71.71,0,0,1-.642-1.018c.855-1.95,2.729-6.3,2.883-8.845.2-3.353.992-24.439,2.763-30.547,1.548-5.329,3.7-11.7,4.226-14.653a.71.71,0,0,0-.548-.855Z" transform="translate(-373.32 -240.771)" fill="#263238" stroke="#263238" stroke-miterlimit="10" stroke-width="1"/>
      <path id="Path_1290" data-name="Path 1290" d="M537.579,402.614l4.979,2.4a.7.7,0,0,0,.291.077c1.035,0,7.237.222,8.315.582s1.771.59.787,1.771-5.312,3.191-10.034,4.14a50.732,50.732,0,0,1-12.831,1.18,27.765,27.765,0,0,1-4.85-.616.718.718,0,0,1-.547-.855l1.172-6.51a.727.727,0,0,1,.607-.59l11.668-1.66a.7.7,0,0,1,.445.086Z" transform="translate(-373.537 -250.527)" fill="#fff" stroke="#263238" stroke-miterlimit="10" stroke-width="1"/>
      <path id="Path_1291" data-name="Path 1291" d="M551.953,407.991c.855-1.052.5-1.326-.428-1.651l-.8.094c-1.634,1.086-4.465,2.361-9.409,3.533a49.512,49.512,0,0,1-16.817,1.309.727.727,0,0,0-.787.59h0a.718.718,0,0,0,.547.855,27.773,27.773,0,0,0,4.85.616,50.736,50.736,0,0,0,12.831-1.18C546.641,411.182,550.969,409.18,551.953,407.991Z" transform="translate(-373.54 -251.079)" fill="#fff" stroke="#263238" stroke-miterlimit="10" stroke-width="1"/>
      <path id="Path_1292" data-name="Path 1292" d="M480.3,325s-2.361,14.773-1.18,18.511,28.665,6.929,36.15,6.339c5.859-.462,4.961.222,11.009-.214.565-.043,1.078.248.967.813l-8.6,41.8a.718.718,0,0,0,.659.855,41.166,41.166,0,0,0,6.843-.06,20.64,20.64,0,0,0,5.62-1.634.71.71,0,0,0,.385-.445l.659-2.13a.642.642,0,0,0,0-.257l-.376-5.817a.669.669,0,0,1,.043-.291c.855-2.318,10.042-33.66,10.992-37.458.984-3.935,2.164-7.083-.394-8.854s-35.645-8.417-35.645-8.417Z" transform="translate(-367.048 -239.319)" fill="#92e3a9" stroke="#263238" stroke-miterlimit="10" stroke-width="1"/>
      <path id="Path_1293" data-name="Path 1293" d="M488.84,334.948s12.609-4.328,20.085-6.7" transform="translate(-368.501 -239.788)" fill="none" stroke="#263238" stroke-miterlimit="10" stroke-width="1"/>
      <path id="Path_1294" data-name="Path 1294" d="M535.75,352.714s5.988-.359,10.487-3.114" transform="translate(-375.284 -242.875)" fill="none" stroke="#263238" stroke-miterlimit="10" stroke-width="1"/>
      <path id="Path_1295" data-name="Path 1295" d="M536.27,355.081s7.468-1.352,10.633-2.951" transform="translate(-375.359 -243.241)" fill="none" stroke="#263238" stroke-miterlimit="10" stroke-width="1"/>
      <path id="Path_1296" data-name="Path 1296" d="M516.258,301.5l1.138,9.658,7.947,1.985,13.2,1.369-9.23,3.174-17.031,3.4Z" transform="translate(-371.89 -235.921)" fill="#263238" stroke="#263238" stroke-miterlimit="10" stroke-width="1"/>
      <path id="Path_1297" data-name="Path 1297" d="M506.55,262.181s-4.328-.984-11.026,5.312a42.274,42.274,0,0,0-11.976,21.471c-1.771,7.476-3.541,21.659-4.132,24.413s.2,3.148,1.574,3.935,9.846,2.369,17.331,2.763,11.026-.992,11.976-2.37,0-15.945,1.18-20.675,3.541-21.069,3.541-21.069l-7.7-13.387Z" transform="translate(-367.11 -230.227)" fill="#263238" stroke="#263238" stroke-miterlimit="10" stroke-width="1"/>
      <path id="Path_1298" data-name="Path 1298" d="M519.152,252.75l-5.9,8.665,9.05,9.649s6.3-8.075,7.288-8.665,3.148-1.574,3.148-1.574Z" transform="translate(-372.03 -228.872)" fill="#fff" stroke="#263238" stroke-miterlimit="10" stroke-width="1"/>
      <path id="Path_1299" data-name="Path 1299" d="M523.64,260.92l3.593,6.818,3.858-4.157Z" transform="translate(-373.533 -230.053)" fill="#263238" stroke="#263238" stroke-miterlimit="10" stroke-width="1"/>
      <path id="Path_1300" data-name="Path 1300" d="M538.773,245.152l.59,2.951s2.361,2.361,1.771,3.738-3.345,2.566-3.345,2.566-3.61,7.519-4.405,8.306-7.014-1.8-9.769-3.379-3.353-6.108-3.353-6.108l-1.377-.984s-4.132-.984-4.525-3.148-.59-4.534,1.771-5.911,4.132-2.164,5.132-2.164,14.773,2.164,14.773,2.164Z" transform="translate(-372.156 -227.176)" fill="#fff" stroke="#263238" stroke-miterlimit="10" stroke-width="1"/>
      <path id="Path_1301" data-name="Path 1301" d="M539.907,257.419s-3.541-.205-4.337-2.369" transform="translate(-375.258 -229.204)" fill="none" stroke="#263238" stroke-miterlimit="10" stroke-width="1"/>
      <path id="Path_1302" data-name="Path 1302" d="M523.7,243.667s-1.574,3.943-2.173,4.337-.787-3.156-4.328-2.361a3.422,3.422,0,0,0-1.967,5.509,7.784,7.784,0,0,0,2.361,1.18l-1.882,2.344s-.855-.967-3.824-1.163-6.5-3.541-6.7-6.1,2.164-5.714,2.164-5.714a1.651,1.651,0,0,0,.984,1.967,5.988,5.988,0,0,0,3.148.2Z" transform="translate(-370.863 -227.274)" fill="#263238" stroke="#263238" stroke-miterlimit="10" stroke-width="1"/>
      <path id="Path_1303" data-name="Path 1303" d="M510.48,241.819l28.947,1.189s-.984-8.623-1.984-11.822-11.976-6.843-17.921-6.3-8.075,7.28-8.075,7.28Z" transform="translate(-371.63 -224.836)" fill="#263238" stroke="#263238" stroke-miterlimit="10" stroke-width="1"/>
      <path id="Path_1304" data-name="Path 1304" d="M533,245.374a78.435,78.435,0,0,0,11.616,1.779c5.911.393,9.846-1.377,9.846-2.763s-12.994,1.189-12.994,1.189Z" transform="translate(-374.886 -227.604)" fill="#92e3a9" stroke="#263238" stroke-miterlimit="10" stroke-width="1"/>
      <path id="Path_1305" data-name="Path 1305" d="M511.9,257.58l11.42,15.56-4.73,5.321L509.33,261.13Z" transform="translate(-371.464 -229.57)" fill="#92e3a9" stroke="#263238" stroke-miterlimit="10" stroke-width="1"/>
      <path id="Path_1306" data-name="Path 1306" d="M497.493,311.908l27.433,3.866s9.008-1.625,11.42-3.054,3.875-.607,4.371.068,1.18,5.355,1.42,6.39-1.856,1.711-2.695,1.985-5.132-1.583-5.132-1.583-4.7,2.079-6.45,1.813a10.059,10.059,0,0,1-3.422-1.309s-31.8,3.533-36.432,3.832-2.951-4.482-2.438-6.664c.778-3.319,1.369-6.244,1.369-6.244Z" transform="translate(-367.924 -237.296)" fill="#fff" stroke="#263238" stroke-miterlimit="10" stroke-width="1"/>
      <path id="Path_1307" data-name="Path 1307" d="M502.612,272.369c-2.771.128-5.988,3.208-7.6,5.842-4.44,7.322-10.958,30.273-10.958,30.273l20.778-1.993s2.737-27.065,1.959-29.939C505.94,273.379,504.375,272.284,502.612,272.369Z" transform="translate(-367.808 -231.708)" fill="#92e3a9" stroke="#263238" stroke-miterlimit="10" stroke-width="1"/>
      <path id="Path_1308" data-name="Path 1308" d="M547.468,318.263a2.934,2.934,0,1,0-2.926,2.926,2.934,2.934,0,0,0,2.926-2.926Z" transform="translate(-376.13 -237.919)" fill="#263238" stroke="#263238" stroke-miterlimit="10" stroke-width="1"/>
      <line id="Line_293" data-name="Line 293" x1="17.493" transform="translate(30.838 116.827)" fill="none" stroke="#263238" stroke-miterlimit="10" stroke-width="1"/>
      <line id="Line_294" data-name="Line 294" x1="36.671" transform="translate(0 129.325)" fill="none" stroke="#263238" stroke-miterlimit="10" stroke-width="1"/>
      <line id="Line_295" data-name="Line 295" x1="25.004" transform="translate(109.167 24.323)" fill="none" stroke="#263238" stroke-miterlimit="10" stroke-width="1"/>
      <line id="Line_296" data-name="Line 296" x1="9.161" transform="translate(13.336 84.321)" fill="none" stroke="#263238" stroke-miterlimit="10" stroke-width="1"/>
    </g>
    <g id="freepik--Floor--inject-42" transform="translate(28.61 396.51)">
      <line id="Line_297" data-name="Line 297" x2="21.839" transform="translate(580.036)" fill="none" stroke="#263238" stroke-linecap="round" stroke-linejoin="round" stroke-width="1"/>
      <line id="Line_298" data-name="Line 298" x2="574.793" fill="none" stroke="#263238" stroke-linecap="round" stroke-linejoin="round" stroke-width="1"/>
    </g>
  </g>
</svg>
