<svg id="logo" xmlns="http://www.w3.org/2000/svg" width="388" height="458" viewBox="0 0 388 458">
  <text id="RecyClean" transform="translate(0 416)" fill="#7bf1a8" font-size="75" font-family="Martel-Regular, Martel"><tspan x="0" y="0">RecyClean</tspan></text>
  <g id="leaf-svgrepo-com" transform="translate(38.499 0)">
    <g id="Group_6" data-name="Group 6">
      <g id="Group_5" data-name="Group 5">
        <path id="Path_10" data-name="Path 10" d="M259.506,162.23c-.017-.447-.051-.9-.075-1.343-.036-.709-.069-1.417-.122-2.128-.044-.578-.1-1.157-.157-1.735s-.1-1.157-.163-1.737c-.073-.659-.163-1.319-.247-1.978-.064-.5-.121-.992-.193-1.488-.1-.734-.228-1.468-.348-2.2-.069-.418-.131-.837-.2-1.255-.142-.8-.3-1.608-.458-2.412-.068-.346-.131-.691-.2-1.036-.18-.871-.377-1.743-.577-2.614-.063-.274-.122-.548-.186-.821-.223-.94-.462-1.881-.707-2.821-.052-.2-.1-.4-.153-.594q-.405-1.525-.851-3.047c-.033-.115-.065-.23-.1-.345q-.482-1.638-1.006-3.275c-.01-.031-.019-.063-.03-.094C233.012,66.69,164.071,5.163,160.641,2.134a8.52,8.52,0,0,0-11.28,0C145.322,5.7,50.427,90.384,50.427,165.7c0,32.446,17.841,62.341,51.595,86.453a218.873,218.873,0,0,0,44.461,24.227v25.1a8.52,8.52,0,1,0,17.039,0v-25.1l.338-.136.326-.132.807-.328.789-.326.44-.182A221.615,221.615,0,0,0,201,256.911l.08-.052q1.071-.7,2.147-1.419l.2-.136q1.014-.682,2.034-1.386c.1-.071.208-.142.311-.215q.964-.668,1.93-1.356l.275-.193.1-.076c.942-.674,1.885-1.357,2.827-2.059q1.624-1.211,3.194-2.44l.155-.124q1.388-1.086,2.736-2.188c.142-.115.278-.232.418-.348.8-.658,1.591-1.318,2.369-1.984.22-.188.434-.379.651-.567.684-.593,1.366-1.187,2.033-1.785.288-.258.567-.519.852-.778.582-.531,1.165-1.063,1.734-1.6.343-.322.676-.647,1.014-.971.5-.475.991-.95,1.476-1.428.386-.381.763-.766,1.143-1.15.418-.423.837-.844,1.247-1.268.425-.44.84-.883,1.256-1.327.348-.371.7-.74,1.04-1.113.454-.5.9-.992,1.341-1.49.288-.325.578-.647.862-.974.473-.542.936-1.089,1.4-1.636.239-.284.48-.567.715-.853q.728-.882,1.432-1.771c.195-.246.392-.492.584-.738.493-.63.975-1.264,1.452-1.9q.238-.317.473-.633.74-1,1.451-2.011c.128-.183.258-.366.386-.549q.732-1.051,1.432-2.108c.1-.159.211-.317.314-.476q.717-1.093,1.4-2.195l.257-.415q.694-1.13,1.354-2.267l.213-.37q.666-1.159,1.3-2.326l.182-.339q.633-1.182,1.229-2.373c.053-.105.1-.211.157-.317q.6-1.2,1.155-2.41c.048-.1.094-.207.142-.311q.553-1.212,1.072-2.43c.046-.108.09-.216.136-.325q.509-1.212.981-2.432c.045-.117.088-.234.133-.351q.461-1.209.889-2.425c.045-.13.088-.26.133-.39.274-.8.541-1.6.791-2.4.047-.15.09-.3.136-.452.241-.785.475-1.57.693-2.359.048-.176.093-.353.14-.529.206-.765.407-1.53.593-2.3.05-.209.1-.42.144-.63.172-.739.341-1.478.494-2.22.051-.248.094-.5.144-.745.139-.707.277-1.414.4-2.125.051-.3.093-.6.142-.9.107-.663.213-1.326.3-1.991.05-.363.088-.728.133-1.09.075-.607.153-1.213.216-1.822.045-.443.077-.888.115-1.333.046-.534.1-1.067.134-1.6.039-.573.061-1.147.09-1.721.019-.413.048-.825.062-1.238q.051-1.488.051-2.984Q259.572,163.968,259.506,162.23ZM146.918,177.3l-15.157-15.157a8.52,8.52,0,0,0-12.049,12.049L146.917,201.4v56.657c-23.968-10.616-79.451-40.766-79.451-92.353,0-51.526,53.54-111.588,79.452-137.636Zm95.567-8.96c-.006.177-.019.353-.027.529-.032.727-.071,1.451-.125,2.169-.008.107-.019.214-.027.32-3.814,47.43-54.857,75.713-78.348,86.285V237.484l26.332-26.332A8.52,8.52,0,1,0,178.24,199.1l-14.283,14.283V164.321l26.332-26.332A8.52,8.52,0,1,0,178.24,125.94l-14.283,14.283V28.949c23.178,23.446,67.244,73.024,76.742,119.53.021.1.044.2.063.3.117.579.222,1.157.327,1.735.056.308.115.617.168.925.086.5.165,1,.242,1.494.061.389.12.777.176,1.165.065.452.124.9.182,1.354s.108.876.157,1.314c.047.414.091.827.132,1.241.047.483.087.966.126,1.448.03.372.061.745.086,1.117.036.555.063,1.109.088,1.662.013.3.032.6.042.9.029.856.046,1.71.046,2.563C242.536,166.586,242.517,167.466,242.485,168.339Z" fill="#57cc99"/>
      </g>
    </g>
    <g id="Group_8" data-name="Group 8">
      <g id="Group_7" data-name="Group 7">
        <path id="Path_11" data-name="Path 11" d="M210.694,185.389a8.6,8.6,0,0,0-.486-1.593,8.4,8.4,0,0,0-1.848-2.769,8.648,8.648,0,0,0-2.761-1.84,9,9,0,0,0-1.593-.486,8.43,8.43,0,0,0-3.331,0,8.566,8.566,0,0,0-1.592.486,8.446,8.446,0,0,0-1.474.783,8.664,8.664,0,0,0-1.3,1.057,8.495,8.495,0,0,0-1.057,1.3,9.059,9.059,0,0,0-.784,1.474,8.6,8.6,0,0,0-.486,1.593,8.238,8.238,0,0,0,0,3.331,8.586,8.586,0,0,0,.486,1.593,9.056,9.056,0,0,0,.784,1.474,8.5,8.5,0,0,0,1.057,1.3,8.168,8.168,0,0,0,1.3,1.057,8.412,8.412,0,0,0,1.474.784,8.58,8.58,0,0,0,1.592.486,8.4,8.4,0,0,0,1.661.17,8.577,8.577,0,0,0,1.67-.17,9,9,0,0,0,1.593-.486,8.6,8.6,0,0,0,1.465-.784,8.146,8.146,0,0,0,1.3-1.057,9.173,9.173,0,0,0,1.065-1.3,9.011,9.011,0,0,0,.783-1.474,8.6,8.6,0,0,0,.486-1.593,8.695,8.695,0,0,0,0-3.331Z" fill="#57cc99"/>
      </g>
    </g>
    <g id="Group_10" data-name="Group 10">
      <g id="Group_9" data-name="Group 9">
        <path id="Path_12" data-name="Path 12" d="M210.694,112.231a8.54,8.54,0,0,0-.486-1.593,8.448,8.448,0,0,0-.783-1.474,8.717,8.717,0,0,0-1.065-1.3,8.145,8.145,0,0,0-1.3-1.057,8.621,8.621,0,0,0-1.465-.784,8.341,8.341,0,0,0-1.593-.486,8.43,8.43,0,0,0-3.331,0,7.971,7.971,0,0,0-1.592.486,8.409,8.409,0,0,0-1.474.784,8.28,8.28,0,0,0-2.352,2.352,8.411,8.411,0,0,0-.784,1.474,8.6,8.6,0,0,0-.486,1.593,8.2,8.2,0,0,0,0,3.323,8.54,8.54,0,0,0,.486,1.593,8.409,8.409,0,0,0,.784,1.474,8.1,8.1,0,0,0,1.057,1.3,8.716,8.716,0,0,0,1.3,1.065,9.017,9.017,0,0,0,1.474.784,8.579,8.579,0,0,0,1.592.486,8.394,8.394,0,0,0,1.661.162,8.519,8.519,0,0,0,1.67-.162,9,9,0,0,0,1.593-.486,8.6,8.6,0,0,0,1.465-.784,8.632,8.632,0,0,0,2.361-2.36,8.369,8.369,0,0,0,.783-1.474,8.6,8.6,0,0,0,.486-1.593,8.651,8.651,0,0,0,0-3.323Z" fill="#57cc99"/>
      </g>
    </g>
    <g id="Group_12" data-name="Group 12">
      <g id="Group_11" data-name="Group 11">
        <path id="Path_13" data-name="Path 13" d="M116.016,148.431a8.584,8.584,0,0,0-.486-1.593,8.41,8.41,0,0,0-.784-1.474,8.28,8.28,0,0,0-2.352-2.352,8.409,8.409,0,0,0-1.474-.784,8.6,8.6,0,0,0-1.593-.486,8.43,8.43,0,0,0-3.331,0,9.01,9.01,0,0,0-1.593.486,8.644,8.644,0,0,0-1.465.784,8.169,8.169,0,0,0-1.3,1.057,8.717,8.717,0,0,0-1.065,1.3,8.41,8.41,0,0,0-.784,1.474,8.6,8.6,0,0,0-.486,1.593,8.618,8.618,0,0,0,0,3.323,8.869,8.869,0,0,0,.486,1.6,8.543,8.543,0,0,0,4.609,4.609,9.011,9.011,0,0,0,1.593.486,8.527,8.527,0,0,0,1.67.162,8.381,8.381,0,0,0,1.661-.162,8.585,8.585,0,0,0,1.593-.486,8.409,8.409,0,0,0,1.474-.784,8.715,8.715,0,0,0,1.3-1.065,8.168,8.168,0,0,0,1.057-1.3,8.644,8.644,0,0,0,.784-1.465,8.884,8.884,0,0,0,.486-1.6,8.2,8.2,0,0,0,0-3.323Z" fill="#57cc99"/>
      </g>
    </g>
  </g>
</svg>
