<svg xmlns="http://www.w3.org/2000/svg" xmlns:xlink="http://www.w3.org/1999/xlink" width="401.681" height="349.592" viewBox="0 0 401.681 349.592">
  <defs>
    <clipPath id="clip-path">
      <path id="Path_965" data-name="Path 965" d="M344.57,174c-10.54-21.75-15.09-23.64-22.1-24s-23.56-2.42-42,.53c0,0-51.44-.9-91.24,23.21-41.55,25.17-61.77,47.28-64.6,58.74s-12.49,41.32-17.07,58.44-7.7,32.2-1.86,46.06c3.53,8.38,7.29,10.9,12.12,10.86a34.8,34.8,0,0,1-1.95-4.11c-4.8-11.89-4.22-28.9,1.26-30s8.75,10.29,12.06,22.71a49.388,49.388,0,0,0,2.66,8c8.19-3.09,21.31-10,38.75-17.18a112.159,112.159,0,0,1-.11-32.92c2.58-17.07,13.49-20.84,18.24-10.45,3.93,8.56,5.39,27.72,5.78,34.18,7-2.41,12.86-4,16.47-4.22,0,0,59.68-13.48,103.67-14.56s66-2.13,66-2.13S355.11,195.71,344.57,174Z" fill="#fff" stroke="#263238" stroke-linecap="round" stroke-linejoin="round" stroke-width="1"/>
    </clipPath>
    <clipPath id="clip-path-2">
      <path id="Path_980" data-name="Path 980" d="M117.8,242.53a22.682,22.682,0,0,1,4.62,1.41,12.08,12.08,0,0,1,3.31,2.4l5-6.61s-7.33-3.07-8.72-4.94l-1.38-1.88Z" fill="#fff" stroke="#263238" stroke-linecap="round" stroke-linejoin="round" stroke-width="0.75"/>
    </clipPath>
    <clipPath id="clip-path-3">
      <path id="Path_988" data-name="Path 988" d="M124.75,268.36s-.59,5.18-1.28,5.91-18.89-14.56-20-16-.35-6.58,0-8.19-.24-2.49-2-1.38-1.29,5.73-1.29,5.73-5.37-1.29-6.44-1.44-2,1.18-1.84,2.24,1.57,1.15,1.57,1.15a8,8,0,0,0,.29,4.62c.94,1.94,2,3.16,4,3.64a33.331,33.331,0,0,0,6.24.38s9.3,8.86,12,12.17,8.39,7.81,11.22,7,5.53-14.94,5.53-14.94Z" fill="#fff" stroke="#263238" stroke-linecap="round" stroke-linejoin="round" stroke-width="0.75"/>
    </clipPath>
    <clipPath id="clip-path-4">
      <path id="Path_994" data-name="Path 994" d="M103.23,234.28s.61,1.51,1.63,4.16,6.5,8.24,9.18,8.56,5.89-9.42,6.4-11.43c.17-.66.34-1.72.34-1.72s3.37-1.59,2.59-3.51-2.36-2.8-3.11-2.21-.88,3.08-2,3.1-1.73-.33-2.72-1.65S104.29,231,103.23,234.28Z" fill="#fff" stroke="#263238" stroke-linecap="round" stroke-linejoin="round" stroke-width="0.75"/>
    </clipPath>
  </defs>
  <g id="Mail_sent-bro" data-name="Mail sent-bro" transform="translate(-52.663 -65.782)">
    <g id="freepik--background-simple--inject-1--inject-44">
      <path id="Path_935" data-name="Path 935" d="M373.9,355.74s30.67-8,54.67-48c26.9-44.84,15.36-123.08-20.47-161.09C374.86,111.4,301.27,105.2,258.57,122.4c-40.35,16.26-71.34,55.34-96,60.67s-55.34-3.33-88.67,33.33-26,119.34,12,146.67,94-4.67,142.67-26.67S285.23,362.4,373.9,355.74Z" fill="#92e3a9"/>
      <g id="Group_76" data-name="Group 76" opacity="0.7">
        <path id="Path_936" data-name="Path 936" d="M373.9,355.74s30.67-8,54.67-48c26.9-44.84,15.36-123.08-20.47-161.09C374.86,111.4,301.27,105.2,258.57,122.4c-40.35,16.26-71.34,55.34-96,60.67s-55.34-3.33-88.67,33.33-26,119.34,12,146.67,94-4.67,142.67-26.67S285.23,362.4,373.9,355.74Z" fill="#fff"/>
      </g>
    </g>
    <g id="freepik--Character--inject-1--inject-44">
      <path id="Path_937" data-name="Path 937" d="M363.74,275v-.06c-8.16-2.71-20.68-1.79-22.54-.68a18.2,18.2,0,0,0-5,5,59.311,59.311,0,0,0-9.28,20.69l-88.75,8.25c-3.27-7.06-8.2-13.39-13.15-17.21a14.32,14.32,0,0,0-4.8-2.65,7.59,7.59,0,0,0-2.32.08c-3.22-9.33-7.78-18.33-13.48-18.9-12-1.2-32.94,2.82-38.65,14.46s-7.5,40.7-7.5,40.7l-4,4a46.48,46.48,0,0,0-11.92-14.75,14,14,0,0,0-4.8-2.65c-1-.28-5,.34-9.19,1.71-.17-.16-.33-.32-.51-.47-4-3.35-12.2-5.18-16.78,3.36s.92,24.71,3.66,28.37a18.4,18.4,0,0,0,4.92,4.73c3.23,8,9,18.2,17.88,18.67a21.25,21.25,0,0,0,16.43-6.46c5.76-6,6.38-14.43,4.21-22.68l.93-1.36s2.07,2.95,10,1.76a11.85,11.85,0,0,0,6.27-2.6c3.72,9.49,9.73,19,19.28,20.42a28.87,28.87,0,0,0,23.11-6.58,25.621,25.621,0,0,0,4.75-5.45,21.2,21.2,0,0,0,14.1-6.46,19.76,19.76,0,0,0,5.34-13.05l11.81-1.38a51.69,51.69,0,0,0,23.61,4.42,33.55,33.55,0,0,0,20.79-9l26.91-2.3c.45,10.43,4.2,20,13,25.27a27.15,27.15,0,0,0,22.6,2.41c12.41-4.16,15.35-22.6,16.15-33.81C378.06,292.8,372.32,277.55,363.74,275Z" fill="#263238" stroke="#263238" stroke-linecap="round" stroke-linejoin="round" stroke-width="0.75"/>
      <path id="Path_938" data-name="Path 938" d="M199.44,350.94a11.15,11.15,0,0,1-3.85,3.13" fill="none" stroke="#fff" stroke-linecap="round" stroke-linejoin="round" stroke-width="0.5"/>
      <path id="Path_939" data-name="Path 939" d="M204.29,327.24s1.19,13-3.24,21.25" fill="none" stroke="#fff" stroke-linecap="round" stroke-linejoin="round" stroke-width="0.5"/>
      <path id="Path_940" data-name="Path 940" d="M207.8,341.6c-1.13,5-3.38,9.85-7.74,12" fill="none" stroke="#fff" stroke-linecap="round" stroke-linejoin="round" stroke-width="0.5"/>
      <path id="Path_941" data-name="Path 941" d="M213.23,326.25s2,21.61-8.69,26.83" fill="none" stroke="#fff" stroke-linecap="round" stroke-linejoin="round" stroke-width="0.5"/>
      <path id="Path_942" data-name="Path 942" d="M217.71,325.75s2,21.62-8.7,26.83" fill="none" stroke="#fff" stroke-linecap="round" stroke-linejoin="round" stroke-width="0.5"/>
      <path id="Path_943" data-name="Path 943" d="M352.62,340.9a13.89,13.89,0,0,1-4.2,3.55" fill="none" stroke="#fff" stroke-linecap="round" stroke-linejoin="round" stroke-width="0.5"/>
      <path id="Path_944" data-name="Path 944" d="M360.66,313.91s-.64,14.79-6.13,24.2" fill="none" stroke="#fff" stroke-linecap="round" stroke-linejoin="round" stroke-width="0.5"/>
      <path id="Path_945" data-name="Path 945" d="M362.09,330.29c-1.8,5.69-4.68,11.21-9.23,13.61" fill="none" stroke="#fff" stroke-linecap="round" stroke-linejoin="round" stroke-width="0.5"/>
      <path id="Path_946" data-name="Path 946" d="M369.54,312.81s-1.07,24.64-12.24,30.54" fill="none" stroke="#fff" stroke-linecap="round" stroke-linejoin="round" stroke-width="0.5"/>
      <path id="Path_947" data-name="Path 947" d="M374,312.27s-1.07,24.63-12.24,30.54" fill="none" stroke="#fff" stroke-linecap="round" stroke-linejoin="round" stroke-width="0.5"/>
      <path id="Path_948" data-name="Path 948" d="M140.35,364.31a10.83,10.83,0,0,1-3.29,3.24" fill="none" stroke="#fff" stroke-linecap="round" stroke-linejoin="round" stroke-width="0.5"/>
      <path id="Path_949" data-name="Path 949" d="M141.93,343.28s2.82,11-.36,18.69" fill="none" stroke="#fff" stroke-linecap="round" stroke-linejoin="round" stroke-width="0.5"/>
      <path id="Path_950" data-name="Path 950" d="M147.16,355.09c-.45,4.45-2,8.93-5.87,11.39" fill="none" stroke="#fff" stroke-linecap="round" stroke-linejoin="round" stroke-width="0.5"/>
      <path id="Path_951" data-name="Path 951" d="M150.37,341.14s4.7,18.25-4.86,24.26" fill="none" stroke="#fff" stroke-linecap="round" stroke-linejoin="round" stroke-width="0.5"/>
      <path id="Path_952" data-name="Path 952" d="M154.59,340.06s4.71,18.25-4.86,24.27" fill="none" stroke="#fff" stroke-linecap="round" stroke-linejoin="round" stroke-width="0.5"/>
      <path id="Path_953" data-name="Path 953" d="M189.06,319.83c2.38,13.61.89,25.25-3.31,26s-9.55-9.71-11.93-23.32-.89-25.25,3.32-26S186.68,306.21,189.06,319.83Z" fill="#92e3a9" stroke="#263238" stroke-linecap="round" stroke-linejoin="round" stroke-width="1"/>
      <path id="Path_954" data-name="Path 954" d="M186.94,320.12c.66,5.22.05,9.59-1.38,9.77s-3.11-3.9-3.77-9.12,0-9.6,1.38-9.78S186.28,314.9,186.94,320.12Z" fill="#92e3a9" stroke="#263238" stroke-linecap="round" stroke-linejoin="round" stroke-width="1"/>
      <path id="Path_955" data-name="Path 955" d="M176.91,307.64a34,34,0,0,1,.83-5.2" fill="none" stroke="#263238" stroke-linecap="round" stroke-linejoin="round" stroke-width="0.75"/>
      <path id="Path_956" data-name="Path 956" d="M183.54,340.92a66.46,66.46,0,0,1-5.88-17.53,63.321,63.321,0,0,1-.91-13.05" fill="none" stroke="#263238" stroke-linecap="round" stroke-linejoin="round" stroke-width="0.75"/>
      <ellipse id="Ellipse_73" data-name="Ellipse 73" cx="5.68" cy="18.39" rx="5.68" ry="18.39" transform="translate(114.912 326.352) rotate(-15.49)" fill="#92e3a9" stroke="#263238" stroke-linecap="round" stroke-linejoin="round" stroke-width="1"/>
      <path id="Path_957" data-name="Path 957" d="M129.78,341.43c.95,3.72.9,6.94-.12,7.2s-2.6-2.55-3.55-6.26-.9-6.95.12-7.2S128.83,337.71,129.78,341.43Z" fill="none" stroke="#263238" stroke-linecap="round" stroke-linejoin="round" stroke-width="0.75"/>
      <path id="Path_958" data-name="Path 958" d="M121.4,333.3a24.86,24.86,0,0,1,.13-3.84" fill="none" stroke="#263238" stroke-linecap="round" stroke-linejoin="round" stroke-width="0.75"/>
      <path id="Path_959" data-name="Path 959" d="M129.19,356.79a48.46,48.46,0,0,1-5.83-12.16,46.229,46.229,0,0,1-1.84-9.36" fill="none" stroke="#263238" stroke-linecap="round" stroke-linejoin="round" stroke-width="0.75"/>
      <path id="Path_960" data-name="Path 960" d="M344.57,174c-10.54-21.75-15.09-23.64-22.1-24s-23.56-2.42-42,.53c0,0-51.44-.9-91.24,23.21-41.55,25.17-61.77,47.28-64.6,58.74s-12.49,41.32-17.07,58.44-7.7,32.2-1.86,46.06c3.53,8.38,7.29,10.9,12.12,10.86a34.8,34.8,0,0,1-1.95-4.11c-4.8-11.89-4.22-28.9,1.26-30s8.75,10.29,12.06,22.71a49.388,49.388,0,0,0,2.66,8c8.19-3.09,21.31-10,38.75-17.18a112.159,112.159,0,0,1-.11-32.92c2.58-17.07,13.49-20.84,18.24-10.45,3.93,8.56,5.39,27.72,5.78,34.18,7-2.41,12.86-4,16.47-4.22,0,0,59.68-13.48,103.67-14.56s66-2.13,66-2.13S355.11,195.71,344.57,174Z" fill="#fff"/>
      <g id="Group_78" data-name="Group 78" clip-path="url(#clip-path)">
        <path id="Path_961" data-name="Path 961" d="M203.93,278.94s-6.05,8.28-13.41,10.05c2.6,9.54,3.67,23.66,4,29,6.25-2.15,11.56-3.66,15.2-4.1.53-3.12.85-5.11.85-5.11Z" fill="#92e3a9"/>
        <path id="Path_962" data-name="Path 962" d="M129.45,337.34c2.78.28,4.63,1.48,10.28.07,10-2.49,2.81-21.79,19.4-29.67a27.93,27.93,0,0,1,10.32-2.9,101.371,101.371,0,0,1,1-10.55,30.929,30.929,0,0,1,3-9.87c-4.53-1.39-5.35-2.72-13.07.95-16.6,7.88-14.11,28.21-24.06,30.7-7.94,2-8.38-1.19-14.41.29,2.82,4,5,11.79,7.2,20A5.455,5.455,0,0,1,129.45,337.34Z" fill="#92e3a9" opacity="0.2"/>
        <g id="Group_77" data-name="Group 77">
          <path id="Path_963" data-name="Path 963" d="M113.12,320.25a25.878,25.878,0,0,0-9,12.05,39.847,39.847,0,0,0,1.58,4.7c3.53,8.38,7.29,10.9,12.12,10.86a34.789,34.789,0,0,1-1.95-4.11C112.82,336.18,112,326.55,113.12,320.25Z" fill="#92e3a9" opacity="0.2"/>
        </g>
        <path id="Path_964" data-name="Path 964" d="M322.47,150l-1.81-.11c-72.93,18.66-102.6,106.56-112.81,148.92.55,4.21,1.15,8.34,1.8,12.36,1.24-.24.38,2.68,1.33,2.63,0,0,59.68-13.48,103.67-14.56s66-2.13,66-2.13S355.11,195.71,344.57,174,329.48,150.32,322.47,150Z" fill="#92e3a9" opacity="0.2"/>
      </g>
      <path id="Path_966" data-name="Path 966" d="M344.57,174c-10.54-21.75-15.09-23.64-22.1-24s-23.56-2.42-42,.53c0,0-51.44-.9-91.24,23.21-41.55,25.17-61.77,47.28-64.6,58.74s-12.49,41.32-17.07,58.44-7.7,32.2-1.86,46.06c3.53,8.38,7.29,10.9,12.12,10.86a34.8,34.8,0,0,1-1.95-4.11c-4.8-11.89-4.22-28.9,1.26-30s8.75,10.29,12.06,22.71a49.388,49.388,0,0,0,2.66,8c8.19-3.09,21.31-10,38.75-17.18a112.159,112.159,0,0,1-.11-32.92c2.58-17.07,13.49-20.84,18.24-10.45,3.93,8.56,5.39,27.72,5.78,34.18,7-2.41,12.86-4,16.47-4.22,0,0,59.68-13.48,103.67-14.56s66-2.13,66-2.13S355.11,195.71,344.57,174Z" fill="none" stroke="#263238" stroke-linecap="round" stroke-linejoin="round" stroke-width="1"/>
      <path id="Path_967" data-name="Path 967" d="M126.27,283.76a4.68,4.68,0,0,0,5,.63c3.15-1.26,3.47-6,3.47-6l4.72-.31.95-14.81-10.4,4.09S127.22,281.87,126.27,283.76Z" fill="#92e3a9" opacity="0.2"/>
      <path id="Path_968" data-name="Path 968" d="M112.63,327.07a51.8,51.8,0,0,0-8.43,5.6,38.633,38.633,0,0,0,1.5,4.31c3.53,8.38,7.29,10.9,12.12,10.86a34.794,34.794,0,0,1-1.95-4.11,48.54,48.54,0,0,1-3.24-16.66Z" fill="#263238" stroke="#263238" stroke-linecap="round" stroke-linejoin="round" stroke-width="0.75"/>
      <path id="Path_969" data-name="Path 969" d="M128.56,318.81a1.51,1.51,0,0,1-1.32-.79,1.49,1.49,0,0,1,.6-2c.24-.13,19.7-12.19,35.82-20.76a1.5,1.5,0,0,1,1.41,2.65c-16.11,8.56-35.56,20.61-35.8,20.74A1.43,1.43,0,0,1,128.56,318.81Z" fill="#263238" stroke="#263238" stroke-miterlimit="10" stroke-width="1"/>
      <path id="Path_970" data-name="Path 970" d="M154,218.57l-.69,17.17c-.15,2.34,1.21,3.47,3,2.46l27.65-18a7.31,7.31,0,0,0,3.12-6.36l-.17-19.15c-.2-1.74-1.38-2.45-2.83-1.7-5.2,2.69-15.24,11.79-27.24,20.26a7.56,7.56,0,0,0-2.84,5.32Z" fill="#92e3a9" stroke="#263238" stroke-linecap="round" stroke-linejoin="round" stroke-width="1"/>
      <line id="Line_244" data-name="Line 244" x2="13.51" y2="3.3" transform="translate(172.68 213.73)" fill="none" stroke="#263238" stroke-linecap="round" stroke-linejoin="round" stroke-width="1"/>
      <line id="Line_245" data-name="Line 245" y1="18.42" x2="8.34" transform="translate(154.2 219.86)" fill="none" stroke="#263238" stroke-linecap="round" stroke-linejoin="round" stroke-width="1"/>
      <path id="Path_971" data-name="Path 971" d="M154.16,218l12.26,1.53c1.27.19,2.85-.86,4-2.68l16-22.91" fill="none" stroke="#263238" stroke-linecap="round" stroke-linejoin="round" stroke-width="1"/>
      <path id="Path_972" data-name="Path 972" d="M222.61,186.67l2.84,43a9.15,9.15,0,0,0,10.17,8.55l95.52-12.4a9.15,9.15,0,0,0,7.76-11.57l-12.06-42.64a9.13,9.13,0,0,0-9.46-6.63c-15.48,1.14-52.61,4.47-87.66,12.28A9.15,9.15,0,0,0,222.61,186.67Z" fill="#92e3a9" stroke="#263238" stroke-linecap="round" stroke-linejoin="round" stroke-width="1"/>
      <line id="Line_246" data-name="Line 246" x2="43.61" y2="20.66" transform="translate(293.61 200)" fill="none" stroke="#263238" stroke-linecap="round" stroke-linejoin="round" stroke-width="1"/>
      <line id="Line_247" data-name="Line 247" y1="32.96" x2="36.83" transform="translate(229.07 203.37)" fill="none" stroke="#263238" stroke-linecap="round" stroke-linejoin="round" stroke-width="1"/>
      <path id="Path_973" data-name="Path 973" d="M222.93,185.54l52.85,21.73A11.07,11.07,0,0,0,287.64,205l37.67-35.57" fill="none" stroke="#263238" stroke-linecap="round" stroke-linejoin="round" stroke-width="1"/>
      <ellipse id="Ellipse_74" data-name="Ellipse 74" cx="16.26" cy="15.98" rx="16.26" ry="15.98" transform="translate(311.437 200.356) rotate(-1.41)" fill="#263238" stroke="#263238" stroke-linecap="round" stroke-linejoin="round" stroke-width="0.75"/>
      <path id="Path_974" data-name="Path 974" d="M326.33,223.56h-.05a2,2,0,0,1-1.62-.82l-6.39-8.82a2,2,0,0,1,3.24-2.35l4.77,6.58,11.4-15.75a2,2,0,1,1,3.24,2.35l-13,18a2,2,0,0,1-1.59.81Z" fill="#fff" stroke="#263238" stroke-linecap="round" stroke-linejoin="round" stroke-width="1"/>
      <path id="Path_975" data-name="Path 975" d="M265.93,266.66s34-6.52,57.3-6.06l1.4,5.6s-48.92,2.32-58.24,7Z" fill="#263238" stroke="#263238" stroke-linecap="round" stroke-linejoin="round" stroke-width="0.75"/>
      <path id="Path_976" data-name="Path 976" d="M266.39,273.18l1,5.6a2.42,2.42,0,0,0,2.73,2c8.53-1.22,38.47-5.33,54-4.95a2.43,2.43,0,0,0,2.41-3.1l-1.86-6.51" fill="none" stroke="#263238" stroke-linecap="round" stroke-linejoin="round" stroke-width="1"/>
      <path id="Path_977" data-name="Path 977" d="M142.32,263.29l-.19-23.1,1.15-23.75a1.13,1.13,0,0,0-1.93-.84c-4.3,4.4-11.66,11.06-13.84,16.52-2.83,7.07-6.18,41.87-6.18,41.87Z" fill="#263238" stroke="#263238" stroke-linecap="round" stroke-linejoin="round" stroke-width="0.75"/>
      <rect id="Rectangle_87" data-name="Rectangle 87" width="9.53" height="23.44" rx="3.09" transform="translate(109.25 258.65)" fill="#263238" stroke="#263238" stroke-linecap="round" stroke-linejoin="round" stroke-width="0.75"/>
      <path id="Path_978" data-name="Path 978" d="M117.8,242.53a22.682,22.682,0,0,1,4.62,1.41,12.08,12.08,0,0,1,3.31,2.4l5-6.61s-7.33-3.07-8.72-4.94l-1.38-1.88Z" fill="#fff"/>
      <g id="Group_79" data-name="Group 79" clip-path="url(#clip-path-2)">
        <path id="Path_979" data-name="Path 979" d="M122,234.79,120.71,233l-.15.1-2.76,9.4s.53.1,1.28.28l7.15-5.18a14.67,14.67,0,0,1-4.23-2.81Z" fill="#92e3a9" opacity="0.5"/>
      </g>
      <path id="Path_981" data-name="Path 981" d="M117.8,242.53a22.682,22.682,0,0,1,4.62,1.41,12.08,12.08,0,0,1,3.31,2.4l5-6.61s-7.33-3.07-8.72-4.94l-1.38-1.88Z" fill="none" stroke="#263238" stroke-linecap="round" stroke-linejoin="round" stroke-width="0.75"/>
      <path id="Path_982" data-name="Path 982" d="M128.36,236.92l-6.11,7.79.83,2.65,9.31-9.67Z" fill="#92e3a9" stroke="#263238" stroke-linecap="round" stroke-linejoin="round" stroke-width="1"/>
      <path id="Path_983" data-name="Path 983" d="M118.58,214.91c-4.13-3.2-14.89-1.16-17,6.42C100.28,226,101,233,101,233l12.26-2.6,1,1.51c2,3,6.33,1,7.45,0,.61-.53.57-2.09.41-3.38l.49-.11S122.7,218.12,118.58,214.91Z" fill="#263238" stroke="#263238" stroke-linecap="round" stroke-linejoin="round" stroke-width="0.75"/>
      <path id="Path_984" data-name="Path 984" d="M114,229.48A39.35,39.35,0,0,0,98,231c-8,2.68-9.23,5-3.5,4.86S114,229.48,114,229.48Z" fill="#263238" stroke="#263238" stroke-linecap="round" stroke-linejoin="round" stroke-width="0.75"/>
      <ellipse id="Ellipse_75" data-name="Ellipse 75" cx="1.69" cy="2.31" rx="1.69" ry="2.31" transform="translate(102.43 221.95)" fill="#92e3a9"/>
      <path id="Path_985" data-name="Path 985" d="M142.13,240.19s-10.95-2.78-14.32-.22-4.23,6.79-3.15,11.92,3.71,18.62,3.71,18.62l13.95-7.22Z" fill="#263238" stroke="#263238" stroke-linecap="round" stroke-linejoin="round" stroke-width="0.75"/>
      <path id="Path_986" data-name="Path 986" d="M124.75,268.36s-.59,5.18-1.28,5.91-18.89-14.56-20-16-.35-6.58,0-8.19-.24-2.49-2-1.38-1.29,5.73-1.29,5.73-5.37-1.29-6.44-1.44-2,1.18-1.84,2.24,1.57,1.15,1.57,1.15a8,8,0,0,0,.29,4.62c.94,1.94,2,3.16,4,3.64a33.331,33.331,0,0,0,6.24.38s9.3,8.86,12,12.17,8.39,7.81,11.22,7,5.53-14.94,5.53-14.94Z" fill="#fff"/>
      <g id="Group_80" data-name="Group 80" clip-path="url(#clip-path-3)">
        <path id="Path_987" data-name="Path 987" d="M123.47,274.27l5.32,1.77a4.73,4.73,0,0,1-3.26,5.22c-2.35.78-6.57-1.89-9.57-4.14l.09.11c2.75,3.32,8.39,7.81,11.22,7s5.53-14.94,5.53-14.94l-8.05-1S124.16,273.54,123.47,274.27Z" fill="#92e3a9" opacity="0.5"/>
      </g>
      <path id="Path_989" data-name="Path 989" d="M124.75,268.36s-.59,5.18-1.28,5.91-18.89-14.56-20-16-.35-6.58,0-8.19-.24-2.49-2-1.38-1.29,5.73-1.29,5.73-5.37-1.29-6.44-1.44-2,1.18-1.84,2.24,1.57,1.15,1.57,1.15a8,8,0,0,0,.29,4.62c.94,1.94,2,3.16,4,3.64a33.331,33.331,0,0,0,6.24.38s9.3,8.86,12,12.17,8.39,7.81,11.22,7,5.53-14.94,5.53-14.94Z" fill="none" stroke="#263238" stroke-linecap="round" stroke-linejoin="round" stroke-width="0.75"/>
      <path id="Path_990" data-name="Path 990" d="M106.56,261.08,104,265.06l1.31.89,2.62-3.75Z" fill="#263238" stroke="#263238" stroke-miterlimit="10" stroke-width="1"/>
      <circle id="Ellipse_76" data-name="Ellipse 76" cx="1" cy="1" r="1" transform="translate(104.68 262.83)" fill="#fff" stroke="#263238" stroke-linecap="round" stroke-linejoin="round" stroke-width="0.75"/>
      <path id="Path_991" data-name="Path 991" d="M103.23,234.28s.61,1.51,1.63,4.16,6.5,8.24,9.18,8.56,5.89-9.42,6.4-11.43c.17-.66.34-1.72.34-1.72s3.37-1.59,2.59-3.51-2.36-2.8-3.11-2.21-.88,3.08-2,3.1-1.73-.33-2.72-1.65S104.29,231,103.23,234.28Z" fill="#fff"/>
      <g id="Group_82" data-name="Group 82" clip-path="url(#clip-path-4)">
        <path id="Path_992" data-name="Path 992" d="M115.52,229.58c-1-1.31-11.23,1.43-12.29,4.7l.58,1.48a44.589,44.589,0,0,1,12.6-5.17,6.333,6.333,0,0,1-.89-1.01Z" fill="#92e3a9" opacity="0.5"/>
        <g id="Group_81" data-name="Group 81">
          <path id="Path_993" data-name="Path 993" d="M123.24,230.07c-.82-1.72-2.27-2.5-3-1.94a5.91,5.91,0,0,0-1,2,20.749,20.749,0,0,1,4-.06Z" fill="#92e3a9" opacity="0.5"/>
        </g>
      </g>
      <path id="Path_995" data-name="Path 995" d="M103.23,234.28s.61,1.51,1.63,4.16,6.5,8.24,9.18,8.56,5.89-9.42,6.4-11.43c.17-.66.34-1.72.34-1.72s3.37-1.59,2.59-3.51-2.36-2.8-3.11-2.21-.88,3.08-2,3.1-1.73-.33-2.72-1.65S104.29,231,103.23,234.28Z" fill="none" stroke="#263238" stroke-linecap="round" stroke-linejoin="round" stroke-width="0.75"/>
      <path id="Path_996" data-name="Path 996" d="M106.86,235c.18.61.12,1.17-.12,1.24s-.59-.37-.77-1-.12-1.17.12-1.24S106.68,234.41,106.86,235Z" fill="#263238" stroke="#263238" stroke-miterlimit="10" stroke-width="1"/>
      <path id="Path_997" data-name="Path 997" d="M105,233.3c1.4-.4,2,.65,2.17,1.62l.26,1.15.87,4.45,1.32-.56" fill="none" stroke="#263238" stroke-linecap="round" stroke-linejoin="round" stroke-width="0.5"/>
      <path id="Path_998" data-name="Path 998" d="M110.7,233.64a2.87,2.87,0,0,1,2.43-.92" fill="none" stroke="#263238" stroke-linecap="round" stroke-linejoin="round" stroke-width="0.5"/>
      <path id="Path_999" data-name="Path 999" d="M111.86,230.87a3,3,0,0,0-2.32,2.31" fill="none" stroke="#263238" stroke-linecap="round" stroke-linejoin="round" stroke-width="0.5"/>
      <path id="Path_1000" data-name="Path 1000" d="M110.81,241.4s2.9-.58,3.13-2.66" fill="none" stroke="#263238" stroke-linecap="round" stroke-linejoin="round" stroke-width="0.5"/>
      <path id="Path_1001" data-name="Path 1001" d="M135.43,275.86l-14.64-4.08s1.29-25,3.55-29.23c3.52-6.57,11.59-3.61,13.11,4.65C138.87,255,135.43,275.86,135.43,275.86Z" fill="#92e3a9" stroke="#263238" stroke-linecap="round" stroke-linejoin="round" stroke-width="1"/>
      <path id="Path_1002" data-name="Path 1002" d="M121.14,269s8,1.84,12.87,3.44" fill="none" stroke="#263238" stroke-linecap="round" stroke-linejoin="round" stroke-width="0.5"/>
      <path id="Path_1003" data-name="Path 1003" d="M133.81,238.18s4.76.37,7.87,2.93" fill="none" stroke="#92e3a9" stroke-linecap="round" stroke-linejoin="round" stroke-width="0.5"/>
      <path id="Path_1004" data-name="Path 1004" d="M217.69,302.13s-21.32,7.52-23.27,9.57-1.75,10.05,2.85,13.94,37.39-4.93,60.83-7.5,74.9-6.35,95.9-7.37,30.55,1.75,32.39-4.8S388,292.42,384,291,307.12,277.91,217.69,302.13Z" fill="#263238" stroke="#263238" stroke-linecap="round" stroke-linejoin="round" stroke-width="0.75"/>
      <path id="Path_1005" data-name="Path 1005" d="M192.9,316.07s1,8.67,6.33,10,68.67-10.67,106-12,70-2.33,70-2.33" fill="none" stroke="#fff" stroke-linecap="round" stroke-linejoin="round" stroke-width="0.5"/>
      <path id="Path_1006" data-name="Path 1006" d="M223.84,320.47c24.76-6,75.69-14.48,161.39-12.07" fill="none" stroke="#fff" stroke-linecap="round" stroke-linejoin="round" stroke-width="0.5"/>
      <path id="Path_1007" data-name="Path 1007" d="M203.54,325.75s5.69-1.38,14.34-3.74" fill="none" stroke="#fff" stroke-linecap="round" stroke-linejoin="round" stroke-width="0.5"/>
      <path id="Path_1008" data-name="Path 1008" d="M208.76,326.74a56.331,56.331,0,0,1-.3,11.15" fill="none" stroke="#fff" stroke-linecap="round" stroke-linejoin="round" stroke-width="0.5"/>
      <path id="Path_1009" data-name="Path 1009" d="M207.85,166.83s-4.77,5.59-5.14,10.6" fill="none" stroke="#263238" stroke-linecap="round" stroke-linejoin="round" stroke-width="0.75"/>
      <path id="Path_1010" data-name="Path 1010" d="M202.21,181.47s-3.59,57.11,5.91,117.89" fill="none" stroke="#263238" stroke-linecap="round" stroke-linejoin="round" stroke-width="0.75"/>
      <path id="Path_1011" data-name="Path 1011" d="M203.34,247.46s-7.75,2.7-7.85,6.2c-.26,9.41.73,29.49,2.78,31.44s8.42-3.21,8.42-3.21,9,.78,10-1.24-2.75-30.45-3.31-32.93S203.34,247.46,203.34,247.46Z" fill="#92e3a9" stroke="#263238" stroke-linecap="round" stroke-linejoin="round" stroke-width="1"/>
      <path id="Path_1012" data-name="Path 1012" d="M365.22,261a17.06,17.06,0,0,0,6.45,1.7c-2.48-9.32-5.29-19.7-8.19-30.06-2.62-.18-6-.18-5.93,1C357.6,235.66,362.69,259.54,365.22,261Z" fill="#92e3a9" stroke="#263238" stroke-linecap="round" stroke-linejoin="round" stroke-width="1"/>
      <path id="Path_1013" data-name="Path 1013" d="M202.23,250.4s.34,18,1.67,25" fill="none" stroke="#263238" stroke-linecap="round" stroke-linejoin="round" stroke-width="0.75"/>
      <path id="Path_1014" data-name="Path 1014" d="M295.71,254.56s44.62-7.19,96.61,2" fill="none" stroke="#263238" stroke-linecap="round" stroke-linejoin="round" stroke-width="1"/>
      <path id="Path_1015" data-name="Path 1015" d="M431.55,282.75c3.07.92,6.09,1.89,9,2.93" fill="none" stroke="#263238" stroke-linecap="round" stroke-linejoin="round" stroke-width="1"/>
      <path id="Path_1016" data-name="Path 1016" d="M351.44,269.17s35.38,2.15,69.26,10.62" fill="none" stroke="#263238" stroke-linecap="round" stroke-linejoin="round" stroke-width="1"/>
      <path id="Path_1017" data-name="Path 1017" d="M243.76,351.56a329.871,329.871,0,0,1,88-1.57" fill="none" stroke="#263238" stroke-linecap="round" stroke-linejoin="round" stroke-width="1"/>
      <path id="Path_1018" data-name="Path 1018" d="M240.1,346.85s20.94-2.62,27.75-3.14" fill="none" stroke="#263238" stroke-linecap="round" stroke-linejoin="round" stroke-width="1"/>
      <path id="Path_1019" data-name="Path 1019" d="M380.34,152.63c3,.43,6,1,8.72,1.65" fill="none" stroke="#263238" stroke-linecap="round" stroke-linejoin="round" stroke-width="1"/>
      <path id="Path_1020" data-name="Path 1020" d="M337.23,151.64a239.642,239.642,0,0,1,37,.25" fill="none" stroke="#263238" stroke-linecap="round" stroke-linejoin="round" stroke-width="1"/>
      <path id="Path_1021" data-name="Path 1021" d="M175.89,272.78S205.77,258.63,249,254.7" fill="none" stroke="#263238" stroke-linecap="round" stroke-linejoin="round" stroke-width="1"/>
      <path id="Path_1022" data-name="Path 1022" d="M226.21,246.83s18.09-4.71,45.61-6.29" fill="none" stroke="#263238" stroke-linecap="round" stroke-linejoin="round" stroke-width="1"/>
      <path id="Path_1023" data-name="Path 1023" d="M175.4,346.74a30.88,30.88,0,0,0,16.5,14" fill="none" stroke="#263238" stroke-linecap="round" stroke-linejoin="round" stroke-width="1"/>
      <path id="Path_1024" data-name="Path 1024" d="M174.4,351.24s4.5,7,10.5,10" fill="none" stroke="#263238" stroke-linecap="round" stroke-linejoin="round" stroke-width="1"/>
      <path id="Path_1025" data-name="Path 1025" d="M321.9,326.24s3,14,15,20" fill="none" stroke="#263238" stroke-linecap="round" stroke-linejoin="round" stroke-width="1"/>
      <path id="Path_1026" data-name="Path 1026" d="M323.4,338.74a23.13,23.13,0,0,0,9.5,8" fill="none" stroke="#263238" stroke-linecap="round" stroke-linejoin="round" stroke-width="1"/>
      <path id="Path_1027" data-name="Path 1027" d="M125.56,365.7s3,5,13.5,5" fill="none" stroke="#263238" stroke-linecap="round" stroke-linejoin="round" stroke-width="1"/>
      <path id="Path_1028" data-name="Path 1028" d="M123.56,368.7a24.13,24.13,0,0,0,13.5,5.5" fill="none" stroke="#263238" stroke-linecap="round" stroke-linejoin="round" stroke-width="1"/>
    </g>
    <g id="freepik--Floor--inject-1--inject-44">
      <path id="Path_1029" data-name="Path 1029" d="M258.74,356.36A423.4,423.4,0,0,0,180,368.14l.62.93s22-4.67,62.66,5.33,43.34,18,88,18,88-10.66,88-10.66l-5.42-3C373.76,361.77,318.8,353,258.74,356.36Z" fill="#92e3a9"/>
      <path id="Path_1030" data-name="Path 1030" d="M258.74,356.36A423.4,423.4,0,0,0,180,368.14l.62.93s22-4.67,62.66,5.33,43.34,18,88,18,88-10.66,88-10.66l-5.42-3C373.76,361.77,318.8,353,258.74,356.36Z" fill="#fff" opacity="0.5"/>
      <path id="Path_1031" data-name="Path 1031" d="M160.9,379.24s52.5-8,98,22.5" fill="none" stroke="#263238" stroke-linecap="round" stroke-linejoin="round" stroke-width="1"/>
      <path id="Path_1032" data-name="Path 1032" d="M215.9,390.74s21.5,6.5,34.5,20.5" fill="none" stroke="#263238" stroke-linecap="round" stroke-linejoin="round" stroke-width="1"/>
      <path id="Path_1033" data-name="Path 1033" d="M342.9,365.24s30.5,3,58,19.5" fill="none" stroke="#263238" stroke-linecap="round" stroke-linejoin="round" stroke-width="1"/>
      <path id="Path_1034" data-name="Path 1034" d="M438,391.08a126.848,126.848,0,0,1,15.64,11.29" fill="none" stroke="#263238" stroke-linecap="round" stroke-linejoin="round" stroke-width="1"/>
      <path id="Path_1035" data-name="Path 1035" d="M80.21,414.67c36.45-31,102.31-54,178.53-58.31,69.57-3.95,132.32,8.51,173,31" fill="none" stroke="#263238" stroke-linecap="round" stroke-linejoin="round" stroke-width="1"/>
      <path id="Path_1036" data-name="Path 1036" d="M302.4,364.74s31.5,1.5,52.5,8.5" fill="none" stroke="#263238" stroke-linecap="round" stroke-linejoin="round" stroke-width="1"/>
    </g>
    <g id="freepik--Clouds--inject-1--inject-44">
      <path id="Path_1037" data-name="Path 1037" d="M159.58,127.34s-1-13.83-21.25-14.33-14.83,13.84-20.26,17.3-6.92-2-12.36,1.48-3,10.38-7.41,11.37-10.38-4.45-15.81-1-5.44,6.42-7.91,6.42-7.41-2-10.37,0S57.78,153,57.78,153h125s1.48-4.45-4-7.41-7.91-.5-9.88-3S174.4,133.77,159.58,127.34Z" fill="#92e3a9"/>
      <path id="Path_1038" data-name="Path 1038" d="M233.85,74.41s-.6-8.32-12.78-8.62-8.92,8.33-12.19,10.41-4.16-1.19-7.43.89-1.78,6.24-4.46,6.83-6.24-2.67-9.51-.59-3.27,3.86-4.76,3.86-4.46-1.18-6.24,0-3.86,2.68-3.86,2.68h75.2s.89-2.68-2.38-4.46-4.75-.3-5.94-1.78S242.77,78.28,233.85,74.41Z" fill="#92e3a9"/>
      <path id="Path_1039" data-name="Path 1039" d="M159.58,127.34s-1-13.83-21.25-14.33-14.83,13.84-20.26,17.3-6.92-2-12.36,1.48-3,10.38-7.41,11.37-10.38-4.45-15.81-1-5.44,6.42-7.91,6.42-7.41-2-10.37,0S57.78,153,57.78,153h125s1.48-4.45-4-7.41-7.91-.5-9.88-3S174.4,133.77,159.58,127.34Z" fill="#fff" opacity="0.7"/>
      <path id="Path_1040" data-name="Path 1040" d="M233.85,74.41s-.6-8.32-12.78-8.62-8.92,8.33-12.19,10.41-4.16-1.19-7.43.89-1.78,6.24-4.46,6.83-6.24-2.67-9.51-.59-3.27,3.86-4.76,3.86-4.46-1.18-6.24,0-3.86,2.68-3.86,2.68h75.2s.89-2.68-2.38-4.46-4.75-.3-5.94-1.78S242.77,78.28,233.85,74.41Z" fill="#fff" opacity="0.8"/>
    </g>
  </g>
</svg>
