<?xml version="1.0" standalone="no"?>
<!DOCTYPE svg PUBLIC "-//W3C//DTD SVG 20010904//EN"
 "http://www.w3.org/TR/2001/REC-SVG-20010904/DTD/svg10.dtd">
<svg version="1.0" xmlns="http://www.w3.org/2000/svg"
 width="1240.000000pt" height="1240.000000pt" viewBox="0 0 1240.000000 1240.000000"
 preserveAspectRatio="xMidYMid meet">
<metadata>
Created by potrace 1.14, written by Peter Selinger 2001-2017
</metadata>
<g transform="translate(0.000000,1240.000000) scale(0.100000,-0.100000)"
fill="#000000" stroke="none">
<path d="M6090 12371 c-25 -9 -46 -19 -48 -23 -2 -5 -9 -8 -15 -8 -13 0 -34
-18 -166 -138 -239 -218 -713 -692 -951 -952 -85 -92 -191 -209 -212 -231 -21
-24 -119 -135 -158 -179 -27 -31 -107 -124 -177 -205 -37 -44 -71 -81 -75 -83
-5 -2 -8 -8 -8 -13 0 -5 -8 -17 -17 -27 -10 -10 -27 -30 -38 -43 -11 -13 -52
-63 -90 -109 -83 -100 -280 -352 -386 -495 -41 -55 -78 -104 -82 -110 -5 -5
-42 -57 -83 -115 -41 -58 -81 -113 -89 -123 -8 -9 -15 -21 -15 -26 0 -5 -3
-11 -7 -13 -12 -5 -73 -95 -73 -106 0 -6 -4 -12 -8 -14 -8 -3 -71 -90 -82
-113 -3 -5 -40 -63 -82 -127 -43 -65 -78 -122 -78 -128 0 -5 -3 -10 -8 -10 -4
0 -16 -17 -27 -37 -11 -21 -22 -40 -26 -43 -3 -3 -31 -50 -63 -105 -32 -55
-66 -111 -75 -125 -9 -14 -28 -46 -41 -72 -14 -27 -29 -48 -33 -48 -5 0 -6 -4
-3 -8 3 -5 -3 -19 -12 -33 -20 -28 -93 -163 -127 -236 -13 -28 -29 -54 -34
-58 -6 -3 -11 -14 -11 -24 0 -10 -7 -24 -15 -31 -8 -6 -14 -15 -13 -18 1 -4
-24 -59 -54 -122 -77 -159 -98 -207 -98 -219 0 -6 -4 -11 -10 -11 -5 0 -10 -7
-10 -15 0 -8 -11 -38 -24 -67 -21 -48 -37 -84 -41 -98 -1 -3 -9 -22 -18 -44
-9 -21 -17 -41 -17 -43 0 -3 -6 -19 -14 -36 -7 -18 -24 -59 -36 -92 -12 -33
-27 -72 -32 -87 -6 -15 -10 -31 -10 -35 0 -4 -9 -30 -20 -58 -11 -27 -21 -57
-23 -66 -2 -9 -15 -54 -30 -100 -26 -83 -83 -295 -90 -334 -2 -11 -7 -31 -10
-45 -3 -14 -8 -36 -11 -50 -2 -14 -7 -36 -11 -50 -3 -14 -7 -32 -8 -40 -1 -8
-12 -74 -23 -145 -22 -129 -25 -153 -39 -310 -12 -129 -6 -690 7 -690 1 0 4
-20 6 -45 7 -69 34 -220 60 -335 27 -120 31 -138 49 -195 10 -30 18 -59 19
-65 3 -16 17 -59 25 -80 5 -11 23 -60 41 -110 17 -49 38 -103 45 -120 7 -16
21 -50 31 -74 36 -91 192 -394 206 -399 4 -2 8 -10 8 -17 0 -8 7 -21 16 -29 8
-9 13 -16 10 -16 -15 0 263 -398 339 -485 40 -46 55 -65 55 -70 0 -2 10 -15
23 -28 12 -12 47 -52 77 -87 101 -119 408 -420 544 -535 27 -22 58 -48 70 -58
57 -50 194 -159 240 -192 15 -11 42 -32 59 -47 18 -15 35 -28 39 -28 4 0 13
-6 20 -13 22 -20 229 -162 373 -255 11 -7 34 -21 50 -32 17 -10 35 -23 40 -28
6 -5 15 -11 20 -13 6 -2 48 -26 93 -54 46 -27 103 -61 125 -74 23 -13 56 -32
72 -42 31 -18 93 -53 180 -100 28 -15 133 -69 235 -119 102 -51 201 -100 220
-110 19 -9 100 -45 180 -80 80 -34 162 -70 183 -81 22 -10 45 -19 53 -19 11 0
13 -72 14 -417 0 -230 1 -427 1 -438 -3 -194 2 -240 32 -305 24 -51 122 -155
137 -145 5 3 10 2 10 -3 0 -17 82 -39 154 -41 165 -6 317 118 341 276 7 49 11
231 4 237 -2 2 -2 57 1 121 3 64 2 119 -3 122 -4 2 -5 9 -1 14 7 11 10 217 3
223 -2 2 -2 57 1 121 3 64 2 119 -2 121 -4 3 -5 11 -2 19 3 8 7 31 7 52 2 36
4 38 66 64 35 15 86 37 114 49 28 13 57 23 64 23 7 0 13 4 13 9 0 4 4 8 9 8 5
0 43 16 85 35 42 20 78 36 80 36 12 1 538 270 546 280 3 3 12 8 20 12 8 3 42
22 75 42 33 19 77 43 98 52 20 10 37 21 37 25 0 3 25 19 55 34 30 16 55 32 55
36 0 4 4 8 10 8 17 0 403 253 444 291 11 11 25 19 32 19 7 0 14 4 16 8 2 4 50
43 108 87 103 77 274 215 337 271 17 16 55 49 85 74 56 47 386 376 451 448 20
24 37 47 37 52 0 6 4 10 8 10 7 0 126 141 164 195 4 5 19 23 33 39 14 16 25
32 25 36 0 4 9 17 20 30 11 13 41 55 67 94 27 39 50 73 53 76 6 6 16 22 87
140 31 52 60 97 63 100 4 3 11 16 15 29 4 13 14 32 24 42 9 11 16 23 16 27 1
4 29 64 63 134 61 124 115 251 122 283 1 6 5 15 10 20 6 8 41 104 45 125 1 3
15 50 32 105 32 105 62 211 69 248 2 12 6 33 9 47 19 91 42 225 49 295 28 254
28 656 1 855 -2 19 -7 55 -10 80 -3 25 -8 56 -10 70 -3 14 -8 41 -10 60 -3 19
-9 58 -14 85 -5 28 -12 66 -16 85 -3 19 -11 53 -17 75 -6 22 -12 49 -13 60 -1
11 -3 20 -4 20 -2 0 -4 9 -6 20 -8 42 -75 282 -111 395 -10 30 -18 57 -19 60
-1 3 -4 12 -8 20 -3 8 -13 38 -22 65 -9 28 -28 79 -41 115 -14 36 -39 101 -56
145 -17 44 -35 84 -40 90 -4 5 -8 15 -8 22 0 6 -13 40 -29 75 -16 35 -39 86
-51 113 -12 28 -35 77 -51 110 -15 33 -28 64 -28 69 1 5 -3 12 -8 15 -8 6 -82
154 -84 169 -1 4 -9 18 -18 32 -10 14 -28 45 -40 70 -12 25 -40 77 -61 115
-22 39 -47 87 -57 108 -10 20 -21 37 -25 37 -5 0 -8 5 -8 11 0 13 -224 386
-301 501 -33 49 -59 92 -59 98 0 5 -4 10 -10 10 -5 0 -10 7 -10 15 0 8 -4 15
-9 15 -5 0 -13 9 -16 20 -3 11 -12 26 -18 33 -23 24 -97 136 -97 146 0 5 -4
11 -8 13 -5 2 -27 31 -50 64 -23 34 -47 68 -54 75 -7 8 -22 28 -32 44 -23 36
-119 167 -171 231 -14 18 -25 36 -25 42 0 6 -3 12 -7 14 -9 4 -49 53 -163 203
-46 61 -86 112 -90 115 -3 3 -21 25 -40 50 -19 25 -37 47 -41 50 -3 3 -37 43
-74 90 -37 47 -71 87 -74 90 -3 3 -22 25 -42 50 -20 25 -47 56 -59 70 -12 14
-40 47 -63 74 -46 55 -92 107 -152 175 -22 25 -44 51 -50 58 -5 7 -32 37 -60
67 -27 30 -79 87 -115 126 -360 397 -882 918 -1175 1175 -88 77 -229 105 -335
66z m-206 -1136 c3 -8 2 -15 -2 -15 -4 0 -7 -1330 -7 -2955 1 -2932 1 -2954
-19 -2937 -10 9 -155 152 -322 317 -331 328 -321 319 -349 328 -11 3 -38 12
-60 20 -52 20 -147 15 -215 -9 -71 -25 -151 -99 -187 -172 -23 -48 -27 -70
-28 -142 0 -151 -21 -125 619 -767 l561 -562 0 -1129 c1 -1055 0 -1130 -16
-1127 -9 2 -25 8 -35 14 -38 21 -172 81 -182 81 -6 0 -12 5 -14 10 -2 6 -14
12 -27 15 -14 2 -27 8 -30 12 -3 5 -55 33 -116 63 -148 74 -335 177 -448 246
-40 25 -84 50 -99 56 -16 7 -28 16 -28 20 0 4 -7 8 -15 8 -8 0 -15 5 -15 10 0
6 -5 10 -10 10 -6 0 -58 32 -115 70 -57 39 -107 70 -110 70 -3 0 -18 11 -33
25 -15 14 -32 25 -39 25 -7 0 -13 4 -13 8 0 4 -15 16 -32 27 -18 10 -35 21
-38 25 -3 3 -21 17 -40 30 -19 14 -44 32 -54 42 -11 10 -23 18 -26 18 -4 0
-18 10 -32 23 -13 12 -40 33 -58 47 -65 48 -161 127 -232 190 -15 14 -51 45
-79 70 -115 101 -359 352 -449 461 -186 225 -354 473 -437 641 -15 32 -31 58
-35 58 -5 0 -8 5 -8 11 0 6 -14 41 -32 78 -18 36 -33 68 -33 71 -1 3 -7 16
-12 30 -28 64 -83 211 -86 227 -1 10 -6 23 -10 30 -13 21 -66 227 -82 318 -3
17 -8 37 -10 45 -7 26 -16 95 -32 245 -4 33 -7 150 -7 260 0 184 4 263 19 370
3 22 7 60 10 85 3 25 8 52 10 60 2 8 6 35 9 60 8 57 14 88 20 98 2 4 7 27 11
52 4 25 8 48 11 51 2 4 6 24 10 45 3 20 10 48 15 61 5 13 6 23 3 23 -4 0 -1 7
6 15 7 8 9 15 5 15 -4 0 -2 6 4 13 6 8 8 17 5 20 -3 3 -2 12 2 19 5 7 9 19 10
26 3 14 52 180 61 202 4 8 7 17 8 20 1 3 4 12 8 20 3 8 22 62 43 120 20 58 45
124 55 147 11 23 19 49 19 57 0 9 5 16 10 16 6 0 10 6 10 13 0 18 76 189 173
390 48 97 86 180 86 183 0 4 4 10 9 13 5 3 26 40 47 81 21 41 40 77 44 80 3 3
15 23 27 45 37 72 69 130 75 135 4 3 16 24 28 47 11 23 25 45 31 48 6 4 8 10
6 14 -3 4 3 17 12 27 10 10 31 43 47 72 15 28 32 52 37 52 4 0 7 3 6 8 -3 8
25 52 113 184 33 49 59 90 59 93 0 3 6 13 13 21 6 8 17 20 22 27 6 7 16 24 24
40 8 15 18 27 23 27 4 0 8 7 8 15 0 8 5 15 10 15 6 0 10 5 10 10 0 6 5 16 10
23 6 7 59 80 118 162 165 230 206 287 217 299 6 6 30 38 55 71 25 33 48 62 53
63 4 2 7 8 7 12 0 5 10 20 23 33 12 13 33 39 47 58 26 35 236 295 255 315 5 7
24 29 40 49 17 21 45 54 63 74 18 20 40 48 49 64 10 15 23 27 30 27 7 0 13 4
13 8 0 5 9 20 21 33 12 13 40 46 63 73 22 27 48 57 56 66 8 9 49 54 90 100 41
46 89 98 105 116 17 18 64 69 105 114 204 223 453 479 466 479 7 1 14 -6 18
-14z m956 -295 c76 -80 157 -167 181 -194 24 -27 62 -68 84 -91 22 -22 69 -75
105 -116 36 -40 70 -79 75 -85 6 -6 35 -40 65 -74 30 -35 66 -76 80 -91 14
-15 32 -36 40 -46 50 -60 325 -391 339 -408 9 -11 45 -58 81 -105 36 -47 68
-87 71 -90 7 -6 221 -293 299 -400 30 -41 58 -76 62 -78 5 -2 8 -9 8 -16 0 -7
9 -21 20 -31 11 -10 20 -23 20 -28 0 -6 8 -20 19 -31 10 -12 71 -100 134 -196
64 -96 120 -180 124 -186 14 -19 32 -48 49 -81 9 -18 20 -33 25 -33 5 0 9 -5
9 -11 0 -9 97 -176 110 -189 3 -3 13 -21 23 -40 33 -62 52 -95 58 -100 3 -3
17 -28 31 -56 14 -27 36 -68 49 -90 53 -93 198 -384 191 -384 -4 0 -2 -4 3 -8
6 -4 33 -56 59 -117 27 -60 56 -126 65 -145 9 -19 16 -37 16 -40 0 -3 8 -26
19 -50 10 -25 22 -55 27 -67 5 -13 13 -33 19 -45 5 -13 19 -50 30 -83 12 -33
25 -69 30 -80 4 -11 21 -65 38 -120 17 -55 37 -118 44 -140 6 -22 13 -44 14
-50 1 -5 10 -39 19 -75 9 -36 18 -72 20 -80 2 -8 9 -37 15 -65 7 -27 14 -60
15 -72 2 -11 6 -31 10 -44 4 -12 9 -36 10 -53 1 -17 7 -58 13 -91 13 -69 20
-128 29 -235 8 -95 8 -436 0 -515 -3 -33 -9 -82 -11 -110 -3 -27 -9 -63 -13
-80 -3 -16 -7 -37 -9 -45 -1 -8 -4 -32 -7 -52 -15 -96 -92 -359 -147 -497
-114 -289 -330 -656 -517 -877 -10 -11 -34 -40 -53 -64 -65 -82 -173 -200
-181 -200 -5 0 -9 -4 -9 -9 0 -18 -271 -277 -427 -408 -47 -39 -63 -52 -195
-156 -76 -59 -140 -107 -143 -107 -4 0 -12 -6 -19 -12 -8 -7 -24 -20 -36 -28
-12 -8 -36 -26 -53 -38 -18 -13 -84 -58 -147 -99 -63 -42 -134 -89 -158 -104
-24 -16 -46 -29 -51 -29 -4 0 -16 -8 -27 -18 -10 -9 -30 -23 -44 -29 -14 -7
-43 -24 -65 -38 -22 -13 -62 -37 -90 -52 -27 -15 -59 -33 -70 -40 -11 -7 -31
-17 -45 -23 -13 -6 -31 -16 -38 -23 -8 -6 -21 -12 -30 -13 -8 -2 -18 -7 -21
-12 -7 -10 -464 -236 -498 -247 -16 -4 -23 -2 -24 7 0 7 0 187 -1 399 l0 387
540 540 c312 312 552 560 567 586 33 56 38 80 39 176 0 61 -5 86 -26 132 -39
84 -131 166 -208 186 -48 12 -146 13 -188 1 -81 -22 -131 -62 -354 -287 -120
-120 -218 -215 -218 -212 0 3 -5 -2 -10 -10 -15 -24 -134 -140 -139 -135 -2 3
-4 442 -4 976 l0 971 537 536 c295 296 547 553 560 572 75 112 73 272 -5 382
-26 36 -56 68 -64 68 -3 0 -15 9 -27 20 -34 31 -116 54 -195 53 -130 0 -154
-17 -501 -364 -166 -165 -302 -295 -303 -287 -1 18 -1 4354 0 4396 l1 34 71
-74 c39 -40 133 -138 209 -218z"/>
<path d="M4200 6713 c-89 -30 -151 -85 -196 -173 -26 -49 -29 -65 -29 -150 0
-82 4 -102 25 -144 35 -69 100 -133 168 -164 48 -22 71 -27 142 -26 73 0 93 4
141 28 94 47 158 121 185 216 14 48 12 142 -3 183 -8 23 -16 47 -17 52 -1 6
-12 26 -26 45 -64 93 -158 144 -270 147 -46 1 -92 -5 -120 -14z"/>
<path d="M8008 8165 c-21 -7 -38 -10 -38 -8 0 3 -7 0 -15 -7 -8 -7 -15 -9 -15
-6 0 4 -6 1 -13 -6 -7 -7 -29 -24 -48 -37 -19 -12 -48 -44 -65 -70 -138 -203
-26 -479 213 -526 176 -35 363 87 398 260 17 85 -9 212 -54 268 -37 46 -69 77
-80 77 -6 0 -11 4 -11 9 0 5 -25 19 -55 31 -66 27 -165 34 -217 15z"/>
<path d="M8020 5245 c-128 -33 -224 -123 -258 -245 -7 -24 -7 -143 0 -171 28
-113 128 -212 246 -243 116 -31 266 13 332 97 8 10 24 31 36 45 43 55 67 181
50 262 -10 45 -55 125 -92 163 -77 78 -212 118 -314 92z"/>
</g>
</svg>
